<?xml version="1.0" encoding="UTF-8"?>
<svg id="Layer_3" data-name="Layer 3" xmlns="http://www.w3.org/2000/svg" viewBox="0 0 272.43 293.17">
  <defs>
    <style>
      .cls-1 {
        stroke-width: .84px;
      }

      .cls-1, .cls-2, .cls-3, .cls-4, .cls-5, .cls-6, .cls-7, .cls-8 {
        stroke-miterlimit: 10;
      }

      .cls-1, .cls-3, .cls-4, .cls-5, .cls-6, .cls-7, .cls-8 {
        stroke: #fff;
      }

      .cls-1, .cls-3, .cls-9 {
        fill: #fdfefe;
      }

      .cls-2 {
        stroke: #fdfefe;
      }

      .cls-2, .cls-4, .cls-10, .cls-11, .cls-7 {
        fill: #fcfcfb;
      }

      .cls-2, .cls-7 {
        stroke-width: .16px;
      }

      .cls-3 {
        stroke-width: .98px;
      }

      .cls-4 {
        stroke-width: 1.71px;
      }

      .cls-4, .cls-5, .cls-6, .cls-8 {
        stroke-linecap: round;
      }

      .cls-11 {
        fill-rule: evenodd;
      }

      .cls-5 {
        fill: #f2f0ec;
        stroke-width: 4.79px;
      }

      .cls-6 {
        stroke-width: 6px;
      }

      .cls-6, .cls-8 {
        fill: none;
      }

      .cls-8 {
        stroke-width: 5px;
      }
    </style>
  </defs>
  <g id="Layer_1" data-name="Layer 1">
    <g>
      <g>
        <path class="cls-10" d="M13.42,191.73c.46,2.21,1.77,2.48,4.3,2.07l8.46-1.39.4,2.47-8.49,1.39c-3.98.65-5.79-1.1-6.35-4l1.68-.54Z"/>
        <path class="cls-10" d="M18.22,200.22c1.75-.45,2.61.63,3.07,2.41l.54,2.1.79-.2c.69-.18,1.15-.52.79-1.89-.28-1.08-.75-1.84-1.18-2.44l1.5-.81c.49.69,1.14,1.89,1.49,3.26.68,2.63.08,3.75-1.72,4.22l-3.56.92c-.69.18-1.36.37-1.85.57l-.45-1.76.78-.77v-.05c-.87-.46-1.47-1.22-1.76-2.33-.41-1.58.36-2.9,1.57-3.21ZM19.78,205.3l.8-.21-.4-1.56c-.15-.59-.36-1.2-1.15-.99-.64.17-.8.74-.63,1.4.16.62.75,1.4,1.38,1.37Z"/>
        <path class="cls-10" d="M24.44,210.96c.9-.35,1.88-.75,2.67-1.1l.84,1.98-.97.56.02.05c1.05.36,1.74,1.09,2.16,2.15.83,2.12-.41,4.1-2.54,4.93-2.55.99-4.68-.05-5.48-2.1-.3-.77-.4-1.67.02-2.49v-.03s-4.11,1.59-4.11,1.59l-.9-2.31,8.29-3.23ZM25.63,217.19c1.71-.67,1.95-1.8,1.59-2.71-.3-.77-1.04-1.25-1.69-1.29l-2.52.98c-.39.15-.92,1.01-.5,2.1.49,1.27,1.74,1.45,3.11.92Z"/>
        <path class="cls-10" d="M26.24,223.5c1.6-.84,2.69.01,3.55,1.64l1.01,1.92.72-.38c.63-.33,1-.78.33-2.03-.52-.99-1.15-1.61-1.71-2.11l1.28-1.13c.63.56,1.54,1.57,2.21,2.82,1.27,2.4.95,3.63-.69,4.5l-3.25,1.72c-.63.33-1.24.68-1.67.99l-.85-1.61.58-.93-.03-.05c-.94-.25-1.7-.84-2.24-1.87-.76-1.44-.32-2.91.78-3.49ZM28.92,228.08l.73-.39-.76-1.43c-.28-.54-.63-1.08-1.35-.7-.59.31-.61.9-.29,1.5.3.57,1.06,1.19,1.66,1.01Z"/>
        <path class="cls-10" d="M35.07,232.28c.77-.52,1.43-1,2.04-1.46l1.25,1.72-.81.78.03.05c.86.17,1.89.6,2.65,1.71,1.14,1.67.73,3.24-1.1,4.48l-4.05,2.76-1.41-2.06,3.9-2.66c.89-.61,1.32-1.28.73-2.14-.49-.71-1.25-1.01-2.02-1l-4.48,3.05-1.4-2.05,4.67-3.18Z"/>
        <path class="cls-10" d="M40.69,243.14c1.81-1.55,4.28-1.73,6.22.55,1.98,2.32.96,4.69-1.29,5.91l-3.69-4.31c-1.05.97-.78,2.17.11,3.22.64.75,1.36,1.31,2,1.7l-1.05,1.22c-.81-.47-1.71-1.24-2.48-2.13-1.9-2.22-1.8-4.45.18-6.14ZM45.35,246.93c.06-.03.1-.06.15-.1.52-.44.93-1.26.11-2.22-.73-.85-1.74-.78-2.49-.29l2.23,2.61Z"/>
        <path class="cls-10" d="M45.83,254.4l1.38-.97c.25.61.91,1.67,1.49,2.23.66.64,1.18.71,1.53.35.92-.95-2.23-3.61-.48-5.41,1.13-1.17,2.84-.8,4.31.62.71.69,1.27,1.51,1.54,2.13l-1.33.95c-.22-.51-.74-1.37-1.3-1.9-.5-.49-1.01-.65-1.34-.31-.84.87,2.3,3.56.49,5.43-1.2,1.24-2.9.83-4.53-.74-.75-.73-1.44-1.68-1.75-2.39Z"/>
        <path class="cls-10" d="M55.63,258.68c1.5-1.86,3.89-2.49,6.22-.61,2.37,1.91,1.81,4.43-.18,6.05l-4.42-3.56c-.85,1.14-.37,2.28.7,3.14.77.62,1.57,1.03,2.28,1.3l-.81,1.39c-.88-.31-1.91-.9-2.83-1.64-2.27-1.83-2.59-4.04-.96-6.07ZM60.91,261.55c.06-.04.09-.08.13-.13.43-.53.68-1.41-.3-2.2-.87-.7-1.85-.45-2.5.18l2.67,2.15Z"/>
        <path class="cls-10" d="M71.41,268.36c1.71-3.01,4.99-3.91,8.5-1.92,1.23.7,2.18,1.52,2.67,2.11l-1.24,1.43c-.54-.65-1.25-1.26-2.32-1.87-2.03-1.15-4.05-.74-5.31,1.48-1.23,2.16-.67,4.15,1.34,5.29.49.28.91.44,1.19.5l1.23-2.16-1.61-.92,1.01-1.52,3.62,2.06-2.82,4.97c-.89-.18-2.36-.67-3.64-1.4-3.66-2.08-4.27-5.15-2.62-8.06Z"/>
        <path class="cls-10" d="M82.73,276.39c.96-2.18,3.11-3.41,5.85-2.21,2.79,1.23,2.89,3.81,1.4,5.89l-5.19-2.29c-.52,1.33.23,2.29,1.49,2.85.91.4,1.79.59,2.54.66l-.42,1.55c-.93-.07-2.08-.37-3.16-.85-2.67-1.18-3.55-3.23-2.5-5.61ZM88.58,277.78c.04-.05.06-.1.09-.16.27-.62.3-1.54-.86-2.05-1.02-.45-1.91.05-2.37.82l3.14,1.38Z"/>
        <path class="cls-10" d="M94.36,279.48c.29-.88.53-1.66.74-2.39l2.04.61-.18,1.11.05.02c.79-.39,1.87-.67,3.14-.25,1.92.64,2.54,2.14,1.85,4.23l-1.54,4.66-2.37-.79,1.49-4.48c.34-1.02.27-1.81-.72-2.14-.82-.27-1.61-.05-2.21.44l-1.71,5.14-2.35-.78,1.78-5.36Z"/>
        <path class="cls-10" d="M105.37,284.73c.54-2.32,2.42-3.93,5.33-3.25,2.97.69,3.55,3.21,2.47,5.52l-5.53-1.28c-.27,1.4.66,2.21,2,2.52.97.22,1.87.25,2.62.18l-.13,1.6c-.93.11-2.12.02-3.26-.25-2.84-.66-4.09-2.51-3.5-5.05ZM111.37,285.01c.03-.06.04-.11.06-.17.15-.66,0-1.56-1.23-1.85-1.09-.25-1.86.4-2.17,1.25l3.34.78Z"/>
        <path class="cls-10" d="M117.34,288.36l.55-3.62-1.14-.17.34-1.52,1.15.11.44-1.81,2.22-.08-.34,2.25,2.09.32-.37,1.59-1.96-.3-.52,3.41c-.17,1.1.32,1.46,1.06,1.57.31.05.55.05.79.04l-.24,1.67c-.4.07-1.24.06-1.96-.05-1.85-.28-2.44-1.29-2.12-3.39Z"/>
        <path class="cls-10" d="M126.04,284.2l2.47.17-.76,8.18-2.47-.23.76-8.12ZM126.16,281.55c.06-.68.72-1.16,1.47-1.09.77.07,1.32.67,1.26,1.35-.06.69-.72,1.16-1.49,1.09-.75-.07-1.3-.65-1.24-1.35Z"/>
        <path class="cls-10" d="M131.9,288.84c.07-2.5,1.91-4.24,5.06-4.15.83.02,1.78.18,2.43.45l-.33,1.68c-.45-.2-1.2-.38-2.05-.41-1.52-.04-2.54.81-2.59,2.45-.05,1.74,1.1,2.52,2.48,2.56.81.02,1.55-.09,2.08-.27l.17,1.68c-.65.21-1.74.36-2.8.33-2.77-.08-4.54-1.64-4.47-4.33Z"/>
        <path class="cls-10" d="M142.6,292.72l.24-1.67c.62.24,1.84.48,2.65.44.92-.04,1.32-.38,1.3-.87-.06-1.32-4.16-.85-4.27-3.35-.07-1.62,1.37-2.62,3.4-2.71.99-.05,1.97.11,2.61.35l-.22,1.62c-.52-.19-1.51-.4-2.28-.36-.7.03-1.16.29-1.14.77.06,1.21,4.17.77,4.29,3.37.08,1.72-1.38,2.68-3.64,2.79-1.05.05-2.21-.1-2.94-.36Z"/>
        <path class="cls-10" d="M158.62,280.46c.98-.27,2.25-.57,3.58-.81,3.23-.6,5.03.15,5.44,2.33.27,1.47-.5,2.72-1.73,3.34v.03s3.68,4.5,3.68,4.5l-2.65.49-3.11-4.01-1.55.29.82,4.43-2.42.45-2.05-11.03ZM163.32,284.66c1.3-.24,2.05-1.02,1.85-2.08-.23-1.25-1.14-1.49-2.51-1.24-.61.11-1.02.22-1.33.3l.61,3.28,1.37-.25Z"/>
        <path class="cls-10" d="M172.16,286.99c-.49-1.74.58-2.62,2.34-3.12l2.08-.59-.22-.78c-.19-.69-.55-1.14-1.91-.75-1.08.3-1.82.79-2.42,1.23l-.84-1.48c.68-.5,1.86-1.18,3.22-1.56,2.61-.74,3.75-.16,4.25,1.62l1,3.54c.19.69.4,1.35.62,1.84l-1.75.49-.79-.76h-.05c-.44.88-1.18,1.5-2.3,1.82-1.57.44-2.91-.3-3.25-1.49ZM177.21,285.32l-.23-.8-1.56.44c-.58.16-1.19.39-.97,1.17.18.64.76.79,1.41.6.62-.17,1.38-.79,1.34-1.41Z"/>
        <path class="cls-10" d="M180.74,275.36c-.23-.64.15-1.36.86-1.61.73-.26,1.48.05,1.71.69.24.65-.15,1.36-.88,1.62-.71.25-1.46-.04-1.69-.69ZM181.75,277.82l2.31-.9,2.79,7.74-2.33.84-2.76-7.67Z"/>
        <path class="cls-10" d="M190.51,282.91l-.38-1.64c.66,0,1.89-.21,2.63-.53.84-.37,1.1-.82.9-1.28-.53-1.21-4.19.69-5.19-1.6-.65-1.49.34-2.93,2.21-3.75.91-.4,1.88-.6,2.56-.61l.37,1.59c-.56,0-1.55.17-2.26.48-.64.28-.98.68-.79,1.12.48,1.11,4.17-.77,5.21,1.61.69,1.58-.33,3-2.4,3.9-.96.42-2.1.7-2.88.71Z"/>
        <path class="cls-10" d="M198.19,275.48c-1.14-2.1-.79-4.55,1.84-5.98,2.68-1.45,4.79.04,5.51,2.5l-4.99,2.71c.73,1.23,1.96,1.22,3.17.56.87-.47,1.56-1.05,2.08-1.6l.97,1.29c-.62.7-1.57,1.42-2.6,1.98-2.57,1.39-4.73.83-5.97-1.46ZM202.88,271.71c-.02-.07-.04-.11-.07-.17-.32-.6-1.03-1.17-2.15-.57-.98.53-1.13,1.54-.8,2.38l3.02-1.64Z"/>
        <path class="cls-10" d="M208.28,269.82c-1.44-2.13-1.09-4.5.79-5.78.94-.64,1.73-.71,2.46-.52l.03-.02-2.61-3.86,2.02-1.44,5.46,8.09c.34.51,1.01,1.46,1.38,1.91l-1.46.99-1.05-.61-.03.02c-.04.99-.54,1.89-1.58,2.59-1.89,1.27-4.07.63-5.42-1.36ZM214.1,267.24l-1.52-2.25c-.79-.41-1.56-.18-2.04.14-1.19.8-.91,2.16-.19,3.23,1.04,1.54,2.21,1.47,2.99.94.91-.62,1.04-1.64.76-2.06Z"/>
        <path class="cls-10" d="M219.65,252.83c-.45-.5-.37-1.32.19-1.82.57-.52,1.39-.52,1.84-.01.47.52.37,1.32-.2,1.83-.56.5-1.36.52-1.83,0ZM221.52,254.71l1.8-1.71,5.5,6.11-1.84,1.66-5.46-6.06Z"/>
        <path class="cls-10" d="M228.1,252.08c-.68-.63-1.28-1.18-1.86-1.67l1.41-1.6.94.63.04-.04c-.02-.87.17-1.98,1.09-2.95,1.38-1.47,3.01-1.41,4.61.1l3.58,3.36-1.71,1.82-3.44-3.23c-.79-.74-1.53-1.01-2.25-.25-.59.63-.72,1.44-.54,2.19l3.95,3.71-1.7,1.81-4.12-3.87Z"/>
        <path class="cls-10" d="M238.78,233.27l-1.8,2.73-1.52-1.16,4.92-7.47,1.52,1.16-1.75,2.65,7.86,5.18-1.37,2.09-7.86-5.18Z"/>
        <path class="cls-10" d="M247.5,229.75c-2.11-1.11-3.19-3.34-1.79-5.99,1.42-2.7,4-2.62,5.97-.99l-2.65,5.02c1.29.62,2.3-.07,2.95-1.29.46-.88.71-1.74.84-2.48l1.52.53c-.13.93-.52,2.05-1.07,3.09-1.36,2.58-3.47,3.32-5.77,2.11ZM249.31,224.01c-.05-.05-.09-.07-.15-.1-.6-.32-1.51-.4-2.1.72-.52.99-.09,1.91.65,2.42l1.6-3.04Z"/>
        <path class="cls-10" d="M253.44,216.98l-4.75,1.24,1.02-2.58,3.08-.5v-.03s-1.94-2.37-1.94-2.37l1-2.53,2.56,4.13,5.07-1.24-1.03,2.61-3.26.49v.03s2.04,2.55,2.04,2.55l-1,2.53-2.79-4.34Z"/>
        <path class="cls-10" d="M258.41,209.44c-1.74-.47-1.96-1.84-1.47-3.61l.57-2.09-.78-.21c-.69-.19-1.26-.11-1.63,1.25-.29,1.08-.26,1.96-.19,2.71l-1.7-.04c-.08-.84-.06-2.2.31-3.57.71-2.62,1.79-3.3,3.58-2.81l3.55.96c.69.19,1.36.35,1.9.42l-.48,1.75-1.06.28v.05c.5.82.65,1.78.35,2.89-.43,1.58-1.75,2.34-2.95,2.02ZM259.58,204.26l-.8-.22-.42,1.56c-.16.58-.28,1.22.5,1.43.64.17,1.06-.24,1.24-.9.17-.62.04-1.59-.52-1.87Z"/>
        <path class="cls-10" d="M263.08,198.28l-1.59-.57c.36-.56.84-1.71.97-2.5.15-.91-.1-1.37-.59-1.45-1.31-.21-1.68,3.9-4.15,3.5-1.6-.26-2.28-1.87-1.96-3.88.16-.98.51-1.91.87-2.48l1.54.54c-.29.47-.69,1.4-.81,2.16-.11.69.04,1.2.52,1.27,1.19.19,1.6-3.93,4.17-3.52,1.7.27,2.35,1.9,1.99,4.13-.17,1.03-.54,2.14-.95,2.8Z"/>
      </g>
      <polyline class="cls-4" points="69.43 232.38 107.7 232.38 111.64 232.38 114.3 232.38 118.08 232.38 147.78 232.38 151.54 232.38 154.1 232.38 157.97 232.38 205.91 232.38"/>
      <g>
        <path class="cls-10" d="M54.84,197.68v-2.09l1.2-.2c.38-.08.63-.21.73-.39.1-.18.17-.47.19-.87l.77-13.02c.04-.42,0-.71-.13-.87-.12-.16-.38-.27-.76-.33l-1.23-.2v-2.09h7.77l4.39,11.58.11-.14,4.73-11.44h7.28v2.09l-1.35.2c-.29.04-.5.12-.63.26-.13.13-.19.47-.17,1l.89,12.84c.02.46.08.78.19.96.1.18.36.31.76.39l1.23.23v2.09h-9.15v-2.09l1.58-.23c.29-.06.49-.17.6-.33.11-.16.15-.45.11-.87l-.77-11.32-.06-.11-4.79,11.73h-2.92l-4.76-11.75-.06.11-.63,11.21c-.02.38,0,.68.06.9.06.22.32.37.77.44l1.4.23v2.09h-7.37Z"/>
        <path class="cls-10" d="M84.82,197.68v-2.09l1.29-.23c.38-.08.63-.21.73-.4.1-.19.16-.53.16-1.03v-12.64c0-.5-.06-.84-.19-1.02-.12-.18-.39-.3-.79-.36l-1.2-.2v-2.09h9.15v2.09l-1.32.23c-.33.06-.55.18-.67.37-.12.19-.19.54-.19,1.06v12.64c0,.5.06.83.17.99.11.16.36.28.75.36l1.26.23v2.09h-9.15Z"/>
        <path class="cls-10" d="M102.22,197.68v-2.09l2.01-.29c.4-.04.66-.18.77-.43.11-.25.17-.59.17-1.03v-13.79h-1c-.57,0-1.05.06-1.43.17s-.72.33-1,.63-.54.74-.76,1.29-.45,1.26-.7,2.12l-2.75-.54.98-6.11h18.18l.95,6.14-2.75.52c-.23-.86-.46-1.57-.69-2.12-.23-.55-.48-.98-.76-1.29-.28-.31-.61-.52-.99-.63s-.84-.17-1.38-.17h-1.06v13.85c0,.42.05.75.16.97s.38.37.82.43l1.98.29v2.09h-10.72Z"/>
        <path class="cls-10" d="M128.83,198.08c-1.03,0-2.01-.16-2.94-.49-.93-.32-1.7-.75-2.31-1.29l-.4,1.55h-2.01l-.46-6.28,2.26-.34c.23.63.52,1.2.86,1.72.34.52.74.95,1.18,1.3.44.35.93.63,1.48.82.54.19,1.12.29,1.73.29.67,0,1.22-.1,1.66-.29.44-.19.77-.46,1-.82.23-.35.34-.77.34-1.25,0-.55-.14-1.03-.43-1.42-.29-.39-.74-.74-1.35-1.03-.61-.3-1.4-.6-2.38-.9-.86-.27-1.65-.57-2.38-.9-.73-.33-1.35-.74-1.88-1.2-.53-.47-.94-1.05-1.23-1.73s-.44-1.51-.44-2.47c0-.54.08-1.08.24-1.65.16-.56.41-1.11.75-1.63.33-.53.77-1,1.3-1.43.54-.43,1.19-.77,1.95-1.03.76-.26,1.65-.39,2.67-.39.94,0,1.76.12,2.47.37.71.25,1.36.59,1.95,1.03l.37-1.4h1.83l.63,6.16-2.26.43c-.34-1.01-.77-1.81-1.28-2.38s-1.06-.98-1.65-1.23c-.59-.25-1.19-.37-1.81-.37-.78,0-1.43.21-1.95.62-.52.41-.77.98-.77,1.71,0,.54.15.98.44,1.35.3.36.75.69,1.35.97.6.29,1.33.56,2.19.83.96.29,1.82.61,2.59.96.77.35,1.44.77,1.99,1.25.55.48.98,1.05,1.28,1.72.3.67.44,1.48.44,2.44,0,1.03-.2,1.95-.59,2.75-.39.8-.92,1.48-1.58,2.02-.66.54-1.41.96-2.25,1.23-.84.28-1.72.42-2.64.42Z"/>
        <path class="cls-10" d="M149.93,198.08c-1.53,0-2.82-.19-3.88-.57-1.06-.38-1.9-.92-2.52-1.62-.62-.7-1.07-1.52-1.35-2.48-.28-.96-.42-2-.42-3.12v-8.97c0-.5-.06-.84-.17-1.03-.11-.19-.37-.31-.77-.37l-1.18-.2v-2.09h9.03v2.09l-1.23.23c-.34.06-.57.19-.69.39s-.17.55-.17,1.05v8.89c0,1.05.14,1.93.42,2.62.28.7.72,1.22,1.32,1.58.6.35,1.4.53,2.39.53,1.07,0,1.92-.19,2.55-.57s1.08-.93,1.36-1.65c.28-.72.42-1.57.42-2.57v-8.89c0-.5-.06-.84-.17-1.03-.11-.19-.38-.31-.8-.37l-1.15-.2v-2.09h7.2v2.09l-1.2.23c-.36.06-.6.19-.72.39-.11.2-.17.57-.17,1.1v8.49c0,1.82-.31,3.33-.92,4.54-.61,1.21-1.51,2.12-2.71,2.72-1.19.6-2.68.9-4.46.9Z"/>
        <path class="cls-10" d="M179.83,198.08c-.9,0-1.64-.15-2.24-.44-.59-.3-1.08-.72-1.48-1.28-.39-.55-.72-1.22-.99-2.01l-1.06-3.38c-.15-.44-.32-.82-.49-1.15-.17-.32-.39-.58-.65-.77-.26-.19-.62-.29-1.08-.29h-.47c-.16,0-.31.02-.44.06v5.07c0,.44.06.77.17,1s.4.39.86.49l1.35.2v2.09h-9.32v-2.09l1.23-.23c.36-.06.6-.18.72-.36.11-.18.17-.55.17-1.1v-12.64c0-.46-.06-.78-.19-.98-.12-.19-.39-.31-.79-.37l-1.15-.2v-2.09h8.74c1.17,0,2.24.09,3.21.27s1.82.47,2.54.86c.72.39,1.28.91,1.68,1.56.4.65.6,1.43.6,2.35,0,.71-.14,1.32-.42,1.85s-.63.98-1.06,1.38-.9.72-1.42.99c-.52.27-1.02.48-1.52.65-.5.16-.93.27-1.29.33v.11c1.07.15,1.91.44,2.51.85.6.41,1.06,1.06,1.36,1.94l.75,1.86c.23.59.44,1.09.63,1.49s.41.7.66.89c.25.19.56.29.95.29.19,0,.38-.02.57-.06.19-.04.41-.09.66-.14l.4,1.75c-.42.36-.94.66-1.56.9s-1.34.36-2.16.36ZM172.12,186.67c.76,0,1.4-.14,1.92-.42.52-.28.91-.68,1.19-1.22.28-.54.42-1.17.42-1.89,0-.76-.15-1.37-.44-1.82-.3-.45-.7-.78-1.22-.99-.52-.21-1.12-.32-1.81-.32h-1.2v6.59c.23.02.44.03.63.04.19,0,.36.01.52.01Z"/>
        <path class="cls-10" d="M186.85,197.68v-2.09l1.29-.23c.38-.08.63-.21.73-.4.1-.19.16-.53.16-1.03v-12.64c0-.5-.06-.84-.19-1.02-.12-.18-.39-.3-.79-.36l-1.2-.2v-2.09h9.15v2.09l-1.32.23c-.33.06-.55.18-.67.37-.12.19-.19.54-.19,1.06v12.64c0,.5.06.83.17.99.11.16.36.28.75.36l1.26.23v2.09h-9.15Z"/>
        <path class="cls-10" d="M200.3,197.68v-2.09l1.23-.23c.34-.06.57-.18.69-.37.11-.19.17-.55.17-1.09v-12.61c0-.5-.06-.84-.17-1.02-.11-.18-.36-.3-.75-.36l-1.18-.2v-2.09h7.4l8.46,14.13.06-.11v-10.35c0-.48-.06-.81-.19-.99-.12-.18-.38-.3-.76-.36l-1.15-.23v-2.09h7.51v2.09l-1.2.2c-.36.06-.6.18-.72.37-.11.19-.17.55-.17,1.09v16.31h-5.05l-8.69-14.13-.06.11v10.35c0,.52.06.85.19,1,.12.15.37.27.73.34l1.18.23v2.09h-7.54Z"/>
      </g>
      <g>
        <path class="cls-9" d="M91.39,223.59l-3.42-14.32c-.1-.42-.22-.71-.35-.87-.13-.16-.39-.27-.78-.34l-1.03-.2v-1.86h8.29v1.86l-1.18.18c-.34.07-.54.19-.62.38-.08.18-.07.49.01.9l2.26,10.38h.1l3.42-13.69h4.12l3.77,13.79h.1l2.21-10.5c.08-.44.09-.74.02-.9s-.26-.28-.58-.33l-1.23-.25v-1.81h6.66v1.86l-1.23.2c-.2.02-.38.06-.53.13-.15.07-.28.18-.38.34s-.19.41-.28.77l-3.32,14.3h-4.65l-3.44-12.64h-.08l-3.19,12.64h-4.7Z"/>
        <path class="cls-9" d="M112.17,223.59v-1.88l1.03-.2c.32-.07.56-.19.72-.38.16-.18.32-.51.49-.98l5.13-14.15h4.1l5.1,14.25c.18.47.34.79.48.95.13.17.37.29.7.35l.88.18v1.86h-8.12v-1.88l1.16-.15c.32-.05.51-.18.58-.38.07-.2.04-.5-.08-.9l-.68-1.96h-5.93l-.65,1.86c-.12.35-.16.65-.14.9.03.25.28.42.77.5l1.11.18v1.83h-6.63ZM118.43,216.2h4.62l-2.21-6.91h-.08l-2.34,6.91Z"/>
        <path class="cls-9" d="M140.81,223.94c-1.71,0-3.16-.38-4.36-1.16-1.2-.77-2.11-1.83-2.74-3.18-.63-1.35-.94-2.89-.94-4.64,0-1.41.21-2.68.62-3.83.41-1.15,1-2.13,1.76-2.95.76-.82,1.67-1.45,2.73-1.88s2.24-.65,3.54-.65c.9,0,1.7.12,2.37.35.68.23,1.28.57,1.8,1.01l.28-1.38h1.68l1.06,6.16-2.11.4c-.32-.97-.7-1.75-1.13-2.35-.44-.59-.95-1.03-1.53-1.31s-1.27-.41-2.06-.41-1.42.14-1.99.43c-.57.28-1.05.7-1.43,1.24-.39.54-.68,1.2-.88,1.97-.2.77-.3,1.67-.3,2.69,0,1.11.12,2.07.35,2.9.23.83.56,1.52.97,2.09.41.56.9.98,1.46,1.24.56.27,1.17.4,1.82.4.45,0,.86-.04,1.23-.11.37-.08.71-.19,1.02-.35s.57-.35.79-.57v-1.96c0-.39-.05-.68-.14-.88-.09-.2-.32-.33-.69-.38l-1.21-.18v-1.88h7.64v1.88l-.95.18c-.35.05-.57.17-.67.36-.09.19-.14.51-.14.94v5.48h-2.24l-.53-1.48c-.27.23-.64.49-1.11.78-.47.28-1.03.53-1.7.73s-1.42.3-2.27.3Z"/>
        <path class="cls-9" d="M156.27,223.59v-1.83l1.51-.2c.3-.03.51-.13.62-.3.11-.17.16-.49.16-.98v-3.34l-4.55-7.59c-.22-.35-.42-.64-.6-.85-.18-.22-.49-.36-.9-.43l-.98-.18v-1.88h8.37v1.86l-1.26.18c-.32.03-.51.16-.57.36-.06.21.03.51.26.89l3.04,4.98h.13l2.86-4.82c.23-.4.32-.71.26-.93-.06-.22-.3-.37-.72-.45l-1.16-.23v-1.83h6.96v1.86l-1.26.23c-.29.05-.52.17-.72.36s-.43.53-.72,1.02l-4.37,7.41v3.49c0,.42.05.71.15.88.1.17.32.27.65.3l1.51.2v1.83h-8.69Z"/>
        <path class="cls-9" d="M181.24,223.94c-1.34,0-2.48-.17-3.4-.5s-1.67-.81-2.21-1.42-.94-1.34-1.18-2.17c-.24-.84-.36-1.75-.36-2.74v-7.86c0-.44-.05-.74-.15-.9-.1-.17-.33-.28-.68-.33l-1.03-.18v-1.83h7.92v1.83l-1.08.2c-.3.05-.5.16-.6.34-.1.18-.15.48-.15.92v7.79c0,.92.12,1.69.36,2.3.24.61.63,1.07,1.16,1.38s1.23.46,2.1.46c.94,0,1.68-.17,2.24-.5.55-.33.95-.82,1.19-1.44.24-.63.36-1.38.36-2.25v-7.79c0-.44-.05-.74-.15-.9s-.34-.28-.7-.33l-1-.18v-1.83h6.31v1.83l-1.06.2c-.32.05-.53.16-.63.34-.1.18-.15.5-.15.97v7.44c0,1.59-.27,2.92-.8,3.98s-1.33,1.86-2.37,2.39c-1.05.53-2.35.79-3.91.79Z"/>
      </g>
      <polygon class="cls-10" points="200.96 209.8 202.37 214.16 206.96 214.16 203.25 216.86 204.66 221.22 200.96 218.52 197.25 221.22 198.66 216.86 194.95 214.16 199.54 214.16 200.96 209.8"/>
      <polygon class="cls-10" points="73.42 208.78 74.84 213.14 79.42 213.14 75.71 215.83 77.13 220.19 73.42 217.5 69.71 220.19 71.13 215.83 67.42 213.14 72 213.14 73.42 208.78"/>
      <path class="cls-11" d="M96.63,162.46c.49.22,1.05.49,1.6.79-.18,0-.36.03-.52.05-.36-.32-.72-.6-1.08-.84h0ZM178.92,168.27h-.74,0c.27-.32.72-.71,1.34-1.02-.23.34-.44.69-.61,1.02h0ZM186.7,166.13h0c.38-.1.8-.17,1.2-.22-.21.18-.42.36-.62.55-.19-.12-.38-.23-.58-.33h0ZM187.41,165.34h-.02c-.56.05-1.18.18-1.78.38-.19-.05-.38-.08-.55-.1-.79-.08-1.45.11-1.82.23.23-.2.49-.4.77-.59.54-.35,1.18-.65,1.76-.9.48.24,1.1.57,1.64.97h0ZM187.77,168.32h0c-.12.17-.2.33-.24.44-.03.11-.02.19.02.25h-.79c.16-.1.28-.22.36-.36.11-.21.12-.47.33-.9.03.03.05.07.07.1.12.18.19.33.25.47h0ZM188.98,167.11h0c-.18.14-.35.27-.5.41-.16-.19-.34-.38-.54-.55.15-.19.33-.39.54-.59.2.25.37.5.5.73h0ZM189.82,169.01h-.61c.03-.06.04-.14.02-.25,0-.02,0-.03-.01-.05.07-.12.12-.27.23-.46.04.16.06.29.11.4.06.14.15.25.28.36h0ZM204.72,169.01h0c.09-.19.18-.43.45-.75.27-.32.72-.7,1.34-1.02-.41.61-.74,1.25-.94,1.76h-.85ZM208.29,166.69h0c-.74.86-1.23,1.75-1.29,2.15,0,.07,0,.13.01.17h-.37c.05-.22.09-.5.26-.92.15-.35.39-.8.73-1.26.21-.05.43-.1.66-.14h0ZM190.17,166.24h0s-.05-.02-.08-.03c-.34-.13-.72-.23-1.09-.29l-.03.03c.19.21.38.43.55.66.02.03.05.06.07.1.22-.13.45-.25.69-.36-.04-.03-.08-.06-.12-.1h0ZM187.59,164.75h0c.35.16.73.34,1.12.55l-.05.03c-.06,0-.12.01-.18.02-.04,0-.09,0-.13-.01-.25-.22-.51-.42-.76-.59h0ZM190.74,164.89h0c.49.24,1.01.52,1.47.83-.33.06-.66.15-.99.25-.26-.15-.54-.27-.81-.37-.15-.11-.31-.21-.46-.31.26-.14.53-.28.79-.41h0ZM196.42,168.17h0c-.13.26-.26.51-.36.75-.27-.54-.72-1.24-1.3-1.88-.06-.07-.13-.14-.2-.21.08.03.16.05.23.08.77.31,1.32.83,1.63,1.26h0ZM198.19,168.01h0c-.12.18-.22.35-.31.51-.12-.18-.26-.38-.42-.57.09-.21.2-.44.34-.68.16.25.29.49.38.7l.02.04h0ZM199.82,166.15h0c-.12-.13-.24-.26-.38-.38-.11-.1-.22-.19-.33-.28-.07.08-.15.16-.22.24-.27.31-.5.61-.71.91.11.13.21.25.31.39.07.1.14.19.21.29.1-.12.2-.24.31-.36.25-.28.52-.54.81-.8h0ZM201.01,165.24h0c-.24.16-.49.34-.73.53-.25-.26-.51-.49-.76-.69.25-.24.51-.48.76-.7.24.27.49.57.73.87h0ZM201.21,168.88h0s-.05.09-.07.13h-1.53c-.08-.22-.2-.48-.34-.75.04-.11.1-.24.18-.38.17-.32.45-.73.83-1.15.3.42.51.83.65,1.15.2.48.22.78.28,1h0ZM202.26,167.37h0c-.21-.5-.5-1.06-.88-1.62h-.02c-.23.18-.43.34-.62.51.18.22.36.44.52.68.22.31.41.63.58.94.13-.17.27-.34.42-.52h0ZM202.59,169.01h0c.04-.09.06-.19.1-.3.02.11.04.21.05.3h-.15ZM204.1,167.79h0c.14-.25.3-.5.47-.75.45-.64.98-1.22,1.53-1.69-.39.19-.79.4-1.14.62-.89.58-1.5,1.27-1.84,1.8.11.24.2.48.29.71.19-.22.42-.46.7-.7h0ZM159.18,165.9h-.02s.04-.03.04-.03l-.02.03h0ZM192.09,169.01h-1.32c-.07-.35-.31-.92-.67-1.53.22-.19.48-.38.8-.55.4.43.68.84.85,1.17.22.42.28.7.33.92h0ZM194,169.01h.54s-.08-.05-.12-.07c-.3-.17-.5-.33-.59-.57-.1-.24-.09-.55-.34-1.1-.1-.22-.23-.47-.41-.74-.29-.03-.55-.05-.75-.07-.1,0-.18-.01-.24-.02-.04.01-.08.02-.11.03l.04.03c.8.65,1.4,1.54,1.49,1.97.04.19-.02.29-.12.34.04.06.07.13.1.19h.53ZM151.36,166.23h0c-.22-.32-.47-.65-.74-.98.03-.03.06-.06.09-.1.27.38.49.74.65,1.08h0ZM154.93,167.48h0s.03.04.04.06v.02s-.04-.07-.04-.07h0ZM153.19,166.28h0c-.09-.14-.18-.28-.27-.42.15.08.29.15.42.23-.05.06-.1.12-.15.18h0ZM175.28,166.19h0c-.15-.25-.31-.49-.47-.71.3-.18.61-.36.92-.52.11-.04.23-.08.35-.12.05-.01.09-.03.14-.04-.05.06-.1.13-.15.19-.29.39-.56.8-.79,1.2h0ZM174.63,167.5h0c.09-.23.21-.49.35-.75-.16-.32-.36-.65-.58-.99h-.02c-.23.18-.43.34-.62.51.18.22.36.44.52.68.13.18.24.36.35.55h0ZM173.05,167h0c.08-.09.16-.18.24-.28.3.42.51.83.65,1.15.06.15.11.28.14.4h-1.49c.08-.29.15-.67.46-1.25v-.02h.01ZM178.71,162.46h0c-.36.24-.72.53-1.08.84-.16-.02-.34-.04-.52-.05.55-.3,1.11-.57,1.6-.79h0ZM168.29,166.37h0c-.22-.09-.45-.17-.67-.22.35-.28.77-.54,1.26-.74.05.03.09.06.14.09-.03.03-.05.06-.08.08-.23.26-.45.52-.65.79h0ZM167.79,167.07h0l-.03-.03c-.07-.07-.13-.14-.2-.21.08.03.16.05.23.08.03.01.05.02.08.03-.03.04-.06.09-.09.13h0ZM162.21,164.2h0s-.01,0-.01,0h0ZM162.56,163.85h.02c.06.04.12.07.19.1-.05.04-.1.09-.15.14-.1-.01-.19-.03-.27-.04.07-.07.14-.13.21-.2h0ZM163.16,163.63h0s-.06.05-.09.08c-.1-.02-.2-.03-.29-.04.08-.07.15-.13.23-.19.05.05.1.11.15.16h0ZM163.02,165.33h0c.1-.14.22-.29.35-.44.11,0,.21-.02.31-.02.17.08.34.17.51.26-.12.14-.23.29-.35.44-.04.06-.08.11-.12.17-.1-.04-.2-.09-.31-.12-.12-.09-.25-.17-.37-.25l-.02-.02h0ZM160.42,163.13h0c.12-.16.25-.32.38-.47.3-.19.59-.36.85-.51.21.19.43.39.64.59-.37.25-.76.56-1.14.9-.24-.18-.48-.35-.72-.51h0ZM160.98,165.82h0l.04.04c-.09.13-.18.25-.27.38.07-.13.14-.27.23-.41h0ZM161.5,165.25h0s-.06.07-.09.11h-.02s-.05-.04-.07-.06c.03-.05.06-.09.1-.14.03.03.06.06.09.1h0ZM162.32,168.27h-.3c-.08-.15-.19-.31-.32-.48.16-.12.27-.24.35-.39.02-.03.03-.06.04-.09.04.09.08.17.12.25.09.2.15.37.19.52-.03.07-.05.13-.08.2h0ZM159.38,164.69h.02s-.03.02-.03.02v-.02h.01ZM160.49,164.28h0c-.31-.05-.58-.09-.78-.11.07-.11.14-.22.22-.33l.03.02c.19.14.38.28.55.42h0ZM155.28,164.29h0c-.15.11-.3.23-.44.35-.43-.5-.89-.96-1.35-1.36.54.26,1.08.54,1.55.85.08.05.16.1.23.16h0ZM156.65,165.45h0s-.06.09-.09.13c-.05.08-.1.15-.15.23-.09.03-.17.05-.24.08-.33.11-.35.12.09.15-.07.1-.13.21-.19.31-.15-.26-.32-.51-.49-.76-.03-.04-.06-.09-.09-.13.18-.19.37-.37.59-.56.21.18.41.37.59.56h0ZM157.15,167.54h0s.03-.04.04-.06l-.03.07v-.02h-.01ZM143.14,164.34h0s-.06.03-.09.05c-.14-.04-.28-.07-.42-.1.08,0,.16-.01.23-.02.09.02.19.04.28.07h0ZM147.36,164.26h0s-.07.08-.1.13c-.04-.04-.07-.07-.11-.11.07,0,.14-.01.21-.02h0ZM149.1,165.33h0s-.08.09-.12.13c-.15.16-.29.33-.42.5-.09-.13-.19-.27-.29-.4-.13-.18-.28-.35-.42-.52.05-.07.09-.14.14-.2.23.01.49.03.76.06.13.15.24.3.35.44h0ZM143.27,165.42h0c1.03.42,1.76,1.13,2.18,1.7-.18.35-.35.69-.49,1.02-.37-.74-.99-1.69-1.78-2.56l-.05-.06s.09-.07.14-.1h0ZM146.14,165.93h0c-.41-.38-.98-.79-1.71-1.13-.03.01-.07.03-.1.04h-.03c.54.27,1.06.59,1.53.97.09.07.17.14.25.21.02-.03.04-.07.06-.1h0ZM146.92,166.91h0s-.05-.05-.07-.08v-.02s.05.07.07.1h0ZM149.35,167.21h0c.06-.14.13-.3.22-.48.05-.09.1-.19.16-.29.18.44.21.73.33.96.17.32.52.54,1.04.78.07.03.14.06.22.09h-1.53c-.08-.2-.17-.42-.28-.66,0-.02,0-.04-.01-.06-.03-.1-.08-.21-.15-.34h0ZM146.47,163.66h0c-.54-.45-1.09-.83-1.61-1.1-.32-.16-.63-.29-.91-.38.16-.08.31-.16.46-.23.8.34,1.67.76,2.4,1.23.33.21.63.44.9.66l-.06.07c-.31-.09-.71-.2-1.17-.25h0ZM142.17,163.27h.02c.77.07,1.6.24,2.43.52.19-.05.37-.08.55-.11-.64-.45-1.34-.83-1.92-1.12-.37.21-.74.45-1.08.71h0ZM139.33,167.57h0c.11.29.16.51.21.7h-.65c.17-.14.3-.3.38-.48.03-.07.05-.14.07-.22h0ZM141.93,162.46h0c-.35.23-.7.51-1.04.81-.06,0-.12,0-.18.01h0c-.05-.05-.1-.1-.16-.15.48-.25.95-.48,1.38-.67h0ZM137.67,163.8h0c-.14-.06-.28-.12-.42-.17-.21-.15-.42-.29-.63-.42.34-.19.69-.37,1.05-.54.35.17.71.35,1.05.54-.21.13-.42.27-.63.42-.14.05-.28.11-.41.17h0ZM129.89,167.13h0c.42-.58,1.15-1.28,2.18-1.7.05.03.09.07.14.1l-.05.06c-.79.88-1.41,1.83-1.78,2.56-.14-.33-.31-.67-.49-1.02h0ZM128.42,166.91h0s.04-.07.06-.1v.02s-.04.05-.06.08h0ZM126.38,163.63h0c-.23.18-.45.38-.66.58-.1,0-.2,0-.3,0,.11-.12.23-.23.35-.35.14-.13.3-.26.45-.39.05.05.1.11.15.16h0ZM126.24,165.33h0c.1-.14.22-.29.35-.44.27-.02.53-.04.76-.06.05.07.09.14.14.2-.15.17-.29.35-.42.52-.1.13-.19.26-.29.4-.13-.17-.28-.33-.42-.5-.04-.04-.08-.09-.12-.13h0ZM123.65,163.13h0c.24.16.48.33.72.51.38-.35.77-.65,1.14-.9-.21-.2-.43-.4-.64-.59-.26.15-.55.32-.85.51-.13.15-.25.31-.37.47h0ZM124.72,165.25h0c-.28.33-.53.66-.74.98.17-.33.39-.7.65-1.08.03.03.06.06.09.1h0ZM125.54,168.27h-1.53c.07-.03.15-.06.22-.09.52-.24.87-.45,1.04-.78.13-.24.15-.53.33-.96.06.1.12.2.16.29.09.18.17.34.22.48-.07.13-.13.25-.15.34,0,.02-.01.04-.01.06-.11.24-.21.46-.28.66h0ZM123.71,164.28h0c-.05.05-.1.11-.15.16-.32.07-.64.16-.96.27.16-.29.34-.58.54-.87l.03.02c.19.14.38.28.55.42h0ZM122,166.1h0c.13-.08.27-.16.42-.23-.09.14-.18.28-.27.42-.05-.06-.1-.12-.15-.18h0ZM136.01,167.57h0c.02.08.04.15.07.22.08.19.2.34.38.48h-.65c.05-.19.1-.41.21-.7h0ZM137.67,167.98h0c-.15-.47-.44-1.12-.83-1.8.24-.2.51-.41.83-.61.32.2.6.4.83.61-.39.68-.68,1.33-.83,1.8h0ZM94.7,166.83h0c.34.46.58.91.73,1.26.03.06.05.12.07.18h-.37c-.22-.44-.6-1.02-1.08-1.58.22.04.45.09.66.14h0ZM96.42,168.27h0c-.17-.33-.37-.68-.61-1.02.62.32,1.07.7,1.34,1.02h0s-.74,0-.74,0h0ZM113.84,165.25h0s.06-.06.09-.1c.03.05.07.09.1.14-.03.02-.05.04-.07.07h-.02s-.06-.08-.09-.11h0ZM107.55,167.07h0s-.06-.08-.09-.13c.03-.01.05-.02.08-.03.08-.03.15-.06.23-.08-.07.07-.13.14-.2.21l-.03.03h0ZM105.91,168.17h0s.01,0,.01,0c.05.03.11.06.17.09h-.13s-.03-.07-.05-.1h0ZM102.32,164.61h0c-.1-.07-.2-.14-.3-.21l.03-.03c.09.08.18.16.27.24h0ZM102.29,167h0v.02c.32.57.39.95.47,1.25h-1.49c.03-.12.08-.25.14-.4.13-.32.35-.73.65-1.15.09.09.17.19.24.28h0ZM100.71,167.5h0c.11-.18.23-.37.35-.55.16-.23.34-.46.52-.68-.19-.17-.4-.34-.62-.5h-.02c-.23.32-.42.65-.58.97.14.27.25.52.35.75h0ZM99.01,168.27h-.18c.04-.08.05-.19.02-.33-.07-.35-.39-.92-.87-1.51.56.46.97.95,1.23,1.35-.07.16-.14.33-.21.49h0ZM88.64,166.13h0c-.2.1-.39.21-.58.33-.2-.19-.4-.38-.62-.55.4.05.81.12,1.2.22h0ZM91.65,168.47h0c-.11.13-.2.32-.26.54h-1.6c-.11-.43-.56-1.21-1.21-1.98.26-.21.57-.4.93-.54.03,0,.05-.02.08-.03.71.33,1.22.76,1.52,1.1.36.42.41.71.54.91h0ZM90.79,166.17h0c.21.1.41.22.6.34.89.56,1.58,1.29,1.83,1.76h.46c-.08-.22-.12-.52-.39-1-.13-.22-.3-.47-.53-.74-.38-.03-.71-.05-.96-.07q-.7-.04-.25-.16c.2-.05.48-.13.84-.19-.03-.03-.07-.06-.1-.1-.07,0-.17.01-.29.02-.29.02-.72.05-1.19.13h0ZM87.93,165.34h0c.54-.4,1.16-.73,1.64-.97.58.25,1.22.56,1.76.9.29.19.55.38.78.59-.37-.12-1.03-.32-1.82-.23-.18.02-.36.05-.55.1-.6-.2-1.22-.34-1.78-.38h-.02ZM87.57,168.32h0c.06-.14.13-.29.25-.47.02-.03.04-.07.07-.1.21.43.22.7.33.9.07.14.19.25.36.36h-.79c.04-.06.05-.14.02-.25-.03-.12-.11-.27-.24-.44h0ZM86.36,167.11h0c.13-.23.3-.48.5-.73.21.2.38.4.53.59-.2.18-.38.37-.53.55-.15-.14-.32-.28-.5-.41h0ZM85.52,169.01h0c.13-.1.22-.22.28-.36.05-.11.07-.24.11-.4.11.19.16.34.23.46,0,.02,0,.03-.01.05-.02.11-.01.19.02.25h-.61ZM70.62,169.01h-.86c-.2-.51-.53-1.16-.94-1.76.62.32,1.07.7,1.35,1.02.27.31.36.56.45.75h0ZM67.04,166.69h0c.22.04.45.09.66.14.34.46.58.91.73,1.26.17.42.22.7.26.92h-.37s.02-.1.01-.17c-.05-.4-.54-1.29-1.29-2.15h0ZM85.17,166.24h0s-.08.06-.11.1c.24.11.47.23.69.36.02-.03.05-.06.07-.1.17-.23.36-.45.55-.66l-.03-.03c-.37.07-.75.16-1.09.29-.03.01-.05.02-.08.03h0ZM87.75,164.75h0c-.25.17-.51.37-.76.59-.04,0-.09,0-.13.01-.06,0-.12-.01-.18-.02l-.05-.03c.39-.21.78-.4,1.12-.55h0ZM84.6,164.89h0c.27.13.54.26.8.41-.16.1-.31.2-.46.31-.27.1-.54.22-.81.37-.33-.11-.67-.19-.99-.25.46-.31.98-.59,1.47-.83h0ZM78.92,168.17h0c.31-.43.85-.96,1.63-1.26.08-.03.15-.06.23-.08-.07.07-.13.14-.2.21-.58.64-1.04,1.34-1.3,1.88-.11-.24-.23-.49-.36-.75h0ZM77.15,168.01h0l.02-.04c.09-.21.22-.45.38-.7.14.24.25.47.34.68-.17.19-.31.39-.42.57-.09-.16-.2-.33-.31-.51h0ZM75.52,166.15h0c.28.25.55.52.8.8.11.12.21.24.31.36.07-.1.14-.2.21-.29.1-.13.2-.26.31-.39-.2-.3-.44-.6-.71-.91-.07-.08-.14-.16-.22-.24-.11.09-.22.19-.33.28-.13.12-.26.25-.38.38h0ZM74.33,165.24h0c.23-.3.48-.6.72-.87.25.22.51.46.77.7-.26.21-.52.44-.77.69-.24-.19-.48-.36-.72-.53h0ZM74.13,168.88h0c.06-.23.08-.52.28-1,.13-.32.35-.73.65-1.15.39.42.66.83.83,1.15.08.14.13.27.17.38-.14.27-.26.53-.34.75h-1.53s-.04-.09-.07-.13h0ZM73.08,167.37h0c.15.17.29.35.42.52.17-.31.36-.63.58-.94.16-.23.34-.46.52-.68-.19-.17-.4-.34-.62-.5h-.02c-.38.55-.66,1.11-.87,1.6h0ZM72.75,169.01h-.15c.01-.09.03-.19.05-.3.03.12.06.22.1.3h0ZM71.24,167.79h0c.28.24.51.48.7.7.09-.23.19-.47.29-.71-.34-.53-.95-1.23-1.84-1.8-.35-.23-.75-.44-1.14-.62.54.47,1.08,1.05,1.52,1.69.17.25.33.5.47.75h0ZM118.19,167.54h0v.02s-.04-.07-.04-.07c.01.02.03.04.04.06h0ZM116.16,165.9h0l-.02-.03.04.02h-.02ZM113.24,167.31h0s.03.06.04.09c.08.15.2.28.35.39-.13.17-.23.33-.32.48h-.3c-.02-.06-.05-.13-.08-.2.04-.15.1-.32.19-.52.03-.08.07-.16.12-.25h0ZM114.36,165.82h0c.08.14.16.28.23.41-.08-.12-.17-.25-.26-.38l.04-.04h0ZM115.96,164.69h0v.02s-.02-.01-.02-.01h.02ZM116.65,164.32h0c.28.29.53.6.75.9l-.05.04c-.1-.05-.21-.1-.31-.14-.15-.26-.3-.52-.45-.76l.06-.03h0ZM120.37,167.54h0s.03-.04.04-.06l-.03.07v-.02h-.01ZM118.69,165.45h0c.18-.19.37-.37.59-.56.21.18.41.37.59.56-.03.04-.06.09-.09.13-.17.25-.34.51-.49.76-.06-.1-.12-.21-.19-.31.44-.03.41-.04.09-.15-.07-.02-.15-.05-.24-.08-.05-.08-.1-.15-.16-.23-.03-.04-.06-.09-.09-.13h0ZM117.38,163.9h0c.08,0,.1,0,.04.04.22.22.43.45.64.69.15-.12.29-.24.44-.35-.08-.05-.15-.1-.23-.16-.48-.31-1.02-.6-1.55-.85.22.19.45.4.67.62h0ZM111.66,164.86h0c.1,0,.21.02.31.02.13.15.25.3.35.44l-.02.02c-.12.08-.25.16-.37.25-.1.04-.2.08-.31.12-.04-.06-.08-.11-.13-.17-.11-.15-.23-.29-.35-.44.17-.09.34-.18.51-.26h0ZM113.13,164.2h0s-.01,0-.01,0h0ZM112.78,163.85h0c.07.07.14.14.21.2-.08,0-.17.02-.27.04-.05-.05-.1-.09-.15-.14.07-.03.13-.06.19-.09h.02ZM106.46,165.41h0c.49.2.91.46,1.26.74-.22.06-.45.13-.67.22-.2-.26-.42-.53-.65-.79-.03-.03-.05-.06-.08-.08.05-.03.09-.06.14-.09h0ZM107.61,164.78h0l-.12.06c.52.24,1.03.55,1.49.91.03-.02.06-.05.09-.07h0c-.39-.32-.88-.64-1.47-.9h0ZM104.06,164.88h.03c.24.37.43.72.56,1.02.02.05.04.09.06.13-.04.04-.08.08-.13.13-.29-.36-.59-.71-.9-1.02.13-.09.25-.17.37-.25h0ZM105.34,164.13h0c.49.08.98.19,1.42.32.09.03.18.06.26.09-.04.01-.09.03-.13.04-.51-.19-1.01-.31-1.48-.36-.07,0-.14-.01-.21-.02l.05-.02.1-.05h0ZM104.78,164.06h-.01s.04,0,.04,0h-.02ZM102.53,163.85h0c.13,0,.29.02.45.03.21.16.41.32.6.48-.21.05-.39.1-.54.15-.08-.07-.17-.14-.25-.21-.13-.11-.26-.21-.39-.31.05-.05.09-.1.13-.14h0ZM183.69,168.47h0c.13-.19.18-.49.54-.91.3-.35.8-.77,1.52-1.1.03,0,.05.02.08.03.36.14.67.33.93.54-.65.77-1.1,1.55-1.21,1.98h-1.6c-.06-.22-.15-.41-.26-.54h0ZM181.66,168.27h.46c.25-.47.94-1.2,1.83-1.76.19-.12.39-.23.6-.34-.47-.07-.91-.1-1.2-.13-.13,0-.22-.02-.29-.02-.03.03-.07.06-.1.1.35.06.64.13.84.19q.45.12-.26.16c-.25.01-.58.03-.96.07-.23.27-.4.53-.53.74-.27.48-.31.78-.39,1h0ZM179.85,168.27h0c.02-.06.04-.11.07-.18.15-.35.39-.8.73-1.26.21-.05.43-.1.66-.14-.49.56-.86,1.14-1.08,1.58h-.38ZM182.89,164.4h0c-.26.09-.54.22-.85.39-.55.32-1.14.82-1.69,1.41-.53.12-1.07.3-1.58.53l.03-.05c.4-.61,1.18-1.4,2.31-1.85.55-.22,1.18-.35,1.77-.44h0ZM184.64,164.22h-.16c-.14.02-.31.03-.49.05-.06.04-.14.08-.24.14-.53.29-1.58.88-2.35,1.58-.02.02-.04.04-.06.06h0c.21-.02.41-.02.6-.02.82-.76,1.8-1.41,2.7-1.8h0ZM176.5,168.27h-.18c-.07-.16-.13-.33-.21-.49.26-.4.66-.89,1.23-1.35-.48.59-.79,1.16-.87,1.51-.03.15-.02.26.02.33h0ZM177.65,164.49h0c-.49.58-.85,1.17-1.08,1.65.73-.57,1.52-1.03,2.25-1.32.21-.08.41-.15.61-.21.23-.13.46-.26.7-.37-.64.04-1.56.1-2.48.25h0ZM173.02,164.61h0c.09-.08.18-.16.27-.24l.03.03c-.1.07-.2.14-.3.21h0ZM169.43,168.17h0s-.03.07-.05.1h-.13c.06-.03.11-.06.17-.09h.01ZM171.28,164.88h0c.12.08.25.16.37.25-.31.32-.61.66-.9,1.02-.04-.04-.08-.08-.13-.13.02-.04.04-.09.06-.13.13-.3.32-.65.56-1.02h.04ZM171.77,164.36h0c.19-.16.38-.32.6-.48.16-.01.32-.02.45-.03.04.05.09.09.13.14-.13.09-.26.2-.39.31-.08.07-.17.14-.25.21-.15-.05-.33-.1-.54-.15h0ZM170.56,164.06h-.02s.03-.01.03-.01h-.01ZM168.45,164.59h0s-.09-.03-.13-.04c.09-.03.17-.06.26-.09.44-.14.93-.24,1.42-.32l.1.05.05.02c-.07,0-.14.01-.21.02-.47.05-.97.17-1.48.36h0ZM166.36,165.75h0c.46-.36.97-.67,1.49-.91l-.12-.06c-.59.27-1.08.58-1.47.9h0s.06.05.09.08h0ZM157.94,165.22h0c.22-.3.47-.6.75-.9l.06.03c-.15.25-.3.5-.45.76-.11.05-.21.09-.32.14l-.05-.04h0ZM156.84,164.29h0c.15.11.3.23.44.35.21-.24.42-.47.64-.69-.05-.03-.04-.04.04-.04.22-.22.44-.43.67-.62-.54.26-1.08.54-1.55.85-.08.05-.16.1-.23.16h0ZM154.16,162.68h0c.62.27,1.27.63,1.9,1.05.63-.42,1.28-.78,1.9-1.05-.71-.36-1.4-.66-1.9-.88-.5.22-1.18.52-1.9.88h0ZM153.82,165.12h0c.11.05.21.09.31.14l.05-.04c-.27-.38-.6-.76-.98-1.13.21.33.42.67.62,1.03h0ZM151.63,164.28h0c.17-.14.36-.28.55-.42l.03-.02c.2.29.38.59.54.87-.32-.1-.64-.19-.96-.27-.05-.06-.1-.11-.15-.16h0ZM149.84,162.74h0c.21-.2.43-.4.64-.59.26.15.54.32.85.51.13.15.25.31.37.47-.24.16-.48.33-.72.51-.38-.35-.77-.65-1.14-.9h0ZM148.96,163.63h0c.23.18.45.38.66.58.1,0,.19,0,.29,0-.11-.12-.23-.23-.35-.35-.14-.13-.3-.26-.45-.39-.05.05-.1.11-.15.16h0ZM134.64,163.28h0c-.06,0-.12,0-.18-.01-.34-.3-.7-.58-1.04-.81.43.19.9.42,1.38.67-.05.05-.1.1-.15.15h0ZM132.29,164.39h0s-.06-.03-.09-.05c.09-.02.18-.05.28-.07.08,0,.15.01.23.02-.14.03-.28.06-.42.1h0ZM129.2,165.93h0s.04.07.06.1c.08-.07.16-.14.25-.21.47-.38.99-.7,1.53-.96h-.03s-.07-.04-.1-.05c-.73.33-1.3.75-1.71,1.13h0ZM132.08,162.57h0c.36.21.74.45,1.08.71h-.02c-.77.07-1.6.24-2.43.52-.19-.05-.37-.08-.55-.11.64-.45,1.34-.83,1.92-1.12h0ZM127.98,164.26h0c.07,0,.14.01.21.02-.04.04-.07.07-.11.11-.03-.04-.07-.08-.1-.13h0ZM127.64,163.84h0l.06.07c.31-.09.7-.2,1.17-.25.54-.45,1.09-.83,1.61-1.1.32-.16.63-.29.92-.38-.16-.08-.31-.16-.46-.23-.8.34-1.67.76-2.4,1.23-.33.21-.63.44-.9.66h0ZM121.16,165.22h0c.27-.38.6-.76.98-1.13-.21.33-.42.67-.62,1.03-.11.05-.21.09-.32.14l-.05-.04h0ZM120.06,164.29h0c.15.11.3.23.44.35.43-.5.89-.96,1.35-1.36-.54.26-1.08.54-1.55.85-.08.05-.16.1-.23.16h0ZM117.38,162.68h0c.71-.36,1.39-.66,1.9-.88.5.22,1.19.52,1.9.88-.62.27-1.26.63-1.9,1.05-.63-.42-1.28-.78-1.9-1.05h0ZM114.85,164.28h0c.17-.14.36-.28.55-.42l.03-.02c.08.11.15.22.22.33-.2.02-.47.05-.78.12h-.01ZM113.05,162.74h0c.21-.2.43-.4.64-.59.26.15.54.32.85.51.13.15.25.31.38.47-.24.16-.48.33-.72.51-.38-.35-.77-.65-1.14-.9h0ZM112.18,163.63h0c.05-.05.1-.11.15-.16.08.06.16.13.23.19-.09.01-.18.02-.29.04-.03-.03-.06-.05-.09-.08h0ZM100.06,166.19h0c-.23-.4-.5-.81-.79-1.2-.05-.06-.1-.13-.15-.19.05.01.09.03.14.04.12.04.24.08.35.12.31.16.62.33.92.52-.16.23-.32.46-.47.71h0ZM95.91,164.61h0c-.23-.13-.46-.26-.7-.37.64.04,1.56.1,2.48.25.49.58.85,1.17,1.08,1.65-.73-.57-1.52-1.03-2.25-1.32-.21-.08-.41-.15-.61-.21h0ZM92.45,164.4h0c.26.09.54.22.84.39.55.32,1.14.82,1.69,1.41.53.12,1.07.3,1.58.53l-.03-.05c-.4-.61-1.18-1.4-2.31-1.85-.55-.22-1.18-.35-1.77-.44h0ZM90.7,164.22h.16c.14.02.31.03.49.05.06.04.14.08.24.14.53.29,1.58.88,2.35,1.58.02.02.04.04.06.06h0c-.21-.02-.41-.02-.6-.02-.81-.76-1.8-1.41-2.7-1.8h0ZM54.35,169.01h0c-.36,0-.66.46-.66,1.02s.3,1.02.66,1.02h166.64c.36,0,.66-.46.66-1.02s-.3-1.02-.66-1.02h-5.16c.14-.05.25-.12.32-.22.15-.19.19-.5.57-.94.38-.44,1.11-1.03,2.18-1.36,1.07-.33,2.48-.41,3.18-.45q.7-.04.25-.16c-.45-.12-1.35-.35-2.45-.26-1.1.09-2.41.51-3.44,1.16-1.04.65-1.8,1.54-1.92,1.97-.03.11-.02.19.02.25h-.79c.16-.1.28-.22.36-.36.13-.24.12-.55.44-1.1.28-.49.81-1.17,1.63-1.77.15,0,.29-.02.41-.02q.7-.04.25-.16c-.08-.02-.18-.05-.29-.07,1-.64,2.34-1.14,3.02-1.39q.69-.25.23-.23c-.46.02-1.37.07-2.44.5-.56.22-1.17.56-1.75.96-.36-.04-.78-.06-1.22-.02-1.1.09-2.41.51-3.45,1.16-1.04.65-1.8,1.54-1.92,1.97-.12.43.41.41.81.35.4-.05.67-.13.82-.32.15-.19.19-.5.57-.94.38-.44,1.11-1.03,2.18-1.36.46-.14.98-.24,1.49-.3-.27.22-.52.45-.76.7-.86.89-1.47,1.9-1.6,2.41h-4.85c.06-.02.11-.05.16-.07.38-.17.64-.33.76-.57.13-.24.12-.55.44-1.1.13-.22.3-.47.53-.74.38-.03.71-.05.96-.07q.7-.04.26-.16c-.2-.05-.48-.13-.84-.19.29-.29.64-.58,1.05-.84,1.01-.65,2.38-1.16,3.06-1.41q.69-.25.23-.23c-.46.02-1.37.07-2.44.5-.96.38-2.04,1.07-2.93,1.9-.19,0-.39,0-.6.02h0s.04-.04.06-.06c.77-.71,1.82-1.29,2.35-1.58q.53-.29.17-.24c-.35.05-1.06.14-1.88.63-.55.32-1.14.82-1.69,1.41-.61.14-1.24.36-1.81.65.23-.33.52-.67.86-.99.77-.71,1.82-1.29,2.35-1.58q.53-.29.17-.24c-.27.04-.74.1-1.32.34-.48.05-1.1.17-1.79.45-1.03.41-2.21,1.18-3.12,2.09-.27-.51-.57-.99-.88-1.44.92-.57,2-1.04,2.59-1.29q.68-.29.22-.24c-.46.05-1.37.14-2.42.63-.25.11-.5.25-.76.4-.19-.25-.39-.48-.58-.68-.07-.08-.15-.16-.22-.23.4-.34.77-.62,1.02-.83q.63-.49.19-.31c-.33.14-.89.38-1.56.82-.52-.44-.96-.68-1.21-.82q-.34-.19.15.31c.18.19.44.45.72.75-.13.09-.26.2-.39.31-.16.13-.33.28-.49.43-.08-.06-.17-.11-.25-.16-.82-.49-1.53-.58-1.88-.63q-.35-.05.17.24c.36.2.96.53,1.55.95-.31.32-.61.66-.9,1.02-.57-.57-1.19-1.04-1.76-1.33-.83-.43-1.54-.47-1.89-.49q-.35-.02.18.23c.53.25,1.6.76,2.38,1.41.27.22.5.46.7.7-.16.23-.32.46-.47.69-.06-.05-.12-.11-.18-.16-.7-.57-1.57-.96-2.35-1.11.29-.02.54-.04.74-.05q.71-.04.26-.16c-.41-.11-1.19-.31-2.15-.28-.44-.46-.92-.87-1.38-1.18.3-.12.56-.21.76-.29q.68-.25.23-.23c-.32.02-.86.04-1.53.2-.82-.42-1.53-.47-1.88-.49q-.36-.02.18.23c.19.09.44.21.72.36-.49-.12-.88-.16-1.14-.19q-.46-.05.22.24c.17.07.39.17.64.28-.24.11-.48.24-.72.38-.1-.05-.19-.1-.29-.14-1.06-.49-1.97-.58-2.42-.63-.08,0-.15-.02-.2-.02h-.02c.28-.12.52-.21.71-.28q.69-.25.23-.23c-.38.02-1.06.05-1.89.3-.11-.01-.2-.02-.28-.02-.3-.02-.34-.02-.04.13-.04.02-.09.03-.13.05-.05-.02-.12-.04-.21-.07-.48-.16-1.43-.48-2.6-.36-.46.05-.95.17-1.44.34-.37-.09-.92-.24-1.61-.31-.05-.02-.1-.04-.17-.06-.09-.03-.19-.06-.31-.1,1.06-.87,2.48-1.55,3.2-1.89q.73-.35.24-.32c-.35.02-.97.06-1.71.31-.07,0-.16.02-.28.03-.62.07-1.86.2-3.3.86-.61.28-1.26.66-1.9,1.11-.38.14-.77.32-1.14.53-.03-.03-.06-.06-.09-.09.4-.34.76-.62,1.02-.83q.63-.49.19-.31c-.3.13-.82.35-1.43.73-.04-.01-.09-.03-.15-.04-.06-.02-.12-.03-.19-.05-.04-.04-.09-.07-.13-.1,1.36-.85,3.14-1.51,4.04-1.84q.93-.35.31-.32c-.41.02-1.11.05-1.95.25.25-.13.47-.23.65-.32q.73-.35.24-.32c-.48.03-1.45.09-2.58.67-.57.29-1.18.72-1.77,1.23-.06-.03-.08-.03-.03.03-.15.13-.3.27-.45.41-.45-.04-.95-.05-1.49,0-1.22.1-2.62.5-3.86,1.12.09-.09.19-.17.29-.26,1.06-.89,2.51-1.58,3.24-1.93q.73-.35.24-.32c-.48.03-1.45.09-2.58.67-.77.4-1.62,1.04-2.39,1.82-.15-.18-.3-.36-.45-.54.27-.23.57-.45.9-.66,1.37-.89,3.24-1.58,4.17-1.93q.93-.35.31-.32c-.62.03-1.86.09-3.32.67-.87.35-1.81.88-2.7,1.53-.05-.05-.09-.1-.14-.15.8-.57,1.63-1.02,2.12-1.29q.72-.4.24-.33c-.39.05-1.09.15-1.93.53-.33.1-.7.24-1.1.44-.19-.17-.37-.33-.55-.48-.03-.03-.06-.05-.09-.08.63-.35.61-.35.15-.29-.12.02-.26.04-.43.07-.05-.04-.11-.08-.16-.12.38-.41.73-.76.98-1.02q.66-.67.2-.42c-.34.19-.94.52-1.65,1.12-.91-.6-1.68-.93-2.12-1.12q-.6-.25.26.42c.35.28.85.67,1.39,1.13-.1.1-.2.2-.31.31-.04.04-.08.08-.12.13-.44.06-.96.15-1.53.33-.06-.03-.11-.05-.17-.08-.8-.37-1.53-.57-2.13-.69.53-.23.45-.22-.07-.17-.15.02-.33.03-.55.06-.21-.03-.4-.05-.55-.06-.52-.06-.6-.06-.07.17-.6.12-1.34.32-2.13.69-.06.03-.11.05-.17.08-.57-.17-1.09-.27-1.53-.33-.04-.04-.08-.08-.12-.13-.1-.11-.2-.21-.3-.31.55-.46,1.04-.85,1.39-1.13q.86-.67.26-.42c-.44.19-1.21.52-2.12,1.12-.71-.6-1.3-.93-1.65-1.12q-.47-.25.2.42c.25.26.6.61.98,1.02-.05.04-.11.08-.16.12-.17-.03-.32-.05-.43-.07-.46-.06-.48-.07.15.29-.03.03-.06.05-.09.08-.18.15-.37.31-.55.48-.4-.2-.77-.34-1.1-.44-.84-.38-1.54-.48-1.93-.53q-.48-.07.24.33c.49.27,1.31.73,2.12,1.29-.05.05-.1.1-.14.15-.89-.65-1.83-1.18-2.7-1.53-.1-.04-.2-.08-.3-.12.42-.2.35-.2-.05-.17-.11,0-.23.02-.38.03-1.13-.34-2.07-.39-2.58-.42q-.62-.03.31.32c.26.1.6.22.97.37h-.03c-.07.02-.16.03-.28.04-.62.07-1.86.2-3.3.86-.03.01-.06.03-.1.04-.24-.19-.48-.37-.72-.53.4-.16.76-.29,1.04-.39q.93-.35.31-.32c-.41.02-1.1.05-1.95.25.25-.13.47-.23.65-.32q.72-.35.24-.32c-.37.02-1.01.06-1.79.34-.78-.27-1.43-.31-1.79-.34q-.48-.03.24.32c.18.08.4.19.65.32-.85-.19-1.54-.23-1.95-.25q-.62-.03.31.32c.28.1.63.24,1.04.39-.24.16-.48.34-.72.53-.03-.02-.06-.03-.1-.04-1.44-.66-2.68-.8-3.3-.86-.11-.01-.21-.02-.28-.03h-.03c.38-.16.71-.28.97-.38q.93-.35.31-.32c-.51.02-1.45.07-2.58.42-.15-.02-.28-.02-.38-.03-.4-.03-.47-.03-.05.17-.1.04-.2.07-.3.12-.87.35-1.81.88-2.7,1.53-.05-.05-.09-.1-.14-.15.81-.57,1.63-1.02,2.12-1.29q.72-.4.24-.33c-.39.05-1.09.15-1.93.53-.33.1-.7.24-1.1.44-.19-.17-.37-.33-.55-.48-.03-.03-.06-.05-.09-.08.63-.35.61-.35.15-.29-.12.02-.26.04-.43.07-.05-.04-.11-.08-.16-.12.38-.41.73-.76.98-1.02q.66-.67.2-.42c-.34.19-.94.52-1.65,1.12-.91-.6-1.68-.93-2.12-1.12q-.6-.25.25.42c.35.28.85.67,1.39,1.13-.1.1-.2.2-.3.31-.04.04-.08.08-.12.13-.44.06-.96.15-1.53.33-.06-.03-.11-.05-.17-.08-.8-.37-1.53-.57-2.13-.69.53-.23.45-.22-.07-.17-.15.02-.33.03-.55.06-.21-.03-.4-.05-.55-.06-.52-.06-.6-.06-.07.17-.6.12-1.34.32-2.14.69-.06.03-.11.05-.17.08-.57-.17-1.09-.27-1.53-.33-.04-.04-.08-.08-.12-.13-.1-.11-.2-.21-.3-.31.55-.46,1.04-.85,1.39-1.13q.85-.67.26-.42c-.44.19-1.21.52-2.12,1.12-.71-.6-1.3-.93-1.65-1.12q-.47-.25.2.42c.25.26.6.61.98,1.02-.05.04-.11.08-.16.12-.17-.03-.32-.05-.43-.07-.46-.06-.48-.07.15.29-.03.03-.06.05-.1.08-.18.15-.37.31-.55.48-.4-.2-.77-.34-1.1-.44-.84-.38-1.54-.48-1.93-.53q-.48-.07.24.33c.49.27,1.31.73,2.12,1.29-.05.05-.09.1-.14.15-.89-.65-1.83-1.18-2.7-1.53-1.46-.58-2.7-.64-3.32-.67q-.62-.03.31.32c.93.35,2.8,1.04,4.17,1.93.33.21.63.44.9.66-.15.18-.3.36-.45.54-.77-.78-1.62-1.42-2.39-1.82-1.13-.58-2.1-.64-2.58-.67q-.48-.03.24.32c.72.35,2.18,1.04,3.24,1.93.1.08.2.17.29.26-1.24-.62-2.64-1.02-3.86-1.12-.54-.04-1.04-.03-1.49,0-.15-.14-.3-.28-.45-.41.05-.06.03-.06-.03-.03-.59-.51-1.2-.94-1.77-1.23-1.13-.58-2.1-.64-2.58-.67q-.48-.03.24.32c.18.08.4.19.65.32-.85-.19-1.54-.23-1.95-.25q-.62-.03.31.32c.91.34,2.69,1,4.04,1.84-.04.03-.09.06-.13.1-.07.02-.13.03-.19.05-.05.01-.11.03-.15.04-.61-.39-1.12-.61-1.43-.73q-.44-.19.19.31c.26.2.62.49,1.02.83-.03.03-.06.06-.09.09-.37-.21-.76-.39-1.14-.53-.64-.45-1.29-.83-1.9-1.11-1.44-.66-2.68-.8-3.3-.86-.11-.01-.21-.02-.28-.03-.75-.25-1.36-.29-1.71-.31q-.48-.03.24.32c.72.34,2.14,1.02,3.2,1.89-.12.04-.22.07-.31.1-.07.02-.12.04-.17.06-.69.08-1.25.22-1.61.31-.49-.18-.98-.29-1.44-.34-1.17-.12-2.12.2-2.59.36-.08.03-.15.05-.21.07-.04-.02-.09-.03-.13-.05.31-.15.26-.15-.04-.13-.08,0-.17.01-.28.02-.83-.25-1.52-.29-1.89-.3q-.46-.02.23.23c.19.07.44.16.71.27h-.02c-.05.01-.12.02-.2.03-.46.05-1.37.14-2.42.63-.09.04-.19.09-.29.14-.24-.14-.48-.27-.72-.38.24-.11.46-.2.64-.28q.68-.29.22-.24c-.25.03-.65.07-1.14.19.28-.15.54-.27.72-.36q.53-.25.18-.23c-.35.02-1.05.07-1.88.49-.66-.16-1.21-.19-1.53-.2q-.46-.02.23.23c.2.08.47.17.76.29-.46.31-.94.71-1.38,1.18-.96-.03-1.74.17-2.15.28q-.45.12.25.16c.2.01.45.03.74.05-.78.15-1.65.54-2.35,1.11-.06.05-.13.1-.19.16-.15-.23-.3-.46-.47-.69.2-.24.44-.48.7-.7.78-.65,1.85-1.16,2.38-1.41q.53-.25.18-.23c-.35.02-1.06.07-1.89.49-.57.29-1.19.76-1.76,1.33-.29-.36-.59-.71-.9-1.02.59-.42,1.19-.75,1.55-.95q.53-.29.17-.24c-.35.05-1.06.14-1.88.63-.08.05-.17.1-.25.16-.16-.16-.33-.3-.49-.43-.13-.11-.26-.21-.39-.31.28-.3.54-.56.72-.75q.49-.49.14-.31c-.25.14-.69.38-1.21.82-.67-.44-1.23-.68-1.56-.82q-.44-.19.19.31c.26.2.62.49,1.02.83-.07.07-.15.15-.22.23-.19.2-.38.43-.58.68-.26-.15-.51-.29-.76-.4-1.06-.49-1.97-.58-2.43-.63q-.45-.05.22.24c.58.25,1.67.72,2.59,1.29-.31.44-.61.93-.88,1.44-.92-.91-2.09-1.68-3.12-2.09-.69-.28-1.31-.39-1.79-.45-.57-.24-1.05-.31-1.32-.34q-.35-.05.17.24c.53.29,1.58.88,2.35,1.58.34.32.63.66.86.99-.58-.29-1.21-.51-1.81-.65-.55-.59-1.14-1.09-1.69-1.41-.82-.49-1.53-.58-1.88-.63q-.35-.05.17.24c.53.29,1.58.88,2.35,1.58.02.02.04.04.06.06h0c-.21-.02-.41-.02-.6-.02-.88-.83-1.97-1.52-2.92-1.9-1.07-.43-1.98-.47-2.44-.5q-.46-.02.23.23c.69.25,2.06.76,3.06,1.41.41.27.76.56,1.05.84-.35.06-.64.13-.83.19q-.45.12.25.16c.25.01.58.03.96.07.23.27.4.53.53.74.31.55.31.86.44,1.1.12.24.38.4.76.57.05.02.11.05.16.07h-4.85c-.14-.51-.74-1.52-1.6-2.41-.24-.24-.49-.48-.76-.7.5.07,1.03.16,1.49.3,1.07.33,1.8.91,2.18,1.36.38.44.42.75.57.94.15.19.43.27.82.32.4.05.92.08.81-.35-.12-.43-.88-1.32-1.92-1.97-1.04-.65-2.34-1.07-3.45-1.16-.44-.04-.86-.02-1.22.02-.58-.4-1.19-.73-1.75-.96-1.07-.43-1.98-.47-2.44-.5q-.46-.02.23.23c.68.25,2.02.75,3.02,1.39-.11.03-.21.05-.29.07q-.45.12.25.16c.12,0,.26.02.41.02.82.6,1.35,1.28,1.63,1.77.32.55.31.86.44,1.1.07.14.19.25.35.36h-.79c.04-.06.05-.14.02-.25-.12-.43-.88-1.32-1.92-1.97-1.04-.65-2.34-1.07-3.45-1.16-1.1-.09-2,.14-2.45.26q-.45.12.25.16c.71.04,2.11.12,3.18.45,1.07.33,1.8.91,2.18,1.36.38.44.42.75.57.94.08.1.18.17.32.22h-5.16ZM83.25,169.01h0c.06-.22.11-.5.34-.92.18-.33.46-.74.85-1.17.31.18.58.37.8.55-.36.61-.59,1.19-.67,1.53h-1.32ZM81.34,169.01h-.54s.08-.05.12-.07c.3-.17.5-.33.59-.57.1-.24.09-.55.34-1.1.1-.22.23-.47.41-.74.29-.03.55-.05.74-.07.1,0,.18-.01.24-.02.04.01.08.02.11.03l-.04.03c-.8.65-1.4,1.54-1.49,1.97-.04.19.02.29.12.34-.03.06-.07.13-.1.19h-.53ZM133.54,167.08h0c.04.09.08.17.12.25-.17.24-.28.44-.32.61-.04.15-.03.26.03.33h-.9c.06-.03.11-.06.17-.09.41-.24.68-.45.81-.78.04-.1.07-.2.09-.32h0ZM135.94,164.84h0l-.03-.04.06.02-.03.02h0ZM134.61,166.22h0c-.17-.2-.36-.4-.57-.6.11-.23.26-.48.43-.74.1-.01.2-.02.3-.03.17.22.32.44.45.66-.22.23-.43.48-.6.71h0ZM139.4,164.84h0l-.03-.02.06-.02-.03.04h0ZM140.73,166.22h0c-.18-.23-.38-.47-.6-.71.13-.21.28-.43.45-.66.1,0,.19.02.3.03.17.26.31.51.43.74-.2.19-.39.4-.57.6h0ZM142.14,168.27h-.16c.05-.08.07-.19.03-.33-.04-.16-.16-.37-.32-.61.03-.08.07-.16.11-.25.03.12.06.23.1.32.13.32.4.54.81.78.06.03.11.06.17.09h-.73Z"/>
      <g>
        <path class="cls-10" d="M160.6,158.1c.11-.16.2-.36.27-.54-.09.18-.19.36-.27.54Z"/>
        <path class="cls-10" d="M76.85,145.25c1.35-4.59,1.15-9.5.59-14.25s-1.51-9.71-1.5-14.61c.01-4.9,1.07-9.97,4.08-13.84s8.46-6.32,13.22-4.77c-1,.45-2.01.89-3.01,1.34-4.05,1.8-8.35,3.83-10.59,7.65-2.01,3.44-1.96,7.67-1.7,11.65.38,6,1.08,11.98,2.1,17.91.28,1.65.59,3.32.55,4.99s-.45,3.4-1.48,4.72c-.78-.16-1.57-.32-2.35-.48.03-.11.06-.21.1-.32Z"/>
        <path class="cls-10" d="M75.52,160.58c-.37-3.49-.74-6.97-1.12-10.46-.12-1.12-.23-2.29.22-3.33.61-1.4,2.3-2.19,3.77-1.86.21,0,.43,0,.64-.01,1.03,2.69.26,5.72-.8,8.4s-2.43,5.32-2.62,8.19c-.03-.31-.07-.62-.1-.94Z"/>
        <path class="cls-10" d="M83.44,122.76c-1.13,1.64-.56,3.87.15,5.73s1.54,3.91.84,5.77c-.66,1.75-2.49,2.77-3.46,4.36-.76,1.25-.93,2.76-1.09,4.21-.71,6.44-1.41,12.88-2.12,19.32-.05.43-.09.87.04,1.28s.5.78.93.77.81-.53.58-.89c-.66,1.12-.77,2.55-.31,3.76,2.14,0,4.27-.02,6.41-.03-3.09-4.17-4.04-9.85-2.46-14.8,1.18-3.71,3.65-6.92,4.72-10.66,1.55-5.45-.05-11.24-1.65-16.68-.21-.73-.46-1.5-1.05-1.98s-1.64-.45-1.96.24"/>
        <path class="cls-10" d="M189.2,94.95c-2.67-.01-3.25.24-5.92.23-1.42,0-2.89,0-4.18.61-1.87.89-2.96,2.88-3.53,4.87-.48,1.66-.68,3.39-.88,5.11-.22,1.87-.43,3.81.17,5.59.72,2.16,2.55,3.82,3.26,5.98.65,1.96.32,4.09.44,6.15.05.78.2,1.64.82,2.13.48.38,1.13.44,1.73.48,1.52.11,3.04.23,4.56.34.92.07,1.9.13,2.71-.3,1.66-.88,1.76-3.16,1.95-5.03.37-3.7,1.92-7.16,3.01-10.71,1.1-3.55,1.57-7.42.32-10.92-.83-2.33-2.5-4.6-5.67-4.48"/>
        <path class="cls-10" d="M195.19,103.26c.71.12,1.42-.16,2.13-.32,1.87-.43,3.96,0,5.47,1.12.28.21.56.46.63.79.1.46-.23.89-.56,1.23-.94.95-2.11,1.72-3.39,2.22-.65.25-1.36.44-2.04.29-.47-.1-.89-.35-1.36-.47-.69-.19-1.67-.05-2.38.31-.25.13-.56-.06-.54-.33.05-.67-.01-1.35-.03-2.03-.02-.8.29-1.57.88-2.15s1.03-.62,1.86-.66"/>
        <path class="cls-10" d="M174.47,101.2c-.8.06-1.57-.27-2.34-.49-2.05-.58-4.4-.32-6.17.68-.33.19-.66.42-.76.74-.15.45.18.9.53,1.27.97,1.03,2.2,1.88,3.59,2.48.7.3,1.47.54,2.25.45.53-.06,1.02-.28,1.55-.37.78-.13,1.85.08,2.62.5.27.15.63-.01.63-.28,0-.67.12-1.35.19-2.02.08-.79-.2-1.59-.8-2.21s-1.09-.7-2.01-.81"/>
        <path class="cls-2" d="M203.07,93.08c0-.64-.02-1.29-.06-1.93-.03-.57-.08-1.21-.5-1.6-.41,2.21-1.26,4.37-2.68,6.12s-4.76,2.67-6.95,3.04c-.16,1.18.68,2.54,1.13,3.64,1.97-.02,3.76-1.14,5.31-2.36,1.29-1.02,2.54-2.18,3.18-3.7.43-1.01.55-2.1.57-3.21Z"/>
        <path class="cls-7" d="M166.38,90.19c.04-.71.13-1.41.22-2.11.08-.63.19-1.31.68-1.72.26,2.46,1.02,4.89,2.43,6.92,1.37,1.96,5.13,3.44,7.5,4.03.08,1.3-1.09,2.6-1.67,3.77-2.16-.18-4.03-1.55-5.62-3.02-1.33-1.22-2.6-2.6-3.18-4.31-.38-1.14-.43-2.35-.36-3.56Z"/>
        <path class="cls-10" d="M178.96,126.01c-.87-.68-1.03-1.82-1.08-2.62-.04-.67-.03-1.35-.02-2.01.02-1.41.03-2.74-.38-3.97-.33-1-.93-1.89-1.55-2.84-.65-.97-1.32-1.98-1.71-3.14-.53-1.57-.47-3.22-.32-4.76-.49-.2-1.06-.28-1.47-.2-.17.03-.36.09-.55.15-.26.08-.56.18-.88.22-.94.13-1.82-.23-2.4-.51-1.33-.63-2.52-1.55-3.44-2.64-.21-.25-.86-1.02-.6-1.9.16-.55.61-.89.97-1.12,1.58-1,3.64-1.34,5.5-.94-.58-.43-1.1-.88-1.57-1.32-.93-.85-1.91-1.85-2.64-3.05-1.68-.18-3.39-.2-5.16-.14-6.5.2-12.87,1.77-19.28,2.88-11.85,2.05-24.04,2.15-35.93.31-5.68-1.42-11.83-.92-17.2,1.42-2.37,1.03-4.63,2.45-6.19,4.5-2.49,3.27-2.85,7.77-1.94,11.78.92,4.01,2.97,7.64,5,11.22l-.92-1.62c2.56,4.65,3.05,6.95,1.27,11.84-.41.95-.85,1.9-1.16,2.86-1.03,3.1-.81,6.48-.16,9.69.64,3.2.88,5.89,1.51,9.1.39,2,1.42,4.53.78,6.46-.28.84-.7,1.82-.18,2.53.42.58,1.24.65,1.95.68l4.6.14c.63.02.99-.72.58-1.2-2.29-2.73-3.04-6.63-3.54-10.16-.58-4.09-.56-7.84,1.45-11.45.66-1.18,1.43-2.29,2.15-3.44.46-.73.66-1.11.75-1.27,1.47-2.83.69-4.18,1.95-5.44.92-.92,2.57,0,3.99-4.2.2-.6,1.04-1.25,1.95-1.46.17-.04.35-.05.52-.05,1.37-1.14,2.54-2.48,3.42-3.92,1.13-1.86,1.8-3.9,1.92-5.91.12-2-.29-4.09-1.19-6.02-.9-1.94-2.3-3.75-4.04-5.21-.22-.18-.24-.5-.06-.72.18-.22.5-.24.72-.06,1.86,1.56,3.35,3.48,4.31,5.56.97,2.09,1.41,4.34,1.28,6.51-.13,2.17-.85,4.38-2.07,6.37-.82,1.35-1.88,2.61-3.1,3.71.51.24.99.59,1.44.91,3.06,2.2,13.78,6.53,21.72,6.78,6.93.22,11.78-2.5,16.87-1.94l-.37-.38c-2.45-2.5-4.01-6.27-4.17-10.1-.16-3.82,1.08-7.76,3.31-10.53.13-.16.36-.18.52-.06.16.13.18.36.06.52-2.12,2.64-3.3,6.39-3.15,10.04.14,3.33,1.38,6.62,3.37,8.97.05-.04.8,1.59.8,1.59,1.1.16,2.22.47,3.37,1.01.38.18.71.35,1.91.92,6.24,2.96,9.41,4.44,11.53,4.25,2.43-.22,4.18-1.44,6.69-3.19,2.13-1.49,2.91-2.61,3.37-3.54.53-1.09.7-2.1.75-2.78,1.4-.79,3.42-2.19,5.07-4.53.3-.43.8-1.19,1.3-2.43-.08-.05-.15-.1-.22-.15Z"/>
        <path class="cls-10" d="M141.97,126.5c2.01,5.33,6.09,15.18,8.1,20.5,2.3,6.08,4.62,12.78,2.5,18.93l1.91-.33-.34,1.99c2.76.59,5.59.88,8.41.86.52,0,.77-.63.4-.99-2.31-2.24-4.49-4.69-5.55-7.7-1.67-4.76-.25-9.97,1.05-14.84s2.44-10.23.3-14.79c-1.13-2.41-3.08-4.34-5.19-5.94-2.19-1.67-4.79-3.1-7.54-2.92-2.75.18-4.38,2.5-4.05,5.24"/>
        <path class="cls-10" d="M166.81,165.97c-2.31-2.24-4.49-4.69-5.55-7.7-1.67-4.76-.25-9.97,1.05-14.84,1.3-4.87,2.44-10.23.3-14.79-1.13-2.41-3.08-4.34-5.19-5.94-2.19-1.67-4.79-3.1-7.54-2.92-.91.06-1.82.36-2.61.83,2.09.2,4.3,1.2,6.71,3.03,2.6,1.98,4.37,4.01,5.39,6.2,2.24,4.78,1.04,10.38-.26,15.26l-.03.12c-1.29,4.82-2.62,9.81-1.03,14.33,1.02,2.89,3.12,5.23,5.26,7.32,1.03.08,2.07.11,3.11.1.52,0,.77-.63.4-.99Z"/>
      </g>
      <g>
        <path class="cls-10" d="M104.47,243.67h1.71v3.42h3.25v-3.42h1.7v8.58h-1.7v-3.68h-3.25v3.68h-1.71v-8.58Z"/>
        <path class="cls-10" d="M112.33,249.19c0-2.32,1.51-3.25,3.11-3.25s3.11.94,3.11,3.25-1.51,3.2-3.11,3.2-3.11-.98-3.11-3.2ZM116.8,249.16c0-1.34-.52-1.97-1.36-1.97s-1.36.63-1.36,1.97.52,1.97,1.36,1.97,1.36-.63,1.36-1.97Z"/>
        <path class="cls-10" d="M119.7,247.97c0-.7-.01-1.32-.04-1.9l1.46-.05.13.84h.04c.43-.46,1.07-.93,1.98-.93,1.38,0,2.11.93,2.11,2.6v3.72h-1.71v-3.58c0-.82-.21-1.37-.93-1.37-.59,0-1.05.35-1.34.84v4.11h-1.7v-4.28Z"/>
        <path class="cls-10" d="M126.53,249.22c0-1.95,1.1-3.29,2.66-3.29.78,0,1.26.29,1.59.72h.03v-3.53l1.7-.05v7.4c0,.46.01,1.34.05,1.78h-1.21l-.36-.83h-.03c-.4.6-1.03.95-1.88.95-1.56,0-2.55-1.33-2.55-3.15ZM130.81,250.08v-2.06c-.29-.59-.82-.78-1.21-.78-.98,0-1.34.97-1.34,1.95,0,1.41.69,1.86,1.33,1.86.75,0,1.22-.59,1.22-.97Z"/>
        <path class="cls-10" d="M133.67,249.19c0-2.32,1.51-3.25,3.11-3.25s3.11.94,3.11,3.25-1.51,3.2-3.11,3.2-3.11-.98-3.11-3.2ZM138.14,249.16c0-1.34-.52-1.97-1.36-1.97s-1.36.63-1.36,1.97.52,1.97,1.36,1.97,1.36-.63,1.36-1.97Z"/>
        <path class="cls-10" d="M140.6,253.79c.46-1.05.68-2.25.72-3.48l1.46.2c-.2,1.28-.75,2.75-1.18,3.52l-.99-.24Z"/>
        <path class="cls-10" d="M149.14,245.12h-2.24l.09-1.44h6.12l-.09,1.44h-2.17v7.13h-1.71v-7.13Z"/>
        <path class="cls-10" d="M152.98,249.25c0-1.81,1-3.32,3.05-3.32s2.86,1.76,2.5,3.65h-3.88c.04,1.08.78,1.52,1.72,1.52.68,0,1.28-.14,1.77-.31l.16,1.21c-.6.24-1.41.38-2.21.38-2,0-3.11-1.16-3.11-3.13ZM157.03,248.43c.01-.05.01-.09.01-.14,0-.52-.24-1.16-1.1-1.16-.77,0-1.18.62-1.26,1.29h2.35Z"/>
        <path class="cls-10" d="M161.15,249.07l-1.98-3h1.9l1.09,2.03h.02l1.02-2.03h1.86l-1.98,2.95,2.06,3.23h-1.92l-1.13-2.16h-.03l-1.1,2.16h-1.86l2.06-3.18Z"/>
        <path class="cls-10" d="M165.59,250.62c0-1.37.87-1.8,2.12-1.8h1.48v-.62c0-.54-.15-.94-1.12-.94-.77,0-1.34.2-1.82.4l-.28-1.26c.54-.23,1.44-.48,2.41-.48,1.86,0,2.5.65,2.5,2.06v2.79c0,.54.01,1.07.06,1.47h-1.24l-.38-.72h-.04c-.45.54-1.05.84-1.85.84-1.12,0-1.86-.82-1.86-1.76ZM169.22,250.44v-.63h-1.1c-.41,0-.85.04-.85.65,0,.5.35.73.82.73.44,0,1.05-.29,1.14-.75Z"/>
        <path class="cls-10" d="M172.06,252l.21-1.26c.41.2,1.24.43,1.8.43.63,0,.92-.24.92-.62,0-1-2.81-.79-2.81-2.69,0-1.23,1.02-1.93,2.41-1.93.68,0,1.34.15,1.77.35l-.2,1.22c-.35-.16-1.02-.35-1.54-.35-.48,0-.8.18-.8.54,0,.92,2.83.73,2.83,2.7,0,1.31-1.03,1.98-2.57,1.98-.72,0-1.51-.15-2-.38Z"/>
      </g>
      <g>
        <polygon class="cls-10" points="18.67 180.87 11.54 175.68 4.41 180.87 7.13 172.48 0 167.3 8.81 167.3 11.54 158.92 14.26 167.3 23.08 167.3 15.95 172.48 18.67 180.87"/>
        <polygon class="cls-10" points="268.02 180.87 260.89 175.68 253.76 180.87 256.48 172.48 249.35 167.3 258.17 167.3 260.89 158.92 263.62 167.3 272.43 167.3 265.3 172.48 268.02 180.87"/>
      </g>
      <g>
        <path class="cls-8" d="M163.93,37.27c52.56,11.7,91.41,58.01,96.76,114.89"/>
        <path class="cls-6" d="M14.53,150.69c5.39-58.43,46.02-105.55,99.91-115.24"/>
        <path class="cls-3" d="M106.15,37.77v-.59c0-.38.18-.73.49-.94l1.57-1.09c.11-.07.21-.17.28-.27.71-1,.46-1.65.58-2,.12-.37.2-3.44.22-4.15l1.05-22.94c.05-.77,0-1.31-.17-1.61-.16-.3-.49-.5-1-.6l-1.92-.39V.49h9.16l6.2,22.8.15-.38L129.36.49h8.94v2.69l-2.18.39c-.43.06-.72.24-.88.53-.16.29-.23.9-.21,1.83l1.09,22.85c.02.83.11,1.41.28,1.71.32.57,2.04,1.28,2.72,1.14.09-.02-.03.94-.15,1.71-.08.56-.56.97-1.12.98l-7.49.07c-.49,0-.93-.3-1.09-.76-.03-.08.55.45.52.37-.24-.71-.01-1.53.73-1.59l.57-.16c.45-.1.53-.9.69-1.37.11-.34-.08-1.3-.13-2.14l-1.05-22.61-.04-.34-6.8,22.94h-3.76l-6.61-22.99v.34l-1.05,22.7c-.03.64,0,3.68.09,4.05.09.37.44.62,1.07.75l1.12.24c.53.11.91.58.91,1.12v.89c0,.52-.57.34-1.06.48l-6.96,1.38c-.73.2-1.36.84-1.36.08Z"/>
        <path class="cls-1" d="M170.76,37.97c-.41-.17-.84-.34-1.28-.48l-2.5-.7s-.02,0-.08-.06c0,0-1.83.18-3.73.16l-.11.81c-.1.7.03.74.61,1.13.39.29,1.32,1.36,1.46,2.25.05.32.1.79-.03,1.49l-3.53,19.1h-.16l-5.62-18.27-3.74.08-5.37,18.27h-.13l-3.57-19.3c-.09-.61-1.01-5.73-.71-7.73.03-.23.11-.43.21-.61h1.3c.57,0,.15-1.48.03-1.51-1.43-.37-2.26-.61-3.95-.61-1.24,0-4.77.18-4.85.2v.95c0,.07.01.13.01.2t0,.01c.03.13.08.26.14.36.15.24-.05.79.21.79,0,0,.29.07,1.41.59,3.63,1.68,6.86,31.02,6.86,31.02h4.65s4.87-18.29,4.87-18.29c.07-.28.4-.28.47,0l4.87,18.21,4.48.14,4.7-23.61c.11-.54.23-.96.35-1.24.12-.28.27-.48.47-.62.2-.13.44-.23.72-.28h.05s1.29.27,1.29.27c.56.12,1.1-.34,1.19-1.03l.16-1.17c-.37-.19-.76-.38-1.17-.54Z"/>
        <path class="cls-5" d="M131.09,33.56c3.63-.25,5.56-.07,9.27.02,1.73.04.14-.05,1.85.06"/>
      </g>
    </g>
  </g>
</svg>