<?xml version="1.0" encoding="UTF-8"?>
<svg id="Layer_2" data-name="Layer 2" xmlns="http://www.w3.org/2000/svg" viewBox="0 0 360.33 132.39">
  <defs>
    <style>
      .cls-1 {
        fill: #fcfaf7;
      }

      .cls-2, .cls-3, .cls-4, .cls-5 {
        fill: #fcfcfb;
      }

      .cls-6 {
        fill: #fffefb;
      }

      .cls-3 {
        fill-rule: evenodd;
      }

      .cls-7 {
        fill: #f2f0ec;
      }

      .cls-4 {
        stroke: #fff;
        stroke-linecap: round;
        stroke-width: 5.32px;
      }

      .cls-4, .cls-5 {
        stroke-miterlimit: 10;
      }

      .cls-5 {
        stroke: #fcfcfb;
        stroke-width: .12px;
      }
    </style>
  </defs>
  <g id="Layer_1" data-name="Layer 1">
    <g>
      <g>
        <g>
          <path class="cls-6" d="M126.42,122.53c-2.07,0-3.71-.56-4.93-1.69-1.22-1.12-1.83-2.63-1.83-4.52,0-1.76.45-3.16,1.35-4.2.9-1.03,2.31-1.79,4.24-2.28,1.93-.49,4.46-.81,7.6-.96v-3.01c0-1.19-.15-2.15-.43-2.9-.29-.75-.74-1.3-1.35-1.67-.61-.37-1.45-.55-2.51-.55-.73,0-1.46.11-2.19.32-.73.21-1.29.5-1.69.87.27.43.49.81.66,1.16.17.35.29.64.36.87.08.23.11.43.11.62,0,.64-.27,1.17-.8,1.6-.53.43-1.27.64-2.21.64s-1.67-.23-2.17-.68c-.5-.46-.75-1.1-.75-1.92,0-1.16.43-2.21,1.28-3.15.85-.94,2.01-1.7,3.47-2.26,1.46-.56,3.1-.84,4.93-.84,2.13,0,3.88.31,5.25.94,1.37.62,2.39,1.56,3.06,2.81.67,1.25,1,2.83,1,4.75v10.13c0,.7.15,1.22.46,1.55.3.33.78.5,1.41.5.33,0,.65-.03.96-.09.3-.06.64-.15,1-.27l.55,2.28c-.58.52-1.33.97-2.26,1.37-.93.4-1.83.59-2.72.59-1.43,0-2.54-.34-3.33-1.03-.79-.68-1.29-1.64-1.51-2.85-.49.76-1.06,1.44-1.71,2.03-.65.59-1.42,1.05-2.3,1.37-.88.32-1.89.48-3.01.48ZM128.8,118.88c.79,0,1.49-.17,2.1-.52.61-.35,1.09-.83,1.44-1.44.35-.61.52-1.31.52-2.1v-3.15c-1.61,0-2.95.14-4.02.43-1.07.29-1.85.73-2.35,1.32s-.75,1.35-.75,2.26c0,.97.27,1.75.8,2.33.53.58,1.28.87,2.26.87Z"/>
          <path class="cls-6" d="M155.91,132.39c-1.86,0-3.48-.12-4.86-.37-1.38-.24-2.53-.61-3.42-1.1-.9-.49-1.57-1.09-2.03-1.8s-.68-1.56-.68-2.53c0-.88.19-1.64.57-2.28.38-.64.92-1.19,1.62-1.67.7-.47,1.51-.89,2.42-1.25v-.18c-.94-.3-1.67-.8-2.19-1.48-.52-.68-.78-1.41-.78-2.17,0-.82.21-1.57.64-2.26.43-.68,1.16-1.51,2.19-2.49v-.14c-1.13-.61-1.98-1.44-2.56-2.49-.58-1.05-.87-2.32-.87-3.81,0-1.79.45-3.32,1.35-4.56.9-1.25,2.13-2.2,3.7-2.85,1.57-.65,3.34-.98,5.32-.98.64,0,1.31.05,2.01.14.7.09,1.41.24,2.12.43.71.2,1.36.46,1.94.8.67-1.55,1.44-2.76,2.3-3.63.87-.87,1.88-1.3,3.04-1.3.58,0,1.12.11,1.62.34.5.23.9.54,1.19.94.29.4.43.9.43,1.51,0,.76-.27,1.44-.8,2.03-.53.59-1.18.89-1.94.89-.43,0-.81-.12-1.14-.37-.33-.24-.62-.56-.87-.96l-.5-.87c-.27.4-.52.81-.75,1.26-.23.44-.45.94-.66,1.48.67.7,1.21,1.5,1.62,2.4.41.9.62,1.94.62,3.13,0,1.58-.41,2.99-1.23,4.22-.82,1.23-1.99,2.2-3.49,2.9-1.51.7-3.32,1.05-5.45,1.05-.73,0-1.45-.05-2.15-.16-.7-.11-1.28-.22-1.73-.34-.43.43-.72.8-.89,1.12-.17.32-.25.68-.25,1.07,0,.43.11.77.34,1.03.23.26.58.44,1.05.55.47.11,1.04.16,1.71.16h6.85c2.77,0,4.81.5,6.14,1.48,1.32.99,1.99,2.46,1.99,4.4,0,.94-.15,1.83-.46,2.67-.3.84-.78,1.63-1.41,2.37-.64.75-1.48,1.39-2.53,1.94-1.05.55-2.33.97-3.83,1.28-1.51.3-3.26.46-5.27.46ZM156.5,128.97c1.37,0,2.55-.17,3.54-.5.99-.33,1.74-.79,2.26-1.37.52-.58.78-1.26.78-2.05s-.3-1.44-.89-1.85-1.48-.62-2.67-.62h-7.03c-.58.43-1.01.91-1.3,1.46-.29.55-.43,1.16-.43,1.83,0,1.1.46,1.89,1.37,2.37.91.49,2.37.73,4.38.73ZM156.27,111.03c1.34,0,2.37-.42,3.08-1.25.71-.84,1.07-2.02,1.07-3.54,0-1.67-.37-2.94-1.12-3.81s-1.82-1.3-3.22-1.3-2.38.44-3.03,1.32c-.65.88-.98,2.1-.98,3.65s.37,2.69,1.12,3.58c.75.9,1.77,1.35,3.08,1.35Z"/>
          <path class="cls-6" d="M177.36,132.39c-1.61,0-2.92-.37-3.92-1.1s-1.51-1.73-1.51-3.01c0-.97.3-1.79.91-2.44.61-.65,1.38-.98,2.33-.98.85,0,1.5.18,1.94.55.44.37.68.81.71,1.32.03.24,0,.59-.07,1.05-.08.46-.18,1.02-.3,1.69.73.06,1.36-.07,1.89-.39.53-.32,1.04-.88,1.53-1.69.49-.81,1-1.88,1.55-3.22l.96-2.15-7.8-17.8c-.33-.79-.61-1.33-.82-1.62-.21-.29-.59-.51-1.14-.66l-1.55-.36.46-2.97h12.19v2.83l-1.92.32c-.61.06-.99.26-1.14.59-.15.33-.06.93.27,1.78l4.52,11.27h.23l4.47-11c.3-.7.39-1.26.25-1.69-.14-.43-.56-.7-1.25-.82l-1.83-.46.5-2.83h9.81v2.88l-1.64.36c-.52.12-.9.34-1.14.64-.24.3-.58.94-1,1.92l-8.17,19.26c-.67,1.52-1.32,2.84-1.94,3.95-.62,1.11-1.29,2.02-2.01,2.72-.71.7-1.51,1.22-2.37,1.55-.87.33-1.86.5-2.99.5Z"/>
          <path class="cls-6" d="M211.26,122.53c-2.43,0-4.27-.67-5.52-2.01-1.25-1.34-1.87-3.27-1.87-5.8v-9.81c0-1.03-.08-1.73-.25-2.1-.17-.37-.59-.61-1.25-.73l-1.87-.32.36-2.92,8.44-.55.64.37v14.42c0,1.28.11,2.3.34,3.06.23.76.62,1.3,1.16,1.62.55.32,1.28.48,2.19.48,1.06,0,1.99-.24,2.76-.71.78-.47,1.37-1.14,1.78-2.01.41-.87.62-1.89.62-3.08v-7.58c0-1.06-.09-1.76-.27-2.1-.18-.33-.61-.56-1.28-.68l-1.78-.27.46-2.97,8.26-.55.64.37v17.71c0,.82.1,1.38.3,1.69.2.3.59.52,1.16.64l2.01.37v2.83l-8.44.32-.64-3.83h-.14c-.7.88-1.41,1.63-2.12,2.24-.72.61-1.53,1.08-2.44,1.41-.91.33-1.99.5-3.24.5Z"/>
        </g>
        <path class="cls-6" d="M67.04,121.89l-9.5-38.69c-.27-1.12-.58-1.9-.94-2.34-.36-.45-1.05-.76-2.07-.94l-2.74-.54v-4.35h20.35v4.28l-3.28.47c-.89.13-1.44.44-1.64.9-.2.47-.19,1.28.03,2.44l6.76,30.25h.33l9.77-38.35h9.5l10.84,38.35h.27l6.69-30.12c.22-1.16.24-1.97.07-2.44-.18-.47-.71-.79-1.61-.97l-3.28-.67v-4.15h17v4.28l-3.28.47c-.54.09-1,.23-1.41.44-.4.2-.74.52-1,.97-.27.45-.51,1.14-.74,2.08l-9.3,38.62h-10.44l-10.17-36.35h-.2l-9.24,36.35h-10.78Z"/>
      </g>
      <line class="cls-4" x1="2.66" y1="66.75" x2="357.67" y2="66.75"/>
      <g>
        <path class="cls-2" d="M6.8,57.77v-4.22l3.21-.54c.89-.13,1.45-.45,1.67-.94.22-.49.36-1.23.4-2.21l1.87-31.26c.09-1.07-.01-1.81-.3-2.21-.29-.4-.88-.67-1.77-.8l-3.21-.47v-4.22h17.07l10.71,29.85.27-.47,11.45-29.38h16.4v4.22l-3.61.47c-.71.09-1.22.32-1.51.7-.29.38-.41,1.19-.37,2.44l1.94,31.12c.09,1.07.27,1.83.54,2.28.27.45.83.74,1.67.87l3.41.54v4.22h-20.42v-4.22l3.82-.54c.76-.13,1.28-.4,1.57-.8.29-.4.39-1.16.3-2.28l-1.87-29.45-.07-.33-11.71,30.05h-6.76l-11.51-30.12-.07.4-1.74,29.38c-.05.89.01,1.6.17,2.11.16.51.79.86,1.91,1.04l3.48.54v4.22H6.8Z"/>
        <g>
          <path class="cls-2" d="M70.9,57.77v-2.88l2.28-.37c.58-.09.94-.29,1.1-.59.15-.3.23-.87.23-1.69v-11.32c0-1.1-.09-1.83-.27-2.19-.18-.37-.62-.59-1.32-.68l-1.96-.32.32-3.01,8.67-.41.64.27v17.8c0,.61.07,1.09.21,1.44.14.35.52.59,1.16.71l2.24.41v2.83h-13.28ZM76.88,29.93c-1.16,0-2.09-.32-2.81-.96-.72-.64-1.07-1.49-1.07-2.56s.35-1.92,1.05-2.56c.7-.64,1.64-.96,2.83-.96,1.25,0,2.21.31,2.9.94.68.62,1.03,1.48,1.03,2.58s-.36,1.92-1.07,2.56c-.72.64-1.67.96-2.85.96Z"/>
          <path class="cls-2" d="M96.36,58.41c-1.49,0-2.74-.25-3.74-.75s-1.76-1.28-2.26-2.33c-.5-1.05-.75-2.35-.75-3.9v-13.33h-3.47v-3.01c1.25-.18,2.24-.56,2.99-1.14.75-.58,1.32-1.44,1.71-2.6.4-1.16.67-2.63.82-4.43l3.24-.41.73.32v7.67h6.75v3.61h-6.75v12.46c0,1.19.22,2.08.66,2.67.44.59,1.19.89,2.26.89.7,0,1.38-.11,2.03-.32.65-.21,1.32-.53,1.99-.96l1.37,2.33c-.97.97-2.1,1.76-3.38,2.35s-2.68.89-4.2.89Z"/>
          <path class="cls-2" d="M106.77,58.41l-.68-7.99,3.24-.23c.46,1.1.99,2.01,1.6,2.74.61.73,1.32,1.28,2.12,1.64.81.37,1.68.55,2.62.55,1.25,0,2.21-.29,2.88-.87.67-.58,1-1.37,1-2.37,0-.61-.17-1.11-.5-1.51-.33-.4-.88-.75-1.64-1.07-.76-.32-1.8-.63-3.1-.94-1.16-.3-2.22-.65-3.19-1.05-.97-.4-1.81-.87-2.51-1.41-.7-.55-1.23-1.21-1.6-1.99-.36-.78-.55-1.73-.55-2.85,0-1.52.35-2.81,1.05-3.88.7-1.06,1.69-1.89,2.97-2.46,1.28-.58,2.77-.87,4.47-.87,1.06,0,2.08.14,3.06.43.97.29,1.75.65,2.33,1.07l.37-1.51h2.65l.55,7.62-3.24-.23c-.43-1.43-1.13-2.53-2.12-3.31s-2.09-1.16-3.31-1.16-2.1.24-2.74.73c-.64.49-.96,1.19-.96,2.1,0,.58.16,1.06.48,1.46.32.4.85.75,1.6,1.07.75.32,1.76.66,3.04,1.03,1.31.33,2.46.71,3.47,1.12s1.84.89,2.51,1.44c.67.55,1.17,1.21,1.51,1.99.33.78.5,1.7.5,2.76,0,1.61-.37,3.01-1.1,4.2s-1.75,2.11-3.06,2.76c-1.31.65-2.85.98-4.61.98-1.28,0-2.43-.15-3.47-.43-1.03-.29-1.89-.68-2.56-1.16l-.5,1.6h-2.56Z"/>
          <path class="cls-2" d="M138.08,58.41c-2.43,0-4.27-.67-5.52-2.01-1.25-1.34-1.87-3.27-1.87-5.8v-9.81c0-1.03-.08-1.73-.25-2.1-.17-.37-.59-.61-1.25-.73l-1.87-.32.36-2.92,8.44-.55.64.37v14.42c0,1.28.11,2.3.34,3.06.23.76.62,1.3,1.16,1.62.55.32,1.28.48,2.19.48,1.06,0,1.99-.24,2.76-.71.78-.47,1.37-1.14,1.78-2.01.41-.87.62-1.89.62-3.08v-7.58c0-1.06-.09-1.76-.27-2.1-.18-.33-.61-.56-1.28-.68l-1.78-.27.46-2.97,8.26-.55.64.37v17.71c0,.82.1,1.38.3,1.69.2.3.59.52,1.16.64l2.01.37v2.83l-8.44.32-.64-3.83h-.14c-.7.88-1.41,1.63-2.12,2.24-.72.61-1.53,1.08-2.44,1.41-.91.33-1.99.5-3.24.5Z"/>
          <path class="cls-2" d="M159.21,57.77v-2.83l2.01-.37c.49-.09.8-.29.94-.59.14-.3.21-.85.21-1.64v-11.55c0-1.03-.08-1.73-.23-2.1-.15-.37-.58-.61-1.28-.73l-2.01-.27.32-2.97,7.53-.55.64.37.46,4.15h.18c.79-1.52,1.79-2.71,3.01-3.56,1.22-.85,2.56-1.28,4.02-1.28,1.58,0,2.83.43,3.74,1.28.91.85,1.37,2.01,1.37,3.47,0,.91-.14,1.68-.41,2.3-.27.62-.68,1.1-1.21,1.42-.53.32-1.19.48-1.99.48-1,0-1.77-.21-2.28-.62-.52-.41-.78-.95-.78-1.62,0-.24.02-.48.07-.71.05-.23.13-.5.25-.82.12-.32.27-.69.46-1.12-.64-.27-1.3-.31-1.99-.11-.68.2-1.32.59-1.89,1.19-.58.59-1.04,1.32-1.39,2.19-.35.87-.52,1.8-.52,2.81v8.44c0,.76.08,1.28.23,1.55.15.27.49.44,1,.5l3.56.5v2.78h-14.01Z"/>
          <path class="cls-2" d="M182.85,57.77v-2.88l2.28-.37c.58-.09.94-.29,1.1-.59.15-.3.23-.87.23-1.69v-11.32c0-1.1-.09-1.83-.27-2.19-.18-.37-.62-.59-1.32-.68l-1.96-.32.32-3.01,8.67-.41.64.27v17.8c0,.61.07,1.09.21,1.44.14.35.52.59,1.16.71l2.24.41v2.83h-13.28ZM188.82,29.93c-1.16,0-2.09-.32-2.81-.96-.72-.64-1.07-1.49-1.07-2.56s.35-1.92,1.05-2.56c.7-.64,1.64-.96,2.83-.96,1.25,0,2.21.31,2.9.94.68.62,1.03,1.48,1.03,2.58s-.36,1.92-1.07,2.56c-.72.64-1.67.96-2.85.96Z"/>
          <path class="cls-2" d="M200.1,57.77v-2.78l1.96-.37c.49-.09.81-.28.96-.57.15-.29.23-.83.23-1.62v-11.73c0-1.03-.09-1.73-.27-2.08-.18-.35-.61-.57-1.28-.66l-1.96-.32.32-2.92,7.67-.55.64.37.32,4.11h.18c.79-1.46,1.89-2.62,3.29-3.49,1.4-.87,3-1.3,4.79-1.3s3.11.31,4.22.94c1.11.62,1.95,1.52,2.51,2.69.56,1.17.84,2.56.84,4.18v11.14c0,.64.08,1.09.25,1.35.17.26.54.43,1.12.52l1.87.32v2.78h-12.23v-2.74l1.64-.32c.55-.12.9-.3,1.05-.55.15-.24.23-.7.23-1.37v-9.45c0-1.28-.12-2.29-.37-3.04-.24-.75-.65-1.29-1.21-1.64-.56-.35-1.32-.52-2.26-.52-1.07,0-1.99.22-2.78.66-.79.44-1.41,1.09-1.85,1.94-.44.85-.66,1.92-.66,3.19v8.72c0,.64.07,1.1.21,1.39s.45.48.94.57l1.92.41v2.74h-12.28Z"/>
        </g>
      </g>
      <g>
        <g>
          <path class="cls-7" d="M312.56,55.7c.09-.13.16-.28.21-.42-.07.14-.14.28-.21.42Z"/>
          <path class="cls-2" d="M247.68,45.74c1.04-3.55.89-7.36.45-11.04s-1.17-7.52-1.16-11.32c.01-3.8.83-7.73,3.16-10.72s6.55-4.9,10.25-3.7c-.78.35-1.55.69-2.33,1.04-3.14,1.4-6.47,2.97-8.21,5.93-1.56,2.66-1.52,5.94-1.32,9.02.3,4.65.84,9.28,1.63,13.88.22,1.28.46,2.57.43,3.87s-.35,2.63-1.15,3.66l-1.82-.37c.03-.08.05-.16.07-.25Z"/>
          <path class="cls-2" d="M246.64,57.61c-.29-2.7-.58-5.4-.86-8.1-.09-.87-.18-1.78.17-2.58.47-1.08,1.78-1.7,2.92-1.44.17,0,.33,0,.5-.01.8,2.08.2,4.43-.62,6.51s-1.89,4.12-2.03,6.35c-.03-.24-.05-.48-.08-.72Z"/>
          <path class="cls-2" d="M252.78,28.31c-.87,1.27-.44,3,.12,4.44s1.2,3.03.65,4.47c-.51,1.35-1.93,2.14-2.68,3.38-.59.97-.72,2.13-.85,3.26-.55,4.99-1.1,9.98-1.64,14.97-.04.33-.07.68.03.99s.38.6.72.6.63-.41.45-.69c-.51.87-.6,1.97-.24,2.91,1.65,0,3.31-.01,4.96-.02-2.4-3.23-3.13-7.64-1.91-11.47.92-2.87,2.83-5.36,3.66-8.26,1.2-4.22-.04-8.71-1.28-12.92-.17-.56-.35-1.16-.81-1.53s-1.27-.35-1.52.18"/>
          <path class="cls-1" d="M334.72,6.77c-2.07,0-2.52.18-4.59.17-1.1,0-2.24,0-3.24.47-1.45.69-2.29,2.23-2.74,3.77-.37,1.29-.53,2.63-.68,3.96-.17,1.45-.33,2.95.13,4.33.56,1.67,1.97,2.96,2.53,4.63.5,1.52.25,3.17.34,4.77.04.61.16,1.27.63,1.65.37.29.87.34,1.34.37,1.18.09,2.36.18,3.53.26.71.05,1.47.1,2.1-.24,1.29-.68,1.37-2.45,1.51-3.9.29-2.87,1.48-5.55,2.33-8.3s1.22-5.75.25-8.46c-.65-1.8-1.94-3.57-4.4-3.47"/>
          <path class="cls-2" d="M339.36,13.2c.55.09,1.1-.12,1.65-.25,1.45-.33,3.07,0,4.24.87.22.16.43.36.49.61.08.35-.18.69-.44.95-.73.74-1.63,1.33-2.63,1.72-.5.19-1.05.34-1.58.23-.37-.08-.69-.27-1.05-.37-.54-.14-1.29-.04-1.84.24-.2.1-.44-.04-.42-.25.04-.52,0-1.05-.02-1.57-.01-.62.22-1.22.68-1.67s.8-.48,1.44-.51"/>
          <path class="cls-2" d="M323.31,11.61c-.62.05-1.22-.21-1.81-.38-1.59-.45-3.41-.24-4.78.53-.26.14-.51.32-.59.57-.11.35.14.7.41.98.75.8,1.71,1.45,2.78,1.92.54.23,1.14.42,1.74.35.41-.05.79-.22,1.2-.28.61-.1,1.44.06,2.03.39.21.12.49-.01.49-.22,0-.52.09-1.04.15-1.57.06-.61-.15-1.23-.62-1.72s-.85-.55-1.56-.63"/>
          <path class="cls-5" d="M345.46,5.32c0-.5-.02-1-.04-1.49-.02-.44-.07-.93-.39-1.24-.31,1.71-.97,3.39-2.08,4.74s-3.69,2.07-5.38,2.36c-.13.91.53,1.96.87,2.82,1.53-.01,2.92-.88,4.12-1.83,1-.79,1.97-1.69,2.46-2.87.33-.78.43-1.63.44-2.49Z"/>
          <path class="cls-5" d="M317.04,3.08c.03-.55.1-1.09.17-1.63.06-.48.15-1.02.52-1.33.2,1.9.79,3.79,1.89,5.36s3.98,2.66,5.81,3.12c.07,1.01-.85,2.01-1.3,2.92-1.67-.14-3.12-1.2-4.36-2.34-1.03-.94-2.02-2.01-2.46-3.34-.3-.89-.34-1.82-.28-2.76Z"/>
          <path class="cls-2" d="M326.78,30.83c-.67-.53-.8-1.41-.83-2.03-.03-.52-.02-1.05-.02-1.55.01-1.09.02-2.12-.29-3.08-.26-.77-.72-1.47-1.2-2.2-.5-.75-1.02-1.53-1.32-2.43-.41-1.22-.37-2.49-.25-3.69-.38-.15-.82-.22-1.14-.16-.13.03-.28.07-.43.12-.2.07-.43.14-.68.17-.73.1-1.41-.18-1.86-.39-1.03-.49-1.95-1.2-2.67-2.04-.17-.2-.67-.79-.47-1.47.13-.43.47-.69.75-.87,1.22-.77,2.82-1.04,4.26-.73-.45-.33-.85-.68-1.22-1.02-.72-.66-1.48-1.43-2.04-2.36-1.3-.14-2.62-.15-3.99-.11-5.04.15-9.97,1.37-14.94,2.23-9.18,1.59-18.62,1.67-27.83.24-4.4-1.1-9.16-.71-13.32,1.1-1.83.8-3.59,1.9-4.8,3.49-1.93,2.54-2.21,6.02-1.5,9.13.71,3.1,2.3,5.92,3.87,8.69l-.71-1.25c1.98,3.6,2.36,5.39.99,9.17-.32.74-.66,1.48-.9,2.22-.8,2.4-.63,5.02-.13,7.5s.68,4.56,1.17,7.05c.3,1.55,1.1,3.51.61,5-.22.65-.54,1.41-.14,1.96.32.45.96.51,1.51.52l3.57.1c.49.01.76-.56.45-.93-1.77-2.12-2.36-5.14-2.75-7.87-.45-3.17-.43-6.07,1.12-8.87.51-.92,1.11-1.78,1.67-2.66.35-.57.51-.86.58-.99,1.14-2.19.53-3.24,1.51-4.22.71-.71,1.99,0,3.09-3.26.16-.46.8-.97,1.51-1.13.13-.03.27-.04.4-.04,1.06-.89,1.97-1.92,2.65-3.04.88-1.44,1.39-3.02,1.49-4.58.1-1.55-.22-3.17-.92-4.67-.7-1.51-1.78-2.9-3.13-4.04-.17-.14-.19-.39-.05-.56.14-.17.39-.19.56-.05,1.44,1.21,2.59,2.7,3.34,4.31.75,1.62,1.09,3.36.99,5.05-.1,1.68-.66,3.39-1.6,4.94-.64,1.05-1.45,2.02-2.41,2.88.39.19.77.46,1.12.71,2.37,1.71,10.67,5.06,16.83,5.25,5.37.17,9.12-1.94,13.07-1.51l-.29-.29c-1.9-1.94-3.11-4.86-3.23-7.83-.12-2.96.84-6.01,2.56-8.16.1-.12.28-.14.4-.04.12.1.14.28.04.4-1.64,2.04-2.56,4.95-2.44,7.78.11,2.58,1.07,5.13,2.61,6.95.04-.03.62,1.23.62,1.23.85.12,1.72.37,2.61.78.29.14.55.27,1.48.72,4.84,2.3,7.29,3.44,8.93,3.29,1.88-.17,3.24-1.12,5.18-2.47,1.65-1.15,2.26-2.02,2.61-2.74.41-.84.54-1.63.58-2.15,1.08-.61,2.65-1.7,3.93-3.51.23-.33.62-.92,1.01-1.89-.06-.04-.12-.07-.17-.12Z"/>
          <path class="cls-1" d="M298.13,31.21c1.56,4.13,4.72,11.76,6.28,15.88,1.78,4.71,3.58,9.9,1.93,14.67l1.48-.26-.26,1.54c2.14.46,4.33.69,6.52.67.4,0,.6-.49.31-.77-1.79-1.74-3.48-3.63-4.3-5.97-1.29-3.68-.2-7.73.81-11.5,1.01-3.77,1.89-7.93.23-11.46-.87-1.86-2.38-3.36-4.02-4.61-1.7-1.29-3.71-2.4-5.85-2.26s-3.39,1.94-3.13,4.06"/>
          <path class="cls-2" d="M317.37,61.79c-1.79-1.74-3.48-3.63-4.3-5.97-1.29-3.68-.2-7.73.81-11.5,1.01-3.77,1.89-7.93.23-11.46-.87-1.86-2.38-3.36-4.02-4.61-1.7-1.29-3.71-2.4-5.85-2.26-.71.05-1.41.28-2.03.65,1.62.15,3.33.93,5.2,2.35,2.02,1.53,3.38,3.1,4.18,4.8,1.74,3.71.81,8.04-.2,11.82l-.02.09c-1,3.73-2.03,7.6-.8,11.1.79,2.24,2.42,4.05,4.08,5.67.8.06,1.6.09,2.41.08.4,0,.6-.49.31-.77Z"/>
        </g>
        <path class="cls-3" d="M261.5,59.89c.32.2.68.44,1.04.71-.12,0-.23.02-.34.04-.23-.28-.47-.54-.7-.76h0ZM314.87,65.1h-.48,0c.18-.29.47-.64.87-.92-.15.3-.28.62-.39.92h0ZM319.91,63.18h0c.25-.09.52-.15.78-.2-.14.16-.27.33-.4.5-.12-.11-.25-.21-.38-.3h0ZM320.37,62.47h0c-.36.04-.76.16-1.16.34-.12-.04-.24-.07-.36-.09-.51-.08-.94.1-1.18.21.15-.18.32-.36.5-.53.35-.31.76-.59,1.14-.81.31.21.71.51,1.06.87h0ZM320.61,65.15h0c-.08.16-.13.29-.15.4-.02.1-.01.17.01.22h-.51c.11-.09.18-.2.23-.32.07-.18.08-.42.21-.81.02.03.03.06.05.09.08.16.13.3.16.42h0ZM321.39,64.06h0c-.12.12-.22.25-.32.37-.1-.17-.22-.34-.35-.5.1-.17.21-.35.35-.53.13.23.24.45.32.66h0ZM321.94,65.76h-.4c.02-.05.03-.12.01-.22,0-.01,0-.03,0-.04.05-.11.08-.24.15-.41.02.14.04.26.07.36.04.12.1.23.18.32h0ZM331.6,65.76h0c.06-.17.12-.39.29-.67.18-.28.47-.63.87-.91-.27.54-.48,1.12-.61,1.58h-.55ZM333.92,63.68h0c-.48.77-.8,1.57-.83,1.93,0,.06,0,.11,0,.15h-.24c.03-.19.06-.44.17-.82.09-.32.25-.72.47-1.14.14-.05.28-.09.43-.13h0ZM322.16,63.28h0s-.03-.02-.05-.03c-.22-.12-.46-.2-.7-.26l-.02.02c.13.19.25.38.36.59.02.03.03.06.05.09.14-.12.29-.23.45-.32-.02-.03-.05-.06-.08-.09h0ZM320.49,61.94h0c.22.14.48.31.73.5l-.03.03s-.08,0-.12.02c-.03,0-.06,0-.08,0-.16-.2-.33-.38-.5-.53h0ZM322.53,62.07h0c.32.22.65.47.95.74-.21.05-.43.13-.64.23-.17-.13-.35-.24-.52-.33-.1-.1-.2-.19-.3-.28.17-.13.34-.25.52-.36h0ZM326.22,65.01h0c-.09.23-.17.46-.23.67-.17-.49-.47-1.11-.85-1.69-.04-.06-.08-.13-.13-.19.05.02.1.05.15.08.5.28.86.75,1.06,1.13h0ZM327.37,64.87h0c-.08.16-.14.31-.2.46-.07-.16-.17-.34-.27-.51.06-.19.13-.39.22-.61.11.23.19.44.25.63v.03h.01ZM328.42,63.2h0c-.08-.12-.16-.23-.25-.34-.07-.09-.14-.17-.21-.26-.05.07-.1.14-.14.22-.17.27-.33.55-.46.82.07.11.14.23.2.35.05.09.09.17.14.26.06-.11.13-.22.2-.33.16-.25.34-.49.52-.71h0ZM329.19,62.38h0c-.16.15-.32.3-.47.47-.16-.23-.33-.44-.5-.62.16-.22.33-.43.5-.63.16.24.32.51.47.78h0ZM329.32,65.65h0s-.03.08-.04.12h-.99c-.05-.2-.13-.43-.22-.68.03-.1.06-.21.11-.34.11-.29.29-.65.54-1.03.19.38.33.74.42,1.03.13.43.14.7.18.9h0ZM330,64.29h0c-.14-.45-.32-.95-.57-1.45h-.01c-.15.16-.28.31-.4.46.12.19.23.4.34.61.14.28.27.57.37.84.08-.15.17-.31.27-.46h0ZM330.22,65.76h0c.02-.08.04-.17.06-.27.01.1.02.19.03.27h-.09ZM331.2,64.67h0c.09-.22.19-.45.31-.67.29-.57.64-1.1.99-1.52-.26.17-.51.36-.74.56-.58.52-.97,1.14-1.2,1.62.07.21.13.43.19.63.12-.2.27-.41.45-.62h0ZM302.06,62.97h-.01s.03-.03.03-.03v.03h-.01ZM323.41,65.76h-.85c-.05-.31-.2-.83-.43-1.38.14-.17.31-.34.52-.5.26.38.44.76.55,1.05.15.38.18.63.22.82h0ZM324.65,65.76h.35s-.05-.04-.08-.06c-.19-.16-.32-.3-.39-.51-.06-.21-.06-.49-.22-.99-.06-.2-.15-.43-.27-.67-.19-.03-.36-.05-.48-.06-.06,0-.11-.01-.16-.02-.02,0-.05.02-.07.03l.03.03c.52.59.91,1.38.97,1.77.03.17-.01.26-.08.31.02.06.04.11.06.17h.34ZM297,63.27h0c-.14-.28-.3-.58-.48-.88.02-.03.04-.06.06-.09.17.34.31.67.42.97h0ZM299.31,64.39h0s.02.04.03.05h0s-.02-.05-.02-.05h0ZM298.18,63.32h0c-.06-.12-.11-.25-.18-.37.1.07.19.14.27.21-.03.05-.07.11-.1.16h0ZM312.51,63.23h0c-.1-.22-.2-.44-.3-.64.19-.17.4-.32.6-.47.07-.04.15-.07.23-.11.03-.01.06-.02.09-.04-.03.06-.06.11-.09.17-.19.35-.36.72-.51,1.08h0ZM312.08,64.41h0c.06-.21.14-.44.23-.68-.11-.29-.23-.59-.38-.89h-.01c-.15.16-.28.31-.4.46.12.19.23.4.34.61.08.16.16.33.23.49h0ZM311.06,63.96h0c.05-.08.1-.17.16-.25.19.38.33.74.42,1.03.04.13.07.25.09.35h-.97c.05-.26.1-.61.3-1.12v-.02h0ZM314.73,59.89h0c-.23.22-.47.47-.7.76-.11-.02-.22-.04-.34-.04.36-.27.72-.51,1.04-.71h0ZM307.97,63.4h0c-.15-.08-.29-.15-.44-.2.23-.25.5-.48.82-.66.03.03.06.05.09.08-.02.02-.03.05-.05.07-.15.23-.29.47-.42.71h0ZM307.65,64.02h0l-.02-.03c-.04-.06-.09-.13-.13-.19.05.02.1.05.15.08.02,0,.03.02.05.03-.02.04-.04.08-.06.11h0ZM304.03,61.44h0s0,0,0,0h0ZM304.26,61.13h.01s.08.06.12.09c-.03.04-.07.08-.1.12-.06-.01-.12-.02-.18-.03.04-.06.09-.12.13-.18h0ZM304.64,60.93h0s-.04.05-.06.07c-.07-.02-.13-.03-.19-.04.05-.06.1-.12.15-.17.03.05.06.1.1.14h0ZM304.56,62.46h0c.07-.13.14-.26.23-.4.07,0,.14-.02.2-.02.11.07.22.15.33.23-.08.13-.15.26-.23.39-.03.05-.05.1-.08.15-.07-.04-.13-.08-.2-.11-.08-.08-.16-.15-.24-.22v-.02h-.01ZM302.87,60.49h0c.08-.14.16-.28.24-.42.19-.17.38-.32.55-.46.14.17.28.35.41.53-.24.23-.49.5-.74.81-.15-.16-.31-.31-.47-.46h0ZM303.24,62.9h0l.03.03c-.06.11-.12.23-.17.34.04-.12.09-.24.15-.37h0ZM303.57,62.39h0s-.04.06-.06.1h-.02s-.03-.04-.05-.06c.02-.04.04-.09.06-.13.02.03.04.06.06.09h0ZM304.1,65.1h-.2c-.05-.13-.12-.28-.21-.43.1-.1.18-.22.23-.35.01-.03.02-.05.03-.08.03.08.05.15.08.22.06.18.09.33.12.46-.02.06-.03.12-.05.18h0ZM302.2,61.88h.01s-.02.02-.02.02v-.02h0ZM302.91,61.52h0c-.2-.05-.38-.08-.51-.1.05-.1.09-.2.14-.3l.02.02c.13.12.24.25.36.38h0ZM299.53,61.53h0c-.1.1-.19.21-.29.32-.28-.45-.57-.86-.87-1.22.35.23.7.49,1.01.76.05.05.1.09.15.14h0ZM300.42,62.57h0s-.04.08-.06.12c-.03.07-.07.14-.1.2-.06.03-.11.05-.15.07-.21.1-.23.1.06.13-.04.09-.08.19-.12.28-.1-.23-.21-.46-.32-.69-.02-.04-.04-.08-.06-.12.12-.17.24-.33.38-.5.14.17.26.33.38.5h0ZM300.75,64.44h0s.02-.04.03-.05l-.02.07h0ZM291.66,61.58h0s-.04.03-.06.04c-.09-.03-.18-.06-.27-.09.05,0,.1-.01.15-.02.06.02.12.04.18.06h0ZM294.4,61.5h0s-.04.08-.07.11c-.02-.03-.05-.07-.07-.1.05,0,.09-.01.14-.02h0ZM295.53,62.46h0s-.05.08-.08.12c-.1.15-.19.3-.27.45-.06-.12-.12-.24-.19-.36-.09-.16-.18-.32-.27-.47.03-.06.06-.12.09-.18.15.01.32.03.49.05.08.14.16.27.23.4h0ZM291.75,62.55h0c.67.38,1.14,1.01,1.41,1.53-.12.31-.23.62-.32.92-.24-.66-.64-1.51-1.15-2.3l-.03-.05s.06-.06.09-.09h0ZM293.61,63h0c-.27-.34-.64-.71-1.11-1.01-.02.01-.05.02-.07.04h-.02c.35.24.69.53.99.87.06.06.11.13.16.19.01-.03.03-.06.04-.09h0ZM294.12,63.87h0s-.03-.05-.04-.07v-.02s.03.06.04.09h0ZM295.69,64.15h0c.04-.13.08-.27.15-.43.03-.08.07-.17.11-.26.11.39.13.65.21.86.11.29.34.48.68.7.05.03.09.06.14.08h-.99c-.05-.18-.11-.38-.18-.59,0-.02,0-.04,0-.06-.02-.09-.05-.19-.1-.31h0ZM293.82,60.96h0c-.35-.41-.71-.75-1.05-.99-.21-.15-.41-.26-.59-.34.1-.08.2-.15.3-.21.52.3,1.08.68,1.56,1.1.21.19.41.39.58.6l-.04.06c-.2-.08-.46-.18-.76-.22h0ZM291.04,60.61h.01c.5.06,1.04.22,1.57.47.12-.04.24-.07.36-.1-.42-.4-.87-.75-1.24-1.01-.24.19-.48.41-.7.64h0ZM289.19,64.47h0c.07.26.1.46.13.63h-.42c.11-.13.19-.27.24-.44.02-.06.03-.12.04-.19h0ZM290.88,59.89h0c-.22.21-.45.45-.67.73-.04,0-.08,0-.12.01h0s-.07-.09-.1-.13c.31-.23.62-.43.9-.61h0ZM288.12,61.08h0c-.09-.05-.18-.1-.27-.15-.14-.13-.27-.26-.41-.37.22-.17.45-.33.68-.48.23.15.46.31.68.48-.14.12-.27.24-.41.37-.09.05-.18.1-.27.15h0ZM283.07,64.08h0c.27-.52.74-1.15,1.41-1.53.03.03.06.06.09.09l-.03.05c-.51.79-.92,1.64-1.15,2.3-.09-.29-.2-.6-.32-.92h0ZM282.12,63.87h0s.02-.06.04-.09v.02s-.02.05-.04.07h0ZM280.79,60.93h0c-.15.17-.29.34-.43.52-.06,0-.13,0-.19,0,.07-.11.15-.21.23-.31.09-.12.19-.24.29-.35.03.05.06.1.1.14h0ZM280.7,62.46h0c.07-.13.14-.26.23-.4.18-.02.34-.04.49-.05.03.06.06.12.09.18-.09.15-.18.31-.27.47-.06.12-.13.24-.19.36-.09-.15-.18-.3-.27-.45-.03-.04-.05-.08-.08-.12h0ZM279.02,60.49h0c.16.14.31.3.46.46.25-.31.5-.58.74-.81-.14-.18-.28-.36-.41-.53-.17.13-.35.29-.55.46-.08.14-.16.28-.24.42h0ZM279.72,62.39h0c-.18.3-.34.6-.48.88.11-.3.25-.63.42-.97.02.03.04.06.06.09h0ZM280.25,65.1h-.99s.1-.06.14-.08c.34-.21.57-.41.68-.7.08-.21.1-.47.21-.86.04.09.08.18.11.26.06.16.11.3.15.43-.05.12-.08.22-.1.31,0,.02,0,.04,0,.06-.07.21-.13.41-.18.59h0ZM279.06,61.52h0s-.07.1-.1.15c-.21.07-.42.15-.62.24.11-.26.22-.52.35-.78l.02.02c.13.12.24.25.36.38h0ZM277.95,63.15h0c.09-.07.18-.14.27-.21-.06.12-.12.25-.18.37-.03-.05-.07-.11-.1-.16h0ZM287.04,64.47h0c.01.07.03.13.04.19.05.17.13.31.24.44h-.42c.03-.17.06-.37.13-.63h0ZM288.12,64.84h0c-.09-.42-.28-1.01-.54-1.62.15-.18.33-.37.54-.54.21.18.39.36.54.54-.26.61-.44,1.19-.54,1.62h0ZM260.25,63.81h0c.22.41.38.82.47,1.14.02.06.03.11.04.16h-.24c-.14-.4-.39-.92-.7-1.42.15.04.29.08.43.13h0ZM261.37,65.1h0c-.11-.3-.24-.61-.39-.92.4.28.7.63.87.91h0s-.48,0-.48,0h0ZM272.66,62.39h0s.04-.06.06-.09c.02.04.04.09.06.13-.02.02-.03.04-.05.06h-.02s-.04-.07-.06-.1h0ZM268.58,64.02h0s-.04-.08-.06-.11c.02,0,.03-.02.05-.03.05-.03.1-.05.15-.08-.04.06-.09.13-.13.19l-.02.03h0ZM267.52,65.01h0s0,0,0,0c.04.03.07.06.11.08h-.09s-.02-.06-.03-.09h0ZM265.19,61.82h0c-.06-.06-.13-.13-.2-.19l.02-.03c.06.07.12.14.18.22h0ZM265.17,63.96h0v.02c.21.52.25.86.3,1.12h-.97c.02-.1.05-.22.09-.35.09-.29.23-.66.42-1.03.06.08.11.17.16.25h0ZM264.15,64.41h0c.07-.17.15-.33.23-.49.11-.21.22-.41.34-.61-.12-.15-.26-.3-.4-.45h-.01c-.15.29-.27.59-.38.88.09.24.16.47.22.68h0ZM263.05,65.1h-.11c.03-.07.03-.17.01-.3-.05-.31-.25-.83-.56-1.36.37.42.63.86.8,1.22-.05.15-.09.3-.13.44h0ZM256.32,63.18h0c-.13.09-.26.19-.38.3-.13-.17-.26-.34-.4-.5.26.05.53.11.78.2h0ZM258.27,65.28h0c-.07.12-.13.28-.17.48h-1.04c-.07-.39-.36-1.09-.79-1.78.17-.18.37-.35.6-.48.02,0,.03-.02.05-.03.46.3.79.68.98.99.23.37.27.64.35.81h0ZM257.72,63.22h0c.13.09.26.19.39.3.58.5,1.02,1.16,1.19,1.58h.3c-.05-.2-.08-.47-.25-.9-.08-.2-.2-.43-.34-.67-.24-.03-.46-.05-.62-.06q-.46-.03-.17-.14c.13-.05.31-.11.54-.17-.02-.03-.04-.06-.06-.09-.05,0-.11.01-.19.02-.19.02-.47.05-.77.11h0ZM255.86,62.47h0c.35-.36.75-.66,1.06-.87.38.22.79.5,1.14.81.19.17.35.35.5.53-.24-.11-.67-.28-1.18-.21-.12.02-.24.05-.36.09-.39-.18-.79-.3-1.16-.34h-.01ZM255.63,65.15h0c.04-.12.08-.26.16-.42.01-.03.03-.06.05-.09.14.39.14.63.21.81.05.12.12.23.23.32h-.51c.03-.05.03-.12.01-.22-.02-.11-.07-.24-.15-.4h0ZM254.84,64.06h0c.09-.21.19-.43.32-.66.13.18.25.36.35.53-.13.16-.24.33-.35.5-.1-.13-.21-.25-.32-.37h0ZM254.3,65.76h0c.08-.09.14-.2.18-.32.03-.1.04-.21.07-.36.07.17.1.31.15.41,0,.01,0,.03,0,.04-.01.1,0,.17.01.22h-.4ZM244.64,65.76h-.56c-.13-.46-.34-1.04-.61-1.58.4.28.69.63.87.91.17.28.24.5.29.67h0ZM242.31,63.68h0c.15.04.29.08.43.13.22.41.38.82.47,1.14.11.38.14.63.17.82h-.24s.01-.09,0-.15c-.03-.36-.35-1.16-.83-1.93h0ZM254.07,63.28h0s-.05.06-.07.09c.15.1.3.21.45.32.02-.03.03-.06.05-.09.11-.21.23-.4.36-.59l-.02-.02c-.24.06-.49.14-.7.26-.02,0-.03.02-.05.03h0ZM255.74,61.94h0c-.16.15-.33.33-.5.53-.03,0-.06,0-.08,0-.04,0-.08-.01-.11-.02l-.03-.03c.25-.19.5-.35.73-.5h0ZM253.7,62.07h0c.17.11.35.23.52.36-.1.09-.2.18-.3.28-.18.09-.35.2-.52.33-.22-.1-.43-.17-.64-.23.3-.28.64-.53.95-.74h0ZM250.02,65.01h0c.2-.39.55-.86,1.06-1.13.05-.03.1-.05.15-.08-.04.06-.09.13-.13.19-.38.58-.67,1.2-.84,1.69-.07-.22-.15-.44-.23-.67h0ZM248.87,64.87h0v-.03c.07-.19.15-.4.26-.63.09.22.16.42.22.61-.11.17-.2.35-.28.51-.06-.15-.13-.3-.2-.46h0ZM247.81,63.2h0c.18.23.36.47.52.71.07.11.14.22.2.33.04-.09.09-.18.14-.26.06-.12.13-.23.2-.35-.13-.27-.28-.54-.46-.82-.05-.07-.09-.14-.14-.22-.07.08-.15.17-.22.26-.09.11-.17.23-.24.34h0ZM247.04,62.38h0c.15-.27.31-.54.47-.78.17.2.33.41.5.63-.17.18-.33.39-.5.62-.16-.17-.31-.33-.47-.47h0ZM246.91,65.65h0c.04-.2.05-.47.18-.9.09-.29.23-.66.42-1.03.25.38.43.74.54,1.03.05.13.09.24.11.34-.09.25-.17.48-.22.68h-.99s-.03-.08-.04-.12h0ZM246.23,64.29h0c.1.15.19.31.27.46.11-.28.23-.57.37-.84.11-.21.22-.41.34-.61-.12-.15-.26-.3-.4-.45h-.01c-.24.49-.43.99-.57,1.44h0ZM246.02,65.76h-.1c0-.08.02-.17.03-.27.02.1.04.19.06.27h0ZM245.04,64.67h0c.18.21.33.43.45.62.06-.21.12-.42.19-.63-.22-.48-.62-1.1-1.2-1.62-.23-.2-.48-.39-.74-.56.35.42.7.94.99,1.52.11.22.21.45.31.67h0ZM275.48,64.44h0s-.02-.05-.02-.05c0,.02.02.04.03.05h0ZM274.17,62.97h0v-.03s.01.02.01.02h-.01ZM272.28,64.24h0s.02.06.03.08c.05.13.13.25.23.35-.08.15-.15.3-.21.43h-.2c-.02-.06-.03-.12-.05-.18.03-.13.06-.28.12-.46.02-.07.05-.14.08-.22h0ZM273,62.9h0c.05.13.1.25.15.37-.05-.11-.11-.22-.17-.34l.03-.03h0ZM274.03,61.88h0v.02s-.01,0-.01,0h.01ZM274.49,61.56h0c.18.26.35.54.49.8l-.03.04c-.07-.05-.14-.09-.2-.13-.09-.23-.19-.46-.29-.69l.04-.03h0ZM276.9,64.44h0s.02-.04.03-.05l-.02.07h0ZM275.81,62.57h0c.12-.17.24-.33.38-.5.14.17.27.33.38.5-.02.04-.04.08-.06.12-.11.23-.22.46-.32.69-.04-.09-.08-.19-.12-.28.28-.03.27-.04.06-.13-.04-.02-.09-.04-.15-.07-.03-.07-.07-.14-.1-.2-.02-.04-.04-.08-.06-.12h0ZM274.96,61.18h0c.05,0,.06,0,.03.04.14.2.28.41.41.62.09-.11.19-.21.29-.32-.05-.05-.1-.09-.15-.14-.31-.28-.66-.53-1.01-.76.15.17.29.36.43.56h0ZM271.25,62.04h0c.07,0,.13.01.2.02.08.14.16.27.23.4l-.02.02c-.08.07-.16.15-.24.22-.07.03-.13.07-.2.11-.03-.05-.05-.1-.08-.15-.07-.13-.15-.26-.23-.39.11-.08.22-.16.33-.23h0ZM272.2,61.44h0s0,0,0,0h0ZM271.97,61.13h0c.05.06.09.12.13.18-.05,0-.11.02-.18.03-.03-.04-.07-.08-.1-.12.04-.03.09-.06.12-.08h.01ZM267.88,62.54h0c.32.18.59.41.82.66-.14.05-.29.12-.44.2-.13-.24-.27-.47-.42-.71-.02-.02-.03-.05-.05-.07.03-.03.06-.05.09-.08h0ZM268.62,61.96h0l-.08.05c.34.22.67.49.96.82.02-.02.04-.04.06-.06h0c-.25-.29-.57-.57-.95-.81h0ZM266.32,62.06h.02c.16.33.28.65.36.91.01.04.03.08.04.12-.03.04-.05.07-.08.11-.19-.33-.38-.63-.58-.92.08-.08.16-.15.24-.23h0ZM267.15,61.38h0c.32.07.63.17.92.29.06.02.12.05.17.08-.03.01-.06.03-.09.04-.33-.17-.66-.28-.96-.32-.05,0-.09-.01-.14-.02l.03-.02.06-.05h0ZM266.78,61.32h0s.02,0,.02,0h-.01ZM265.33,61.13h0c.09,0,.19.01.29.02.14.14.27.29.39.43-.13.04-.25.09-.35.14-.05-.07-.11-.13-.16-.19-.09-.1-.17-.19-.25-.27.03-.04.06-.09.09-.13h0ZM317.96,65.28h0c.08-.17.12-.44.35-.81.19-.31.52-.69.98-.99.02,0,.03.02.05.03.23.13.43.3.6.48-.42.69-.71,1.39-.79,1.78h-1.03c-.04-.2-.1-.37-.17-.48h0ZM316.65,65.1h.3c.16-.42.61-1.08,1.19-1.58.12-.11.25-.21.39-.3-.31-.07-.59-.09-.78-.11-.08,0-.14-.01-.19-.02-.02.03-.04.06-.06.09.23.05.41.12.54.17q.29.11-.17.14c-.16.01-.38.03-.62.06-.15.24-.26.47-.34.67-.18.43-.2.7-.25.9h0ZM315.47,65.1h0c.01-.05.03-.1.04-.16.09-.32.25-.72.47-1.14.14-.05.28-.09.43-.13-.32.5-.56,1.02-.7,1.42h-.24ZM317.44,61.62h0c-.17.08-.35.19-.55.35-.35.29-.74.74-1.09,1.27-.34.11-.69.27-1.02.48l.02-.04c.26-.54.76-1.26,1.5-1.66.35-.2.76-.32,1.15-.4h0ZM318.58,61.46h-.1c-.09.02-.2.03-.32.04-.04.03-.09.07-.16.12-.34.26-1.03.79-1.52,1.42-.01.02-.03.03-.04.05h0c.13-.02.26-.02.39-.02.53-.68,1.17-1.26,1.75-1.62h0ZM313.3,65.1h-.12c-.04-.15-.09-.29-.14-.44.17-.36.43-.8.8-1.22-.31.53-.51,1.04-.56,1.36-.02.13-.01.23.01.3h0ZM314.04,61.71h0c-.32.52-.55,1.05-.7,1.48.47-.51.99-.93,1.46-1.19.14-.08.27-.14.39-.19.15-.12.3-.23.45-.33-.42.03-1.01.09-1.61.22h0ZM311.04,61.82h0c.06-.07.12-.15.18-.22l.02.03c-.07.06-.13.12-.2.19h0ZM308.71,65.01h0s-.02.06-.03.09h-.09s.07-.06.11-.08h0ZM309.91,62.06h0c.08.07.16.15.24.23-.2.28-.4.59-.58.92-.03-.04-.05-.08-.08-.11.01-.04.02-.08.04-.12.09-.27.21-.58.36-.91h.02ZM310.23,61.59h0c.12-.15.25-.29.39-.43.11,0,.2-.02.29-.02.03.04.06.08.09.13-.08.08-.17.18-.25.27-.05.06-.11.12-.16.19-.1-.04-.22-.09-.35-.14h0ZM309.45,61.32h-.01s.02,0,.02,0h0ZM308.08,61.79h0s-.06-.03-.09-.04c.06-.03.11-.05.17-.08.29-.12.6-.22.92-.29l.06.05.03.02s-.09,0-.14.02c-.3.05-.63.15-.96.32h0ZM306.73,62.84h0c.3-.33.63-.6.96-.82l-.08-.05c-.38.24-.7.52-.95.81h0s.04.05.06.07h0ZM301.26,62.36h0c.14-.27.3-.54.49-.8l.04.03c-.1.22-.2.45-.29.69-.07.04-.14.08-.2.13l-.03-.04h0ZM300.55,61.53h0c.1.1.19.21.29.32.13-.22.27-.42.41-.62-.04-.03-.02-.04.03-.04.14-.2.29-.38.43-.56-.35.23-.7.49-1.01.76-.05.05-.1.09-.15.14h0ZM298.81,60.08h0c.4.24.82.56,1.23.94.41-.38.83-.7,1.23-.94-.46-.33-.9-.6-1.23-.79-.33.2-.77.47-1.23.79h0ZM298.59,62.27h0c.07.04.14.08.2.13l.03-.04c-.18-.34-.39-.68-.63-1.01.14.3.27.61.4.92h0ZM297.17,61.52h0c.11-.13.23-.26.36-.38l.02-.02c.13.26.25.53.35.78-.21-.09-.42-.17-.62-.24-.03-.05-.07-.1-.1-.15h0ZM296.01,60.14h0c.14-.18.28-.36.41-.53.17.13.35.29.55.46.08.14.16.28.24.42-.16.14-.31.3-.47.46-.25-.31-.5-.58-.74-.81h0ZM295.44,60.93h0c.15.17.29.34.43.52.06,0,.13,0,.19,0-.07-.11-.15-.21-.23-.31-.09-.12-.19-.24-.29-.35-.03.05-.06.1-.1.14h0ZM286.15,60.62h0s-.08,0-.12-.01c-.22-.27-.45-.52-.68-.73.28.17.58.38.9.61-.03.04-.07.09-.1.13h0ZM284.63,61.62h0s-.04-.03-.06-.04c.06-.02.12-.04.18-.06.05,0,.1,0,.15.02-.09.02-.18.05-.27.09h0ZM282.62,63h0s.03.06.04.09c.05-.07.11-.13.16-.19.3-.34.64-.63.99-.86h-.02s-.04-.04-.07-.05c-.47.3-.84.67-1.11,1.01h0ZM284.49,59.98h0c.24.19.48.41.7.64h-.01c-.5.06-1.04.22-1.57.47-.12-.04-.24-.07-.36-.1.42-.4.87-.75,1.24-1.01h0ZM281.84,61.5h0s.09.01.14.02c-.02.03-.05.06-.07.1-.02-.04-.04-.08-.07-.11h0ZM281.61,61.13h0l.04.06c.2-.08.46-.18.76-.22.35-.41.71-.75,1.05-.99.21-.15.41-.26.59-.34-.1-.08-.2-.15-.3-.21-.52.3-1.08.68-1.56,1.1-.21.19-.41.39-.58.6h0ZM277.41,62.36h0c.18-.34.39-.68.63-1.01-.14.3-.27.61-.4.92-.07.04-.14.08-.2.13l-.03-.04h0ZM276.7,61.53h0c.1.1.19.21.29.32.28-.45.58-.86.87-1.22-.35.23-.7.49-1.01.76-.05.05-.1.09-.15.14h0ZM274.96,60.08h0c.46-.33.9-.6,1.23-.79.33.2.77.47,1.23.79-.4.24-.82.56-1.23.94-.41-.38-.83-.7-1.23-.94h0ZM273.32,61.52h0c.11-.13.23-.26.36-.38l.02-.02c.05.1.1.2.14.3-.13.02-.3.05-.51.11h0ZM272.15,60.14h0c.14-.18.28-.36.41-.53.17.13.35.29.55.46.08.14.16.28.24.42-.16.14-.31.3-.46.46-.25-.31-.5-.58-.74-.81h0ZM271.59,60.93h0s.06-.09.1-.14c.05.06.1.12.15.17-.06,0-.12.02-.19.04-.02-.02-.04-.05-.06-.07h0ZM263.73,63.23h0c-.15-.36-.32-.73-.51-1.08-.03-.06-.06-.11-.1-.17.03.01.06.02.09.04.08.03.15.07.23.11.2.14.4.3.6.47-.1.2-.21.42-.3.64h0ZM261.04,61.82h0c-.15-.12-.3-.23-.45-.33.42.03,1.01.09,1.61.22.32.52.55,1.05.7,1.48-.47-.51-.99-.93-1.46-1.19-.14-.08-.27-.14-.4-.19h0ZM258.79,61.62h0c.17.08.35.19.55.35.35.29.74.74,1.09,1.27.34.11.69.27,1.02.48l-.02-.04c-.26-.54-.76-1.26-1.5-1.66-.36-.2-.76-.32-1.15-.4h0ZM257.65,61.46h.1c.09.02.2.03.32.04.04.03.09.07.16.12.34.26,1.03.79,1.52,1.42.01.02.03.03.04.05h0c-.13-.02-.26-.02-.39-.02-.53-.68-1.17-1.26-1.75-1.62h0ZM234.08,65.76h0c-.24,0-.43.41-.43.92s.19.92.43.92h108.07c.24,0,.43-.41.43-.92s-.19-.92-.43-.92h-3.35c.09-.05.16-.11.21-.19.1-.17.12-.45.37-.85.25-.4.72-.92,1.41-1.22.69-.3,1.61-.37,2.06-.4q.46-.04.16-.14c-.29-.11-.87-.32-1.59-.23-.72.08-1.56.46-2.23,1.04-.67.59-1.17,1.38-1.24,1.77-.02.1-.01.17.01.22h-.51c.11-.09.18-.2.23-.32.08-.21.08-.49.28-.99.18-.44.53-1.05,1.06-1.59.1,0,.19-.02.27-.02q.46-.03.16-.14c-.05-.02-.12-.04-.19-.07.65-.57,1.52-1.02,1.96-1.25q.44-.23.15-.21c-.3.02-.89.06-1.58.44-.36.2-.76.5-1.14.86-.24-.04-.5-.05-.79-.02-.72.08-1.56.46-2.24,1.04-.67.59-1.17,1.38-1.24,1.77-.08.39.26.36.52.32.26-.05.43-.12.53-.29.1-.17.12-.45.37-.85.25-.4.72-.92,1.41-1.22.3-.13.64-.21.96-.27-.17.2-.34.41-.49.62-.56.79-.95,1.7-1.04,2.16h-3.14s.07-.04.1-.06c.25-.16.41-.3.5-.51.08-.21.08-.49.28-.99.08-.2.2-.43.34-.67.24-.03.46-.05.62-.06q.46-.03.17-.14c-.13-.05-.31-.11-.54-.17.19-.26.42-.52.68-.76.65-.58,1.54-1.04,1.99-1.27q.44-.23.15-.21c-.3.02-.89.06-1.58.44-.62.34-1.32.96-1.9,1.71-.12,0-.25,0-.39.02h0s.03-.03.04-.05c.5-.63,1.18-1.16,1.52-1.42q.34-.26.11-.22c-.23.04-.69.13-1.22.57-.35.29-.74.74-1.09,1.27-.39.13-.8.32-1.18.58.15-.3.34-.6.56-.89.5-.63,1.18-1.16,1.52-1.42q.34-.26.11-.22c-.17.03-.48.09-.85.31-.31.05-.72.15-1.16.4-.67.37-1.43,1.06-2.03,1.88-.18-.45-.37-.89-.57-1.29.6-.52,1.3-.93,1.68-1.16q.44-.26.15-.22c-.3.04-.89.13-1.57.57-.16.1-.33.22-.49.36-.13-.22-.25-.43-.37-.61-.05-.07-.1-.14-.14-.2.26-.3.5-.56.66-.74q.41-.44.12-.28c-.21.12-.58.34-1.01.73-.34-.4-.62-.61-.78-.73q-.22-.17.09.28c.12.17.28.4.47.67-.08.08-.17.18-.25.27-.11.12-.21.25-.32.39-.05-.05-.11-.1-.16-.14-.53-.44-.99-.52-1.22-.57q-.23-.04.11.22c.23.18.62.48,1.01.85-.2.28-.4.59-.58.92-.37-.51-.77-.94-1.14-1.2-.54-.38-1-.42-1.23-.44q-.23-.02.12.21c.35.23,1.03.68,1.54,1.27.17.2.32.41.46.63-.11.2-.21.41-.3.62-.04-.05-.08-.1-.12-.14-.46-.51-1.02-.87-1.52-1,.19-.02.35-.03.48-.04q.46-.04.17-.14c-.26-.1-.77-.28-1.4-.25-.28-.42-.59-.78-.9-1.06.19-.11.36-.19.49-.26q.44-.23.15-.21c-.21.01-.56.04-.99.18-.53-.38-.99-.42-1.22-.44q-.23-.02.12.21c.12.08.29.19.47.32-.32-.11-.57-.14-.74-.17q-.3-.04.14.22c.11.07.25.15.41.25-.15.1-.31.21-.47.34-.06-.04-.13-.09-.19-.13-.69-.44-1.28-.52-1.57-.57-.05,0-.1-.01-.13-.02h-.01c.18-.1.34-.19.46-.25q.44-.23.15-.21c-.24.02-.69.05-1.23.27-.07,0-.13-.02-.18-.02-.19-.02-.22-.02-.02.12-.03.01-.06.03-.08.04-.03-.02-.08-.04-.13-.06-.31-.14-.93-.43-1.68-.32-.3.04-.61.15-.93.31-.24-.09-.6-.21-1.05-.28-.03-.02-.07-.03-.11-.05-.06-.03-.12-.06-.2-.09.69-.78,1.61-1.39,2.07-1.7q.47-.31.16-.28c-.23.02-.63.06-1.11.28-.05,0-.11.01-.18.02-.4.06-1.21.18-2.14.77-.4.25-.82.59-1.23,1-.25.13-.5.29-.74.47-.02-.03-.04-.05-.06-.08.26-.3.5-.56.66-.74q.41-.44.12-.28c-.2.12-.53.31-.93.66-.03-.01-.06-.02-.1-.04-.04-.01-.08-.03-.12-.04-.03-.03-.06-.06-.08-.09.88-.76,2.03-1.35,2.62-1.65q.61-.31.2-.28c-.27.02-.72.05-1.27.22.16-.11.31-.21.42-.28q.47-.31.16-.28c-.31.03-.94.08-1.67.61-.37.26-.76.64-1.15,1.1-.04-.03-.05-.02-.02.03-.1.12-.2.24-.29.37-.29-.04-.62-.05-.97,0-.79.09-1.7.45-2.51,1,.06-.08.13-.16.19-.23.69-.8,1.63-1.42,2.1-1.73q.47-.31.16-.28c-.31.03-.94.08-1.67.61-.5.36-1.05.93-1.55,1.63-.1-.16-.19-.33-.29-.48.18-.2.37-.4.58-.6.89-.8,2.1-1.42,2.71-1.73q.61-.31.2-.28c-.4.03-1.21.08-2.15.61-.56.31-1.17.79-1.75,1.37-.03-.05-.06-.09-.09-.13.52-.51,1.05-.92,1.37-1.16q.47-.36.15-.3c-.25.05-.7.13-1.25.47-.21.09-.45.21-.71.4-.12-.15-.24-.3-.36-.43-.02-.02-.04-.05-.06-.07.41-.32.4-.31.1-.26-.08.01-.17.03-.28.06-.04-.04-.07-.07-.1-.11.25-.37.47-.69.64-.92q.43-.61.13-.38c-.22.17-.61.46-1.07,1-.59-.54-1.09-.83-1.38-1q-.39-.23.17.38c.23.25.55.6.9,1.01-.07.09-.13.18-.2.28-.02.04-.05.07-.08.11-.29.05-.62.14-.99.29-.04-.02-.07-.05-.11-.07-.52-.33-.99-.51-1.38-.62.34-.21.29-.2-.05-.15-.1.01-.22.03-.36.06-.14-.03-.26-.04-.36-.06-.34-.05-.39-.06-.05.15-.39.11-.87.29-1.38.62-.04.02-.07.05-.11.07-.37-.16-.71-.24-.99-.29-.03-.04-.05-.08-.08-.11-.07-.1-.13-.19-.2-.28.35-.41.68-.76.9-1.01q.55-.61.17-.38c-.29.17-.79.46-1.38,1-.46-.54-.85-.83-1.07-1q-.3-.23.13.38c.16.23.39.55.64.92-.03.04-.07.07-.1.11-.11-.03-.2-.05-.28-.06-.3-.06-.31-.06.1.26-.02.02-.04.05-.06.07-.12.14-.24.28-.36.43-.26-.18-.5-.31-.71-.4-.55-.34-1-.43-1.25-.47q-.31-.06.15.3c.32.24.85.65,1.37,1.16-.03.04-.06.09-.09.13-.58-.58-1.19-1.06-1.75-1.37-.07-.04-.13-.07-.2-.1.27-.18.23-.18-.03-.16-.07,0-.15.01-.25.03-.73-.31-1.34-.35-1.67-.37q-.4-.03.2.28c.17.09.39.2.63.33h-.02s-.11.02-.18.03c-.4.06-1.21.18-2.14.77-.02.01-.04.03-.06.04-.16-.17-.31-.33-.47-.48.26-.14.49-.26.67-.35q.61-.31.2-.28c-.27.02-.72.05-1.27.22.16-.11.31-.21.42-.28q.47-.31.16-.28c-.24.02-.65.06-1.16.3-.51-.24-.92-.28-1.16-.3q-.31-.03.16.28c.12.08.26.17.42.28-.55-.17-1-.2-1.27-.22q-.4-.03.2.28c.18.09.41.21.67.35-.16.14-.31.3-.47.48-.02-.01-.04-.03-.06-.04-.94-.6-1.74-.71-2.14-.77-.07-.01-.13-.02-.18-.02h-.02c.24-.14.46-.25.63-.34q.61-.31.2-.28c-.33.02-.94.06-1.67.37-.1-.01-.18-.02-.25-.03-.26-.02-.31-.03-.03.16-.06.03-.13.07-.2.1-.56.31-1.17.79-1.75,1.37-.03-.05-.06-.09-.09-.13.52-.51,1.06-.92,1.37-1.16q.47-.36.15-.3c-.25.05-.71.13-1.25.47-.21.09-.45.21-.71.4-.12-.15-.24-.3-.36-.43-.02-.02-.04-.05-.06-.07.41-.32.4-.31.1-.26-.08.01-.17.03-.28.06-.03-.04-.07-.07-.1-.11.25-.37.47-.69.64-.92q.43-.61.13-.38c-.22.17-.61.46-1.07,1-.59-.54-1.09-.83-1.38-1q-.39-.23.17.38c.23.25.55.6.9,1.01-.06.09-.13.18-.2.28-.03.04-.05.07-.08.11-.29.05-.62.14-.99.29-.04-.02-.07-.05-.11-.07-.52-.33-.99-.51-1.38-.62.34-.21.29-.2-.05-.15-.1.01-.22.03-.36.06-.14-.03-.26-.04-.36-.06-.34-.05-.39-.06-.05.15-.39.11-.87.29-1.38.62-.04.02-.07.05-.11.07-.37-.16-.71-.24-.99-.29-.03-.04-.05-.08-.08-.11-.07-.1-.13-.19-.2-.28.35-.41.68-.76.9-1.01q.55-.61.17-.38c-.29.17-.79.46-1.38,1-.46-.54-.85-.83-1.07-1q-.3-.23.13.38c.16.23.39.55.64.92-.03.04-.07.07-.1.11-.11-.03-.2-.05-.28-.06-.3-.06-.31-.06.1.26-.02.02-.04.05-.06.07-.12.14-.24.28-.36.43-.26-.18-.5-.31-.71-.4-.55-.34-1-.43-1.25-.47q-.31-.06.15.3c.32.24.85.65,1.37,1.16-.03.04-.06.09-.09.13-.58-.58-1.19-1.06-1.75-1.37-.94-.52-1.75-.58-2.15-.61q-.4-.03.2.28c.61.31,1.82.93,2.71,1.73.21.19.41.39.58.6-.1.16-.19.32-.29.48-.5-.7-1.05-1.28-1.55-1.63-.73-.52-1.36-.58-1.67-.61q-.31-.03.16.28c.47.31,1.41.93,2.1,1.73.07.08.13.15.19.23-.8-.56-1.71-.91-2.51-1-.35-.04-.67-.03-.97,0-.1-.13-.19-.25-.29-.37.03-.05.02-.05-.02-.03-.38-.46-.78-.84-1.14-1.1-.73-.52-1.36-.58-1.67-.61q-.31-.03.16.28c.12.08.26.17.42.28-.55-.17-1-.2-1.27-.22q-.4-.03.2.28c.59.3,1.74.89,2.62,1.65-.03.03-.06.06-.08.09-.04.02-.09.03-.12.04-.04.01-.07.02-.1.04-.4-.35-.73-.54-.93-.66q-.29-.17.12.28c.17.18.4.44.66.74-.02.03-.04.05-.06.08-.24-.19-.49-.35-.74-.47-.41-.4-.84-.74-1.23-1-.94-.6-1.74-.71-2.14-.77-.07-.01-.13-.02-.18-.02-.48-.22-.88-.26-1.11-.28q-.31-.03.16.28c.46.31,1.39.92,2.07,1.7-.08.03-.14.06-.2.09-.04.02-.08.04-.11.05-.45.07-.81.2-1.05.28-.32-.16-.64-.26-.93-.31-.76-.11-1.37.18-1.68.32-.05.03-.1.05-.13.06-.03-.01-.06-.03-.09-.04.2-.13.17-.13-.02-.12-.05,0-.11,0-.18.02-.54-.23-.98-.26-1.23-.27q-.3-.02.15.21c.12.06.28.15.46.24h-.02s-.08.02-.13.02c-.3.04-.89.13-1.57.57-.06.04-.12.08-.19.13-.16-.13-.31-.24-.47-.34.16-.1.3-.18.41-.25q.44-.26.14-.22c-.17.02-.42.06-.74.17.18-.13.35-.24.47-.32q.34-.23.12-.21c-.23.02-.68.06-1.22.44-.43-.15-.78-.17-.99-.18q-.3-.02.15.21c.13.07.3.15.49.26-.3.28-.61.64-.9,1.06-.63-.03-1.13.15-1.39.25q-.29.11.16.14c.13,0,.29.02.48.04-.51.13-1.07.49-1.52,1-.04.05-.08.09-.12.14-.1-.21-.2-.42-.3-.62.13-.22.28-.43.45-.63.51-.58,1.2-1.04,1.54-1.27q.35-.23.12-.21c-.23.02-.69.06-1.23.44-.37.26-.77.68-1.14,1.2-.19-.33-.38-.64-.58-.92.38-.37.77-.67,1.01-.85q.34-.26.11-.22c-.23.04-.69.13-1.22.57-.05.04-.11.09-.17.14-.11-.14-.21-.27-.32-.39-.09-.1-.17-.19-.25-.27.18-.27.35-.5.47-.67q.32-.44.09-.28c-.16.12-.45.34-.78.73-.43-.4-.8-.61-1.01-.73q-.29-.17.12.28c.17.18.4.44.66.74-.05.06-.1.13-.14.2-.12.18-.25.38-.37.61-.17-.14-.33-.26-.49-.36-.69-.44-1.28-.52-1.57-.57q-.29-.04.15.22c.38.23,1.08.64,1.68,1.16-.2.4-.4.84-.57,1.29-.59-.82-1.36-1.51-2.03-1.88-.45-.25-.85-.35-1.16-.4-.37-.22-.68-.28-.85-.31q-.23-.04.11.22c.34.26,1.03.79,1.52,1.42.22.28.41.59.56.89-.37-.26-.78-.46-1.18-.58-.35-.53-.74-.98-1.09-1.27-.53-.44-.99-.52-1.22-.57q-.23-.04.11.22c.34.26,1.03.79,1.52,1.42.01.02.03.03.04.05h0c-.13-.02-.26-.02-.39-.02-.57-.74-1.28-1.36-1.9-1.71-.69-.38-1.28-.42-1.58-.44q-.3-.02.15.21c.44.23,1.33.69,1.99,1.27.27.24.49.5.68.76-.23.05-.41.12-.54.17q-.29.11.16.14c.16.01.38.03.62.06.15.24.26.47.34.67.2.5.2.78.28.99.08.21.25.36.49.51.03.02.07.04.1.06h-3.14c-.09-.46-.48-1.37-1.04-2.16-.15-.22-.32-.43-.49-.62.33.06.67.14.96.27.69.3,1.17.82,1.41,1.22.25.4.27.67.37.85.1.17.28.24.53.29.26.05.6.07.52-.32-.08-.39-.57-1.19-1.24-1.77-.67-.59-1.52-.96-2.24-1.04-.29-.03-.56-.02-.79.02-.38-.36-.77-.66-1.14-.86-.69-.38-1.28-.42-1.58-.44q-.3-.02.15.21c.44.22,1.31.67,1.96,1.25-.07.02-.14.05-.19.07q-.29.11.17.14c.08,0,.17.01.27.02.53.54.88,1.15,1.06,1.59.21.5.2.77.28.99.05.12.12.23.23.32h-.51c.03-.05.03-.12.01-.22-.08-.39-.57-1.19-1.24-1.77-.67-.59-1.52-.96-2.24-1.04-.71-.08-1.3.13-1.59.23q-.29.11.17.14c.46.04,1.37.11,2.06.4.69.3,1.17.82,1.42,1.22.25.4.27.67.37.85.05.09.12.15.21.19h-3.35ZM252.83,65.76h0c.04-.19.07-.44.22-.82.11-.3.3-.67.55-1.05.2.16.38.33.52.5-.23.55-.39,1.07-.43,1.38h-.85ZM251.59,65.76h-.35s.05-.04.08-.06c.19-.16.32-.3.39-.51.06-.21.06-.49.22-.99.06-.2.15-.43.27-.67.19-.03.36-.05.48-.06.06,0,.11-.01.16-.02.03,0,.05.02.07.03l-.03.03c-.52.59-.91,1.38-.97,1.77-.03.17.01.26.08.31-.02.06-.04.11-.06.17h-.34ZM285.44,64.03h0c.03.08.05.16.07.23-.11.21-.18.4-.21.54-.03.13-.02.23.02.3h-.58s.07-.06.11-.08c.26-.21.44-.41.52-.7.03-.09.04-.18.06-.29h0ZM286.99,62.02h0l-.02-.04.04.02-.02.02h0ZM286.13,63.26h0c-.11-.18-.24-.36-.37-.54.07-.21.17-.43.28-.66.07,0,.13-.02.19-.03.11.2.21.4.29.59-.15.21-.28.43-.39.64h0ZM289.24,62.02h0l-.02-.02.04-.02-.02.04h0ZM290.1,63.26h0c-.11-.21-.25-.43-.39-.64.08-.19.18-.39.29-.59.06,0,.13.02.19.03.11.23.2.46.28.66-.13.17-.26.36-.37.54h0ZM291.02,65.1h-.11c.04-.07.04-.17.02-.3-.03-.14-.1-.33-.21-.54.02-.07.05-.15.07-.23.02.11.04.2.06.29.09.29.26.48.52.7.04.03.07.06.11.08h-.47Z"/>
      </g>
    </g>
  </g>
</svg>