<?xml version="1.0" encoding="UTF-8"?>
<svg id="Layer_3" data-name="Layer 3" xmlns="http://www.w3.org/2000/svg" viewBox="0 0 252.28 236.75">
  <defs>
    <style>
      .cls-1 {
        fill: #fcfaf7;
      }

      .cls-2 {
        stroke: #fcfcfb;
        stroke-miterlimit: 10;
        stroke-width: .22px;
      }

      .cls-2, .cls-3, .cls-4 {
        fill: #fcfcfb;
      }

      .cls-4 {
        fill-rule: evenodd;
      }

      .cls-5 {
        fill: #fff;
      }

      .cls-6 {
        fill: #f2f0ec;
      }
    </style>
  </defs>
  <g id="Layer_1" data-name="Layer 1">
    <g>
      <g>
        <path class="cls-5" d="M0,165.38v-2.88l2.19-.37c.61-.09.99-.3,1.14-.64.15-.33.24-.84.27-1.51l1.28-21.31c.06-.73,0-1.23-.21-1.51s-.6-.46-1.21-.55l-2.19-.32v-2.88h11.64l7.3,20.35.18-.32,7.8-20.03h11.18v2.88l-2.46.32c-.49.06-.83.22-1.03.48-.2.26-.28.81-.25,1.67l1.32,21.22c.06.73.18,1.25.36,1.55.18.3.56.5,1.14.59l2.33.37v2.88h-13.92v-2.88l2.6-.37c.52-.09.87-.27,1.07-.55.2-.27.27-.79.21-1.55l-1.28-20.08-.05-.23-7.99,20.49h-4.61l-7.85-20.54-.05.27-1.19,20.04c-.03.61,0,1.09.11,1.44.11.35.54.59,1.3.71l2.37.37v2.88H0Z"/>
        <path class="cls-5" d="M46.09,165.38v-2.88l2.37-.37c.61-.12,1-.33,1.16-.64.17-.3.25-.87.25-1.69v-20.99c0-.79-.1-1.32-.3-1.6-.2-.27-.6-.47-1.21-.59l-2.28-.32v-2.88h13.97v2.88l-2.42.37c-.55.09-.91.29-1.1.59-.18.3-.27.88-.27,1.73v20.99c0,.76.09,1.28.27,1.55s.58.47,1.19.59l2.33.37v2.88h-13.97Z"/>
        <path class="cls-5" d="M72.11,165.38v-2.88l3.38-.46c.61-.09,1.01-.33,1.21-.71.2-.38.3-.92.3-1.62v-22.96h-1.96c-.97,0-1.8.09-2.49.27-.68.18-1.28.52-1.78,1.03-.5.5-.94,1.2-1.32,2.1-.38.9-.78,2.06-1.21,3.49l-3.61-.73,1.64-9.49h27.88l1.55,9.49-3.61.73c-.4-1.43-.79-2.6-1.19-3.51-.4-.91-.84-1.61-1.32-2.1-.49-.49-1.06-.82-1.73-1-.67-.18-1.48-.27-2.42-.27h-2.05v23.09c0,.67.09,1.18.27,1.53.18.35.61.57,1.28.66l3.33.46v2.88h-16.16Z"/>
        <path class="cls-5" d="M111.86,166.02c-1.61,0-3.16-.27-4.63-.8-1.48-.53-2.7-1.24-3.67-2.12l-.68,2.56h-2.69l-.82-9.95,3.19-.41c.43,1.13.92,2.12,1.48,2.97.56.85,1.22,1.57,1.96,2.17.75.59,1.55,1.04,2.42,1.35.87.3,1.8.46,2.81.46,1.16,0,2.12-.17,2.9-.5.78-.33,1.36-.83,1.76-1.48.4-.65.59-1.44.59-2.35,0-.97-.22-1.81-.66-2.51-.44-.7-1.16-1.32-2.17-1.85s-2.34-1.06-4.02-1.57c-1.49-.46-2.82-.97-3.99-1.53-1.17-.56-2.15-1.22-2.94-1.96-.79-.75-1.39-1.64-1.8-2.67-.41-1.03-.62-2.24-.62-3.61,0-.94.13-1.86.39-2.76.26-.9.66-1.74,1.21-2.53.55-.79,1.24-1.5,2.08-2.12.84-.62,1.82-1.11,2.94-1.46,1.13-.35,2.4-.52,3.83-.52s2.68.21,3.83.62c1.16.41,2.19.98,3.1,1.71l.59-2.33h2.6l1,9.58-3.19.55c-.49-1.61-1.12-2.91-1.89-3.88-.78-.97-1.64-1.67-2.6-2.1-.96-.43-2-.64-3.13-.64-1.4,0-2.55.37-3.45,1.12-.9.75-1.35,1.77-1.35,3.08,0,.91.23,1.7.68,2.35.46.65,1.18,1.23,2.17,1.73.99.5,2.24,1.01,3.77,1.53,1.61.49,3.04,1.03,4.27,1.62,1.23.59,2.26,1.27,3.08,2.03.82.76,1.44,1.64,1.85,2.65.41,1,.62,2.19.62,3.56,0,1.55-.29,2.94-.87,4.18-.58,1.23-1.36,2.29-2.35,3.17-.99.88-2.14,1.55-3.45,2.01-1.31.46-2.69.68-4.15.68Z"/>
        <path class="cls-5" d="M143.8,166.02c-2.31,0-4.27-.29-5.89-.87-1.61-.58-2.91-1.41-3.9-2.49-.99-1.08-1.72-2.4-2.19-3.95-.47-1.55-.71-3.3-.71-5.25v-14.6c0-.79-.1-1.33-.3-1.62-.2-.29-.6-.49-1.21-.62l-2.14-.32v-2.88h13.65v2.88l-2.24.37c-.55.09-.91.3-1.1.62-.18.32-.27.88-.27,1.67v14.38c0,1.92.24,3.51.73,4.77.49,1.26,1.26,2.19,2.33,2.78,1.06.59,2.46.89,4.2.89,1.83,0,3.29-.33,4.38-.98s1.91-1.62,2.44-2.9c.53-1.28.8-2.86.8-4.75v-14.28c0-.79-.1-1.33-.3-1.62-.2-.29-.62-.49-1.25-.62l-2.1-.32v-2.88h11.36v2.88l-2.24.37c-.58.09-.96.3-1.14.62-.18.32-.27.91-.27,1.76v13.6c0,2.95-.47,5.42-1.41,7.42-.94,1.99-2.35,3.48-4.22,4.47-1.87.99-4.21,1.48-7.01,1.48Z"/>
        <path class="cls-5" d="M189.9,166.02c-1.28,0-2.35-.21-3.22-.62s-1.61-1.06-2.24-1.94c-.62-.88-1.19-1.99-1.71-3.33l-1.87-5.34c-.34-.82-.65-1.51-.96-2.08-.3-.56-.69-.99-1.16-1.28-.47-.29-1.12-.43-1.94-.43h-.91c-.27,0-.55.03-.82.09v8.76c0,.73.1,1.27.3,1.62.2.35.66.59,1.39.71l2.56.32v2.88h-14.28v-2.88l2.24-.37c.58-.09.96-.29,1.14-.59.18-.3.27-.88.27-1.73v-20.99c0-.76-.09-1.29-.27-1.57-.18-.29-.59-.49-1.23-.62l-2.15-.32v-2.88h12.92c1.92,0,3.65.16,5.2.48s2.88.81,3.97,1.46c1.1.65,1.94,1.49,2.53,2.51.59,1.02.89,2.24.89,3.67,0,.94-.18,1.82-.55,2.62-.37.81-.85,1.53-1.46,2.17-.61.64-1.29,1.19-2.05,1.67-.76.47-1.53.86-2.3,1.16s-1.53.52-2.26.64v.18c1.49.27,2.66.73,3.51,1.37.85.64,1.54,1.61,2.05,2.92l1.32,3.29c.4,1,.76,1.84,1.1,2.51.33.67.71,1.17,1.14,1.51.43.34,1,.5,1.73.5.27,0,.56-.02.87-.07.3-.05.67-.13,1.1-.25l.59,2.33c-.67.58-1.45,1.04-2.35,1.39-.9.35-1.92.52-3.08.52ZM177.21,148.13c1.4,0,2.58-.24,3.54-.71.96-.47,1.69-1.16,2.19-2.08.5-.91.75-2.01.75-3.29s-.25-2.3-.75-3.08c-.5-.78-1.23-1.35-2.17-1.71-.94-.37-2.12-.55-3.51-.55h-2.15v11.32c.46.03.85.05,1.19.07.33.02.64.02.91.02Z"/>
        <path class="cls-5" d="M199.34,165.38v-2.88l2.37-.37c.61-.12,1-.33,1.16-.64.17-.3.25-.87.25-1.69v-20.99c0-.79-.1-1.32-.3-1.6-.2-.27-.6-.47-1.21-.59l-2.28-.32v-2.88h13.97v2.88l-2.42.37c-.55.09-.91.29-1.1.59-.18.3-.27.88-.27,1.73v20.99c0,.76.09,1.28.27,1.55s.58.47,1.19.59l2.33.37v2.88h-13.97Z"/>
        <path class="cls-5" d="M218.92,165.38v-2.88l2.24-.37c.55-.09.92-.29,1.12-.59.2-.3.3-.88.3-1.73v-20.99c0-.79-.1-1.33-.3-1.62-.2-.29-.6-.48-1.21-.57l-2.15-.32v-2.88h11.09l14.19,23.91.05-.23v-18.3c0-.76-.1-1.29-.3-1.57-.2-.29-.6-.48-1.21-.57l-2.1-.37v-2.88h11.64v2.88l-2.19.32c-.58.09-.96.29-1.14.59-.18.3-.27.88-.27,1.73v26.42h-6.66l-14.97-24.64-.05.27v18.99c0,.79.1,1.32.3,1.57.2.26.59.45,1.16.57l2.14.37v2.88h-11.68Z"/>
      </g>
      <g>
        <path class="cls-5" d="M60.27,206.68l-5.45-22.19c-.15-.64-.33-1.09-.54-1.34-.21-.26-.6-.43-1.19-.54l-1.57-.31v-2.5h11.67v2.46l-1.88.27c-.51.08-.83.25-.94.52-.12.27-.11.74.02,1.4l3.88,17.35h.19l5.6-22h5.45l6.22,22h.15l3.84-17.27c.13-.67.14-1.13.04-1.4-.1-.27-.41-.45-.92-.56l-1.88-.38v-2.38h9.75v2.46l-1.88.27c-.31.05-.58.13-.81.25-.23.11-.42.3-.58.56-.15.26-.29.65-.42,1.19l-5.34,22.15h-5.99l-5.83-20.84h-.12l-5.3,20.84h-6.18Z"/>
        <path class="cls-5" d="M90.06,206.68v-2.46l1.65-.31c.49-.1.84-.29,1.08-.56.23-.27.49-.77.77-1.52l7.91-22.03h5.37l7.91,22.15c.26.67.48,1.13.67,1.38.19.26.54.45,1.06.58l1.46.31v2.46h-11.55v-2.46l1.96-.27c.49-.08.79-.26.9-.56.12-.29.07-.75-.13-1.36l-1.27-3.76h-9.6l-1.23,3.61c-.18.51-.25.96-.21,1.34.04.38.42.64,1.13.77l1.88.27v2.42h-9.75ZM99.19,195.51h7.75l-3.72-11.44h-.12l-3.92,11.44Z"/>
        <path class="cls-5" d="M132.13,207.22c-2.56,0-4.75-.58-6.58-1.73-1.83-1.15-3.24-2.76-4.22-4.82-.99-2.06-1.48-4.42-1.48-7.08,0-2.17.3-4.14.9-5.89.6-1.75,1.46-3.26,2.59-4.51,1.13-1.25,2.47-2.22,4.03-2.9,1.56-.68,3.3-1.02,5.22-1.02,1.38,0,2.61.19,3.69.58,1.07.38,2,.92,2.76,1.61l.42-2.23h2.26l1.69,9.17-2.76.58c-.51-1.54-1.12-2.78-1.82-3.72-.7-.95-1.53-1.64-2.48-2.09-.95-.45-2.06-.67-3.34-.67s-2.31.23-3.24.69c-.93.46-1.72,1.13-2.36,2.02-.64.88-1.12,1.97-1.44,3.26-.32,1.29-.48,2.78-.48,4.47s.19,3.23.56,4.55c.37,1.32.9,2.43,1.57,3.34.68.91,1.48,1.6,2.42,2.07.93.47,1.95.71,3.05.71.77,0,1.48-.08,2.15-.25.67-.17,1.26-.4,1.79-.69.52-.29.98-.65,1.36-1.06v-3.49c0-.64-.08-1.1-.23-1.38-.15-.28-.5-.46-1.04-.54l-2.03-.27v-2.46h11.17v2.46l-1.73.27c-.51.1-.84.29-.98.58-.14.28-.21.75-.21,1.42v8.56h-2.69l-.88-2.07c-.54.41-1.18.81-1.92,1.19-.74.38-1.59.7-2.55.96-.96.26-2.02.38-3.17.38Z"/>
        <path class="cls-5" d="M154.17,206.68v-2.42l2.34-.31c.49-.08.81-.24.96-.48.15-.24.23-.74.23-1.48v-5.95l-7.02-11.52c-.33-.54-.65-.97-.94-1.31-.29-.33-.75-.55-1.36-.65l-1.5-.27v-2.5h11.98v2.42l-2,.27c-.51.08-.83.28-.94.59-.12.32,0,.76.33,1.32l5.07,8.21h.19l4.76-7.98c.36-.59.49-1.05.38-1.38-.1-.33-.46-.56-1.07-.69l-1.77-.35v-2.42h10.1v2.42l-1.92.35c-.44.08-.79.26-1.07.54s-.65.81-1.11,1.57l-6.83,11.36v6.1c0,.64.08,1.08.25,1.32.17.24.49.4.98.48l2.34.31v2.42h-12.36Z"/>
        <path class="cls-5" d="M190.4,207.22c-1.95,0-3.6-.24-4.95-.73s-2.45-1.18-3.28-2.09c-.83-.91-1.45-2.02-1.84-3.32-.4-1.31-.6-2.78-.6-4.41v-12.28c0-.67-.08-1.12-.25-1.36-.17-.24-.51-.42-1.02-.52l-1.8-.27v-2.42h11.48v2.42l-1.88.31c-.46.08-.77.25-.92.52-.15.27-.23.74-.23,1.4v12.09c0,1.61.2,2.95.61,4.01.41,1.06,1.06,1.84,1.96,2.34.9.5,2.07.75,3.53.75,1.54,0,2.76-.27,3.69-.83.92-.55,1.61-1.36,2.05-2.44.45-1.08.67-2.41.67-3.99v-12.02c0-.67-.08-1.12-.25-1.36-.17-.24-.52-.42-1.06-.52l-1.77-.27v-2.42h9.56v2.42l-1.88.31c-.49.08-.81.25-.96.52-.15.27-.23.76-.23,1.48v11.44c0,2.48-.4,4.56-1.19,6.24-.79,1.68-1.98,2.93-3.55,3.76-1.57.83-3.54,1.25-5.89,1.25Z"/>
      </g>
      <g>
        <g>
          <path class="cls-6" d="M168.18,102.31c.16-.23.29-.51.39-.76-.13.25-.27.51-.39.76Z"/>
          <path class="cls-3" d="M48.99,84.02c1.92-6.53,1.63-13.52.84-20.29-.82-6.92-2.15-13.82-2.13-20.79.02-6.97,1.53-14.19,5.8-19.7s12.03-9,18.82-6.79c-1.43.64-2.86,1.27-4.28,1.91-5.76,2.57-11.89,5.45-15.07,10.89-2.87,4.89-2.79,10.92-2.43,16.58.55,8.54,1.54,17.06,2.99,25.49.4,2.35.84,4.72.79,7.11s-.65,4.83-2.11,6.72l-3.35-.68c.05-.15.09-.3.14-.45Z"/>
          <path class="cls-3" d="M47.09,105.83c-.53-4.96-1.06-9.92-1.59-14.89-.17-1.59-.33-3.27.31-4.73.87-1.99,3.28-3.12,5.37-2.65.31,0,.61-.01.92-.02,1.47,3.83.37,8.15-1.14,11.96-1.51,3.81-3.46,7.57-3.73,11.66-.05-.44-.09-.89-.14-1.33Z"/>
          <path class="cls-3" d="M58.36,52.01c-1.6,2.34-.8,5.51.21,8.16s2.2,5.57,1.19,8.22c-.94,2.49-3.55,3.94-4.93,6.21-1.08,1.78-1.33,3.92-1.56,5.99-1.01,9.17-2.01,18.33-3.02,27.5-.07.61-.13,1.24.06,1.83s.71,1.11,1.32,1.1,1.15-.75.83-1.27c-.93,1.6-1.1,3.62-.44,5.35,3.04-.01,6.08-.02,9.12-.04-4.4-5.94-5.75-14.03-3.5-21.07,1.68-5.28,5.2-9.84,6.72-15.17,2.21-7.76-.07-16-2.34-23.74-.3-1.03-.65-2.13-1.49-2.81s-2.33-.64-2.79.34"/>
          <path class="cls-1" d="M208.89,12.43c-3.8-.02-4.63.34-8.43.32-2.02,0-4.12,0-5.95.86-2.66,1.26-4.21,4.1-5.03,6.93-.68,2.37-.97,4.83-1.25,7.28-.31,2.66-.61,5.42.24,7.95,1.03,3.07,3.62,5.43,4.64,8.51.92,2.79.45,5.82.62,8.75.06,1.11.29,2.34,1.16,3.03.68.54,1.6.62,2.47.69,2.16.16,4.33.32,6.49.49,1.31.1,2.7.18,3.86-.43,2.37-1.25,2.51-4.5,2.78-7.16.53-5.26,2.73-10.19,4.29-15.25s2.24-10.56.45-15.55c-1.19-3.31-3.56-6.55-8.08-6.38"/>
          <path class="cls-3" d="M217.41,24.25c1.02.17,2.03-.23,3.03-.46,2.67-.61,5.63,0,7.79,1.59.4.3.79.66.9,1.12.14.65-.32,1.26-.8,1.75-1.34,1.36-3,2.44-4.83,3.16-.92.36-1.93.62-2.91.42-.67-.14-1.27-.5-1.93-.67-.98-.26-2.37-.08-3.39.44-.36.18-.8-.08-.77-.46.08-.95-.02-1.92-.04-2.89-.03-1.13.41-2.24,1.25-3.06s1.46-.89,2.64-.94"/>
          <path class="cls-3" d="M187.92,21.32c-1.14.09-2.23-.39-3.33-.69-2.92-.82-6.26-.45-8.78.97-.47.26-.93.59-1.08,1.05-.21.64.26,1.29.75,1.81,1.38,1.46,3.14,2.67,5.11,3.53.99.43,2.1.77,3.2.65.76-.09,1.45-.4,2.2-.52,1.11-.19,2.64.11,3.73.71.39.21.9-.02.89-.4-.01-.96.17-1.92.27-2.88.12-1.13-.28-2.26-1.14-3.15s-1.55-1-2.86-1.15"/>
          <path class="cls-2" d="M228.62,9.78c.01-.92-.03-1.84-.08-2.75-.04-.82-.12-1.72-.71-2.28-.58,3.15-1.79,6.22-3.81,8.71s-6.78,3.8-9.89,4.33c-.23,1.68.97,3.61,1.6,5.18,2.81-.03,5.35-1.62,7.56-3.36,1.84-1.45,3.61-3.11,4.52-5.26.61-1.44.79-2.99.81-4.57Z"/>
          <path class="cls-2" d="M176.4,5.66c.06-1,.19-2.01.31-3,.11-.89.27-1.87.96-2.44.37,3.5,1.45,6.96,3.46,9.85s7.31,4.89,10.68,5.73c.12,1.85-1.56,3.7-2.38,5.36-3.07-.26-5.73-2.21-8.01-4.29-1.89-1.74-3.7-3.7-4.52-6.14-.55-1.63-.62-3.34-.51-5.07Z"/>
          <path class="cls-3" d="M194.3,56.64c-1.23-.97-1.46-2.59-1.53-3.73-.06-.96-.04-1.92-.03-2.85.02-2,.04-3.89-.54-5.65-.47-1.42-1.32-2.69-2.21-4.04-.92-1.39-1.88-2.82-2.43-4.47-.75-2.23-.68-4.58-.46-6.77-.7-.28-1.5-.4-2.1-.29-.25.05-.51.13-.78.22-.37.12-.79.26-1.25.32-1.33.18-2.59-.32-3.41-.72-1.89-.9-3.58-2.2-4.9-3.75-.3-.36-1.23-1.45-.86-2.7.23-.79.86-1.27,1.39-1.6,2.25-1.42,5.18-1.91,7.83-1.33-.82-.61-1.57-1.26-2.24-1.87-1.32-1.21-2.72-2.63-3.75-4.34-2.39-.25-4.82-.28-7.34-.2-9.26.28-18.32,2.51-27.44,4.09-16.87,2.92-34.21,3.07-51.13.44-8.08-2.02-16.83-1.31-24.48,2.02-3.37,1.47-6.59,3.49-8.81,6.41-3.54,4.66-4.06,11.06-2.76,16.76,1.3,5.7,4.23,10.88,7.11,15.97l-1.31-2.3c3.64,6.61,4.34,9.9,1.81,16.85-.58,1.36-1.2,2.71-1.66,4.08-1.46,4.41-1.15,9.23-.23,13.79s1.25,8.38,2.15,12.94c.56,2.84,2.02,6.44,1.11,9.19-.4,1.19-.99,2.59-.26,3.61.6.83,1.76.93,2.78.96l6.55.19c.9.03,1.4-1.02.83-1.71-3.26-3.89-4.33-9.44-5.04-14.46-.83-5.82-.79-11.15,2.06-16.29.93-1.68,2.04-3.26,3.06-4.89.65-1.04.94-1.58,1.07-1.81,2.09-4.02.98-5.95,2.78-7.75,1.31-1.3,3.66,0,5.68-5.98.29-.85,1.48-1.78,2.77-2.07.25-.05.49-.08.74-.07,1.95-1.63,3.61-3.53,4.87-5.58,1.61-2.64,2.56-5.55,2.73-8.41.18-2.85-.41-5.82-1.69-8.57-1.28-2.77-3.27-5.33-5.75-7.41-.31-.26-.35-.71-.09-1.02.26-.31.71-.35,1.02-.09,2.64,2.22,4.76,4.95,6.14,7.91,1.38,2.97,2.01,6.18,1.82,9.27-.19,3.09-1.21,6.23-2.94,9.07-1.17,1.92-2.67,3.71-4.42,5.29.72.35,1.41.84,2.06,1.3,4.36,3.14,19.61,9.3,30.91,9.65,9.86.31,16.76-3.56,24-2.76l-.53-.54c-3.49-3.56-5.71-8.93-5.93-14.37-.23-5.44,1.53-11.04,4.71-14.99.18-.23.51-.26.74-.08.23.18.26.51.08.74-3.02,3.75-4.69,9.09-4.48,14.28.2,4.74,1.97,9.42,4.8,12.76.07-.06,1.14,2.26,1.14,2.26,1.57.22,3.15.67,4.79,1.44.54.25,1.01.5,2.72,1.31,8.89,4.22,13.39,6.32,16.41,6.05,3.46-.31,5.95-2.05,9.52-4.54,3.03-2.12,4.15-3.71,4.8-5.04.75-1.55.99-2.99,1.07-3.96,1.99-1.12,4.87-3.12,7.22-6.45.43-.61,1.14-1.69,1.85-3.46-.11-.07-.21-.14-.32-.22Z"/>
          <path class="cls-1" d="M141.66,57.33c2.86,7.58,8.66,21.6,11.53,29.18,3.27,8.66,6.57,18.19,3.55,26.94l2.72-.47-.49,2.83c3.93.85,7.95,1.26,11.97,1.23.73,0,1.1-.9.57-1.41-3.28-3.19-6.39-6.67-7.9-10.96-2.38-6.77-.36-14.19,1.49-21.12,1.85-6.93,3.48-14.56.43-21.06-1.61-3.42-4.38-6.17-7.39-8.46-3.12-2.38-6.82-4.41-10.74-4.15s-6.23,3.56-5.76,7.45"/>
          <path class="cls-3" d="M177.01,113.51c-3.28-3.19-6.39-6.67-7.9-10.96-2.38-6.77-.36-14.19,1.49-21.12,1.85-6.93,3.48-14.56.43-21.06-1.61-3.42-4.38-6.17-7.39-8.46-3.12-2.38-6.82-4.41-10.74-4.15-1.3.09-2.59.51-3.72,1.19,2.97.28,6.12,1.7,9.55,4.32,3.7,2.82,6.22,5.7,7.68,8.82,3.19,6.81,1.48,14.78-.37,21.71l-.04.17c-1.83,6.86-3.73,13.96-1.47,20.39,1.45,4.11,4.44,7.44,7.49,10.42,1.47.11,2.95.16,4.42.15.73,0,1.1-.9.57-1.41Z"/>
        </g>
        <path class="cls-4" d="M74.39,110.01c.58.37,1.25.81,1.9,1.31-.22.01-.43.04-.62.08-.42-.52-.86-.99-1.28-1.39h0ZM172.41,119.59h-.88,0c.32-.53.86-1.17,1.6-1.69-.28.56-.52,1.14-.72,1.69h0ZM181.68,116.06h0c.46-.16.95-.28,1.43-.37-.26.29-.5.6-.73.91-.23-.2-.46-.39-.69-.55h0ZM182.53,114.76h-.02c-.67.08-1.4.3-2.12.63-.23-.08-.45-.13-.66-.16-.94-.14-1.73.18-2.17.38.27-.33.58-.66.92-.97.64-.57,1.4-1.08,2.1-1.49.57.39,1.31.95,1.95,1.6h0ZM182.96,119.67h0c-.15.29-.24.54-.28.73-.04.18-.02.31.02.41h-.94c.2-.17.34-.36.42-.59.13-.34.14-.78.39-1.49.03.06.06.11.08.16.14.29.23.55.3.78h0ZM184.4,117.68h0c-.21.22-.41.45-.59.68-.19-.31-.4-.62-.64-.91.18-.32.39-.65.64-.98.24.42.44.83.59,1.21h0ZM185.4,120.81h-.73c.04-.1.05-.23.02-.41,0-.03,0-.05-.01-.08.08-.19.15-.45.27-.76.04.26.07.47.13.65.07.23.18.42.33.59h0ZM203.15,120.81h0c.1-.31.22-.71.54-1.23.32-.52.86-1.16,1.6-1.68-.49,1-.88,2.06-1.12,2.91h-1.02ZM207.41,116.98h0c-.88,1.42-1.47,2.89-1.53,3.55-.01.12,0,.21.01.28h-.44c.06-.36.1-.82.31-1.51.17-.58.46-1.33.87-2.09.25-.09.52-.17.78-.23h0ZM185.82,116.24h0s-.06-.04-.09-.05c-.4-.22-.85-.37-1.29-.48l-.04.04c.23.34.45.71.66,1.08.03.05.06.11.09.16.26-.22.54-.42.82-.6-.05-.05-.09-.11-.14-.16h0ZM182.74,113.78h0c.41.26.87.57,1.34.91l-.06.06c-.07,0-.14.02-.21.03-.05,0-.1-.01-.16-.02-.3-.37-.61-.7-.91-.98h0ZM186.5,114.02h0c.58.4,1.2.86,1.75,1.37-.39.1-.79.24-1.18.42-.31-.24-.64-.45-.96-.61-.18-.18-.37-.35-.55-.51.31-.24.63-.46.95-.67h0ZM193.27,119.43h0c-.16.42-.3.84-.43,1.23-.32-.89-.86-2.04-1.55-3.1-.08-.12-.16-.24-.24-.35.09.04.19.09.28.14.92.51,1.57,1.37,1.94,2.08h0ZM195.38,119.15h0c-.14.29-.27.57-.37.84-.14-.3-.31-.62-.5-.94.11-.34.24-.72.4-1.12.2.42.35.82.46,1.16l.02.06h0ZM197.32,116.09h0c-.14-.21-.29-.43-.45-.63-.13-.16-.26-.32-.39-.47-.09.13-.18.26-.26.4-.32.5-.6,1.01-.84,1.5.13.21.25.42.37.64.09.16.17.32.25.48.12-.2.24-.4.37-.6.3-.46.62-.9.96-1.31h0ZM198.73,114.59h0c-.29.27-.58.56-.86.87-.3-.42-.61-.81-.91-1.14.3-.4.61-.79.91-1.16.29.45.59.93.86,1.43h0ZM198.97,120.59h0c-.03.08-.05.15-.08.22h-1.82c-.1-.37-.23-.79-.4-1.24.05-.19.12-.39.21-.63.21-.53.53-1.2.99-1.9.36.69.61,1.36.77,1.9.24.79.26,1.28.33,1.65h0ZM200.22,118.11h0c-.25-.82-.59-1.74-1.04-2.67l-.02.02c-.27.27-.52.54-.74.82.22.36.43.73.62,1.12.26.51.49,1.04.69,1.55.15-.28.32-.57.5-.85h0ZM200.61,120.81h0c.04-.14.07-.31.12-.5.03.19.04.35.06.5h-.17ZM202.41,118.79h0c.17-.41.36-.83.56-1.24.53-1.05,1.17-2.02,1.82-2.79-.47.31-.94.65-1.36,1.03-1.06.95-1.79,2.09-2.2,2.98.13.39.24.78.35,1.17.22-.36.5-.76.83-1.15h0ZM148.9,115.68h-.03s.05-.05.05-.05l-.02.05h0ZM188.1,120.81h-1.57c-.08-.57-.37-1.52-.79-2.53.26-.31.57-.62.95-.91.47.71.81,1.39,1.01,1.93.27.69.33,1.16.4,1.51h0ZM190.38,120.81h.64s-.1-.08-.15-.11c-.36-.29-.59-.55-.71-.94-.12-.39-.11-.9-.4-1.81-.12-.36-.28-.78-.49-1.23-.35-.05-.66-.09-.89-.11-.12-.01-.21-.02-.29-.03-.05.02-.09.04-.14.05l.05.05c.96,1.08,1.66,2.54,1.78,3.25.05.32-.02.49-.15.57.04.1.08.21.12.31h.63ZM139.59,116.23h0c-.26-.52-.55-1.07-.89-1.62.03-.05.07-.11.1-.16.32.62.58,1.23.78,1.78h0ZM143.84,118.29h0s.03.06.05.1l-.02.03-.03-.12h0ZM141.77,116.31h0c-.1-.23-.21-.46-.32-.68.18.12.34.25.5.39-.06.1-.12.2-.18.3h0ZM168.08,116.15h0c-.18-.41-.37-.8-.56-1.17.35-.31.73-.59,1.09-.86.14-.07.28-.13.42-.2.05-.02.11-.04.16-.07-.06.1-.12.21-.17.31-.35.64-.67,1.32-.94,1.98h0ZM167.3,118.31h0c.11-.38.25-.8.41-1.24-.19-.53-.43-1.08-.7-1.63l-.02.02c-.27.27-.52.54-.74.82.22.36.43.73.62,1.12.15.3.29.6.42.91h0ZM165.42,117.5h0c.09-.15.19-.3.29-.46.36.69.61,1.36.77,1.9.07.24.13.46.17.65h-1.78c.1-.48.18-1.11.54-2.06v-.03h.01ZM172.16,110.01h0c-.43.4-.86.87-1.28,1.39-.2-.04-.4-.07-.62-.08.66-.49,1.32-.94,1.9-1.31h0ZM159.75,116.45h0c-.27-.15-.54-.27-.8-.36.42-.46.92-.89,1.5-1.21.05.05.11.1.16.14-.03.05-.06.09-.09.14-.28.43-.54.86-.78,1.3h0ZM159.16,117.61h0l-.03-.05c-.08-.12-.16-.24-.24-.35.09.04.19.09.28.14.03.02.06.04.09.05-.04.07-.07.14-.1.21h0ZM152.51,112.87h.01s-.02,0-.02,0h0ZM152.93,112.3h0l.03.02c.07.05.14.1.22.15-.06.07-.12.15-.18.22-.12-.02-.23-.04-.32-.06.08-.11.16-.22.25-.33h0ZM153.64,111.93h0s-.07.09-.11.13c-.12-.03-.24-.05-.34-.07.09-.11.18-.22.28-.32.06.09.12.18.17.26h0ZM153.47,114.74h0c.12-.24.26-.48.42-.73.13-.02.25-.03.37-.04.2.13.4.28.61.43-.14.24-.28.48-.41.72-.05.09-.1.19-.15.28-.12-.07-.24-.14-.36-.2-.15-.14-.3-.28-.44-.41l-.03-.04h0ZM150.38,111.11h0c.15-.26.3-.52.45-.77.36-.31.7-.6,1.01-.84.25.31.51.64.76.97-.45.42-.91.92-1.36,1.49-.28-.3-.57-.58-.86-.84h0ZM151.05,115.55h0l.05.06c-.11.21-.22.42-.32.62.08-.22.17-.45.27-.68h0ZM151.66,114.61h0c-.04.06-.07.12-.11.18h-.03s-.06-.07-.09-.1c.04-.08.08-.16.12-.24.04.05.07.11.11.16h0ZM152.64,119.59h-.36c-.1-.24-.23-.51-.38-.79.19-.19.32-.4.42-.65.02-.05.04-.1.05-.15.05.14.1.28.14.4.11.33.17.61.22.85-.03.11-.06.22-.09.33h0ZM149.14,113.68h0l.02.02-.04.02v-.03h.01ZM150.46,113h0v.02c-.39-.1-.71-.16-.95-.2.08-.18.17-.37.26-.55l.03.03c.23.23.45.46.65.7h0ZM144.25,113.02h0c-.18.19-.35.38-.52.58-.51-.83-1.06-1.58-1.6-2.24.64.42,1.28.89,1.85,1.4.09.08.19.17.28.26h0ZM145.88,114.94h0c-.04.07-.08.15-.11.22-.06.12-.12.25-.18.37-.11.05-.2.09-.28.13-.39.18-.41.19.11.25-.08.17-.15.34-.23.51-.18-.42-.38-.84-.59-1.26-.04-.07-.07-.15-.11-.22.21-.31.44-.61.7-.92.25.3.49.61.7.92h0ZM146.48,118.38h0s.03-.06.05-.1l-.03.12-.02-.03h0ZM129.79,113.11h0s-.07.05-.11.08c-.17-.06-.33-.11-.5-.16.09-.01.19-.02.28-.03.11.04.22.07.33.11h0ZM134.81,112.97h0c-.04.07-.08.14-.12.21-.04-.06-.09-.12-.13-.18.09-.01.17-.02.25-.03h0ZM136.89,114.74h0c-.05.07-.09.14-.14.21-.17.27-.34.54-.5.82-.11-.22-.22-.44-.34-.66-.16-.3-.33-.58-.5-.86.05-.11.11-.22.17-.33.28.02.58.05.9.09.15.25.29.5.42.73h0ZM129.94,114.89h0c1.23.69,2.1,1.86,2.6,2.81-.22.57-.41,1.14-.58,1.68-.44-1.21-1.18-2.78-2.12-4.23l-.06-.09c.05-.06.11-.11.17-.17h0ZM133.37,115.72h0c-.49-.63-1.17-1.31-2.03-1.86-.04.02-.08.04-.12.07l-.04.02c.64.42,1.26.95,1.82,1.58.1.12.2.23.3.35.02-.05.05-.11.08-.16h0ZM134.3,117.33h0s-.05-.09-.08-.14v-.04c.04.06.06.12.08.17h0ZM137.19,117.83h0c.07-.24.15-.5.27-.79.06-.15.12-.31.19-.47.21.72.25,1.2.39,1.59.2.53.62.89,1.24,1.28.08.05.17.11.26.16h-1.82c-.09-.33-.2-.7-.33-1.09,0-.03,0-.07-.02-.1-.03-.16-.09-.35-.18-.57h0ZM133.76,111.99h0c-.64-.75-1.3-1.37-1.92-1.81-.38-.27-.75-.48-1.09-.63.19-.14.37-.27.54-.39.95.56,1.99,1.25,2.86,2.03.39.35.75.72,1.07,1.1l-.07.11c-.36-.15-.84-.32-1.4-.41h0ZM128.64,111.35h.02c.91.11,1.91.4,2.89.86.22-.08.44-.14.66-.18-.77-.74-1.6-1.37-2.28-1.85-.43.35-.88.74-1.29,1.17h0ZM125.25,118.43h0c.13.48.18.85.25,1.16h-.78c.21-.23.36-.49.45-.8.03-.11.06-.23.08-.36h0ZM128.35,110.01h0c-.41.39-.83.83-1.24,1.33-.07,0-.14.01-.21.02h0c-.06-.08-.12-.17-.18-.25.57-.42,1.14-.79,1.64-1.11h0ZM123.28,112.21h0c-.16-.1-.33-.19-.5-.27-.25-.24-.5-.47-.75-.69.4-.32.83-.61,1.25-.89.42.27.84.57,1.25.89-.25.22-.5.45-.75.69-.16.08-.33.18-.49.27h0ZM114.01,117.7h0c.5-.95,1.37-2.12,2.6-2.81.06.06.11.11.17.17l-.06.09c-.94,1.45-1.68,3.01-2.12,4.23-.17-.54-.37-1.11-.59-1.68h0ZM112.25,117.33h0c.02-.06.05-.11.07-.17v.04s-.04.09-.07.14h0ZM109.82,111.93h0c-.27.31-.53.62-.78.95-.12,0-.23,0-.35,0,.13-.19.27-.38.42-.57.17-.22.35-.43.54-.64.06.09.12.18.17.26h0ZM109.66,114.74h0c.12-.24.26-.48.42-.73.32-.04.63-.07.9-.09.06.11.11.22.17.33-.17.28-.34.57-.5.86-.12.22-.23.44-.34.66-.16-.27-.33-.55-.5-.82-.05-.07-.09-.14-.14-.21h0ZM106.57,111.11h0c.29.26.57.54.85.84.45-.57.92-1.07,1.36-1.49-.25-.33-.51-.66-.76-.97-.31.24-.65.53-1.01.84-.15.25-.3.51-.45.77h0ZM107.85,114.61h0c-.33.55-.63,1.09-.88,1.62.2-.55.46-1.16.78-1.78.04.05.07.11.1.16h0ZM108.83,119.59h-1.82c.09-.05.18-.1.26-.16.62-.39,1.04-.75,1.24-1.28.15-.39.18-.87.39-1.59.07.16.14.32.2.47.11.29.2.56.27.79-.09.21-.15.4-.18.57,0,.04-.01.07-.02.1-.13.39-.25.75-.33,1.09h0ZM106.64,113h0c-.06.09-.12.18-.18.27-.38.12-.76.27-1.15.44.19-.48.41-.96.64-1.44l.03.03c.23.23.45.46.65.7h0ZM104.6,116.01h0c.16-.13.33-.26.5-.39-.11.23-.22.45-.32.68-.06-.1-.12-.2-.18-.3h0ZM121.3,118.43h0c.02.13.05.25.08.36.09.31.24.56.45.8h-.78c.06-.31.12-.68.25-1.16h0ZM123.28,119.11h0c-.17-.78-.52-1.85-.99-2.97.28-.33.61-.67.99-1,.38.32.71.66.99,1-.47,1.12-.82,2.19-.99,2.97h0ZM72.08,117.21h0c.41.76.7,1.5.87,2.09.03.1.06.2.08.29h-.45c-.26-.73-.71-1.68-1.29-2.61.27.07.53.14.79.23h0ZM74.14,119.59h0c-.2-.55-.45-1.13-.72-1.69.74.52,1.28,1.16,1.6,1.68h0s-.88,0-.88,0h0ZM94.89,114.61h0c.03-.05.07-.11.1-.16.04.08.08.16.12.24-.03.03-.06.07-.09.11h-.03c-.03-.07-.07-.12-.11-.18h0ZM87.39,117.61h0c-.03-.07-.07-.14-.1-.21.03-.02.06-.04.09-.05.09-.05.18-.1.28-.14-.08.12-.16.23-.24.35l-.03.05h0ZM85.44,119.43h0s.01,0,.01,0c.06.05.13.11.2.16h-.16c-.02-.05-.04-.11-.06-.16h0ZM81.17,113.55h0c-.12-.12-.24-.23-.36-.34l.04-.06c.11.13.22.26.33.4h0ZM81.13,117.5h0v.03c.38.95.46,1.57.56,2.06h-1.78c.04-.19.09-.41.17-.65.16-.53.41-1.2.77-1.9.1.15.2.31.29.46h0ZM79.25,118.31h0c.13-.3.27-.61.42-.91.19-.39.4-.76.62-1.12-.23-.28-.47-.56-.74-.82l-.02-.02c-.27.55-.5,1.1-.7,1.63.16.44.3.86.41,1.24h0ZM77.22,119.59h-.21c.05-.13.06-.31.03-.55-.09-.58-.47-1.52-1.03-2.49.67.76,1.15,1.57,1.46,2.23-.09.27-.17.54-.25.81h0ZM64.87,116.06h0c-.24.16-.47.35-.69.55-.23-.32-.48-.62-.73-.91.48.09.97.2,1.43.37h0ZM68.45,119.92h0c-.13.21-.23.52-.3.89h-1.9c-.13-.71-.67-2-1.44-3.26.31-.34.68-.65,1.11-.89.03-.02.06-.03.09-.05.85.54,1.45,1.25,1.81,1.82.43.69.49,1.18.64,1.5h0ZM67.43,116.12h0c.25.17.49.36.71.56,1.06.92,1.88,2.13,2.18,2.91h.55c-.1-.37-.14-.86-.47-1.65-.15-.36-.36-.78-.63-1.23-.45-.05-.85-.09-1.14-.11q-.84-.06-.3-.26c.24-.09.58-.21,1-.31-.04-.05-.08-.11-.12-.16-.08.01-.2.02-.35.04-.34.03-.86.09-1.42.21h0ZM64.02,114.76h0c.64-.66,1.38-1.21,1.95-1.6.7.41,1.46.92,2.1,1.49.34.31.65.63.92.97-.44-.2-1.22-.52-2.17-.38-.21.03-.43.09-.66.16-.72-.34-1.45-.55-2.12-.63h-.02ZM63.59,119.67h0c.07-.22.16-.48.3-.78.03-.05.05-.11.08-.16.25.71.26,1.15.39,1.49.09.23.23.42.42.59h-.94c.05-.1.06-.23.02-.41-.04-.2-.13-.45-.28-.73h0ZM62.15,117.68h0c.16-.38.36-.79.59-1.21.25.33.46.66.64.98-.23.29-.45.6-.64.91-.18-.23-.38-.46-.59-.68h0ZM61.15,120.81h0c.15-.17.26-.36.33-.59.05-.18.08-.39.13-.65.13.31.19.56.27.76,0,.03-.01.05-.01.08-.03.18-.02.31.02.41h-.73ZM43.4,120.81h-1.02c-.24-.84-.63-1.91-1.12-2.91.74.52,1.28,1.16,1.6,1.68.32.52.43.92.54,1.23h0ZM39.14,116.98h0c.27.07.53.14.79.23.41.76.7,1.5.87,2.09.21.69.26,1.16.31,1.51h-.44c.02-.07.02-.16.01-.28-.06-.66-.65-2.14-1.53-3.55h0ZM60.73,116.24h0c-.05.05-.09.1-.14.16.28.18.56.38.82.6.03-.05.06-.11.09-.16.21-.38.43-.74.66-1.08l-.04-.04c-.44.11-.89.26-1.29.48-.03.02-.06.03-.09.05h0ZM63.81,113.78h0c-.3.28-.61.61-.91.98-.05,0-.1.01-.16.02-.07-.01-.14-.02-.21-.03l-.06-.06c.46-.34.93-.65,1.34-.91h0ZM60.05,114.02h0c.32.21.64.43.95.67-.19.16-.37.33-.55.51-.32.16-.65.37-.96.61-.4-.18-.79-.32-1.18-.42.55-.51,1.17-.97,1.75-1.37h0ZM53.28,119.43h0c.37-.71,1.02-1.58,1.94-2.08.09-.05.18-.1.28-.14-.08.12-.16.23-.24.35-.69,1.06-1.23,2.21-1.55,3.1-.13-.4-.27-.81-.43-1.23h0ZM51.17,119.15h0l.02-.06c.11-.34.26-.74.46-1.16.16.4.3.77.4,1.12-.2.32-.37.64-.51.94-.11-.27-.23-.55-.37-.84h0ZM49.23,116.09h0c.34.42.66.86.96,1.31.13.2.25.4.37.6.08-.16.16-.32.25-.48.12-.22.24-.43.37-.64-.24-.49-.52-.99-.84-1.5-.08-.13-.17-.26-.26-.4-.14.15-.27.31-.4.47-.16.21-.31.42-.45.63h0ZM47.82,114.59h0c.28-.5.57-.98.86-1.43.3.37.61.76.91,1.16-.31.34-.61.72-.91,1.14-.28-.31-.57-.6-.86-.87h0ZM47.58,120.59h0c.07-.37.1-.86.33-1.65.16-.53.41-1.2.77-1.9.46.69.79,1.36.99,1.9.09.24.16.44.21.63-.17.45-.31.88-.4,1.24h-1.82c-.03-.07-.05-.14-.08-.22h0ZM46.33,118.11h0c.18.28.34.57.5.85.2-.51.43-1.04.69-1.55.2-.39.4-.76.62-1.12-.22-.28-.47-.56-.74-.82l-.02-.02c-.45.92-.79,1.84-1.04,2.67h0ZM45.94,120.81h-.17c.02-.15.03-.31.06-.5.04.19.07.35.12.5h0ZM44.14,118.79h0c.33.39.61.78.83,1.15.11-.38.22-.77.35-1.17-.41-.88-1.13-2.02-2.2-2.98-.42-.38-.89-.72-1.36-1.03.64.77,1.29,1.74,1.82,2.79.21.41.39.83.56,1.24h0ZM100.07,118.38h0l-.02.03-.03-.12s.03.06.05.1h0ZM97.65,115.68h0l-.02-.05.05.04h-.03ZM94.18,118h0c.01.05.03.1.05.15.09.25.23.46.42.65-.15.28-.28.54-.38.79h-.36c-.03-.11-.06-.21-.09-.33.05-.24.11-.52.22-.85.04-.13.09-.26.14-.4h0ZM95.5,115.55h0c.1.24.19.46.27.68-.1-.2-.2-.41-.32-.62l.05-.06h0ZM97.41,113.68h0v.03s-.02-.02-.02-.02l.02-.02h0ZM98.24,113.08h0c.34.49.63.99.89,1.48l-.06.07c-.12-.08-.25-.16-.37-.24-.17-.43-.35-.85-.54-1.26l.08-.05h0ZM102.66,118.38h0s.03-.06.05-.1l-.03.12-.02-.03h0ZM100.67,114.94h0c.21-.31.44-.61.7-.92.25.3.49.61.7.92-.04.07-.08.15-.11.22-.21.41-.4.84-.59,1.26-.07-.17-.15-.34-.23-.51.52-.05.49-.07.11-.25-.08-.04-.17-.08-.28-.13-.06-.13-.12-.25-.18-.37-.04-.07-.07-.15-.11-.22h0ZM99.1,112.38h0c.09,0,.12.01.05.07.26.36.51.75.76,1.14.17-.2.35-.39.52-.58-.09-.09-.18-.17-.28-.26-.57-.51-1.21-.98-1.85-1.4.27.32.53.66.79,1.02h0ZM92.29,113.96h0c.12.01.25.03.37.04.15.25.29.5.42.73l-.03.04c-.15.13-.3.27-.44.41-.12.06-.24.13-.36.2-.05-.09-.1-.19-.15-.28-.13-.24-.27-.48-.41-.72.21-.15.41-.29.61-.43h0ZM94.04,112.87h0s-.02,0-.02,0h.01ZM93.62,112.3h0c.08.11.17.22.25.33-.1.02-.21.03-.32.06-.06-.08-.12-.15-.18-.22.08-.05.16-.1.23-.15l.03-.02h0ZM86.1,114.88h0c.58.32,1.08.75,1.5,1.21-.26.09-.53.21-.8.36-.24-.43-.5-.87-.77-1.3-.03-.05-.06-.09-.09-.14.05-.05.11-.1.16-.14h0ZM87.46,113.83h0l-.14.1c.62.4,1.22.91,1.77,1.51.04-.04.07-.08.11-.12h0c-.46-.53-1.04-1.05-1.75-1.49h0ZM83.24,114h.04c.29.61.51,1.19.67,1.68.02.08.05.15.07.22-.05.07-.1.14-.15.21-.34-.6-.7-1.17-1.07-1.69.15-.14.3-.28.45-.42h0ZM84.75,112.76h0c.58.13,1.16.31,1.69.53.11.05.21.09.31.14-.05.02-.1.05-.16.07-.6-.31-1.21-.51-1.77-.59-.08-.01-.17-.02-.25-.03l.06-.04.11-.09h0ZM84.09,112.64h0l-.02-.02h.04s-.03.02-.03.02h0ZM81.41,112.3h0c.16.01.34.03.54.04.25.26.49.52.71.79-.24.08-.46.17-.64.25-.1-.12-.2-.24-.3-.35-.16-.18-.31-.35-.47-.5.05-.08.11-.16.16-.23h0ZM178.1,119.92h0c.16-.32.22-.81.64-1.5.35-.57.96-1.28,1.81-1.82.03.02.06.03.09.05.43.23.8.55,1.11.89-.78,1.26-1.31,2.56-1.44,3.26h-1.9c-.07-.37-.18-.67-.3-.89h0ZM175.68,119.59h.55c.3-.77,1.12-1.98,2.18-2.91.23-.2.47-.39.71-.56-.56-.12-1.08-.17-1.42-.21-.15-.01-.26-.03-.35-.04-.04.05-.08.11-.12.16.42.1.76.22,1,.31q.54.19-.3.26c-.3.02-.69.05-1.14.11-.27.45-.48.87-.63,1.23-.33.79-.37,1.28-.46,1.65h0ZM173.52,119.59h0c.02-.09.05-.19.08-.29.17-.58.46-1.33.87-2.09.25-.09.52-.17.79-.23-.58.93-1.03,1.88-1.29,2.61h-.45ZM177.14,113.2h0c-.31.15-.65.36-1.01.65-.65.53-1.36,1.35-2.01,2.32-.63.2-1.27.5-1.88.88l.04-.08c.48-1,1.4-2.31,2.75-3.05.65-.36,1.4-.59,2.11-.73h0ZM179.23,112.91h0l-.19.02c-.17.02-.37.04-.59.06-.08.06-.17.13-.29.22-.63.48-1.88,1.45-2.8,2.61-.02.03-.05.06-.07.09h0c.25-.03.49-.04.71-.03.97-1.26,2.14-2.32,3.21-2.98h0ZM169.54,119.59h-.21c-.08-.27-.16-.54-.25-.81.31-.66.79-1.47,1.46-2.23-.57.98-.94,1.92-1.03,2.49-.04.24-.02.42.03.55h0ZM170.9,113.36h0c-.59.96-1.01,1.93-1.28,2.72.87-.93,1.81-1.7,2.68-2.18.25-.14.49-.25.72-.35.27-.22.55-.42.83-.6-.77.06-1.86.17-2.95.41h0ZM165.38,113.55h0c.11-.14.22-.27.33-.4l.04.06c-.12.11-.24.22-.36.34h0ZM161.11,119.42h0c-.02.06-.04.11-.06.17h-.16c.07-.05.14-.1.2-.16h.01ZM163.32,114h0c.15.13.29.27.44.42-.37.52-.73,1.09-1.07,1.69-.05-.07-.1-.14-.15-.21.02-.07.04-.14.07-.22.16-.49.38-1.07.67-1.67h.04ZM163.89,113.13h0c.22-.27.46-.53.71-.79.2-.02.38-.03.54-.04.05.08.1.15.16.23-.15.16-.31.32-.47.5-.1.11-.2.23-.29.35-.18-.08-.4-.17-.64-.25h0ZM162.46,112.64h-.03s.04-.02.04-.02v.02h-.01ZM159.95,113.51h0c-.05-.03-.1-.05-.16-.07.1-.05.21-.1.31-.14.53-.23,1.11-.4,1.69-.53l.11.09.05.04c-.08,0-.17.02-.25.03-.56.08-1.16.28-1.77.59h0ZM157.46,115.44h0c.55-.6,1.15-1.11,1.77-1.51l-.14-.1c-.7.44-1.29.96-1.75,1.48h0s.08.09.11.13h0ZM147.42,114.55h0c.26-.49.56-.99.89-1.48l.08.05c-.18.41-.36.83-.54,1.26-.13.08-.25.16-.38.24l-.06-.07h0ZM146.12,113.02h0c.18.19.35.38.52.58.25-.4.5-.78.76-1.14-.06-.06-.04-.07.05-.07.26-.36.53-.71.79-1.02-.64.42-1.28.89-1.85,1.4-.09.08-.19.17-.28.26h0ZM142.92,110.37h0c.74.44,1.51,1.03,2.26,1.73.75-.69,1.52-1.28,2.26-1.73-.85-.6-1.66-1.1-2.26-1.46-.6.36-1.41.86-2.26,1.46h0ZM142.52,114.39h0c.13.08.25.16.37.24l.06-.07c-.33-.62-.71-1.26-1.17-1.86.25.54.5,1.11.73,1.69h0ZM139.91,113h0c.21-.24.42-.47.65-.7l.03-.03c.24.48.45.97.64,1.44-.38-.17-.77-.32-1.15-.44-.06-.09-.12-.18-.18-.27h0ZM137.77,110.47h0c.25-.33.51-.66.76-.97.31.24.65.53,1.01.84.15.25.3.51.45.77-.29.26-.57.54-.85.84-.45-.57-.91-1.07-1.36-1.49h0ZM136.73,111.93h0c.27.31.53.62.78.95.12,0,.23,0,.35,0-.13-.19-.27-.38-.42-.57-.17-.22-.35-.43-.54-.64-.06.09-.12.18-.18.26h0ZM119.66,111.36h0c-.07,0-.14-.02-.21-.02-.41-.5-.83-.95-1.24-1.33.51.32,1.07.7,1.64,1.11-.06.08-.12.16-.18.24h0ZM116.87,113.19h0s-.07-.05-.11-.08c.11-.04.22-.07.33-.11.09,0,.18.02.28.03-.16.04-.33.1-.5.16h0ZM113.18,115.72h0c.02.05.05.11.08.16.1-.12.2-.24.3-.35.56-.63,1.18-1.16,1.82-1.58l-.04-.02s-.08-.04-.12-.07c-.87.55-1.54,1.23-2.03,1.86h0ZM116.62,110.18h0c.43.35.88.74,1.29,1.17h-.02c-.91.11-1.91.4-2.89.86-.22-.08-.44-.14-.66-.18.77-.74,1.6-1.37,2.28-1.85h0ZM111.74,112.97h0c.08,0,.16.02.25.03-.04.06-.09.12-.13.18-.04-.07-.08-.14-.12-.21h0ZM111.33,112.29h0l.07.11c.36-.15.84-.32,1.4-.41.65-.75,1.3-1.37,1.92-1.81.38-.27.75-.48,1.09-.63-.19-.14-.37-.27-.54-.39-.95.56-1.99,1.25-2.86,2.03-.39.35-.75.72-1.07,1.1h0ZM103.6,114.55h0c.33-.62.71-1.26,1.17-1.86-.25.54-.5,1.11-.73,1.69-.13.08-.25.16-.38.24l-.06-.07h0ZM102.3,113.02h0c.18.19.35.38.52.58.51-.83,1.06-1.58,1.61-2.24-.64.42-1.28.89-1.85,1.4-.09.08-.19.17-.28.26h0ZM99.11,110.37h0c.85-.6,1.66-1.1,2.26-1.46.6.36,1.41.86,2.26,1.46-.74.44-1.51,1.03-2.26,1.73-.75-.69-1.53-1.28-2.26-1.73h0ZM96.09,113h0c.21-.24.42-.47.65-.7l.03-.03c.09.18.18.37.26.55-.24.04-.56.09-.93.2v-.02h-.01ZM93.95,110.47h0c.25-.33.51-.66.76-.97.31.24.65.53,1.01.84.15.25.3.51.45.77-.29.26-.57.54-.85.84-.46-.57-.91-1.07-1.36-1.49h0ZM92.91,111.93h0c.06-.09.12-.17.18-.26.09.1.19.21.28.32-.1.02-.22.04-.34.07-.04-.04-.07-.08-.11-.13h0ZM78.47,116.15h0c-.27-.66-.59-1.33-.94-1.98-.06-.11-.12-.21-.17-.31.05.02.11.04.16.07.14.06.28.13.42.2.37.26.74.55,1.09.86-.19.37-.38.77-.56,1.17h0ZM73.53,113.55h0c-.27-.22-.55-.42-.83-.6.77.06,1.86.17,2.95.41.59.96,1.01,1.93,1.28,2.72-.87-.93-1.81-1.7-2.68-2.18-.25-.14-.49-.25-.73-.35h0ZM69.41,113.2h0c.31.15.65.36,1.01.65.65.53,1.36,1.35,2.01,2.32.63.2,1.27.5,1.88.88l-.04-.08c-.48-1-1.4-2.31-2.75-3.05-.65-.36-1.4-.59-2.11-.73h0ZM67.32,112.91h0l.19.02c.17.02.37.04.59.06.08.06.17.13.29.22.63.48,1.88,1.45,2.8,2.61.02.03.05.06.07.09h0c-.25-.03-.49-.04-.71-.03-.97-1.26-2.14-2.32-3.21-2.98h0ZM24.02,120.81h0c-.43,0-.79.76-.79,1.68s.35,1.68.79,1.68h198.52c.43,0,.79-.76.79-1.68s-.35-1.68-.79-1.68h-6.15c.17-.08.29-.2.39-.36.18-.32.22-.82.68-1.56.45-.73,1.32-1.69,2.6-2.24,1.27-.54,2.95-.67,3.79-.74q.84-.07.3-.26c-.54-.19-1.61-.58-2.92-.43-1.31.15-2.87.84-4.1,1.92-1.23,1.08-2.14,2.54-2.29,3.26-.03.18-.02.31.02.41h-.94c.19-.17.34-.36.42-.59.15-.39.14-.9.52-1.81.33-.81.97-1.93,1.94-2.92.18-.02.35-.03.49-.04q.84-.06.3-.26c-.1-.04-.21-.08-.35-.12,1.19-1.05,2.79-1.88,3.6-2.29q.82-.42.27-.38c-.54.04-1.63.11-2.9.82-.67.37-1.39.92-2.09,1.58-.43-.07-.92-.09-1.46-.03-1.32.15-2.87.84-4.11,1.92-1.23,1.08-2.14,2.54-2.29,3.25-.14.71.49.67.96.58.48-.09.8-.22.98-.53.18-.32.22-.82.68-1.56.45-.73,1.32-1.69,2.6-2.24.55-.23,1.17-.39,1.77-.5-.32.36-.62.75-.9,1.15-1.02,1.46-1.75,3.13-1.91,3.97h-5.78c.07-.04.13-.08.19-.11.46-.29.76-.55.91-.94.15-.39.14-.9.52-1.81.15-.36.36-.78.63-1.23.45-.05.85-.09,1.14-.11q.84-.06.3-.26c-.24-.09-.58-.21-1-.31.35-.47.76-.95,1.25-1.39,1.2-1.07,2.83-1.91,3.65-2.33q.82-.42.27-.38c-.54.04-1.63.11-2.9.82-1.14.63-2.43,1.77-3.48,3.13-.23,0-.47,0-.71.03h0s.05-.06.07-.09c.91-1.17,2.17-2.13,2.8-2.61q.63-.48.21-.4c-.42.08-1.26.24-2.24,1.04-.65.53-1.36,1.35-2.01,2.32-.72.23-1.47.59-2.16,1.07.28-.54.62-1.11,1.03-1.63.91-1.17,2.17-2.13,2.8-2.61q.63-.48.21-.4c-.32.06-.88.17-1.57.57-.57.09-1.31.28-2.14.74-1.23.68-2.63,1.94-3.72,3.45-.32-.83-.68-1.64-1.05-2.37,1.1-.95,2.39-1.72,3.08-2.13q.81-.48.27-.4c-.54.08-1.63.24-2.89,1.04-.29.19-.6.41-.9.66-.23-.41-.46-.78-.69-1.11-.09-.13-.18-.26-.27-.37.48-.56.91-1.03,1.22-1.36q.75-.82.22-.51c-.39.23-1.06.62-1.86,1.35-.62-.73-1.14-1.12-1.44-1.35q-.41-.31.17.51c.22.31.52.74.86,1.23-.15.16-.31.32-.47.5-.19.22-.39.46-.59.72-.1-.09-.2-.18-.3-.26-.98-.8-1.82-.96-2.24-1.04q-.42-.08.21.4c.43.33,1.15.88,1.85,1.57-.37.52-.73,1.09-1.07,1.69-.68-.95-1.42-1.72-2.09-2.2-.99-.71-1.83-.78-2.26-.82q-.42-.04.21.38c.63.42,1.9,1.26,2.83,2.33.32.37.6.76.84,1.16-.19.37-.38.75-.56,1.14-.07-.09-.14-.18-.22-.26-.84-.94-1.87-1.59-2.8-1.84.34-.04.64-.06.88-.08q.84-.07.3-.26c-.49-.18-1.41-.51-2.56-.46-.52-.77-1.09-1.43-1.65-1.94.35-.19.67-.35.91-.48q.82-.42.27-.38c-.38.03-1.03.07-1.82.34-.98-.69-1.82-.77-2.24-.8q-.42-.04.21.38c.22.15.52.35.86.59-.58-.19-1.05-.26-1.36-.31q-.54-.08.27.4c.21.12.47.28.76.46-.28.18-.57.39-.86.62-.12-.08-.23-.16-.34-.23-1.26-.8-2.35-.96-2.89-1.04-.1-.02-.18-.03-.24-.03h-.03c.33-.19.62-.34.85-.46q.82-.42.27-.38c-.45.03-1.27.09-2.26.5-.13-.02-.24-.03-.34-.04-.35-.03-.41-.04-.05.21-.05.03-.1.05-.16.08-.06-.03-.15-.07-.25-.12-.57-.26-1.7-.79-3.09-.59-.54.08-1.13.27-1.72.57-.43-.16-1.1-.39-1.92-.52-.06-.03-.12-.06-.2-.1-.1-.05-.23-.11-.37-.17,1.26-1.43,2.96-2.56,3.81-3.12q.86-.57.29-.52c-.42.04-1.15.1-2.04.51-.08,0-.19.02-.33.04-.74.11-2.22.32-3.93,1.42-.73.47-1.51,1.09-2.27,1.83-.46.23-.92.52-1.36.87-.04-.05-.07-.1-.1-.14.48-.56.91-1.03,1.22-1.36q.75-.82.22-.51c-.36.21-.97.57-1.7,1.21-.05-.02-.11-.04-.18-.07-.07-.03-.15-.05-.23-.08-.05-.06-.11-.11-.16-.17,1.62-1.4,3.74-2.49,4.81-3.04q1.11-.57.37-.52c-.49.03-1.32.09-2.32.41.3-.21.56-.38.78-.52q.86-.57.29-.52c-.57.05-1.72.15-3.07,1.11-.68.48-1.4,1.18-2.1,2.03-.08-.05-.09-.04-.04.05-.18.22-.36.45-.53.68-.54-.07-1.13-.09-1.77-.02-1.45.17-3.13.82-4.6,1.84.11-.15.23-.29.35-.43,1.27-1.46,3-2.61,3.86-3.18q.86-.57.29-.52c-.58.05-1.72.15-3.07,1.11-.92.66-1.93,1.71-2.85,3-.17-.3-.35-.6-.53-.89.32-.38.68-.74,1.07-1.1,1.63-1.46,3.86-2.61,4.97-3.18q1.11-.57.37-.52c-.74.05-2.22.15-3.96,1.11-1.03.57-2.16,1.45-3.21,2.52-.06-.08-.11-.16-.17-.25.96-.94,1.94-1.69,2.52-2.13q.85-.66.28-.55c-.46.09-1.29.24-2.3.87-.39.16-.83.39-1.31.73-.22-.28-.44-.55-.66-.8-.04-.04-.07-.08-.11-.13.75-.58.73-.58.18-.47-.14.03-.31.06-.52.11-.06-.07-.13-.13-.19-.2.46-.68.87-1.26,1.17-1.68q.79-1.11.24-.69c-.41.31-1.12.85-1.97,1.84-1.08-.99-2-1.53-2.53-1.84q-.71-.42.3.69c.42.46,1.01,1.1,1.66,1.86-.12.16-.24.33-.36.51-.05.07-.09.14-.14.21-.53.09-1.15.25-1.82.54-.07-.05-.14-.09-.2-.13-.95-.61-1.82-.94-2.54-1.14.63-.39.53-.37-.09-.28-.18.03-.4.06-.65.11-.26-.05-.48-.08-.65-.11-.62-.09-.72-.11-.09.28-.72.2-1.59.53-2.54,1.14-.07.04-.14.09-.2.13-.68-.28-1.3-.45-1.82-.54-.05-.07-.09-.14-.14-.21-.12-.18-.24-.35-.36-.51.65-.76,1.24-1.4,1.66-1.86q1.02-1.11.3-.69c-.53.31-1.45.85-2.53,1.84-.84-.99-1.55-1.53-1.96-1.84q-.55-.42.24.69c.3.42.71,1,1.17,1.68-.06.06-.13.13-.19.2-.2-.05-.38-.08-.52-.11-.55-.1-.57-.11.18.47-.04.04-.07.08-.11.13-.22.25-.44.52-.66.8-.47-.34-.91-.57-1.31-.73-1-.63-1.84-.79-2.3-.87q-.57-.11.28.55c.58.45,1.56,1.2,2.52,2.13-.06.08-.11.16-.17.25-1.06-1.07-2.18-1.94-3.21-2.52-.12-.07-.24-.13-.36-.19.5-.34.42-.33-.06-.29-.13.01-.28.02-.46.05-1.35-.57-2.46-.64-3.08-.68q-.74-.05.37.52c.31.16.71.36,1.16.61l-.04.02c-.08,0-.19.02-.33.04-.74.11-2.22.32-3.94,1.42-.04.02-.08.05-.11.07-.29-.32-.58-.61-.86-.88.48-.26.91-.48,1.24-.65q1.11-.57.37-.52c-.49.03-1.32.09-2.32.41.3-.21.56-.38.78-.52q.86-.57.29-.52c-.44.04-1.2.11-2.13.55-.93-.45-1.7-.52-2.13-.55q-.58-.05.29.52c.21.14.48.32.78.52-1.01-.32-1.83-.37-2.32-.41q-.74-.05.37.52c.33.17.76.39,1.24.65-.29.26-.58.56-.86.88-.04-.02-.08-.05-.11-.07-1.72-1.1-3.2-1.31-3.94-1.42-.13-.02-.25-.04-.33-.04l-.04-.02c.45-.24.85-.45,1.16-.61q1.11-.57.37-.52c-.61.04-1.73.12-3.07.68-.18-.02-.33-.04-.46-.05-.48-.04-.56-.05-.06.29-.12.06-.24.12-.36.19-1.03.57-2.16,1.45-3.21,2.52-.06-.08-.11-.16-.17-.25.96-.94,1.94-1.69,2.52-2.13q.86-.66.28-.55c-.46.09-1.3.24-2.3.87-.39.16-.83.39-1.31.73-.22-.28-.44-.55-.66-.8-.04-.04-.08-.08-.11-.13.75-.58.73-.58.18-.47-.14.03-.31.06-.52.11-.06-.07-.13-.13-.19-.2.46-.68.87-1.26,1.17-1.68q.79-1.11.24-.69c-.41.31-1.12.85-1.96,1.84-1.08-.99-2-1.53-2.53-1.84q-.71-.42.3.69c.42.46,1.01,1.1,1.66,1.86-.12.16-.24.33-.36.51-.05.07-.09.14-.14.21-.53.09-1.15.25-1.83.54-.07-.05-.13-.09-.2-.13-.95-.61-1.83-.94-2.54-1.14.63-.39.53-.37-.09-.28-.18.03-.4.06-.65.11-.26-.05-.48-.08-.65-.11-.62-.09-.72-.11-.09.28-.72.2-1.59.53-2.54,1.14-.07.04-.13.09-.2.13-.68-.28-1.3-.45-1.83-.54-.05-.07-.09-.14-.14-.21-.12-.18-.24-.35-.36-.51.65-.76,1.24-1.4,1.66-1.86q1.02-1.11.3-.69c-.53.31-1.45.85-2.53,1.84-.84-.99-1.55-1.53-1.96-1.84q-.55-.42.24.69c.3.42.71,1,1.17,1.68-.06.06-.13.13-.19.2-.2-.05-.38-.08-.52-.11-.55-.1-.57-.11.18.47-.04.04-.08.08-.11.13-.22.25-.44.52-.66.8-.47-.34-.91-.57-1.31-.73-1-.63-1.84-.79-2.3-.87q-.57-.11.28.55c.58.45,1.56,1.2,2.52,2.13-.06.08-.11.16-.17.25-1.06-1.07-2.18-1.95-3.21-2.52-1.74-.96-3.22-1.06-3.96-1.11q-.74-.05.37.52c1.11.57,3.34,1.71,4.97,3.18.39.35.75.72,1.07,1.1-.18.29-.36.59-.53.89-.92-1.29-1.93-2.34-2.85-3-1.35-.96-2.5-1.06-3.07-1.11q-.58-.05.29.52c.86.57,2.59,1.71,3.86,3.18.12.14.24.28.35.43-1.48-1.02-3.15-1.68-4.6-1.84-.64-.07-1.24-.05-1.77.02-.18-.24-.35-.47-.54-.68.05-.09.04-.1-.04-.05-.7-.85-1.43-1.54-2.1-2.03-1.35-.96-2.5-1.06-3.07-1.11q-.57-.05.29.52c.21.14.48.32.78.52-1.01-.32-1.83-.37-2.32-.41q-.74-.05.37.52c1.08.55,3.2,1.64,4.81,3.04-.05.05-.1.11-.16.17-.08.03-.16.06-.23.08-.07.02-.13.04-.18.07-.73-.64-1.34-1-1.7-1.21q-.52-.31.22.51c.31.34.74.81,1.22,1.36-.03.05-.07.09-.1.14-.44-.35-.9-.64-1.36-.87-.76-.74-1.54-1.36-2.27-1.83-1.72-1.1-3.2-1.31-3.94-1.42-.14-.02-.25-.04-.33-.04-.89-.41-1.62-.47-2.04-.51q-.58-.05.29.52c.85.56,2.55,1.68,3.81,3.12-.14.06-.26.12-.37.17-.08.04-.15.07-.2.1-.82.13-1.49.36-1.92.52-.59-.29-1.17-.49-1.72-.57-1.39-.21-2.52.32-3.09.59-.1.05-.18.09-.25.12-.05-.03-.11-.05-.16-.08.37-.25.31-.24-.04-.21-.09,0-.21.02-.34.04-.99-.42-1.81-.47-2.26-.5q-.54-.04.27.38c.23.12.52.27.85.45h-.03c-.06.02-.14.03-.24.05-.54.08-1.63.24-2.89,1.04-.11.07-.23.15-.34.23-.29-.23-.58-.44-.86-.62.29-.18.55-.34.76-.46q.81-.48.27-.4c-.3.04-.78.11-1.36.31.34-.24.64-.44.86-.59q.63-.42.21-.38c-.42.04-1.26.11-2.24.8-.79-.27-1.44-.31-1.82-.34q-.54-.04.27.38c.24.12.55.28.91.48-.55.51-1.12,1.17-1.65,1.94-1.15-.05-2.08.28-2.56.46q-.54.19.3.26c.24.02.54.04.88.08-.93.25-1.96.89-2.8,1.84-.07.08-.15.17-.22.26-.17-.38-.36-.76-.55-1.14.24-.4.52-.79.83-1.16.93-1.07,2.2-1.91,2.83-2.33q.63-.42.21-.38c-.42.04-1.27.11-2.25.82-.68.48-1.42,1.26-2.1,2.2-.34-.6-.7-1.17-1.07-1.69.7-.69,1.42-1.24,1.85-1.57q.63-.48.21-.4c-.42.08-1.26.24-2.24,1.04-.1.08-.2.17-.3.26-.2-.26-.39-.5-.59-.72-.16-.18-.31-.35-.47-.5.34-.5.64-.93.86-1.23q.58-.82.17-.51c-.3.23-.82.62-1.44,1.35-.8-.73-1.47-1.12-1.86-1.35q-.52-.31.22.51c.31.34.74.81,1.22,1.36-.09.12-.17.24-.26.37-.23.33-.46.71-.69,1.11-.31-.25-.61-.48-.9-.66-1.26-.8-2.35-.96-2.89-1.04q-.54-.08.27.4c.69.41,1.99,1.18,3.08,2.13-.37.73-.73,1.54-1.05,2.37-1.09-1.5-2.49-2.77-3.72-3.45-.82-.45-1.56-.65-2.13-.74-.68-.4-1.25-.51-1.57-.57q-.42-.08.21.4c.63.48,1.89,1.45,2.8,2.61.41.52.75,1.08,1.02,1.63-.69-.47-1.44-.84-2.16-1.07-.65-.97-1.36-1.79-2.01-2.32-.98-.8-1.82-.96-2.24-1.04q-.42-.08.21.4c.63.48,1.89,1.45,2.8,2.61.02.03.05.06.07.09h0c-.25-.03-.49-.04-.71-.03-1.05-1.36-2.34-2.5-3.48-3.13-1.27-.71-2.36-.78-2.9-.82q-.54-.04.27.38c.82.42,2.45,1.26,3.65,2.33.49.44.91.92,1.26,1.39-.42.1-.76.22-.99.31q-.54.19.3.26c.3.02.7.05,1.15.11.27.45.48.87.63,1.23.38.91.37,1.43.52,1.81.15.39.45.65.91.94.06.04.13.08.19.11h-5.78c-.16-.84-.88-2.51-1.91-3.97-.28-.4-.58-.79-.9-1.15.6.11,1.22.27,1.77.5,1.27.54,2.14,1.5,2.6,2.24.45.73.5,1.24.68,1.56.18.32.51.45.98.53.47.09,1.1.13.96-.58-.14-.71-1.05-2.18-2.28-3.25-1.24-1.08-2.79-1.77-4.11-1.92-.53-.06-1.02-.03-1.45.03-.7-.66-1.42-1.21-2.09-1.58-1.27-.71-2.36-.78-2.9-.82q-.54-.04.27.38c.81.41,2.41,1.24,3.6,2.29-.13.04-.25.09-.35.12q-.54.19.3.26c.14.01.31.02.49.04.97.99,1.61,2.11,1.94,2.92.38.91.37,1.42.52,1.81.08.23.23.42.42.59h-.94c.05-.1.06-.23.02-.41-.14-.71-1.05-2.18-2.28-3.26-1.24-1.08-2.79-1.77-4.11-1.92-1.31-.15-2.39.24-2.92.43q-.54.19.3.26c.84.06,2.52.19,3.79.74,1.27.54,2.14,1.5,2.6,2.24.45.73.5,1.24.68,1.56.09.16.22.27.39.36h-6.15ZM58.45,120.81h0c.07-.36.13-.82.4-1.51.21-.54.54-1.23,1.02-1.93.38.29.69.6.95.91-.42,1.01-.71,1.96-.79,2.53h-1.57ZM56.17,120.81h-.64c.05-.04.1-.08.15-.11.36-.29.59-.55.71-.94.12-.39.11-.9.4-1.81.12-.36.28-.78.49-1.23.35-.05.66-.09.89-.11.12-.01.21-.02.29-.03.05.02.09.04.14.05l-.05.05c-.96,1.08-1.66,2.54-1.77,3.25-.05.32.02.49.15.57-.04.1-.08.21-.12.31h-.63ZM118.35,117.62h0c.05.15.1.29.14.42-.2.39-.33.73-.38,1-.05.24-.03.42.03.55h-1.07c.07-.05.14-.1.2-.16.48-.39.81-.75.96-1.28.05-.16.08-.33.11-.53h0ZM121.21,113.93h0l-.04-.07.07.03-.03.04h0ZM119.62,116.21h0c-.21-.33-.43-.67-.68-.99.14-.38.31-.79.51-1.22.12-.02.24-.03.35-.05.2.37.38.73.53,1.08-.27.39-.51.78-.72,1.17h0ZM125.34,113.93h0l-.03-.04.07-.03-.04.07h0ZM126.93,116.21h0c-.21-.39-.45-.78-.72-1.17.15-.35.33-.71.53-1.08.11.02.23.03.35.05.2.43.37.84.51,1.22-.24.32-.47.65-.68.99h0ZM128.6,119.59h-.2c.06-.13.08-.31.03-.55-.05-.27-.18-.61-.38-1,.04-.13.08-.27.14-.42.03.2.07.38.11.53.16.53.48.89.96,1.28.07.05.13.11.2.16h-.87Z"/>
      </g>
      <g>
        <path class="cls-5" d="M78.27,220.99h2.28v5.2h4.34v-5.2h2.26v13.05h-2.26v-5.6h-4.34v5.6h-2.28v-13.05Z"/>
        <path class="cls-5" d="M88.76,229.38c0-3.53,2.01-4.95,4.15-4.95s4.15,1.43,4.15,4.95-2.01,4.87-4.15,4.87-4.15-1.49-4.15-4.87ZM94.71,229.34c0-2.04-.69-3-1.81-3s-1.81.96-1.81,3,.69,3,1.81,3,1.81-.96,1.81-3Z"/>
        <path class="cls-5" d="M98.58,227.52c0-1.07-.02-2.01-.05-2.88l1.94-.08.17,1.28h.05c.57-.71,1.42-1.41,2.64-1.41,1.84,0,2.81,1.41,2.81,3.96v5.65h-2.28v-5.44c0-1.24-.28-2.08-1.24-2.08-.79,0-1.41.53-1.79,1.28v6.25h-2.26v-6.51Z"/>
        <path class="cls-5" d="M107.69,229.44c0-2.96,1.47-5.01,3.55-5.01,1.04,0,1.67.44,2.13,1.09h.03v-5.37l2.26-.08v11.25c0,.71.02,2.04.07,2.71h-1.61l-.49-1.26h-.03c-.54.92-1.37,1.45-2.51,1.45-2.08,0-3.4-2.03-3.4-4.79ZM113.4,230.73v-3.13c-.38-.9-1.09-1.19-1.61-1.19-1.31,0-1.79,1.47-1.79,2.96,0,2.14.92,2.83,1.77,2.83,1,0,1.62-.9,1.62-1.47Z"/>
        <path class="cls-5" d="M117.22,229.38c0-3.53,2.01-4.95,4.15-4.95s4.15,1.43,4.15,4.95-2.01,4.87-4.15,4.87-4.15-1.49-4.15-4.87ZM123.18,229.34c0-2.04-.69-3-1.81-3s-1.81.96-1.81,3,.69,3,1.81,3,1.81-.96,1.81-3Z"/>
        <path class="cls-5" d="M126.46,236.39c.62-1.6.9-3.42.95-5.29l1.94.31c-.27,1.95-1,4.18-1.57,5.35l-1.32-.36Z"/>
        <path class="cls-5" d="M137.84,223.19h-2.98l.12-2.2h8.15l-.12,2.2h-2.9v10.85h-2.28v-10.85Z"/>
        <path class="cls-5" d="M142.97,229.47c0-2.75,1.34-5.04,4.07-5.04s3.82,2.67,3.33,5.56h-5.17c.05,1.64,1.04,2.31,2.29,2.31.9,0,1.71-.21,2.36-.48l.22,1.83c-.8.36-1.88.57-2.95.57-2.66,0-4.15-1.76-4.15-4.76ZM148.36,228.23c.02-.08.02-.13.02-.21,0-.78-.32-1.76-1.47-1.76-1.02,0-1.57.94-1.67,1.97h3.13Z"/>
        <path class="cls-5" d="M153.85,229.21l-2.65-4.57h2.53l1.46,3.1h.03l1.36-3.1h2.48l-2.64,4.49,2.75,4.91h-2.56l-1.51-3.29h-.03l-1.47,3.29h-2.48l2.75-4.83Z"/>
        <path class="cls-5" d="M159.78,231.56c0-2.08,1.15-2.73,2.83-2.73h1.98v-.94c0-.82-.2-1.43-1.49-1.43-1.02,0-1.79.31-2.43.61l-.37-1.91c.72-.34,1.93-.73,3.21-.73,2.48,0,3.33.99,3.33,3.13v4.24c0,.82.02,1.62.08,2.24h-1.66l-.5-1.09h-.05c-.6.82-1.41,1.28-2.46,1.28-1.49,0-2.48-1.24-2.48-2.67ZM164.61,231.29v-.96h-1.47c-.55,0-1.14.06-1.14.99,0,.76.47,1.11,1.09,1.11.59,0,1.41-.44,1.52-1.15Z"/>
        <path class="cls-5" d="M168.4,233.66l.28-1.91c.55.31,1.66.65,2.39.65.84,0,1.22-.36,1.22-.94,0-1.53-3.75-1.2-3.75-4.09,0-1.87,1.36-2.94,3.21-2.94.9,0,1.79.23,2.36.54l-.27,1.85c-.47-.25-1.36-.54-2.06-.54-.64,0-1.07.27-1.07.82,0,1.39,3.77,1.11,3.77,4.11,0,1.99-1.37,3.02-3.43,3.02-.95,0-2.01-.23-2.66-.57Z"/>
      </g>
    </g>
  </g>
</svg>