<?xml version="1.0" encoding="UTF-8"?>
<svg id="Layer_2" xmlns="http://www.w3.org/2000/svg" viewBox="0 0 776.65 177.46">
  <defs>
    <style>
      .cls-1 {
        fill: #f5f4f4;
        font-family: KeplerStd-ScnDisp, 'Kepler Std';
        font-size: 102.65px;
      }

      .cls-2 {
        fill: none;
        stroke: #8db6c4;
        stroke-miterlimit: 10;
        stroke-width: 2.5px;
      }

      .cls-3 {
        letter-spacing: 0em;
      }

      .cls-4 {
        letter-spacing: 0em;
      }

      .cls-5 {
        letter-spacing: 0em;
      }

      .cls-6 {
        letter-spacing: 0em;
      }

      .cls-7 {
        letter-spacing: .01em;
      }

      .cls-8 {
        letter-spacing: 0em;
      }

      .cls-9 {
        letter-spacing: 0em;
      }

      .cls-10 {
        letter-spacing: 0em;
      }

      .cls-11 {
        letter-spacing: 0em;
      }
    </style>
  </defs>
  <g id="Layer_1-2" data-name="Layer_1">
    <g>
      <text class="cls-1" transform="translate(0 84.89)"><tspan class="cls-11" x="0" y="0">M</tspan><tspan class="cls-3" x="71.34" y="0">A</tspan><tspan class="cls-5" x="121.94" y="0">R</tspan><tspan class="cls-9" x="170.29" y="0">I</tspan><tspan class="cls-10" x="196.26" y="0">S</tspan><tspan class="cls-7" x="236.29" y="0">S</tspan><tspan x="276.83" y="0">A </tspan><tspan class="cls-3" x="342.42" y="0">A</tspan><tspan class="cls-6" x="393.03" y="0">RR</tspan><tspan class="cls-11" x="489.72" y="0">I</tspan><tspan class="cls-4" x="515.79" y="0">A</tspan><tspan class="cls-8" x="566.6" y="0">G</tspan><tspan x="622.85" y="0">A </tspan></text>
      <g>
        <path class="cls-2" d="M551.55,108.62c-16.33,24.66-36.35,46.87-59.2,65.66-.82.68-1.74,1.24-2.75,1.57-5.44,1.79-7.44-3.52-6.04-7.08,1.01-2.57,3.26-4.42,5.44-6.12,26.73-20.88,56.41-37.96,87.88-50.59,1.58-.64,1.51-2.92-.12-3.42-4.58-1.38-10.24.55-10.56,5.93-.21,3.48,2.05,6.62,5.28,7.95,5.81,2.4,11.77-.39,16.43-4,3.95-3.06,7.4-6.81,11.73-9.3-5.44,3.29-9.73,8.39-12.14,14.27-.87,2.13,1.49,4.17,3.47,3,5.21-3.09,9.86-7.14,13.64-11.88-1.7,2.46-2.5,5.5-2.3,8.48.09,1.36,1.57,2.13,2.73,1.43,5.63-3.4,9.95-8.92,11.86-15.21.18-.61.94-.8,1.4-.36,6.88,6.59,18.6,7.14,26.42,1.86,1.84-1.24.67-4.14-1.51-3.75-3.56.63-6.78,2.61-8.28,6.2-1.17,2.82-.38,6.83,1.97,8.76,3.84,3.15,9.25,1.16,13.53-1.01,28.69-14.54,54.37-35,74.93-59.73.93-1.12,1.3-2.65.82-4.02-1.23-3.53-6.48-1.89-9.38.39-22.66,17.72-41.79,39.94-55.94,65-.57,1.01-.85,2.19-.64,3.34.76,4.31,6.32,3.68,9.93,2.11,19.83-8.63,37.16-22.9,49.46-40.68.49-.71-.17-1.65-1-1.43-4.72,1.26-9.58,4.04-8.72,8.53.39,2.04,1.98,3.61,2.85,5.5,2.52,5.47-1.55,11.76-6.27,15.5-5.32,4.21-11.99,7.35-14.23,14.1-.54,1.62-.25,3.45.89,4.7,2.04,2.23,5.09,1.11,7.5-.08,15.02-7.41,29.12-16.69,41.88-27.55-4.13,2.53-7.17,6.75-8.41,11.42-.45,1.69,1.39,3.07,2.89,2.18l20.6-12.15c-12.94,27.38-34.2,50.76-60.25,66.21-1.2.71-2.54,1.18-3.92,1.24-5.44.25-6.34-5.1-4.46-8.42,1.36-2.4,3.78-3.99,6.11-5.48,26.96-17.3,53.92-34.6,80.87-51.91"/>
        <ellipse class="cls-2" cx="555.86" cy="102.43" rx="2.1" ry=".86" transform="translate(189.23 532.6) rotate(-60)"/>
      </g>
    </g>
  </g>
</svg>