<?xml version="1.0" encoding="UTF-8"?>
<svg id="Layer_2" xmlns="http://www.w3.org/2000/svg" viewBox="0 0 176.74 178.03">
  <defs>
    <style>
      .cls-1 {
        fill: #efc5c3;
      }
    </style>
  </defs>
  <g id="Layer_1-2" data-name="Layer_1">
    <g>
      <path class="cls-1" d="M131.61,144.12v-4.14c17.15-1.09,12.7-1.51,13.63-24.43l-1.53-94.58-53.89,108.32h-2.91L28.94,24.6v86.64c0,23.95-3.85,27.87,12.18,28.74v4.14H5.42v-4.14c17.28-1.31,14.36-4.35,14.36-28.74V24.6C19.78,8.06,17.07,5.22,0,4.14V0h41.22l48.09,109.28L135.31,0h41.43v4.14c-14.99.22-18.11,3.92-18.11,20.25v95.35c0,15.46-3.24,19.16,11.95,20.25v4.14h-38.97Z"/>
      <path class="cls-1" d="M103.95,178.03v-4.58c5.13,0,6.13-.48,7.84-2.17,1.14-.96,2-3.61,2-5.78,0-3.61-1-10.12-2.71-16.87l-5.85-22.65h-37.37l-6.56,27.47c-.71,3.13-1.28,7.23-1.28,10.12,0,7.47,3.14,9.88,9.98,9.88v4.58h-28.38v-4.58c8.27-1.45,9.56-6.51,17.97-40.24L88.97,15.61h2.85l35.08,135.68c3.99,15.66,5.99,20.73,13.41,22.17v4.58h-36.37ZM86.69,49.83l-18.83,76.15h37.37l-18.54-76.15Z"/>
    </g>
  </g>
</svg>