<svg width="38" height="36" viewBox="0 0 38 36" fill="none" xmlns="http://www.w3.org/2000/svg">
<path d="M26.8784 7.85936V9.78957C26.8784 10.1446 26.5879 10.4351 26.2329 10.4351H25.3872C25.271 10.9774 25.0838 11.4938 24.832 11.978L25.3743 12.5138C25.626 12.7656 25.626 13.1787 25.3743 13.4305L24.0057 14.7991C23.7539 15.0508 23.3408 15.0508 23.089 14.7991L22.6307 14.3407C22.1336 14.6441 21.5913 14.883 21.0103 15.0379V15.6577C21.0103 16.0127 20.7198 16.3032 20.3648 16.3032H18.4346C18.0795 16.3032 17.789 16.0127 17.789 15.6577V15.0379C17.208 14.883 16.6657 14.6441 16.1751 14.3343L15.7103 14.7991C15.4586 15.0508 15.0454 15.0508 14.7936 14.7991L13.4315 13.4305C13.1733 13.1787 13.1733 12.7656 13.4315 12.5138L13.9738 11.978C13.7156 11.4938 13.5284 10.9774 13.4121 10.4351H12.5665C12.2114 10.4351 11.9209 10.1446 11.9209 9.78957V7.85936C11.9209 7.50432 12.2114 7.21381 12.5665 7.21381H13.5606C13.7156 6.74257 13.9221 6.29713 14.1803 5.88397L13.4251 5.13514C13.1733 4.88337 13.1733 4.4702 13.4251 4.21843L14.7936 2.85632C15.0454 2.59808 15.4586 2.59808 15.7103 2.85632L16.5366 3.68265C16.9369 3.47606 17.3565 3.30821 17.789 3.19202V1.99772C17.789 1.63621 18.0795 1.3457 18.4346 1.3457H20.3648C20.7198 1.3457 21.0103 1.63621 21.0103 1.99772V3.19202C21.4493 3.30821 21.8689 3.4696 22.2692 3.68265L23.089 2.85632C23.3408 2.60454 23.7539 2.60454 24.0057 2.85632L25.3743 4.21843C25.626 4.4702 25.626 4.88337 25.3743 5.13514L24.619 5.88397C24.8772 6.29713 25.0838 6.74257 25.2387 7.21381H26.2329C26.5879 7.21381 26.8784 7.50432 26.8784 7.85936Z" fill="#C6DDEA"/>
<path d="M19.3999 12.0634C21.1889 12.0634 22.6391 10.6131 22.6391 8.82414C22.6391 7.03516 21.1889 5.5849 19.3999 5.5849C17.6109 5.5849 16.1606 7.03516 16.1606 8.82414C16.1606 10.6131 17.6109 12.0634 19.3999 12.0634Z" fill="white"/>
<path d="M20.3651 16.6807H18.4348C17.871 16.6807 17.4118 16.2219 17.4118 15.6577V15.3209C17.002 15.1912 16.6077 15.0198 16.234 14.809L15.9768 15.0659C15.5928 15.4517 14.9118 15.4525 14.5271 15.0659L13.1643 13.6965C12.9697 13.5074 12.8606 13.2487 12.8606 12.972C12.8606 12.6956 12.9697 12.4369 13.1687 12.2434L13.5129 11.9026C13.3478 11.5547 13.2144 11.1899 13.1142 10.8125H12.5666C12.0027 10.8125 11.5436 10.3537 11.5436 9.78951V7.85923C11.5436 7.2954 12.0027 6.8366 12.5666 6.8366H13.2933C13.4097 6.52631 13.5476 6.22782 13.706 5.9448L13.1599 5.40308C12.9653 5.20924 12.8592 4.95165 12.8592 4.67674C12.8592 4.40183 12.9653 4.14424 13.1584 3.95114L14.5278 2.58874C14.9052 2.19996 15.5943 2.19627 15.9805 2.59316L16.6129 3.2248C16.8782 3.10061 17.145 2.99521 17.4118 2.90972V1.99764C17.4118 1.43013 17.871 0.968384 18.4348 0.968384H20.3651C20.9289 0.968384 21.3873 1.43013 21.3873 1.99764V2.90824C21.6659 2.99521 21.9357 3.10061 22.1936 3.22258L22.8216 2.59058C23.2078 2.20254 23.8866 2.20327 24.2728 2.58911L25.6407 3.95077C26.0409 4.35134 26.0409 5.00214 25.6415 5.40198L25.0938 5.94517C25.2516 6.22782 25.3894 6.52631 25.5058 6.8366H26.2326C26.7964 6.8366 27.2555 7.2954 27.2555 7.85923V9.78951C27.2555 10.3537 26.7964 10.8125 26.2326 10.8125H25.6849C25.5862 11.1858 25.4543 11.5503 25.2906 11.9007L25.64 12.2453C26.0409 12.647 26.0409 13.2974 25.6415 13.6972L24.2728 15.0659C23.8866 15.4525 23.2071 15.4517 22.8223 15.0659L22.5688 14.8127C22.1892 15.0224 21.7934 15.1927 21.3873 15.3209V15.6577C21.3873 16.2219 20.9289 16.6807 20.3651 16.6807ZM16.1751 13.957C16.2443 13.957 16.3144 13.9762 16.3763 14.0153C16.8428 14.3093 17.3506 14.5308 17.8864 14.6731C18.0515 14.7173 18.1665 14.8669 18.1665 15.0379V15.6577C18.1665 15.8033 18.2896 15.926 18.4348 15.926H20.3651C20.5103 15.926 20.6326 15.8033 20.6326 15.6577V15.0379C20.6326 14.8669 20.7476 14.7173 20.9127 14.6731C21.4411 14.5327 21.9526 14.3123 22.4339 14.0186C22.5828 13.9279 22.7729 13.9497 22.8975 14.0739L23.3559 14.5323C23.4562 14.6333 23.6375 14.6336 23.7392 14.5319L25.1078 13.1636C25.211 13.0601 25.211 12.8843 25.1078 12.7807L24.5669 12.2468C24.4497 12.1303 24.4209 11.9512 24.4976 11.8042C24.7349 11.3465 24.9103 10.8593 25.0179 10.3559C25.0555 10.182 25.2096 10.0578 25.3872 10.0578H26.2326C26.3807 10.0578 26.5008 9.93728 26.5008 9.78951V7.85923C26.5008 7.71146 26.3807 7.59132 26.2326 7.59132H25.239C25.0762 7.59132 24.9317 7.48703 24.8808 7.33225C24.7334 6.88635 24.5381 6.46625 24.2993 6.08373C24.2057 5.93448 24.2286 5.7399 24.3539 5.61608L25.1093 4.86726C25.2118 4.76445 25.2118 4.58904 25.1078 4.48511L23.7399 3.12382C23.6367 3.02138 23.4562 3.02211 23.3559 3.12309L22.5364 3.94819C22.4192 4.06685 22.2379 4.09375 22.0912 4.01563C21.7264 3.82105 21.3298 3.66701 20.9134 3.55683C20.7483 3.51297 20.6326 3.36336 20.6326 3.192V1.99764C20.6326 1.84618 20.5125 1.7231 20.3651 1.7231H18.4348C18.2867 1.7231 18.1665 1.84618 18.1665 1.99764V3.192C18.1665 3.36262 18.0515 3.51224 17.8872 3.55646C17.4966 3.66112 17.1008 3.81663 16.7101 4.01784C16.5635 4.09338 16.3859 4.06575 16.2701 3.94929L15.4432 3.12309C15.3363 3.01401 15.1653 3.01695 15.0644 3.1194L13.6913 4.48585C13.6412 4.5356 13.6139 4.60378 13.6139 4.67674C13.6139 4.74971 13.6412 4.81788 13.692 4.868L14.446 5.61608C14.5713 5.74027 14.5941 5.93485 14.5005 6.0841C14.261 6.46625 14.0657 6.88598 13.919 7.33152C13.8682 7.48666 13.7237 7.59132 13.5608 7.59132H12.5666C12.4184 7.59132 12.2983 7.71146 12.2983 7.85923V9.78951C12.2983 9.93728 12.4184 10.0578 12.5666 10.0578H13.4119C13.5896 10.0578 13.7436 10.182 13.7812 10.3559C13.8903 10.8652 14.0672 11.3513 14.3067 11.8009C14.3848 11.9479 14.3576 12.1292 14.2389 12.2464L13.6972 12.7822C13.6434 12.8345 13.6154 12.9012 13.6154 12.972C13.6154 13.0431 13.6434 13.1098 13.695 13.1599L15.0614 14.533C15.1609 14.6329 15.3437 14.6329 15.4432 14.5323L15.9083 14.0676C15.9812 13.9946 16.0778 13.957 16.1751 13.957Z" fill="#C6DDEA"/>
<path d="M19.3996 12.4413C17.4052 12.4413 15.783 10.8188 15.783 8.82436C15.783 6.82997 17.4052 5.2074 19.3996 5.2074C21.394 5.2074 23.0169 6.82997 23.0169 8.82436C23.0169 10.8188 21.394 12.4413 19.3996 12.4413ZM19.3996 5.96211C17.8216 5.96211 16.5377 7.24602 16.5377 8.82436C16.5377 10.4027 17.8216 11.6866 19.3996 11.6866C20.9783 11.6866 22.2622 10.4027 22.2622 8.82436C22.2622 7.24602 20.9783 5.96211 19.3996 5.96211Z" fill="#C6DDEA"/>
<path d="M37.5129 31.3974V33.1357C37.5129 33.9761 36.8348 34.6542 35.9943 34.6542H2.80576C1.96535 34.6542 1.28723 33.9761 1.28723 33.1357V31.3974C1.28723 30.557 1.96535 29.8789 2.80576 29.8789H35.9943C36.8348 29.8789 37.5129 30.557 37.5129 31.3974Z" fill="#E3EBED"/>
<path d="M37.5122 31.3975V33.1357C37.5122 33.9761 36.8341 34.6543 35.9937 34.6543H2.80508C1.96462 34.6543 1.2865 33.9761 1.2865 33.1357V32.2857C5.55562 33.0211 10.799 33.4604 16.4721 33.4604C25.0963 33.4604 32.7273 32.4576 37.4263 30.9199C37.4836 31.0632 37.5122 31.2256 37.5122 31.3975Z" fill="#889CA9"/>
<path d="M34.8292 11.5273V29.8789H3.97095V11.5273C3.97095 10.0374 5.1839 8.82446 6.6738 8.82446H32.1263C33.6162 8.82446 34.8292 10.0374 34.8292 11.5273Z" fill="#FEFEFE"/>
<path d="M34.8292 12.5552V11.5273C34.8292 10.0374 33.6162 8.82446 32.1263 8.82446H6.67379C5.18392 8.82446 3.97095 10.0374 3.97095 11.5273V12.5552H34.8292Z" fill="#E3EBED"/>
<path d="M34.8293 12.9326H3.97062C3.76204 12.9326 3.59326 12.7638 3.59326 12.5552V11.5274C3.59326 9.82895 4.97519 8.44702 6.67404 8.44702H32.1266C33.8247 8.44702 35.2066 9.82895 35.2066 11.5274V12.5552C35.2066 12.7638 35.0378 12.9326 34.8293 12.9326ZM4.34798 12.1779H34.4519V11.5274C34.4519 10.245 33.409 9.20174 32.1266 9.20174H6.67404C5.39161 9.20174 4.34798 10.245 4.34798 11.5274V12.1779Z" fill="#C6DDEA"/>
<path d="M34.8284 17.7877V29.8789H3.97021V24.4446C7.13148 25.5142 10.8467 26.135 14.8198 26.135C24.2941 26.135 32.2975 22.6109 34.8284 17.7877Z" fill="#BBD6EA"/>
<path d="M35.9945 35.0316H2.80543C1.76032 35.0316 0.90979 34.1811 0.90979 33.1356V31.3973C0.90979 30.3522 1.76032 29.5017 2.80543 29.5017H35.9945C37.0397 29.5017 37.8902 30.3522 37.8902 31.3973V33.1356C37.8902 34.1811 37.0397 35.0316 35.9945 35.0316ZM2.80543 30.2564C2.176 30.2564 1.66451 30.7683 1.66451 31.3973V33.1356C1.66451 33.765 2.176 34.2769 2.80543 34.2769H35.9945C36.624 34.2769 37.1355 33.765 37.1355 33.1356V31.3973C37.1355 30.7683 36.624 30.2564 35.9945 30.2564H2.80543Z" fill="#C6DDEA"/>
<path d="M34.8293 30.2564H3.97062C3.76204 30.2564 3.59326 30.0876 3.59326 29.8791V11.5274C3.59326 9.82895 4.97519 8.44702 6.67404 8.44702H32.1266C33.8247 8.44702 35.2066 9.82895 35.2066 11.5274V29.8791C35.2066 30.0876 35.0378 30.2564 34.8293 30.2564ZM4.34798 29.5017H34.4519V11.5274C34.4519 10.245 33.409 9.20174 32.1266 9.20174H6.67404C5.39161 9.20174 4.34798 10.245 4.34798 11.5274V29.5017Z" fill="#C6DDEA"/>
<path d="M24.0151 29.8763L22.6317 32.2665H16.169L14.7856 29.8763H24.0151Z" fill="white"/>
<path d="M22.6314 32.6437H16.1692C16.0343 32.6437 15.9097 32.5718 15.8427 32.4554L14.4585 30.0648C14.3907 29.948 14.3907 29.8043 14.4578 29.6875C14.5256 29.5703 14.6502 29.4984 14.785 29.4984H24.0148C24.1497 29.4984 24.2743 29.5703 24.3421 29.6871C24.4092 29.8043 24.4092 29.948 24.3414 30.0648L22.958 32.4554C22.8909 32.5718 22.7663 32.6437 22.6314 32.6437ZM16.3866 31.889H22.414L23.3604 30.2531H15.4395L16.3866 31.889Z" fill="#C6DDEA"/>
<path d="M7.17655 11.2944C7.51042 11.2944 7.78108 11.0237 7.78108 10.6899C7.78108 10.356 7.51042 10.0853 7.17655 10.0853C6.84268 10.0853 6.57202 10.356 6.57202 10.6899C6.57202 11.0237 6.84268 11.2944 7.17655 11.2944Z" fill="white"/>
<path d="M9.47465 11.2944C9.80852 11.2944 10.0792 11.0237 10.0792 10.6899C10.0792 10.356 9.80852 10.0853 9.47465 10.0853C9.14077 10.0853 8.87012 10.356 8.87012 10.6899C8.87012 11.0237 9.14077 11.2944 9.47465 11.2944Z" fill="white"/>
<path d="M11.7735 11.2944C12.1073 11.2944 12.378 11.0237 12.378 10.6899C12.378 10.356 12.1073 10.0853 11.7735 10.0853C11.4396 10.0853 11.1689 10.356 11.1689 10.6899C11.1689 11.0237 11.4396 11.2944 11.7735 11.2944Z" fill="white"/>
<path d="M9.45182 25.0731C9.34288 24.961 9.28894 24.8219 9.28894 24.6575C9.28894 24.5882 9.31115 24.5015 9.35452 24.3973L12.6681 16.5738C12.7379 16.4178 12.8353 16.2898 12.9611 16.1904C13.0859 16.091 13.2403 16.0408 13.4223 16.0408H13.5523C13.7343 16.0408 13.8876 16.091 14.0135 16.1904C14.1393 16.2898 14.2366 16.4178 14.3064 16.5738L17.6201 24.3973C17.6634 24.5015 17.6846 24.5882 17.6846 24.6575C17.6846 24.8219 17.6307 24.961 17.5228 25.0731C17.4138 25.1858 17.2732 25.2424 17.0997 25.2424C16.9791 25.2424 16.8681 25.2096 16.7687 25.1451C16.6692 25.08 16.5931 24.9912 16.5413 24.8785L15.6962 22.851H11.2773L10.4333 24.8785C10.3815 24.9912 10.3053 25.08 10.2059 25.1451C10.1054 25.2096 9.99545 25.2424 9.87382 25.2424C9.70037 25.2424 9.5597 25.1858 9.45182 25.0731ZM11.7332 21.7722H15.2414L13.4868 17.5485L11.7332 21.7722Z" fill="#C6DDEA"/>
<path d="M19.765 25.0731C19.6519 24.961 19.5958 24.822 19.5958 24.6575V16.7034C19.5958 16.5389 19.6519 16.3983 19.765 16.2814C19.8772 16.1645 20.0157 16.1058 20.1807 16.1058H23.1443C23.9671 16.1058 24.6387 16.2444 25.158 16.5215C25.6784 16.7991 26.0507 17.1545 26.276 17.5876C26.5012 18.0207 26.6134 18.4887 26.6134 18.9911C26.6134 19.4935 26.5012 19.9615 26.276 20.3946C26.0507 20.8277 25.6784 21.1831 25.158 21.4602C24.6387 21.7378 23.9671 21.8764 23.1443 21.8764H20.7783V24.6575C20.7783 24.822 20.7201 24.961 20.6027 25.0731C20.4864 25.1858 20.3446 25.2424 20.1807 25.2424C20.0157 25.2424 19.8772 25.1858 19.765 25.0731ZM23.0269 20.7585C23.9111 20.7585 24.5319 20.5898 24.8915 20.2518C25.2511 19.9139 25.4309 19.4935 25.4309 18.9911C25.4309 18.4887 25.2511 18.0683 24.8915 17.7304C24.5319 17.3925 23.9111 17.2232 23.0269 17.2232H20.7783V20.7585H23.0269Z" fill="#C6DDEA"/>
<path d="M28.4981 25.0731C28.3849 24.961 28.3289 24.8219 28.3289 24.6575V16.6389C28.3289 16.4744 28.3849 16.3332 28.4981 16.2163C28.6102 16.0995 28.7487 16.0408 28.9137 16.0408C29.0777 16.0408 29.2194 16.0995 29.3357 16.2163C29.4531 16.3332 29.5113 16.4744 29.5113 16.6389V24.6575C29.5113 24.8219 29.4531 24.961 29.3357 25.0731C29.2194 25.1858 29.0777 25.2424 28.9137 25.2424C28.7487 25.2424 28.6102 25.1858 28.4981 25.0731Z" fill="#C6DDEA"/>
</svg>
