<svg xmlns="http://www.w3.org/2000/svg" width="41" height="40" fill="none"><path fill="#605E67" d="M27.878 9.86v1.93c0 .355-.29.645-.645.645h-.846a6.1 6.1 0 0 1-.555 1.543l.542.536a.65.65 0 0 1 0 .917l-1.368 1.368a.65.65 0 0 1-.917 0l-.458-.458a6.2 6.2 0 0 1-1.62.697v.62c0 .355-.291.645-.646.645h-1.93a.647.647 0 0 1-.646-.645v-.62a5.8 5.8 0 0 1-1.614-.704l-.465.465a.65.65 0 0 1-.916 0l-1.363-1.368a.64.64 0 0 1 0-.917l.543-.536q-.387-.727-.562-1.543h-.846a.647.647 0 0 1-.645-.645V9.86c0-.356.29-.646.646-.646h.994q.232-.708.62-1.33l-.756-.749a.65.65 0 0 1 0-.917l1.369-1.362a.64.64 0 0 1 .916 0l.827.827c.4-.207.82-.375 1.252-.491V3.998c0-.362.29-.652.646-.652h1.93c.355 0 .645.29.645.652v1.194q.66.173 1.26.49l.819-.826a.65.65 0 0 1 .917 0l1.368 1.362a.65.65 0 0 1 0 .917l-.755.749q.387.621.62 1.33h.994c.355 0 .645.29.645.645"/><path fill="#fff" d="M20.4 14.063a3.24 3.24 0 1 0 0-6.478 3.24 3.24 0 0 0 0 6.478"/><path fill="#4B4952" d="M21.365 18.68h-1.93a1.024 1.024 0 0 1-1.023-1.022v-.337a6.2 6.2 0 0 1-1.178-.512l-.257.257c-.384.386-1.065.387-1.45 0l-1.363-1.37a1 1 0 0 1-.303-.724c0-.276.109-.535.308-.729l.344-.34a6.3 6.3 0 0 1-.399-1.09h-.547a1.024 1.024 0 0 1-1.023-1.024V9.86c0-.564.459-1.022 1.023-1.022h.726q.176-.467.413-.892l-.546-.542a1.02 1.02 0 0 1-.3-.726c0-.275.105-.533.298-.726l1.37-1.362c.377-.389 1.066-.393 1.452.004l.633.632q.398-.187.799-.315v-.912c0-.568.459-1.03 1.023-1.03h1.93c.564 0 1.022.462 1.022 1.03v.91q.42.131.807.315l.628-.632a1.05 1.05 0 0 1 1.45-.002l1.369 1.362c.4.4.4 1.051 0 1.451l-.547.543q.237.425.412.892h.727c.563 0 1.023.458 1.023 1.022v1.93c0 .565-.46 1.024-1.023 1.024h-.548q-.148.56-.394 1.088l.349.344c.4.402.4 1.052.002 1.452l-1.37 1.369a1.053 1.053 0 0 1-1.45 0l-.253-.253q-.571.316-1.182.508v.337c0 .564-.458 1.023-1.022 1.023m-4.19-2.723c.07 0 .14.02.201.058.467.294.975.516 1.51.658.166.044.28.194.28.365v.62c0 .145.124.268.269.268h1.93a.27.27 0 0 0 .268-.268v-.62c0-.171.115-.32.28-.365.528-.14 1.04-.36 1.52-.654a.38.38 0 0 1 .465.055l.458.458a.28.28 0 0 0 .383 0l1.369-1.368a.275.275 0 0 0 0-.383l-.541-.534a.38.38 0 0 1-.07-.443c.238-.457.413-.945.52-1.448a.38.38 0 0 1 .37-.298h.846c.148 0 .268-.12.268-.268V9.86a.27.27 0 0 0-.268-.269h-.994a.38.38 0 0 1-.358-.259 5.8 5.8 0 0 0-.582-1.248.38.38 0 0 1 .055-.468l.755-.749a.274.274 0 0 0-.001-.382L24.74 5.124a.28.28 0 0 0-.384 0l-.82.824a.38.38 0 0 1-.445.068 5.5 5.5 0 0 0-1.178-.46.38.38 0 0 1-.28-.364V3.998a.27.27 0 0 0-.268-.275h-1.93a.27.27 0 0 0-.268.275v1.194c0 .17-.116.32-.28.364-.39.105-.786.26-1.177.462a.38.38 0 0 1-.44-.069l-.827-.826a.266.266 0 0 0-.379-.004l-1.373 1.367a.27.27 0 0 0-.077.19c0 .074.027.142.078.192l.754.748a.38.38 0 0 1 .055.468c-.24.382-.435.802-.582 1.248a.38.38 0 0 1-.358.26h-.994a.27.27 0 0 0-.269.267v1.93c0 .148.12.269.269.269h.845c.178 0 .332.124.37.298.108.51.285.995.525 1.445a.38.38 0 0 1-.068.445l-.542.536a.26.26 0 0 0-.002.378l1.366 1.373c.1.1.283.1.382 0l.465-.465a.38.38 0 0 1 .267-.111"/><path fill="#4B4952" d="M20.4 14.441a3.62 3.62 0 0 1-3.617-3.617A3.62 3.62 0 0 1 20.4 7.207a3.62 3.62 0 0 1 3.617 3.617 3.62 3.62 0 0 1-3.617 3.617m0-6.479a2.865 2.865 0 0 0-2.862 2.862 2.865 2.865 0 0 0 2.862 2.863 2.865 2.865 0 0 0 2.862-2.863A2.865 2.865 0 0 0 20.4 7.962"/><path fill="#E3EBED" d="M38.513 33.397v1.739c0 .84-.678 1.518-1.519 1.518H3.806c-.84 0-1.519-.678-1.519-1.518v-1.739c0-.84.678-1.518 1.519-1.518h33.188c.84 0 1.519.678 1.519 1.518"/><path fill="#A4A1AE" d="M38.512 33.398v1.738c0 .84-.678 1.518-1.518 1.518H3.805c-.84 0-1.518-.678-1.518-1.518v-.85c4.269.735 9.512 1.174 15.185 1.174 8.624 0 16.255-1.002 20.954-2.54.058.143.086.306.086.477"/><path fill="#FEFEFE" d="M35.83 13.527V31.88H4.97V13.527a2.706 2.706 0 0 1 2.703-2.702h25.452a2.706 2.706 0 0 1 2.703 2.702"/><path fill="#E3EBED" d="M35.83 14.555v-1.028a2.706 2.706 0 0 0-2.704-2.702H7.674a2.706 2.706 0 0 0-2.703 2.702v1.028z"/><path fill="#4B4952" d="M35.83 14.933H4.97a.377.377 0 0 1-.377-.378v-1.028a3.084 3.084 0 0 1 3.081-3.08h25.453a3.084 3.084 0 0 1 3.08 3.08v1.028a.377.377 0 0 1-.378.378m-30.482-.755h30.104v-.65a2.33 2.33 0 0 0-2.325-2.326H7.674a2.33 2.33 0 0 0-2.326 2.325z"/><path fill="#EFEFEF" d="M35.828 19.788v12.09H4.97v-5.433c3.161 1.07 6.877 1.69 10.85 1.69 9.474 0 17.478-3.524 20.008-8.347"/><path fill="#4B4952" d="M36.995 37.032H3.805a1.9 1.9 0 0 1-1.895-1.896v-1.739c0-1.045.85-1.895 1.895-1.895h33.19c1.045 0 1.895.85 1.895 1.895v1.739c0 1.045-.85 1.896-1.895 1.896m-33.19-4.776c-.629 0-1.14.512-1.14 1.141v1.739c0 .629.511 1.14 1.14 1.14h33.19c.629 0 1.14-.511 1.14-1.14v-1.739c0-.629-.511-1.14-1.14-1.14z"/><path fill="#4B4952" d="M35.83 32.256H4.97a.377.377 0 0 1-.377-.377V13.527a3.084 3.084 0 0 1 3.081-3.08h25.453a3.084 3.084 0 0 1 3.08 3.08V31.88a.377.377 0 0 1-.378.377m-30.482-.754h30.104V13.527a2.33 2.33 0 0 0-2.325-2.325H7.674a2.33 2.33 0 0 0-2.326 2.325z"/><path fill="#fff" d="m25.015 31.876-1.383 2.39h-6.463l-1.383-2.39z"/><path fill="#4B4952" d="M23.631 34.644H17.17a.38.38 0 0 1-.326-.189l-1.384-2.39a.377.377 0 0 1 .326-.567h9.23a.378.378 0 0 1 .326.567l-1.383 2.39a.38.38 0 0 1-.327.189m-6.244-.755h6.027l.946-1.636h-7.92z"/><path fill="#fff" d="M8.177 13.294a.605.605 0 1 0 0-1.209.605.605 0 0 0 0 1.21M10.475 13.294a.605.605 0 1 0 0-1.209.605.605 0 0 0 0 1.21M12.774 13.294a.605.605 0 1 0 0-1.209.605.605 0 0 0 0 1.21"/><path fill="#4B4952" d="M10.452 27.073a.57.57 0 0 1-.163-.416q0-.103.066-.26l3.313-7.823a1 1 0 0 1 .293-.384q.188-.15.461-.15h.13a.72.72 0 0 1 .462.15q.188.15.292.384l3.314 7.823q.065.157.065.26a.58.58 0 0 1-.162.416.56.56 0 0 1-.423.17.6.6 0 0 1-.331-.098.6.6 0 0 1-.228-.267l-.845-2.027h-4.419l-.844 2.027a.6.6 0 0 1-.227.267.6.6 0 0 1-.332.097.56.56 0 0 1-.422-.169m2.281-3.3h3.508l-1.754-4.224zM20.765 27.073a.56.56 0 0 1-.17-.416v-7.954q0-.246.17-.422a.55.55 0 0 1 .416-.175h2.963q1.235 0 2.014.415.78.416 1.118 1.067.337.649.337 1.403t-.337 1.404-1.118 1.065q-.779.416-2.014.416h-2.366v2.781a.55.55 0 0 1-.175.416.59.59 0 0 1-.422.17.56.56 0 0 1-.416-.17m3.262-4.314q1.326 0 1.864-.507.54-.507.54-1.26 0-.755-.54-1.262-.539-.507-1.864-.507h-2.249v3.536zM29.498 27.073a.56.56 0 0 1-.17-.416V18.64q0-.248.17-.423a.55.55 0 0 1 .416-.175q.246 0 .422.175a.57.57 0 0 1 .175.423v8.018a.55.55 0 0 1-.175.416.59.59 0 0 1-.422.17.56.56 0 0 1-.416-.17"/></svg>