<svg width="41" height="40" viewBox="0 0 41 40" fill="none" xmlns="http://www.w3.org/2000/svg">
<path d="M27.8784 9.85936V11.7896C27.8784 12.1446 27.5879 12.4351 27.2329 12.4351H26.3872C26.271 12.9774 26.0838 13.4938 25.832 13.978L26.3743 14.5138C26.626 14.7656 26.626 15.1787 26.3743 15.4305L25.0057 16.7991C24.7539 17.0508 24.3408 17.0508 24.089 16.7991L23.6307 16.3407C23.1336 16.6441 22.5913 16.883 22.0103 17.0379V17.6577C22.0103 18.0127 21.7198 18.3032 21.3648 18.3032H19.4346C19.0795 18.3032 18.789 18.0127 18.789 17.6577V17.0379C18.208 16.883 17.6657 16.6441 17.1751 16.3343L16.7103 16.7991C16.4586 17.0508 16.0454 17.0508 15.7936 16.7991L14.4315 15.4305C14.1733 15.1787 14.1733 14.7656 14.4315 14.5138L14.9738 13.978C14.7156 13.4938 14.5284 12.9774 14.4121 12.4351H13.5665C13.2114 12.4351 12.9209 12.1446 12.9209 11.7896V9.85936C12.9209 9.50432 13.2114 9.21381 13.5665 9.21381H14.5606C14.7156 8.74257 14.9221 8.29713 15.1803 7.88397L14.4251 7.13514C14.1733 6.88337 14.1733 6.4702 14.4251 6.21843L15.7936 4.85632C16.0454 4.59808 16.4586 4.59808 16.7103 4.85632L17.5366 5.68265C17.9369 5.47606 18.3565 5.30821 18.789 5.19202V3.99772C18.789 3.63621 19.0795 3.3457 19.4346 3.3457H21.3648C21.7198 3.3457 22.0103 3.63621 22.0103 3.99772V5.19202C22.4493 5.30821 22.8689 5.4696 23.2692 5.68265L24.089 4.85632C24.3408 4.60454 24.7539 4.60454 25.0057 4.85632L26.3743 6.21843C26.626 6.4702 26.626 6.88337 26.3743 7.13514L25.619 7.88397C25.8772 8.29713 26.0838 8.74257 26.2387 9.21381H27.2329C27.5879 9.21381 27.8784 9.50432 27.8784 9.85936Z" fill="#605E67"/>
<path d="M20.3999 14.0634C22.1889 14.0634 23.6391 12.6131 23.6391 10.8241C23.6391 9.03516 22.1889 7.5849 20.3999 7.5849C18.6109 7.5849 17.1606 9.03516 17.1606 10.8241C17.1606 12.6131 18.6109 14.0634 20.3999 14.0634Z" fill="white"/>
<path d="M21.3651 18.6807H19.4348C18.871 18.6807 18.4118 18.2219 18.4118 17.6577V17.3209C18.002 17.1912 17.6077 17.0198 17.234 16.809L16.9768 17.0659C16.5928 17.4517 15.9118 17.4525 15.5271 17.0659L14.1643 15.6965C13.9697 15.5074 13.8606 15.2487 13.8606 14.972C13.8606 14.6956 13.9697 14.4369 14.1687 14.2434L14.5129 13.9026C14.3478 13.5547 14.2144 13.1899 14.1142 12.8125H13.5666C13.0027 12.8125 12.5436 12.3537 12.5436 11.7895V9.85923C12.5436 9.2954 13.0027 8.8366 13.5666 8.8366H14.2933C14.4097 8.52631 14.5476 8.22782 14.706 7.9448L14.1599 7.40308C13.9653 7.20924 13.8592 6.95165 13.8592 6.67674C13.8592 6.40183 13.9653 6.14424 14.1584 5.95114L15.5278 4.58874C15.9052 4.19996 16.5943 4.19627 16.9805 4.59316L17.6129 5.2248C17.8782 5.10061 18.145 4.99521 18.4118 4.90972V3.99764C18.4118 3.43013 18.871 2.96838 19.4348 2.96838H21.3651C21.9289 2.96838 22.3873 3.43013 22.3873 3.99764V4.90824C22.6659 4.99521 22.9357 5.10061 23.1936 5.22258L23.8216 4.59058C24.2078 4.20254 24.8866 4.20327 25.2728 4.58911L26.6407 5.95077C27.0409 6.35134 27.0409 7.00214 26.6415 7.40198L26.0938 7.94517C26.2516 8.22782 26.3894 8.52631 26.5058 8.8366H27.2326C27.7964 8.8366 28.2555 9.2954 28.2555 9.85923V11.7895C28.2555 12.3537 27.7964 12.8125 27.2326 12.8125H26.6849C26.5862 13.1858 26.4543 13.5503 26.2906 13.9007L26.64 14.2453C27.0409 14.647 27.0409 15.2974 26.6415 15.6972L25.2728 17.0659C24.8866 17.4525 24.2071 17.4517 23.8223 17.0659L23.5688 16.8127C23.1892 17.0224 22.7934 17.1927 22.3873 17.3209V17.6577C22.3873 18.2219 21.9289 18.6807 21.3651 18.6807ZM17.1751 15.957C17.2443 15.957 17.3144 15.9762 17.3763 16.0153C17.8428 16.3093 18.3506 16.5308 18.8864 16.6731C19.0515 16.7173 19.1665 16.8669 19.1665 17.0379V17.6577C19.1665 17.8033 19.2896 17.926 19.4348 17.926H21.3651C21.5103 17.926 21.6326 17.8033 21.6326 17.6577V17.0379C21.6326 16.8669 21.7476 16.7173 21.9127 16.6731C22.4411 16.5327 22.9526 16.3123 23.4339 16.0186C23.5828 15.9279 23.7729 15.9497 23.8975 16.0739L24.3559 16.5323C24.4562 16.6333 24.6375 16.6336 24.7392 16.5319L26.1078 15.1636C26.211 15.0601 26.211 14.8843 26.1078 14.7807L25.5669 14.2468C25.4497 14.1303 25.4209 13.9512 25.4976 13.8042C25.7349 13.3465 25.9103 12.8593 26.0179 12.3559C26.0555 12.182 26.2096 12.0578 26.3872 12.0578H27.2326C27.3807 12.0578 27.5008 11.9373 27.5008 11.7895V9.85923C27.5008 9.71146 27.3807 9.59132 27.2326 9.59132H26.239C26.0762 9.59132 25.9317 9.48703 25.8808 9.33225C25.7334 8.88635 25.5381 8.46625 25.2993 8.08373C25.2057 7.93448 25.2286 7.7399 25.3539 7.61608L26.1093 6.86726C26.2118 6.76445 26.2118 6.58904 26.1078 6.48511L24.7399 5.12382C24.6367 5.02138 24.4562 5.02211 24.3559 5.12309L23.5364 5.94819C23.4192 6.06685 23.2379 6.09375 23.0912 6.01563C22.7264 5.82105 22.3298 5.66701 21.9134 5.55683C21.7483 5.51297 21.6326 5.36336 21.6326 5.192V3.99764C21.6326 3.84618 21.5125 3.7231 21.3651 3.7231H19.4348C19.2867 3.7231 19.1665 3.84618 19.1665 3.99764V5.192C19.1665 5.36262 19.0515 5.51224 18.8872 5.55646C18.4966 5.66112 18.1008 5.81663 17.7101 6.01784C17.5635 6.09338 17.3859 6.06575 17.2701 5.94929L16.4432 5.12309C16.3363 5.01401 16.1653 5.01695 16.0644 5.1194L14.6913 6.48585C14.6412 6.5356 14.6139 6.60378 14.6139 6.67674C14.6139 6.74971 14.6412 6.81788 14.692 6.868L15.446 7.61608C15.5713 7.74027 15.5941 7.93485 15.5005 8.0841C15.261 8.46625 15.0657 8.88598 14.919 9.33152C14.8682 9.48666 14.7237 9.59132 14.5608 9.59132H13.5666C13.4184 9.59132 13.2983 9.71146 13.2983 9.85923V11.7895C13.2983 11.9373 13.4184 12.0578 13.5666 12.0578H14.4119C14.5896 12.0578 14.7436 12.182 14.7812 12.3559C14.8903 12.8652 15.0672 13.3513 15.3067 13.8009C15.3848 13.9479 15.3576 14.1292 15.2389 14.2464L14.6972 14.7822C14.6434 14.8345 14.6154 14.9012 14.6154 14.972C14.6154 15.0431 14.6434 15.1098 14.695 15.1599L16.0614 16.533C16.1609 16.6329 16.3437 16.6329 16.4432 16.5323L16.9083 16.0676C16.9812 15.9946 17.0778 15.957 17.1751 15.957Z" fill="#4B4952"/>
<path d="M20.3996 14.4413C18.4052 14.4413 16.783 12.8188 16.783 10.8244C16.783 8.82997 18.4052 7.2074 20.3996 7.2074C22.394 7.2074 24.0169 8.82997 24.0169 10.8244C24.0169 12.8188 22.394 14.4413 20.3996 14.4413ZM20.3996 7.96211C18.8216 7.96211 17.5377 9.24602 17.5377 10.8244C17.5377 12.4027 18.8216 13.6866 20.3996 13.6866C21.9783 13.6866 23.2622 12.4027 23.2622 10.8244C23.2622 9.24602 21.9783 7.96211 20.3996 7.96211Z" fill="#4B4952"/>
<path d="M38.5129 33.3974V35.1357C38.5129 35.9761 37.8348 36.6542 36.9943 36.6542H3.80576C2.96535 36.6542 2.28723 35.9761 2.28723 35.1357V33.3974C2.28723 32.557 2.96535 31.8789 3.80576 31.8789H36.9943C37.8348 31.8789 38.5129 32.557 38.5129 33.3974Z" fill="#E3EBED"/>
<path d="M38.5122 33.3975V35.1357C38.5122 35.9761 37.8341 36.6543 36.9937 36.6543H3.80508C2.96462 36.6543 2.2865 35.9761 2.2865 35.1357V34.2857C6.55562 35.0211 11.799 35.4604 17.4721 35.4604C26.0963 35.4604 33.7273 34.4576 38.4263 32.9199C38.4836 33.0632 38.5122 33.2256 38.5122 33.3975Z" fill="#A4A1AE"/>
<path d="M35.8292 13.5273V31.8789H4.97095V13.5273C4.97095 12.0374 6.1839 10.8245 7.6738 10.8245H33.1263C34.6162 10.8245 35.8292 12.0374 35.8292 13.5273Z" fill="#FEFEFE"/>
<path d="M35.8292 14.5552V13.5273C35.8292 12.0374 34.6162 10.8245 33.1263 10.8245H7.67379C6.18392 10.8245 4.97095 12.0374 4.97095 13.5273V14.5552H35.8292Z" fill="#E3EBED"/>
<path d="M35.8293 14.9326H4.97062C4.76204 14.9326 4.59326 14.7638 4.59326 14.5552V13.5274C4.59326 11.8289 5.97519 10.447 7.67404 10.447H33.1266C34.8247 10.447 36.2066 11.8289 36.2066 13.5274V14.5552C36.2066 14.7638 36.0378 14.9326 35.8293 14.9326ZM5.34798 14.1779H35.4519V13.5274C35.4519 12.245 34.409 11.2017 33.1266 11.2017H7.67404C6.39161 11.2017 5.34798 12.245 5.34798 13.5274V14.1779Z" fill="#4B4952"/>
<path d="M35.8284 19.7877V31.8789H4.97021V26.4446C8.13148 27.5142 11.8467 28.135 15.8198 28.135C25.2941 28.135 33.2975 24.6109 35.8284 19.7877Z" fill="#EFEFEF"/>
<path d="M36.9945 37.0316H3.80543C2.76032 37.0316 1.90979 36.1811 1.90979 35.1356V33.3973C1.90979 32.3522 2.76032 31.5017 3.80543 31.5017H36.9945C38.0397 31.5017 38.8902 32.3522 38.8902 33.3973V35.1356C38.8902 36.1811 38.0397 37.0316 36.9945 37.0316ZM3.80543 32.2564C3.176 32.2564 2.66451 32.7683 2.66451 33.3973V35.1356C2.66451 35.765 3.176 36.2769 3.80543 36.2769H36.9945C37.624 36.2769 38.1355 35.765 38.1355 35.1356V33.3973C38.1355 32.7683 37.624 32.2564 36.9945 32.2564H3.80543Z" fill="#4B4952"/>
<path d="M35.8293 32.2564H4.97062C4.76204 32.2564 4.59326 32.0876 4.59326 31.8791V13.5274C4.59326 11.8289 5.97519 10.447 7.67404 10.447H33.1266C34.8247 10.447 36.2066 11.8289 36.2066 13.5274V31.8791C36.2066 32.0876 36.0378 32.2564 35.8293 32.2564ZM5.34798 31.5017H35.4519V13.5274C35.4519 12.245 34.409 11.2017 33.1266 11.2017H7.67404C6.39161 11.2017 5.34798 12.245 5.34798 13.5274V31.5017Z" fill="#4B4952"/>
<path d="M25.0151 31.8763L23.6317 34.2665H17.169L15.7856 31.8763H25.0151Z" fill="white"/>
<path d="M23.6314 34.6437H17.1692C17.0343 34.6437 16.9097 34.5718 16.8427 34.4554L15.4585 32.0648C15.3907 31.948 15.3907 31.8043 15.4578 31.6875C15.5256 31.5703 15.6502 31.4984 15.785 31.4984H25.0148C25.1497 31.4984 25.2743 31.5703 25.3421 31.6871C25.4092 31.8043 25.4092 31.948 25.3414 32.0648L23.958 34.4554C23.8909 34.5718 23.7663 34.6437 23.6314 34.6437ZM17.3866 33.889H23.414L24.3604 32.2531H16.4395L17.3866 33.889Z" fill="#4B4952"/>
<path d="M8.17655 13.2944C8.51042 13.2944 8.78108 13.0237 8.78108 12.6899C8.78108 12.356 8.51042 12.0853 8.17655 12.0853C7.84268 12.0853 7.57202 12.356 7.57202 12.6899C7.57202 13.0237 7.84268 13.2944 8.17655 13.2944Z" fill="white"/>
<path d="M10.4746 13.2944C10.8085 13.2944 11.0792 13.0237 11.0792 12.6899C11.0792 12.356 10.8085 12.0853 10.4746 12.0853C10.1408 12.0853 9.87012 12.356 9.87012 12.6899C9.87012 13.0237 10.1408 13.2944 10.4746 13.2944Z" fill="white"/>
<path d="M12.7735 13.2944C13.1073 13.2944 13.378 13.0237 13.378 12.6899C13.378 12.356 13.1073 12.0853 12.7735 12.0853C12.4396 12.0853 12.1689 12.356 12.1689 12.6899C12.1689 13.0237 12.4396 13.2944 12.7735 13.2944Z" fill="white"/>
<path d="M10.4518 27.0731C10.3429 26.961 10.2889 26.8219 10.2889 26.6575C10.2889 26.5882 10.3112 26.5015 10.3545 26.3973L13.6681 18.5738C13.7379 18.4178 13.8353 18.2898 13.9611 18.1904C14.0859 18.091 14.2403 18.0408 14.4223 18.0408H14.5523C14.7343 18.0408 14.8876 18.091 15.0135 18.1904C15.1393 18.2898 15.2366 18.4178 15.3064 18.5738L18.6201 26.3973C18.6634 26.5015 18.6846 26.5882 18.6846 26.6575C18.6846 26.8219 18.6307 26.961 18.5228 27.0731C18.4138 27.1858 18.2732 27.2424 18.0997 27.2424C17.9791 27.2424 17.8681 27.2096 17.7687 27.1451C17.6692 27.08 17.5931 26.9912 17.5413 26.8785L16.6962 24.851H12.2773L11.4333 26.8785C11.3815 26.9912 11.3053 27.08 11.2059 27.1451C11.1054 27.2096 10.9955 27.2424 10.8738 27.2424C10.7004 27.2424 10.5597 27.1858 10.4518 27.0731ZM12.7332 23.7722H16.2414L14.4868 19.5485L12.7332 23.7722Z" fill="#4B4952"/>
<path d="M20.765 27.0731C20.6519 26.961 20.5958 26.822 20.5958 26.6575V18.7034C20.5958 18.5389 20.6519 18.3983 20.765 18.2814C20.8772 18.1645 21.0157 18.1058 21.1807 18.1058H24.1443C24.9671 18.1058 25.6387 18.2444 26.158 18.5215C26.6784 18.7991 27.0507 19.1545 27.276 19.5876C27.5012 20.0207 27.6134 20.4887 27.6134 20.9911C27.6134 21.4935 27.5012 21.9615 27.276 22.3946C27.0507 22.8277 26.6784 23.1831 26.158 23.4602C25.6387 23.7378 24.9671 23.8764 24.1443 23.8764H21.7783V26.6575C21.7783 26.822 21.7201 26.961 21.6027 27.0731C21.4864 27.1858 21.3446 27.2424 21.1807 27.2424C21.0157 27.2424 20.8772 27.1858 20.765 27.0731ZM24.0269 22.7585C24.9111 22.7585 25.5319 22.5898 25.8915 22.2518C26.2511 21.9139 26.4309 21.4935 26.4309 20.9911C26.4309 20.4887 26.2511 20.0683 25.8915 19.7304C25.5319 19.3925 24.9111 19.2232 24.0269 19.2232H21.7783V22.7585H24.0269Z" fill="#4B4952"/>
<path d="M29.4981 27.0731C29.3849 26.961 29.3289 26.8219 29.3289 26.6575V18.6389C29.3289 18.4744 29.3849 18.3332 29.4981 18.2163C29.6102 18.0995 29.7487 18.0408 29.9137 18.0408C30.0777 18.0408 30.2194 18.0995 30.3357 18.2163C30.4531 18.3332 30.5113 18.4744 30.5113 18.6389V26.6575C30.5113 26.8219 30.4531 26.961 30.3357 27.0731C30.2194 27.1858 30.0777 27.2424 29.9137 27.2424C29.7487 27.2424 29.6102 27.1858 29.4981 27.0731Z" fill="#4B4952"/>
</svg>
