<svg width="17" height="17" viewBox="0 0 17 17" fill="none" xmlns="http://www.w3.org/2000/svg">
<path d="M11.0429 8.73321C11.1069 8.66636 11.157 8.58753 11.1905 8.50125C11.2608 8.33012 11.2608 8.13817 11.1905 7.96703C11.157 7.88075 11.1069 7.80192 11.0429 7.73507L8.93412 5.62632C8.80176 5.49396 8.62224 5.4196 8.43505 5.4196C8.24787 5.4196 8.06834 5.49396 7.93598 5.62632C7.80362 5.75868 7.72926 5.9382 7.72926 6.12539C7.72926 6.31258 7.80362 6.4921 7.93598 6.62446L8.84977 7.53122H6.3263C6.13988 7.53122 5.96109 7.60528 5.82927 7.7371C5.69744 7.86893 5.62339 8.04772 5.62339 8.23414C5.62339 8.42057 5.69744 8.59936 5.82927 8.73118C5.96109 8.863 6.13988 8.93706 6.3263 8.93706H8.84977L7.93598 9.84382C7.8701 9.90917 7.81781 9.98691 7.78212 10.0726C7.74643 10.1582 7.72806 10.2501 7.72806 10.3429C7.72806 10.4357 7.74643 10.5276 7.78212 10.6132C7.81781 10.6989 7.8701 10.7766 7.93598 10.842C8.00133 10.9078 8.07907 10.9601 8.16473 10.9958C8.25039 11.0315 8.34226 11.0499 8.43505 11.0499C8.52785 11.0499 8.61972 11.0315 8.70538 10.9958C8.79104 10.9601 8.86878 10.9078 8.93412 10.842L11.0429 8.73321ZM15.4642 8.23414C15.4642 6.8439 15.052 5.48489 14.2796 4.32895C13.5072 3.173 12.4094 2.27206 11.125 1.74004C9.84059 1.20802 8.42726 1.06882 7.06373 1.34004C5.70021 1.61126 4.44773 2.28072 3.46468 3.26377C2.48164 4.24682 1.81217 5.49929 1.54095 6.86282C1.26973 8.22634 1.40893 9.63968 1.94095 10.9241C2.47297 12.2085 3.37392 13.3063 4.52986 14.0787C5.6858 14.8511 7.04482 15.2633 8.43505 15.2633C10.2993 15.2633 12.0872 14.5227 13.4054 13.2045C14.7236 11.8863 15.4642 10.0984 15.4642 8.23414V8.23414ZM2.81172 8.23414C2.81172 7.12195 3.14152 6.03474 3.75942 5.10998C4.37732 4.18523 5.25557 3.46448 6.2831 3.03886C7.31063 2.61324 8.44129 2.50188 9.53211 2.71886C10.6229 2.93584 11.6249 3.47141 12.4114 4.25784C13.1978 5.04428 13.7334 6.04626 13.9503 7.13708C14.1673 8.2279 14.056 9.35857 13.6303 10.3861C13.2047 11.4136 12.484 12.2919 11.5592 12.9098C10.6345 13.5277 9.54724 13.8575 8.43505 13.8575C6.94365 13.8575 5.51334 13.265 4.45876 12.2104C3.40418 11.1559 2.81172 9.72554 2.81172 8.23414V8.23414Z" fill="#E3EBED"/>
</svg>
