<svg width="41" height="40" viewBox="0 0 41 40" fill="none" xmlns="http://www.w3.org/2000/svg">
<path d="M16.9582 23.9557L20.78 27.7775C21.1935 35.0523 15.7905 41.137 5.28609 34.7673C4.55414 34.3259 4.6603 33.2364 5.4593 32.9403C6.81144 32.4262 8.35917 31.2473 8.90673 28.5653C9.96276 23.3969 14.0025 22.2627 16.9582 23.9557Z" fill="#E3EBED"/>
<path d="M5.28285 34.7639C4.55022 34.3243 4.66227 33.2384 5.45524 32.9367C5.73105 32.8333 6.01543 32.6954 6.29986 32.5316C7.51509 33.3073 8.91996 33.7468 10.411 33.7468C14.617 33.7468 18.099 30.2562 18.6937 25.6883L20.7794 27.774C21.1931 35.0483 15.7892 41.1332 5.28285 34.7639Z" fill="#A4A1AE"/>
<path d="M37.2854 7.33869L37.2909 7.34418C39.2615 9.31483 39.1737 12.5426 37.0932 14.3925L22.9253 27.0563L17.5732 21.7042L30.2371 7.53633C32.087 5.45586 35.3147 5.36801 37.2854 7.33869Z" fill="white"/>
<path d="M37.2853 7.33864L37.2909 7.34423C38.1402 8.19353 38.6039 9.27186 38.6933 10.367C35.6537 10.1323 30.5692 12.8702 25.9652 17.4742C23.5905 19.8489 21.7187 22.3464 20.4839 24.6205L17.5729 21.7095L30.2395 7.53418C32.0834 5.45568 35.3129 5.3663 37.2853 7.33864Z" fill="#EFEFEF"/>
<path d="M37.2853 7.33864L37.2909 7.34423C37.3971 7.45039 37.4977 7.56215 37.587 7.6739C37.6485 7.73536 37.6932 7.8024 37.7379 7.86945C37.805 7.94768 37.8608 8.02591 37.9111 8.1097C38.0005 8.23265 38.0732 8.36115 38.1402 8.49524C38.1905 8.59021 38.2408 8.68523 38.2855 8.78579C38.3413 8.9087 38.3916 9.02605 38.4308 9.15458C38.4754 9.2663 38.509 9.38921 38.5481 9.50656C38.5872 9.66858 38.6207 9.83623 38.6487 10.0094C38.6654 10.1268 38.6822 10.2441 38.6934 10.367C38.8163 11.8309 38.2799 13.3395 37.0954 14.39L35.1957 16.0886L28.541 9.43392L30.2396 7.53418C32.0834 5.45568 35.313 5.3663 37.2853 7.33864Z" fill="#928F9F"/>
<path d="M37.2853 7.33864L37.2909 7.34423C37.3971 7.45039 37.4977 7.56215 37.587 7.6739C37.6485 7.73536 37.6932 7.8024 37.7379 7.86945C37.805 7.94768 37.8608 8.02591 37.9111 8.10971C38.0005 8.23265 38.0732 8.36115 38.1402 8.49524C38.1905 8.59021 38.2408 8.68523 38.2855 8.78579C38.3413 8.9087 38.3916 9.02605 38.4308 9.15458C38.4754 9.2663 38.509 9.38921 38.5481 9.50656C38.5872 9.66858 38.6207 9.83623 38.6487 10.0094C38.6654 10.1268 38.6822 10.2441 38.6934 10.367C36.9333 10.2274 34.486 11.0878 31.8488 12.7417L28.541 9.43392L30.2396 7.53418C32.0834 5.45568 35.313 5.3663 37.2853 7.33864Z" fill="#605E67"/>
<path d="M35.194 16.4676C35.0974 16.4676 35.0009 16.4307 34.9272 16.357L28.2726 9.7024C28.131 9.56089 28.1244 9.33315 28.2582 9.18427L29.9559 7.28495C30.917 6.20373 32.2459 5.58388 33.6971 5.54114C35.1549 5.50502 36.5228 6.04232 37.5525 7.07194C38.5873 8.10673 39.1312 9.47613 39.0884 10.9325C39.0457 12.3837 38.4259 13.7126 37.3439 14.6744L35.4453 16.3718C35.3738 16.4359 35.2839 16.4676 35.194 16.4676ZM29.0586 9.42085L35.2087 15.5714L36.842 14.1106C37.7677 13.288 38.2976 12.1515 38.3337 10.9104C38.3706 9.66407 37.9055 8.4922 37.024 7.61071C36.1374 6.72333 34.9581 6.25384 33.7192 6.29585C32.478 6.33197 31.3415 6.86189 30.5198 7.78686L29.0586 9.42085Z" fill="#4B4952"/>
<path d="M13.2202 37.8281C11.1359 37.8281 8.45864 37.1324 5.09042 35.0901C4.62831 34.8115 4.37219 34.3036 4.42267 33.7656C4.47353 33.2268 4.8203 32.7743 5.32811 32.5864C7.03397 31.9385 8.11445 30.5595 8.53713 28.49C9.05269 25.9656 10.3347 24.1245 12.1471 23.3057C13.7225 22.5937 15.5448 22.7102 17.146 23.6285C17.1751 23.6447 17.2016 23.6654 17.2252 23.689L21.0467 27.5105C21.1123 27.5761 21.1514 27.663 21.1565 27.7559C21.3857 31.7837 19.9146 35.1549 17.2219 36.7734C16.2538 37.3557 14.9382 37.8281 13.2202 37.8281ZM14.2911 23.6005C13.6606 23.6005 13.0389 23.731 12.4578 23.9934C10.8724 24.7097 9.74254 26.3607 9.27637 28.6411C8.68122 31.5553 6.94515 32.7795 5.59344 33.2932C5.35354 33.3816 5.19803 33.5843 5.17407 33.8364C5.15049 34.087 5.26547 34.314 5.48105 34.4444C11.3039 37.9755 14.8678 37.3078 16.8331 36.1271C19.2502 34.6736 20.5817 31.6209 20.4107 27.9416L16.7277 24.2587C15.948 23.8216 15.1125 23.6005 14.2911 23.6005Z" fill="#4B4952"/>
<path d="M22.9253 27.4338C22.8284 27.4338 22.7319 27.397 22.6585 27.3233L17.3062 21.971C17.1647 21.8295 17.1581 21.6017 17.2919 21.4528L29.9551 7.28495C30.9169 6.20299 32.2458 5.58388 33.697 5.54114C35.1549 5.50502 36.5228 6.04232 37.5524 7.07194L37.5576 7.0771C38.5872 8.10673 39.1311 9.47613 39.0884 10.9325C39.0456 12.3837 38.4265 13.7126 37.3438 14.6751L23.1767 27.338C23.1052 27.4021 23.0153 27.4338 22.9253 27.4338ZM18.0923 21.6894L22.9397 26.5376L36.8419 14.1113C37.7676 13.288 38.2975 12.1515 38.3337 10.9104C38.3705 9.66407 37.9054 8.4922 37.024 7.61071L37.0188 7.60555C36.1381 6.72407 34.9809 6.259 33.7191 6.29585C32.478 6.33197 31.3415 6.86189 30.519 7.78686L18.0923 21.6894Z" fill="#4B4952"/>
<path d="M15.1759 20.9105C15.8352 20.2512 16.9024 20.2456 17.5673 20.9105L23.7191 27.0623C24.384 27.7272 24.3784 28.7944 23.7191 29.4537C23.3894 29.7834 22.9536 29.9509 22.529 29.951C22.0931 29.951 21.6573 29.7833 21.3277 29.4537L15.1759 23.3019C14.511 22.637 14.5166 21.5698 15.1759 20.9105Z" fill="#928F9F"/>
<path d="M15.1759 20.9105C15.8352 20.2512 16.9024 20.2456 17.5673 20.9105L23.719 27.0623C24.3839 27.7272 24.3784 28.7944 23.7191 29.4537C23.5515 29.6213 23.3559 29.7498 23.1436 29.8281C22.6966 28.5206 21.3947 26.6488 19.5844 24.8385C17.8858 23.1399 16.1313 21.8883 14.8518 21.3687C14.93 21.2011 15.0418 21.0446 15.1759 20.9105Z" fill="#605E67"/>
<path d="M22.5288 30.3282C21.9742 30.3282 21.4528 30.1122 21.0607 29.7209L14.9091 23.5689C14.1027 22.7626 14.1027 21.4507 14.9091 20.6436C15.7154 19.8373 17.0276 19.8373 17.834 20.6436L23.9859 26.7956C24.7922 27.6019 24.7922 28.9138 23.9859 29.7209C23.5994 30.1071 23.0683 30.3282 22.5288 30.3282ZM15.4427 21.1772C14.9308 21.6895 14.9308 22.523 15.4427 23.0353L21.5943 29.1872C22.0848 29.6774 22.9519 29.6869 23.4523 29.1872C23.9642 28.675 23.9646 27.8414 23.4523 27.3292L17.3003 21.1772C16.7881 20.6657 15.9549 20.6657 15.4427 21.1772Z" fill="#4B4952"/>
<path d="M14.2538 4.92132C14.2926 5.49677 13.933 6.03352 13.4869 6.39909C13.0408 6.76465 12.5064 7.00327 12.0192 7.31192C11.532 7.62057 11.0695 8.03174 10.9001 8.58304C10.673 9.3219 11.0458 10.1451 11.6352 10.6451C12.2246 11.1452 12.9914 11.3799 13.7462 11.5463C14.9101 11.8029 16.1032 11.9267 17.295 11.9148C17.7421 11.9103 18.2007 11.8842 18.6103 11.7048C19.0199 11.5255 19.3755 11.1627 19.4291 10.7188C19.4937 10.1837 19.133 9.5854 19.4298 9.1354C19.7332 8.67554 20.4169 8.79537 20.9672 8.76886C21.8345 8.72708 22.6504 8.1334 22.957 7.32106C23.2636 6.50872 23.0435 5.52396 22.4201 4.91954C21.883 4.39873 21.1293 4.18145 20.4081 3.98228C18.966 3.58401 17.5239 3.18573 16.0818 2.78746C15.4978 2.62617 14.8842 2.46391 14.2938 2.60011C13.8419 2.7044 13.1249 3.197 13.2935 3.74638C13.4484 4.25099 14.2052 4.19951 14.2538 4.92132Z" fill="#E3EBED"/>
<path d="M22.953 7.31853C22.6513 8.13728 21.8326 8.72335 20.9707 8.76648C20.4191 8.79231 19.7296 8.67164 19.4279 9.13709C19.1349 9.58523 19.4968 10.1799 19.4279 10.7229C19.3762 11.1625 19.0228 11.5245 18.6091 11.7055C18.204 11.8865 17.7386 11.9123 17.2991 11.9123C16.101 11.9296 14.9116 11.8003 13.7481 11.5503C12.9897 11.378 12.2226 11.1452 11.6365 10.6454C11.2314 10.3092 10.9384 9.81795 10.8608 9.31805C11.5676 9.65419 12.3691 9.83521 13.2051 9.83521C16.2131 9.83521 18.6436 7.49949 18.6436 4.61222C18.6436 4.21573 18.6005 3.82788 18.5057 3.45728C19.1349 3.62966 19.7726 3.81068 20.4104 3.98301C21.1258 4.18128 21.8843 4.39675 22.4186 4.92248C23.0478 5.52581 23.2633 6.50836 22.953 7.31853Z" fill="#A4A1AE"/>
<path d="M17.1398 12.2931C15.9723 12.2931 14.8045 12.1663 13.6654 11.915C12.9184 11.7506 12.0646 11.5045 11.3909 10.9325C10.7564 10.3945 10.2467 9.4253 10.5393 8.47232C10.7114 7.91218 11.1297 7.42795 11.8177 6.9931C11.9949 6.88107 12.1788 6.77715 12.3627 6.67323C12.6826 6.49266 12.9848 6.32241 13.2479 6.10719C13.6676 5.763 13.9031 5.32889 13.8773 4.94637C13.8633 4.7378 13.7656 4.66852 13.5268 4.51742C13.3105 4.38034 13.0411 4.21008 12.9328 3.85705C12.8521 3.59466 12.8882 3.32049 13.0367 3.06327C13.2928 2.61884 13.8242 2.32108 14.209 2.23264C14.9069 2.07049 15.6141 2.26654 16.1824 2.42426L20.5083 3.61825C21.2008 3.80988 22.0627 4.0472 22.6829 4.64862C23.4097 5.35395 23.6676 6.5074 23.3102 7.45448C22.9523 8.4023 21.9964 9.09732 20.9852 9.14522C20.8688 9.15112 20.7464 9.15038 20.6215 9.15038C20.1719 9.14891 19.8657 9.1607 19.7448 9.34349C19.656 9.47836 19.6851 9.68031 19.744 9.99649C19.7872 10.2301 19.8362 10.4947 19.8037 10.7645C19.7385 11.3047 19.3391 11.7978 18.7616 12.0506C18.2711 12.2651 17.7493 12.2879 17.2986 12.2923C17.2455 12.2931 17.1925 12.2931 17.1398 12.2931ZM14.7639 2.92692C14.6328 2.92692 14.5038 2.93945 14.3785 2.96819C14.1467 3.02126 13.815 3.22394 13.6901 3.43989C13.6341 3.53718 13.6429 3.59835 13.6544 3.63594C13.6794 3.71775 13.7708 3.77819 13.9304 3.87916C14.1931 4.04573 14.59 4.29632 14.6305 4.89626C14.6729 5.53084 14.3435 6.18458 13.7262 6.69092C13.4126 6.94814 13.0673 7.14272 12.7334 7.33066C12.561 7.42795 12.3881 7.52524 12.2212 7.63063C11.6916 7.96598 11.3777 8.31312 11.2609 8.69343C11.07 9.31474 11.4477 9.99133 11.8792 10.3569C12.4272 10.8227 13.1716 11.0335 13.8279 11.1779C14.9629 11.4285 16.1378 11.5531 17.2912 11.5376C17.6675 11.5339 18.0986 11.517 18.4594 11.3593C18.7878 11.2155 19.0214 10.9465 19.0542 10.6738C19.073 10.5183 19.0383 10.3318 19.0019 10.1343C18.9352 9.77465 18.8519 9.3258 19.1146 8.9278C19.4702 8.38977 20.1166 8.38387 20.6252 8.39567C20.7361 8.3964 20.8448 8.3964 20.9491 8.39198C21.6688 8.35734 22.3494 7.86206 22.6041 7.18768C22.8584 6.51403 22.6748 5.69225 22.1574 5.19107C21.6758 4.72379 20.9491 4.52332 20.3079 4.34643L15.9815 3.15171C15.5949 3.04484 15.1697 2.92692 14.7639 2.92692Z" fill="#4B4952"/>
<path d="M4.01236 17.2884C4.33626 17.7002 4.34147 18.2871 4.19411 18.7899C4.04675 19.2927 3.76818 19.7454 3.56081 20.2265C3.35345 20.7077 3.2172 21.253 3.37254 21.7534C3.58073 22.424 4.28206 22.8505 4.9804 22.9237C5.67875 22.9968 6.3742 22.7801 7.02569 22.5182C8.03021 22.1143 8.98867 21.596 9.87656 20.9765C10.2097 20.7441 10.5403 20.4895 10.7557 20.1451C10.971 19.8008 11.0519 19.3465 10.8647 18.986C10.639 18.5514 10.0619 18.2875 10.0541 17.7978C10.046 17.2975 10.6203 17.0371 11.0195 16.7353C11.6487 16.2596 11.9566 15.3962 11.7705 14.6298C11.5843 13.8633 10.9146 13.2374 10.1374 13.1033C9.46763 12.9878 8.79092 13.211 8.1479 13.431C6.86207 13.8711 5.57624 14.3111 4.29041 14.7512C3.76971 14.9294 3.22628 15.122 2.85315 15.5267C2.56756 15.8364 2.28207 16.5733 2.69003 16.899C3.06475 17.1982 3.60608 16.7719 4.01236 17.2884Z" fill="#928F9F"/>
<path d="M11.766 14.63C11.9592 15.3987 11.6452 16.2578 11.0208 16.7318C10.6202 17.0337 10.0412 17.2964 10.0534 17.8001C10.0631 18.2865 10.6393 18.5471 10.8658 18.9897C11.0522 19.346 10.9725 19.7986 10.755 20.1463C10.5438 20.4896 10.2079 20.7474 9.87818 20.9726C8.98832 21.5993 8.02986 22.1117 7.02901 22.5203C6.37173 22.7795 5.67708 22.998 4.98135 22.9233C4.50529 22.8786 4.03376 22.6602 3.71948 22.3249C4.42186 22.215 5.11587 21.9402 5.74299 21.5119C7.9994 19.9708 8.62602 16.9735 7.14682 14.8076C6.94369 14.5102 6.71267 14.2413 6.4517 14.0119C7.01197 13.8189 7.58314 13.6279 8.14986 13.4305C8.78807 13.2127 9.46742 12.9858 10.1376 13.1064C10.9187 13.2366 11.5837 13.8633 11.766 14.63Z" fill="#605E67"/>
<path d="M5.26139 23.3161C5.15526 23.3161 5.04839 23.3102 4.94115 23.2991C4.17722 23.2188 3.28468 22.7442 3.01198 21.8656C2.85204 21.3497 2.91838 20.7645 3.21392 20.0776C3.29021 19.9007 3.37496 19.7282 3.46009 19.5558C3.60713 19.2588 3.74606 18.9772 3.83192 18.6839C3.9679 18.221 3.92442 17.7869 3.71584 17.5223C3.60971 17.3867 3.51463 17.383 3.26073 17.3919C3.03519 17.3992 2.72601 17.4103 2.45442 17.1936C2.2521 17.0322 2.13418 16.8 2.1128 16.5214C2.07632 16.0475 2.32728 15.5404 2.57566 15.2707C3.02156 14.7865 3.65725 14.569 4.16801 14.3944L8.02598 13.0743C8.64656 12.8613 9.4197 12.5997 10.201 12.7309C11.1211 12.8901 11.9171 13.6338 12.1371 14.5403C12.3575 15.4476 11.9912 16.4743 11.2468 17.0366C11.1613 17.1007 11.0681 17.1641 10.9737 17.2282C10.6439 17.4508 10.4283 17.6108 10.4313 17.7921C10.4335 17.9255 10.5551 18.0574 10.7552 18.2586C10.9092 18.4134 11.0835 18.5888 11.1996 18.8121C11.4333 19.2617 11.3857 19.8491 11.0754 20.3451C10.8156 20.7616 10.432 21.049 10.093 21.2863C9.18127 21.9216 8.1966 22.4538 7.16624 22.868C6.60573 23.0942 5.95198 23.3161 5.26139 23.3161ZM4.30915 17.055C4.67361 17.5186 4.76353 18.1893 4.55642 18.8961C4.45176 19.2529 4.29183 19.5764 4.13705 19.8904C4.05745 20.0511 3.97785 20.2117 3.9071 20.3761C3.68562 20.8913 3.6285 21.3055 3.73279 21.6416C3.90268 22.1892 4.5192 22.4958 5.01964 22.5488C5.66381 22.6152 6.32345 22.3941 6.88433 22.1678C7.86236 21.775 8.79618 21.2701 9.66071 20.6672C9.93857 20.4734 10.2507 20.2405 10.4357 19.9457C10.6023 19.6789 10.6391 19.3708 10.5297 19.16C10.4667 19.0384 10.3469 18.9182 10.2201 18.7907C9.98132 18.5505 9.68393 18.2512 9.67656 17.8039C9.66698 17.2002 10.1571 16.8693 10.551 16.6032C10.634 16.5465 10.7161 16.4912 10.7917 16.4345C11.3035 16.0475 11.5552 15.3422 11.4038 14.7187C11.2523 14.0951 10.7051 13.5844 10.0731 13.4753C9.47903 13.3743 8.83708 13.594 8.27031 13.7878L4.4127 15.1078C3.96017 15.2633 3.44719 15.4387 3.13064 15.7822C2.98913 15.9362 2.84873 16.2465 2.86531 16.4639C2.87268 16.562 2.90953 16.5914 2.92538 16.604C2.97623 16.6438 3.0761 16.6423 3.23419 16.6379C3.52274 16.6298 3.96053 16.6121 4.30915 17.055Z" fill="#4B4952"/>
</svg>
