<svg width="38" height="36" viewBox="0 0 38 36" fill="none" xmlns="http://www.w3.org/2000/svg">
<path d="M14.9582 21.9557L18.78 25.7775C19.1935 33.0523 13.7905 39.137 3.28609 32.7673C2.55414 32.3259 2.6603 31.2364 3.4593 30.9403C4.81144 30.4262 6.35917 29.2473 6.90673 26.5653C7.96276 21.3969 12.0025 20.2627 14.9582 21.9557Z" fill="#E3EBED"/>
<path d="M3.28285 32.7639C2.55022 32.3243 2.66227 31.2384 3.45524 30.9367C3.73105 30.8333 4.01543 30.6954 4.29986 30.5316C5.51509 31.3073 6.91996 31.7468 8.41105 31.7468C12.617 31.7468 16.099 28.2562 16.6937 23.6883L18.7794 25.774C19.1931 33.0483 13.7892 39.1332 3.28285 32.7639Z" fill="#889CA9"/>
<path d="M35.2854 5.33869L35.2909 5.34418C37.2615 7.31483 37.1737 10.5426 35.0932 12.3925L20.9253 25.0563L15.5732 19.7042L28.2371 5.53633C30.087 3.45586 33.3147 3.36801 35.2854 5.33869Z" fill="white"/>
<path d="M35.2853 5.33864L35.2909 5.34423C36.1402 6.19353 36.6039 7.27186 36.6933 8.36704C33.6537 8.13235 28.5692 10.8702 23.9652 15.4742C21.5905 17.8489 19.7187 20.3464 18.4839 22.6205L15.5729 19.7095L28.2395 5.53418C30.0834 3.45568 33.3129 3.3663 35.2853 5.33864Z" fill="#BBD6EA"/>
<path d="M35.2853 5.33864L35.2909 5.34423C35.3971 5.45039 35.4977 5.56215 35.587 5.6739C35.6485 5.73536 35.6932 5.8024 35.7379 5.86945C35.805 5.94768 35.8608 6.02591 35.9111 6.1097C36.0005 6.23265 36.0732 6.36115 36.1402 6.49524C36.1905 6.59021 36.2408 6.68523 36.2855 6.78579C36.3413 6.9087 36.3916 7.02605 36.4308 7.15458C36.4754 7.2663 36.509 7.38921 36.5481 7.50656C36.5872 7.66858 36.6207 7.83623 36.6487 8.00941C36.6654 8.12675 36.6822 8.2441 36.6934 8.36704C36.8163 9.83094 36.2799 11.3395 35.0954 12.39L33.1957 14.0886L26.541 7.43392L28.2396 5.53418C30.0834 3.45568 33.313 3.3663 35.2853 5.33864Z" fill="#70889F"/>
<path d="M35.2853 5.33864L35.2909 5.34423C35.3971 5.45039 35.4977 5.56215 35.587 5.6739C35.6485 5.73536 35.6932 5.8024 35.7379 5.86945C35.805 5.94768 35.8608 6.02591 35.9111 6.10971C36.0005 6.23265 36.0732 6.36115 36.1402 6.49524C36.1905 6.59021 36.2408 6.68523 36.2855 6.78579C36.3413 6.9087 36.3916 7.02605 36.4308 7.15458C36.4754 7.2663 36.509 7.38921 36.5481 7.50656C36.5872 7.66858 36.6207 7.83623 36.6487 8.00941C36.6654 8.12676 36.6822 8.2441 36.6934 8.36704C34.9333 8.22736 32.486 9.08777 29.8488 10.7417L26.541 7.43392L28.2396 5.53418C30.0834 3.45568 33.313 3.3663 35.2853 5.33864Z" fill="#C6DDEA"/>
<path d="M33.194 14.4676C33.0974 14.4676 33.0009 14.4307 32.9272 14.357L26.2726 7.7024C26.131 7.56089 26.1244 7.33315 26.2582 7.18427L27.9559 5.28495C28.917 4.20373 30.2459 3.58388 31.6971 3.54114C33.1549 3.50502 34.5228 4.04232 35.5525 5.07194C36.5873 6.10673 37.1312 7.47613 37.0884 8.9325C37.0457 10.3837 36.4259 11.7126 35.3439 12.6744L33.4453 14.3718C33.3738 14.4359 33.2839 14.4676 33.194 14.4676ZM27.0586 7.42085L33.2087 13.5714L34.842 12.1106C35.7677 11.288 36.2976 10.1515 36.3337 8.91039C36.3706 7.66407 35.9055 6.4922 35.024 5.61071C34.1374 4.72333 32.9581 4.25384 31.7192 4.29585C30.478 4.33197 29.3415 4.86189 28.5198 5.78686L27.0586 7.42085Z" fill="#C6DDEA"/>
<path d="M11.2202 35.8281C9.1359 35.8281 6.45864 35.1324 3.09042 33.0901C2.62831 32.8115 2.37219 32.3036 2.42267 31.7656C2.47353 31.2268 2.8203 30.7743 3.32811 30.5864C5.03397 29.9385 6.11445 28.5595 6.53713 26.49C7.05269 23.9656 8.33475 22.1245 10.1471 21.3057C11.7225 20.5937 13.5448 20.7102 15.146 21.6285C15.1751 21.6447 15.2016 21.6654 15.2252 21.689L19.0467 25.5105C19.1123 25.5761 19.1514 25.663 19.1565 25.7559C19.3857 29.7837 17.9146 33.1549 15.2219 34.7734C14.2538 35.3557 12.9382 35.8281 11.2202 35.8281ZM12.2911 21.6005C11.6606 21.6005 11.0389 21.731 10.4578 21.9934C8.87241 22.7097 7.74254 24.3607 7.27637 26.6411C6.68122 29.5553 4.94515 30.7795 3.59344 31.2932C3.35354 31.3816 3.19803 31.5843 3.17407 31.8364C3.15049 32.087 3.26547 32.314 3.48105 32.4444C9.30394 35.9755 12.8678 35.3078 14.8331 34.1271C17.2502 32.6736 18.5817 29.6209 18.4107 25.9416L14.7277 22.2587C13.948 21.8216 13.1125 21.6005 12.2911 21.6005Z" fill="#C6DDEA"/>
<path d="M20.9253 25.4338C20.8284 25.4338 20.7319 25.397 20.6585 25.3233L15.3062 19.971C15.1647 19.8295 15.1581 19.6017 15.2919 19.4528L27.9551 5.28495C28.9169 4.20299 30.2458 3.58388 31.697 3.54114C33.1549 3.50502 34.5228 4.04232 35.5524 5.07194L35.5576 5.0771C36.5872 6.10673 37.1311 7.47613 37.0884 8.9325C37.0456 10.3837 36.4265 11.7126 35.3438 12.6751L21.1767 25.338C21.1052 25.4021 21.0153 25.4338 20.9253 25.4338ZM16.0923 19.6894L20.9397 24.5376L34.8419 12.1113C35.7676 11.288 36.2975 10.1515 36.3337 8.91039C36.3705 7.66407 35.9054 6.4922 35.024 5.61071L35.0188 5.60555C34.1381 4.72407 32.9809 4.259 31.7191 4.29585C30.478 4.33197 29.3415 4.86189 28.519 5.78686L16.0923 19.6894Z" fill="#C6DDEA"/>
<path d="M13.1759 18.9105C13.8352 18.2512 14.9024 18.2456 15.5673 18.9105L21.7191 25.0623C22.384 25.7272 22.3784 26.7944 21.7191 27.4537C21.3894 27.7834 20.9536 27.9509 20.529 27.951C20.0931 27.951 19.6573 27.7833 19.3277 27.4537L13.1759 21.3019C12.511 20.637 12.5166 19.5698 13.1759 18.9105Z" fill="#70889F"/>
<path d="M13.1759 18.9105C13.8352 18.2512 14.9024 18.2456 15.5673 18.9105L21.719 25.0623C22.3839 25.7272 22.3784 26.7944 21.7191 27.4537C21.5515 27.6213 21.3559 27.7498 21.1436 27.8281C20.6966 26.5206 19.3947 24.6488 17.5844 22.8385C15.8858 21.1399 14.1313 19.8883 12.8518 19.3687C12.93 19.2011 13.0418 19.0446 13.1759 18.9105Z" fill="#C6DDEA"/>
<path d="M20.5288 28.3282C19.9742 28.3282 19.4528 28.1122 19.0607 27.7209L12.9091 21.5689C12.1027 20.7626 12.1027 19.4507 12.9091 18.6436C13.7154 17.8373 15.0276 17.8373 15.834 18.6436L21.9859 24.7956C22.7922 25.6019 22.7922 26.9138 21.9859 27.7209C21.5994 28.1071 21.0683 28.3282 20.5288 28.3282ZM13.4427 19.1772C12.9308 19.6895 12.9308 20.523 13.4427 21.0353L19.5943 27.1872C20.0848 27.6774 20.9519 27.6869 21.4523 27.1872C21.9642 26.675 21.9646 25.8414 21.4523 25.3292L15.3003 19.1772C14.7881 18.6657 13.9549 18.6657 13.4427 19.1772Z" fill="#C6DDEA"/>
<path d="M12.2538 2.92132C12.2926 3.49677 11.933 4.03352 11.4869 4.39909C11.0408 4.76465 10.5064 5.00327 10.0192 5.31192C9.53199 5.62057 9.06954 6.03174 8.90011 6.58304C8.67303 7.3219 9.04576 8.14509 9.63518 8.64515C10.2246 9.1452 10.9914 9.37993 11.7462 9.54631C12.9101 9.80285 14.1032 9.92674 15.295 9.9148C15.7421 9.91032 16.2007 9.88418 16.6103 9.70483C17.0199 9.52547 17.3755 9.16275 17.4291 8.71885C17.4937 8.18365 17.133 7.5854 17.4298 7.1354C17.7332 6.67554 18.4169 6.79537 18.9672 6.76886C19.8345 6.72708 20.6504 6.1334 20.957 5.32106C21.2636 4.50872 21.0435 3.52396 20.4201 2.91954C19.883 2.39873 19.1293 2.18145 18.4081 1.98228C16.966 1.58401 15.5239 1.18573 14.0818 0.787456C13.4978 0.626174 12.8842 0.463908 12.2938 0.60011C11.8419 0.704396 11.1249 1.197 11.2935 1.74638C11.4484 2.25099 12.2052 2.19951 12.2538 2.92132Z" fill="#E3EBED"/>
<path d="M20.953 5.31853C20.6513 6.13728 19.8326 6.72335 18.9707 6.76648C18.4191 6.79231 17.7296 6.67164 17.4279 7.13709C17.1349 7.58523 17.4968 8.17993 17.4279 8.72292C17.3762 9.16248 17.0228 9.52446 16.6091 9.70547C16.204 9.88649 15.7386 9.91231 15.2991 9.91231C14.101 9.92957 12.9116 9.80027 11.7481 9.55034C10.9897 9.37795 10.2226 9.14523 9.6365 8.64538C9.23144 8.30923 8.93838 7.81795 8.86084 7.31805C9.56759 7.65419 10.3691 7.83521 11.2051 7.83521C14.2131 7.83521 16.6436 5.49949 16.6436 2.61222C16.6436 2.21573 16.6005 1.82788 16.5057 1.45728C17.1349 1.62966 17.7726 1.81068 18.4104 1.98301C19.1258 2.18128 19.8843 2.39675 20.4186 2.92248C21.0478 3.52581 21.2633 4.50836 20.953 5.31853Z" fill="#889CA9"/>
<path d="M15.1398 10.2931C13.9723 10.2931 12.8045 10.1663 11.6654 9.91498C10.9184 9.75062 10.0646 9.50445 9.39094 8.93252C8.75635 8.39449 8.2467 7.4253 8.5393 6.47232C8.7114 5.91218 9.12966 5.42795 9.81768 4.9931C9.99493 4.88107 10.1788 4.77715 10.3627 4.67323C10.6826 4.49266 10.9848 4.32241 11.2479 4.10719C11.6676 3.763 11.9031 3.32889 11.8773 2.94637C11.8633 2.7378 11.7656 2.66852 11.5268 2.51742C11.3105 2.38034 11.0411 2.21008 10.9328 1.85705C10.8521 1.59466 10.8882 1.32049 11.0367 1.06327C11.2928 0.618839 11.8242 0.32108 12.209 0.232637C12.9069 0.0704902 13.6141 0.26654 14.1824 0.424264L18.5083 1.61825C19.2008 1.80988 20.0627 2.0472 20.6829 2.64862C21.4097 3.35395 21.6676 4.5074 21.3102 5.45448C20.9523 6.4023 19.9964 7.09732 18.9852 7.14522C18.8688 7.15112 18.7464 7.15038 18.6215 7.15038C18.1719 7.14891 17.8657 7.1607 17.7448 7.34349C17.656 7.47836 17.6851 7.68031 17.744 7.99649C17.7872 8.23013 17.8362 8.49472 17.8037 8.76448C17.7385 9.30472 17.3391 9.79779 16.7616 10.0506C16.2711 10.2651 15.7493 10.2879 15.2986 10.2923C15.2455 10.2931 15.1925 10.2931 15.1398 10.2931ZM12.7639 0.926917C12.6328 0.926917 12.5038 0.939447 12.3785 0.968191C12.1467 1.02126 11.815 1.22394 11.6901 1.43989C11.6341 1.53718 11.6429 1.59835 11.6544 1.63594C11.6794 1.71775 11.7708 1.77819 11.9304 1.87916C12.1931 2.04573 12.59 2.29632 12.6305 2.89626C12.6729 3.53084 12.3435 4.18458 11.7262 4.69092C11.4126 4.94814 11.0673 5.14272 10.7334 5.33066C10.561 5.42795 10.3881 5.52524 10.2212 5.63063C9.69164 5.96598 9.37767 6.31312 9.26085 6.69343C9.06996 7.31474 9.44769 7.99133 9.87922 8.3569C10.4272 8.8227 11.1716 9.03349 11.8279 9.17795C12.9629 9.42854 14.1378 9.5531 15.2912 9.53762C15.6675 9.53393 16.0986 9.51698 16.4594 9.35926C16.7878 9.21554 17.0214 8.94652 17.0542 8.67382C17.073 8.51831 17.0383 8.33184 17.0019 8.13432C16.9352 7.77465 16.8519 7.3258 17.1146 6.9278C17.4702 6.38977 18.1166 6.38387 18.6252 6.39567C18.7361 6.3964 18.8448 6.3964 18.9491 6.39198C19.6688 6.35734 20.3494 5.86206 20.6041 5.18768C20.8584 4.51403 20.6748 3.69225 20.1574 3.19107C19.6758 2.72379 18.9491 2.52332 18.3079 2.34643L13.9815 1.15171C13.5949 1.04484 13.1697 0.926917 12.7639 0.926917Z" fill="#C6DDEA"/>
<path d="M2.01236 15.2884C2.33626 15.7002 2.34147 16.2871 2.19411 16.7899C2.04675 17.2927 1.76818 17.7454 1.56081 18.2265C1.35345 18.7077 1.2172 19.253 1.37254 19.7534C1.58073 20.424 2.28206 20.8505 2.9804 20.9237C3.67875 20.9968 4.3742 20.7801 5.02569 20.5182C6.03021 20.1143 6.98867 19.596 7.87656 18.9765C8.20966 18.7441 8.5403 18.4895 8.75566 18.1451C8.97102 17.8008 9.05195 17.3465 8.86474 16.986C8.63904 16.5514 8.06194 16.2875 8.05406 15.7978C8.04602 15.2975 8.62033 15.0371 9.01953 14.7353C9.64871 14.2596 9.95664 13.3962 9.77047 12.6298C9.5843 11.8633 8.91464 11.2374 8.13737 11.1033C7.46763 10.9878 6.79092 11.211 6.1479 11.431C4.86207 11.8711 3.57624 12.3111 2.29041 12.7512C1.76971 12.9294 1.22628 13.122 0.853154 13.5267C0.567563 13.8364 0.282067 14.5733 0.690033 14.899C1.06475 15.1982 1.60608 14.7719 2.01236 15.2884Z" fill="#70889F"/>
<path d="M9.76599 12.63C9.95918 13.3987 9.64521 14.2578 9.02078 14.7318C8.62022 15.0337 8.04117 15.2964 8.05335 15.8001C8.0631 16.2865 8.63931 16.5471 8.8658 16.9897C9.05221 17.346 8.97255 17.7986 8.75496 18.1463C8.5438 18.4896 8.20792 18.7474 7.87818 18.9726C6.98832 19.5993 6.02986 20.1117 5.02901 20.5203C4.37173 20.7795 3.67708 20.998 2.98135 20.9233C2.50529 20.8786 2.03376 20.6602 1.71948 20.3249C2.42186 20.215 3.11587 19.9402 3.74299 19.5119C5.9994 17.9708 6.62602 14.9735 5.14682 12.8076C4.94369 12.5102 4.71267 12.2413 4.4517 12.0119C5.01197 11.8189 5.58314 11.6279 6.14986 11.4305C6.78807 11.2127 7.46742 10.9858 8.13761 11.1064C8.91866 11.2366 9.58367 11.8633 9.76599 12.63Z" fill="#C6DDEA"/>
<path d="M3.26139 21.3161C3.15526 21.3161 3.04839 21.3102 2.94115 21.2991C2.17722 21.2188 1.28468 20.7442 1.01198 19.8656C0.852043 19.3497 0.918376 18.7645 1.21392 18.0776C1.29021 17.9007 1.37496 17.7282 1.46009 17.5558C1.60713 17.2588 1.74606 16.9772 1.83192 16.6839C1.9679 16.221 1.92442 15.7869 1.71584 15.5223C1.60971 15.3867 1.51463 15.383 1.26073 15.3919C1.03519 15.3992 0.726011 15.4103 0.454416 15.1936C0.252102 15.0322 0.134178 14.8 0.112804 14.5214C0.0763209 14.0475 0.327279 13.5404 0.575657 13.2707C1.02156 12.7865 1.65725 12.569 2.16801 12.3944L6.02598 11.0743C6.64656 10.8613 7.4197 10.5997 8.20095 10.7309C9.12113 10.8901 9.91712 11.6338 10.1371 12.5403C10.3575 13.4476 9.99119 14.4743 9.2468 15.0366C9.1613 15.1007 9.06807 15.1641 8.97373 15.2282C8.64391 15.4508 8.42833 15.6108 8.43127 15.7921C8.43349 15.9255 8.55509 16.0574 8.7552 16.2586C8.90924 16.4134 9.08354 16.5888 9.19963 16.8121C9.43326 17.2617 9.38573 17.8491 9.07544 18.3451C8.81563 18.7616 8.43201 19.049 8.09298 19.2863C7.18127 19.9216 6.1966 20.4538 5.16624 20.868C4.60573 21.0942 3.95198 21.3161 3.26139 21.3161ZM2.30915 15.055C2.67361 15.5186 2.76353 16.1893 2.55642 16.8961C2.45176 17.2529 2.29183 17.5764 2.13705 17.8904C2.05745 18.0511 1.97785 18.2117 1.9071 18.3761C1.68562 18.8913 1.6285 19.3055 1.73279 19.6416C1.90268 20.1892 2.5192 20.4958 3.01964 20.5488C3.66381 20.6152 4.32345 20.3941 4.88433 20.1678C5.86236 19.775 6.79618 19.2701 7.66071 18.6672C7.93857 18.4734 8.2507 18.2405 8.4357 17.9457C8.60226 17.6789 8.63912 17.3708 8.52967 17.16C8.46665 17.0384 8.34688 16.9182 8.22012 16.7907C7.98132 16.5505 7.68393 16.2512 7.67656 15.8039C7.66698 15.2002 8.1571 14.8693 8.55104 14.6032C8.63396 14.5465 8.71614 14.4912 8.79168 14.4345C9.30355 14.0475 9.55524 13.3422 9.40378 12.7187C9.25232 12.0951 8.70508 11.5844 8.07308 11.4753C7.47903 11.3743 6.83708 11.594 6.27031 11.7878L2.4127 13.1078C1.96017 13.2633 1.44719 13.4387 1.13064 13.7822C0.98913 13.9362 0.848726 14.2465 0.86531 14.4639C0.87268 14.562 0.909531 14.5914 0.925377 14.604C0.976232 14.6438 1.0761 14.6423 1.23419 14.6379C1.52274 14.6298 1.96053 14.6121 2.30915 15.055Z" fill="#C6DDEA"/>
</svg>
