<svg xmlns="http://www.w3.org/2000/svg" width="41" height="40" fill="none"><path fill="#E3EBED" d="m16.958 23.956 3.822 3.822c.413 7.274-4.99 13.359-15.494 6.99-.732-.442-.626-1.532.173-1.828 1.352-.514 2.9-1.693 3.448-4.375 1.056-5.168 5.095-6.302 8.051-4.61"/><path fill="#A4A1AE" d="M5.283 34.764c-.733-.44-.62-1.526.172-1.827a6 6 0 0 0 .845-.405 7.6 7.6 0 0 0 4.111 1.215c4.206 0 7.688-3.49 8.283-8.059l2.085 2.086c.414 7.274-4.99 13.36-15.496 6.99"/><path fill="#fff" d="m37.285 7.339.006.005c1.97 1.97 1.883 5.199-.198 7.049L22.925 27.056l-5.352-5.352L30.237 7.536c1.85-2.08 5.078-2.168 7.048-.197"/><path fill="#EFEFEF" d="m37.285 7.339.006.005a4.8 4.8 0 0 1 1.402 3.023c-3.04-.235-8.124 2.503-12.728 7.107-2.375 2.375-4.246 4.872-5.481 7.147l-2.911-2.911L30.24 7.533c1.843-2.078 5.073-2.168 7.045-.195"/><path fill="#928F9F" d="m37.285 7.339.006.005q.16.16.296.33c.061.061.106.128.15.195q.1.117.174.24c.09.124.162.252.23.386q.076.141.145.29c.055.124.106.241.145.37.044.111.078.234.117.352q.06.244.1.502.027.175.045.358a4.82 4.82 0 0 1-1.598 4.023l-1.9 1.699-6.654-6.655 1.699-1.9c1.843-2.078 5.073-2.168 7.045-.195"/><path fill="#605E67" d="m37.285 7.339.006.005q.16.16.296.33c.061.061.106.128.15.195q.1.117.174.24c.09.124.162.252.23.386q.076.141.145.29c.055.124.106.241.145.37.044.111.078.234.117.352q.06.244.1.502.027.175.045.358c-1.76-.14-4.207.72-6.844 2.375L28.54 9.434l1.699-1.9c1.843-2.078 5.073-2.168 7.045-.195"/><path fill="#4B4952" d="M35.194 16.468a.38.38 0 0 1-.267-.111l-6.654-6.655a.377.377 0 0 1-.015-.518l1.698-1.899a5.16 5.16 0 0 1 3.741-1.744 5.2 5.2 0 0 1 3.855 1.53 5.2 5.2 0 0 1 1.536 3.861 5.16 5.16 0 0 1-1.744 3.742l-1.899 1.698a.38.38 0 0 1-.251.096M29.059 9.42l6.15 6.15 1.633-1.46a4.41 4.41 0 0 0 1.492-3.2 4.44 4.44 0 0 0-1.31-3.3 4.43 4.43 0 0 0-3.305-1.315 4.4 4.4 0 0 0-3.2 1.49zM13.22 37.828c-2.084 0-4.761-.696-8.13-2.738a1.38 1.38 0 0 1-.667-1.324c.05-.54.397-.992.905-1.18 1.706-.647 2.786-2.026 3.21-4.096.515-2.524 1.797-4.365 3.61-5.184 1.575-.712 3.397-.596 4.998.322a.4.4 0 0 1 .08.061l3.82 3.822a.38.38 0 0 1 .11.245c.23 4.028-1.241 7.399-3.934 9.017-.968.583-2.284 1.055-4.002 1.055M14.291 23.6c-.63 0-1.252.131-1.833.393-1.586.717-2.715 2.368-3.182 4.648-.595 2.914-2.33 4.139-3.683 4.652a.63.63 0 0 0-.419.543.63.63 0 0 0 .307.608c5.823 3.531 9.387 2.864 11.352 1.683 2.417-1.453 3.749-4.506 3.578-8.185l-3.683-3.683a5 5 0 0 0-2.437-.659"/><path fill="#4B4952" d="M22.925 27.434a.38.38 0 0 1-.267-.11l-5.352-5.353a.377.377 0 0 1-.014-.518L29.955 7.285a5.16 5.16 0 0 1 3.742-1.744 5.2 5.2 0 0 1 3.855 1.53l.006.006a5.19 5.19 0 0 1 1.53 3.855 5.16 5.16 0 0 1-1.744 3.743L23.177 27.338a.38.38 0 0 1-.252.096m-4.833-5.745 4.848 4.849L36.842 14.11a4.41 4.41 0 0 0 1.492-3.2 4.44 4.44 0 0 0-1.31-3.3l-.005-.005a4.41 4.41 0 0 0-3.3-1.31 4.41 4.41 0 0 0-3.2 1.49z"/><path fill="#928F9F" d="M15.176 20.91a1.69 1.69 0 0 1 2.391 0l6.152 6.152c.665.665.66 1.732 0 2.392a1.7 1.7 0 0 1-1.19.497c-.436 0-.872-.168-1.201-.497l-6.152-6.152a1.69 1.69 0 0 1 0-2.392"/><path fill="#605E67" d="M15.176 20.91a1.69 1.69 0 0 1 2.391 0l6.152 6.152a1.688 1.688 0 0 1-.575 2.766c-.447-1.307-1.75-3.18-3.56-4.99-1.698-1.698-3.453-2.95-4.732-3.47.078-.167.19-.323.324-.457"/><path fill="#4B4952" d="M22.529 30.328a2.07 2.07 0 0 1-1.468-.607l-6.152-6.152a2.07 2.07 0 0 1 0-2.925 2.07 2.07 0 0 1 2.925 0l6.152 6.152a2.071 2.071 0 0 1-1.457 3.532m-7.086-9.15a1.316 1.316 0 0 0 0 1.857l6.151 6.152c.49.49 1.358.5 1.858 0a1.316 1.316 0 0 0 0-1.858L17.3 21.177a1.316 1.316 0 0 0-1.857 0"/><path fill="#E3EBED" d="M14.254 4.921c.039.576-.321 1.113-.767 1.478-.446.366-.98.604-1.468.913-.487.309-.95.72-1.119 1.271-.227.739.146 1.562.735 2.062.59.5 1.356.735 2.111.901a15.8 15.8 0 0 0 3.549.369c.447-.005.906-.03 1.315-.21.41-.18.765-.542.82-.986.064-.535-.297-1.134 0-1.584.303-.46.987-.34 1.537-.366a2.3 2.3 0 0 0 1.99-1.448 2.3 2.3 0 0 0-.537-2.401c-.537-.521-1.29-.739-2.012-.938l-4.326-1.195c-.584-.16-1.198-.323-1.788-.187-.452.104-1.17.597-1 1.146.154.505.911.454.96 1.175"/><path fill="#A4A1AE" d="M22.953 7.319c-.302.818-1.12 1.404-1.982 1.447-.552.026-1.241-.094-1.543.371-.293.448.069 1.043 0 1.586-.052.44-.405.801-.819.982-.405.181-.87.207-1.31.207a15.8 15.8 0 0 1-3.55-.362c-.76-.172-1.526-.405-2.113-.905-.405-.336-.698-.827-.775-1.327a5.5 5.5 0 0 0 2.344.517c3.008 0 5.439-2.336 5.439-5.223 0-.396-.043-.784-.138-1.155.629.173 1.267.354 1.904.526.716.198 1.474.414 2.009.94.629.603.844 1.585.534 2.396"/><path fill="#4B4952" d="M17.14 12.293c-1.168 0-2.335-.127-3.475-.378-.747-.164-1.6-.41-2.274-.982-.635-.538-1.144-1.508-.852-2.46.172-.56.59-1.045 1.279-1.48q.266-.166.545-.32c.32-.18.622-.35.885-.566.42-.344.655-.778.63-1.16-.015-.21-.112-.278-.351-.43-.216-.137-.486-.307-.594-.66a.98.98 0 0 1 .104-.794c.256-.444.787-.742 1.172-.83.698-.163 1.405.034 1.973.191l4.326 1.194c.693.192 1.555.43 2.175 1.03.727.706.985 1.86.627 2.806-.358.948-1.314 1.643-2.325 1.691q-.175.007-.363.005c-.45-.001-.756.01-.877.193-.089.135-.06.337-.001.653.043.234.092.499.06.768-.066.54-.465 1.034-1.042 1.287-.49.214-1.013.237-1.463.241zm-2.376-9.366q-.197-.001-.385.041c-.232.053-.564.256-.689.472-.056.097-.047.158-.036.196.025.082.117.142.276.243.263.167.66.417.7 1.017.043.635-.287 1.289-.904 1.795-.313.257-.659.452-.993.64-.172.097-.345.194-.512.3-.53.335-.843.682-.96 1.062-.191.622.187 1.298.618 1.664.548.466 1.293.677 1.949.82 1.135.252 2.31.376 3.463.36.377-.003.808-.02 1.168-.178.329-.143.562-.412.595-.685.019-.156-.016-.342-.052-.54-.067-.36-.15-.808.113-1.206.355-.538 1.002-.544 1.51-.532q.167.001.324-.004c.72-.035 1.4-.53 1.655-1.204a1.91 1.91 0 0 0-.447-1.997c-.481-.467-1.208-.668-1.85-.845l-4.325-1.194c-.387-.107-.812-.225-1.218-.225"/><path fill="#928F9F" d="M4.012 17.288c.324.412.33 1 .182 1.502-.147.503-.426.955-.633 1.437-.208.48-.344 1.026-.188 1.526.208.671.91 1.098 1.607 1.17.699.074 1.394-.143 2.046-.405a14.3 14.3 0 0 0 2.85-1.541c.334-.233.664-.488.88-.832s.296-.799.109-1.159c-.226-.435-.803-.698-.81-1.188-.009-.5.565-.76.965-1.063.629-.475.937-1.339.75-2.105a2.09 2.09 0 0 0-1.633-1.527c-.67-.115-1.346.108-1.99.328l-3.857 1.32c-.52.178-1.064.371-1.437.776-.285.31-.57 1.046-.163 1.372.375.3.916-.127 1.322.39"/><path fill="#605E67" d="M11.766 14.63c.193.769-.12 1.628-.745 2.102-.4.302-.98.564-.968 1.068.01.486.586.747.813 1.19.186.356.107.809-.111 1.156-.211.344-.547.601-.877.827-.89.626-1.848 1.139-2.849 1.547-.657.26-1.352.478-2.048.403a2.02 2.02 0 0 1-1.262-.598 5 5 0 0 0 2.024-.813c2.256-1.541 2.883-4.538 1.404-6.704a4.2 4.2 0 0 0-.695-.796c.56-.193 1.131-.384 1.698-.582.638-.217 1.317-.444 1.988-.324a2.06 2.06 0 0 1 1.628 1.524"/><path fill="#4B4952" d="M5.261 23.316q-.16 0-.32-.017c-.764-.08-1.656-.555-1.929-1.433-.16-.516-.094-1.101.202-1.788.076-.177.161-.35.246-.522.147-.297.286-.579.372-.872.136-.463.092-.897-.116-1.162-.106-.135-.201-.139-.455-.13-.226.007-.535.018-.807-.198a.92.92 0 0 1-.341-.673c-.037-.474.214-.98.463-1.25.446-.485 1.081-.702 1.592-.877l3.858-1.32c.62-.213 1.394-.474 2.175-.343.92.16 1.716.903 1.936 1.81a2.48 2.48 0 0 1-.89 2.496 7 7 0 0 1-.273.191c-.33.223-.546.383-.543.564.003.133.124.265.324.467.154.154.329.33.445.553.233.45.186 1.037-.125 1.533-.26.417-.643.704-.982.941a14.8 14.8 0 0 1-2.927 1.582c-.56.226-1.214.448-1.905.448m-.952-6.261c.365.464.455 1.134.247 1.841-.104.357-.264.68-.419.994-.08.161-.16.322-.23.486-.221.515-.279.93-.174 1.266.17.547.786.854 1.287.907.644.066 1.303-.155 1.864-.381a14 14 0 0 0 2.777-1.5c.278-.195.59-.427.775-.722.166-.267.203-.575.094-.786-.063-.122-.183-.242-.31-.37-.239-.24-.536-.539-.543-.986-.01-.604.48-.935.874-1.2q.126-.085.24-.17a1.7 1.7 0 0 0 .613-1.715 1.7 1.7 0 0 0-1.33-1.244c-.595-.1-1.237.119-1.804.313l-3.857 1.32c-.453.155-.966.33-1.282.674-.142.154-.282.465-.266.682.008.098.045.127.06.14.051.04.151.038.31.034.288-.008.726-.026 1.074.417"/></svg>