<svg width="834" height="608" viewBox="0 0 834 608" fill="none" xmlns="http://www.w3.org/2000/svg">
<g clip-path="url(#clip0_243_15599)">
<rect width="834" height="608" fill="#292732"/>
<g opacity="0.12">
<line x1="114.525" y1="273.656" x2="719.754" y2="273.656" stroke="#E3EBED" stroke-width="0.579167"/>
<line x1="47.3417" y1="458.99" x2="786.938" y2="458.99" stroke="#E3EBED" stroke-width="0.579167"/>
<line x1="47.3417" y1="421.923" x2="786.938" y2="421.923" stroke="#E3EBED" stroke-width="0.579167"/>
<line x1="47.3417" y1="607.256" x2="786.938" y2="607.256" stroke="#E3EBED" stroke-width="0.579167"/>
<line x1="114.525" y1="236.59" x2="719.754" y2="236.59" stroke="#E3EBED" stroke-width="0.579167"/>
<line x1="114.525" y1="384.856" x2="719.754" y2="384.856" stroke="#E3EBED" stroke-width="0.579167"/>
<line x1="47.3417" y1="570.19" x2="786.938" y2="570.19" stroke="#E3EBED" stroke-width="0.579167"/>
<line x1="47.3417" y1="199.523" x2="786.938" y2="199.523" stroke="#E3EBED" stroke-width="0.579167"/>
<line x1="114.525" y1="347.79" x2="719.754" y2="347.79" stroke="#E3EBED" stroke-width="0.579167"/>
<line x1="47.3417" y1="533.123" x2="786.938" y2="533.123" stroke="#E3EBED" stroke-width="0.579167"/>
<line x1="114.525" y1="310.723" x2="719.754" y2="310.723" stroke="#E3EBED" stroke-width="0.579167"/>
<line x1="47.3417" y1="496.056" x2="786.938" y2="496.056" stroke="#E3EBED" stroke-width="0.579167"/>
<line x1="0.429199" y1="143.923" x2="834.429" y2="143.923" stroke="#E3EBED" stroke-width="0.579167"/>
<line x1="0.429199" y1="46.623" x2="834.429" y2="46.623" stroke="#E3EBED" stroke-width="0.579167"/>
<line x1="0.429199" y1="0.289579" x2="834.429" y2="0.289652" stroke="#E3EBED" stroke-width="0.579167"/>
<line x1="47.6313" y1="585.537" x2="47.6314" y2="46.3333" stroke="#E3EBED" stroke-width="0.579167"/>
<line x1="383.548" y1="459.279" x2="383.548" y2="310.433" stroke="#E3EBED" stroke-width="0.579167"/>
<line x1="585.098" y1="459.279" x2="585.098" y2="310.433" stroke="#E3EBED" stroke-width="0.579167"/>
<line x1="249.181" y1="459.279" x2="249.181" y2="310.433" stroke="#E3EBED" stroke-width="0.579167"/>
<line x1="786.648" y1="585.537" x2="786.648" y2="46.3333" stroke="#E3EBED" stroke-width="0.579167"/>
<line x1="181.998" y1="533.413" x2="181.998" y2="237.458" stroke="#E3EBED" stroke-width="0.579167"/>
<line x1="719.465" y1="585.537" x2="719.465" y2="143.633" stroke="#E3EBED" stroke-width="0.579167"/>
<line x1="114.815" y1="585.537" x2="114.815" y2="143.633" stroke="#E3EBED" stroke-width="0.579167"/>
<line x1="450.731" y1="459.279" x2="450.731" y2="310.433" stroke="#E3EBED" stroke-width="0.579167"/>
<line x1="652.281" y1="533.413" x2="652.281" y2="237.458" stroke="#E3EBED" stroke-width="0.579167"/>
<g clip-path="url(#clip1_243_15599)">
<mask id="path-26-inside-1_243_15599" fill="white">
<path d="M786.358 199.233H855.279V422.213H786.358V199.233Z"/>
</mask>
<line x1="751.406" y1="225.367" x2="864.621" y2="172.574" stroke="#E3EBED" stroke-width="0.579167"/>
<line x1="751.406" y1="359.38" x2="864.621" y2="306.587" stroke="#E3EBED" stroke-width="0.579167"/>
<line x1="751.406" y1="292.374" x2="864.621" y2="239.581" stroke="#E3EBED" stroke-width="0.579167"/>
<line x1="751.406" y1="426.386" x2="864.621" y2="373.593" stroke="#E3EBED" stroke-width="0.579167"/>
<line x1="751.406" y1="234.94" x2="864.621" y2="182.147" stroke="#E3EBED" stroke-width="0.579167"/>
<line x1="751.406" y1="368.952" x2="864.621" y2="316.159" stroke="#E3EBED" stroke-width="0.579167"/>
<line x1="751.406" y1="301.946" x2="864.621" y2="249.153" stroke="#E3EBED" stroke-width="0.579167"/>
<line x1="751.406" y1="435.959" x2="864.621" y2="383.166" stroke="#E3EBED" stroke-width="0.579167"/>
<line x1="751.406" y1="244.512" x2="864.621" y2="191.719" stroke="#E3EBED" stroke-width="0.579167"/>
<line x1="751.406" y1="378.525" x2="864.621" y2="325.732" stroke="#E3EBED" stroke-width="0.579167"/>
<line x1="751.406" y1="311.518" x2="864.621" y2="258.725" stroke="#E3EBED" stroke-width="0.579167"/>
<line x1="751.406" y1="445.531" x2="864.621" y2="392.738" stroke="#E3EBED" stroke-width="0.579167"/>
<line x1="751.406" y1="254.084" x2="864.621" y2="201.291" stroke="#E3EBED" stroke-width="0.579167"/>
<line x1="751.406" y1="388.097" x2="864.621" y2="335.304" stroke="#E3EBED" stroke-width="0.579167"/>
<line x1="751.406" y1="321.091" x2="864.621" y2="268.298" stroke="#E3EBED" stroke-width="0.579167"/>
<line x1="751.406" y1="455.104" x2="864.621" y2="402.31" stroke="#E3EBED" stroke-width="0.579167"/>
<line x1="751.406" y1="263.657" x2="864.621" y2="210.864" stroke="#E3EBED" stroke-width="0.579167"/>
<line x1="751.406" y1="397.669" x2="864.621" y2="344.876" stroke="#E3EBED" stroke-width="0.579167"/>
<line x1="751.406" y1="330.663" x2="864.621" y2="277.87" stroke="#E3EBED" stroke-width="0.579167"/>
<line x1="751.406" y1="464.676" x2="864.621" y2="411.883" stroke="#E3EBED" stroke-width="0.579167"/>
<line x1="751.406" y1="273.229" x2="864.621" y2="220.436" stroke="#E3EBED" stroke-width="0.579167"/>
<line x1="751.406" y1="407.242" x2="864.621" y2="354.449" stroke="#E3EBED" stroke-width="0.579167"/>
<line x1="751.406" y1="340.235" x2="864.621" y2="287.442" stroke="#E3EBED" stroke-width="0.579167"/>
<line x1="751.406" y1="474.248" x2="864.621" y2="421.455" stroke="#E3EBED" stroke-width="0.579167"/>
<line x1="751.406" y1="282.801" x2="864.621" y2="230.008" stroke="#E3EBED" stroke-width="0.579167"/>
<line x1="751.406" y1="416.814" x2="864.621" y2="364.021" stroke="#E3EBED" stroke-width="0.579167"/>
<line x1="751.406" y1="349.808" x2="864.621" y2="297.015" stroke="#E3EBED" stroke-width="0.579167"/>
</g>
<path d="M786.358 199.813H855.279V198.654H786.358V199.813ZM855.279 421.633H786.358V422.792H855.279V421.633Z" fill="#E3EBED" mask="url(#path-26-inside-1_243_15599)"/>
<g clip-path="url(#clip2_243_15599)">
<mask id="path-55-inside-2_243_15599" fill="white">
<path d="M-21 199.233H47.9208V422.213H-21V199.233Z"/>
</mask>
<line x1="-55.9527" y1="225.367" x2="57.2624" y2="172.574" stroke="#E3EBED" stroke-width="0.579167"/>
<line x1="-55.9527" y1="359.38" x2="57.2624" y2="306.587" stroke="#E3EBED" stroke-width="0.579167"/>
<line x1="-55.9527" y1="292.374" x2="57.2624" y2="239.581" stroke="#E3EBED" stroke-width="0.579167"/>
<line x1="-55.9527" y1="426.386" x2="57.2624" y2="373.593" stroke="#E3EBED" stroke-width="0.579167"/>
<line x1="-55.9527" y1="234.94" x2="57.2624" y2="182.147" stroke="#E3EBED" stroke-width="0.579167"/>
<line x1="-55.9527" y1="368.952" x2="57.2624" y2="316.159" stroke="#E3EBED" stroke-width="0.579167"/>
<line x1="-55.9527" y1="301.946" x2="57.2624" y2="249.153" stroke="#E3EBED" stroke-width="0.579167"/>
<line x1="-55.9527" y1="435.959" x2="57.2624" y2="383.166" stroke="#E3EBED" stroke-width="0.579167"/>
<line x1="-55.9527" y1="244.512" x2="57.2624" y2="191.719" stroke="#E3EBED" stroke-width="0.579167"/>
<line x1="-55.9527" y1="378.525" x2="57.2624" y2="325.732" stroke="#E3EBED" stroke-width="0.579167"/>
<line x1="-55.9527" y1="311.518" x2="57.2624" y2="258.725" stroke="#E3EBED" stroke-width="0.579167"/>
<line x1="-55.9527" y1="445.531" x2="57.2624" y2="392.738" stroke="#E3EBED" stroke-width="0.579167"/>
<line x1="-55.9527" y1="254.084" x2="57.2624" y2="201.291" stroke="#E3EBED" stroke-width="0.579167"/>
<line x1="-55.9527" y1="388.097" x2="57.2624" y2="335.304" stroke="#E3EBED" stroke-width="0.579167"/>
<line x1="-55.9527" y1="321.091" x2="57.2624" y2="268.298" stroke="#E3EBED" stroke-width="0.579167"/>
<line x1="-55.9527" y1="455.104" x2="57.2624" y2="402.31" stroke="#E3EBED" stroke-width="0.579167"/>
<line x1="-55.9527" y1="263.657" x2="57.2624" y2="210.864" stroke="#E3EBED" stroke-width="0.579167"/>
<line x1="-55.9527" y1="397.669" x2="57.2624" y2="344.876" stroke="#E3EBED" stroke-width="0.579167"/>
<line x1="-55.9527" y1="330.663" x2="57.2624" y2="277.87" stroke="#E3EBED" stroke-width="0.579167"/>
<line x1="-55.9527" y1="464.676" x2="57.2624" y2="411.883" stroke="#E3EBED" stroke-width="0.579167"/>
<line x1="-55.9527" y1="273.229" x2="57.2624" y2="220.436" stroke="#E3EBED" stroke-width="0.579167"/>
<line x1="-55.9527" y1="407.242" x2="57.2624" y2="354.449" stroke="#E3EBED" stroke-width="0.579167"/>
<line x1="-55.9527" y1="340.235" x2="57.2624" y2="287.442" stroke="#E3EBED" stroke-width="0.579167"/>
<line x1="-55.9527" y1="474.248" x2="57.2624" y2="421.455" stroke="#E3EBED" stroke-width="0.579167"/>
<line x1="-55.9527" y1="282.801" x2="57.2624" y2="230.008" stroke="#E3EBED" stroke-width="0.579167"/>
<line x1="-55.9527" y1="416.814" x2="57.2624" y2="364.021" stroke="#E3EBED" stroke-width="0.579167"/>
<line x1="-55.9527" y1="349.808" x2="57.2624" y2="297.015" stroke="#E3EBED" stroke-width="0.579167"/>
</g>
<path d="M-21 199.813H47.9208V198.654H-21V199.813ZM47.9208 421.633H-21V422.792H47.9208V421.633Z" fill="#E3EBED" mask="url(#path-55-inside-2_243_15599)"/>
</g>
</g>
<defs>
<clipPath id="clip0_243_15599">
<rect width="834" height="608" fill="white"/>
</clipPath>
<clipPath id="clip1_243_15599">
<path d="M786.358 199.233H855.279V422.213H786.358V199.233Z" fill="white"/>
</clipPath>
<clipPath id="clip2_243_15599">
<path d="M-21 199.233H47.9208V422.213H-21V199.233Z" fill="white"/>
</clipPath>
</defs>
</svg>
