<svg width="38" height="34" viewBox="0 0 38 34" fill="none" xmlns="http://www.w3.org/2000/svg">
<path d="M36.9116 31.697V31.738C36.9116 32.5855 36.2246 33.2726 35.377 33.2726H2.22261C1.37506 33.2726 0.687988 32.5855 0.687988 31.738C0.687988 31.3165 0.85386 30.912 1.1497 30.6119L5.15179 26.5523H32.8252L36.4984 30.6224C36.7644 30.9171 36.9116 31.3 36.9116 31.697Z" fill="#E3EBED"/>
<path d="M36.9126 31.7003V31.7419C36.9126 32.5819 36.2223 33.2721 35.374 33.2721H2.22473C1.37644 33.2721 0.686157 32.5819 0.686157 31.7419C0.686157 31.3177 0.852496 30.9102 1.15193 30.6109L2.53243 29.2137C6.32472 30.511 11.3146 31.2928 16.7702 31.2928C23.8641 31.2928 30.1596 29.9705 34.0683 27.9246L36.4968 30.6191C36.7628 30.9186 36.9126 31.3011 36.9126 31.7003Z" fill="#889CA9"/>
<path d="M35.3772 33.65H2.22276C1.16881 33.65 0.310913 32.7921 0.310913 31.7378C0.310913 31.2141 0.513596 30.7203 0.880636 30.347L4.8827 26.2874C4.95419 26.2156 5.05074 26.175 5.15172 26.175H32.8249C32.9318 26.175 33.0335 26.2204 33.105 26.2996L36.7783 30.3695C37.1078 30.7343 37.2891 31.2056 37.2891 31.6969V31.7378C37.2891 32.7921 36.4312 33.65 35.3772 33.65ZM5.30944 26.9298L1.41867 30.8769C1.19092 31.1076 1.06563 31.4135 1.06563 31.7378C1.06563 32.376 1.5845 32.8953 2.22276 32.8953H35.3772C36.0155 32.8953 36.5344 32.376 36.5344 31.7378V31.6969C36.5344 31.3928 36.4224 31.101 36.2182 30.8751L32.6569 26.9298H5.30944Z" fill="#C6DDEA"/>
<path d="M32.8262 26.5531V8.41879C32.8262 7.38214 31.9858 6.54175 30.9492 6.54175H7.02755C5.9909 6.54175 5.15051 7.38214 5.15051 8.41879V26.5531H32.8262Z" fill="white"/>
<path d="M32.8292 16.606V26.5524H5.1521V18.6185C8.27903 20.2569 12.6785 21.2798 17.5519 21.2798C24.1967 21.2798 29.9683 19.3837 32.8292 16.606Z" fill="#BBD6EA"/>
<path d="M32.8263 26.9305H5.15092C4.94234 26.9305 4.77356 26.7617 4.77356 26.5531V8.41894C4.77356 7.17594 5.78476 6.16437 7.02739 6.16437H30.9491C32.1925 6.16437 33.2037 7.17594 33.2037 8.41894V26.5531C33.2037 26.7617 33.0349 26.9305 32.8263 26.9305ZM5.52828 26.1758H32.449V8.41894C32.449 7.59199 31.7761 6.91908 30.9491 6.91908H7.02739C6.20045 6.91908 5.52828 7.59199 5.52828 8.41894V26.1758Z" fill="#C6DDEA"/>
<path d="M21.0826 29.4371L21.9725 30.2402C22.3827 30.6104 22.1208 31.2914 21.5683 31.2914H16.0315C15.4789 31.2914 15.217 30.6104 15.6272 30.2402L16.5171 29.4371C16.628 29.337 16.772 29.2816 16.9213 29.2816H20.6784C20.8277 29.2816 20.9718 29.337 21.0826 29.4371Z" fill="white"/>
<path d="M21.5682 31.6689H16.0317C15.6226 31.6689 15.263 31.4224 15.1163 31.0406C14.9696 30.6584 15.0706 30.2346 15.3743 29.9601L16.2638 29.1571C16.4452 28.9938 16.6781 28.9043 16.9213 28.9043H20.6786C20.9219 28.9043 21.1555 28.9942 21.3353 29.1571L22.2249 29.9601C22.5286 30.2343 22.6303 30.6584 22.4836 31.0402C22.337 31.422 21.9773 31.6689 21.5682 31.6689ZM16.9213 29.659C16.8653 29.659 16.8115 29.6797 16.7694 29.7176L15.8799 30.5202C15.7759 30.6142 15.8039 30.7259 15.8209 30.7693C15.8371 30.8128 15.8916 30.9142 16.0317 30.9142H21.5682C21.7083 30.9142 21.7621 30.8128 21.779 30.7693C21.796 30.7259 21.8233 30.6146 21.7193 30.5202L20.8297 29.7172L20.829 29.7169C20.7877 29.6797 20.7347 29.659 20.6786 29.659H16.9213Z" fill="#C6DDEA"/>
<path d="M24.6793 9.93193C24.6793 9.93193 21.6408 13.2096 21.7372 16.2945H15.8566C15.953 13.2096 12.9182 9.93193 12.9182 9.93193L18.7988 0.727417L24.6793 9.93193Z" fill="#E3EBED"/>
<path d="M24.6803 9.93155C24.6803 9.93155 21.6423 13.2067 21.7389 16.2974H15.856C15.8824 15.4282 15.6629 14.5501 15.3291 13.7247C15.5662 13.7686 15.8121 13.7862 16.058 13.7862C19.4559 13.7862 22.2043 10.353 22.2395 6.10327L24.6803 9.93155Z" fill="#889CA9"/>
<path d="M21.737 16.6718H15.8563C15.7538 16.6718 15.6566 16.6306 15.5851 16.5572C15.5143 16.4839 15.476 16.3848 15.4789 16.2827C15.5696 13.3909 12.6709 10.2199 12.6414 10.1882C12.5249 10.0622 12.508 9.87348 12.6008 9.72902L18.4809 0.524274C18.6194 0.30685 18.9776 0.30685 19.1162 0.524274L24.9969 9.72902C25.0898 9.87348 25.0728 10.0625 24.9564 10.1886C24.9269 10.2202 22.0237 13.3913 22.1144 16.2827C22.1173 16.3848 22.079 16.4839 22.0083 16.5572C21.9368 16.6306 21.8395 16.6718 21.737 16.6718ZM16.2307 15.9171H21.3626C21.4798 13.2741 23.5501 10.6614 24.2083 9.89522L18.7985 1.42824L13.3895 9.89559C14.0462 10.6617 16.1143 13.2741 16.2307 15.9171Z" fill="#C6DDEA"/>
<path d="M18.7985 8.88845C18.5899 8.88845 18.4211 8.71967 18.4211 8.51109V0.727334C18.4211 0.518755 18.5899 0.349976 18.7985 0.349976C19.0071 0.349976 19.1759 0.518755 19.1759 0.727334V8.51109C19.1759 8.71967 19.0071 8.88845 18.7985 8.88845Z" fill="#C6DDEA"/>
<path d="M18.7932 9.86945C19.5435 9.86945 20.1517 9.26123 20.1517 8.51096C20.1517 7.76068 19.5435 7.15247 18.7932 7.15247C18.0429 7.15247 17.4347 7.76068 17.4347 8.51096C17.4347 9.26123 18.0429 9.86945 18.7932 9.86945Z" fill="#C6DDEA"/>
<path d="M22.3539 16.4241H15.2535V26.5532H22.3539V16.4241Z" fill="#70889F"/>
<path d="M22.3514 16.42V26.552H18.7173C19.4528 24.7568 19.9257 23.6271 19.9257 20.3695C19.9257 18.9596 19.8382 17.6285 19.6718 16.42H22.3514Z" fill="#C6DDEA"/>
<path d="M22.354 26.9305H15.2535C15.0449 26.9305 14.8761 26.7617 14.8761 26.5532V16.4242C14.8761 16.2156 15.0449 16.0468 15.2535 16.0468H22.354C22.5626 16.0468 22.7313 16.2156 22.7313 16.4242V26.5532C22.7313 26.7617 22.5626 26.9305 22.354 26.9305ZM15.6308 26.1758H21.9766V16.8015H15.6308V26.1758Z" fill="#C6DDEA"/>
<path d="M24.2311 15.5638V17.5714C24.2311 17.9972 23.8835 18.3448 23.4577 18.3448H14.1412C13.7153 18.3448 13.3676 17.9972 13.3676 17.5714V15.5638C13.3676 15.1379 13.7153 14.7903 14.1412 14.7903H23.4577C23.8835 14.7903 24.2311 15.1379 24.2311 15.5638Z" fill="#70889F"/>
<path d="M24.2342 16.2974V17.5672C24.2342 17.9963 23.8838 18.3466 23.4547 18.3466H14.1373C13.717 18.3466 13.3666 17.9963 13.3666 17.5672V16.3763C14.7678 16.6565 16.598 16.8229 18.6033 16.8229C20.8013 16.8229 22.7892 16.6214 24.2342 16.2974Z" fill="#C6DDEA"/>
<path d="M23.458 18.7222H14.1412C13.5066 18.7222 12.99 18.206 12.99 17.5714V15.5637C12.99 14.9291 13.5066 14.4128 14.1412 14.4128H23.458C24.0926 14.4128 24.6085 14.9291 24.6085 15.5637V17.5714C24.6085 18.206 24.0926 18.7222 23.458 18.7222ZM14.1412 15.1676C13.9223 15.1676 13.7447 15.3452 13.7447 15.5637V17.5714C13.7447 17.7899 13.9223 17.9675 14.1412 17.9675H23.458C23.6762 17.9675 23.8538 17.7899 23.8538 17.5714V15.5637C23.8538 15.3452 23.6762 15.1676 23.458 15.1676H14.1412Z" fill="#C6DDEA"/>
</svg>
