<svg width="41" height="40" viewBox="0 0 41 40" fill="none" xmlns="http://www.w3.org/2000/svg">
<path d="M38.9116 34.697V34.738C38.9116 35.5855 38.2246 36.2726 37.377 36.2726H4.22261C3.37506 36.2726 2.68799 35.5855 2.68799 34.738C2.68799 34.3165 2.85386 33.912 3.1497 33.6119L7.15179 29.5523H34.8252L38.4984 33.6224C38.7644 33.9171 38.9116 34.3 38.9116 34.697Z" fill="#E3EBED"/>
<path d="M38.9126 34.7003V34.7419C38.9126 35.5819 38.2223 36.2721 37.374 36.2721H4.22473C3.37644 36.2721 2.68616 35.5819 2.68616 34.7419C2.68616 34.3177 2.8525 33.9102 3.15193 33.6109L4.53243 32.2137C8.32472 33.511 13.3146 34.2928 18.7702 34.2928C25.8641 34.2928 32.1596 32.9705 36.0683 30.9246L38.4968 33.6191C38.7628 33.9186 38.9126 34.3011 38.9126 34.7003Z" fill="#A4A1AE"/>
<path d="M37.3772 36.65H4.22276C3.16881 36.65 2.31091 35.7921 2.31091 34.7378C2.31091 34.2141 2.5136 33.7203 2.88064 33.347L6.8827 29.2874C6.95419 29.2156 7.05074 29.175 7.15172 29.175H34.8249C34.9318 29.175 35.0335 29.2204 35.105 29.2996L38.7783 33.3695C39.1078 33.7343 39.2891 34.2056 39.2891 34.6969V34.7378C39.2891 35.7921 38.4312 36.65 37.3772 36.65ZM7.30944 29.9298L3.41867 33.8769C3.19092 34.1076 3.06563 34.4135 3.06563 34.7378C3.06563 35.376 3.5845 35.8953 4.22276 35.8953H37.3772C38.0155 35.8953 38.5344 35.376 38.5344 34.7378V34.6969C38.5344 34.3928 38.4224 34.101 38.2182 33.8751L34.6569 29.9298H7.30944Z" fill="#4B4952"/>
<path d="M34.8262 29.5531V11.4188C34.8262 10.3821 33.9858 9.54175 32.9492 9.54175H9.02755C7.9909 9.54175 7.15051 10.3821 7.15051 11.4188V29.5531H34.8262Z" fill="white"/>
<path d="M34.8292 19.606V29.5524H7.1521V21.6185C10.279 23.2569 14.6785 24.2798 19.5519 24.2798C26.1967 24.2798 31.9683 22.3837 34.8292 19.606Z" fill="#EFEFEF"/>
<path d="M34.8263 29.9305H7.15092C6.94234 29.9305 6.77356 29.7617 6.77356 29.5531V11.4189C6.77356 10.1759 7.78476 9.16437 9.02739 9.16437H32.9491C34.1925 9.16437 35.2037 10.1759 35.2037 11.4189V29.5531C35.2037 29.7617 35.0349 29.9305 34.8263 29.9305ZM7.52828 29.1758H34.449V11.4189C34.449 10.592 33.7761 9.91908 32.9491 9.91908H9.02739C8.20045 9.91908 7.52828 10.592 7.52828 11.4189V29.1758Z" fill="#4B4952"/>
<path d="M23.0826 32.4371L23.9725 33.2402C24.3827 33.6104 24.1208 34.2914 23.5683 34.2914H18.0315C17.4789 34.2914 17.217 33.6104 17.6272 33.2402L18.5171 32.4371C18.628 32.337 18.772 32.2816 18.9213 32.2816H22.6784C22.8277 32.2816 22.9718 32.337 23.0826 32.4371Z" fill="white"/>
<path d="M23.5682 34.6689H18.0317C17.6226 34.6689 17.263 34.4224 17.1163 34.0406C16.9696 33.6584 17.0706 33.2346 17.3743 32.9601L18.2638 32.1571C18.4452 31.9938 18.6781 31.9043 18.9213 31.9043H22.6786C22.9219 31.9043 23.1555 31.9942 23.3353 32.1571L24.2249 32.9601C24.5286 33.2343 24.6303 33.6584 24.4836 34.0402C24.337 34.422 23.9773 34.6689 23.5682 34.6689ZM18.9213 32.659C18.8653 32.659 18.8115 32.6797 18.7694 32.7176L17.8799 33.5202C17.7759 33.6142 17.8039 33.7259 17.8209 33.7693C17.8371 33.8128 17.8916 33.9142 18.0317 33.9142H23.5682C23.7083 33.9142 23.7621 33.8128 23.779 33.7693C23.796 33.7259 23.8233 33.6146 23.7193 33.5202L22.8297 32.7172L22.829 32.7169C22.7877 32.6797 22.7347 32.659 22.6786 32.659H18.9213Z" fill="#4B4952"/>
<path d="M26.6793 12.9319C26.6793 12.9319 23.6408 16.2096 23.7372 19.2945H17.8566C17.953 16.2096 14.9182 12.9319 14.9182 12.9319L20.7988 3.72742L26.6793 12.9319Z" fill="#E3EBED"/>
<path d="M26.6803 12.9316C26.6803 12.9316 23.6423 16.2067 23.7389 19.2974H17.856C17.8824 18.4282 17.6629 17.5501 17.3291 16.7247C17.5662 16.7686 17.8121 16.7862 18.058 16.7862C21.4559 16.7862 24.2043 13.353 24.2395 9.10327L26.6803 12.9316Z" fill="#A4A1AE"/>
<path d="M23.737 19.6718H17.8563C17.7538 19.6718 17.6566 19.6306 17.5851 19.5572C17.5143 19.4839 17.476 19.3848 17.4789 19.2827C17.5696 16.3909 14.6709 13.2199 14.6414 13.1882C14.5249 13.0622 14.508 12.8735 14.6008 12.729L20.4809 3.52427C20.6194 3.30685 20.9776 3.30685 21.1162 3.52427L26.9969 12.729C27.0898 12.8735 27.0728 13.0625 26.9564 13.1886C26.9269 13.2202 24.0237 16.3913 24.1144 19.2827C24.1173 19.3848 24.079 19.4839 24.0083 19.5572C23.9368 19.6306 23.8395 19.6718 23.737 19.6718ZM18.2307 18.9171H23.3626C23.4798 16.2741 25.5501 13.6614 26.2083 12.8952L20.7985 4.42824L15.3895 12.8956C16.0462 13.6617 18.1143 16.2741 18.2307 18.9171Z" fill="#4B4952"/>
<path d="M20.7985 11.8884C20.5899 11.8884 20.4211 11.7197 20.4211 11.5111V3.72733C20.4211 3.51876 20.5899 3.34998 20.7985 3.34998C21.0071 3.34998 21.1759 3.51876 21.1759 3.72733V11.5111C21.1759 11.7197 21.0071 11.8884 20.7985 11.8884Z" fill="#4B4952"/>
<path d="M20.7932 12.8694C21.5435 12.8694 22.1517 12.2612 22.1517 11.511C22.1517 10.7607 21.5435 10.1525 20.7932 10.1525C20.0429 10.1525 19.4347 10.7607 19.4347 11.511C19.4347 12.2612 20.0429 12.8694 20.7932 12.8694Z" fill="#4B4952"/>
<path d="M24.3539 19.4241H17.2535V29.5532H24.3539V19.4241Z" fill="#928F9F"/>
<path d="M24.3514 19.42V29.552H20.7173C21.4528 27.7568 21.9257 26.6271 21.9257 23.3695C21.9257 21.9596 21.8382 20.6285 21.6718 19.42H24.3514Z" fill="#605E67"/>
<path d="M24.354 29.9305H17.2535C17.0449 29.9305 16.8761 29.7617 16.8761 29.5532V19.4242C16.8761 19.2156 17.0449 19.0468 17.2535 19.0468H24.354C24.5626 19.0468 24.7313 19.2156 24.7313 19.4242V29.5532C24.7313 29.7617 24.5626 29.9305 24.354 29.9305ZM17.6308 29.1758H23.9766V19.8015H17.6308V29.1758Z" fill="#4B4952"/>
<path d="M26.2311 18.5638V20.5714C26.2311 20.9972 25.8835 21.3448 25.4577 21.3448H16.1412C15.7153 21.3448 15.3676 20.9972 15.3676 20.5714V18.5638C15.3676 18.1379 15.7153 17.7903 16.1412 17.7903H25.4577C25.8835 17.7903 26.2311 18.1379 26.2311 18.5638Z" fill="#928F9F"/>
<path d="M26.2342 19.2974V20.5672C26.2342 20.9963 25.8838 21.3466 25.4547 21.3466H16.1373C15.717 21.3466 15.3666 20.9963 15.3666 20.5672V19.3763C16.7678 19.6565 18.598 19.8229 20.6033 19.8229C22.8013 19.8229 24.7892 19.6214 26.2342 19.2974Z" fill="#605E67"/>
<path d="M25.458 21.7222H16.1412C15.5066 21.7222 14.99 21.206 14.99 20.5714V18.5637C14.99 17.9291 15.5066 17.4128 16.1412 17.4128H25.458C26.0926 17.4128 26.6085 17.9291 26.6085 18.5637V20.5714C26.6085 21.206 26.0926 21.7222 25.458 21.7222ZM16.1412 18.1676C15.9223 18.1676 15.7447 18.3452 15.7447 18.5637V20.5714C15.7447 20.7899 15.9223 20.9675 16.1412 20.9675H25.458C25.6762 20.9675 25.8538 20.7899 25.8538 20.5714V18.5637C25.8538 18.3452 25.6762 18.1676 25.458 18.1676H16.1412Z" fill="#4B4952"/>
</svg>
