<svg xmlns="http://www.w3.org/2000/svg" width="41" height="40" fill="none"><path fill="#928F9F" d="M37.686 16.384 19.73 35.675a6.473 6.473 0 0 1-9.153.328 6.45 6.45 0 0 1-2.062-4.508 6.46 6.46 0 0 1 1.734-4.644L28.205 7.56c.881-.947 2.369-1 3.316-.12l6.046 5.629c.947.88 1 2.368.119 3.315"/><path fill="#787582" d="M37.686 16.384 19.73 35.675a6.473 6.473 0 0 1-9.153.328 6.3 6.3 0 0 1-1.015-1.219c4.46-2.04 11.01-7.254 17.458-14.18 3.142-3.376 5.88-6.744 8.052-9.858l2.495 2.323c.947.88 1 2.368.119 3.315"/><path fill="#4B4952" d="M14.987 38.113a6.83 6.83 0 0 1-4.667-1.834 6.8 6.8 0 0 1-2.182-4.77 6.8 6.8 0 0 1 1.835-4.916l17.956-19.29a2.727 2.727 0 0 1 3.849-.139l6.047 5.628a2.727 2.727 0 0 1 .137 3.849L20.006 35.932a6.84 6.84 0 0 1-5.019 2.18M29.923 7.19c-.528 0-1.054.21-1.441.627l-17.956 19.29a6.06 6.06 0 0 0-1.634 4.374 6.06 6.06 0 0 0 1.943 4.246 6.105 6.105 0 0 0 8.618-.31l17.957-19.29a1.97 1.97 0 0 0-.1-2.783l-6.047-5.627a1.96 1.96 0 0 0-1.34-.527"/><path fill="#4B4952" d="M33.34 21.27a.38.38 0 0 1-.267-.11l-9.128-9.19a.378.378 0 0 1 .535-.533l9.128 9.19a.378.378 0 0 1-.267.643M26.9 27.522a.38.38 0 0 1-.268-.111l-9.129-9.19a.378.378 0 0 1 .536-.532l9.128 9.19a.378.378 0 0 1-.268.643"/><path fill="#00CF7D" d="m22.093 33.136-2.363 2.539a6.473 6.473 0 0 1-9.153.328c-.14-.13-.264-.26-.39-.39l-.14-.172a5 5 0 0 1-.485-.657 6.34 6.34 0 0 1-1.047-3.29 6.46 6.46 0 0 1 1.734-4.643l2.363-2.54z"/><path fill="#D0DBFB" d="m22.093 33.136-2.363 2.539a6.473 6.473 0 0 1-9.153.328c-.14-.13-.264-.26-.39-.39l-.14-.172a5 5 0 0 1-.485-.657c2.317-1.062 5.199-2.981 8.341-5.548z"/><path fill="#4B4952" d="M14.987 38.113a6.83 6.83 0 0 1-4.667-1.834 6.8 6.8 0 0 1-2.182-4.77 6.8 6.8 0 0 1 1.835-4.916l2.363-2.538a.38.38 0 0 1 .263-.12.36.36 0 0 1 .27.1l9.481 8.825a.38.38 0 0 1 .02.533l-2.364 2.54a6.84 6.84 0 0 1-5.019 2.18m-2.355-13.268-2.106 2.263a6.06 6.06 0 0 0-1.634 4.373 6.06 6.06 0 0 0 1.943 4.246 6.105 6.105 0 0 0 8.618-.31l2.107-2.262z"/><path fill="#4B4952" d="M14.109 33.88a1.67 1.67 0 1 0 0-3.342 1.67 1.67 0 0 0 0 3.342"/><path fill="#E3EBED" d="m29.487 8.404-8.563 24.924a6.473 6.473 0 0 1-8.229 4.02 6.45 6.45 0 0 1-3.717-3.28 6.46 6.46 0 0 1-.303-4.948l8.563-24.925a2.35 2.35 0 0 1 2.98-1.456l7.813 2.684a2.35 2.35 0 0 1 1.456 2.98"/><path fill="#A4A1AE" d="m29.487 8.404-8.563 24.924a6.473 6.473 0 0 1-8.229 4.02 6.3 6.3 0 0 1-1.423-.7c3.245-3.677 7.111-11.104 10.186-20.053 1.498-4.362 2.63-8.552 3.35-12.28l3.223 1.108a2.35 2.35 0 0 1 1.456 2.98"/><path fill="#4B4952" d="M14.793 38.078c-.737 0-1.485-.12-2.22-.373a6.8 6.8 0 0 1-3.934-3.471 6.8 6.8 0 0 1-.321-5.237l8.564-24.924a2.7 2.7 0 0 1 1.38-1.561 2.7 2.7 0 0 1 2.08-.13l7.812 2.684c.686.236 1.24.726 1.56 1.38.32.655.366 1.393.13 2.08L21.28 33.451c-.975 2.839-3.64 4.627-6.487 4.627m4.666-35.09c-.818 0-1.584.515-1.864 1.33L9.031 29.243a6.06 6.06 0 0 0 .286 4.66 6.06 6.06 0 0 0 3.5 3.089 6.107 6.107 0 0 0 7.75-3.786L29.131 8.28c.17-.496.137-1.03-.095-1.503a1.96 1.96 0 0 0-1.128-.998l-7.812-2.684a2 2 0 0 0-.637-.107"/><path fill="#00CF7D" d="m22.05 30.048-1.126 3.28a6.473 6.473 0 0 1-8.229 4.02 10 10 0 0 1-.515-.198l-.199-.1a5 5 0 0 1-.71-.402 6.34 6.34 0 0 1-2.293-2.58 6.46 6.46 0 0 1-.303-4.948l1.127-3.28z"/><path fill="#D0DBFB" d="m22.05 30.048-1.126 3.28a6.473 6.473 0 0 1-8.229 4.02c-.18-.061-.347-.13-.515-.197l-.199-.1a5 5 0 0 1-.71-.403c1.686-1.912 3.539-4.837 5.366-8.46z"/><path fill="#4B4952" d="M14.793 38.078c-.737 0-1.485-.12-2.22-.373a6.8 6.8 0 0 1-3.934-3.471 6.8 6.8 0 0 1-.321-5.237l1.127-3.28a.376.376 0 0 1 .48-.234l12.249 4.208a.376.376 0 0 1 .234.48l-1.128 3.28c-.975 2.839-3.64 4.627-6.487 4.627m-4.757-11.759-1.005 2.924a6.06 6.06 0 0 0 .286 4.66 6.06 6.06 0 0 0 3.5 3.089 6.107 6.107 0 0 0 7.75-3.786l1.005-2.924z"/><path fill="#4B4952" d="M14.379 34.118a1.671 1.671 0 1 0 0-3.342 1.671 1.671 0 0 0 0 3.342M27.676 14.082a.4.4 0 0 1-.129-.023L15.374 9.636a.377.377 0 1 1 .258-.709l12.173 4.423a.377.377 0 0 1-.129.732M24.514 22.483a.4.4 0 0 1-.13-.023l-12.173-4.424a.377.377 0 1 1 .258-.709l12.173 4.424a.377.377 0 0 1-.128.732"/><path fill="#928F9F" d="m14.724 4.044 6.374 25.572a6.473 6.473 0 0 1-4.718 7.85 6.45 6.45 0 0 1-4.903-.73 6.46 6.46 0 0 1-2.946-3.987L2.157 7.176a2.35 2.35 0 0 1 1.708-2.843l8.015-1.998a2.35 2.35 0 0 1 2.844 1.709"/><path fill="#787582" d="m14.724 4.044 6.374 25.572a6.473 6.473 0 0 1-4.717 7.85 6.3 6.3 0 0 1-1.576.186c.723-4.85-.073-13.185-2.362-22.367-1.115-4.475-2.445-8.606-3.87-12.126l3.308-.824a2.35 2.35 0 0 1 2.843 1.709"/><path fill="#4B4952" d="M14.797 38.039a6.8 6.8 0 0 1-3.515-.98 6.8 6.8 0 0 1-3.118-4.219L1.79 7.268a2.727 2.727 0 0 1 1.984-3.301l8.015-1.998a2.7 2.7 0 0 1 2.06.31c.625.375 1.065.969 1.241 1.674l6.374 25.572a6.862 6.862 0 0 1-6.667 8.514M12.449 2.642q-.24 0-.477.06L3.957 4.698c-.51.127-.939.445-1.21.897-.271.451-.351.98-.224 1.489l6.374 25.572a6.06 6.06 0 0 0 2.774 3.755 6.06 6.06 0 0 0 4.618.688 6.06 6.06 0 0 0 3.753-2.776 6.06 6.06 0 0 0 .69-4.616L14.358 4.135a1.95 1.95 0 0 0-.897-1.21 1.96 1.96 0 0 0-1.012-.283"/><path fill="#F8FAFB" d="m20.259 26.25.839 3.366a6.473 6.473 0 0 1-4.717 7.85c-.185.046-.363.08-.54.114-.08.01-.151.017-.222.024-.28.039-.544.053-.814.048a6.34 6.34 0 0 1-3.328-.916 6.46 6.46 0 0 1-2.946-3.987l-.84-3.366z"/><path fill="#EFEFEF" d="m20.259 26.25.839 3.366a6.473 6.473 0 0 1-4.717 7.85c-.185.046-.363.08-.54.114-.08.01-.151.017-.222.024-.28.039-.544.053-.814.048.374-2.52.337-5.983-.1-10.017z"/><path fill="#4B4952" d="M14.797 38.039a6.8 6.8 0 0 1-3.515-.98 6.8 6.8 0 0 1-3.118-4.219l-.838-3.365a.38.38 0 0 1 .274-.458l12.568-3.133a.38.38 0 0 1 .457.275l.84 3.366a6.8 6.8 0 0 1-.776 5.188 6.8 6.8 0 0 1-4.217 3.12 7 7 0 0 1-1.675.206m-6.648-8.38.748 2.998a6.06 6.06 0 0 0 2.774 3.755 6.06 6.06 0 0 0 4.618.688 6.06 6.06 0 0 0 3.753-2.776 6.06 6.06 0 0 0 .69-4.616l-.748-3z"/><path fill="#4B4952" d="M15.127 34.108a1.67 1.67 0 1 0 0-3.342 1.67 1.67 0 0 0 0 3.342M3.69 13.707a.377.377 0 0 1-.094-.742l12.537-3.253a.377.377 0 1 1 .19.73L3.784 13.695a.4.4 0 0 1-.095.012M5.844 22.421a.377.377 0 0 1-.095-.742l12.538-3.253a.377.377 0 1 1 .189.73L5.939 22.41a.4.4 0 0 1-.095.012"/></svg>