<svg width="18" height="20" viewBox="0 0 18 20" fill="none" xmlns="http://www.w3.org/2000/svg">
<path d="M8.88889 0C3.97969 0 0 4.47715 0 10C0 15.5228 3.97969 20 8.88889 20C13.7981 20 17.7778 15.5228 17.7778 10C17.7721 4.47982 13.7957 0.00642897 8.88889 0Z" fill="#C6DDEA"/>
<path d="M14.0201 6.83313L8.94972 14.574C8.8288 14.7545 8.64848 14.8727 8.44929 14.9022C8.2501 14.9316 8.04874 14.8698 7.89046 14.7306L4.26972 11.474C3.95021 11.1863 3.89848 10.6617 4.15417 10.3023C4.40985 9.94285 4.87614 9.88465 5.19565 10.1723L8.21491 12.8898L12.8275 5.8473C12.9788 5.59195 13.2425 5.45078 13.514 5.47983C13.7856 5.50887 14.0209 5.70344 14.1267 5.98627C14.2325 6.26911 14.1915 6.59445 14.0201 6.83313Z" fill="#2B4A82"/>
</svg>
