<svg width="38" height="36" viewBox="0 0 38 36" fill="none" xmlns="http://www.w3.org/2000/svg">
<path d="M21.7946 19.1366L19.175 26.4966H24.5954L17.6391 34.8068V28.9004H14.2059L17.3682 19.803L21.7946 19.1366Z" fill="#70889F"/>
<path d="M17.6392 35.1842C17.5957 35.1842 17.5522 35.1768 17.5102 35.1613C17.3613 35.1071 17.2618 34.9656 17.2618 34.8068V29.2776H14.2061C14.0838 29.2776 13.9695 29.2186 13.8988 29.1188C13.828 29.0193 13.8096 28.8918 13.8494 28.7764L17.0112 19.6793C17.0577 19.547 17.1734 19.4508 17.3119 19.4298L21.7385 18.7632C21.8675 18.7433 22.0017 18.7941 22.0857 18.8966C22.1704 18.999 22.1948 19.1379 22.1498 19.2629L19.7095 26.1191H24.5953C24.7419 26.1191 24.8753 26.2038 24.9372 26.3369C24.9991 26.4695 24.9785 26.6262 24.8849 26.7385L17.9288 35.0489C17.8551 35.1362 17.749 35.1842 17.6392 35.1842ZM14.7368 28.5229H17.6392C17.8478 28.5229 18.0165 28.6917 18.0165 28.9003V33.768L23.7875 26.8738H19.1744C19.0521 26.8738 18.9371 26.8141 18.8663 26.7139C18.7956 26.6136 18.7779 26.4854 18.8192 26.37L21.2278 19.6034L17.6495 20.1421L14.7368 28.5229Z" fill="#C6DDEA"/>
<path d="M9.70712 24.606L7.88448 29.7267H11.6558L6.8158 35.5086V31.3992H4.42712L6.62712 24.606H9.70712Z" fill="#70889F"/>
<path d="M6.81593 35.8865C6.77244 35.8865 6.72896 35.8792 6.68695 35.8637C6.53807 35.8095 6.43857 35.668 6.43857 35.5092V31.7769H4.42722C4.30635 31.7769 4.19284 31.719 4.12209 31.6213C4.05133 31.5237 4.0307 31.398 4.06829 31.2834L6.26832 24.4899C6.31843 24.334 6.46363 24.2286 6.62725 24.2286H9.70729C9.82964 24.2286 9.94461 24.2883 10.0154 24.3885C10.0861 24.4887 10.1038 24.617 10.0625 24.7323L8.4197 29.3494H11.656C11.8027 29.3494 11.9361 29.4342 11.998 29.5672C12.0599 29.6999 12.0392 29.8565 11.9456 29.9689L7.10558 35.7513C7.03188 35.8386 6.92574 35.8865 6.81593 35.8865ZM4.94609 31.0221H6.81593C7.02451 31.0221 7.19329 31.1909 7.19329 31.3995V34.4703L10.8482 30.1042H7.88462C7.76227 30.1042 7.6473 30.0445 7.57654 29.9442C7.50579 29.844 7.4881 29.7158 7.52937 29.6004L9.17221 24.9833H6.90142L4.94609 31.0221Z" fill="#C6DDEA"/>
<path d="M32.4256 24.606L30.6022 29.7267H34.3736L29.5343 35.5086V31.3992H27.1456L29.3456 24.606H32.4256Z" fill="#70889F"/>
<path d="M29.5341 35.8865C29.4906 35.8865 29.4471 35.8792 29.4051 35.8637C29.2562 35.8095 29.1567 35.668 29.1567 35.5092V31.7769H27.1454C27.0245 31.7769 26.911 31.719 26.8402 31.6213C26.7695 31.5237 26.7488 31.398 26.7864 31.2834L28.9865 24.4899C29.0366 24.334 29.1818 24.2286 29.3454 24.2286H32.4254C32.5478 24.2286 32.6628 24.2883 32.7335 24.3885C32.8043 24.4887 32.822 24.617 32.7807 24.7323L31.1378 29.3494H34.3741C34.5208 29.3494 34.6542 29.4342 34.7161 29.5672C34.778 29.6999 34.7574 29.8565 34.6638 29.9689L29.8237 35.7513C29.75 35.8386 29.6439 35.8865 29.5341 35.8865ZM27.6642 31.0221H29.5341C29.7426 31.0221 29.9114 31.1909 29.9114 31.3995V34.4703L33.5663 30.1042H30.6028C30.4804 30.1042 30.3654 30.0445 30.2947 29.9442C30.2239 29.844 30.2062 29.7158 30.2475 29.6004L31.8903 24.9833H29.6196L27.6642 31.0221Z" fill="#C6DDEA"/>
<path d="M37.5118 15.4699C37.5118 18.4197 35.1303 20.8148 32.1805 20.8148C29.2306 20.8148 9.46124 20.8148 6.61951 20.8148C3.66975 20.8148 1.28821 18.4197 1.28821 15.4699C1.28821 13.0343 2.939 10.964 5.18526 10.3415C5.34763 7.5405 7.675 5.32133 10.5032 5.32133C10.9361 5.32133 11.369 5.37551 11.7751 5.4837C12.6682 3.77881 14.4543 2.61504 16.5111 2.61504C17.4042 2.61504 18.2431 2.83159 18.9739 3.21043C20.3405 1.54609 22.4107 0.490601 24.7247 0.490601C27.7557 0.490601 30.3537 2.2903 31.5175 4.87485C34.0884 5.24014 36.0774 7.44577 36.0774 10.1385C36.0774 10.6527 36.0099 11.1534 35.861 11.6135C36.8759 12.5877 37.5118 13.9544 37.5118 15.4699Z" fill="white"/>
<path d="M37.5139 15.4679C37.5139 18.4166 35.1297 20.8176 32.1811 20.8176H6.6203C3.67164 20.8176 1.28748 18.4166 1.28748 15.4679C1.28748 14.8529 1.38857 14.2632 1.58232 13.7156C5.48298 15.5775 10.6221 16.7064 16.2414 16.7064C24.9188 16.7064 32.4422 14.0189 36.0732 10.093V10.1351C36.0732 10.649 36.0058 11.1545 35.8626 11.6094C36.8736 12.5867 37.5139 13.9515 37.5139 15.4679Z" fill="#BBD6EA"/>
<path d="M32.1808 21.192H6.61917C3.47132 21.192 0.910889 18.625 0.910889 15.4698C0.910889 13.0062 2.5095 10.8169 4.82967 10.0548C5.13111 7.16824 7.57436 4.94389 10.5033 4.94389C10.8733 4.94389 11.2352 4.98 11.5838 5.05112C12.6127 3.30842 14.4744 2.23789 16.5108 2.23789C17.3289 2.23789 18.1404 2.41219 18.876 2.74386C20.3603 1.06822 22.4756 0.113403 24.725 0.113403C27.7313 0.113403 30.4768 1.8421 31.7747 4.5341C34.4575 5.01648 36.4548 7.38971 36.4548 10.1385C36.4548 10.6245 36.3981 11.083 36.286 11.5049C37.3216 12.5788 37.8891 13.978 37.8891 15.4698C37.8891 18.625 35.3286 21.192 32.1808 21.192ZM10.5033 5.6986C7.88465 5.6986 5.7141 7.74754 5.56154 10.3633C5.55196 10.5247 5.4414 10.6621 5.28589 10.7052C3.1544 11.296 1.66561 13.2554 1.66561 15.4698C1.66561 18.2089 3.88775 20.4373 6.61917 20.4373H32.1808C34.9122 20.4373 37.1344 18.2089 37.1344 15.4698C37.1344 14.1085 36.589 12.8356 35.5991 11.886C35.4952 11.7857 35.4576 11.635 35.5018 11.4975C35.633 11.0907 35.7001 10.6334 35.7001 10.1385C35.7001 7.69374 33.8789 5.59173 31.4644 5.24865C31.3362 5.23022 31.2263 5.14768 31.1733 5.02975C30.0353 2.50174 27.5036 0.86812 24.725 0.86812C22.6024 0.86812 20.6131 1.80931 19.2658 3.44993C19.1523 3.58775 18.9578 3.62755 18.8 3.54538C18.1021 3.18386 17.3105 2.9926 16.5108 2.9926C14.6572 2.9926 12.9709 4.01413 12.1093 5.6588C12.0275 5.81542 11.8484 5.89428 11.6774 5.84822C11.3052 5.74909 10.9109 5.6986 10.5033 5.6986Z" fill="#C6DDEA"/>
<path d="M14.4523 12.3038C14.4037 12.3038 14.3535 12.2943 14.3056 12.2744C10.0316 10.4742 11.3973 5.43216 11.4113 5.3813C11.4681 5.18046 11.6767 5.06328 11.8764 5.12076C12.0769 5.17678 12.1941 5.38499 12.138 5.58583C12.0872 5.76677 10.9418 10.039 14.599 11.5786C14.7906 11.6597 14.8813 11.8808 14.8002 12.0728C14.739 12.2172 14.5997 12.3038 14.4523 12.3038Z" fill="#C6DDEA"/>
<path d="M21.8948 7.01825C21.6892 7.01825 21.5211 6.85389 21.5174 6.64789C21.4806 4.64539 18.8604 3.57154 18.8339 3.56085C18.6408 3.4831 18.5465 3.26383 18.6239 3.07036C18.7012 2.87689 18.9201 2.78181 19.1132 2.85994C19.2408 2.91042 22.2257 4.12836 22.2721 6.63389C22.2758 6.84247 22.11 7.0142 21.9014 7.01825C21.8992 7.01825 21.897 7.01825 21.8948 7.01825Z" fill="#C6DDEA"/>
<path d="M26.7158 5.86112C26.6067 5.86112 26.4991 5.81395 26.4239 5.72329C26.292 5.56225 26.3148 5.32456 26.4762 5.19227C29.0477 3.07884 31.6767 4.53189 31.704 4.547C31.8845 4.64944 31.9479 4.87866 31.8455 5.05997C31.743 5.24091 31.5123 5.30466 31.3325 5.20369C31.2433 5.1532 29.1177 3.99865 26.9553 5.77526C26.8853 5.83311 26.8005 5.86112 26.7158 5.86112Z" fill="#C6DDEA"/>
<path d="M34.6226 14.714C34.4678 14.714 34.3226 14.6181 34.2674 14.4641C34.1973 14.2681 34.299 14.0517 34.4951 13.9814C35.8166 13.5074 35.5041 11.7585 35.4901 11.6844C35.4518 11.4799 35.5859 11.2824 35.7901 11.2433C35.9957 11.2061 36.1917 11.3376 36.2315 11.5422C36.3944 12.389 36.2957 14.1372 34.7501 14.6918C34.7081 14.707 34.6646 14.714 34.6226 14.714Z" fill="#C6DDEA"/>
<path d="M28.6468 21.1921C28.5251 21.1921 28.4065 21.1335 28.3335 21.0251C28.248 20.898 26.2544 17.8699 26.9781 13.9301C27.0165 13.7249 27.2096 13.5881 27.4181 13.6272C27.623 13.6648 27.7586 13.8616 27.7211 14.0665C27.054 17.6952 28.9416 20.5763 28.96 20.6047C29.0757 20.7779 29.0293 21.0122 28.8568 21.1279C28.792 21.1714 28.719 21.1921 28.6468 21.1921Z" fill="#C6DDEA"/>
<path d="M13.3452 21.1921C13.2236 21.1921 13.105 21.1335 13.032 21.0251C12.9465 20.898 10.9529 17.8699 11.6766 13.9301C11.7149 13.7249 11.908 13.5881 12.1166 13.6272C12.3215 13.6648 12.4571 13.8616 12.4195 14.0665C11.7525 17.6952 13.6401 20.5763 13.6585 20.6047C13.7742 20.7779 13.7278 21.0122 13.5553 21.1279C13.4904 21.1714 13.4175 21.1921 13.3452 21.1921Z" fill="#C6DDEA"/>
<path d="M20.6691 17.082C20.6558 17.082 20.6426 17.0813 20.6293 17.0802C20.4222 17.0584 20.2718 16.8731 20.2932 16.6656C20.9366 10.4698 17.4299 8.38399 17.3937 8.36335C17.2132 8.2598 17.1505 8.02948 17.2544 7.84854C17.3576 7.66686 17.5883 7.60495 17.7696 7.70887C17.9318 7.80174 21.7378 10.064 21.0435 16.7437C21.0236 16.9376 20.86 17.082 20.6691 17.082Z" fill="#C6DDEA"/>
<path d="M20.9293 12.3367C20.7539 12.3367 20.5726 12.3253 20.3854 12.3006C20.179 12.274 20.0331 12.0846 20.0596 11.8779C20.0869 11.6711 20.2807 11.5234 20.4827 11.5525C23.9637 12.0006 24.7059 7.134 24.7346 6.92615C24.7641 6.72016 24.9579 6.58307 25.1606 6.60518C25.367 6.63429 25.5107 6.82481 25.482 7.03118C25.2151 8.93456 23.9253 12.3367 20.9293 12.3367Z" fill="#C6DDEA"/>
<path d="M7.26401 14.1645C7.23011 14.1645 7.19473 14.1597 7.16009 14.1501C4.84214 13.4875 4.8075 10.4705 4.8075 10.3426C4.80676 10.1337 4.93943 9.95571 5.18486 9.96455C5.3927 9.96455 5.56074 10.1322 5.56222 10.3401C5.56222 10.3659 5.59686 12.9182 7.36793 13.4242C7.56841 13.4816 7.68412 13.6906 7.62663 13.8907C7.57946 14.0565 7.42837 14.1645 7.26401 14.1645Z" fill="#C6DDEA"/>
</svg>
