<svg width="41" height="40" viewBox="0 0 41 40" fill="none" xmlns="http://www.w3.org/2000/svg">
<path d="M22.7946 21.1366L20.175 28.4966H25.5954L18.6391 36.8068V30.9004H15.2059L18.3682 21.803L22.7946 21.1366Z" fill="#928F9F"/>
<path d="M18.6392 37.1842C18.5957 37.1842 18.5522 37.1768 18.5102 37.1613C18.3613 37.1071 18.2618 36.9656 18.2618 36.8068V31.2776H15.2061C15.0838 31.2776 14.9695 31.2186 14.8988 31.1188C14.828 31.0193 14.8096 30.8918 14.8494 30.7764L18.0112 21.6793C18.0577 21.547 18.1734 21.4508 18.3119 21.4298L22.7385 20.7632C22.8675 20.7433 23.0017 20.7941 23.0857 20.8966C23.1704 20.999 23.1948 21.1379 23.1498 21.2629L20.7095 28.1191H25.5953C25.7419 28.1191 25.8753 28.2038 25.9372 28.3369C25.9991 28.4695 25.9785 28.6262 25.8849 28.7385L18.9288 37.0489C18.8551 37.1362 18.749 37.1842 18.6392 37.1842ZM15.7368 30.5229H18.6392C18.8478 30.5229 19.0165 30.6917 19.0165 30.9003V35.768L24.7875 28.8738H20.1744C20.0521 28.8738 19.9371 28.8141 19.8663 28.7139C19.7956 28.6136 19.7779 28.4854 19.8192 28.37L22.2278 21.6034L18.6495 22.1421L15.7368 30.5229Z" fill="#4B4952"/>
<path d="M10.7071 26.606L8.88448 31.7267H12.6558L7.8158 37.5086V33.3992H5.42712L7.62712 26.606H10.7071Z" fill="#928F9F"/>
<path d="M7.81593 37.8865C7.77244 37.8865 7.72896 37.8792 7.68695 37.8637C7.53807 37.8095 7.43857 37.668 7.43857 37.5092V33.7769H5.42722C5.30635 33.7769 5.19284 33.719 5.12209 33.6213C5.05133 33.5237 5.0307 33.398 5.06829 33.2834L7.26832 26.4899C7.31843 26.334 7.46363 26.2286 7.62725 26.2286H10.7073C10.8296 26.2286 10.9446 26.2883 11.0154 26.3885C11.0861 26.4887 11.1038 26.617 11.0625 26.7323L9.4197 31.3494H12.656C12.8027 31.3494 12.9361 31.4342 12.998 31.5672C13.0599 31.6999 13.0392 31.8565 12.9456 31.9689L8.10558 37.7513C8.03188 37.8386 7.92574 37.8865 7.81593 37.8865ZM5.94609 33.0221H7.81593C8.02451 33.0221 8.19329 33.1909 8.19329 33.3995V36.4703L11.8482 32.1042H8.88462C8.76227 32.1042 8.6473 32.0445 8.57654 31.9442C8.50579 31.844 8.4881 31.7158 8.52937 31.6004L10.1722 26.9833H7.90142L5.94609 33.0221Z" fill="#4B4952"/>
<path d="M33.4256 26.606L31.6022 31.7267H35.3736L30.5343 37.5086V33.3992H28.1456L30.3456 26.606H33.4256Z" fill="#928F9F"/>
<path d="M30.5341 37.8865C30.4906 37.8865 30.4471 37.8792 30.4051 37.8637C30.2562 37.8095 30.1567 37.668 30.1567 37.5092V33.7769H28.1454C28.0245 33.7769 27.911 33.719 27.8402 33.6213C27.7695 33.5237 27.7488 33.398 27.7864 33.2834L29.9865 26.4899C30.0366 26.334 30.1818 26.2286 30.3454 26.2286H33.4254C33.5478 26.2286 33.6628 26.2883 33.7335 26.3885C33.8043 26.4887 33.822 26.617 33.7807 26.7323L32.1378 31.3494H35.3741C35.5208 31.3494 35.6542 31.4342 35.7161 31.5672C35.778 31.6999 35.7574 31.8565 35.6638 31.9689L30.8237 37.7513C30.75 37.8386 30.6439 37.8865 30.5341 37.8865ZM28.6642 33.0221H30.5341C30.7426 33.0221 30.9114 33.1909 30.9114 33.3995V36.4703L34.5663 32.1042H31.6028C31.4804 32.1042 31.3654 32.0445 31.2947 31.9442C31.2239 31.844 31.2062 31.7158 31.2475 31.6004L32.8903 26.9833H30.6196L28.6642 33.0221Z" fill="#4B4952"/>
<path d="M38.5118 17.4699C38.5118 20.4197 36.1303 22.8148 33.1805 22.8148C30.2306 22.8148 10.4612 22.8148 7.61951 22.8148C4.66975 22.8148 2.28821 20.4197 2.28821 17.4699C2.28821 15.0343 3.939 12.964 6.18526 12.3415C6.34763 9.5405 8.675 7.32133 11.5032 7.32133C11.9361 7.32133 12.369 7.37551 12.7751 7.4837C13.6682 5.77881 15.4543 4.61504 17.5111 4.61504C18.4042 4.61504 19.2431 4.83159 19.9739 5.21043C21.3405 3.54609 23.4107 2.4906 25.7247 2.4906C28.7557 2.4906 31.3537 4.2903 32.5175 6.87485C35.0884 7.24014 37.0774 9.44577 37.0774 12.1385C37.0774 12.6527 37.0099 13.1534 36.861 13.6135C37.8759 14.5877 38.5118 15.9544 38.5118 17.4699Z" fill="white"/>
<path d="M38.5139 17.4679C38.5139 20.4166 36.1297 22.8176 33.1811 22.8176H7.6203C4.67164 22.8176 2.28748 20.4166 2.28748 17.4679C2.28748 16.8529 2.38857 16.2632 2.58232 15.7156C6.48298 17.5775 11.6221 18.7064 17.2414 18.7064C25.9188 18.7064 33.4422 16.0189 37.0732 12.093V12.1351C37.0732 12.649 37.0058 13.1545 36.8626 13.6094C37.8736 14.5867 38.5139 15.9515 38.5139 17.4679Z" fill="#EFEFEF"/>
<path d="M33.1808 23.192H7.61917C4.47132 23.192 1.91089 20.625 1.91089 17.4698C1.91089 15.0062 3.5095 12.8169 5.82967 12.0548C6.13111 9.16824 8.57436 6.94389 11.5033 6.94389C11.8733 6.94389 12.2352 6.98 12.5838 7.05112C13.6127 5.30842 15.4744 4.23789 17.5108 4.23789C18.3289 4.23789 19.1404 4.41219 19.876 4.74386C21.3603 3.06822 23.4756 2.1134 25.725 2.1134C28.7313 2.1134 31.4768 3.8421 32.7747 6.5341C35.4575 7.01648 37.4548 9.38971 37.4548 12.1385C37.4548 12.6245 37.3981 13.083 37.286 13.5049C38.3216 14.5788 38.8891 15.978 38.8891 17.4698C38.8891 20.625 36.3286 23.192 33.1808 23.192ZM11.5033 7.6986C8.88465 7.6986 6.7141 9.74754 6.56154 12.3633C6.55196 12.5247 6.4414 12.6621 6.28589 12.7052C4.1544 13.296 2.66561 15.2554 2.66561 17.4698C2.66561 20.2089 4.88775 22.4373 7.61917 22.4373H33.1808C35.9122 22.4373 38.1344 20.2089 38.1344 17.4698C38.1344 16.1085 37.589 14.8356 36.5991 13.886C36.4952 13.7857 36.4576 13.635 36.5018 13.4975C36.633 13.0907 36.7001 12.6334 36.7001 12.1385C36.7001 9.69374 34.8789 7.59173 32.4644 7.24865C32.3362 7.23022 32.2263 7.14768 32.1733 7.02975C31.0353 4.50174 28.5036 2.86812 25.725 2.86812C23.6024 2.86812 21.6131 3.80931 20.2658 5.44993C20.1523 5.58775 19.9578 5.62755 19.8 5.54538C19.1021 5.18386 18.3105 4.9926 17.5108 4.9926C15.6572 4.9926 13.9709 6.01413 13.1093 7.6588C13.0275 7.81542 12.8484 7.89428 12.6774 7.84822C12.3052 7.74909 11.9109 7.6986 11.5033 7.6986Z" fill="#4B4952"/>
<path d="M15.4523 14.3038C15.4037 14.3038 15.3535 14.2943 15.3056 14.2744C11.0316 12.4742 12.3973 7.43216 12.4113 7.3813C12.4681 7.18046 12.6767 7.06328 12.8764 7.12076C13.0769 7.17678 13.1941 7.38499 13.138 7.58583C13.0872 7.76677 11.9418 12.039 15.599 13.5786C15.7906 13.6597 15.8813 13.8808 15.8002 14.0728C15.739 14.2172 15.5997 14.3038 15.4523 14.3038Z" fill="#4B4952"/>
<path d="M22.8948 9.01825C22.6892 9.01825 22.5211 8.85389 22.5174 8.64789C22.4806 6.64539 19.8604 5.57154 19.8339 5.56085C19.6408 5.4831 19.5465 5.26383 19.6239 5.07036C19.7012 4.87689 19.9201 4.78181 20.1132 4.85994C20.2408 4.91042 23.2257 6.12836 23.2721 8.63389C23.2758 8.84247 23.11 9.0142 22.9014 9.01825C22.8992 9.01825 22.897 9.01825 22.8948 9.01825Z" fill="#4B4952"/>
<path d="M27.7158 7.86112C27.6067 7.86112 27.4991 7.81395 27.4239 7.72329C27.292 7.56225 27.3148 7.32456 27.4762 7.19227C30.0477 5.07884 32.6767 6.53189 32.704 6.547C32.8845 6.64944 32.9479 6.87866 32.8455 7.05997C32.743 7.24091 32.5123 7.30466 32.3325 7.20369C32.2433 7.1532 30.1177 5.99865 27.9553 7.77526C27.8853 7.83311 27.8005 7.86112 27.7158 7.86112Z" fill="#4B4952"/>
<path d="M35.6226 16.714C35.4678 16.714 35.3226 16.6181 35.2674 16.4641C35.1973 16.2681 35.299 16.0517 35.4951 15.9814C36.8166 15.5074 36.5041 13.7585 36.4901 13.6844C36.4518 13.4799 36.5859 13.2824 36.7901 13.2433C36.9957 13.2061 37.1917 13.3376 37.2315 13.5422C37.3944 14.389 37.2957 16.1372 35.7501 16.6918C35.7081 16.707 35.6646 16.714 35.6226 16.714Z" fill="#4B4952"/>
<path d="M29.6468 23.1921C29.5251 23.1921 29.4065 23.1335 29.3335 23.0251C29.248 22.898 27.2544 19.8699 27.9781 15.9301C28.0165 15.7249 28.2096 15.5881 28.4181 15.6272C28.623 15.6648 28.7586 15.8616 28.7211 16.0665C28.054 19.6952 29.9416 22.5763 29.96 22.6047C30.0757 22.7779 30.0293 23.0122 29.8568 23.1279C29.792 23.1714 29.719 23.1921 29.6468 23.1921Z" fill="#4B4952"/>
<path d="M14.3452 23.1921C14.2236 23.1921 14.105 23.1335 14.032 23.0251C13.9465 22.898 11.9529 19.8699 12.6766 15.9301C12.7149 15.7249 12.908 15.5881 13.1166 15.6272C13.3215 15.6648 13.4571 15.8616 13.4195 16.0665C12.7525 19.6952 14.6401 22.5763 14.6585 22.6047C14.7742 22.7779 14.7278 23.0122 14.5553 23.1279C14.4904 23.1714 14.4175 23.1921 14.3452 23.1921Z" fill="#4B4952"/>
<path d="M21.6691 19.082C21.6558 19.082 21.6426 19.0813 21.6293 19.0802C21.4222 19.0584 21.2718 18.8731 21.2932 18.6656C21.9366 12.4698 18.4299 10.384 18.3937 10.3634C18.2132 10.2598 18.1505 10.0295 18.2544 9.84854C18.3576 9.66686 18.5883 9.60495 18.7696 9.70887C18.9318 9.80174 22.7378 12.064 22.0435 18.7437C22.0236 18.9376 21.86 19.082 21.6691 19.082Z" fill="#4B4952"/>
<path d="M21.9293 14.3367C21.7539 14.3367 21.5726 14.3253 21.3854 14.3006C21.179 14.274 21.0331 14.0846 21.0596 13.8779C21.0869 13.6711 21.2807 13.5234 21.4827 13.5525C24.9637 14.0006 25.7059 9.134 25.7346 8.92615C25.7641 8.72016 25.9579 8.58307 26.1606 8.60518C26.367 8.63429 26.5107 8.82481 26.482 9.03118C26.2151 10.9346 24.9253 14.3367 21.9293 14.3367Z" fill="#4B4952"/>
<path d="M8.26401 16.1645C8.23011 16.1645 8.19473 16.1597 8.16009 16.1501C5.84214 15.4875 5.8075 12.4705 5.8075 12.3426C5.80676 12.1337 5.93943 11.9557 6.18486 11.9645C6.3927 11.9645 6.56074 12.1322 6.56222 12.3401C6.56222 12.3659 6.59686 14.9182 8.36793 15.4242C8.56841 15.4816 8.68412 15.6906 8.62663 15.8907C8.57946 16.0565 8.42837 16.1645 8.26401 16.1645Z" fill="#4B4952"/>
</svg>
