<svg xmlns="http://www.w3.org/2000/svg" width="247" height="142" fill="none"><path fill="#FDFDFD" d="M212.741 51.178c-8.707-14.555-24.274-24.283-42.092-24.283-4.823 0-9.463.785-13.896 2.064C146.183 11.596 127.467 0 106.059 0c-29.087 0-53.347 21.408-58.72 49.755-.87-.059-1.723-.164-2.618-.164C20.028 49.59 0 70.23 0 95.643c0 25.445 20.028 46.078 44.721 46.078h156.65c24.713 0 44.744-20.633 44.744-46.078 0-21.376-14.157-39.31-33.374-44.465"/><path fill="url(#a)" d="M213.391 51.178c-8.707-14.555-24.274-24.283-42.091-24.283-4.823 0-9.464.785-13.897 2.064C146.833 11.596 128.118 0 106.709 0c-29.086 0-53.347 21.408-58.72 49.756-.869-.06-1.723-.165-2.617-.165C20.679 49.59.65 70.23.65 95.643c0 25.445 20.029 46.078 44.722 46.078h156.65c24.712 0 44.743-20.633 44.743-46.078 0-21.376-14.157-39.31-33.374-44.465"/><mask id="b" width="70" height="57" x="151" y="85" maskUnits="userSpaceOnUse" style="mask-type:luminance"><path fill="#fff" d="M151.69 141.677h69.101v-56.38H151.69z"/></mask><g mask="url(#b)"><path fill="url(#c)" d="M216.923 109.606c.845-.325 1.379-1.747-.226-3.459-1.608-1.711-4.888-8.154-4.888-8.154-1.016.39-6.895-1.604-7.953-2.11-1.06-.501-1.29 7.694-2.394 8.119-1.101.423.836-7.617.273-9.125s-3.768-1.793-5.97-.946.157 17.537-.859 17.928-2.323-17.11-3.264-17.559c-.943-.448-3.289-.763-7.121 1.42-3.834 2.186 5.17 19.294 4.295 21.355-.876 2.061-7.116-19.052-7.315-19.584-.198-.532-4.748 2.841-5.833 5.385-1.085 2.547 8.451 18.74 7.678 20.559s-8.476-15.692-9.17-17.551c-.696-1.862-2.37-1.421-4.691 6.365-.644 2.148-.184 4.057.798 5.714-5.961 6.096-.019 17.611 4.325 19.679a7 7 0 0 0 2.363.656 7.1 7.1 0 0 0 2.132-.134q.652-.133 1.273-.374-.12.156-.237.31l1.774-.111-.22 2.178c.137.9.424 2.017.942 3.403 2.417 6.471 19.124 2.489 15.839.926-3.282-1.564-8.776-8.2-7.506-8.688s6.399 6.758 10.415 7.139c4.017.382 6.311-5.669 6.311-5.669s-13.756-4.286-13.113-5.801c.646-1.517 14.02 6.162 16.957 6.246 2.94.086 5.677-6.846 5.677-6.846s-21.201-3.092-21.338-4.966c-.136-1.872 20.179 4.198 22.336 2.455 2.158-1.742 2.355-7.697 2.355-7.697s-20.131.55-20.019-1.218c.117-1.766 17.388.915 19.255-.311 1.868-1.225-1.433-6.95-1.829-8.011-.398-1.064-11.944 1.602-13.414.903-1.474-.7 11.514-2.1 12.362-2.426m-38.153 16.097c-.438 1.03-5.831-1.608-6.336-4.254q-.116-.601-.337-1.171c2.912 2.98 6.931 4.822 6.673 5.425"/></g><path fill="#FDFDFD" d="M189.409 72.143h-16.033v1.735h16.033zM184.642 75.684h-11.266v1.72h11.266zM194.05 79.21h-20.674v1.735h20.674zM202.299 82.751h-28.923v1.72h28.923zM190.549 59.56h-17.173v2.488h17.173zM196.708 62.73h-23.332v.782h23.332z"/><path fill="#C9C9C9" fill-rule="evenodd" d="M213.601 26.64h-59.369c-.256 0-.51.05-.746.15a1.96 1.96 0 0 0-1.057 1.072c-.098.24-.148.498-.148.758v37.062a3.91 3.91 0 0 0 1.117 2.737c.354.36.774.644 1.237.839s.958.294 1.459.294h55.645c.501 0 .997-.1 1.46-.294.462-.195.883-.48 1.237-.84a3.914 3.914 0 0 0 1.117-2.737v-37.06a2 2 0 0 0-.572-1.401 1.95 1.95 0 0 0-1.38-.58" clip-rule="evenodd" opacity=".55" style="mix-blend-mode:multiply"/><path fill="#7087EE" fill-rule="evenodd" d="M152.932 25.32H212.3a1.93 1.93 0 0 1 1.38.58 2.008 2.008 0 0 1 .572 1.4v3.613H150.98V27.3a1.99 1.99 0 0 1 1.205-1.83c.237-.1.49-.15.747-.15" clip-rule="evenodd"/><path fill="#FDFDFD" fill-rule="evenodd" d="M150.98 30.913h63.272v33.45a3.9 3.9 0 0 1-1.117 2.736 3.79 3.79 0 0 1-2.697 1.134h-55.645a3.79 3.79 0 0 1-2.696-1.134 3.9 3.9 0 0 1-1.117-2.737z" clip-rule="evenodd"/><path fill="#A3C5D4" fill-rule="evenodd" d="M176.068 39.637h21.886c.448.002.876.183 1.193.504.316.321.495.756.496 1.21v14.112c-.001.454-.18.89-.496 1.21a1.68 1.68 0 0 1-1.193.504h-21.886a1.68 1.68 0 0 1-1.193-.503 1.73 1.73 0 0 1-.497-1.211V41.352c.002-.455.18-.89.497-1.211a1.68 1.68 0 0 1 1.193-.504" clip-rule="evenodd"/><path fill="#2B41A3" fill-rule="evenodd" d="M174.609 38.231h22.942c.468.003.916.194 1.247.532.33.337.516.793.516 1.268v14.787a1.8 1.8 0 0 1-.517 1.264 1.76 1.76 0 0 1-1.246.525h-22.942a1.76 1.76 0 0 1-1.252-.522 1.8 1.8 0 0 1-.522-1.267V40.03c.001-.477.188-.934.521-1.271a1.76 1.76 0 0 1 1.253-.529" clip-rule="evenodd"/><path fill="#A3C5D4" d="M161.242 41.842h-8.024v1.307h8.024z"/><path fill="#3B4EA4" d="M158.856 44.51h-5.638v1.297h5.638z"/><path fill="#A3C5D4" d="M163.565 47.168h-10.347v1.307h10.347z"/><path fill="#3B4EA4" d="M167.693 49.835h-14.475v1.297h14.475zM161.812 32.36h-8.594v1.874h8.594z"/><path fill="#A3C5D4" d="M164.895 34.749h-11.677v.589h11.677z"/><path fill="#FDFDFD" fill-rule="evenodd" d="M200.728 27.324a1.564 1.564 0 0 1 1.568-.786 1.56 1.56 0 0 1 1.043.611 1.61 1.61 0 0 1 .113 1.771 1.58 1.58 0 0 1-.955.742c-.403.11-.832.052-1.193-.16a1.6 1.6 0 0 1-.732-.968 1.62 1.62 0 0 1 .156-1.21m8.235 0a1.564 1.564 0 0 1 1.568-.786 1.56 1.56 0 0 1 1.043.611 1.61 1.61 0 0 1 .113 1.771 1.58 1.58 0 0 1-.96.74 1.56 1.56 0 0 1-1.655-.57 1.6 1.6 0 0 1-.309-1.179 1.6 1.6 0 0 1 .2-.588m-4.118 0a1.564 1.564 0 0 1 1.568-.786 1.56 1.56 0 0 1 1.044.611 1.61 1.61 0 0 1 .112 1.771 1.57 1.57 0 0 1-.955.742c-.402.11-.831.052-1.192-.16a1.6 1.6 0 0 1-.733-.968 1.62 1.62 0 0 1 .156-1.21" clip-rule="evenodd"/><path fill="#FDFDFD" d="M175.58 48.207v-1.425l7.432-3.472v1.532l-5.891 2.658 5.891 2.7v1.521zm8.319 5.636 3.273-12.836h1.119l-3.283 12.836zm12.691-5.636-7.433 3.514V50.2l5.87-2.7-5.87-2.658V43.31l7.433 3.472z"/><path fill="#FDFDFD" fill-rule="evenodd" d="M158.654 65.994s1.027 3.593-.65 7.754l11.554-7.376z" clip-rule="evenodd"/><path fill="#C9C9C9" d="M28.924 15.372h86.323c1.213 0 2.378.49 3.236 1.36a4.68 4.68 0 0 1 1.341 3.285v58.018a4.68 4.68 0 0 1-1.341 3.285 4.54 4.54 0 0 1-3.236 1.36H28.924a4.54 4.54 0 0 1-3.236-1.36 4.68 4.68 0 0 1-1.341-3.285V20.018a4.68 4.68 0 0 1 1.34-3.285 4.54 4.54 0 0 1 3.237-1.36" opacity=".55" style="mix-blend-mode:multiply"/><path fill="#F7F7F7" d="M30.07 13.751h84.698c.904 0 1.772.365 2.411 1.014.64.65.999 1.53.999 2.447v60.386c0 .918-.359 1.799-.999 2.448a3.38 3.38 0 0 1-2.411 1.013H30.07a3.39 3.39 0 0 1-2.412-1.013 3.49 3.49 0 0 1-.999-2.448V17.212c0-.918.36-1.798 1-2.447a3.39 3.39 0 0 1 2.41-1.014"/><path fill="#C3EDFF" d="M33.758 28.038h30.017a.67.67 0 0 1 .478.201.7.7 0 0 1 .198.485v45.06a.7.7 0 0 1-.198.485.67.67 0 0 1-.478.2H33.758a.67.67 0 0 1-.478-.2.7.7 0 0 1-.198-.485v-45.06a.7.7 0 0 1 .198-.485.67.67 0 0 1 .478-.2"/><path fill="#46C1E3" d="M39.093 32.359h19.048c.168 0 .33.067.448.188.119.12.186.284.186.454v3.263c0 .17-.067.333-.186.454a.63.63 0 0 1-.448.188H39.093a.63.63 0 0 1-.448-.188.65.65 0 0 1-.185-.454V33c0-.17.066-.334.185-.454a.63.63 0 0 1 .448-.188m6.164 29.825h-4.034a1.7 1.7 0 0 1-1.215-.51 1.75 1.75 0 0 1-.503-1.233 1.77 1.77 0 0 1 .503-1.232 1.72 1.72 0 0 1 1.215-.51h4.034a1.7 1.7 0 0 1 1.214.51 1.75 1.75 0 0 1 .503 1.232 1.77 1.77 0 0 1-.503 1.233 1.72 1.72 0 0 1-1.214.51"/><path fill="#7087EE" d="M56.908 62.184h-4.034a1.7 1.7 0 0 1-1.215-.51 1.75 1.75 0 0 1-.502-1.233 1.77 1.77 0 0 1 .502-1.232 1.72 1.72 0 0 1 1.215-.51h4.034a1.7 1.7 0 0 1 1.214.51 1.74 1.74 0 0 1 .503 1.232 1.77 1.77 0 0 1-.503 1.232 1.72 1.72 0 0 1-1.214.51"/><path fill="#FAFAFA" d="M59.356 41.454h-20.88a.47.47 0 0 0-.464.472v2.543c0 .26.208.472.465.472h20.879a.47.47 0 0 0 .464-.472v-2.543a.47.47 0 0 0-.465-.472M59.356 47.366h-20.88a.47.47 0 0 0-.464.472v2.543c0 .26.208.472.465.472h20.879a.47.47 0 0 0 .464-.472v-2.543a.47.47 0 0 0-.465-.472"/><path fill="#CDF0FF" d="M54.872 53.847H43.11a.4.4 0 0 1-.277-.116.4.4 0 0 1 0-.563.4.4 0 0 1 .277-.117h11.763a.4.4 0 0 1 .278.117.4.4 0 0 1 0 .563.4.4 0 0 1-.278.116"/><path fill="#C3EDFF" d="M54.877 26.834H35.839a2.77 2.77 0 0 1-1.976-.83 2.874 2.874 0 0 1 0-4.01 2.76 2.76 0 0 1 1.976-.83h19.038a2.76 2.76 0 0 1 1.976.828c.26.264.465.576.606.92a2.87 2.87 0 0 1-.606 3.091 2.8 2.8 0 0 1-.907.615 2.8 2.8 0 0 1-1.07.216"/><path fill="#9F9F9F" d="M41.044 23.998c0 .308-.09.61-.26.866a1.54 1.54 0 0 1-.69.575 1.52 1.52 0 0 1-1.674-.338 1.582 1.582 0 0 1-.333-1.7c.116-.285.313-.529.566-.7a1.52 1.52 0 0 1 1.94.194 1.56 1.56 0 0 1 .45 1.103"/><path fill="#4058C2" d="M47.04 23.998c0 .308-.09.61-.258.866a1.54 1.54 0 0 1-.69.575 1.52 1.52 0 0 1-1.675-.338 1.582 1.582 0 0 1-.333-1.7c.116-.285.313-.529.566-.7a1.52 1.52 0 0 1 1.94.194 1.56 1.56 0 0 1 .45 1.103"/><path fill="#2448EB" d="M52.571 23.998c0 .308-.09.61-.259.866a1.54 1.54 0 0 1-.69.575 1.52 1.52 0 0 1-1.675-.338 1.58 1.58 0 0 1-.333-1.7c.117-.285.314-.529.566-.7a1.52 1.52 0 0 1 1.941.194 1.56 1.56 0 0 1 .45 1.103"/><path fill="#C3EDFF" d="M67.706 33.322h20.379a.33.33 0 0 1 .235.099.34.34 0 0 1 .097.238v13.354a.34.34 0 0 1-.097.239.33.33 0 0 1-.235.098h-20.38a.33.33 0 0 1-.234-.099.34.34 0 0 1-.097-.238V33.659a.34.34 0 0 1 .097-.238.33.33 0 0 1 .235-.1"/><path fill="#4063FD" d="M77.916 40.228h-.041a.55.55 0 0 1-.269-.07l-8.111-4.574a.569.569 0 0 1-.215-.763.546.546 0 0 1 .752-.218l7.863 4.433 7.864-4.434a.546.546 0 0 1 .752.218.567.567 0 0 1-.215.764l-8.111 4.573a.55.55 0 0 1-.27.07"/><path fill="#4054AD" d="M95.544 10.51h27.02c.368 0 .722.148.983.412.26.265.407.624.407.998v36.29c0 .374-.147.733-.407.997a1.38 1.38 0 0 1-.983.414h-27.02a1.38 1.38 0 0 1-.983-.414 1.42 1.42 0 0 1-.407-.997V11.92c0-.374.146-.733.407-.998a1.38 1.38 0 0 1 .983-.413"/><path fill="#00C8FF" d="M100.811 15.752h-1.985c-.106 0-.191-.175-.191-.39s.085-.39.19-.39h1.986c.106 0 .191.175.191.39s-.085.39-.191.39m12.293 0h-11.358c-.105 0-.191-.175-.191-.39s.086-.39.191-.39h11.358c.105 0 .191.175.191.39s-.086.39-.191.39"/><path fill="#56D0FF" d="M105.369 17.362h-3.623c-.106 0-.191-.175-.191-.39s.085-.39.191-.39h3.623c.106 0 .191.175.191.39s-.085.39-.191.39"/><path fill="#D9F3FD" d="M111.328 17.362h-5.222c-.105 0-.191-.175-.191-.39s.086-.39.191-.39h5.222c.105 0 .191.175.191.39s-.086.39-.191.39m1.775 7.84h-11.357c-.106 0-.191-.174-.191-.389s.085-.39.191-.39h11.357c.106 0 .192.175.192.39s-.086.39-.192.39"/><path fill="#00C8FF" d="M100.811 26.813h-1.985c-.106 0-.191-.174-.191-.39 0-.214.085-.389.19-.389h1.986c.106 0 .191.175.191.39s-.085.39-.191.39"/><path fill="#D9F3FD" d="M105.369 26.813h-3.623c-.106 0-.191-.174-.191-.39 0-.214.085-.389.191-.389h3.623c.106 0 .191.175.191.39s-.085.39-.191.39"/><path fill="#56D0FF" d="M111.328 26.813h-5.222c-.105 0-.191-.174-.191-.39 0-.214.086-.389.191-.389h5.222c.105 0 .191.175.191.39s-.086.39-.191.39m4.592-7.84h-14.174c-.106 0-.191-.175-.191-.39s.085-.39.191-.39h14.174c.106 0 .191.175.191.39s-.085.39-.191.39"/><path fill="#00C8FF" d="M109.485 19.804h3.629a.04.04 0 0 1 .038.038v.702a.038.038 0 0 1-.038.039h-3.629a.04.04 0 0 1-.027-.011.04.04 0 0 1-.011-.028v-.702q0-.016.011-.027a.04.04 0 0 1 .027-.011"/><path fill="#D9F3FD" d="M106.454 20.583h-4.708c-.106 0-.191-.174-.191-.39 0-.215.085-.39.191-.39h4.708c.106 0 .191.175.191.39s-.085.39-.191.39"/><path fill="#00C8FF" d="M108.96 20.583h-1.867c-.106 0-.191-.174-.191-.39 0-.215.085-.39.191-.39h1.867c.106 0 .191.175.191.39s-.085.39-.191.39"/><path fill="#D9F3FD" d="M100.811 22.14h-1.985c-.106 0-.191-.175-.191-.39s.085-.39.19-.39h1.986c.106 0 .191.175.191.39s-.085.39-.191.39m15.109 0h-14.174c-.105 0-.191-.175-.191-.39s.086-.39.191-.39h14.174c.106 0 .191.175.191.39s-.085.39-.191.39m-15.109 6.165h-1.985c-.106 0-.191-.174-.191-.39 0-.215.085-.39.19-.39h1.986c.106 0 .191.175.191.39s-.085.39-.191.39m8.681-.78h5.036q.018.001.031.014t.014.032v.689a.04.04 0 0 1-.014.032.04.04 0 0 1-.031.013h-5.036a.05.05 0 0 1-.032-.013.05.05 0 0 1-.013-.032v-.689q0-.018.013-.032a.05.05 0 0 1 .032-.013m-3.038.78h-4.708c-.105 0-.191-.174-.191-.39 0-.215.086-.39.191-.39h4.708c.106 0 .192.175.192.39s-.086.39-.192.39m2.506 0h-1.867c-.105 0-.191-.174-.191-.39 0-.215.086-.39.191-.39h1.867c.106 0 .191.175.191.39s-.085.39-.191.39"/><path fill="#ACACAC" d="M100.811 29.862h-1.985c-.106 0-.191-.175-.191-.39s.085-.39.19-.39h1.986c.106 0 .191.175.191.39s-.085.39-.191.39"/><path fill="#00C8FF" d="M104.2 29.862h-2.454c-.105 0-.191-.174-.191-.39 0-.215.086-.39.191-.39h2.454c.106 0 .191.175.191.39s-.085.39-.191.39m-5.374-6.112c-.106 0-.191-.174-.191-.39 0-.215.085-.389.19-.389h1.986c.106 0 .191.174.191.39 0 .215-.085.39-.191.39"/><path fill="#D9F3FD" d="M109.495 22.971h5.696q.019 0 .033.014a.05.05 0 0 1 .014.034v.683a.05.05 0 0 1-.047.048h-5.696l-.018-.003-.016-.01-.01-.016a.04.04 0 0 1-.004-.019v-.683a.04.04 0 0 1 .004-.018l.01-.016.016-.01z"/><path fill="#ACACAC" d="M106.454 23.75h-4.708c-.106 0-.191-.174-.191-.39 0-.215.085-.389.191-.389h4.708c.106 0 .191.174.191.39 0 .215-.085.39-.191.39m2.506 0h-1.867c-.106 0-.191-.174-.191-.39 0-.215.085-.389.191-.389h1.867c.106 0 .191.174.191.39 0 .215-.085.39-.191.39"/><path fill="#D9F3FD" d="M113.103 31.518h-11.357c-.106 0-.191-.175-.191-.39s.085-.39.191-.39h11.357c.106 0 .192.175.192.39s-.086.39-.192.39m-7.734 1.61h-3.623c-.106 0-.191-.175-.191-.39s.085-.39.191-.39h3.623c.106 0 .191.175.191.39s-.085.39-.191.39m5.959 0h-5.222c-.105 0-.191-.175-.191-.39s.086-.39.191-.39h5.222c.105 0 .191.175.191.39s-.086.39-.191.39m1.775 7.841h-11.357c-.106 0-.191-.175-.191-.39s.085-.39.191-.39h11.357c.106 0 .192.175.192.39s-.086.39-.192.39"/><path fill="#56D0FF" d="M100.811 42.58h-1.985c-.106 0-.191-.175-.191-.39s.085-.39.19-.39h1.986c.106 0 .191.175.191.39s-.085.39-.191.39"/><path fill="#00C8FF" d="M105.369 42.58h-3.623c-.106 0-.191-.175-.191-.39s.085-.39.191-.39h3.623c.106 0 .191.175.191.39s-.085.39-.191.39"/><path fill="#D9F3FD" d="M111.328 42.58h-5.221c-.106 0-.191-.175-.191-.39s.085-.39.191-.39h5.221c.106 0 .191.175.191.39s-.085.39-.191.39"/><path fill="#56D0FF" d="M100.811 34.738h-1.985c-.106 0-.191-.174-.191-.39 0-.215.085-.389.19-.389h1.986c.106 0 .191.174.191.39 0 .215-.085.39-.191.39m.787-.779h10.475q.017 0 .03.013t.013.031v.691a.05.05 0 0 1-.013.031.04.04 0 0 1-.03.013h-10.475a.04.04 0 0 1-.03-.013.04.04 0 0 1-.013-.03v-.692q0-.018.013-.031a.04.04 0 0 1 .03-.013"/><path fill="#D9F3FD" d="M100.811 36.349h-1.985c-.106 0-.191-.175-.191-.39s.085-.39.19-.39h1.986c.106 0 .191.175.191.39s-.085.39-.191.39m5.643 0h-4.708c-.105 0-.191-.175-.191-.39s.086-.39.191-.39h4.708c.106 0 .192.175.192.39s-.086.39-.192.39m2.506 0h-1.867c-.105 0-.191-.175-.191-.39s.086-.39.191-.39h1.867c.106 0 .191.175.191.39s-.085.39-.191.39m-8.149 1.557h-1.985c-.106 0-.191-.175-.191-.39s.085-.39.19-.39h1.986c.106 0 .191.175.191.39s-.085.39-.191.39m.793-.78h13.201q.01 0 .019.004l.015.01q.007.007.011.017l.004.019v.68l-.004.019a.05.05 0 0 1-.026.027l-.019.004h-13.201a.05.05 0 0 1-.035-.015.05.05 0 0 1-.014-.035v-.68a.05.05 0 0 1 .014-.035.05.05 0 0 1 .035-.015m-.793 6.945h-1.985c-.106 0-.191-.175-.191-.39s.085-.39.19-.39h1.986c.106 0 .191.175.191.39s-.085.39-.191.39m15.095 0h-6.267c-.106 0-.192-.175-.192-.39s.086-.39.192-.39h6.267c.105 0 .191.175.191.39s-.086.39-.191.39m-9.452 0h-4.708c-.105 0-.191-.175-.191-.39s.086-.39.191-.39h4.708c.106 0 .192.175.192.39s-.086.39-.192.39m2.506 0h-1.867c-.105 0-.191-.175-.191-.39s.086-.39.191-.39h1.867c.106 0 .191.175.191.39s-.085.39-.191.39"/><path fill="#ACACAC" d="M101.594 44.848h8.706q.017 0 .028.012a.04.04 0 0 1 .012.028v.7l-.003.015-.009.013-.012.008-.016.003h-8.706a.04.04 0 0 1-.028-.011.04.04 0 0 1-.011-.029v-.699q0-.016.011-.028a.04.04 0 0 1 .028-.012"/><path fill="#56D0FF" d="M109.496 38.737h6.034q.02 0 .034.014t.015.035v.68a.05.05 0 0 1-.015.035.05.05 0 0 1-.034.015h-6.034a.05.05 0 0 1-.034-.015.05.05 0 0 1-.015-.035v-.68q0-.02.015-.035a.05.05 0 0 1 .034-.014"/><path fill="#ACACAC" d="M106.454 39.516h-4.708c-.106 0-.191-.175-.191-.39s.085-.39.191-.39h4.708c.106 0 .191.175.191.39s-.085.39-.191.39m2.506 0h-1.867c-.106 0-.191-.175-.191-.39s.085-.39.191-.39h1.867c.106 0 .191.175.191.39s-.085.39-.191.39"/><path fill="#50CEFF" d="M121.775 17.68c3.462-.126 6.169-3.076 6.046-6.59-.124-3.515-3.031-6.262-6.494-6.137-3.462.126-6.169 3.076-6.046 6.59.124 3.515 3.031 6.262 6.494 6.136"/><path fill="#FAFAFA" d="m121.096 10.72-2.492.926 2.492.919v.95l-3.562-1.376v-.987l3.562-1.374zm.814-.942 3.562 1.374v.987l-3.562 1.375v-.95l2.492-.918-2.492-.927z"/><path fill="#C9C9C9" d="M75.879 4.866H40.198a5.2 5.2 0 0 0-3.71 1.56 5.37 5.37 0 0 0-1.538 3.765c0 1.413.553 2.767 1.537 3.766a5.2 5.2 0 0 0 3.71 1.56h2.624l2.536 2.573 2.537-2.573h27.985a5.2 5.2 0 0 0 3.71-1.56 5.37 5.37 0 0 0 1.537-3.766 5.37 5.37 0 0 0-1.537-3.765 5.2 5.2 0 0 0-3.71-1.56" opacity=".55" style="mix-blend-mode:multiply"/><path fill="#7087EE" d="M76.437 4.017H40.756a5.2 5.2 0 0 0-3.71 1.56 5.37 5.37 0 0 0-1.538 3.765c0 1.412.553 2.767 1.537 3.765a5.2 5.2 0 0 0 3.71 1.56h2.624l2.537 2.574 2.536-2.574h27.985a5.2 5.2 0 0 0 3.71-1.56 5.37 5.37 0 0 0 1.537-3.765 5.37 5.37 0 0 0-1.537-3.766 5.2 5.2 0 0 0-3.71-1.56"/><path fill="#FDFDFD" d="M66.227 11.04h-23.48a.58.58 0 0 1-.414-.175.6.6 0 0 1-.127-.65.6.6 0 0 1 .317-.322.6.6 0 0 1 .225-.045h23.479a.58.58 0 0 1 .415.174.6.6 0 0 1 .127.65.6.6 0 0 1-.317.322.6.6 0 0 1-.225.045M58.89 7.762H42.748a.58.58 0 0 1-.415-.175.6.6 0 0 1-.172-.42.6.6 0 0 1 .172-.422.58.58 0 0 1 .415-.174H58.89a.58.58 0 0 1 .542.367.603.603 0 0 1-.318.779.6.6 0 0 1-.224.045"/><mask id="d" width="70" height="75" x="13" y="67" maskUnits="userSpaceOnUse" style="mask-type:luminance"><path fill="#fff" d="M82.107 67.973h-69.1v73.583h69.1z"/></mask><g mask="url(#d)"><path fill="url(#e)" d="M13.007 108.274s.432-.226 1.155-.519c3.314-1.036 10.33-.711 12.923.42 1.548.676 5.152 2.459 8.238 4.005-1.133.134-3.86.885-4.725-.021 0 0-1.868 4.589-1.111 6.567.756 1.979 9.137 2.836 7.499 3.298-1.639.461-8.067-.963-8.067-.963s-.567 4.721 1.198 5.644c1.764.924 11.028-.461 10.146.462-.883.923-9.359 1.879-10.335.857 0 0-.19 5.671 2.898 6.265s11.54-4.221 10.811-2.902c-.727 1.319-8.542 5.144-10.937 3.693 0 0 2.143 5.408 4.097 5.408 1.953 0 6.772-6.958 7.75-5.935s-4.221 6-7.12 6.594c0 0 1.134 3.099 4.853 2.176 3.717-.923 3.087-6.99 4.222-6.462 1.134.527.063 7.188-3.719 7.188 0 0 6.176 1.516 7.626-1.979.408-.983.606-1.788.688-2.445.565 2.761.886 6.091 1.045 9.429h-5.634c-8.491 2.954-8.137 8.907.728 11.636H64.24c8.867-2.729 9.217-8.683.728-11.636h-4.603c1.07-8.86 2.653-16.224 3.945-21.287.204.591.538 1.347 1.036 1.868.927.97 2.71-2.336 2.71-3.985 0-1.648-1.92-.066-1.92-.989s.28-.462 2.739-.462 3.34-5.275 3.34-5.275-3.718.462-3.718-.264c0-.725 2.962-.329 4.852-.857 1.89-.527 2.962-4.814 2.962-4.814s-5.42 1.649-5.42.923c0-.725 4.191-1.417 4.979-2.242.788-.824 1.071-4.55 1.071-4.55s-3.592 3.495-4.16 3.495c-.566 0 3.814-3.857 3.404-4.286s-.567-2.25-.567-2.25c-.784.82-2.08-.256-2.9.602-.818.857-2.3 7.418-2.898 8.044s1.67-5.242.63-6.33-3.856 1.669-4.411 2.25 1.323 6.949.567 7.74-.602-5.602-1.204-6.231c-.602-.63-2.2.989-2.672 2.868s3.64 5.094 2.458 6.331c-1.181 1.236-2.269-3.462-3.308-4.55-.769-.805-2.362.769-3.142 2.164.183-5.691.463-10.76.884-14.377.842 2.376 5.19 5.222 8.247 1.963.652.538 1.457.778 2.459.4 3.633-1.369 3.967-2.314 3.202-2.689s-7.864-4.555-6.997-5.005c.868-.45 7.235 4.772 8.45 4.142s3.082-3.215 2.863-3.322-9.031-3.435-8.048-3.945 7.798 4.406 9.08 2.235c1.284-2.172 1.34-3.487 1.22-4.012s-7.746-1.113-7.49-1.687c.258-.575 7.438.612 7.995-.632s.696-3.043.077-3.346c-.62-.304-4.334.85-4.055.229.278-.622 3.92-.82 3.785-1.412-.135-.59-.53-3.876-.272-4.45 0 0-2.575-1.788-3.199-2.677s-1.296-.577-1.51-.098c-.214.478-1.91 7.785-2.097 6.964s1.95-7.329 1.512-7.543-2.693-2.02-3.389-.961-.944 10.739-1.734 10.818c-.791.079 1.121-11.235 1.121-11.235s-2.647.16-3.596 1.387.048 12.588-.768 12.527-.425-11.945-.425-11.945-3.29 1.596-3.496 3.245 2.077 9.099 1.354 9.473-1.476-7.316-1.476-7.316-2.864 1.338-3.03 3.591c-.164 2.253 2.615 5.074 2.293 5.791-.321.718-2.8-2.313-3.218-4.144-.418-1.832-3.564 7.587-.905 8.89.803.394 1.407.535 1.863.543-1.316 3.55-1.709 17.625-1.818 21.452-.503-.5-.845-.864-.845-.864-.7.282-1.116 1.207-1.31 2.4a14 14 0 0 0-.588-.718s-.282.992-.709 2.33c-.444-3.587-.394-2.63-.406-3.396.07-.452.07-.827-.018-1.096-.36-22.857-.26-21.407-.367-21.532.05-1.574.548-15.439 2.39-19.17 1.953-3.956 3.214-8.572 3.214-8.572s-1.67 2.737-3.151 4.286c-1.481 1.55-2.773 1.847-2.773 3.232 0 1.384 1.953 5.869.693 5.21-1.26-.66-.946-3.364-1.387-3.364-.44 0-2.268 6.199-2.268 6.529 0 .329 3.15 2.901 2.331 3.758s-2.142-3.297-2.646-2.77-.63 5.078-.63 6.265 2.426.56 1.323 1.715c-1.097 1.148-1.32 5.753-1.323 7.878-2.62-6.278-4.975-7.894-8.822-10.267.837-.001 1.902-.23 2.787-1.156 1.744-1.824 2.544-8.558-1.475-10.414.178-.995.053-2.011-.652-2.94-2.552-3.362-3.45-3.264-3.45-2.225s-.567 11.029-1.276 10.287.993-10.435 0-11.474c-.992-1.038-3.829-1.83-3.829-1.533s.804 11.77 0 10.93c-.803-.84.473-10.88-1.795-11.227-2.27-.346-3.356.247-3.734.643s2.174 9.181 1.606 9.181-2.457-8.587-3.686-8.587-2.742.742-2.742 1.582 2.411 4.402 1.797 4.402-2.222-3.957-2.647-3.512c-.426.446-2.93 2.523-3.498 2.523 0 0-.425 3.759-.898 4.896s.047 1.731.52 1.731 7.066-1.756 6.475-1.137c-.59.618-6.711 1.484-6.711 2.077s-.567 4.006.567 4.253c1.134.248 9.075-4.303 9.453-3.462s-9.547 4.352-9.547 4.352 1.181 2.869 2.552 3.314 10.178-6.33 10.454-5.39c.275.939-9.509 6.429-9.509 6.429s2.6 2.868 4.018 2.275c1.418-.594 6.546-6.85 7.136-6.232.591.618-5.34 5.292-5.34 5.292s2.221 2.522 4.112 1.582c1.89-.94 3.072-5.44 3.78-5.44.71 0-.761 4.271-2.079 5.65-1.317 1.38 7.562.186 7.562-3.424 0-1.528-.245-2.378-.529-2.856 1.575.988 3.279 1.909 4.758 3.519 3.833 4.025 6.293 11.967 7.88 21.156-.547-.395-.97-.354-.97.14 0 .857-1.985 9.793-2.962 8.77-.976-1.022 2.773-9.166 1.45-10.551-.786-.822-2.612-1.895-4.048-2.428l-.003-.004c-.62-.649-2.503-1.326-1.924-3.206s-2.47-3.56-2.47-3.56-1.89 2.868-3.592 2.868 2.174-1.88 2.174-2.968c0-1.087-5.86-3.066-5.86-3.066s1.644 4.916 1.634 6.394c-.698-.512-1.445-.75-2.085-1.111-.554-1.621-.809-4.819-1.724-5.184-.951-.379-2.331-1.352-2.968-.664 1.873 4.987-.186 4.02-1.132 3.66-.457-1.209-1.57-5.271-1.855-5.271-.31 0-.875.384-1.77.652.668 1.34 2.164 4.543 1.327 4.798-.779.237-2.875-2.915-3.932-4.604a7 7 0 0 1-.352-.055c-.803-.145-1.344-.211-1.764-.173.63.954 1.523 2.498 1.17 3.146-.317.578-1.792-.774-2.93-1.958-.303.337-.668.754-1.152 1.26a30.5 30.5 0 0 0-3.642 4.649m25.9-22.8c-.234-.246 1.39-1.898 2.269-3.9a3.6 3.6 0 0 0 .048.636c.236 1.385-1.914 3.685-2.316 3.265M65.152 99.85c.288-.15.768 2.092 1.844 3.704a2.2 2.2 0 0 0-.49-.182c-1.127-.26-1.846-3.267-1.354-3.522m-11.932 16.607c-.717-4.176-1.653-8.123-3.303-12.56.525.34 1.237.203 1.88-.469 1.108-1.16.652-5.368 1.38-6.194-.074 1.742-.037 9.612.043 19.223m4.199 13.122-.01.755c-.731 1.015-1.588 2.181-2.257 2.271q-.06-.7-.12-1.397c.436-.556 1.084-1.259 1.676-2.108.335.429.531.438.71.479m4.555-6.862c-.477.498-2.05-.74-3.342-1.927q.021-.878.045-1.744c1.078 1.283 3.994 2.941 3.297 3.671m-3.52 26.338c-.026-4.369-.038-9.417-.01-14.619.57-1.864.65-3.95.54-4.988 1.739-.487 3.886-1.807 4.714-2.343-1.324 5.122-2.988 12.734-4.095 21.95zm-2.288 0c-.147-3.51-.345-7.273-.606-11.088.735-.264 1.245-.583 1.789-1.288-.028 4.408-.028 8.641-.014 12.376zm-1.866 0c-.059-2.833-.131-6.366-.215-10.797q.302-.015.6-.066c.224 3.796.367 7.465.464 10.863zm-3.13-11.519c.7.387 1.47.626 2.264.702.043 3.929.085 7.624.122 10.817h-.722c-.229-4.077-.727-8.214-1.665-11.519m1.991-15.744c.143 1.059.109.422.14 3.739-.872 2.42-1.913 4.77-2.576 4.473-.905-.406 1.284-4.851 2.436-8.212m-10.395-7.611c.374-.113.76-.234 1.127-.359.176 2.602 1.035 8.137-.604 8.137-1.483 0-.514-4.98-.523-7.778m-6.775-1.665 1.311.66c.679 1.546 1.945 4.68.945 4.43-1.114-.277-1.603-3.935-2.256-5.09"/></g><path fill="#3A5AE8" d="m87.025 100.678 3.246 25.006H71.386l-.738-20.065z"/><path fill="#4565F4" d="M61.845 89.448s-10.082 4.193-11.41 20.065.737 32.043.737 32.043h20.214l3.098-37.933s-4.18-15.523-12.64-14.175"/><path fill="#21232B" d="M91.452 37.788s-2.804-4.492-9-1.497c-6.036 2.917-10.771 31.145-15.935 35.937s-7.377 7.487-5.164 10.631-1.033 1.947-.885 4.642 2.655 2.995 2.655 2.995l18-23.06z"/><path fill="url(#f)" d="M58.151 91.994s1.284 5.69 8.514 6.588l-.886-5.99-4.721-2.845s-1.977 1.348-2.907 2.246"/><path fill="#3A5BEF" d="m67.626 77.22-2.142 5.49s-5.311 3.444-5.016 4.791.516 2.237.516 2.237 2.287 3.603 4.795 4.352c2.508.748 3.099-8.236 3.099-8.236l.147-14.525-.421 2.396a18.4 18.4 0 0 1-.978 3.494"/><path stroke="#2A4BDD" stroke-miterlimit="10" stroke-width="3.535" d="M56.705 104.197s7.525-1.048 11.066-9.733"/><path stroke="#363944" stroke-miterlimit="10" stroke-width="1.178" d="M88.944 37.639s-5.902-3.444-7.968 1.946-1.623 12.728-5.606 17.37"/><path fill="#4FD9FF" d="M117.42 80.613H96.763c-1.327 1.947-8.04 15.124-8.04 15.124l-9.074 11.679-8.263 1.348s-4.131-.899-6.197-4.193 4.722-25.605 3.689-34.739 0-11.68 3.836-13.296c3.836-1.618 9 1.617 9 1.617S94.993 59.2 97.65 59.65c1.108.187 2.756 2.252 4.451 4.802 2.365 3.56 4.82 8.065 6.024 9.722 2.066 2.845 9.296 6.44 9.296 6.44"/><path fill="#2D52F9" d="M88.371 66.683s7.695-.194 11.597-4.979l-2.764-3.63-6.178 4.125z"/><path fill="#C6E9F2" d="m91.01 62.345-.28 1.695a3.2 3.2 0 0 1-.436 1.168c-.221.355-.51.663-.85.904a3.09 3.09 0 0 1-2.359.516c-2.098-.405-4.575-1.484-5.223-4.283-.443-1.909-.595-3.334-.099-4.132.689-1.108 1.279-2.306 1.279-2.306s8.705.15 7.967 6.438"/><path fill="#80D7F9" d="M102.665 49.468s-1.77 12.129-6.844 14.075a5.9 5.9 0 0 1-1.746.373c-3.138.186-6.706-1.566-8.028-6.213-1.577-5.54 1.104-12.877 1.104-12.877l8.67-3.145.26.174 4.468 2.971z"/><path fill="#E3EBED" d="M102.665 49.468a45 45 0 0 1-1.025 4.844 34 34 0 0 1-1.2 3.677c-1.071 2.715-2.577 4.77-4.62 5.554a5.9 5.9 0 0 1-1.745.373c-2.94-.17-6.273-2.376-7.492-6.662-1.577-5.54-1.623-12.578-1.623-12.578l11.12-2.82 4.469 2.97z"/><path fill="#292B35" d="M98.583 44.934a5.5 5.5 0 0 1-.934-.258s-1.77-1.347-2.509-.3c-.737 1.049-2.803 7.488-9.885 7.488l-.052.14-1.423 3.903s-6.05-4.642-2.951-12.279 9.59-6.14 9.59-6.14 4.869-3.892 8.705 2.696c2.761 4.742.784 4.985-.541 4.75"/><path fill="#292B35" d="M104.735 48.245c-.199.895-1.123 1.564-2.234 1.633a21.6 21.6 0 0 1-4.608-.22c-.615-.096-.998-.602-.823-1.091a9 9 0 0 0 .313-1.177c.349-1.771.33-3.596-.056-5.36l-.629-2.931-.082-.385s.215-.05.575-.097c.217-.027.486-.054.791-.068 1.703-.082 4.565.217 6.005 2.84 1.377 2.507 1.11 5.238.748 6.856"/><path stroke="#2846CE" stroke-miterlimit="10" stroke-width="3.535" d="M63.345 92.667s-6.861 5.915-7.746 16.845 0 32.044 0 32.044"/><path fill="#6CD6FF" d="m53.961 95.985 1.352.784a.353.353 0 0 1 .137.46c-.513 1.036-2.212 4.723-2.976 9.411a1.72 1.72 0 0 1-.834 1.208 1.67 1.67 0 0 1-1.45.098.28.28 0 0 1-.175-.296c.14-1.227.935-7.412 3.259-11.479a.498.498 0 0 1 .687-.187"/><path fill="#292B35" d="M92.15 50.014c.283.046.621-.05.953-.127.333-.083.669-.16.963-.217.294-.059.634-.115.974-.164.336-.055.686-.095.93-.245.234-.141.287-.424-.074-.689-.342-.259-1.142-.456-2.117-.266-.973.194-1.63.679-1.84 1.047-.225.38-.063.62.21.661m8.517.083c.119.114.307.145.485.187.182.038.362.082.518.126.155.045.332.104.506.168.174.059.35.132.51.097.154-.03.266-.214.179-.504-.079-.28-.392-.65-.907-.8-.515-.145-.972.004-1.184.2-.223.202-.222.418-.107.526"/><path fill="#86DBFC" d="M101.64 54.312a34 34 0 0 1-1.2 3.677 4.9 4.9 0 0 1 .182-1.8c.217-.759.582-1.407 1.018-1.877"/><path stroke="#1F317F" stroke-miterlimit="10" stroke-width="2.357" d="M103.224 54.261c.377-1.537-.116-2.984-1.101-3.233-.986-.25-2.09.794-2.467 2.331s.115 2.985 1.101 3.234c.985.249 2.09-.795 2.467-2.332Z"/><path fill="#C9C9C9" d="m98.977 55.008.442 1.348s.528-.498.21-1.01c-.21-.338-.652-.338-.652-.338"/><path fill="#6DD6FF" d="M99.07 56.804h-.037l-.492-.02a.1.1 0 0 1-.07-.043.11.11 0 0 1-.023-.08c0-.065.047-.12.096-.114l.492.02c.145.007.28-.075.386-.23.117-.183.179-.397.177-.616l.001-.07c.003-.184-.084-.338-.195-.343-.165-.007-.317-.11-.428-.29a1.2 1.2 0 0 1-.16-.632l.02-.997a.1.1 0 0 1 .027-.076.1.1 0 0 1 .071-.037.1.1 0 0 1 .07.042.11.11 0 0 1 .022.08l-.02.996a.9.9 0 0 0 .12.481c.075.123.175.192.282.197.215.009.386.272.38.587v.07a1.4 1.4 0 0 1-.223.764c-.134.196-.309.305-.496.311"/><path fill="#86DBFC" d="M91.45 58.385c1.637-.338 2.668-2.09 2.302-3.914-.365-1.823-1.989-3.027-3.626-2.69-1.637.339-2.667 2.09-2.302 3.914.366 1.823 1.99 3.027 3.626 2.69"/><path stroke="#1F317F" stroke-miterlimit="10" stroke-width="2.357" d="M97.597 53.601c.31-1.763-.723-3.426-2.308-3.714s-3.122.91-3.433 2.673c-.31 1.764.723 3.426 2.308 3.714 1.586.288 3.123-.909 3.433-2.673ZM97.648 53.51s1.628-.598 1.921.3"/><path fill="#6DD6FF" d="M97.255 59.55s-2.262-.349-3.147-1.098c0 0-.59 2.845.59 2.845s2.557-1.747 2.557-1.747"/><path stroke="#1F317F" stroke-miterlimit="10" stroke-width="2.357" d="m91.894 52.163-5.901-.45"/><path fill="#292B35" d="M95.781 53.223c-.055.435-.375.752-.715.708s-.57-.432-.516-.868c.055-.435.375-.752.715-.708s.57.433.516.868"/><path fill="#292B35" d="M94.846 52.762a1.1 1.1 0 0 1-.443-.45s.077.398.186.574.257-.124.257-.124m5.455.908c-.084.406.072.798.348.875.275.078.567-.188.651-.594s-.071-.798-.347-.876-.568.188-.652.595"/><path fill="#292B35" d="M101.159 53.581a.84.84 0 0 0 .473-.247s-.175.326-.31.445c-.136.12-.163-.198-.163-.198"/><path fill="#363944" d="M86.5 49.795s-2.845-5.398-.616-9.52c0 0-1.587 4.933.616 9.52m3.817-1.59s-4.257-4.337-3.294-8.936c0 0-.118 5.188 3.294 8.935"/><mask id="h" width="15" height="11" x="84" y="42" maskUnits="userSpaceOnUse" style="mask-type:luminance"><path fill="url(#g)" d="M98.583 44.934a5.5 5.5 0 0 1-.934-.258s-1.77-1.347-2.509-.3c-.737 1.049-2.803 7.488-9.885 7.488l-.052.14c-.525-.226-.367-.398 1.085-.44 5.164-.15 7.082-7.037 8.852-8.684 1.771-1.648 3.204.48 3.204.48z" style="mix-blend-mode:multiply"/></mask><g mask="url(#h)"><path fill="url(#i)" d="M98.583 44.934a5.5 5.5 0 0 1-.934-.258s-1.77-1.347-2.509-.3c-.737 1.049-2.803 7.488-9.885 7.488l-.052.14c-.525-.226-.367-.398 1.085-.44 5.164-.15 7.082-7.037 8.852-8.684 1.771-1.648 3.204.48 3.204.48z" opacity=".6" style="mix-blend-mode:multiply"/></g><mask id="k" width="5" height="12" x="96" y="38" maskUnits="userSpaceOnUse" style="mask-type:luminance"><path fill="url(#j)" d="M98.976 49.318a7 7 0 0 1-.242.454q-.466-.055-.84-.114c-.616-.096-1-.602-.824-1.092q.197-.576.313-1.177c.349-1.77.33-3.596-.056-5.359l-.711-3.343c.175-.2.423.05.575-.07.341-.269.612-.324.782-.08l.009.012c.211.262 3.861 4.95.994 10.77" style="mix-blend-mode:multiply"/></mask><g mask="url(#k)"><path fill="url(#l)" d="M98.976 49.318a7 7 0 0 1-.242.454q-.466-.055-.84-.114c-.616-.096-1-.602-.824-1.092q.197-.576.313-1.177c.349-1.77.33-3.596-.056-5.359l-.711-3.343c.175-.2.423.05.575-.07.341-.269.612-.324.782-.08l.009.012c.211.262 3.861 4.95.994 10.77" opacity=".6" style="mix-blend-mode:multiply"/></g><path fill="#E3EBED" d="M86.193 51.52s-.927-2.39-3.084-1.495c-2.157.896-1.908 4.617-.145 6.292s3.438-.295 3.438-.295z"/><path fill="#6DD6FF" d="M84.058 54.979a.27.27 0 0 0 .188-.088l1.136-1.206-1.648-1.876a.27.27 0 0 0-.2-.097.27.27 0 0 0-.206.087.335.335 0 0 0-.006.444l1.25 1.424-.726.772a.334.334 0 0 0-.005.444.27.27 0 0 0 .217.095"/><path fill="#3759EF" d="m79.593 78.698-.921-5.084 2.477 5.084z"/><path fill="#3759EF" d="M79.322 66.159s1.463 3.3-.65 7.424l.813 2.573s.975.232 1.625-2.573l-1.22.605s1.383-3.41-.568-8.03m16.907 5.61s1.138 5.444.487 6.929h1.789s-.976-4.785-2.276-6.93"/><path fill="#1E328C" fill-rule="evenodd" d="M135.326 73.583v9.651l-5.934 6.022h-22.759v-8.425c0-.93.18-1.852.531-2.711.351-.86.865-1.64 1.513-2.298a7 7 0 0 1 2.264-1.535 6.9 6.9 0 0 1 2.671-.54h12.854z" clip-rule="evenodd"/><path fill="#2B41A3" fill-rule="evenodd" d="M135.326 73.809v9.425l-5.934 6.022h-19.508v-8.26c0-.93.181-1.852.531-2.71.351-.86.865-1.641 1.513-2.299a7 7 0 0 1 2.265-1.535 6.9 6.9 0 0 1 2.67-.54h12.854z" clip-rule="evenodd"/><path fill="#44C7FA" d="M154.01 97.234v19.017c-2.98-.876-5.627-2.513-7.452-3.855a28 28 0 0 1-2.394-1.958c-.107-.099-.169-.16-.184-.174l-.003-.003s-.149.427-.384 1.146c-.34 1.039-.864 2.687-1.387 4.544-.73 2.595-.295 4.941-.295 4.941h-30.836c-11.951-4.192-11.066-19.166-4.722-28.6 6.439-9.573 17.411-11.679 17.411-11.679l2.065.45 14.754 1.497s4.427 2.845 6.345 4.791 7.082 9.883 7.082 9.883"/><path fill="#C6E9F2" d="m129.223 74.624-.59 6.14s.738 5.54 4.426 5.69c3.689.149 5.017-1.049 5.607-1.798l.59-7.187z"/><path fill="#03135A" d="m141.027 58.752 2.044 6.139-3.867-3.24zM124.052 63.964s-3.534-.271-3.239 3.173 5.754 6.139 5.754 6.139l.885-1.198z"/><path fill="#4968F2" d="M138.961 80.164s.147 3.593-2.149 5.813c0 0 1.762 1.92 2.883 3.45a.76.76 0 0 0 .649.31.75.75 0 0 0 .611-.382c.635-1.131.985-4.212.514-6.795z"/><path fill="#E3EBED" d="M145.895 75.971c-1.053 5.345-10.475 8.835-16.672-1.347-5.428-8.919-2.951-15.723 2.36-16.322 5.312-.599 8.853 1.198 8.853 1.198s1.39 2.49 2.697 5.536c.671 1.566 1.322 3.28 1.75 4.876.503 1.87 1.455 3.813 1.012 6.06"/><path fill="#E3EBED" d="M128.749 71.471s-1.697-1.667-3.225 0 .169 4.816 2.376 5.557c2.207.74 2.886-1.667 2.886-1.667z"/><path fill="#03135A" d="M127.452 72.078s-1.77-5.39-1.032-5.39c.737 0 14.606-3.295 13.426-7.787s-5.754-2.695-5.754-2.695-16.968 3.893-6.64 15.872"/><path fill="#03135A" d="M123.026 64.89s-2.656-4.94 2.361-7.336c5.016-2.396 3.984-1.797 5.754-4.792 1.771-2.995 6.639-2.695 7.82 0 1.18 2.695-.443 5.39-.443 5.39z"/><path fill="#03135A" d="M137.042 55.851s4.027-3.071 5.017.056c1.328 4.192-5.017 7.015-5.017 7.015z"/><path fill="#6DD6FF" d="M141.502 72.095q-.03.015-.063.028l-.844.343a.172.172 0 0 1-.191-.04.2.2 0 0 1-.05-.127.2.2 0 0 1 .014-.067.2.2 0 0 1 .039-.058.2.2 0 0 1 .057-.038l.844-.343c.248-.1.429-.316.519-.609a1.5 1.5 0 0 0-.057-.987l-.038-.097c-.102-.258-.34-.405-.53-.328a1.01 1.01 0 0 1-.891-.078 1.5 1.5 0 0 1-.636-.754l-.542-1.394a.2.2 0 0 1 .005-.135.18.18 0 0 1 .094-.095.174.174 0 0 1 .227.1l.542 1.393c.09.242.26.445.48.575a.68.68 0 0 0 .591.058c.369-.15.811.086.985.526l.038.097c.159.389.183.82.066 1.225a1.28 1.28 0 0 1-.659.805"/><path fill="#273470" d="M131.83 67.333c.274-.066.541-.283.811-.48.267-.203.54-.401.782-.566.243-.165.527-.347.814-.52.282-.179.582-.349.743-.58.156-.22.093-.501-.335-.609-.409-.11-1.207.01-2.012.556-.801.549-1.205 1.246-1.251 1.666-.055.437.185.598.448.532m7.225-2.2c.226.046.503-.014.773-.06.271-.05.545-.096.784-.128.24-.033.516-.063.791-.088.272-.028.556-.046.759-.15.196-.098.252-.31-.025-.525-.261-.209-.894-.389-1.686-.282-.792.11-1.344.453-1.531.723-.2.28-.082.468.135.51m-2.986 3.828c.173.457.027.94-.327 1.077-.355.138-.782-.12-.955-.577s-.026-.94.328-1.078.781.12.954.578m5.707-2.097c.139.469-.042.94-.405 1.05-.364.112-.771-.178-.911-.647-.139-.468.042-.939.405-1.05s.771.178.911.647"/><path fill="#86DBFC" d="M132.395 75.522c1.671 0 3.025-1.374 3.025-3.07s-1.354-3.07-3.025-3.07-3.024 1.375-3.024 3.07c0 1.696 1.354 3.07 3.024 3.07M144.883 69.912a3 3 0 0 1-1.347-.687 3.1 3.1 0 0 1-.852-1.262 3.1 3.1 0 0 1 .449-2.927c.671 1.566 1.322 3.28 1.75 4.876"/><path fill="#03135A" d="M127.452 65.939s-1.301 3.32.973 7.799l-3.033-4.931.232-4.624z"/><path fill="#C6E9F2" d="m133.944 84.057-.885 2.396 1.597 6.28c.167.658 1.106.607 1.202-.067l1.185-8.31z"/><path fill="#4968F2" d="M129.283 80.855c.607 1.69 1.802 4.262 3.776 5.598 0 0-1.004 2.038-3.427 2.836-1.002.33-2.102-.09-2.674-.988-.912-1.433-2.252-4.033-2.899-7.688 0 0 .885-1.947 4.851-2.732a6.85 6.85 0 0 0 .373 2.974"/><mask id="n" width="11" height="18" x="144" y="99" maskUnits="userSpaceOnUse" style="mask-type:luminance"><path fill="url(#m)" d="M154.305 110.462v5.789c-5.519-1.622-9.894-5.855-10.03-5.987l-.003-.003 3.099-10.332c2.279 4.819 4.36 7.582 6.934 10.533" style="mix-blend-mode:multiply"/></mask><g mask="url(#n)"><path fill="url(#o)" d="M154.305 110.462v5.789c-5.519-1.622-9.894-5.855-10.03-5.987l-.003-.003 3.099-10.332c2.279 4.819 4.36 7.582 6.934 10.533" opacity=".6"/></g><path fill="#6DD6FF" d="M127.889 75.642a.2.2 0 0 0 .101-.119l.397-1.177-1.695-.747a.2.2 0 0 0-.277.122.25.25 0 0 0 .009.177c.024.056.068.1.123.126l1.287.566-.254.754a.246.246 0 0 0 .133.302.2.2 0 0 0 .176-.004"/><path fill="#4968F2" d="M108.419 111.01s2.951-2.845 8.572-1.497c6.974 1.672 11.347 6.588 11.347 7.636 0 0 .948-.948-.885-3.294-3.394-4.342-16.083-8.535-19.034-2.845m12.247-21.712s.737 3.444 0 7.187c-.829 4.205-4.279 9.733-4.279 9.733l-.59-2.47s4.426-5.616 4.869-14.45"/><mask id="q" width="19" height="10" x="125" y="111" maskUnits="userSpaceOnUse" style="mask-type:luminance"><path fill="url(#p)" d="M143.594 111.407a113 113 0 0 0-1.387 4.544c-.731 2.595-.295 4.942-.295 4.942h-16.041c10.931-1.562 15.732-6.414 17.723-9.486" style="mix-blend-mode:multiply"/></mask><g mask="url(#q)"><path fill="url(#r)" d="M143.594 111.407a113 113 0 0 0-1.387 4.544c-.731 2.595-.295 4.942-.295 4.942h-16.041c10.931-1.562 15.732-6.414 17.723-9.486" opacity=".6"/></g><mask id="t" width="3" height="5" x="144" y="108" maskUnits="userSpaceOnUse" style="mask-type:luminance"><path fill="url(#s)" d="M146.558 112.396a28 28 0 0 1-2.393-1.958c.544-1.017.718-1.674.718-1.674z" style="mix-blend-mode:multiply"/></mask><g mask="url(#t)"><path fill="url(#u)" d="M146.558 112.396a28 28 0 0 1-2.393-1.958c.544-1.017.718-1.674.718-1.674z"/></g><path fill="#6DD6FF" d="M142.56 74.573s-2.113 1.155-4.064.495c.227.358.54.652.91.854s.784.306 1.203.3c1.789 0 1.951-1.65 1.951-1.65"/><path fill="#223899" d="M151.355 120.893h-4.03a.55.55 0 0 1-.385-.162.55.55 0 0 1-.159-.391v-1.065a.57.57 0 0 1 .181-.411c.08-.073.18-.12.286-.135l4.021-.578.012.383z"/><path fill="#2E45AA" d="m151.281 118.534-.074.113-4.409.492a.55.55 0 0 1 .45-.41l4.021-.578z"/><path fill="#435FDD" d="m153.624 93.544-2.417 25.102h35.263l3.098-26.054h-34.91a1.03 1.03 0 0 0-.698.273 1.06 1.06 0 0 0-.336.679"/><path fill="#4C6AED" d="m190.931 93.53-2.986 25.116h-35.263l2.508-26.054h34.922a.82.82 0 0 1 .618.282.85.85 0 0 1 .201.657"/><path fill="url(#v)" d="m190.931 93.53-2.986 25.116h-31.952c21.773-6.138 28.308-22.097 29.617-26.054h4.503a.81.81 0 0 1 .617.282.85.85 0 0 1 .201.657" opacity=".6"/><path fill="#FDFDFD" d="M176.056 105.735c.197-1.838-.775-3.453-2.17-3.607s-2.686 1.211-2.883 3.049.774 3.453 2.17 3.607 2.686-1.211 2.883-3.049" opacity=".7"/><path fill="#2B41A5" d="M188.535 119.32v.449c0 .298-.116.584-.324.794a1.1 1.1 0 0 1-.782.329h-35.558c-.255 0-.502-.089-.7-.253a1.13 1.13 0 0 1-.407-.87v-.449c0-.298.117-.583.324-.794.208-.21.489-.329.783-.329h35.558a1.1 1.1 0 0 1 .782.329c.208.211.324.496.324.794"/><path fill="#3048B5" d="M186.175 118.422v.449a1.14 1.14 0 0 1-.325.794 1.1 1.1 0 0 1-.782.329h-34.282a1 1 0 0 1-.022-.225v-.449c0-.298.117-.583.324-.794.208-.21.489-.329.783-.329h34.281q.023.111.023.225"/><path fill="#3E5AD6" d="M116.991 78.666H76.684c-1.133 0-2.052.933-2.052 2.083v26.681c0 1.15.919 2.082 2.052 2.082h40.307c1.133 0 2.052-.932 2.052-2.082V80.749c0-1.15-.919-2.083-2.052-2.083"/><path fill="#4C6AED" d="M117.42 80.18v27.818a1.53 1.53 0 0 1-.438 1.071 1.48 1.48 0 0 1-1.054.443H74.501a1.48 1.48 0 0 1-1.055-.443 1.53 1.53 0 0 1-.437-1.071V80.18a1.53 1.53 0 0 1 .436-1.07 1.5 1.5 0 0 1 1.056-.444h41.427a1.47 1.47 0 0 1 1.055.444 1.52 1.52 0 0 1 .437 1.07"/><path fill="url(#w)" d="m85.845 100.678-2.656 8.834h1.771z" opacity=".6"/><path fill="url(#x)" d="M102.813 100.678h4.869l7.525 8.834H98.682z" opacity=".6"/><path fill="#4059C6" d="m87.025 100.678-3.043 17.371a2.45 2.45 0 0 0 .52 1.978 2.38 2.38 0 0 0 1.828.866h13.237l3.245-20.215z"/><path fill="#3048B5" d="m85.845 100.678-3.043 17.371a2.45 2.45 0 0 0 .52 1.978 2.38 2.38 0 0 0 1.828.866h13.236l3.246-20.215z"/><path fill="#3048B5" d="M98.091 118.497h11.942c.494 0 .895.536.895 1.198s-.401 1.198-.895 1.198H98.091z"/><path fill="url(#y)" d="m116.559 78.809-6.222 6.446H77.435s-2.588-4.646-3.675-6.39c.225-.13.48-.2.74-.199h41.428c.218 0 .434.049.631.143" opacity=".55"/><path fill="#627DF4" d="M103.55 89.448H84.665a.59.59 0 0 1-.417-.176.603.603 0 0 1 0-.847.59.59 0 0 1 .417-.175h18.885c.157 0 .307.063.418.175a.607.607 0 0 1 0 .847.59.59 0 0 1-.418.176m0 2.545H84.665a.59.59 0 0 1-.417-.175.603.603 0 0 1 0-.847.59.59 0 0 1 .417-.176h18.885c.157 0 .307.064.418.176a.607.607 0 0 1 0 .847.59.59 0 0 1-.418.175m0 2.546H84.665a.59.59 0 0 1-.417-.176.603.603 0 0 1 0-.847.59.59 0 0 1 .417-.175h18.885c.157 0 .307.063.418.175a.606.606 0 0 1 0 .847.59.59 0 0 1-.418.176m0 2.396H84.665a.59.59 0 0 1-.417-.176.603.603 0 0 1 0-.847.59.59 0 0 1 .417-.175h18.885c.157 0 .307.063.418.175a.606.606 0 0 1 0 .847.59.59 0 0 1-.418.176"/><path fill="#274CF2" d="M84.37 124.786H71.386v16.77H84.37z"/><path fill="#38D2FC" d="M187.798 124.786H84.37v16.77h103.428z"/><path fill="#38D2FC" d="M191.697 124.786H84.26v16.77h107.437z"/><path fill="#55D5F9" d="M198.947 123.588a2.7 2.7 0 0 1-.212 1.037 2.6 2.6 0 0 1-.596.869 2.79 2.79 0 0 1-1.951.789H68.981c-1.524 0-2.76-1.207-2.76-2.695.002-.357.074-.709.213-1.037a2.6 2.6 0 0 1 .596-.869 2.8 2.8 0 0 1 1.95-.789h127.208c1.524 0 2.759 1.206 2.759 2.695"/><path fill="#70E0FF" d="M192.663 120.893a2.652 2.652 0 0 1-.807 1.906 2.8 2.8 0 0 1-1.951.789H66.222c0-.357.073-.709.212-1.037a2.6 2.6 0 0 1 .596-.869 2.8 2.8 0 0 1 1.95-.789z"/><path fill="#38D2FC" d="M82.747 120.893v5.39H68.64c-1.335 0-2.418-1.207-2.418-2.695a2.85 2.85 0 0 1 .708-1.906c.215-.246.478-.443.773-.579a2.3 2.3 0 0 1 .937-.21z" opacity=".6"/><path fill="#C9C9C9" d="M123.052 120.933s2.051-6.432 9.134-6.432 6.338 3.216 5.779 3.784-14.913 2.648-14.913 2.648"/><path fill="#2E45AA" d="M140.934 119.448v1.485h-13.537v-.356c.161-.353.459-.738.865-1.129 1.524-1.46 4.586-2.969 7.795-2.969 1.733 0 2.876.541 3.616 1.161.995.832 1.261 1.808 1.261 1.808"/><path fill="#223899" d="M139.796 117.964a1.5 1.5 0 0 1-.428 1.05 1.46 1.46 0 0 1-1.035.434h-10.071c1.523-1.46 4.586-2.969 7.795-2.969 1.733 0 2.876.541 3.616 1.161q.073.157.123.324"/><path fill="#A0A0A0" d="M188.262 120.248c1.017-.739 2.127.313 2.174 1.414.049 1.154-.646 2.257-1.433 3.009-1.73 1.655-4.422 1.763-6.644 1.945-4.932.402-9.885-.583-14.801.027-2.065.257-4.098.799-5.935 1.83-1.821 1.023-3.411 2.498-5.347 3.299-1.617.669-3.607.779-5.327.569a11.4 11.4 0 0 1-5.3-2.091c-1.913-1.407-3.089-3.377-4.101-5.52-.931-1.97-2.198-4.093-4.479-4.463-.614-.099-.878.872-.259.973 2.639.428 3.513 3.376 4.61 5.484.971 1.865 2.388 3.503 4.109 4.658 3.182 2.136 7.822 2.8 11.353 1.214 2.087-.938 3.794-2.561 5.842-3.573 2.388-1.179 5.085-1.521 7.704-1.557 5.43-.075 11.013.954 16.365-.489 2.172-.586 4.329-2.356 4.592-4.804.111-1.029-.203-2.071-1.038-2.688-.766-.567-1.788-.682-2.577-.108-.51.371-.023 1.246.492.871" opacity=".47" style="mix-blend-mode:multiply"/><path fill="#223899" d="M188.587 119.895c1.017-.725 2.127.307 2.174 1.388.05 1.132-.646 2.214-1.433 2.953-1.73 1.623-4.422 1.73-6.644 1.908-4.932.395-9.885-.572-14.8.027-2.066.252-4.099.784-5.936 1.796-1.82 1.004-3.411 2.452-5.347 3.238-1.617.656-3.607.764-5.327.558a11.5 11.5 0 0 1-5.3-2.052c-1.913-1.381-3.089-3.314-4.101-5.417-.931-1.934-2.198-4.018-4.478-4.381-.614-.097-.879.856-.26.955 2.639.42 3.513 3.314 4.61 5.382.971 1.831 2.388 3.438 4.109 4.572 3.182 2.096 7.822 2.748 11.353 1.191 2.087-.92 3.794-2.513 5.842-3.506 2.388-1.157 5.085-1.493 7.704-1.528 5.431-.074 11.013.936 16.365-.48 2.172-.575 4.329-2.313 4.593-4.715.11-1.01-.204-2.032-1.039-2.638-.766-.556-1.787-.669-2.577-.106-.51.364-.023 1.223.492.855"/><path fill="#C9C9C9" d="M137.643 116.479s.365 1.066-1.016 2.018-9.185 2.436-9.185 2.436h-4.39s8.86-6.104 14.591-4.454"/><defs><linearGradient id="a" x1="118.495" x2="126.197" y1="5.942" y2="134.616" gradientUnits="userSpaceOnUse"><stop stop-color="#fff"/><stop offset="1" stop-color="#87DDF5"/></linearGradient><linearGradient id="c" x1="168.591" x2="218.757" y1="129.383" y2="110.648" gradientUnits="userSpaceOnUse"><stop stop-color="#008DB4"/><stop offset=".92" stop-color="#0023C0"/></linearGradient><linearGradient id="e" x1="30.405" x2="94.299" y1="162.911" y2="139.05" gradientUnits="userSpaceOnUse"><stop stop-color="#008DB4"/><stop offset=".92" stop-color="#0023C0"/></linearGradient><linearGradient id="f" x1="64.469" x2="60.912" y1="98.779" y2="89.906" gradientUnits="userSpaceOnUse"><stop stop-color="#5B77F4"/><stop offset="1" stop-color="#385AF4"/></linearGradient><linearGradient id="g" x1="92.783" x2="90.842" y1="42.258" y2="53.457" gradientUnits="userSpaceOnUse"><stop stop-color="gray"/><stop offset="1" stop-color="#fff"/></linearGradient><linearGradient id="i" x1="92.783" x2="90.842" y1="42.258" y2="53.457" gradientUnits="userSpaceOnUse"><stop stop-color="#fff"/><stop offset="1"/></linearGradient><linearGradient id="j" x1="98.834" x2="96.974" y1="39.22" y2="49.954" gradientUnits="userSpaceOnUse"><stop stop-color="gray"/><stop offset="1" stop-color="#fff"/></linearGradient><linearGradient id="l" x1="98.834" x2="96.974" y1="39.22" y2="49.954" gradientUnits="userSpaceOnUse"><stop stop-color="#fff"/><stop offset="1"/></linearGradient><linearGradient id="m" x1="141.074" x2="157.65" y1="102.066" y2="113.02" gradientUnits="userSpaceOnUse"><stop stop-color="#fff"/><stop offset=".996" stop-color="#999"/></linearGradient><linearGradient id="o" x1="141.074" x2="157.65" y1="102.066" y2="113.02" gradientUnits="userSpaceOnUse"><stop stop-color="#5270F8"/><stop offset=".996" stop-color="#65CEF7"/></linearGradient><linearGradient id="p" x1="127.732" x2="142.737" y1="111.385" y2="121.301" gradientUnits="userSpaceOnUse"><stop stop-color="#fff"/><stop offset=".996" stop-color="#999"/></linearGradient><linearGradient id="r" x1="127.732" x2="142.737" y1="111.385" y2="121.301" gradientUnits="userSpaceOnUse"><stop stop-color="#5270F8"/><stop offset=".996" stop-color="#65CEF7"/></linearGradient><linearGradient id="s" x1="143.54" x2="147.352" y1="109.096" y2="111.615" gradientUnits="userSpaceOnUse"><stop stop-color="#fff"/><stop offset=".996" stop-color="#999"/></linearGradient><linearGradient id="u" x1="143.54" x2="147.352" y1="109.096" y2="111.615" gradientUnits="userSpaceOnUse"><stop stop-color="#5270F8"/><stop offset=".996" stop-color="#65CEF7"/></linearGradient><linearGradient id="v" x1="155.993" x2="190.938" y1="105.619" y2="105.619" gradientUnits="userSpaceOnUse"><stop stop-color="#4B5EB2"/><stop offset=".996" stop-color="#0C2FCD"/></linearGradient><linearGradient id="w" x1="85.894" x2="82.562" y1="106.393" y2="103.343" gradientUnits="userSpaceOnUse"><stop stop-color="#6371B2"/><stop offset=".996" stop-color="#2B49CD"/></linearGradient><linearGradient id="x" x1="108.873" x2="99.399" y1="110.462" y2="101.788" gradientUnits="userSpaceOnUse"><stop stop-color="#6371B2"/><stop offset=".996" stop-color="#2B49CD"/></linearGradient><linearGradient id="y" x1="95.11" x2="95.252" y1="73.403" y2="88.496" gradientUnits="userSpaceOnUse"><stop stop-color="#6371B2"/><stop offset=".996" stop-color="#2B49CD"/></linearGradient></defs></svg>