<svg width="64" height="62" fill="none" xmlns="http://www.w3.org/2000/svg"><path d="M38.21 51.066a9.613 9.613 0 0 1-6.267 1.316 12.903 12.903 0 0 1-2.634-.553 10.663 10.663 0 0 1-2.423-1.106 7.479 7.479 0 0 1-3.766-4.872c0-.764-.21-1.475-.21-2.265.127-1.996.039-4-.264-5.978a5.636 5.636 0 0 0-1.58-2.923 2.16 2.16 0 0 0-1.343-.527c-.54.03-1.077.1-1.607.21h-7.269a17.086 17.086 0 0 1-1.184-2.29 9.19 9.19 0 0 1-.58-2.37 7.427 7.427 0 0 1 0-1.87 7.27 7.27 0 0 1 .5-1.792 7.638 7.638 0 0 1 3.319-4.187 8.507 8.507 0 0 1 7.69 0c1.343.606 9.086 4.714 3.924 12.01a.896.896 0 0 0 .264 1.237 14.54 14.54 0 0 1 2.343 2.634c.662.96 1.21 1.994 1.633 3.08a23.3 23.3 0 0 1 1.001 3.346 7.505 7.505 0 0 0 1.343 2.633 4.635 4.635 0 0 0 4.925 1.422 10.22 10.22 0 0 0 1.185-.368l1.054-.5a1.015 1.015 0 0 0-.458-1.935 1.012 1.012 0 0 0-.385.09l-1.712.343a2.133 2.133 0 0 1-2.133-.895 7.01 7.01 0 0 1-.738-2.239 14.066 14.066 0 0 0-1.08-3.055 16.354 16.354 0 0 0-2.633-3.318 14.217 14.217 0 0 0-2.423-1.765s.21 0 .29-.184c4.266-6.057.553-12.483-4.951-15.249a11.614 11.614 0 0 0-9.086-.816 9.85 9.85 0 0 0-6.005 6.742 10.8 10.8 0 0 0-.369 2.423c-.057.83.005 1.663.185 2.476.219.988.564 1.944 1.027 2.844.293.537.619 1.055.974 1.554-.88.022-1.76.093-2.633.21a9.557 9.557 0 0 0-2.213.527 2.95 2.95 0 0 0-1.29.948 7.084 7.084 0 0 0-1.08 2.239 25.94 25.94 0 0 0-.658 4.582 40.584 40.584 0 0 0 .395 11.509 18.225 18.225 0 0 0 2.976 7.242.922.922 0 0 0 1.264.211.895.895 0 0 0 .21-1.238 15.617 15.617 0 0 1-2.212-6.584 37.029 37.029 0 0 1 .343-10.718c.158-.975.342-2.318.658-3.53.126-.548.34-1.073.632-1.553-.237-.422 1.054-.211 1.449-.264a19.19 19.19 0 0 1 2.449-.184h3.977c7.163-.263 6.505-.816 6.847 1.159.198 1.528.303 3.067.316 4.609a37.342 37.342 0 0 0 1.133 7.769 48.27 48.27 0 0 0 2.422 7.374 1.012 1.012 0 1 0 1.897-.711 50.01 50.01 0 0 1-1.554-5.636c.316.36.659.694 1.027 1a10.35 10.35 0 0 0 3.265 1.66c1.148.373 2.35.551 3.556.526a11.483 11.483 0 0 0 7.637-2.95.999.999 0 0 0 .185-1.421 1.026 1.026 0 0 0-1.554-.08zM37.895 10.666a1.027 1.027 0 0 0 .237-1.422 1.08 1.08 0 0 0-1.448-.237l-6.716 3.213a18.177 18.177 0 0 0-2.634 1.633 1.975 1.975 0 0 0-.658 1.343 1.843 1.843 0 0 0 .474 1.501c.342.395 1.396 1.264 1.475 1.343l5.899 4.846a.895.895 0 0 0 1.525-.632.895.895 0 0 0-.26-.632l-4.82-6.031-.264-.158.975-.421 6.215-4.346zM45.638 21.332a.999.999 0 0 0-.237 1.396 1.053 1.053 0 0 0 1.422.237l6.715-3.213c.929-.448 1.81-.986 2.634-1.607.365-.327.6-.776.659-1.264a1.79 1.79 0 0 0-.475-1.474 17.08 17.08 0 0 0-1.474-1.344l-5.9-4.872a.896.896 0 1 0-1.264 1.264l4.82 5.926.263.184a7.03 7.03 0 0 0-.974.422l-6.19 4.345zM46.059 5.61a.87.87 0 0 0-1.159.5c-1 1.712-2.001 3.37-2.844 5.267-.369.764-.658 1.554-.948 2.344-.29.79-.527 1.58-.738 2.397-.5 1.922-.842 3.818-1.211 5.767a1.001 1.001 0 0 0 .685 1.264 1.027 1.027 0 0 0 1.264-.684c.737-1.791 1.554-3.53 2.291-5.268.316-.763.632-1.527.922-2.29.294-.769.549-1.551.764-2.345.553-1.87.948-3.74 1.474-5.61a.923.923 0 0 0-.5-1.342z" fill="#79DD1A"/><path d="M63.467 12.562C61.913-1.606 65.6 2.95 52.511 1.08A105.795 105.795 0 0 0 40.028 0c-2.107 0-4.187 0-6.268.184a97.79 97.79 0 0 0-6.294.764c-2.028.316-3.845.448-5.873.764-5.083.869-5.267-.843-5.452 5.583-.04.57-.04 1.142 0 1.712.026.521.088 1.04.185 1.554.263 1.317.737 2.633 1 3.819a.896.896 0 0 0 1.027.816.87.87 0 0 0 .843-.922 28.97 28.97 0 0 0 .474-4.582 14.92 14.92 0 0 0-.29-2.634c-.131-.948-.42-1.87-.42-2.818a23.7 23.7 0 0 1 3.054-.395c1.949-.132 3.898-.132 5.794-.21 1.896-.08 4.082-.132 6.136-.159 2.055-.026 4.082 0 6.11 0 4.082 0 8.138 0 12.247.316 2.238.158 4.608 0 6.9 0h.368c.158 1.238.343 2.476.422 3.74.079 1.264 0 2.634.158 4.109.158 1.474.132 2.633.21 4.108.29 4.214.606 8.401.712 12.483.02.176.093.341.21.474-3.828.55-7.704.683-11.561.395l-4.793-.158h-3.24c-2.945.06-5.884.316-8.796.764a.896.896 0 1 0 .132 1.765c1.975 0 3.924 0 5.846.316-.192.674-.342 1.36-.447 2.054-.04.482-.04.966 0 1.448v1.449c0 1.159.29 2.238.395 3.37a1.027 1.027 0 0 0 1.314 1.07.973.973 0 0 0 .687-.885c.316-1.159.606-2.265.817-3.45.04-.49.04-.984 0-1.475.052-.49.052-.984 0-1.474a15.129 15.129 0 0 0-.395-1.897l2.027.185c2.312.197 4.633.276 6.953.237a41.898 41.898 0 0 0 11.72-1.791 1.001 1.001 0 0 0 .763-1.212c0-.158-.158-.237-.237-.342a.923.923 0 0 0 .606-.843c.29-3.081.632-6.268.685-9.48a46.89 46.89 0 0 0-.29-6.19zM59.912 46.404c-.187-.9-.703-1.699-1.449-2.238a4.003 4.003 0 0 0-2.001-.606 23.712 23.712 0 0 0-3.187.263l-9.402 1.317a.868.868 0 0 0-.764 1 .868.868 0 0 0 1.001.765l9.534-.106h1.949c2.291 0 .974-.316 1.238 3.398.237 2.633 2.317 2.633-2.476 2.791l-10.113.764a1.027 1.027 0 0 0-.886 1.44 1.001 1.001 0 0 0 .965.588l9.981.158c1.182.132 2.374.132 3.556 0a4.081 4.081 0 0 0 2.08-1.027 3.028 3.028 0 0 0 .606-1.87 28.15 28.15 0 0 0-.316-3.081 20.485 20.485 0 0 0-.316-3.556z" fill="#79DD1A"/></svg>