<svg width="65" height="62" fill="none" xmlns="http://www.w3.org/2000/svg"><path d="M63.395 42.863a23.36 23.36 0 0 0-2.243-5.34 20.345 20.345 0 0 0-5.74-6.194c.382-.818.72-1.656 1.014-2.51.63-1.76.876-3.636.721-5.5a5.742 5.742 0 0 0-2.67-4.271 4.378 4.378 0 0 0-5.34.507 17.032 17.032 0 0 0-3.737 4.7 52.5 52.5 0 0 0-2.323 5.339c-1.56.198-3.07.678-4.459 1.415-.742.393-1.433.878-2.056 1.442a10.68 10.68 0 0 0-1.628 2.002l-.748 1.655c-.453 1.976.214 3.017 1.362 3.445a5.073 5.073 0 0 0 3.204 0s-3.044 6.247-3.07 6.514a22.317 22.317 0 0 0-.855 3.658 10.277 10.277 0 0 0 0 2.67c.083.508.208 1.008.374 1.495.155.377.426.695.774.908a2.376 2.376 0 0 0 1.736.24 6.914 6.914 0 0 0 2.136-.988l1.548-1.468 1.468-1.87c.28-.058.55-.157.801-.293a9.72 9.72 0 0 0 1.549-1.228 13.62 13.62 0 0 0 1.842-2.296c.444-.738.837-1.505 1.175-2.296.167.09.347.153.534.187.583.158 1.184.239 1.789.24h1.068c-.12.411-.21.83-.267 1.255a5.184 5.184 0 0 0 0 1.281c.084.42.209.832.373 1.228a6.354 6.354 0 0 0 1.923 2.403.828.828 0 0 0 1.201 0 .855.855 0 0 0 0-1.201 5.178 5.178 0 0 1-.454-1.121c0-.401 0-.802-.16-1.229-.16-.427 0-.8-.187-1.228-.373-1.922-.4-2.403-.507-2.67a.748.748 0 0 0-.587-.854.721.721 0 0 0-.801.374c-.4.026-.802.026-1.202 0a5.552 5.552 0 0 1-1.602-.48 6.38 6.38 0 0 1-2.536-2.67c-.374-.695-.534-1.47.374-1.976l.907-.428c.753-.2 1.544-.2 2.297 0a9.5 9.5 0 0 1 2.402 1.042.829.829 0 0 0 1.175-.24.855.855 0 0 0-.213-1.175 14.866 14.866 0 0 0-1.576-1.068.908.908 0 0 0 .588-.4 89.362 89.362 0 0 0 1.602-2.964 24.643 24.643 0 0 1 4.058 5.927 45.003 45.003 0 0 1 2.11 4.939 73.067 73.067 0 0 1 2.402 8.01.88.88 0 0 0 1.015.694.853.853 0 0 0 .667-1.015 54.735 54.735 0 0 0-1.228-8.597zm-26.699-5.34a.614.614 0 0 1-.267-.186l.801-1.416a12.766 12.766 0 0 1 1.869-2.135c.464-.456.955-.883 1.468-1.282a11.35 11.35 0 0 1 1.549-.934 2.66 2.66 0 0 1-.187.4l-2.376 5.34c-.908.17-1.827.277-2.75.32l-.107-.107zm.908 14.605c0-.214-.534-2.216-.588-3.07-.053-.855 0-1.416 0-2.11a24.812 24.812 0 0 0 2.51 2.216c.384.283.785.542 1.202.774 0 0-2.724 2.19-3.017 2.296l-.107-.106zM51.54 34.96a.828.828 0 0 0 0 .828 4.882 4.882 0 0 0-.855-.374 6.033 6.033 0 0 0-2.67-.24l-1.682.507a3.577 3.577 0 0 0-2.136 4.672c.299.89.791 1.701 1.442 2.377.312.314.652.6 1.015.854-.32.454-.588.935-.935 1.362a10.676 10.676 0 0 1-2.19 2.109c-.213.16-1.067.72-.934.72a10.678 10.678 0 0 1-2.269-.72c-.881-.454-1.709-.961-2.67-1.442a152.686 152.686 0 0 1 1.602-3.123c1.602-3.018 2.83-5.02 4.993-9.185 1.175-2.376 2.216-5.073 3.55-7.529a15.03 15.03 0 0 1 3.018-4.112 1.71 1.71 0 0 1 2.136-.267 3.123 3.123 0 0 1 1.628 2.216 11.24 11.24 0 0 1-.347 4.593c-.026.614-2.19 5.66-2.696 6.754z" fill="#79DD1A"/><path d="M43.531 54.477a66.486 66.486 0 0 1-10.306 4.753 12.816 12.816 0 0 1-6.968.614A6.06 6.06 0 0 1 23.587 58a25.711 25.711 0 0 1-3.097-4.592c-1.442-2.456-2.67-4.94-3.925-7.475-1.842-3.845-3.47-7.743-5.18-11.695-.907-2.002-1.655-4.031-2.376-6.06-1.174-3.07-2.162-6.221-3.23-9.371-.214-.615-1.442-2.67-2.03-3.872.901-.051 1.795-.185 2.67-.4a105.868 105.868 0 0 0 13.35-4.406 105.79 105.79 0 0 0 14.257-6.594c.434-.275.83-.607 1.175-.988a23.541 23.541 0 0 1 1.869 3.257c1.361 3.044 2.91 8.01 4.432 11.961a47.22 47.22 0 0 0 1.335 2.964.854.854 0 0 0 1.148.4.881.881 0 0 0 .4-1.148c-.463-.937-.873-1.9-1.228-2.883-1.468-3.925-2.883-9.024-4.218-12.122A17.17 17.17 0 0 0 35.52.172a1.281 1.281 0 0 0-1.281 0c-.694.454-.214.774-1.656 1.628a127.964 127.964 0 0 1-17.033 7.076 83.502 83.502 0 0 1-10.386 3.043c-2.884.427-2.323-.32-3.471.24a1.656 1.656 0 0 0-.881 1.522 34.708 34.708 0 0 0 2.242 6.061c1.068 3.284 2.056 6.328 3.098 9.425.774 2.082 1.575 4.165 2.51 6.247 1.815 3.925 3.524 7.823 5.339 11.64a72.319 72.319 0 0 0 4.272 7.557 27.024 27.024 0 0 0 3.524 4.886 7.77 7.77 0 0 0 3.738 2.269 14.39 14.39 0 0 0 8.01-.828 76.28 76.28 0 0 0 10.439-5.126.747.747 0 0 0 .294-1.014.748.748 0 0 0-.748-.32z" fill="#79DD1A"/><path d="M21.21 19.795a27.828 27.828 0 0 1 4.22-.373c1.598-.03 3.19-.219 4.752-.561a9.719 9.719 0 0 0 5.58-3.418.854.854 0 0 0 0-1.201.828.828 0 0 0-1.202 0 7.743 7.743 0 0 1-3.444 1.976c-1.607.322-3.25.43-4.886.32a25.686 25.686 0 0 0-5.5.48 11.373 11.373 0 0 0-3.898 1.87 16.202 16.202 0 0 0-3.818 4.298.774.774 0 0 0 1.148.934 15.083 15.083 0 0 1 3.311-2.856 9.29 9.29 0 0 1 3.738-1.469zM37.657 25.696a.854.854 0 0 0 0-1.202.828.828 0 0 0-1.201 0 9.69 9.69 0 0 1-3.578 1.469c-2.002.454-4.112.507-6.248.8-1.212.231-2.394.599-3.524 1.095a12.36 12.36 0 0 0-2.162 1.255 13.51 13.51 0 0 0-4.112 4.325.774.774 0 0 0 .49 1.164.748.748 0 0 0 .791-.336 11.666 11.666 0 0 1 3.178-2.67c.918-.51 1.884-.93 2.883-1.255a19.78 19.78 0 0 1 3.044-.854c2.136-.507 4.298-.774 6.327-1.468a11.052 11.052 0 0 0 4.112-2.323zM27.244 38.618a8.86 8.86 0 0 0-1.575.64 7.608 7.608 0 0 0-1.388.882c-.985.84-1.88 1.779-2.67 2.803a.774.774 0 0 0 0 1.068.746.746 0 0 0 1.068 0 37.067 37.067 0 0 1 3.551-1.842c.56-.267 1.095-.587 1.655-.881.561-.294 1.095-.64 1.682-.908a10.898 10.898 0 0 1 1.79-.614.854.854 0 0 0 .773-.934.829.829 0 0 0-.934-.775 11.478 11.478 0 0 0-3.952.561z" fill="#79DD1A"/></svg>