<svg xmlns="http://www.w3.org/2000/svg" width="70" height="69" fill="none"><rect width="70" height="68.635" fill="#292732" rx="14.921"/><path fill="#46C1E3" d="M57.88 43.168a17.4 17.4 0 0 0-1.674-3.984 15.2 15.2 0 0 0-4.282-4.62q.427-.917.757-1.873a9.8 9.8 0 0 0 .538-4.103 4.28 4.28 0 0 0-1.992-3.187 3.27 3.27 0 0 0-3.984.378 12.7 12.7 0 0 0-2.788 3.506 39 39 0 0 0-1.733 3.983 9.7 9.7 0 0 0-3.327 1.056 7.6 7.6 0 0 0-1.533 1.076 8 8 0 0 0-1.215 1.494l-.558 1.234c-.338 1.474.16 2.251 1.016 2.57a3.8 3.8 0 0 0 2.39 0s-2.27 4.66-2.29 4.86c-.29.89-.502 1.803-.638 2.729a7.7 7.7 0 0 0 0 1.992q.093.569.279 1.115c.116.281.318.518.578.677.393.223.856.287 1.294.18a5.2 5.2 0 0 0 1.594-.737l1.155-1.096 1.096-1.394c.208-.044.41-.118.597-.22a7.3 7.3 0 0 0 1.155-.916c.519-.52.98-1.094 1.375-1.713q.496-.826.876-1.713.19.1.398.14a5.1 5.1 0 0 0 1.335.18h.797q-.135.46-.2.935-.06.479 0 .956.094.472.28.917a4.74 4.74 0 0 0 1.433 1.792.616.616 0 0 0 .897 0 .64.64 0 0 0 0-.896 4 4 0 0 1-.339-.837c0-.298 0-.597-.12-.916-.119-.319 0-.597-.139-.916-.279-1.434-.299-1.793-.378-1.992a.56.56 0 0 0-.438-.637.54.54 0 0 0-.598.279q-.448.03-.896 0a4.1 4.1 0 0 1-1.195-.359 4.76 4.76 0 0 1-1.893-1.992c-.279-.518-.398-1.095.28-1.474l.677-.319a3.3 3.3 0 0 1 1.712 0c.63.175 1.234.437 1.793.777a.616.616 0 0 0 .877-.179.64.64 0 0 0-.16-.876q-.562-.436-1.175-.797a.68.68 0 0 0 .438-.299q.598-1.056 1.195-2.21a18.4 18.4 0 0 1 3.028 4.421 34 34 0 0 1 1.573 3.685 55 55 0 0 1 1.793 5.975.657.657 0 0 0 .757.518.64.64 0 0 0 .498-.757 41 41 0 0 0-.916-6.413M37.96 39.184a.46.46 0 0 1-.199-.14l.598-1.055a9.5 9.5 0 0 1 1.394-1.593q.52-.511 1.096-.956a8.5 8.5 0 0 1 1.155-.698 2 2 0 0 1-.14.3l-1.772 3.983q-1.018.19-2.052.239zm.678 10.895c0-.159-.399-1.653-.439-2.29-.04-.638 0-1.056 0-1.574a18.5 18.5 0 0 0 1.873 1.653q.43.317.896.578s-2.032 1.633-2.25 1.713zm10.397-12.807a.62.62 0 0 0 0 .617 3.7 3.7 0 0 0-.638-.278 4.5 4.5 0 0 0-1.991-.18l-1.255.379a2.67 2.67 0 0 0-1.594 3.485 4.7 4.7 0 0 0 1.076 1.773q.35.353.757.638c-.24.338-.438.697-.697 1.015a8 8 0 0 1-1.634 1.574c-.159.12-.796.538-.697.538a8 8 0 0 1-1.693-.538c-.657-.339-1.275-.717-1.992-1.076q.658-1.314 1.196-2.33c1.195-2.25 2.11-3.745 3.724-6.852.877-1.773 1.653-3.784 2.65-5.617a11.2 11.2 0 0 1 2.25-3.067 1.274 1.274 0 0 1 1.594-.2 2.33 2.33 0 0 1 1.215 1.654 8.4 8.4 0 0 1-.26 3.426c-.02.458-1.633 4.222-2.011 5.039"/><path fill="#46C1E3" d="M43.06 51.832a49.6 49.6 0 0 1-7.688 3.546 9.56 9.56 0 0 1-5.199.458 4.5 4.5 0 0 1-1.992-1.375 19.2 19.2 0 0 1-2.31-3.426c-1.076-1.832-1.992-3.684-2.928-5.577-1.374-2.868-2.59-5.776-3.864-8.724-.677-1.494-1.235-3.008-1.773-4.521-.876-2.29-1.613-4.641-2.41-6.992-.16-.458-1.076-1.991-1.514-2.888a11 11 0 0 0 1.992-.298 79 79 0 0 0 9.96-3.287 79 79 0 0 0 10.635-4.92c.324-.205.62-.453.877-.737.529.772.995 1.585 1.394 2.43 1.016 2.271 2.171 5.976 3.307 8.924.338.816.677 1.573.995 2.21a.637.637 0 0 0 1.178-.07.66.66 0 0 0-.022-.487q-.52-1.05-.917-2.151c-1.095-2.928-2.15-6.733-3.147-9.043a12.8 12.8 0 0 0-2.55-3.585.96.96 0 0 0-.955 0c-.518.338-.16.577-1.235 1.215a95.5 95.5 0 0 1-12.708 5.278 62 62 0 0 1-7.748 2.27c-2.151.32-1.733-.238-2.59.18a1.24 1.24 0 0 0-.657 1.135c.416 1.556.976 3.07 1.673 4.522.797 2.45 1.534 4.72 2.31 7.03.579 1.554 1.176 3.108 1.873 4.662 1.355 2.928 2.63 5.836 3.984 8.684a54 54 0 0 0 3.187 5.637 20.2 20.2 0 0 0 2.629 3.645 5.8 5.8 0 0 0 2.788 1.693c2.01.367 4.083.153 5.976-.618a57 57 0 0 0 7.788-3.824.56.56 0 0 0 .219-.757.56.56 0 0 0-.558-.239"/><path fill="#46C1E3" d="M26.409 25.958a21 21 0 0 1 3.147-.278 18 18 0 0 0 3.545-.419 7.25 7.25 0 0 0 4.163-2.55.637.637 0 0 0 0-.896.62.62 0 0 0-.896 0 5.8 5.8 0 0 1-2.57 1.474c-1.199.24-2.424.321-3.645.24a19 19 0 0 0-4.103.358 8.5 8.5 0 0 0-2.908 1.394 12.1 12.1 0 0 0-2.848 3.207.578.578 0 0 0 .857.697 11.3 11.3 0 0 1 2.47-2.131 6.9 6.9 0 0 1 2.788-1.096M38.678 30.36a.64.64 0 0 0 0-.896.62.62 0 0 0-.896 0 7.2 7.2 0 0 1-2.669 1.096c-1.494.338-3.067.378-4.66.597a12.2 12.2 0 0 0-2.63.817 9.2 9.2 0 0 0-1.614.936 10.1 10.1 0 0 0-3.067 3.227.578.578 0 0 0 .366.867.56.56 0 0 0 .59-.25 8.7 8.7 0 0 1 2.37-1.992 12 12 0 0 1 2.152-.936 15 15 0 0 1 2.27-.637c1.594-.379 3.207-.578 4.72-1.096a8.25 8.25 0 0 0 3.068-1.733M30.91 40q-.61.183-1.175.479a5.7 5.7 0 0 0-1.036.657 14 14 0 0 0-1.992 2.091.58.58 0 0 0 0 .797.56.56 0 0 0 .797 0 28 28 0 0 1 2.65-1.374c.418-.2.816-.438 1.234-.657s.817-.479 1.255-.678q.647-.286 1.335-.458a.64.64 0 0 0 .577-.697.617.617 0 0 0-.697-.577c-1-.034-1.997.107-2.948.418"/></svg>