<svg width="41" height="40" viewBox="0 0 41 40" fill="none" xmlns="http://www.w3.org/2000/svg">
<path d="M34.0667 9.61283C34.4072 9.62987 34.7282 9.77666 34.9638 10.023C35.1993 10.2694 35.3316 10.5966 35.3334 10.9375V19.6533C35.3346 24.2729 33.9831 27.9781 31.0689 31.5625C28.1548 35.1469 25.1228 37.1833 20.6002 38.125C16.0777 37.1833 13.2018 35.1469 10.2876 31.5625C7.37346 27.9781 6.0105 24.2729 6.01172 19.6533L6.01174 10.9145C6.01353 10.5736 6.14581 10.2464 6.38139 10C6.61697 9.75363 6.93796 9.60685 7.27841 9.58981C14.1939 8.4375 17.7708 5.59094 19.5368 3.19094C19.6601 3.02505 19.8204 2.89029 20.005 2.79745C20.1897 2.7046 20.3935 2.65625 20.6001 2.65625C20.8068 2.65625 21.0106 2.7046 21.1952 2.79745C21.3799 2.89029 21.5402 3.02505 21.6635 3.19094C24.0377 5.625 26.6939 8.59375 34.0667 9.61283Z" fill="#4B4952"/>
<path d="M21.2921 36.5693C20.8399 36.6993 20.3602 36.6993 19.9081 36.5693C16.2652 35.5025 13.0654 33.2854 10.7869 30.2495C8.50838 27.2136 7.27346 23.5218 7.26672 19.726V11.32C7.26678 11.1565 7.32692 10.9987 7.4357 10.8767C7.54448 10.7546 7.69432 10.6768 7.85672 10.658C12.5254 10.1422 16.8666 8.00949 20.1281 4.62932C20.1889 4.56534 20.2621 4.51439 20.3433 4.47958C20.4244 4.44477 20.5118 4.42682 20.6001 4.42682C20.6883 4.42682 20.7757 4.44477 20.8569 4.47958C20.938 4.51439 21.0112 4.56534 21.0721 4.62932C24.3337 8.00915 28.6748 10.1416 33.3434 10.6573C33.5055 10.6771 33.6549 10.7553 33.7635 10.8773C33.8721 10.9993 33.9325 11.1567 33.9334 11.32V19.726C33.9267 23.5218 32.6917 27.2136 30.4132 30.2495C28.1347 33.2854 24.9349 35.5025 21.2921 36.5693Z" fill="#E3EBED"/>
<path d="M28.6001 12.6667H12.6001C11.8637 12.6667 11.2667 13.2636 11.2667 14V25.3334C11.2667 26.0697 11.8637 26.6667 12.6001 26.6667H28.6001C29.3364 26.6667 29.9334 26.0697 29.9334 25.3334V14C29.9334 13.2636 29.3364 12.6667 28.6001 12.6667Z" fill="#605E67"/>
<path d="M16.6001 15.3333H14.6001C14.2319 15.3333 13.9335 15.6318 13.9335 16V17.3333C13.9335 17.7015 14.2319 18 14.6001 18H16.6001C16.9683 18 17.2668 17.7015 17.2668 17.3333V16C17.2668 15.6318 16.9683 15.3333 16.6001 15.3333Z" fill="#A4A1AE"/>
<path d="M15.2667 21.3333H13.9334C13.7566 21.3333 13.587 21.2631 13.462 21.1381C13.337 21.013 13.2667 20.8435 13.2667 20.6667C13.2667 20.4899 13.337 20.3203 13.462 20.1953C13.587 20.0702 13.7566 20 13.9334 20H15.2667C15.4435 20 15.6131 20.0702 15.7381 20.1953C15.8632 20.3203 15.9334 20.4899 15.9334 20.6667C15.9334 20.8435 15.8632 21.013 15.7381 21.1381C15.6131 21.2631 15.4435 21.3333 15.2667 21.3333ZM14.6001 24H13.9334C13.7566 24 13.587 23.9298 13.462 23.8047C13.337 23.6797 13.2667 23.5101 13.2667 23.3333C13.2667 23.1565 13.337 22.987 13.462 22.8619C13.587 22.7369 13.7566 22.6667 13.9334 22.6667H14.6001C14.7769 22.6667 14.9464 22.7369 15.0715 22.8619C15.1965 22.987 15.2667 23.1565 15.2667 23.3333C15.2667 23.5101 15.1965 23.6797 15.0715 23.8047C14.9464 23.9298 14.7769 24 14.6001 24ZM17.9334 24H17.2667C17.0899 24 16.9203 23.9298 16.7953 23.8047C16.6703 23.6797 16.6001 23.5101 16.6001 23.3333C16.6001 23.1565 16.6703 22.987 16.7953 22.8619C16.9203 22.7369 17.0899 22.6667 17.2667 22.6667H17.9334C18.1102 22.6667 18.2798 22.7369 18.4048 22.8619C18.5298 22.987 18.6001 23.1565 18.6001 23.3333C18.6001 23.5101 18.5298 23.6797 18.4048 23.8047C18.2798 23.9298 18.1102 24 17.9334 24ZM21.2667 24H20.6001C20.4232 24 20.2537 23.9298 20.1287 23.8047C20.0036 23.6797 19.9334 23.5101 19.9334 23.3333C19.9334 23.1565 20.0036 22.987 20.1287 22.8619C20.2537 22.7369 20.4232 22.6667 20.6001 22.6667H21.2667C21.4435 22.6667 21.6131 22.7369 21.7381 22.8619C21.8632 22.987 21.9334 23.1565 21.9334 23.3333C21.9334 23.5101 21.8632 23.6797 21.7381 23.8047C21.6131 23.9298 21.4435 24 21.2667 24ZM19.2667 21.3333H17.9334C17.7566 21.3333 17.587 21.2631 17.462 21.1381C17.337 21.013 17.2667 20.8435 17.2667 20.6667C17.2667 20.4899 17.337 20.3203 17.462 20.1953C17.587 20.0702 17.7566 20 17.9334 20H19.2667C19.4435 20 19.6131 20.0702 19.7381 20.1953C19.8632 20.3203 19.9334 20.4899 19.9334 20.6667C19.9334 20.8435 19.8632 21.013 19.7381 21.1381C19.6131 21.2631 19.4435 21.3333 19.2667 21.3333ZM23.2667 21.3333H21.9334C21.7566 21.3333 21.587 21.2631 21.462 21.1381C21.337 21.013 21.2667 20.8435 21.2667 20.6667C21.2667 20.4899 21.337 20.3203 21.462 20.1953C21.587 20.0702 21.7566 20 21.9334 20H23.2667C23.4435 20 23.6131 20.0702 23.7381 20.1953C23.8632 20.3203 23.9334 20.4899 23.9334 20.6667C23.9334 20.8435 23.8632 21.013 23.7381 21.1381C23.6131 21.2631 23.4435 21.3333 23.2667 21.3333ZM27.2667 21.3333H25.9334C25.7566 21.3333 25.587 21.2631 25.462 21.1381C25.337 21.013 25.2667 20.8435 25.2667 20.6667C25.2667 20.4899 25.337 20.3203 25.462 20.1953C25.587 20.0702 25.7566 20 25.9334 20H27.2667C27.4435 20 27.6131 20.0702 27.7381 20.1953C27.8632 20.3203 27.9334 20.4899 27.9334 20.6667C27.9334 20.8435 27.8632 21.013 27.7381 21.1381C27.6131 21.2631 27.4435 21.3333 27.2667 21.3333Z" fill="#E3EBED"/>
</svg>
