<svg width="38" height="34" viewBox="0 0 38 34" fill="none" xmlns="http://www.w3.org/2000/svg">
<path d="M36.911 22.7426H0.688354V27.7403H36.911V22.7426Z" fill="#E3EBED"/>
<path d="M36.9131 24.7421V27.7426H0.686646V24.8921C5.16357 25.7844 11.4566 26.345 18.4367 26.345C25.8035 26.345 32.4045 25.7212 36.9131 24.7421Z" fill="#70889F"/>
<path d="M11.2974 27.7743H6.51245V32.8596H11.2974V27.7743Z" fill="#C6DDEA"/>
<path d="M31.0868 27.7743H26.3019V32.8596H31.0868V27.7743Z" fill="#C6DDEA"/>
<path d="M36.9114 28.1177H0.688638C0.480059 28.1177 0.311279 27.9489 0.311279 27.7403V22.7425C0.311279 22.534 0.480059 22.3652 0.688638 22.3652H36.9114C37.1199 22.3652 37.2887 22.534 37.2887 22.7425V27.7403C37.2887 27.9489 37.1199 28.1177 36.9114 28.1177ZM1.066 27.363H36.534V23.1199H1.066V27.363Z" fill="#C6DDEA"/>
<path d="M11.2974 33.2363H6.51261C6.30403 33.2363 6.13525 33.0675 6.13525 32.859V27.7742C6.13525 27.5656 6.30403 27.3969 6.51261 27.3969H11.2974C11.506 27.3969 11.6748 27.5656 11.6748 27.7742V32.859C11.6748 33.0675 11.506 33.2363 11.2974 33.2363ZM6.88997 32.4816H10.92V28.1516H6.88997V32.4816Z" fill="#C6DDEA"/>
<path d="M31.0866 33.2363H26.3018C26.0932 33.2363 25.9244 33.0675 25.9244 32.859V27.7742C25.9244 27.5656 26.0932 27.3969 26.3018 27.3969H31.0866C31.2952 27.3969 31.4639 27.5656 31.4639 27.7742V32.859C31.4639 33.0675 31.2952 33.2363 31.0866 33.2363ZM26.6792 32.4816H30.7092V28.1516H26.6792V32.4816Z" fill="#C6DDEA"/>
<path d="M20.4581 17.9562H14.4724V22.7426H20.4581V17.9562Z" fill="white"/>
<path d="M20.4606 17.9595V22.7445H14.4755V21.1574C14.7756 21.2679 15.0993 21.3232 15.4387 21.3232C17.1286 21.3232 18.4946 19.9177 18.4946 18.1727C18.4946 18.1017 18.4946 18.0306 18.4867 17.9595H20.4606Z" fill="#BBD6EA"/>
<path d="M20.458 23.1199H14.4726C14.264 23.1199 14.0952 22.9511 14.0952 22.7425V17.9563C14.0952 17.7477 14.264 17.5789 14.4726 17.5789H20.458C20.6666 17.5789 20.8353 17.7477 20.8353 17.9563V22.7425C20.8353 22.9511 20.6666 23.1199 20.458 23.1199ZM14.8499 22.3652H20.0806V18.3336H14.8499V22.3652Z" fill="#C6DDEA"/>
<path d="M35.7503 17.3814V21.2372C35.7503 22.0699 35.0758 22.7445 34.2347 22.7445H32.2375C31.4047 22.7445 30.7301 22.0699 30.7301 21.2372V17.3814H35.7503Z" fill="#C6DDEA"/>
<path d="M7.96763 22.7424C7.89274 21.1648 6.60088 19.9058 5.00492 19.9058C3.40877 19.9058 2.11691 21.1648 2.04211 22.7424H7.96763Z" fill="#C6DDEA"/>
<path d="M34.2345 23.1221H32.2379C31.1986 23.1221 30.3525 22.2767 30.3525 21.2375V17.3814C30.3525 17.1728 30.5213 17.004 30.7299 17.004H35.7505C35.9591 17.004 36.1279 17.1728 36.1279 17.3814V21.2375C36.1279 22.2767 35.2788 23.1221 34.2345 23.1221ZM31.1073 17.7587V21.2375C31.1073 21.8603 31.6143 22.3674 32.2379 22.3674H34.2345C34.8624 22.3674 35.3732 21.8603 35.3732 21.2375V17.7587H31.1073Z" fill="#C6DDEA"/>
<path d="M30.7299 21.4019C29.7231 21.4019 28.9036 20.5867 28.9036 19.5851C28.9036 18.5827 29.7231 17.7676 30.7299 17.7676C30.9385 17.7676 31.1073 17.9364 31.1073 18.1449C31.1073 18.3535 30.9385 18.5223 30.7299 18.5223C30.1388 18.5223 29.6583 18.9992 29.6583 19.5851C29.6583 20.171 30.1388 20.6471 30.7299 20.6471C30.9385 20.6471 31.1073 20.8159 31.1073 21.0245C31.1073 21.2331 30.9385 21.4019 30.7299 21.4019Z" fill="#C6DDEA"/>
<path d="M7.96747 23.1199H2.04176C1.93858 23.1199 1.83982 23.0779 1.76833 23.0027C1.69757 22.9283 1.65998 22.8273 1.66514 22.7249C1.7499 20.9324 3.21732 19.5284 5.00462 19.5284C6.79265 19.5284 8.26007 20.9324 8.34409 22.7249C8.34925 22.8281 8.31166 22.9283 8.24017 23.0027C8.16942 23.0779 8.07066 23.1199 7.96747 23.1199ZM2.46777 22.3652H7.54221C7.30194 21.1705 6.25462 20.2831 5.00462 20.2831C3.75535 20.2831 2.70804 21.1705 2.46777 22.3652Z" fill="#C6DDEA"/>
<path d="M5.00468 21.4601C4.7961 21.4601 4.62732 21.2914 4.62732 21.0828V19.9057C4.62732 19.6972 4.7961 19.5284 5.00468 19.5284C5.21326 19.5284 5.38204 19.6972 5.38204 19.9057V21.0828C5.38204 21.2914 5.21326 21.4601 5.00468 21.4601Z" fill="#C6DDEA"/>
<path d="M29.1778 3.22571V16.7593C29.1778 17.9043 28.246 18.836 27.0931 18.836H8.25358C7.10071 18.836 6.16895 17.9043 6.16895 16.7593V3.22571C6.16895 2.07294 7.10071 1.14117 8.25358 1.14117H27.0931C28.246 1.14117 29.1778 2.07294 29.1778 3.22571Z" fill="white"/>
<path d="M29.1778 3.22571V16.7593C29.1778 17.9043 28.246 18.836 27.0931 18.836H8.25358C7.10071 18.836 6.16895 17.9043 6.16895 16.7593V14.8959C8.35613 16.4514 11.1513 17.3831 14.207 17.3831C21.1633 17.3831 26.8011 12.5508 26.8011 6.59729C26.8011 4.6075 26.1694 2.74407 25.0639 1.14117H27.0931C28.246 1.14117 29.1778 2.07294 29.1778 3.22571Z" fill="#BBD6EA"/>
<path d="M6.16895 15.0275V16.7594C6.16895 17.9043 7.10071 18.836 8.25358 18.836H27.0931C28.246 18.836 29.1778 17.9043 29.1778 16.7594V15.0275H6.16895Z" fill="#70889F"/>
<path d="M27.0935 19.2136H8.25354C6.89594 19.2136 5.79187 18.1125 5.79187 16.7593V3.22602C5.79187 1.86842 6.89594 0.763611 8.25354 0.763611H27.0935C28.4511 0.763611 29.5551 1.86842 29.5551 3.22602V16.7593C29.5551 18.1125 28.4511 19.2136 27.0935 19.2136ZM8.25354 1.51833C7.31236 1.51833 6.54659 2.2841 6.54659 3.22602V16.7593C6.54659 17.6968 7.31236 18.4589 8.25354 18.4589H27.0935C28.0346 18.4589 28.8004 17.6968 28.8004 16.7593V3.22602C28.8004 2.2841 28.0346 1.51833 27.0935 1.51833H8.25354Z" fill="#C6DDEA"/>
<path d="M27.0935 19.2136H8.25354C6.89594 19.2136 5.79187 18.1125 5.79187 16.7593V15.0273C5.79187 14.8187 5.96065 14.65 6.16923 14.65H29.1778C29.3864 14.65 29.5551 14.8187 29.5551 15.0273V16.7593C29.5551 18.1125 28.4511 19.2136 27.0935 19.2136ZM6.54659 15.4047V16.7593C6.54659 17.6968 7.31236 18.4589 8.25354 18.4589H27.0935C28.0346 18.4589 28.8004 17.6968 28.8004 16.7593V15.4047H6.54659Z" fill="#C6DDEA"/>
<path d="M20.2066 17.3092H15.1403C14.9317 17.3092 14.7629 17.1404 14.7629 16.9318C14.7629 16.7232 14.9317 16.5544 15.1403 16.5544H20.2066C20.4152 16.5544 20.584 16.7232 20.584 16.9318C20.584 17.1404 20.4152 17.3092 20.2066 17.3092Z" fill="#C6DDEA"/>
<path d="M32.2858 16.0938C32.0772 16.0938 31.9084 15.925 31.9084 15.7164V14.2048C31.9084 13.9962 32.0772 13.8274 32.2858 13.8274C32.4944 13.8274 32.6632 13.9962 32.6632 14.2048V15.7164C32.6632 15.925 32.4944 16.0938 32.2858 16.0938Z" fill="#C6DDEA"/>
<path d="M34.1947 15.3383C33.9862 15.3383 33.8174 15.1695 33.8174 14.961V13.4493C33.8174 13.2407 33.9862 13.072 34.1947 13.072C34.4033 13.072 34.5721 13.2407 34.5721 13.4493V14.961C34.5721 15.1695 34.4033 15.3383 34.1947 15.3383Z" fill="#C6DDEA"/>
</svg>
