<svg width="41" height="40" viewBox="0 0 41 40" fill="none" xmlns="http://www.w3.org/2000/svg">
<path d="M38.911 25.7426H2.68835V30.7403H38.911V25.7426Z" fill="#E3EBED"/>
<path d="M38.9131 27.7421V30.7426H2.68665V27.8921C7.16357 28.7844 13.4566 29.345 20.4367 29.345C27.8035 29.345 34.4045 28.7212 38.9131 27.7421Z" fill="#928F9F"/>
<path d="M13.2974 30.7743H8.51245V35.8596H13.2974V30.7743Z" fill="#605E67"/>
<path d="M33.0868 30.7743H28.3019V35.8596H33.0868V30.7743Z" fill="#605E67"/>
<path d="M38.9114 31.1177H2.68864C2.48006 31.1177 2.31128 30.9489 2.31128 30.7403V25.7425C2.31128 25.534 2.48006 25.3652 2.68864 25.3652H38.9114C39.1199 25.3652 39.2887 25.534 39.2887 25.7425V30.7403C39.2887 30.9489 39.1199 31.1177 38.9114 31.1177ZM3.066 30.363H38.534V26.1199H3.066V30.363Z" fill="#4B4952"/>
<path d="M13.2974 36.2363H8.51261C8.30403 36.2363 8.13525 36.0675 8.13525 35.859V30.7742C8.13525 30.5656 8.30403 30.3969 8.51261 30.3969H13.2974C13.506 30.3969 13.6748 30.5656 13.6748 30.7742V35.859C13.6748 36.0675 13.506 36.2363 13.2974 36.2363ZM8.88997 35.4816H12.92V31.1516H8.88997V35.4816Z" fill="#4B4952"/>
<path d="M33.0866 36.2363H28.3018C28.0932 36.2363 27.9244 36.0675 27.9244 35.859V30.7742C27.9244 30.5656 28.0932 30.3969 28.3018 30.3969H33.0866C33.2952 30.3969 33.4639 30.5656 33.4639 30.7742V35.859C33.4639 36.0675 33.2952 36.2363 33.0866 36.2363ZM28.6792 35.4816H32.7092V31.1516H28.6792V35.4816Z" fill="#4B4952"/>
<path d="M22.4581 20.9562H16.4724V25.7426H22.4581V20.9562Z" fill="white"/>
<path d="M22.4606 20.9595V25.7445H16.4755V24.1574C16.7756 24.2679 17.0993 24.3232 17.4387 24.3232C19.1286 24.3232 20.4946 22.9177 20.4946 21.1727C20.4946 21.1017 20.4946 21.0306 20.4867 20.9595H22.4606Z" fill="#EFEFEF"/>
<path d="M22.458 26.1199H16.4726C16.264 26.1199 16.0952 25.9511 16.0952 25.7425V20.9563C16.0952 20.7477 16.264 20.5789 16.4726 20.5789H22.458C22.6666 20.5789 22.8353 20.7477 22.8353 20.9563V25.7425C22.8353 25.9511 22.6666 26.1199 22.458 26.1199ZM16.8499 25.3652H22.0806V21.3336H16.8499V25.3652Z" fill="#4B4952"/>
<path d="M37.7503 20.3814V24.2372C37.7503 25.0699 37.0758 25.7445 36.2347 25.7445H34.2375C33.4047 25.7445 32.7301 25.0699 32.7301 24.2372V20.3814H37.7503Z" fill="#605E67"/>
<path d="M9.96763 25.7424C9.89274 24.1648 8.60088 22.9058 7.00492 22.9058C5.40877 22.9058 4.11691 24.1648 4.04211 25.7424H9.96763Z" fill="#605E67"/>
<path d="M36.2345 26.1221H34.2379C33.1986 26.1221 32.3525 25.2767 32.3525 24.2375V20.3814C32.3525 20.1728 32.5213 20.004 32.7299 20.004H37.7505C37.9591 20.004 38.1279 20.1728 38.1279 20.3814V24.2375C38.1279 25.2767 37.2788 26.1221 36.2345 26.1221ZM33.1073 20.7587V24.2375C33.1073 24.8603 33.6143 25.3674 34.2379 25.3674H36.2345C36.8624 25.3674 37.3732 24.8603 37.3732 24.2375V20.7587H33.1073Z" fill="#4B4952"/>
<path d="M32.7299 24.4019C31.7231 24.4019 30.9036 23.5867 30.9036 22.5851C30.9036 21.5827 31.7231 20.7676 32.7299 20.7676C32.9385 20.7676 33.1073 20.9364 33.1073 21.1449C33.1073 21.3535 32.9385 21.5223 32.7299 21.5223C32.1388 21.5223 31.6583 21.9992 31.6583 22.5851C31.6583 23.171 32.1388 23.6471 32.7299 23.6471C32.9385 23.6471 33.1073 23.8159 33.1073 24.0245C33.1073 24.2331 32.9385 24.4019 32.7299 24.4019Z" fill="#4B4952"/>
<path d="M9.96747 26.1199H4.04176C3.93858 26.1199 3.83982 26.0779 3.76833 26.0027C3.69757 25.9283 3.65998 25.8273 3.66514 25.7249C3.7499 23.9324 5.21732 22.5284 7.00462 22.5284C8.79265 22.5284 10.2601 23.9324 10.3441 25.7249C10.3493 25.8281 10.3117 25.9283 10.2402 26.0027C10.1694 26.0779 10.0707 26.1199 9.96747 26.1199ZM4.46777 25.3652H9.54221C9.30194 24.1705 8.25462 23.2831 7.00462 23.2831C5.75535 23.2831 4.70804 24.1705 4.46777 25.3652Z" fill="#4B4952"/>
<path d="M7.00468 24.4601C6.7961 24.4601 6.62732 24.2914 6.62732 24.0828V22.9057C6.62732 22.6972 6.7961 22.5284 7.00468 22.5284C7.21326 22.5284 7.38204 22.6972 7.38204 22.9057V24.0828C7.38204 24.2914 7.21326 24.4601 7.00468 24.4601Z" fill="#4B4952"/>
<path d="M31.1778 6.22571V19.7593C31.1778 20.9043 30.246 21.836 29.0931 21.836H10.2536C9.10071 21.836 8.16895 20.9043 8.16895 19.7593V6.22571C8.16895 5.07294 9.10071 4.14117 10.2536 4.14117H29.0931C30.246 4.14117 31.1778 5.07294 31.1778 6.22571Z" fill="white"/>
<path d="M31.1778 6.22571V19.7593C31.1778 20.9043 30.246 21.836 29.0931 21.836H10.2536C9.10071 21.836 8.16895 20.9043 8.16895 19.7593V17.8959C10.3561 19.4514 13.1513 20.3831 16.207 20.3831C23.1633 20.3831 28.8011 15.5508 28.8011 9.59729C28.8011 7.6075 28.1694 5.74407 27.0639 4.14117H29.0931C30.246 4.14117 31.1778 5.07294 31.1778 6.22571Z" fill="#EFEFEF"/>
<path d="M8.16895 18.0275V19.7594C8.16895 20.9043 9.10071 21.836 10.2536 21.836H29.0931C30.246 21.836 31.1778 20.9043 31.1778 19.7594V18.0275H8.16895Z" fill="#928F9F"/>
<path d="M29.0935 22.2136H10.2535C8.89594 22.2136 7.79187 21.1125 7.79187 19.7593V6.22602C7.79187 4.86842 8.89594 3.76361 10.2535 3.76361H29.0935C30.4511 3.76361 31.5551 4.86842 31.5551 6.22602V19.7593C31.5551 21.1125 30.4511 22.2136 29.0935 22.2136ZM10.2535 4.51833C9.31236 4.51833 8.54659 5.2841 8.54659 6.22602V19.7593C8.54659 20.6968 9.31236 21.4589 10.2535 21.4589H29.0935C30.0346 21.4589 30.8004 20.6968 30.8004 19.7593V6.22602C30.8004 5.2841 30.0346 4.51833 29.0935 4.51833H10.2535Z" fill="#4B4952"/>
<path d="M29.0935 22.2136H10.2535C8.89594 22.2136 7.79187 21.1125 7.79187 19.7593V18.0273C7.79187 17.8187 7.96065 17.65 8.16923 17.65H31.1778C31.3864 17.65 31.5551 17.8187 31.5551 18.0273V19.7593C31.5551 21.1125 30.4511 22.2136 29.0935 22.2136ZM8.54659 18.4047V19.7593C8.54659 20.6968 9.31236 21.4589 10.2535 21.4589H29.0935C30.0346 21.4589 30.8004 20.6968 30.8004 19.7593V18.4047H8.54659Z" fill="#4B4952"/>
<path d="M22.2066 20.3092H17.1403C16.9317 20.3092 16.7629 20.1404 16.7629 19.9318C16.7629 19.7232 16.9317 19.5544 17.1403 19.5544H22.2066C22.4152 19.5544 22.584 19.7232 22.584 19.9318C22.584 20.1404 22.4152 20.3092 22.2066 20.3092Z" fill="#4B4952"/>
<path d="M34.2858 19.0938C34.0772 19.0938 33.9084 18.925 33.9084 18.7164V17.2048C33.9084 16.9962 34.0772 16.8274 34.2858 16.8274C34.4944 16.8274 34.6632 16.9962 34.6632 17.2048V18.7164C34.6632 18.925 34.4944 19.0938 34.2858 19.0938Z" fill="#4B4952"/>
<path d="M36.1947 18.3383C35.9862 18.3383 35.8174 18.1695 35.8174 17.961V16.4493C35.8174 16.2407 35.9862 16.072 36.1947 16.072C36.4033 16.072 36.5721 16.2407 36.5721 16.4493V17.961C36.5721 18.1695 36.4033 18.3383 36.1947 18.3383Z" fill="#4B4952"/>
</svg>
