<svg xmlns="http://www.w3.org/2000/svg" width="40" height="40" fill="none"><path fill="#fff" d="m22.861 26.562 1.31 8.495h-8.37l1.31-8.495z"/><path fill="#4B4952" d="M24.171 35.434h-8.37a.378.378 0 0 1-.373-.435l1.31-8.494a.38.38 0 0 1 .373-.32h5.75c.186 0 .345.136.373.32l1.31 8.494a.377.377 0 0 1-.373.435m-7.93-.755h7.49l-1.193-7.74h-5.104z"/><path fill="#fff" d="M38.111 4.544v21.764c0 1.328-1.08 2.409-2.41 2.409H4.299a2.41 2.41 0 0 1-2.41-2.41V4.545c0-1.329 1.081-2.41 2.41-2.41h31.404c1.328 0 2.41 1.081 2.41 2.41"/><path fill="#EFEFEF" d="M38.107 4.543v21.76a2.41 2.41 0 0 1-2.404 2.414H4.298a2.416 2.416 0 0 1-2.413-2.413V15.606c3.367 4.633 8.652 7.615 14.597 7.615 10.166 0 18.414-9.604 18.414-20.376 0-.238 0-.477-.018-.715h.825a2.41 2.41 0 0 1 2.404 2.413"/><path fill="#E3EBED" d="M1.889 25.303v1.005c0 1.328 1.08 2.409 2.409 2.409h31.404c1.328 0 2.41-1.08 2.41-2.41v-1.004z"/><path fill="#A4A1AE" d="M38.111 5.549V4.544c0-1.329-1.08-2.41-2.41-2.41H4.299a2.41 2.41 0 0 0-2.41 2.41v1.005z"/><path fill="#4B4952" d="M35.702 29.094H4.298a2.79 2.79 0 0 1-2.787-2.786V4.544a2.79 2.79 0 0 1 2.787-2.787h31.404a2.79 2.79 0 0 1 2.787 2.787v21.764a2.79 2.79 0 0 1-2.787 2.786M4.298 2.512c-1.12 0-2.032.912-2.032 2.032v21.764c0 1.12.912 2.032 2.032 2.032h31.404c1.12 0 2.032-.912 2.032-2.032V4.544c0-1.12-.912-2.032-2.032-2.032z"/><path fill="#4B4952" d="M35.702 29.094H4.298a2.79 2.79 0 0 1-2.787-2.786v-1.006c0-.208.17-.377.378-.377H38.11c.209 0 .378.169.378.377v1.006a2.79 2.79 0 0 1-2.787 2.786M2.266 25.68v.628c0 1.12.912 2.032 2.032 2.032h31.404c1.12 0 2.032-.912 2.032-2.032v-.628zM38.111 5.926H1.89a.377.377 0 0 1-.378-.377V4.544a2.79 2.79 0 0 1 2.787-2.787h31.404a2.79 2.79 0 0 1 2.787 2.787v1.005a.377.377 0 0 1-.378.377M2.266 5.171h35.468v-.627c0-1.12-.912-2.032-2.032-2.032H4.298c-1.12 0-2.032.912-2.032 2.032z"/><path fill="#A4A1AE" d="M30.483 35.488v1.082c0 .716-.578 1.294-1.294 1.294H10.775a1.29 1.29 0 0 1-1.284-1.294v-1.082a1.29 1.29 0 0 1 1.284-1.294H29.19c.716 0 1.294.578 1.294 1.294"/><path fill="#E3EBED" d="M30.483 35.488v1.082c0 .716-.578 1.294-1.294 1.294H10.775a1.29 1.29 0 0 1-1.284-1.294v-1.082c0-.037 0-.074.009-.101 2.606.56 5.927.89 9.551.89 4.505 0 8.542-.514 11.313-1.34.073.165.119.349.119.55"/><path fill="#4B4952" d="M29.19 38.243H10.775a1.67 1.67 0 0 1-1.664-1.672v-1.087c0-.918.747-1.665 1.664-1.665H29.19a1.67 1.67 0 0 1 1.671 1.665v1.087c0 .922-.75 1.672-1.671 1.672m-18.415-3.67a.91.91 0 0 0-.91.91v1.088c0 .506.409.917.91.917H29.19a.92.92 0 0 0 .916-.917v-1.087a.914.914 0 0 0-.916-.91zM14.046 8.749h-9.04a.377.377 0 1 1 0-.755h9.04a.377.377 0 1 1 0 .755M34.994 15.74h-1.391a.377.377 0 1 1 0-.755h1.391a.377.377 0 1 1 0 .755M31.516 15.74H18.704a.377.377 0 1 1 0-.755h12.812a.377.377 0 1 1 0 .755M16.288 15.74H6.575a.377.377 0 1 1 0-.755h9.713a.377.377 0 1 1 0 .755M24.592 19.235h-8.633a.377.377 0 1 1 0-.755h8.633a.377.377 0 1 1 0 .755M13.47 19.235H6.389a.377.377 0 1 1 0-.755h7.08a.377.377 0 1 1 0 .755M26.945 12.244h-4.031a.377.377 0 1 1 0-.755h4.03a.377.377 0 1 1 0 .755M20.79 12.244h-8.126a.377.377 0 1 1 0-.755h8.127a.377.377 0 1 1 0 .755M10.175 12.244H6.76a.377.377 0 1 1 0-.755h3.415a.377.377 0 1 1 0 .755M26.945 22.728h-4.031a.377.377 0 1 1 0-.755h4.03a.377.377 0 1 1 0 .755M20.79 22.728h-8.126a.377.377 0 1 1 0-.755h8.127a.377.377 0 1 1 0 .755M10.175 22.728H6.76a.377.377 0 1 1 0-.755h3.415a.377.377 0 1 1 0 .755"/></svg>