<svg xmlns="http://www.w3.org/2000/svg" width="30" height="30" fill="none"><g clip-path="url(#a)"><circle cx="15" cy="15" r="15" fill="#fff"/><path stroke="#000" stroke-linecap="round" stroke-linejoin="round" d="M8.75 8.125A3.125 3.125 0 0 1 11.875 5H15v6.25h-3.125A3.125 3.125 0 0 1 8.75 8.125M15 5h3.125a3.125 3.125 0 0 1 0 6.25H15z"/><path stroke="#000" stroke-linecap="round" stroke-linejoin="round" d="M15 14.375a3.124 3.124 0 1 1 6.248 0 3.124 3.124 0 0 1-6.248 0M8.75 20.625a3.125 3.125 0 0 1 3.125-3.125H15v3.125a3.125 3.125 0 1 1-6.25 0"/><path stroke="#000" stroke-linecap="round" stroke-linejoin="round" d="M8.75 14.375a3.125 3.125 0 0 1 3.125-3.125H15v6.25h-3.125a3.125 3.125 0 0 1-3.125-3.125"/></g><defs><clipPath id="a"><path fill="#fff" d="M0 0h30v30H0z"/></clipPath></defs></svg>