<svg width="30" height="30" viewBox="0 0 30 30" fill="none" xmlns="http://www.w3.org/2000/svg">
<g clip-path="url(#clip0_329_3167)">
<circle cx="15" cy="15" r="15" fill="white"/>
<path d="M8.75 8.125C8.75 7.2962 9.07924 6.50134 9.66529 5.91529C10.2513 5.32924 11.0462 5 11.875 5H15V11.25H11.875C11.0462 11.25 10.2513 10.9208 9.66529 10.3347C9.07924 9.74866 8.75 8.9538 8.75 8.125Z" stroke="black" stroke-linecap="round" stroke-linejoin="round"/>
<path d="M15 5H18.125C18.5354 5 18.9417 5.08083 19.3209 5.23788C19.7 5.39492 20.0445 5.62511 20.3347 5.91529C20.6249 6.20547 20.8551 6.54997 21.0121 6.92911C21.1692 7.30826 21.25 7.71462 21.25 8.125C21.25 8.53538 21.1692 8.94174 21.0121 9.32089C20.8551 9.70003 20.6249 10.0445 20.3347 10.3347C20.0445 10.6249 19.7 10.8551 19.3209 11.0121C18.9417 11.1692 18.5354 11.25 18.125 11.25H15V5Z" stroke="black" stroke-linecap="round" stroke-linejoin="round"/>
<path d="M15 14.375C15 13.9646 15.0808 13.5583 15.2379 13.1791C15.3949 12.8 15.6251 12.4555 15.9153 12.1653C16.2055 11.8751 16.55 11.6449 16.9291 11.4879C17.3083 11.3308 17.7146 11.25 18.125 11.25C18.5354 11.25 18.9417 11.3308 19.3209 11.4879C19.7 11.6449 20.0445 11.8751 20.3347 12.1653C20.6249 12.4555 20.8551 12.8 21.0121 13.1791C21.1692 13.5583 21.25 13.9646 21.25 14.375C21.25 14.7854 21.1692 15.1917 21.0121 15.5709C20.8551 15.95 20.6249 16.2945 20.3347 16.5847C20.0445 16.8749 19.7 17.1051 19.3209 17.2621C18.9417 17.4192 18.5354 17.5 18.125 17.5C17.7146 17.5 17.3083 17.4192 16.9291 17.2621C16.55 17.1051 16.2055 16.8749 15.9153 16.5847C15.6251 16.2945 15.3949 15.95 15.2379 15.5709C15.0808 15.1917 15 14.7854 15 14.375V14.375Z" stroke="black" stroke-linecap="round" stroke-linejoin="round"/>
<path d="M8.75 20.625C8.75 19.7962 9.07924 19.0013 9.66529 18.4153C10.2513 17.8292 11.0462 17.5 11.875 17.5H15V20.625C15 21.4538 14.6708 22.2487 14.0847 22.8347C13.4987 23.4208 12.7038 23.75 11.875 23.75C11.0462 23.75 10.2513 23.4208 9.66529 22.8347C9.07924 22.2487 8.75 21.4538 8.75 20.625Z" stroke="black" stroke-linecap="round" stroke-linejoin="round"/>
<path d="M8.75 14.375C8.75 13.5462 9.07924 12.7513 9.66529 12.1653C10.2513 11.5792 11.0462 11.25 11.875 11.25H15V17.5H11.875C11.0462 17.5 10.2513 17.1708 9.66529 16.5847C9.07924 15.9987 8.75 15.2038 8.75 14.375Z" stroke="black" stroke-linecap="round" stroke-linejoin="round"/>
</g>
<defs>
<clipPath id="clip0_329_3167">
<rect width="30" height="30" fill="white"/>
</clipPath>
</defs>
</svg>
