<svg width="358" height="651" viewBox="0 0 358 651" fill="none" xmlns="http://www.w3.org/2000/svg">
<path d="M419.383 614.587L419.383 614.615C420.229 615.173 420.877 615.756 421.22 616.411C421.472 616.89 421.593 617.475 421.417 618.081C421.252 618.653 420.882 619.034 420.578 619.264C420.01 619.696 419.294 619.891 418.887 619.982C418.653 620.034 418.446 620.069 418.296 620.09C418.22 620.101 418.158 620.108 418.112 620.114C418.089 620.116 418.07 620.118 418.055 620.12L418.037 620.122L418.03 620.122L418.028 620.122L418.027 620.122C418.026 620.123 418.026 620.123 417.89 618.629L418.026 620.123L416.393 620.271L416.39 618.631L416.386 616.346C412.489 614.328 403.418 611.036 383.888 605.813C359.76 599.361 338.852 595.384 321.111 594.998C303.378 594.612 288.933 597.816 277.614 605.6C272.61 609.041 266.605 615.302 260.023 622.164C259.642 622.561 259.259 622.961 258.874 623.362C251.921 630.605 244.419 638.3 237.117 643.423C229.889 648.494 222.309 651.428 215.488 648.063C212.115 646.399 209.136 643.28 206.567 638.544C204.001 633.81 201.798 627.378 200.01 618.94C196.521 602.472 190.564 595.021 184.067 591.35C178.729 588.333 172.915 587.749 167.067 587.161C165.614 587.014 164.159 586.868 162.709 586.684C159.147 586.233 155.626 585.538 152.503 583.915C149.334 582.268 146.648 579.703 144.692 575.652C140.847 567.692 139.844 554.028 143.041 530.168C144.626 518.334 144.279 509.884 142.502 503.906C140.747 498.001 137.601 494.504 133.437 492.465C129.19 490.386 123.742 489.752 117.293 489.921C111.373 490.077 104.782 490.9 97.7202 491.782C97.1014 491.859 96.4789 491.937 95.853 492.015C80.4212 493.932 62.9884 495.869 46.8668 491.122C30.611 486.336 15.8544 474.817 5.62799 450.259C-4.30298 426.412 5.06284 407.19 18.9977 389.466C23.8192 383.333 29.2497 377.304 34.656 371.301C37.0362 368.658 39.4118 366.021 41.7286 363.382C49.3513 354.7 56.3937 345.946 61.2445 336.655C71.0084 317.954 76.9434 297.788 71.9785 270.49C66.9977 243.105 51.024 208.415 16.6311 160.777C7.87946 148.655 3.63657 136.861 3.00272 125.498C2.36902 114.138 5.34875 103.321 10.859 93.1589C21.8513 72.8867 42.9832 55.0885 66.0733 40.3977C89.1986 25.6845 114.463 13.9803 133.926 5.9588C143.662 1.94627 151.956 -1.1487 157.818 -3.24131C160.749 -4.28768 163.073 -5.08361 164.666 -5.61849C165.462 -5.88594 166.076 -6.08813 166.491 -6.22375C166.699 -6.29156 166.857 -6.34273 166.964 -6.37708L167.085 -6.41599L167.116 -6.42596L167.124 -6.42856C167.126 -6.4292 167.128 -6.42957 167.582 -5L167.128 -6.42957L167.349 -6.5H167.582H296.756L417.056 -6.49998L418.556 -6.49998V-4.99998L418.556 159.899L419.383 614.587Z" fill="url(#paint0_radial_270_3891)" stroke="url(#paint1_linear_270_3891)" stroke-width="3"/>
<defs>
<radialGradient id="paint0_radial_270_3891" cx="0" cy="0" r="1" gradientUnits="userSpaceOnUse" gradientTransform="translate(518.077 28) rotate(145.306) scale(744.912 413.509)">
<stop stop-color="#7985CC"/>
<stop offset="0.401846" stop-color="white"/>
<stop offset="0.592049" stop-color="white"/>
<stop offset="0.602751" stop-color="#FBFBFB"/>
<stop offset="1" stop-color="#383535"/>
</radialGradient>
<linearGradient id="paint1_linear_270_3891" x1="120.08" y1="-148.537" x2="629.776" y2="458.654" gradientUnits="userSpaceOnUse">
<stop stop-color="#00CF7D"/>
<stop offset="0.984994" stop-color="#46C1E3"/>
</linearGradient>
</defs>
</svg>
