<svg width="444" height="585" viewBox="0 0 444 585" fill="none" xmlns="http://www.w3.org/2000/svg">
<path d="M454.569 548.295L454.569 548.409C454.656 548.465 454.74 548.522 454.822 548.578C455.31 548.919 455.877 549.39 456.287 550.036C456.747 550.762 457.068 551.833 456.661 552.996C456.307 554.007 455.573 554.567 455.16 554.826C454.351 555.334 453.408 555.531 452.97 555.612C452.694 555.664 452.45 555.697 452.275 555.717C452.186 555.728 452.111 555.735 452.056 555.741C452.028 555.743 452.004 555.745 451.986 555.747L451.962 555.749L451.953 555.75L451.949 555.75L451.948 555.75C451.947 555.75 451.946 555.75 451.733 552.912L451.946 555.75L448.894 555.979L448.887 552.918L448.885 551.968C444.393 550.198 434.686 547.372 415.005 543.021L415.619 540.242L415.005 543.021C389.108 537.295 366.714 533.778 347.743 533.437C328.765 533.095 313.444 535.938 301.522 542.716C296.257 545.71 289.894 551.193 282.77 557.333C282.379 557.67 281.986 558.01 281.59 558.35C274.134 564.771 265.985 571.688 258.023 576.306C250.156 580.869 241.676 583.659 233.923 580.496C226.159 577.33 220.342 568.702 216.476 553.619C212.833 539.403 206.703 533.178 200.116 530.101C194.564 527.508 188.537 527.004 182.273 526.481C180.692 526.349 179.095 526.216 177.488 526.048C169.853 525.247 161.877 523.57 157.219 515.596C152.767 507.975 151.8 495.287 155.239 474.062C156.921 463.682 156.507 456.515 154.739 451.598C153.03 446.844 149.992 444.002 145.774 442.294C141.405 440.525 135.706 439.957 128.809 440.107C122.488 440.244 115.443 440.971 107.846 441.756C107.184 441.824 106.518 441.893 105.848 441.962C89.2892 443.663 70.4088 445.407 52.9099 441.147C35.2024 436.837 18.9882 426.406 7.76932 404.133C2.2612 393.198 2.02969 383.142 5.24869 373.766C8.41876 364.533 14.8737 356.135 22.3915 348.23C27.6058 342.747 33.4991 337.337 39.3245 331.99C41.8727 329.65 44.408 327.323 46.8677 325.007C55.0507 317.301 62.4966 309.634 67.5967 301.558C77.9388 285.181 84.1189 267.732 78.9124 244.066C73.6533 220.16 56.711 189.596 19.8073 147.336C10.2509 136.393 5.48511 125.59 4.7724 115.027C4.05981 104.465 7.42313 94.495 13.4802 85.2598C25.5087 66.9199 48.4829 50.9831 73.3023 37.9279C98.2199 24.8211 125.421 14.4045 146.355 7.27164C156.83 3.70235 165.754 0.949159 172.063 -0.912715C175.218 -1.84375 177.72 -2.55217 179.436 -3.02857C180.294 -3.26678 180.955 -3.447 181.404 -3.56805C181.628 -3.62857 181.799 -3.67431 181.915 -3.70511L182.047 -3.74009L182.081 -3.74915L182.09 -3.75156C182.092 -3.75218 182.094 -3.75256 182.817 -1L182.094 -3.75256L182.449 -3.84595H182.817H321.594L450.838 -3.84594L453.684 -3.84593L453.684 -0.999986L453.684 145.464L454.569 548.295Z" fill="url(#paint0_radial_245_18276)" stroke="url(#paint1_linear_245_18276)" stroke-width="5.6919"/>
<defs>
<radialGradient id="paint0_radial_245_18276" cx="0" cy="0" r="1" gradientUnits="userSpaceOnUse" gradientTransform="translate(440.093 -18.0252) rotate(123.69) scale(798.48 636.066)">
<stop stop-color="#7985CC"/>
<stop offset="0.380621" stop-color="white"/>
<stop offset="0.592049" stop-color="white"/>
<stop offset="1"/>
</radialGradient>
<linearGradient id="paint1_linear_245_18276" x1="131.784" y1="-128.491" x2="562.402" y2="491.997" gradientUnits="userSpaceOnUse">
<stop stop-color="#00CF7D"/>
<stop offset="0.984994" stop-color="#46C1E3"/>
</linearGradient>
</defs>
</svg>
