<svg width="230" height="217" viewBox="0 0 230 217" fill="none" xmlns="http://www.w3.org/2000/svg">
<path fill-rule="evenodd" clip-rule="evenodd" d="M145.747 11.9759C167.878 17.8924 191.332 22.841 206.738 39.8356C222.489 57.2108 228.72 81.1312 229.734 104.622C230.731 127.711 226.896 152.059 212.356 170.009C198.561 187.039 174.89 189.51 154.52 197.472C134.432 205.324 115.689 218.26 94.2513 216.173C70.9027 213.901 49.1607 202.432 32.7614 185.623C15.4251 167.853 -1.77164 145.082 0.724144 120.307C3.16489 96.0778 31.3822 84.6916 44.9639 64.4912C57.8638 45.3048 57.5086 16.0752 77.9732 5.41167C98.6431 -5.35892 123.272 5.96746 145.747 11.9759Z" fill="url(#paint0_linear_270_3901)"/>
<defs>
<linearGradient id="paint0_linear_270_3901" x1="153.625" y1="-28.8478" x2="85.9555" y2="239.486" gradientUnits="userSpaceOnUse">
<stop stop-color="#00CF7D"/>
<stop offset="1" stop-color="#1FB6FF"/>
</linearGradient>
</defs>
</svg>
