<svg width="999" height="754" viewBox="0 0 999 754" fill="none" xmlns="http://www.w3.org/2000/svg">
<path d="M983.152 712.285L983.295 715.57L977.578 715.819L977.559 710.828C967.347 708.529 945.95 704.959 903.601 699.541C790.19 685.029 707.445 681.767 654.127 699.31C642.49 703.138 628.524 710.105 613.076 717.81C612.193 718.251 611.304 718.694 610.411 719.14C594.114 727.262 576.446 735.935 559.249 741.707C542.129 747.454 524.727 750.596 509.135 746.916C493.126 743.137 479.883 732.382 470.99 712.303C463.535 695.468 450.783 687.468 435.521 683.342C422.941 679.941 409.166 679.278 395.447 678.619C392.053 678.455 388.663 678.292 385.295 678.088C376.999 677.585 368.833 676.814 361.569 675.008C354.294 673.198 347.489 670.248 342.267 665.075C331.482 654.391 329.699 636.771 337.292 609.653C340.828 597.024 339.758 589.078 336.539 583.897C333.287 578.66 326.988 574.858 316.895 572.494C306.848 570.14 293.941 569.425 278.758 569.616C264.842 569.791 249.357 570.716 232.825 571.704C231.372 571.791 229.91 571.878 228.441 571.965C192.266 574.116 151.598 576.273 114.002 570.977C76.3754 565.676 41.0691 552.814 16.2529 524.301C10.1146 517.249 6.56073 510.097 5.70282 502.804C4.83911 495.463 6.78198 488.611 10.5015 482.341C17.7387 470.142 32.1682 459.398 48.3848 449.529C59.7483 442.614 72.5802 435.797 85.279 429.051C90.8388 426.097 96.3731 423.157 101.747 420.229C119.654 410.47 135.842 400.811 146.862 390.712C158.186 380.335 166.82 369.948 171.328 358.778C175.748 347.827 176.356 335.75 170.928 321.473C165.424 306.995 153.649 290.107 132.94 270.045C112.264 250.016 82.9448 227.072 42.7477 200.433C22.131 186.77 10.7792 172.642 9.05231 157.829C7.30212 142.817 15.6595 129.363 28.8636 117.712C42.1446 105.993 61.2932 95.1957 83.6265 85.3205C106.03 75.4143 131.965 66.2953 159.061 58.047C213.254 41.5499 272.442 28.4314 318.024 19.4431C340.828 14.9464 360.254 11.4782 373.982 9.13356C380.847 7.96114 386.289 7.06943 390.017 6.47032C391.882 6.17076 393.318 5.94434 394.29 5.79254C394.776 5.71664 395.146 5.65939 395.395 5.62099L395.678 5.57753L395.75 5.56645L395.769 5.56357C395.774 5.56288 395.776 5.56248 396.603 11L395.776 5.56248L396.187 5.5H396.603H699.248L981.103 5.50002L986.603 5.50002L986.603 11L986.603 195.838V195.848L988.528 702.545C989.395 702.907 990.519 703.454 991.453 704.307C991.982 704.789 992.843 705.721 993.265 707.164C993.755 708.845 993.447 710.526 992.65 711.843C991.971 712.964 991.08 713.602 990.576 713.915C990.024 714.258 989.495 714.478 989.108 714.618C987.724 715.121 986.085 715.326 985.209 715.42C984.686 715.477 984.221 715.513 983.886 715.536C983.717 715.547 983.578 715.556 983.478 715.561C983.427 715.564 983.386 715.566 983.355 715.567L983.317 715.569L983.304 715.57L983.299 715.57L983.297 715.57C983.296 715.57 983.295 715.57 983.152 712.285Z" fill="url(#paint0_radial_506_4159)" stroke="url(#paint1_linear_506_4159)" stroke-width="11"/>
<defs>
<radialGradient id="paint0_radial_506_4159" cx="0" cy="0" r="1" gradientUnits="userSpaceOnUse" gradientTransform="translate(957.672 -10.4869) rotate(139.039) scale(1279.08 1092.87)">
<stop stop-color="#7985CC"/>
<stop offset="0.380621" stop-color="white"/>
<stop offset="0.592049" stop-color="white"/>
<stop offset="1"/>
</radialGradient>
<linearGradient id="paint1_linear_506_4159" x1="285.311" y1="-149.902" x2="686.579" y2="849.202" gradientUnits="userSpaceOnUse">
<stop stop-color="#00CF7D"/>
<stop offset="0.984994" stop-color="#46C1E3"/>
</linearGradient>
</defs>
</svg>
