<svg width="47" height="51" viewBox="0 0 47 51" fill="none" xmlns="http://www.w3.org/2000/svg">
<path d="M2.16759 21.1988L2.47024 20.8636L2.16759 20.5285C1.10396 19.3508 0.509786 17.8184 0.5 16.2258V6.95455C0.5 5.24165 1.17608 3.59956 2.37849 2.38935C3.58079 1.17924 5.21077 0.5 6.90968 0.5H39.1548C40.8537 0.5 42.4837 1.17924 43.686 2.38935C44.8884 3.59956 45.5645 5.24165 45.5645 6.95455V16.2256C45.5548 17.8183 44.9606 19.3507 43.8969 20.5285L43.5943 20.8636L43.8969 21.1988C44.9606 22.3765 45.5548 23.909 45.5645 25.5017V34.7727C45.5645 36.4856 44.8884 38.1277 43.686 39.3379C42.4837 40.548 40.8537 41.2273 39.1548 41.2273H25.3355H24.8355V41.7273V46.3636V46.8636H25.3355H43.7613C44.2385 46.8636 44.6968 47.0544 45.0352 47.395C45.3738 47.7357 45.5645 48.1986 45.5645 48.6818C45.5645 49.1651 45.3738 49.6279 45.0352 49.9686C44.6968 50.3092 44.2385 50.5 43.7613 50.5H2.30323C1.82603 50.5 1.36772 50.3092 1.0293 49.9686C0.690763 49.6279 0.5 49.1651 0.5 48.6818C0.5 48.1986 0.690764 47.7357 1.02929 47.395L0.675577 47.0436L1.0293 47.395C1.36772 47.0544 1.82603 46.8636 2.30323 46.8636H20.729H21.229V46.3636V41.7273V41.2273H20.729H6.90968C5.21077 41.2273 3.58079 40.548 2.37849 39.3379C1.17608 38.1277 0.5 36.4856 0.5 34.7727V25.5015C0.509786 23.9088 1.10396 22.3765 2.16759 21.1988ZM19.7285 28.6238C20.0249 28.4244 20.3731 28.3182 20.729 28.3182C21.2062 28.3182 21.6645 28.5089 22.003 28.8496C22.3415 29.1903 22.5323 29.6531 22.5323 30.1364C22.5323 30.4967 22.4261 30.8486 22.2275 31.1477C22.029 31.4468 21.7472 31.6794 21.418 31.8166C21.0889 31.9538 20.727 31.9896 20.3778 31.9197C20.0287 31.8498 19.7075 31.6772 19.4551 31.4232C19.2027 31.1691 19.0304 30.845 18.9606 30.4917C18.8907 30.1384 18.9266 29.7721 19.0635 29.4395C19.2004 29.1069 19.432 28.8232 19.7285 28.6238ZM10.5156 28.6238C10.812 28.4244 11.1602 28.3182 11.5161 28.3182C11.9933 28.3182 12.4516 28.5089 12.7901 28.8496C13.1286 29.1903 13.3194 29.6531 13.3194 30.1364C13.3194 30.4967 13.2132 30.8486 13.0146 31.1477C12.8161 31.4468 12.5343 31.6794 12.2051 31.8166C11.876 31.9538 11.5141 31.9896 11.1649 31.9197C10.8158 31.8498 10.4946 31.6772 10.2422 31.4232C9.98977 31.1691 9.8175 30.845 9.74767 30.4917C9.67784 30.1384 9.71371 29.7721 9.8506 29.4395C9.98748 29.1069 10.2191 28.8232 10.5156 28.6238ZM41.1382 36.7643C41.6635 36.2356 41.9581 35.5191 41.9581 34.7727V25.5C41.9581 24.7536 41.6635 24.0371 41.1382 23.5084C40.6127 22.9795 39.8993 22.6818 39.1548 22.6818H6.90968C6.16517 22.6818 5.45181 22.9795 4.92636 23.5084C4.40101 24.0371 4.10645 24.7536 4.10645 25.5V34.7727C4.10645 35.5191 4.40101 36.2356 4.92636 36.7643C5.45181 37.2932 6.16517 37.5909 6.90968 37.5909H39.1548C39.8993 37.5909 40.6127 37.2932 41.1382 36.7643ZM41.1382 18.2189C41.6635 17.6901 41.9581 16.9737 41.9581 16.2273V6.95455C41.9581 6.20816 41.6635 5.49169 41.1382 4.96294C40.6127 4.43407 39.8993 4.13636 39.1548 4.13636H6.90968C6.16517 4.13636 5.45181 4.43407 4.92636 4.96294C4.40101 5.49169 4.10645 6.20816 4.10645 6.95455V16.2273C4.10645 16.9737 4.40101 17.6901 4.92636 18.2189C5.45181 18.7477 6.16517 19.0455 6.90968 19.0455H39.1548C39.8993 19.0455 40.6127 18.7477 41.1382 18.2189ZM19.7285 10.0783C20.0249 9.87894 20.3731 9.77273 20.729 9.77273C21.2062 9.77273 21.6645 9.96349 22.003 10.3041C22.3415 10.6448 22.5323 11.1077 22.5323 11.5909C22.5323 11.9512 22.4261 12.3032 22.2275 12.6023C22.029 12.9013 21.7472 13.1339 21.418 13.2711C21.0889 13.4083 20.727 13.4442 20.3778 13.3743C20.0287 13.3044 19.7075 13.1317 19.4551 12.8777C19.2027 12.6236 19.0304 12.2995 18.9606 11.9462C18.8907 11.5929 18.9266 11.2267 19.0635 10.8941C19.2004 10.5615 19.432 10.2777 19.7285 10.0783ZM10.5156 10.0783C10.812 9.87894 11.1602 9.77273 11.5161 9.77273C11.9933 9.77273 12.4516 9.96349 12.7901 10.3041C13.1286 10.6448 13.3194 11.1077 13.3194 11.5909C13.3194 11.9512 13.2132 12.3032 13.0146 12.6023C12.8161 12.9013 12.5343 13.1339 12.2051 13.2711C11.876 13.4083 11.5141 13.4442 11.1649 13.3743C10.8158 13.3044 10.4946 13.1317 10.2422 12.8777C9.98977 12.6236 9.8175 12.2995 9.74767 11.9462C9.67784 11.5929 9.71371 11.2267 9.8506 10.8941C9.98748 10.5615 10.2191 10.2777 10.5156 10.0783Z" fill="#292732" stroke="#80D8FE"/>
</svg>
