<svg width="70" height="51" viewBox="0 0 70 51" fill="none" xmlns="http://www.w3.org/2000/svg">
<path d="M62.5269 44.8228C62.3241 44.8228 62.1258 44.8832 61.9572 44.9963C61.7886 45.1094 61.6571 45.2702 61.5795 45.4583C61.5019 45.6465 61.4816 45.8535 61.5212 46.0532C61.5607 46.2529 61.6584 46.4363 61.8018 46.5803C61.9452 46.7243 62.1279 46.8223 62.3268 46.8621C62.5257 46.9018 62.7319 46.8814 62.9193 46.8035C63.1066 46.7256 63.2668 46.5936 63.3794 46.4243C63.4921 46.255 63.5523 46.0559 63.5523 45.8523C63.5523 45.7171 63.5257 45.5832 63.4742 45.4583C63.4227 45.3334 63.3472 45.2199 63.2519 45.1243C63.1567 45.0287 63.0437 44.9529 62.9193 44.9011C62.7949 44.8494 62.6615 44.8228 62.5269 44.8228ZM66.9238 26.4186H66.0342V18.5905C66.033 17.5897 65.6366 16.6302 64.9317 15.9225C64.2269 15.2148 63.2712 14.8167 62.2744 14.8156H54.1964V3.77495C54.1953 2.77411 53.7988 1.81459 53.094 1.10689C52.3891 0.399195 51.4335 0.00111869 50.4367 0H3.75977C2.76296 0.00111906 1.80729 0.399195 1.10244 1.10689C0.397589 1.81459 0.00111456 2.77411 0 3.77495L0 37.1521C0.00111456 38.153 0.397589 39.1125 1.10244 39.8202C1.80729 40.5279 2.76296 40.926 3.75977 40.9271H17.0438C17.2458 42.1989 17.0168 43.5019 16.3933 44.6274L14.6034 47.8378C14.4231 48.1611 14.3302 48.5261 14.3338 48.8967C14.3375 49.2672 14.4376 49.6303 14.6242 49.9499C14.8108 50.2696 15.0775 50.5347 15.3977 50.7189C15.7179 50.9031 16.0805 51 16.4496 51H25.4422C25.4879 50.9997 25.5336 50.9962 25.5789 50.9898C25.6656 50.9958 25.7529 51 25.8411 51H66.9238C67.7394 50.9991 68.5213 50.6734 69.098 50.0943C69.6747 49.5153 69.9991 48.7303 70 47.9114V29.5072C69.9991 28.6883 69.6747 27.9033 69.098 27.3243C68.5213 26.7452 67.7394 26.4195 66.9238 26.4186ZM62.2744 16.8747C62.7275 16.8752 63.1619 17.0561 63.4823 17.3778C63.8027 17.6995 63.9829 18.1356 63.9834 18.5905V26.4186H61.617V20.2802C61.617 20.145 61.5904 20.0111 61.5389 19.8862C61.4874 19.7613 61.4119 19.6478 61.3166 19.5522C61.2214 19.4566 61.1084 19.3807 60.984 19.329C60.8596 19.2772 60.7262 19.2506 60.5916 19.2506H29.9212C29.7866 19.2506 29.6532 19.2772 29.5288 19.329C29.4044 19.3807 29.2914 19.4566 29.1962 19.5522C29.101 19.6478 29.0254 19.7613 28.9739 19.8862C28.9224 20.0111 28.8958 20.145 28.8959 20.2802V40.4005C28.8958 40.5357 28.9224 40.6696 28.9739 40.7945C29.0254 40.9194 29.101 41.0329 29.1962 41.1285C29.2914 41.2241 29.4044 41.3 29.5288 41.3517C29.6532 41.4034 29.7866 41.4301 29.9212 41.4301H55.0537V43.806H26.5295V18.5905C26.53 18.1356 26.7102 17.6995 27.0306 17.3778C27.351 17.0561 27.7853 16.8752 28.2384 16.8747L62.2744 16.8747ZM2.05078 3.77495C2.05129 3.32002 2.23151 2.88388 2.55189 2.5622C2.87228 2.24052 3.30667 2.05957 3.75977 2.05906H50.4367C50.8898 2.05957 51.3242 2.24052 51.6445 2.5622C51.9649 2.88388 52.1451 3.32002 52.1456 3.77495V14.8156H28.2384C27.2416 14.8167 26.286 15.2148 25.5811 15.9225C24.8763 16.6302 24.4798 17.5897 24.4787 18.5905V31.2039H2.05078V3.77495ZM3.75977 38.868C3.30667 38.8675 2.87228 38.6866 2.55189 38.3649C2.23151 38.0432 2.05129 37.6071 2.05078 37.1521V33.263H24.4787V38.868H17.8759C17.8724 38.868 17.8689 38.868 17.8654 38.868H3.75977ZM22.0813 45.2366V47.2251C22.0809 47.8218 22.2224 48.4101 22.4939 48.9409H16.4496C16.4382 48.9409 16.4271 48.938 16.4172 48.9323C16.4074 48.9266 16.3992 48.9184 16.3934 48.9086C16.3877 48.8988 16.3846 48.8876 16.3845 48.8762C16.3844 48.8648 16.3873 48.8536 16.3928 48.8436L18.1828 45.633C18.9761 44.2009 19.3013 42.5548 19.1124 40.9271H24.4787V43.806H23.5064C23.1286 43.8064 22.7664 43.9573 22.4992 44.2255C22.2321 44.4937 22.0818 44.8573 22.0813 45.2366ZM25.8411 48.9409C25.388 48.9404 24.9536 48.7595 24.6332 48.4378C24.3129 48.1161 24.1326 47.68 24.1321 47.2251V45.8651H55.0537V47.9114C55.0535 48.2622 55.1132 48.6104 55.23 48.9409H25.8411ZM55.0537 29.5072V39.371H30.9466V21.3097H59.5662V26.4186H58.1298C57.3143 26.4195 56.5324 26.7452 55.9557 27.3243C55.379 27.9033 55.0546 28.6883 55.0537 29.5072ZM67.9492 47.9114C67.9489 48.1844 67.8408 48.4461 67.6486 48.6391C67.4563 48.8321 67.1957 48.9406 66.9238 48.9409H58.1298C57.858 48.9406 57.5973 48.8321 57.4051 48.6391C57.2129 48.4461 57.1047 48.1844 57.1044 47.9114V29.5072C57.1047 29.2342 57.2129 28.9726 57.4051 28.7795C57.5973 28.5865 57.858 28.478 58.1298 28.4777H60.4855C60.556 28.485 60.6271 28.485 60.6976 28.4777H64.9027C64.9732 28.485 65.0443 28.485 65.1148 28.4777H66.9238C67.1957 28.478 67.4563 28.5865 67.6486 28.7795C67.8408 28.9726 67.9489 29.2342 67.9492 29.5072V47.9114Z" fill="#292732"/>
</svg>
