<svg width="49" height="53" viewBox="0 0 49 53" fill="none" xmlns="http://www.w3.org/2000/svg">
<mask id="path-1-outside-1_161_10457" maskUnits="userSpaceOnUse" x="0" y="0" width="49" height="53" fill="black">
<rect fill="white" width="49" height="53"/>
<path d="M22.8344 9.60625C16.4594 10.3234 11.1203 15.4234 10.2438 21.7984C9.44688 27.3766 11.8375 32.7156 16.4594 35.8234C17.7344 36.7 18.6109 39.0906 18.6109 40.9234C18.6109 41.0828 18.6109 46.1828 18.6109 46.1031C18.6109 46.5812 18.9297 46.9 19.4078 46.9H20.0453V48.2547C20.0453 50.3266 21.7188 52 23.7906 52H25.1453C27.2172 52 28.8906 50.3266 28.8906 48.2547V46.9H29.5281C30.0063 46.9 30.325 46.5812 30.325 46.1031C30.325 45.7844 30.325 40.8438 30.325 40.9234C30.325 39.1703 31.2016 36.7 32.4766 35.8234C36.4609 33.1141 38.8516 28.6516 38.8516 23.8703C38.7719 15.5828 31.6 8.57031 22.8344 9.60625ZM28.6516 41.8V45.2266H20.2047V41.8H28.6516ZM27.2969 48.2547C27.2969 49.45 26.3406 50.4062 25.1453 50.4062H23.7906C22.5953 50.4062 21.6391 49.45 21.6391 48.2547V46.9H27.2969V48.2547ZM31.5203 34.4688C29.9266 35.5047 28.8906 38.0547 28.7313 40.2062H25.3047V30.325L27.6953 27.9344C27.8547 28.0141 28.0938 28.0141 28.2531 28.0938C28.3328 28.0938 28.4125 28.0938 28.4125 28.0938C29.6078 28.0938 30.7234 27.1375 30.8031 25.8625C30.8828 25.225 30.6438 24.5875 30.2453 24.1094C29.8469 23.6313 29.2891 23.3125 28.6516 23.3125C28.0141 23.2328 27.3766 23.4719 26.8984 23.8703C26.4203 24.2688 26.1016 24.8266 26.1016 25.4641C26.0219 25.9422 26.1813 26.5 26.4203 26.8984L24.4281 28.8906L22.5156 26.9781C22.7547 26.6594 22.9141 26.2609 22.9141 25.8625C22.9938 24.5078 22.0375 23.3922 20.6828 23.3125C19.3281 23.2328 18.2125 24.1891 18.1328 25.5437C18.0531 26.8187 19.0094 28.0141 20.3641 28.0938C20.4438 28.0938 20.5234 28.0938 20.5234 28.0938C20.7625 28.0938 21.0016 28.0141 21.2406 28.0141L23.6313 30.4047V40.2859H20.125C19.9656 38.1344 18.9297 35.5844 17.3359 34.5484C13.1922 31.7594 11.1203 26.9781 11.7578 22.0375C12.5547 16.3797 17.2563 11.8375 22.9938 11.2C30.8031 10.3234 37.1781 16.4594 37.1781 23.8703C37.1781 28.1734 35.1063 32.1578 31.5203 34.4688ZM27.6953 25.6234C27.6953 25.3844 27.775 25.225 27.9344 25.0656C28.0938 24.9062 28.2531 24.9062 28.4125 24.9062H28.4922C28.7313 24.9062 28.8906 24.9859 29.05 25.1453C29.2094 25.3047 29.2891 25.5438 29.2094 25.7031C29.2094 26.1812 28.8109 26.5 28.3328 26.4203C28.0938 26.4203 27.9344 26.3406 27.775 26.1812C27.6953 26.0219 27.6156 25.7828 27.6953 25.6234ZM21.0813 26.2609C20.9219 26.4203 20.6828 26.5 20.5234 26.4203C20.0453 26.4203 19.7266 26.0219 19.8063 25.5437C19.8063 25.3047 19.8859 25.1453 20.0453 24.9859C20.2047 24.8266 20.3641 24.8266 20.5234 24.8266H20.6031C21.0016 24.8266 21.4 25.225 21.3203 25.7031C21.3203 25.9422 21.2406 26.1016 21.0813 26.2609ZM24.4281 6.57812C24.9063 6.57812 25.225 6.25938 25.225 5.78125V1.79688C25.225 1.31875 24.9063 1 24.4281 1C23.95 1 23.6313 1.31875 23.6313 1.79688V5.78125C23.6313 6.17969 23.95 6.57812 24.4281 6.57812ZM39.8875 7.85313L37.0984 10.6422C36.7797 10.9609 36.7797 11.4391 37.0984 11.7578C37.4172 12.0766 37.8953 12.0766 38.2141 11.7578L41.0031 8.96875C41.3219 8.65 41.3219 8.17188 41.0031 7.85313C40.6844 7.53438 40.2063 7.53438 39.8875 7.85313ZM10.6422 37.0984L7.85313 39.8875C7.53438 40.2062 7.53438 40.6844 7.85313 41.0031C8.17188 41.3219 8.65 41.3219 8.96875 41.0031L11.7578 38.2141C12.0766 37.8953 12.0766 37.4172 11.7578 37.0984C11.4391 36.7797 10.9609 36.7797 10.6422 37.0984ZM47.0594 23.6313H43.075C42.5969 23.6313 42.2781 23.95 42.2781 24.4281C42.2781 24.9062 42.5969 25.225 43.075 25.225H47.0594C47.5375 25.225 47.8563 24.9062 47.8563 24.4281C47.8563 23.95 47.5375 23.6313 47.0594 23.6313ZM5.78125 23.6313H1.79688C1.31875 23.6313 1 23.95 1 24.4281C1 24.9062 1.31875 25.225 1.79688 25.225H5.78125C6.25938 25.225 6.57813 24.9062 6.57813 24.4281C6.57813 23.95 6.17969 23.6313 5.78125 23.6313ZM38.2141 37.0984C37.8953 36.7797 37.4172 36.7797 37.0984 37.0984C36.7797 37.4172 36.7797 37.8953 37.0984 38.2141L39.8875 41.0031C40.2063 41.3219 40.6844 41.3219 41.0031 41.0031C41.3219 40.6844 41.3219 40.2062 41.0031 39.8875L38.2141 37.0984ZM10.6422 11.8375C10.9609 12.1562 11.4391 12.1562 11.7578 11.8375C12.0766 11.5188 12.0766 11.0406 11.7578 10.7219L8.96875 7.93281C8.65 7.61406 8.17188 7.61406 7.85313 7.93281C7.53438 8.25156 7.53438 8.72969 7.85313 9.04844L10.6422 11.8375Z"/>
</mask>
<path d="M22.8344 9.60625C16.4594 10.3234 11.1203 15.4234 10.2438 21.7984C9.44688 27.3766 11.8375 32.7156 16.4594 35.8234C17.7344 36.7 18.6109 39.0906 18.6109 40.9234C18.6109 41.0828 18.6109 46.1828 18.6109 46.1031C18.6109 46.5812 18.9297 46.9 19.4078 46.9H20.0453V48.2547C20.0453 50.3266 21.7188 52 23.7906 52H25.1453C27.2172 52 28.8906 50.3266 28.8906 48.2547V46.9H29.5281C30.0063 46.9 30.325 46.5812 30.325 46.1031C30.325 45.7844 30.325 40.8438 30.325 40.9234C30.325 39.1703 31.2016 36.7 32.4766 35.8234C36.4609 33.1141 38.8516 28.6516 38.8516 23.8703C38.7719 15.5828 31.6 8.57031 22.8344 9.60625ZM28.6516 41.8V45.2266H20.2047V41.8H28.6516ZM27.2969 48.2547C27.2969 49.45 26.3406 50.4062 25.1453 50.4062H23.7906C22.5953 50.4062 21.6391 49.45 21.6391 48.2547V46.9H27.2969V48.2547ZM31.5203 34.4688C29.9266 35.5047 28.8906 38.0547 28.7313 40.2062H25.3047V30.325L27.6953 27.9344C27.8547 28.0141 28.0938 28.0141 28.2531 28.0938C28.3328 28.0938 28.4125 28.0938 28.4125 28.0938C29.6078 28.0938 30.7234 27.1375 30.8031 25.8625C30.8828 25.225 30.6438 24.5875 30.2453 24.1094C29.8469 23.6313 29.2891 23.3125 28.6516 23.3125C28.0141 23.2328 27.3766 23.4719 26.8984 23.8703C26.4203 24.2688 26.1016 24.8266 26.1016 25.4641C26.0219 25.9422 26.1813 26.5 26.4203 26.8984L24.4281 28.8906L22.5156 26.9781C22.7547 26.6594 22.9141 26.2609 22.9141 25.8625C22.9938 24.5078 22.0375 23.3922 20.6828 23.3125C19.3281 23.2328 18.2125 24.1891 18.1328 25.5437C18.0531 26.8187 19.0094 28.0141 20.3641 28.0938C20.4438 28.0938 20.5234 28.0938 20.5234 28.0938C20.7625 28.0938 21.0016 28.0141 21.2406 28.0141L23.6313 30.4047V40.2859H20.125C19.9656 38.1344 18.9297 35.5844 17.3359 34.5484C13.1922 31.7594 11.1203 26.9781 11.7578 22.0375C12.5547 16.3797 17.2563 11.8375 22.9938 11.2C30.8031 10.3234 37.1781 16.4594 37.1781 23.8703C37.1781 28.1734 35.1063 32.1578 31.5203 34.4688ZM27.6953 25.6234C27.6953 25.3844 27.775 25.225 27.9344 25.0656C28.0938 24.9062 28.2531 24.9062 28.4125 24.9062H28.4922C28.7313 24.9062 28.8906 24.9859 29.05 25.1453C29.2094 25.3047 29.2891 25.5438 29.2094 25.7031C29.2094 26.1812 28.8109 26.5 28.3328 26.4203C28.0938 26.4203 27.9344 26.3406 27.775 26.1812C27.6953 26.0219 27.6156 25.7828 27.6953 25.6234ZM21.0813 26.2609C20.9219 26.4203 20.6828 26.5 20.5234 26.4203C20.0453 26.4203 19.7266 26.0219 19.8063 25.5437C19.8063 25.3047 19.8859 25.1453 20.0453 24.9859C20.2047 24.8266 20.3641 24.8266 20.5234 24.8266H20.6031C21.0016 24.8266 21.4 25.225 21.3203 25.7031C21.3203 25.9422 21.2406 26.1016 21.0813 26.2609ZM24.4281 6.57812C24.9063 6.57812 25.225 6.25938 25.225 5.78125V1.79688C25.225 1.31875 24.9063 1 24.4281 1C23.95 1 23.6313 1.31875 23.6313 1.79688V5.78125C23.6313 6.17969 23.95 6.57812 24.4281 6.57812ZM39.8875 7.85313L37.0984 10.6422C36.7797 10.9609 36.7797 11.4391 37.0984 11.7578C37.4172 12.0766 37.8953 12.0766 38.2141 11.7578L41.0031 8.96875C41.3219 8.65 41.3219 8.17188 41.0031 7.85313C40.6844 7.53438 40.2063 7.53438 39.8875 7.85313ZM10.6422 37.0984L7.85313 39.8875C7.53438 40.2062 7.53438 40.6844 7.85313 41.0031C8.17188 41.3219 8.65 41.3219 8.96875 41.0031L11.7578 38.2141C12.0766 37.8953 12.0766 37.4172 11.7578 37.0984C11.4391 36.7797 10.9609 36.7797 10.6422 37.0984ZM47.0594 23.6313H43.075C42.5969 23.6313 42.2781 23.95 42.2781 24.4281C42.2781 24.9062 42.5969 25.225 43.075 25.225H47.0594C47.5375 25.225 47.8563 24.9062 47.8563 24.4281C47.8563 23.95 47.5375 23.6313 47.0594 23.6313ZM5.78125 23.6313H1.79688C1.31875 23.6313 1 23.95 1 24.4281C1 24.9062 1.31875 25.225 1.79688 25.225H5.78125C6.25938 25.225 6.57813 24.9062 6.57813 24.4281C6.57813 23.95 6.17969 23.6313 5.78125 23.6313ZM38.2141 37.0984C37.8953 36.7797 37.4172 36.7797 37.0984 37.0984C36.7797 37.4172 36.7797 37.8953 37.0984 38.2141L39.8875 41.0031C40.2063 41.3219 40.6844 41.3219 41.0031 41.0031C41.3219 40.6844 41.3219 40.2062 41.0031 39.8875L38.2141 37.0984ZM10.6422 11.8375C10.9609 12.1562 11.4391 12.1562 11.7578 11.8375C12.0766 11.5188 12.0766 11.0406 11.7578 10.7219L8.96875 7.93281C8.65 7.61406 8.17188 7.61406 7.85313 7.93281C7.53438 8.25156 7.53438 8.72969 7.85313 9.04844L10.6422 11.8375Z" fill="#292732"/>
<path d="M22.8344 9.60625C16.4594 10.3234 11.1203 15.4234 10.2438 21.7984C9.44688 27.3766 11.8375 32.7156 16.4594 35.8234C17.7344 36.7 18.6109 39.0906 18.6109 40.9234C18.6109 41.0828 18.6109 46.1828 18.6109 46.1031C18.6109 46.5812 18.9297 46.9 19.4078 46.9H20.0453V48.2547C20.0453 50.3266 21.7188 52 23.7906 52H25.1453C27.2172 52 28.8906 50.3266 28.8906 48.2547V46.9H29.5281C30.0063 46.9 30.325 46.5812 30.325 46.1031C30.325 45.7844 30.325 40.8438 30.325 40.9234C30.325 39.1703 31.2016 36.7 32.4766 35.8234C36.4609 33.1141 38.8516 28.6516 38.8516 23.8703C38.7719 15.5828 31.6 8.57031 22.8344 9.60625ZM28.6516 41.8V45.2266H20.2047V41.8H28.6516ZM27.2969 48.2547C27.2969 49.45 26.3406 50.4062 25.1453 50.4062H23.7906C22.5953 50.4062 21.6391 49.45 21.6391 48.2547V46.9H27.2969V48.2547ZM31.5203 34.4688C29.9266 35.5047 28.8906 38.0547 28.7313 40.2062H25.3047V30.325L27.6953 27.9344C27.8547 28.0141 28.0938 28.0141 28.2531 28.0938C28.3328 28.0938 28.4125 28.0938 28.4125 28.0938C29.6078 28.0938 30.7234 27.1375 30.8031 25.8625C30.8828 25.225 30.6438 24.5875 30.2453 24.1094C29.8469 23.6313 29.2891 23.3125 28.6516 23.3125C28.0141 23.2328 27.3766 23.4719 26.8984 23.8703C26.4203 24.2688 26.1016 24.8266 26.1016 25.4641C26.0219 25.9422 26.1813 26.5 26.4203 26.8984L24.4281 28.8906L22.5156 26.9781C22.7547 26.6594 22.9141 26.2609 22.9141 25.8625C22.9938 24.5078 22.0375 23.3922 20.6828 23.3125C19.3281 23.2328 18.2125 24.1891 18.1328 25.5437C18.0531 26.8187 19.0094 28.0141 20.3641 28.0938C20.4438 28.0938 20.5234 28.0938 20.5234 28.0938C20.7625 28.0938 21.0016 28.0141 21.2406 28.0141L23.6313 30.4047V40.2859H20.125C19.9656 38.1344 18.9297 35.5844 17.3359 34.5484C13.1922 31.7594 11.1203 26.9781 11.7578 22.0375C12.5547 16.3797 17.2563 11.8375 22.9938 11.2C30.8031 10.3234 37.1781 16.4594 37.1781 23.8703C37.1781 28.1734 35.1063 32.1578 31.5203 34.4688ZM27.6953 25.6234C27.6953 25.3844 27.775 25.225 27.9344 25.0656C28.0938 24.9062 28.2531 24.9062 28.4125 24.9062H28.4922C28.7313 24.9062 28.8906 24.9859 29.05 25.1453C29.2094 25.3047 29.2891 25.5438 29.2094 25.7031C29.2094 26.1812 28.8109 26.5 28.3328 26.4203C28.0938 26.4203 27.9344 26.3406 27.775 26.1812C27.6953 26.0219 27.6156 25.7828 27.6953 25.6234ZM21.0813 26.2609C20.9219 26.4203 20.6828 26.5 20.5234 26.4203C20.0453 26.4203 19.7266 26.0219 19.8063 25.5437C19.8063 25.3047 19.8859 25.1453 20.0453 24.9859C20.2047 24.8266 20.3641 24.8266 20.5234 24.8266H20.6031C21.0016 24.8266 21.4 25.225 21.3203 25.7031C21.3203 25.9422 21.2406 26.1016 21.0813 26.2609ZM24.4281 6.57812C24.9063 6.57812 25.225 6.25938 25.225 5.78125V1.79688C25.225 1.31875 24.9063 1 24.4281 1C23.95 1 23.6313 1.31875 23.6313 1.79688V5.78125C23.6313 6.17969 23.95 6.57812 24.4281 6.57812ZM39.8875 7.85313L37.0984 10.6422C36.7797 10.9609 36.7797 11.4391 37.0984 11.7578C37.4172 12.0766 37.8953 12.0766 38.2141 11.7578L41.0031 8.96875C41.3219 8.65 41.3219 8.17188 41.0031 7.85313C40.6844 7.53438 40.2063 7.53438 39.8875 7.85313ZM10.6422 37.0984L7.85313 39.8875C7.53438 40.2062 7.53438 40.6844 7.85313 41.0031C8.17188 41.3219 8.65 41.3219 8.96875 41.0031L11.7578 38.2141C12.0766 37.8953 12.0766 37.4172 11.7578 37.0984C11.4391 36.7797 10.9609 36.7797 10.6422 37.0984ZM47.0594 23.6313H43.075C42.5969 23.6313 42.2781 23.95 42.2781 24.4281C42.2781 24.9062 42.5969 25.225 43.075 25.225H47.0594C47.5375 25.225 47.8563 24.9062 47.8563 24.4281C47.8563 23.95 47.5375 23.6313 47.0594 23.6313ZM5.78125 23.6313H1.79688C1.31875 23.6313 1 23.95 1 24.4281C1 24.9062 1.31875 25.225 1.79688 25.225H5.78125C6.25938 25.225 6.57813 24.9062 6.57813 24.4281C6.57813 23.95 6.17969 23.6313 5.78125 23.6313ZM38.2141 37.0984C37.8953 36.7797 37.4172 36.7797 37.0984 37.0984C36.7797 37.4172 36.7797 37.8953 37.0984 38.2141L39.8875 41.0031C40.2063 41.3219 40.6844 41.3219 41.0031 41.0031C41.3219 40.6844 41.3219 40.2062 41.0031 39.8875L38.2141 37.0984ZM10.6422 11.8375C10.9609 12.1562 11.4391 12.1562 11.7578 11.8375C12.0766 11.5188 12.0766 11.0406 11.7578 10.7219L8.96875 7.93281C8.65 7.61406 8.17188 7.61406 7.85313 7.93281C7.53438 8.25156 7.53438 8.72969 7.85313 9.04844L10.6422 11.8375Z" stroke="#40BCF2" stroke-width="2" mask="url(#path-1-outside-1_161_10457)"/>
</svg>
