<svg xmlns="http://www.w3.org/2000/svg" width="30" height="30" fill="none"><circle cx="15" cy="15" r="15" fill="#fff"/><path fill="#000" fill-rule="evenodd" d="M10.334 6.125a4.21 4.21 0 0 0-4.209 4.21v9.418a4.21 4.21 0 0 0 4.21 4.21h9.418a4.21 4.21 0 0 0 4.21-4.21v-9.419a4.21 4.21 0 0 0-4.21-4.209zm-5.209 4.21a5.21 5.21 0 0 1 5.21-5.21h9.418a5.21 5.21 0 0 1 5.21 5.21v9.418a5.21 5.21 0 0 1-5.21 5.21h-9.419a5.21 5.21 0 0 1-5.209-5.21zm10.439 1.436a3.267 3.267 0 1 0-.959 6.463 3.267 3.267 0 0 0 .959-6.463m-2.445-.556a4.267 4.267 0 1 1 3.93 7.574 4.267 4.267 0 0 1-3.93-7.574m7.105-1.852a.5.5 0 1 0 0 1h.01a.5.5 0 1 0 0-1z" clip-rule="evenodd"/></svg>