<svg width="30" height="30" viewBox="0 0 30 30" fill="none" xmlns="http://www.w3.org/2000/svg">
<circle cx="15" cy="15" r="15" fill="white"/>
<g clip-path="url(#clip0_4506_9776)">
<mask id="mask0_4506_9776" style="mask-type:luminance" maskUnits="userSpaceOnUse" x="6" y="5" width="19" height="19">
<path d="M25 5H6V24H25V5Z" fill="white"/>
</mask>
<g mask="url(#mask0_4506_9776)">
<path fill-rule="evenodd" clip-rule="evenodd" d="M6.39584 10.5418C6.39584 10.3232 6.57306 10.146 6.79167 10.146H9.95834C10.1769 10.146 10.3542 10.3232 10.3542 10.5418V23.2085C10.3542 23.4271 10.1769 23.6043 9.95834 23.6043H6.79167C6.57306 23.6043 6.39584 23.4271 6.39584 23.2085V10.5418ZM7.1875 10.9377V22.8127H9.5625V10.9377H7.1875ZM11.9375 10.5418C11.9375 10.3232 12.1147 10.146 12.3333 10.146H15.5C15.7186 10.146 15.8958 10.3232 15.8958 10.5418V11.3981C16.6296 11.1011 17.4315 10.9377 18.2708 10.9377C21.7687 10.9377 24.6042 13.7732 24.6042 17.271V23.2085C24.6042 23.4271 24.4269 23.6043 24.2083 23.6043H21.0417C20.8231 23.6043 20.6458 23.4271 20.6458 23.2085V18.0627C20.6458 16.751 19.5825 15.6877 18.2708 15.6877C16.9591 15.6877 15.8958 16.751 15.8958 18.0627V23.2085C15.8958 23.4271 15.7186 23.6043 15.5 23.6043H12.3333C12.1147 23.6043 11.9375 23.4271 11.9375 23.2085V10.5418ZM12.7292 10.9377V22.8127H15.1042V18.0627C15.1042 16.3138 16.522 14.896 18.2708 14.896C20.0197 14.896 21.4375 16.3138 21.4375 18.0627V22.8127H23.8125V17.271C23.8125 14.2104 21.3314 11.7293 18.2708 11.7293C17.3361 11.7293 16.4566 11.9604 15.685 12.3683C15.5623 12.4331 15.4146 12.429 15.2958 12.3574C15.1768 12.2858 15.1042 12.1571 15.1042 12.0183V10.9377H12.7292ZM8.375 6.18766C7.71916 6.18766 7.1875 6.71932 7.1875 7.37516C7.1875 8.031 7.71916 8.56266 8.375 8.56266C9.03084 8.56266 9.5625 8.031 9.5625 7.37516C9.5625 6.71932 9.03084 6.18766 8.375 6.18766ZM6.39584 7.37516C6.39584 6.2821 7.28194 5.396 8.375 5.396C9.46806 5.396 10.3542 6.2821 10.3542 7.37516C10.3542 8.46822 9.46806 9.35433 8.375 9.35433C7.28194 9.35433 6.39584 8.46822 6.39584 7.37516Z" fill="black"/>
</g>
</g>
<defs>
<clipPath id="clip0_4506_9776">
<rect width="19" height="19" fill="white" transform="translate(6 5)"/>
</clipPath>
</defs>
</svg>
