<svg xmlns="http://www.w3.org/2000/svg" width="316" height="97" fill="none"><path fill="url(#a)" d="M17.841 51.995c.148-3.021.297-6.163 1.894-9.012 3.081-5.507 10.002-8.037 11.87-8.719 1.824-.664 9.27-3.28 16.88-.604 8.03 2.823 10.282 9.444 10.858 11.136 2.915 8.554-2.042 16.419-3.002 17.877a27 27 0 0 0-5.822-14.796c-2.2-2.762-5.08-5.222-8.85-6.258s-8.536-.406-11.678 2.219c-6.128 5.119-3.448 14.545-9.776 19.474-2.645 2.055-12.49 5.395-12.49 5.395s2.645-2.408 5.726-5.067c3.971-3.427 4.163-7.07 4.381-11.654z"/><path fill="url(#b)" d="M5.264 45.15c-.026.336-.026.673-.026.673 0 .259.008.475.026.63v.052c0 .7 0 1.39-.053 2.089 0 0-.078.993-.349 1.96-.567 1.933-4.931 3.478-4.861 3.642.087.199 6.546-.958 8.449-4.678.445-.872.323-1.243.645-2.452.49-1.795 1.624-4.057 4.207-6.578.611-.915 1.51-2.15 2.741-3.513 0 0 4.626-4.964 10.91-8.08 10.081-4.99 23.27-4.92 30.461 1.537 5.935 5.291 7 13.527 7.794 21.235 3.186-7.035 5.639-14.735 3.509-21.52-1.824-5.732-6.895-10.212-13.232-12.362-8.929-3.03-17.29-.984-20.86-.043-11.503 3.047-18.207 9.988-21.532 13.432 0 0-7.314 7.58-7.855 13.967z"/><path fill="url(#c)" d="M9.942 9.11c-.393.198.218 4.23 3.666 7.096 3.29 2.745 8.615 4.04 13.59 2.909 5.175-1.183 8.902-5.473 13.624-7.899 6.45-3.315 14.48-2.77 20.136.371 5.647 3.142 9.138 8.512 10.918 14.252 1.79 5.74 2.034 11.896 2.278 17.999 3.239-1.822 5.43-4.86 6.616-7.968 1.187-3.108 1.484-6.31 1.78-9.478.21-2.305 0-3.548-.043-3.868-.366-2.986-1.405-5.058-2.112-6.43-.375-.734-2.051-3.894-5.28-6.924-2.566-2.408-9.147-7.406-19.996-8.9-7.699-1.061-16.776.984-22.362 6.5-2.365 2.34-2.653 4.8-6.266 6.975-1.1.665-5.002 2.815-8.842 2.124-5.438-.976-7.21-7.027-7.698-6.785z"/><path fill="url(#d)" d="M88.512 54.852c.594-2.503.777-5.162-.471-7.294-.68-1.105-1.527-2.02-3.002-2.34-.943-.206-2.13-.578-3.134-.552-2.234.06-4.381.622-6.459 1.571-.977.45-1.798 1.097-2.67 1.675-.367.242-.725.5-1.074.76-2.941 2.244-5.071 5.119-7.14 7.933-2.557 3.487-5.228 7.104-9.181 9.409-3.954 2.314-9.532-.224-12.35-2.96.88 4.755 4.31 10.185 8.823 10.608 6.154.57 11.53-3.669 12.77-4.92 3.849-3.91 5.516-8.261 5.516-8.261.724-1.89 1.623-4.714 4.486-7.062.305-.25.654-.474 1.039-.69.026-.009.06-.043.087-.052.192-.138.384-.259.602-.345.21-.104.419-.181.637-.25.035.008.053 0 .07-.026 1.527-.57 3.194-.984 4.582-.596 2.697.76 5.307 1.39 6.87 3.384z"/><path fill="url(#e)" d="M89.14 64.408c-1.928-2.978-4.31-6.258-9.207-5.533-1.825.268-3.527 1.114-4.923 2.305-3.753 3.194-4.757 7.407-5.796 11.438-.82 3.194-1.789 6.517-4.18 9.21-3.29 3.704-8.964 5.577-13.939 5.102a17.06 17.06 0 0 1-11.853-6.517c-2.662-3.462-3.875-7.726-4.224-12.06-.245-3.073-.026-6.362 1.798-9.245s5.62-5.18 9.103-4.696c-2.356-1.95-6.371-2.08-9.644-.708-3.273 1.382-5.787 4.049-7.218 6.923-1.423 2.884-1.86 5.965-1.886 8.96-.052 5.836 1.432 11.577 4.792 16.281 3.36 4.705 8.676 8.322 15.065 9.634 6.38 1.303 13.816.173 19.655-3.436 5.84-3.6 9.82-9.711 9.619-15.52-.061-1.805-.498-3.574-.123-5.396.585-2.805 3.256-5.412 6.442-6.284s6.686.043 8.422 2.21"/><path fill="#fff" d="M127.457 46.842c-2.645-3.047-5.263-5.732-7.733-7.89-2.147-1.873-4.434-3.824-6.223-5.206l1.213-3.996c3.256-.535 5.9-1.839 5.9-3.928 0-1.062-1.178-2.193-3.116-2.193-2.33 0-4.111.605-4.294 2.728-.428 4.886-.681 12.103.183 17.662l-8.806 1.554a536 536 0 0 1 .611-15.184c.183-3.505.323-6.51 1.003-11.395 5.229-.32 8.728-.57 11.487-.639 7.296-.32 10.988 2.158 10.988 6.198s-3.29 6.155-5.114 7.217c-.358.215-.821.457-.856.638-.035.285.428.64.611.812 3.256 2.728 5.691 4.532 9.051 6.724l-4.905 6.906zm6.188-1.735c.183-6.224.288-10.584.288-14.157 0-1.666-.105-5.914-.427-12.422h8.658c-.14 3.4-.253 8.105-.218 11.576 0 4.281.104 7.044.462 13.518zm34.607-12.388c-2.042 4.032-3.151 6.544-5.726 11.895-2.897.355-4.687.458-7.052.458-2.505-5.274-3.648-7.501-5.507-11.257-1.894-3.893-3.404-7.328-5.866-12.214 2.217-1.347 5.438-2.935 7.978-3.859 1.65 4.178 2.575 6.76 4.111 10.8.82 2.123 1.536 3.961 2.4 5.878.428.958.646 1.13.855 1.13.253 0 .428-.284.751-1.061.786-1.804 1.824-4.498 2.61-6.621 1.396-3.712 2.007-5.447 3.578-10.014l7.908 2.866c-2.723 5.059-4.225 8.39-6.049 12zm28.227 11.818c-3.649-.07-6.66-.07-9.523 0-3.185.103-5.01.216-11.809.708.498-6.224.611-9.807.646-13.872 0-3.86-.035-7.217-.393-12.673 5.01-.034 7.515-.034 10.203-.103 2.217-.035 4.155-.138 8.013-.354l1.536 6.267c-2.898-.25-5.045-.354-7.332-.32-1.536 0-2.967.07-4.041.139v3.824c.576.034 2.47-.035 3.151-.07 1.754-.068 5.01-.388 6.834-.742l2.505 5.628c-5.228.104-7.942.216-10.378.355-1.789.103-2.286.673-2.286 1.484 0 .812.035 2.09.104 2.797.07.958.821 1.381 3.186 1.347 2.863-.07 6.223-.57 11.705-1.951l-2.113 7.536zm27.092 2.305c-2.645-3.047-5.263-5.732-7.734-7.89-2.147-1.873-4.433-3.824-6.223-5.206l1.214-3.996c3.255-.535 5.9-1.839 5.9-3.928 0-1.062-1.179-2.193-3.116-2.193-2.331 0-4.111.605-4.294 2.728-.428 4.886-.681 12.103.183 17.662l-8.807 1.554c.184-6.725.393-11.075.611-15.184.184-3.505.323-6.51 1.004-11.395 5.228-.32 8.728-.57 11.486-.639 7.297-.32 10.989 2.158 10.989 6.198s-3.291 6.155-5.115 7.217c-.358.215-.82.457-.855.638-.035.285.427.64.611.812 3.255 2.728 5.69 4.532 9.051 6.724l-4.905 6.906zm24.403-1.416c-12.699-.32-20.039-5.17-19.821-13.941.139-6.863 7.157-13.164 20.144-13.45l1.65 6.656c-4.434.181-6.616.742-8.266 1.312-3.185 1.027-5.228 3.151-5.437 5.525-.288 2.935 2.112 4.782 5.01 5.879 1.649.604 5.044 1.45 9.592 1.45l-2.863 6.578zm4.94-.32c.184-6.223.288-10.583.288-14.156 0-1.666-.104-5.914-.427-12.422h8.658c-.14 3.4-.253 8.105-.218 11.576 0 4.281.104 7.044.462 13.518zm33.708-20.596c-3.081-.07-4.905-.035-6.616 0-.07 1.977-.104 4.67-.183 7.01-.035 3.996.035 7.009.463 12.56l-8.842 1.165c.253-6.898.323-9.556.463-13.769.104-2.65.104-4.109.104-5.663 0-.846-.785-1.269-1.396-1.269-1.606 0-3.614.182-5.298.389l-1.65-6.267c6.8.354 9.016.354 12.307.354 3.29 0 5.542 0 12.699-.492l-2.077 5.982zm22.117 4.6a39 39 0 0 0-3.186 4.636c-.035.846-.035 2.797.035 4.317.07 1.346.428 3.996.821 5.731l-9.304 1.347c.253-2.123.392-4.497.462-6.405.07-1.666.035-3.54-.035-4.67-.785-1.278-2.112-3.013-3.578-4.852-2.435-3.081-3.971-4.566-6.764-7.535l7.837-3.756c1.571 2.09 2.47 3.358 4.364 6.268.463.707 1.362 2.192 2.043 3.254.253.388.358.535.611.535.218 0 .323-.181.576-.57.715-1.165 1.684-2.797 2.112-3.47 1.143-1.77 2.863-4.385 4.006-5.8l7.262 3.116c-3.509 3.332-4.652 4.635-7.262 7.855M114.443 70.849c.48 0 .961.31.961 1.08 0 5.032-2.008 8.7-5.822 8.7-3.491 0-6.101-2.58-6.101-10.937 0-8.977 3.055-13.975 7.07-13.975 3.055 0 4.46 2.52 4.46 5.973 0 1.925-.48 3.073-1.65 3.073-.558 0-1.126-.388-1.126-1.044 0-.596.122-1.157.122-1.606 0-2.58-.602-3.772-1.928-3.772-2.087 0-3.492 3.427-3.492 10.695s1.65 9.263 3.169 9.263c1.361 0 3.089-1.502 3.29-6.362.044-.665.48-1.08 1.047-1.08zm15.781-13.7c0-.871.358-1.82 1.885-1.82h1.248c5.019 0 8.187 1.993 8.187 6.5 0 4.505-4.093 7.622-5.577 8.286v.138c5.42 1.157 3.77 8.313 5.699 8.313.48 0 .882-.906.96-1.855.079-.596.201-1.01.76-1.01.646 0 .759.63.759 1.113 0 2.167-1.047 4.23-3.334 4.23s-3.055-1.675-3.456-3.324c-.646-2.762-.725-6.042-3.893-6.189v7.726c0 1.01-.759 1.502-1.65 1.502s-1.606-.526-1.606-1.502V57.14zm3.247 12.13c2.33-.907 4.495-3.877 4.495-7.373s-2.654-4.299-4.495-4.299zm32.005 12.197h-6.345c-.96 0-1.728-.492-1.728-1.753V57.675c0-1.26.768-1.743 1.728-1.743h6.345c1.004 0 1.406.63 1.406 1.26 0 .596-.402 1.191-1.406 1.191h-4.817v10.342h3.857c.926 0 1.327.56 1.327 1.113 0 .596-.401 1.191-1.327 1.191h-3.857v8.003h4.817c1.004 0 1.406.595 1.406 1.19 0 .631-.402 1.261-1.406 1.261zm14.332-.769 4.137-22.711c.244-1.399.96-2.098 2.165-2.098 1.204 0 1.929.768 2.129 2.063l3.535 21.978c.323 2.098-2.932 2.659-3.334.276l-.559-3.738h-4.494l-.725 4.541c-.323 1.994-3.212 1.64-2.854-.31m3.936-6.569h3.815L185.83 62.19h-.244l-1.85 11.947zm30.069-17.334c1.003 0 1.361.63 1.361 1.26 0 .596-.358 1.192-1.361 1.192h-3.012v20.269c0 1.044-.846 1.502-1.649 1.502s-1.65-.492-1.65-1.502v-20.27h-3.011c-1.004 0-1.362-.595-1.362-1.19 0-.63.358-1.26 1.362-1.26h9.322m15.178 24.076c-.882 0-1.248-.561-1.248-1.114 0-.552.357-1.079 1.248-1.079h2.208V58.141h-2.086c-.925 0-1.248-.56-1.248-1.113 0-.527.323-1.08 1.248-1.08h7.471c.882 0 1.248.562 1.248 1.08 0 .56-.358 1.113-1.248 1.113h-2.13v20.545h2.453c.882 0 1.248.527 1.248 1.08 0 .552-.358 1.113-1.248 1.113h-7.916m31.15-22.401c.279-1.925 3.134-1.606 2.767.276l-3.858 20.752c-.279 1.399-1.047 2.098-2.252 2.098s-1.885-.768-2.086-2.063l-3.77-22.435c-.358-2.098 2.889-2.66 3.255-.277l3.012 19.397h.244zm25.495 21.77h-6.302c-.96 0-1.728-.491-1.728-1.743V56.838c0-1.26.768-1.752 1.728-1.752h6.223c1.004 0 1.362.63 1.362 1.26 0 .596-.358 1.191-1.362 1.191h-4.695v11.464h3.735c.925 0 1.283.596 1.283 1.157 0 .595-.358 1.19-1.283 1.19h-3.735v6.466h4.774c1.004 0 1.405.596 1.405 1.192 0 .63-.401 1.26-1.405 1.26zm22.571-17.61c0-.31.122-.975.122-1.467 0-1.925-.925-2.9-2.13-2.9-1.126 0-2.164.872-2.164 2.624 0 4.54 7.026 9.012 7.026 15.409 0 3.772-2.409 5.42-5.176 5.42-3.378 0-4.739-2.589-4.739-5.524 0-1.226.323-3.565 1.649-3.565.681 0 1.083.423 1.083 1.114 0 .492-.245 1.19-.245 2.166 0 1.433.402 3.177 2.13 3.177 1.405 0 2.086-1.191 2.086-2.762 0-4.964-6.869-9.16-6.869-15.098 0-3.427 2.287-5.525 5.141-5.525 1.806 0 4.617.872 4.695 5.309 0 1.226-.357 2.728-1.448 2.728-.681 0-1.161-.346-1.161-1.114z"/><defs><linearGradient id="a" x1="7.734" x2="60.26" y1="50.597" y2="50.597" gradientUnits="userSpaceOnUse"><stop stop-color="#47B978"/><stop offset="1" stop-color="#0096C1"/></linearGradient><linearGradient id="b" x1=".001" x2="69.529" y1="35.205" y2="35.205" gradientUnits="userSpaceOnUse"><stop stop-color="#47B978"/><stop offset="1" stop-color="#0096C1"/></linearGradient><linearGradient id="c" x1="9.837" x2="82.629" y1="21.929" y2="21.929" gradientUnits="userSpaceOnUse"><stop stop-color="#47B978"/><stop offset="1" stop-color="#0096C1"/></linearGradient><linearGradient id="d" x1="43.03" x2="88.975" y1="59.194" y2="59.194" gradientUnits="userSpaceOnUse"><stop stop-color="#47B978"/><stop offset="1" stop-color="#0096C1"/></linearGradient><linearGradient id="e" x1="27.171" x2="91.035" y1="74.405" y2="74.405" gradientUnits="userSpaceOnUse"><stop stop-color="#47B978"/><stop offset="1" stop-color="#0096C1"/></linearGradient></defs></svg>