<svg width="20" height="25" viewBox="0 0 20 25" fill="none" xmlns="http://www.w3.org/2000/svg">
<g clip-path="url(#clip0_2482_33412)">
<path d="M16.6202 13.214C16.6202 11.1538 17.7164 9.35661 19.3427 8.40476C18.4935 7.33439 17.2161 6.37513 15.8079 6.09365C13.8877 5.70939 12.7924 6.3492 12.0838 6.60568C11.3752 6.86216 10.434 7.09272 10.434 7.09272C10.434 7.09272 9.49375 6.86216 8.78426 6.60568C8.07657 6.3492 6.98124 5.70846 5.06102 6.09272C3.1408 6.47698 1.464 8.12235 0.782454 9.58902C-0.531947 12.4196 0.00895865 15.9807 0.937514 18.5418C1.86517 21.1038 4.31818 24.6835 6.22036 24.9714C7.57353 25.1761 8.41103 24.2159 10.434 23.9723C12.457 24.2159 13.2945 25.1761 14.6477 24.9714C16.5499 24.6835 19.0029 21.1038 19.9305 18.5418C19.9531 18.4788 19.9765 18.414 19.999 18.3492C18.0184 17.5325 16.6202 15.5409 16.6202 13.214ZM9.95352 5.62513C9.95352 5.62513 11.835 5.88161 13.5433 3.88902C15.2517 1.89642 14.7658 0.0112386 14.7658 0.0112386C14.7658 0.0112386 12.8843 -0.245243 11.176 1.74735C9.4676 3.73994 9.95352 5.62513 9.95352 5.62513Z" fill="black"/>
</g>
<defs>
<clipPath id="clip0_2482_33412">
<rect width="20" height="25" fill="white"/>
</clipPath>
</defs>
</svg>
