<svg width="247" height="142" viewBox="0 0 247 142" fill="none" xmlns="http://www.w3.org/2000/svg">
<path d="M212.741 51.1782C204.034 36.6225 188.467 26.8948 170.649 26.8948C165.826 26.8948 161.186 27.6799 156.753 28.9592C146.183 11.5959 127.467 0 106.059 0C76.9724 0 52.7118 21.4081 47.3386 49.7554C46.4696 49.6962 45.6158 49.5907 44.7213 49.5907C20.0282 49.5907 0 70.2303 0 95.6433C0 121.088 20.0282 141.721 44.7213 141.721H201.371C226.084 141.721 246.115 121.088 246.115 95.6433C246.115 74.2667 231.958 56.3333 212.741 51.1782Z" fill="#FDFDFD"/>
<path d="M213.391 51.1784C204.684 36.6227 189.117 26.8949 171.3 26.8949C166.477 26.8949 161.836 27.6801 157.403 28.9594C146.833 11.596 128.118 0.00012207 106.709 0.00012207C77.6228 0.00012207 53.3622 21.4083 47.9889 49.7555C47.12 49.6963 46.2662 49.5908 45.3717 49.5908C20.6785 49.5908 0.650391 70.2304 0.650391 95.6434C0.650391 121.088 20.6785 141.721 45.3717 141.721H202.022C226.734 141.721 246.765 121.088 246.765 95.6434C246.765 74.2668 232.608 56.3334 213.391 51.1784Z" fill="url(#paint0_linear_330_3604)"/>
<mask id="mask0_330_3604" style="mask-type:luminance" maskUnits="userSpaceOnUse" x="151" y="85" width="70" height="57">
<path d="M151.69 141.677H220.791V85.2965H151.69V141.677Z" fill="white"/>
</mask>
<g mask="url(#mask0_330_3604)">
<path d="M216.923 109.606C217.768 109.281 218.302 107.859 216.697 106.147C215.089 104.436 211.809 97.9929 211.809 97.9929C210.793 98.3839 204.914 96.3889 203.856 95.8832C202.796 95.3816 202.566 103.577 201.462 104.002C200.361 104.425 202.298 96.3846 201.735 94.877C201.172 93.3694 197.967 93.0842 195.765 93.9312C193.563 94.7783 195.922 111.468 194.906 111.859C193.889 112.25 192.583 94.7496 191.642 94.3001C190.699 93.8517 188.353 93.5371 184.521 95.7209C180.687 97.9058 189.691 115.014 188.816 117.075C187.94 119.136 181.7 98.0232 181.501 97.4911C181.303 96.959 176.753 100.332 175.668 102.876C174.583 105.423 184.119 121.616 183.346 123.435C182.573 125.254 174.87 107.743 174.176 105.884C173.48 104.022 171.806 104.463 169.485 112.249C168.841 114.397 169.301 116.306 170.283 117.963C164.322 124.059 170.264 135.574 174.608 137.642C175.352 137.999 176.152 138.221 176.971 138.298C177.685 138.361 178.403 138.316 179.103 138.164C179.537 138.076 179.963 137.95 180.376 137.79C180.295 137.895 180.217 137.996 180.139 138.1L181.913 137.989L181.693 140.167C181.83 141.067 182.117 142.184 182.635 143.57C185.052 150.041 201.759 146.059 198.474 144.496C195.192 142.932 189.698 136.296 190.968 135.808C192.238 135.319 197.367 142.566 201.383 142.947C205.4 143.329 207.694 137.278 207.694 137.278C207.694 137.278 193.938 132.992 194.581 131.477C195.227 129.96 208.601 137.639 211.538 137.723C214.478 137.809 217.215 130.877 217.215 130.877C217.215 130.877 196.014 127.785 195.877 125.911C195.741 124.039 216.056 130.109 218.213 128.366C220.371 126.624 220.568 120.669 220.568 120.669C220.568 120.669 200.437 121.219 200.549 119.451C200.666 117.685 217.937 120.366 219.804 119.14C221.672 117.915 218.371 112.19 217.975 111.129C217.577 110.065 206.031 112.731 204.561 112.032C203.087 111.332 216.075 109.932 216.923 109.606ZM178.77 125.703C178.332 126.733 172.939 124.095 172.434 121.449C172.357 121.049 172.244 120.657 172.097 120.278C175.009 123.258 179.028 125.1 178.77 125.703Z" fill="url(#paint1_linear_330_3604)"/>
</g>
<path d="M189.409 72.1434H173.376V73.8782H189.409V72.1434Z" fill="#FDFDFD"/>
<path d="M184.642 75.6843H173.376V77.4049H184.642V75.6843Z" fill="#FDFDFD"/>
<path d="M194.05 79.2107H173.376V80.9454H194.05V79.2107Z" fill="#FDFDFD"/>
<path d="M202.299 82.7513H173.376V84.4719H202.299V82.7513Z" fill="#FDFDFD"/>
<path d="M190.549 59.5592H173.376V62.0476H190.549V59.5592Z" fill="#FDFDFD"/>
<path d="M196.708 62.7302H173.376V63.5123H196.708V62.7302Z" fill="#FDFDFD"/>
<g style="mix-blend-mode:multiply" opacity="0.55">
<path fill-rule="evenodd" clip-rule="evenodd" d="M213.601 26.6396H154.232C153.976 26.6396 153.722 26.6909 153.486 26.7904C153.249 26.89 153.034 27.0359 152.852 27.2198C152.671 27.4037 152.527 27.6221 152.429 27.8624C152.331 28.1027 152.281 28.3602 152.281 28.6204V65.6822C152.281 66.1905 152.379 66.6938 152.571 67.1633C152.763 67.6329 153.044 68.0595 153.398 68.4189C153.752 68.7783 154.172 69.0633 154.635 69.2578C155.098 69.4523 155.593 69.5524 156.094 69.5524H211.739C212.24 69.5524 212.736 69.4523 213.199 69.2578C213.661 69.0633 214.082 68.7783 214.436 68.4189C214.79 68.0595 215.071 67.6329 215.262 67.1633C215.454 66.6938 215.553 66.1905 215.553 65.6822V28.6204C215.553 28.3602 215.502 28.1027 215.404 27.8624C215.306 27.6221 215.162 27.4037 214.981 27.2198C214.8 27.0359 214.585 26.89 214.348 26.7904C214.111 26.6909 213.857 26.6396 213.601 26.6396Z" fill="#C9C9C9"/>
</g>
<path fill-rule="evenodd" clip-rule="evenodd" d="M152.932 25.3196H212.3C212.557 25.3196 212.81 25.3708 213.047 25.4704C213.284 25.5699 213.499 25.7158 213.68 25.8997C213.862 26.0836 214.005 26.302 214.103 26.5423C214.201 26.7826 214.252 27.0402 214.252 27.3003V30.9127H150.98V27.3003C150.98 27.0402 151.03 26.7826 151.129 26.5423C151.227 26.302 151.37 26.0836 151.552 25.8997C151.733 25.7158 151.948 25.5699 152.185 25.4703C152.422 25.3708 152.675 25.3196 152.932 25.3196Z" fill="#7087EE"/>
<path fill-rule="evenodd" clip-rule="evenodd" d="M150.98 30.913H214.252V64.3624C214.252 65.3888 213.85 66.3732 213.135 67.099C212.42 67.8248 211.45 68.2326 210.438 68.2326H154.793C153.782 68.2326 152.812 67.8248 152.097 67.099C151.382 66.3732 150.98 65.3888 150.98 64.3624V30.913Z" fill="#FDFDFD"/>
<path fill-rule="evenodd" clip-rule="evenodd" d="M176.068 39.6372H197.954C198.402 39.6385 198.83 39.8196 199.147 40.1408C199.463 40.462 199.642 40.8973 199.643 41.3516V55.463C199.642 55.9172 199.463 56.3525 199.147 56.6737C198.83 56.995 198.402 57.176 197.954 57.1774H176.068C175.62 57.176 175.191 56.995 174.875 56.6737C174.558 56.3525 174.38 55.9172 174.378 55.463V41.3516C174.38 40.8973 174.558 40.462 174.875 40.1408C175.191 39.8196 175.62 39.6385 176.068 39.6372Z" fill="#A3C5D4"/>
<path fill-rule="evenodd" clip-rule="evenodd" d="M174.609 38.2312H197.551C198.019 38.2345 198.467 38.4255 198.798 38.7627C199.128 39.0999 199.314 39.5559 199.314 40.0313V54.8177C199.313 55.292 199.127 55.7467 198.797 56.082C198.466 56.4174 198.018 56.6062 197.551 56.6071H174.609C174.14 56.6085 173.689 56.4207 173.357 56.0852C173.024 55.7496 172.836 55.2937 172.835 54.8177V40.0313C172.836 39.5542 173.023 39.0969 173.356 38.7596C173.688 38.4222 174.139 38.2322 174.609 38.2312Z" fill="#2B41A3"/>
<path d="M161.242 41.842H153.218V43.1492H161.242V41.842Z" fill="#A3C5D4"/>
<path d="M158.856 44.5103H153.218V45.8068H158.856V44.5103Z" fill="#3B4EA4"/>
<path d="M163.565 47.1675H153.218V48.4747H163.565V47.1675Z" fill="#A3C5D4"/>
<path d="M167.693 49.8354H153.218V51.132H167.693V49.8354Z" fill="#3B4EA4"/>
<path d="M161.812 32.3594H153.218V34.2345H161.812V32.3594Z" fill="#3B4EA4"/>
<path d="M164.895 34.7487H153.218V35.338H164.895V34.7487Z" fill="#A3C5D4"/>
<path fill-rule="evenodd" clip-rule="evenodd" d="M200.728 27.3235C200.831 27.1417 200.969 26.9824 201.132 26.8545C201.296 26.7267 201.483 26.6329 201.683 26.5785C201.883 26.5241 202.091 26.5102 202.296 26.5375C202.501 26.5649 202.698 26.633 202.877 26.7379C203.056 26.8428 203.213 26.9825 203.339 27.149C203.465 27.3154 203.557 27.5054 203.61 27.7081C203.664 27.9108 203.677 28.1221 203.65 28.3301C203.623 28.538 203.555 28.7385 203.452 28.92C203.243 29.286 202.899 29.553 202.497 29.6621C202.094 29.7713 201.665 29.7138 201.304 29.5023C200.943 29.2907 200.68 28.9425 200.572 28.5339C200.464 28.1254 200.52 27.6901 200.728 27.3235ZM208.963 27.3235C209.066 27.1417 209.204 26.9824 209.367 26.8545C209.531 26.7267 209.718 26.6329 209.918 26.5785C210.118 26.5241 210.326 26.5102 210.531 26.5375C210.736 26.5649 210.933 26.633 211.112 26.7379C211.291 26.8428 211.448 26.9825 211.574 27.149C211.7 27.3154 211.792 27.5054 211.845 27.7081C211.899 27.9108 211.912 28.1221 211.885 28.3301C211.858 28.538 211.79 28.7385 211.687 28.92C211.476 29.2854 211.131 29.5513 210.727 29.6597C210.324 29.7681 209.895 29.7102 209.533 29.4986C209.354 29.3946 209.197 29.2556 209.072 29.0897C208.946 28.9237 208.854 28.7341 208.801 28.5318C208.748 28.3295 208.735 28.1186 208.763 27.9112C208.79 27.7038 208.859 27.504 208.963 27.3235ZM204.845 27.3235C204.949 27.1417 205.086 26.9824 205.25 26.8545C205.414 26.7267 205.601 26.6329 205.801 26.5785C206 26.5241 206.208 26.5102 206.413 26.5375C206.618 26.5649 206.816 26.633 206.995 26.7379C207.174 26.8428 207.331 26.9825 207.457 27.149C207.582 27.3154 207.675 27.5054 207.728 27.7081C207.781 27.9108 207.795 28.1221 207.767 28.3301C207.74 28.538 207.673 28.7385 207.569 28.92C207.361 29.286 207.017 29.553 206.614 29.6621C206.212 29.7713 205.783 29.7138 205.422 29.5023C205.061 29.2907 204.798 28.9425 204.689 28.5339C204.581 28.1254 204.637 27.6901 204.845 27.3235Z" fill="#FDFDFD"/>
<path d="M175.58 48.2068V46.7818L183.012 43.3102V44.8424L177.121 47.4997L183.012 50.1998V51.7213L175.58 48.2068ZM183.899 53.8429L187.172 41.0065H188.291L185.008 53.8429H183.899ZM196.59 48.2068L189.157 51.7213V50.1998L195.027 47.4997L189.157 44.8424V43.3102L196.59 46.7818V48.2068Z" fill="#FDFDFD"/>
<path fill-rule="evenodd" clip-rule="evenodd" d="M158.654 65.9938C158.654 65.9938 159.681 69.5872 158.004 73.748L169.558 66.372L158.654 65.9938Z" fill="#FDFDFD"/>
<g style="mix-blend-mode:multiply" opacity="0.55">
<path d="M28.9241 15.3722H115.247C116.46 15.3722 117.625 15.8616 118.483 16.7328C119.342 17.6039 119.824 18.7855 119.824 20.0175V78.035C119.824 79.267 119.342 80.4485 118.483 81.3197C117.625 82.1908 116.46 82.6802 115.247 82.6802H28.9241C27.7102 82.6802 26.546 82.1908 25.6876 81.3197C24.8292 80.4485 24.3469 79.267 24.3469 78.035V20.0175C24.3469 18.7855 24.8292 17.6039 25.6876 16.7328C26.546 15.8616 27.7102 15.3722 28.9241 15.3722Z" fill="#C9C9C9"/>
</g>
<path d="M30.0697 13.7513H114.768C115.672 13.7513 116.54 14.116 117.179 14.7651C117.819 15.4141 118.178 16.2945 118.178 17.2124V77.5984C118.178 78.5164 117.819 79.3967 117.179 80.0458C116.54 80.6948 115.672 81.0595 114.768 81.0595H30.0697C29.1653 81.0595 28.2978 80.6948 27.6583 80.0458C27.0187 79.3967 26.6594 78.5164 26.6594 77.5984V17.2124C26.6594 16.2945 27.0187 15.4141 27.6583 14.7651C28.2978 14.116 29.1653 13.7513 30.0697 13.7513Z" fill="#F7F7F7"/>
<path d="M33.7577 28.0382H63.7752C63.9544 28.0382 64.1262 28.1104 64.2529 28.239C64.3795 28.3675 64.4507 28.5419 64.4507 28.7237V73.7839C64.4507 73.9658 64.3795 74.1401 64.2529 74.2687C64.1262 74.3972 63.9544 74.4695 63.7752 74.4695H33.7577C33.5786 74.4695 33.4068 74.3972 33.2801 74.2687C33.1534 74.1401 33.0823 73.9658 33.0823 73.784V28.7237C33.0823 28.5419 33.1534 28.3675 33.2801 28.239C33.4068 28.1104 33.5786 28.0382 33.7577 28.0382Z" fill="#C3EDFF"/>
<path d="M39.093 32.3585H58.1412C58.3092 32.3585 58.4703 32.4262 58.589 32.5468C58.7078 32.6673 58.7745 32.8308 58.7745 33.0013V36.2636C58.7745 36.434 58.7078 36.5975 58.589 36.7181C58.4703 36.8386 58.3092 36.9063 58.1412 36.9063H39.093C39.0099 36.9063 38.9275 36.8897 38.8507 36.8574C38.7738 36.8251 38.704 36.7777 38.6452 36.7181C38.5864 36.6584 38.5398 36.5875 38.5079 36.5095C38.4761 36.4316 38.4597 36.348 38.4597 36.2636V33.0013C38.4597 32.8308 38.5264 32.6673 38.6452 32.5468C38.764 32.4262 38.9251 32.3585 39.093 32.3585ZM45.2568 62.1842H41.2226C40.9971 62.1842 40.7737 62.1391 40.5654 62.0515C40.3571 61.9639 40.1678 61.8356 40.0083 61.6738C39.8489 61.5119 39.7224 61.3198 39.6361 61.1084C39.5498 60.8969 39.5054 60.6703 39.5054 60.4414C39.5054 60.2126 39.5498 59.986 39.6361 59.7745C39.7224 59.5631 39.8489 59.371 40.0083 59.2091C40.1678 59.0473 40.3571 58.919 40.5654 58.8314C40.7737 58.7438 40.9971 58.6987 41.2226 58.6987H45.2568C45.4823 58.6987 45.7056 58.7438 45.914 58.8314C46.1223 58.9189 46.3116 59.0473 46.4711 59.2091C46.6305 59.371 46.757 59.5631 46.8433 59.7745C46.9296 59.986 46.974 60.2126 46.974 60.4414C46.974 60.6703 46.9296 60.8969 46.8433 61.1084C46.757 61.3198 46.6305 61.5119 46.4711 61.6738C46.3116 61.8356 46.1223 61.964 45.914 62.0515C45.7056 62.1391 45.4823 62.1842 45.2568 62.1842Z" fill="#46C1E3"/>
<path d="M56.908 62.1839H52.8737C52.6482 62.1839 52.4249 62.1389 52.2165 62.0513C52.0082 61.9637 51.8189 61.8353 51.6594 61.6735C51.5 61.5117 51.3735 61.3196 51.2872 61.1081C51.2009 60.8967 51.1565 60.6701 51.1565 60.4412C51.1565 60.2124 51.2009 59.9857 51.2872 59.7743C51.3735 59.5629 51.5 59.3707 51.6594 59.2089C51.8189 59.0471 52.0082 58.9187 52.2165 58.8311C52.4249 58.7436 52.6482 58.6985 52.8737 58.6985H56.908C57.1335 58.6985 57.3568 58.7436 57.5651 58.8311C57.7734 58.9187 57.9627 59.0471 58.1222 59.2089C58.2817 59.3707 58.4081 59.5629 58.4944 59.7743C58.5807 59.9857 58.6251 60.2124 58.6251 60.4412C58.6251 60.6701 58.5807 60.8967 58.4944 61.1081C58.4081 61.3196 58.2817 61.5117 58.1222 61.6735C57.9627 61.8353 57.7734 61.9637 57.5651 62.0513C57.3568 62.1389 57.1335 62.1839 56.908 62.1839Z" fill="#7087EE"/>
<path d="M59.3555 41.4541H38.4765C38.2198 41.4541 38.0117 41.6653 38.0117 41.9258V44.4691C38.0117 44.7296 38.2198 44.9408 38.4765 44.9408H59.3555C59.6122 44.9408 59.8203 44.7296 59.8203 44.4691V41.9258C59.8203 41.6653 59.6122 41.4541 59.3555 41.4541Z" fill="#FAFAFA"/>
<path d="M59.3555 47.3663H38.4765C38.2198 47.3663 38.0117 47.5775 38.0117 47.838V50.3813C38.0117 50.6419 38.2198 50.853 38.4765 50.853H59.3555C59.6122 50.853 59.8203 50.6419 59.8203 50.3813V47.838C59.8203 47.5775 59.6122 47.3663 59.3555 47.3663Z" fill="#FAFAFA"/>
<path d="M54.8723 53.8471H43.1091C43.0051 53.8471 42.9054 53.8052 42.8319 53.7306C42.7583 53.6559 42.717 53.5547 42.717 53.4492C42.717 53.3437 42.7583 53.2424 42.8319 53.1678C42.9054 53.0932 43.0051 53.0513 43.1091 53.0513H54.8723C54.9763 53.0513 55.076 53.0932 55.1495 53.1678C55.2231 53.2424 55.2644 53.3437 55.2644 53.4492C55.2644 53.5547 55.2231 53.6559 55.1495 53.7306C55.076 53.8052 54.9763 53.8471 54.8723 53.8471Z" fill="#CDF0FF"/>
<path d="M54.8768 26.8338H35.8388C35.0976 26.8338 34.3868 26.535 33.8627 26.0031C33.3386 25.4713 33.0442 24.7499 33.0442 23.9977C33.0442 23.6252 33.1165 23.2564 33.2569 22.9123C33.3973 22.5682 33.6032 22.2556 33.8627 21.9922C34.1222 21.7288 34.4303 21.5199 34.7693 21.3774C35.1084 21.2349 35.4718 21.1615 35.8388 21.1615H54.8768C55.2438 21.1615 55.6072 21.2349 55.9463 21.3774C56.2853 21.5199 56.5934 21.7288 56.8529 21.9922C57.1124 22.2556 57.3182 22.5682 57.4587 22.9123C57.5991 23.2564 57.6714 23.6252 57.6714 23.9977C57.6714 24.3701 57.5991 24.7389 57.4587 25.083C57.3182 25.4271 57.1124 25.7398 56.8529 26.0031C56.5934 26.2665 56.2853 26.4754 55.9462 26.6179C55.6072 26.7605 55.2438 26.8338 54.8768 26.8338Z" fill="#C3EDFF"/>
<path d="M41.0437 23.9979C41.0437 24.3064 40.9536 24.608 40.7847 24.8645C40.6158 25.121 40.3757 25.321 40.0949 25.439C39.814 25.5571 39.505 25.5879 39.2068 25.5277C38.9087 25.4675 38.6348 25.319 38.4199 25.1008C38.2049 24.8826 38.0585 24.6047 37.9992 24.3021C37.94 23.9995 37.9704 23.6859 38.0867 23.4009C38.2031 23.1158 38.4001 22.8722 38.6529 22.7008C38.9056 22.5295 39.2028 22.438 39.5068 22.438C39.7086 22.438 39.9085 22.4783 40.095 22.5567C40.2815 22.6351 40.4509 22.75 40.5936 22.8949C40.7364 23.0397 40.8496 23.2117 40.9268 23.401C41.004 23.5902 41.0438 23.7931 41.0437 23.9979Z" fill="#9F9F9F"/>
<path d="M47.0406 23.9979C47.0406 24.3064 46.9504 24.608 46.7815 24.8645C46.6126 25.121 46.3726 25.321 46.0917 25.439C45.8109 25.5571 45.5018 25.588 45.2037 25.5278C44.9056 25.4676 44.6317 25.319 44.4167 25.1009C44.2018 24.8827 44.0554 24.6048 43.9961 24.3022C43.9368 23.9996 43.9672 23.686 44.0835 23.401C44.1999 23.1159 44.3969 22.8723 44.6496 22.7009C44.9024 22.5295 45.1995 22.438 45.5035 22.438C45.7054 22.438 45.9053 22.4783 46.0917 22.5567C46.2782 22.6351 46.4477 22.75 46.5904 22.8949C46.7332 23.0397 46.8464 23.2117 46.9236 23.4009C47.0009 23.5902 47.0406 23.7931 47.0406 23.9979Z" fill="#4058C2"/>
<path d="M52.5713 23.9979C52.5713 24.3064 52.4812 24.608 52.3123 24.8645C52.1434 25.121 51.9033 25.3209 51.6225 25.439C51.3416 25.5571 51.0326 25.5879 50.7345 25.5278C50.4363 25.4676 50.1624 25.319 49.9475 25.1009C49.7325 24.8827 49.5862 24.6048 49.5269 24.3022C49.4675 23.9996 49.498 23.686 49.6143 23.401C49.7306 23.1159 49.9276 22.8723 50.1804 22.7009C50.4331 22.5295 50.7303 22.438 51.0343 22.438C51.2361 22.438 51.436 22.4783 51.6225 22.5567C51.809 22.6351 51.9784 22.75 52.1212 22.8949C52.2639 23.0397 52.3771 23.2117 52.4544 23.4009C52.5316 23.5902 52.5714 23.7931 52.5713 23.9979Z" fill="#2448EB"/>
<path d="M67.7059 33.3218H88.085C88.1732 33.3218 88.2577 33.3573 88.3201 33.4206C88.3824 33.4838 88.4174 33.5697 88.4174 33.6591V47.013C88.4174 47.1025 88.3824 47.1883 88.3201 47.2515C88.2578 47.3148 88.1732 47.3503 88.0851 47.3503H67.7059C67.6178 47.3503 67.5332 47.3148 67.4709 47.2515C67.4086 47.1883 67.3735 47.1025 67.3735 47.013V33.6591C67.3735 33.5697 67.4086 33.4838 67.4709 33.4206C67.5332 33.3573 67.6178 33.3218 67.7059 33.3218Z" fill="#C3EDFF"/>
<path d="M77.9159 40.2278H77.875C77.781 40.2277 77.6886 40.2034 77.6064 40.1571L69.4946 35.5835C69.3664 35.5112 69.2717 35.3902 69.2315 35.247C69.1912 35.1039 69.2086 34.9504 69.2798 34.8203C69.3511 34.6901 69.4704 34.5941 69.6114 34.5532C69.7524 34.5123 69.9037 34.53 70.0319 34.6023L77.8955 39.036L85.7591 34.6023C85.8226 34.5664 85.8924 34.5436 85.9646 34.5352C86.0368 34.5267 86.1099 34.5328 86.1797 34.553C86.2496 34.5733 86.3148 34.6073 86.3717 34.6531C86.4287 34.6989 86.4761 34.7557 86.5114 34.8202C86.5467 34.8846 86.5691 34.9555 86.5774 35.0287C86.5857 35.102 86.5797 35.1762 86.5597 35.2471C86.5397 35.3179 86.5062 35.3841 86.461 35.4419C86.4158 35.4996 86.3599 35.5477 86.2963 35.5835L78.1846 40.1571C78.1024 40.2034 78.0099 40.2278 77.9159 40.2278Z" fill="#4063FD"/>
<path d="M95.5438 10.5092H122.564C122.932 10.5092 123.286 10.6578 123.547 10.9223C123.807 11.1869 123.954 11.5457 123.954 11.9198V48.2099C123.954 48.584 123.807 48.9429 123.547 49.2074C123.286 49.472 122.932 49.6206 122.564 49.6206H95.5438C95.1752 49.6206 94.8216 49.472 94.5609 49.2074C94.3003 48.9429 94.1538 48.584 94.1538 48.2099V11.9198C94.1538 11.5457 94.3003 11.1869 94.5609 10.9223C94.8216 10.6578 95.1752 10.5092 95.5438 10.5092Z" fill="#4054AD"/>
<path d="M100.811 15.7515H98.8259C98.7203 15.7515 98.6348 15.5771 98.6348 15.3619C98.6348 15.1467 98.7203 14.9723 98.8259 14.9723H100.811C100.917 14.9723 101.002 15.1467 101.002 15.3619C101.002 15.5771 100.917 15.7515 100.811 15.7515ZM113.104 15.7515H101.746C101.641 15.7515 101.555 15.5771 101.555 15.3619C101.555 15.1467 101.641 14.9723 101.746 14.9723H113.104C113.209 14.9723 113.295 15.1467 113.295 15.3619C113.295 15.5771 113.209 15.7515 113.104 15.7515Z" fill="#00C8FF"/>
<path d="M105.369 17.3619H101.746C101.64 17.3619 101.555 17.1874 101.555 16.9722C101.555 16.757 101.64 16.5826 101.746 16.5826H105.369C105.475 16.5826 105.56 16.757 105.56 16.9722C105.56 17.1874 105.475 17.3619 105.369 17.3619Z" fill="#56D0FF"/>
<path d="M111.328 17.3619H106.106C106.001 17.3619 105.915 17.1874 105.915 16.9722C105.915 16.757 106.001 16.5826 106.106 16.5826H111.328C111.433 16.5826 111.519 16.757 111.519 16.9722C111.519 17.1874 111.433 17.3619 111.328 17.3619ZM113.103 25.2028H101.746C101.64 25.2028 101.555 25.0284 101.555 24.8133C101.555 24.5981 101.64 24.4236 101.746 24.4236H113.103C113.209 24.4236 113.295 24.5981 113.295 24.8133C113.295 25.0284 113.209 25.2028 113.103 25.2028Z" fill="#D9F3FD"/>
<path d="M100.811 26.8134H98.8259C98.7203 26.8134 98.6348 26.639 98.6348 26.4239C98.6348 26.2087 98.7203 26.0342 98.8259 26.0342H100.811C100.917 26.0342 101.002 26.2087 101.002 26.4239C101.002 26.639 100.917 26.8134 100.811 26.8134Z" fill="#00C8FF"/>
<path d="M105.369 26.8134H101.746C101.64 26.8134 101.555 26.639 101.555 26.4239C101.555 26.2087 101.64 26.0342 101.746 26.0342H105.369C105.475 26.0342 105.56 26.2087 105.56 26.4239C105.56 26.639 105.475 26.8134 105.369 26.8134Z" fill="#D9F3FD"/>
<path d="M111.328 26.8134H106.106C106.001 26.8134 105.915 26.639 105.915 26.4238C105.915 26.2086 106.001 26.0342 106.106 26.0342H111.328C111.433 26.0342 111.519 26.2086 111.519 26.4238C111.519 26.639 111.433 26.8134 111.328 26.8134ZM115.92 18.9724H101.746C101.64 18.9724 101.555 18.798 101.555 18.5828C101.555 18.3676 101.64 18.1931 101.746 18.1931H115.92C116.026 18.1931 116.111 18.3676 116.111 18.5828C116.111 18.798 116.026 18.9724 115.92 18.9724Z" fill="#56D0FF"/>
<path d="M109.485 19.8037H113.114C113.124 19.8037 113.134 19.8078 113.141 19.815C113.148 19.8223 113.152 19.8321 113.152 19.8423V20.5444C113.152 20.5546 113.148 20.5644 113.141 20.5717C113.134 20.5789 113.124 20.583 113.114 20.583H109.485C109.475 20.583 109.466 20.5789 109.458 20.5717C109.451 20.5644 109.447 20.5546 109.447 20.5444V19.8423C109.447 19.8321 109.451 19.8223 109.458 19.815C109.466 19.8078 109.475 19.8037 109.485 19.8037Z" fill="#00C8FF"/>
<path d="M106.454 20.583H101.746C101.64 20.583 101.555 20.4086 101.555 20.1934C101.555 19.9782 101.64 19.8037 101.746 19.8037H106.454C106.56 19.8037 106.645 19.9782 106.645 20.1934C106.645 20.4086 106.56 20.583 106.454 20.583Z" fill="#D9F3FD"/>
<path d="M108.96 20.583H107.093C106.987 20.583 106.902 20.4086 106.902 20.1934C106.902 19.9782 106.987 19.8037 107.093 19.8037H108.96C109.066 19.8037 109.151 19.9782 109.151 20.1934C109.151 20.4086 109.066 20.583 108.96 20.583Z" fill="#00C8FF"/>
<path d="M100.811 22.1398H98.8259C98.7203 22.1398 98.6348 21.9655 98.6348 21.7503C98.6348 21.535 98.7203 21.3606 98.8259 21.3606H100.811C100.917 21.3606 101.002 21.535 101.002 21.7503C101.002 21.9655 100.917 22.1398 100.811 22.1398ZM115.92 22.1398H101.746C101.641 22.1398 101.555 21.9655 101.555 21.7503C101.555 21.535 101.641 21.3606 101.746 21.3606H115.92C116.026 21.3606 116.111 21.535 116.111 21.7503C116.111 21.9655 116.026 22.1398 115.92 22.1398ZM100.811 28.3051H98.8259C98.7203 28.3051 98.6348 28.1307 98.6348 27.9155C98.6348 27.7003 98.7203 27.5258 98.8259 27.5258H100.811C100.917 27.5258 101.002 27.7003 101.002 27.9155C101.002 28.1307 100.917 28.3051 100.811 28.3051ZM109.492 27.5258H114.528C114.54 27.5258 114.551 27.5306 114.559 27.5391C114.568 27.5476 114.573 27.5592 114.573 27.5712V28.2597C114.573 28.2717 114.568 28.2833 114.559 28.2918C114.551 28.3003 114.54 28.3051 114.528 28.3051H109.492C109.48 28.3051 109.469 28.3003 109.46 28.2918C109.452 28.2833 109.447 28.2717 109.447 28.2597V27.5712C109.447 27.5592 109.452 27.5476 109.46 27.5391C109.469 27.5306 109.48 27.5258 109.492 27.5258ZM106.454 28.3051H101.746C101.641 28.3051 101.555 28.1307 101.555 27.9155C101.555 27.7003 101.641 27.5258 101.746 27.5258H106.454C106.56 27.5258 106.646 27.7003 106.646 27.9155C106.646 28.1307 106.56 28.3051 106.454 28.3051ZM108.96 28.3051H107.093C106.988 28.3051 106.902 28.1307 106.902 27.9155C106.902 27.7003 106.988 27.5258 107.093 27.5258H108.96C109.066 27.5258 109.151 27.7003 109.151 27.9155C109.151 28.1307 109.066 28.3051 108.96 28.3051Z" fill="#D9F3FD"/>
<path d="M100.811 29.8618H98.8259C98.7203 29.8618 98.6348 29.6874 98.6348 29.4721C98.6348 29.2569 98.7203 29.0825 98.8259 29.0825H100.811C100.917 29.0825 101.002 29.2569 101.002 29.4721C101.002 29.6874 100.917 29.8618 100.811 29.8618Z" fill="#ACACAC"/>
<path d="M104.2 29.862H101.746C101.641 29.862 101.555 29.6876 101.555 29.4723C101.555 29.2571 101.641 29.0827 101.746 29.0827H104.2C104.306 29.0827 104.391 29.2571 104.391 29.4723C104.391 29.6876 104.306 29.862 104.2 29.862ZM98.8259 23.7503C98.7203 23.7503 98.6348 23.5759 98.6348 23.3607C98.6348 23.1455 98.7203 22.9711 98.8259 22.9711H100.811C100.917 22.9711 101.002 23.1455 101.002 23.3607C101.002 23.5759 100.917 23.7503 100.811 23.7503" fill="#00C8FF"/>
<path d="M109.495 22.9711H115.191C115.203 22.9711 115.215 22.9762 115.224 22.9852C115.233 22.9942 115.238 23.0065 115.238 23.0193V23.7021C115.238 23.7149 115.233 23.7271 115.224 23.7362C115.215 23.7452 115.203 23.7503 115.191 23.7503H109.495C109.489 23.7503 109.482 23.7491 109.477 23.7466C109.471 23.7442 109.466 23.7407 109.461 23.7362C109.457 23.7317 109.453 23.7264 109.451 23.7205C109.448 23.7147 109.447 23.7084 109.447 23.7021V23.0193C109.447 23.013 109.448 23.0067 109.451 23.0009C109.453 22.995 109.457 22.9897 109.461 22.9852C109.466 22.9807 109.471 22.9772 109.477 22.9747C109.482 22.9723 109.489 22.9711 109.495 22.9711Z" fill="#D9F3FD"/>
<path d="M106.454 23.7503H101.746C101.64 23.7503 101.555 23.5759 101.555 23.3607C101.555 23.1455 101.64 22.9711 101.746 22.9711H106.454C106.56 22.9711 106.645 23.1455 106.645 23.3607C106.645 23.5759 106.56 23.7503 106.454 23.7503ZM108.96 23.7503H107.093C106.987 23.7503 106.902 23.5759 106.902 23.3607C106.902 23.1455 106.987 22.9711 107.093 22.9711H108.96C109.066 22.9711 109.151 23.1455 109.151 23.3607C109.151 23.5759 109.066 23.7503 108.96 23.7503Z" fill="#ACACAC"/>
<path d="M113.103 31.5175H101.746C101.64 31.5175 101.555 31.343 101.555 31.1279C101.555 30.9127 101.64 30.7383 101.746 30.7383H113.103C113.209 30.7383 113.295 30.9127 113.295 31.1279C113.295 31.343 113.209 31.5175 113.103 31.5175ZM105.369 33.128H101.746C101.64 33.128 101.555 32.9535 101.555 32.7383C101.555 32.5231 101.64 32.3487 101.746 32.3487H105.369C105.475 32.3487 105.56 32.5231 105.56 32.7383C105.56 32.9535 105.475 33.128 105.369 33.128ZM111.328 33.128H106.106C106.001 33.128 105.915 32.9535 105.915 32.7383C105.915 32.5231 106.001 32.3487 106.106 32.3487H111.328C111.433 32.3487 111.519 32.5231 111.519 32.7383C111.519 32.9535 111.433 33.128 111.328 33.128ZM113.103 40.969H101.746C101.64 40.969 101.555 40.7945 101.555 40.5793C101.555 40.3642 101.64 40.1898 101.746 40.1898H113.103C113.209 40.1898 113.295 40.3642 113.295 40.5793C113.295 40.7945 113.209 40.969 113.103 40.969Z" fill="#D9F3FD"/>
<path d="M100.811 42.5794H98.8259C98.7203 42.5794 98.6348 42.4049 98.6348 42.1898C98.6348 41.9746 98.7203 41.8002 98.8259 41.8002H100.811C100.917 41.8002 101.002 41.9746 101.002 42.1898C101.002 42.4049 100.917 42.5794 100.811 42.5794Z" fill="#56D0FF"/>
<path d="M105.369 42.5794H101.746C101.64 42.5794 101.555 42.4049 101.555 42.1898C101.555 41.9746 101.64 41.8002 101.746 41.8002H105.369C105.475 41.8002 105.56 41.9746 105.56 42.1898C105.56 42.4049 105.475 42.5794 105.369 42.5794Z" fill="#00C8FF"/>
<path d="M111.328 42.5794H106.107C106.001 42.5794 105.916 42.4049 105.916 42.1898C105.916 41.9746 106.001 41.8002 106.107 41.8002H111.328C111.434 41.8002 111.519 41.9746 111.519 42.1898C111.519 42.4049 111.434 42.5794 111.328 42.5794Z" fill="#D9F3FD"/>
<path d="M100.811 34.7384H98.8259C98.7203 34.7384 98.6348 34.5639 98.6348 34.3487C98.6348 34.1335 98.7203 33.9591 98.8259 33.9591H100.811C100.917 33.9591 101.002 34.1335 101.002 34.3487C101.002 34.5639 100.917 34.7384 100.811 34.7384ZM101.598 33.9591H112.073C112.084 33.9591 112.095 33.9637 112.103 33.972C112.111 33.9803 112.116 33.9915 112.116 34.0032V34.6943C112.116 34.706 112.111 34.7172 112.103 34.7255C112.095 34.7337 112.084 34.7384 112.073 34.7384H101.598C101.587 34.7384 101.576 34.7337 101.568 34.7255C101.559 34.7172 101.555 34.706 101.555 34.6943V34.0032C101.555 33.9915 101.559 33.9803 101.568 33.972C101.576 33.9637 101.587 33.9591 101.598 33.9591Z" fill="#56D0FF"/>
<path d="M100.811 36.3487H98.8259C98.7203 36.3487 98.6348 36.1742 98.6348 35.959C98.6348 35.7439 98.7203 35.5695 98.8259 35.5695H100.811C100.917 35.5695 101.002 35.7439 101.002 35.959C101.002 36.1742 100.917 36.3487 100.811 36.3487ZM106.454 36.3487H101.746C101.641 36.3487 101.555 36.1742 101.555 35.959C101.555 35.7439 101.641 35.5695 101.746 35.5695H106.454C106.56 35.5695 106.646 35.7439 106.646 35.959C106.646 36.1742 106.56 36.3487 106.454 36.3487ZM108.96 36.3487H107.093C106.988 36.3487 106.902 36.1742 106.902 35.959C106.902 35.7439 106.988 35.5695 107.093 35.5695H108.96C109.066 35.5695 109.151 35.7439 109.151 35.959C109.151 36.1742 109.066 36.3487 108.96 36.3487ZM100.811 37.9055H98.8259C98.7203 37.9055 98.6348 37.7311 98.6348 37.5159C98.6348 37.3007 98.7203 37.1262 98.8259 37.1262H100.811C100.917 37.1262 101.002 37.3007 101.002 37.5159C101.002 37.7311 100.917 37.9055 100.811 37.9055ZM101.604 37.1262H114.805C114.811 37.1262 114.818 37.1275 114.824 37.13C114.829 37.1325 114.835 37.1361 114.839 37.1407C114.844 37.1453 114.847 37.1507 114.85 37.1567C114.852 37.1627 114.854 37.1691 114.854 37.1756V37.856C114.854 37.8625 114.852 37.869 114.85 37.875C114.847 37.8809 114.844 37.8864 114.839 37.891C114.835 37.8956 114.829 37.8992 114.824 37.9017C114.818 37.9042 114.811 37.9055 114.805 37.9055H101.604C101.591 37.9055 101.578 37.9003 101.569 37.891C101.56 37.8817 101.555 37.8692 101.555 37.8561V37.1756C101.555 37.1625 101.56 37.15 101.569 37.1407C101.578 37.1314 101.591 37.1262 101.604 37.1262ZM100.811 44.0707H98.8259C98.7203 44.0707 98.6348 43.8962 98.6348 43.6811C98.6348 43.4659 98.7203 43.2915 98.8259 43.2915H100.811C100.917 43.2915 101.002 43.4659 101.002 43.6811C101.002 43.8962 100.917 44.0707 100.811 44.0707ZM115.906 44.0707H109.639C109.533 44.0707 109.447 43.8962 109.447 43.6811C109.447 43.4659 109.533 43.2915 109.639 43.2915H115.906C116.011 43.2915 116.097 43.4659 116.097 43.6811C116.097 43.8962 116.011 44.0707 115.906 44.0707ZM106.454 44.0707H101.746C101.641 44.0707 101.555 43.8962 101.555 43.6811C101.555 43.4659 101.641 43.2915 101.746 43.2915H106.454C106.56 43.2915 106.646 43.4659 106.646 43.6811C106.646 43.8962 106.56 44.0707 106.454 44.0707ZM108.96 44.0707H107.093C106.988 44.0707 106.902 43.8962 106.902 43.6811C106.902 43.4659 106.988 43.2915 107.093 43.2915H108.96C109.066 43.2915 109.151 43.4659 109.151 43.6811C109.151 43.8962 109.066 44.0707 108.96 44.0707Z" fill="#D9F3FD"/>
<path d="M101.594 44.8483H110.3C110.311 44.8483 110.321 44.8525 110.328 44.86C110.336 44.8676 110.34 44.8778 110.34 44.8884V45.5874C110.34 45.5926 110.339 45.5979 110.337 45.6027C110.335 45.6076 110.332 45.612 110.328 45.6158C110.325 45.6195 110.32 45.6224 110.316 45.6245C110.311 45.6265 110.306 45.6275 110.3 45.6275H101.594C101.584 45.6275 101.574 45.6233 101.566 45.6158C101.559 45.6082 101.555 45.598 101.555 45.5873V44.8884C101.555 44.8778 101.559 44.8676 101.566 44.86C101.574 44.8525 101.584 44.8483 101.594 44.8483Z" fill="#ACACAC"/>
<path d="M109.496 38.7366H115.53C115.543 38.7366 115.555 38.7418 115.564 38.7511C115.573 38.7604 115.579 38.773 115.579 38.7862V39.4662C115.579 39.4793 115.573 39.492 115.564 39.5013C115.555 39.5106 115.543 39.5158 115.53 39.5158H109.496C109.483 39.5158 109.471 39.5106 109.462 39.5013C109.452 39.492 109.447 39.4793 109.447 39.4662V38.7862C109.447 38.773 109.452 38.7604 109.462 38.7511C109.471 38.7418 109.483 38.7366 109.496 38.7366Z" fill="#56D0FF"/>
<path d="M106.454 39.5158H101.746C101.64 39.5158 101.555 39.3414 101.555 39.1262C101.555 38.9111 101.64 38.7366 101.746 38.7366H106.454C106.56 38.7366 106.645 38.9111 106.645 39.1262C106.645 39.3414 106.56 39.5158 106.454 39.5158ZM108.96 39.5158H107.093C106.987 39.5158 106.902 39.3414 106.902 39.1262C106.902 38.9111 106.987 38.7366 107.093 38.7366H108.96C109.066 38.7366 109.151 38.9111 109.151 39.1262C109.151 39.3414 109.066 39.5158 108.96 39.5158Z" fill="#ACACAC"/>
<path d="M121.775 17.6793C125.237 17.554 127.944 14.6036 127.821 11.0894C127.697 7.57525 124.79 4.82808 121.327 4.95344C117.865 5.0788 115.158 8.02921 115.281 11.5434C115.405 15.0575 118.312 17.8047 121.775 17.6793Z" fill="#50CEFF"/>
<path d="M121.096 10.7192L118.604 11.6457L121.096 12.5646V13.5141L117.534 12.1394V11.1521L121.096 9.77771V10.7192ZM121.91 9.77771L125.472 11.1521V12.1394L121.91 13.5141V12.5646L124.402 11.6457L121.91 10.7192V9.77771Z" fill="#FAFAFA"/>
<g style="mix-blend-mode:multiply" opacity="0.55">
<path d="M75.8787 4.86621H40.1976C38.806 4.86621 37.4713 5.42726 36.4873 6.42593C35.5033 7.4246 34.9504 8.77909 34.9504 10.1914C34.9504 11.6038 35.5033 12.9582 36.4873 13.9569C37.4713 14.9556 38.806 15.5166 40.1976 15.5166H42.8212L45.3574 18.0905L47.8935 15.5166H75.8787C77.2704 15.5166 78.605 14.9556 79.5891 13.9569C80.5731 12.9582 81.1259 11.6038 81.1259 10.1914C81.1259 8.77909 80.5731 7.4246 79.5891 6.42593C78.605 5.42726 77.2704 4.86621 75.8787 4.86621Z" fill="#C9C9C9"/>
</g>
<path d="M76.4369 4.0166H40.7557C39.3641 4.0166 38.0294 4.57765 37.0454 5.57632C36.0614 6.57499 35.5085 7.92948 35.5085 9.34182C35.5085 10.7541 36.0614 12.1086 37.0454 13.1073C38.0294 14.106 39.3641 14.667 40.7557 14.667H43.3793L45.9155 17.2409L48.4516 14.667H76.4369C77.8285 14.667 79.1631 14.106 80.1472 13.1073C81.1312 12.1086 81.684 10.7541 81.684 9.34182C81.684 7.92948 81.1312 6.57499 80.1472 5.57632C79.1631 4.57765 77.8285 4.0166 76.4369 4.0166Z" fill="#7087EE"/>
<path d="M66.227 11.0393H42.7479C42.6708 11.0393 42.5945 11.0239 42.5233 10.994C42.4521 10.964 42.3874 10.9202 42.3328 10.8649C42.2783 10.8096 42.2351 10.7439 42.2056 10.6716C42.1761 10.5994 42.1609 10.5219 42.1609 10.4437C42.1609 10.3654 42.1761 10.288 42.2056 10.2157C42.2351 10.1434 42.2783 10.0777 42.3328 10.0224C42.3873 9.96707 42.452 9.92319 42.5233 9.89325C42.5945 9.86331 42.6708 9.84791 42.7479 9.84792H66.227C66.304 9.84791 66.3804 9.86332 66.4516 9.89325C66.5228 9.92319 66.5875 9.96708 66.642 10.0224C66.6965 10.0777 66.7398 10.1434 66.7693 10.2157C66.7988 10.288 66.8139 10.3654 66.8139 10.4437C66.8139 10.5219 66.7987 10.5994 66.7692 10.6716C66.7397 10.7439 66.6965 10.8096 66.642 10.8649C66.5875 10.9202 66.5228 10.964 66.4516 10.994C66.3804 11.0239 66.304 11.0393 66.227 11.0393ZM58.8897 7.7629H42.7479C42.6708 7.76291 42.5945 7.74751 42.5233 7.71758C42.4521 7.68765 42.3873 7.64377 42.3328 7.58846C42.2783 7.53314 42.2351 7.46747 42.2056 7.39519C42.1761 7.32292 42.1609 7.24545 42.1609 7.16722C42.1609 7.00922 42.2228 6.8577 42.3328 6.74599C42.4429 6.63428 42.5922 6.57153 42.7479 6.57153H58.8897C58.9668 6.57153 59.0431 6.58694 59.1144 6.61687C59.1856 6.64681 59.2503 6.69069 59.3048 6.746C59.3593 6.80132 59.4025 6.86699 59.432 6.93926C59.4615 7.01153 59.4767 7.08899 59.4767 7.16722C59.4767 7.24545 59.4615 7.32291 59.432 7.39519C59.4025 7.46746 59.3593 7.53313 59.3048 7.58845C59.2503 7.64377 59.1856 7.68764 59.1144 7.71758C59.0431 7.74751 58.9668 7.76291 58.8897 7.7629Z" fill="#FDFDFD"/>
<mask id="mask1_330_3604" style="mask-type:luminance" maskUnits="userSpaceOnUse" x="13" y="67" width="70" height="75">
<path d="M82.1069 67.9733H13.0066V141.556H82.1069V67.9733Z" fill="white"/>
</mask>
<g mask="url(#mask1_330_3604)">
<path d="M13.0066 108.274C13.0066 108.274 13.4386 108.048 14.1623 107.755C17.4762 106.719 24.4921 107.044 27.0851 108.175C28.6328 108.851 32.2368 110.634 35.323 112.18C34.1895 112.314 31.4637 113.065 30.5977 112.159C30.5977 112.159 28.7299 116.748 29.4865 118.726C30.2426 120.705 38.6243 121.562 36.9857 122.024C35.3473 122.485 28.9192 121.061 28.9192 121.061C28.9192 121.061 28.3519 125.782 30.1166 126.705C31.8812 127.629 41.145 126.244 40.2627 127.167C39.3804 128.09 30.9041 129.046 29.9276 128.024C29.9276 128.024 29.7385 133.695 32.8263 134.289C35.9146 134.882 44.3657 130.068 43.6374 131.387C42.9097 132.706 35.095 136.531 32.7003 135.08C32.7003 135.08 34.843 140.488 36.7967 140.488C38.7503 140.488 43.5691 133.53 44.5465 134.553C45.5241 135.576 40.326 140.553 37.4267 141.147C37.4267 141.147 38.5613 144.246 42.2796 143.323C45.9974 142.4 45.3674 136.333 46.5017 136.861C47.6361 137.388 46.5647 144.049 42.7834 144.049C42.7834 144.049 48.9594 145.565 50.4088 142.07C50.8167 141.087 51.0154 140.282 51.0971 139.625C51.662 142.386 51.9828 145.716 52.1425 149.054H46.5084C38.0167 152.008 38.3707 157.961 47.2362 160.69H64.2388C73.1064 157.961 73.4562 152.007 64.9668 149.054H60.364C61.4335 140.194 63.0172 132.83 64.3088 127.767C64.5127 128.358 64.847 129.114 65.3446 129.635C66.2718 130.605 68.0543 127.299 68.0543 125.65C68.0543 124.002 66.1359 125.584 66.1359 124.661C66.1359 123.738 66.4159 124.199 68.8739 124.199C71.3316 124.199 72.2137 118.924 72.2137 118.924C72.2137 118.924 68.4956 119.386 68.4956 118.66C68.4956 117.935 71.4576 118.331 73.348 117.803C75.2384 117.276 76.31 112.989 76.31 112.989C76.31 112.989 70.8903 114.638 70.8903 113.912C70.8903 113.187 75.0814 112.495 75.869 111.67C76.6566 110.846 76.9401 107.12 76.9401 107.12C76.9401 107.12 73.348 110.615 72.7807 110.615C72.2137 110.615 76.5936 106.758 76.184 106.329C75.7742 105.901 75.6167 104.079 75.6167 104.079C74.8329 104.899 73.5373 103.823 72.7177 104.681C71.8987 105.538 70.4175 112.099 69.819 112.725C69.2202 113.352 71.4891 107.483 70.449 106.395C69.4094 105.307 66.5929 108.064 66.0379 108.645C65.4829 109.226 67.3613 115.594 66.6049 116.385C65.8486 117.177 66.0035 110.783 65.4012 110.154C64.7995 109.524 63.2019 111.143 62.7294 113.022C62.2566 114.902 66.3687 118.116 65.1871 119.353C64.0055 120.589 62.9184 115.891 61.8786 114.803C61.11 113.998 59.5172 115.572 58.7374 116.967C58.9197 111.276 59.2003 106.207 59.6211 102.59C60.4628 104.966 64.8115 107.812 67.8685 104.553C68.5199 105.091 69.3246 105.331 70.3265 104.953C73.9597 103.584 74.2939 102.639 73.5293 102.264C72.7642 101.889 65.6647 97.709 66.5321 97.259C67.4 96.8092 73.7669 102.031 74.9816 101.401C76.196 100.771 78.064 98.1864 77.8454 98.0794C77.6267 97.9724 68.8136 94.6436 69.7971 94.1337C70.7803 93.6241 77.5947 98.54 78.8777 96.3687C80.1608 94.1971 80.2163 92.8825 80.0967 92.3572C79.9766 91.8316 72.3506 91.2436 72.6077 90.6695C72.8651 90.0954 80.0449 91.2816 80.6018 90.038C81.1587 88.7941 81.2981 86.9953 80.679 86.6919C80.0599 86.3884 76.3453 87.5429 76.624 86.9208C76.9022 86.299 80.5439 86.1007 80.4091 85.5092C80.274 84.9181 79.8794 81.6327 80.1368 81.0585C80.1368 81.0585 77.5616 79.2712 76.9382 78.3822C76.3148 77.4933 75.6421 77.8051 75.428 78.2836C75.2139 78.7621 73.5186 86.0695 73.3312 85.2483C73.1435 84.4271 75.2801 77.9195 74.8433 77.7051C74.406 77.4908 72.1501 75.6848 71.4541 76.7439C70.7579 77.8027 70.5099 87.4825 69.7197 87.5616C68.9289 87.641 70.8415 76.3269 70.8415 76.3269C70.8415 76.3269 68.1937 76.4873 67.2449 77.7141C66.2958 78.9406 67.2935 90.3019 66.4768 90.2412C65.6602 90.1805 66.0515 78.2961 66.0515 78.2961C66.0515 78.2961 62.7611 79.8916 62.5558 81.5411C62.3503 83.1905 64.6329 90.6395 63.9099 91.0144C63.187 91.3894 62.4336 83.6983 62.4336 83.6983C62.4336 83.6983 59.5695 85.0362 59.4048 87.289C59.2398 89.5419 62.0187 92.3626 61.6973 93.0803C61.3758 93.7978 58.8973 90.7671 58.4792 88.9355C58.0612 87.1043 54.9152 96.5228 57.5737 97.8263C58.3767 98.2197 58.9809 98.3606 59.4371 98.369C58.121 101.919 57.7283 115.994 57.6191 119.821C57.1158 119.321 56.7738 118.957 56.7738 118.957C56.0739 119.239 55.6585 120.164 55.4647 121.357C55.1192 120.909 54.8762 120.639 54.8762 120.639C54.8762 120.639 54.5941 121.631 54.1672 122.969C53.723 119.382 53.7731 120.339 53.7608 119.573C53.8303 119.121 53.8319 118.746 53.7435 118.477C53.3839 95.6201 53.4832 97.0704 53.3756 96.9455C53.4266 95.3714 53.9237 81.5061 55.7655 77.7756C57.7192 73.8191 58.9795 69.2031 58.9795 69.2031C58.9795 69.2031 57.3094 71.9399 55.8288 73.4893C54.3476 75.0391 53.0558 75.3358 53.0558 76.7206C53.0558 78.1053 55.0092 82.5896 53.7491 81.9301C52.4885 81.2707 52.8035 78.567 52.3625 78.567C51.9214 78.567 50.0938 84.7655 50.0938 85.0955C50.0938 85.425 53.2448 87.997 52.4255 88.8542C51.6064 89.7115 50.2828 85.5569 49.7788 86.0844C49.2747 86.6122 49.1485 91.1621 49.1485 92.3491C49.1485 93.536 51.5749 92.9096 50.4718 94.0635C49.3746 95.2118 49.1511 99.8172 49.1487 101.942C46.5287 95.664 44.1743 94.0484 40.3265 91.6747C41.1642 91.6736 42.2294 91.4452 43.1144 90.5192C44.8575 88.6952 45.6584 81.961 41.6394 80.1048C41.8167 79.1105 41.6918 78.0937 40.9875 77.1657C38.4353 73.8026 37.5372 73.9015 37.5372 74.9399C37.5372 75.9787 36.9702 85.969 36.2611 85.2272C35.552 84.4854 37.2537 74.7918 36.2611 73.753C35.2685 72.7145 32.4325 71.9233 32.4325 72.2197C32.4325 72.5167 33.2358 83.9909 32.4325 83.1502C31.6292 82.3092 32.9053 72.2693 30.6366 71.9233C28.3679 71.5771 27.2806 72.1704 26.9028 72.566C26.5245 72.9618 29.0767 81.7473 28.5094 81.7473C27.9424 81.7473 26.0517 73.1596 24.8229 73.1596C23.594 73.1596 22.0814 73.9015 22.0814 74.7424C22.0814 75.5832 24.4921 79.1441 23.8775 79.1441C23.263 79.1441 21.6563 75.1873 21.2308 75.6325C20.8053 76.0776 18.3003 78.1546 17.7333 78.1546C17.7333 78.1546 17.3077 81.9136 16.8349 83.051C16.3624 84.1884 16.8825 84.7823 17.355 84.7823C17.8278 84.7823 24.4211 83.0264 23.8303 83.6446C23.2395 84.2629 17.1187 85.1286 17.1187 85.7217C17.1187 86.3153 16.5517 89.7277 17.686 89.9751C18.8204 90.2225 26.7608 85.6723 27.1388 86.5131C27.5171 87.3538 17.5915 90.8654 17.5915 90.8654C17.5915 90.8654 18.7731 93.7338 20.1437 94.179C21.5143 94.6241 30.3224 87.8485 30.5977 88.7881C30.8726 89.7277 21.0891 95.2177 21.0891 95.2177C21.0891 95.2177 23.6885 98.0862 25.1066 97.4928C26.5245 96.8992 31.6527 90.6427 32.2435 91.261C32.8343 91.8792 26.9028 96.5529 26.9028 96.5529C26.9028 96.5529 29.124 99.0754 31.0147 98.1355C32.9053 97.1959 34.0869 92.6953 34.7957 92.6953C35.5048 92.6953 34.0338 96.9664 32.7163 98.3454C31.3986 99.7243 40.2784 98.5313 40.2784 94.9208C40.2784 93.3932 40.0326 92.5431 39.7493 92.0654C41.3242 93.053 43.0277 93.9736 44.507 95.584C48.3398 99.6094 50.8004 107.551 52.3878 116.74C51.8403 116.345 51.4171 116.386 51.4171 116.88C51.4171 117.737 49.4322 126.673 48.4551 125.65C47.4786 124.628 51.2284 116.484 49.9048 115.099C49.1191 114.277 47.2928 113.204 45.8568 112.671C45.8554 112.67 45.8554 112.668 45.8541 112.667C45.2344 112.018 43.3507 111.341 43.93 109.461C44.5096 107.582 41.4601 105.901 41.4601 105.901C41.4601 105.901 39.5694 108.769 37.868 108.769C36.1663 108.769 40.0422 106.889 40.0422 105.801C40.0422 104.714 34.1814 102.735 34.1814 102.735C34.1814 102.735 35.826 107.651 35.8163 109.129C35.1182 108.617 34.3707 108.379 33.7313 108.018C33.1771 106.397 32.9224 103.199 32.0072 102.834C31.0558 102.455 29.6755 101.482 29.0386 102.17C30.9124 107.157 28.8528 106.19 27.9072 105.83C27.4498 104.621 26.3379 100.559 26.0517 100.559C25.7418 100.559 25.1771 100.943 24.2815 101.211C24.9502 102.551 26.446 105.754 25.6091 106.009C24.8301 106.246 22.7339 103.094 21.6767 101.405C21.5618 101.39 21.4449 101.372 21.3253 101.35C20.5223 101.205 19.9809 101.139 19.5607 101.177C20.1918 102.131 21.0845 103.675 20.7305 104.323C20.4139 104.901 18.9386 103.549 17.8006 102.365C17.4978 102.702 17.1329 103.119 16.6489 103.625C15.2886 105.051 14.0687 106.608 13.0066 108.274ZM38.9078 85.4745C38.6726 85.2285 40.2977 83.5761 41.176 81.5739C41.1728 81.7871 41.1888 82.0001 41.2238 82.2103C41.4601 83.5951 39.3096 85.8948 38.9078 85.4745ZM65.1508 99.8489C65.4386 99.6996 65.9189 101.941 66.995 103.553C66.8394 103.473 66.6748 103.412 66.5048 103.371C65.3777 103.111 64.659 100.104 65.1508 99.8489ZM53.2189 116.456C52.5024 112.28 51.5661 108.333 49.916 103.896C50.4408 104.236 51.1534 104.099 51.7954 103.427C52.9044 102.267 52.4479 98.0588 53.1754 97.2333C53.1025 98.9746 53.1388 106.845 53.2189 116.456ZM57.4178 129.578C57.4146 129.83 57.4111 130.081 57.4082 130.333C56.6767 131.348 55.82 132.514 55.1512 132.604C55.112 132.138 55.0719 131.672 55.0311 131.207C55.4665 130.651 56.115 129.948 56.7074 129.099C57.0416 129.528 57.2384 129.537 57.4178 129.578ZM61.9731 122.716C61.4965 123.214 59.9235 121.976 58.6314 120.789C58.6453 120.204 58.66 119.622 58.6758 119.045C59.7537 120.328 62.6701 121.986 61.9731 122.716ZM58.4531 149.054C58.4269 144.685 58.4146 139.637 58.4435 134.435C59.0137 132.571 59.0933 130.485 58.9833 129.447C60.7218 128.96 62.8693 127.64 63.6971 127.104C62.3727 132.226 60.709 139.838 59.6016 149.054H58.4531ZM56.1652 149.054C56.0178 145.544 55.8197 141.781 55.5589 137.966C56.2944 137.702 56.8038 137.383 57.3478 136.678C57.3201 141.086 57.3204 145.319 57.334 149.054H56.1652ZM54.2991 149.054C54.2403 146.221 54.168 142.688 54.0844 138.257C54.2854 138.247 54.4856 138.225 54.684 138.191C54.908 141.987 55.0514 145.656 55.1483 149.054H54.2991ZM51.1681 137.535C51.8685 137.922 52.6391 138.161 53.433 138.237C53.4757 142.166 53.5179 145.861 53.555 149.054H52.8334C52.6044 144.977 52.1059 140.84 51.1681 137.535ZM53.1602 121.791C53.3033 122.85 53.2686 122.213 53.3009 125.53C52.4276 127.95 51.387 130.3 50.7241 130.003C49.8188 129.597 52.0079 125.152 53.1602 121.791ZM42.765 114.18C43.1393 114.067 43.5242 113.946 43.8919 113.821C44.0678 116.423 44.9269 121.958 43.2877 121.958C41.805 121.958 42.7741 116.978 42.765 114.18ZM35.9899 112.515C36.4474 112.745 36.8858 112.966 37.3012 113.175C37.9799 114.721 39.2463 117.855 38.2463 117.605C37.1325 117.328 36.6429 113.67 35.9899 112.515Z" fill="url(#paint2_linear_330_3604)"/>
</g>
<path d="M87.0253 100.678L90.2712 125.684H71.3857L70.6479 105.619L87.0253 100.678Z" fill="#3A5AE8"/>
<path d="M61.8447 89.4478C61.8447 89.4478 51.7626 93.6405 50.4347 109.513C49.1068 125.385 51.1724 141.556 51.1724 141.556H71.3859L74.4843 103.623C74.4843 103.623 70.3039 88.1002 61.8447 89.4478Z" fill="#4565F4"/>
<path d="M91.4517 37.7884C91.4517 37.7884 88.6483 33.2963 82.4515 36.291C76.4157 39.208 71.6808 67.4364 66.5168 72.228C61.3528 77.0196 59.1397 79.7149 61.3528 82.8593C63.566 86.0038 60.32 84.8059 60.4676 87.5012C60.6151 90.1965 63.1233 90.4959 63.1233 90.4959L81.1236 67.4364L91.4517 37.7884Z" fill="#21232B"/>
<path d="M58.1514 91.9935C58.1514 91.9935 59.4349 97.6835 66.6645 98.5819L65.7793 92.5924L61.0579 89.7474C61.0579 89.7474 59.081 91.0951 58.1514 91.9935Z" fill="url(#paint3_linear_330_3604)"/>
<path d="M67.6255 77.2193L65.4841 82.7095C65.4841 82.7095 60.1726 86.1535 60.4677 87.5011C60.7628 88.8487 60.9841 89.7377 60.9841 89.7377C60.9841 89.7377 63.271 93.3408 65.7792 94.0895C68.2875 94.8382 68.8776 85.854 68.8776 85.854L69.0252 71.3295L68.6036 73.7253C68.3934 74.9202 68.0657 76.0907 67.6255 77.2193Z" fill="#3A5BEF"/>
<path d="M56.7053 104.197C56.7053 104.197 64.23 103.149 67.7711 94.464" stroke="#2A4BDD" stroke-width="3.5349" stroke-miterlimit="10"/>
<path d="M88.9439 37.6386C88.9439 37.6386 83.0421 34.1946 80.9765 39.5852C78.9109 44.9757 79.3535 52.3129 75.3699 56.9547" stroke="#363944" stroke-width="1.1783" stroke-miterlimit="10"/>
<path d="M117.42 80.6132H96.7635C95.4357 82.5598 88.7224 95.7367 88.7224 95.7367L79.6485 107.416L71.3861 108.764C71.3861 108.764 67.2549 107.865 65.1893 104.571C63.1237 101.277 69.9107 78.9661 68.8779 69.8321C67.8451 60.6981 68.8779 58.1526 72.714 56.5355C76.5501 54.9183 81.7141 58.1526 81.7141 58.1526C81.7141 58.1526 94.993 59.2008 97.6488 59.65C98.7569 59.8372 100.405 61.902 102.1 64.4521C104.465 68.0128 106.92 72.5169 108.124 74.1745C110.19 77.0195 117.42 80.6132 117.42 80.6132Z" fill="#4FD9FF"/>
<path d="M88.3711 66.6832C88.3711 66.6832 96.0659 66.4886 99.9675 61.7041L97.2039 58.0745L91.0263 62.1991L88.3711 66.6832Z" fill="#2D52F9"/>
<path d="M91.0092 62.3454L90.7309 64.04C90.6632 64.4549 90.5145 64.8519 90.2936 65.2076C90.0727 65.5634 89.784 65.8708 89.4444 66.1119C89.1048 66.3529 88.7213 66.5227 88.3162 66.6112C87.9111 66.6998 87.4926 66.7053 87.0854 66.6276C84.9866 66.223 82.5103 65.1437 81.8615 62.3454C81.4189 60.4363 81.267 59.0113 81.763 58.213C82.4517 57.1046 83.0419 55.9067 83.0419 55.9067C83.0419 55.9067 91.7469 56.0565 91.0092 62.3454Z" fill="#C6E9F2"/>
<path d="M102.665 49.4679C102.665 49.4679 100.895 61.5966 95.8206 63.5432C95.2605 63.7557 94.6721 63.8814 94.0752 63.916C90.9369 64.1017 87.3693 62.3497 86.0473 57.7034C84.4701 52.1631 87.1509 44.826 87.1509 44.826L95.8206 41.6815L96.0803 41.8552L100.549 44.826L102.665 49.4679Z" fill="#80D7F9"/>
<path d="M102.665 49.4677C102.413 51.1006 102.07 52.7178 101.64 54.3117C101.309 55.5598 100.909 56.7877 100.44 57.9893C99.369 60.704 97.8626 62.7599 95.8206 63.5431C95.2606 63.7556 94.6722 63.8813 94.0752 63.9159C91.1346 63.7452 87.8016 61.5396 86.5829 57.2541C85.0057 51.7138 84.96 44.6762 84.96 44.6762L96.0803 41.8551L100.549 44.8259L102.665 49.4677Z" fill="#E3EBED"/>
<path d="M98.5826 44.9339C98.2645 44.8758 97.952 44.7896 97.6487 44.6763C97.6487 44.6763 95.8781 43.3287 95.1404 44.3769C94.4027 45.425 92.3371 51.8637 85.255 51.8637L85.2034 52.0045L83.7796 55.9066C83.7796 55.9066 77.7303 51.2648 80.8287 43.6282C83.9271 35.9916 90.4191 37.4889 90.4191 37.4889C90.4191 37.4889 95.288 33.5958 99.1241 40.1842C101.885 44.9264 99.9076 45.169 98.5826 44.9339Z" fill="#292B35"/>
<path d="M104.735 48.2446C104.536 49.1401 103.612 49.8094 102.501 49.8783C101.245 49.9529 99.9847 49.9174 98.7344 49.772C98.4246 49.736 98.1428 49.6971 97.8934 49.6582C97.2782 49.5623 96.8946 49.0562 97.0702 48.5666C97.2013 48.1821 97.3058 47.7889 97.3829 47.3896C97.7318 45.6188 97.7127 43.7935 97.3269 42.0305L96.6983 39.0987L96.6157 38.7139C96.6157 38.7139 96.8311 38.6645 97.1911 38.6165C97.408 38.5896 97.6766 38.5626 97.982 38.5491C99.6846 38.4668 102.547 38.7663 103.987 41.3882C105.364 43.8963 105.097 46.6275 104.735 48.2446Z" fill="#292B35"/>
<path d="M63.3448 92.667C63.3448 92.667 56.484 98.5816 55.5988 109.512C54.7135 120.443 55.5988 141.556 55.5988 141.556" stroke="#2846CE" stroke-width="3.5349" stroke-miterlimit="10"/>
<path d="M53.961 95.9846L55.3126 96.7685C55.3891 96.8126 55.4459 96.8849 55.4714 96.9704C55.4969 97.0558 55.4892 97.1479 55.4497 97.2277C54.9373 98.2652 53.2378 101.952 52.4743 106.64C52.4331 106.892 52.3369 107.131 52.1925 107.34C52.0482 107.549 51.8595 107.723 51.6403 107.848C51.4211 107.973 51.1771 108.047 50.9261 108.064C50.6751 108.081 50.4235 108.04 50.19 107.946C50.1328 107.923 50.0847 107.881 50.0532 107.828C50.0216 107.774 50.0082 107.712 50.0152 107.65C50.1541 106.423 50.9497 100.238 53.2737 96.1712C53.3408 96.0543 53.4507 95.9691 53.5794 95.9342C53.7082 95.8992 53.8453 95.9173 53.961 95.9846Z" fill="#6CD6FF"/>
<path d="M92.1492 50.0143C92.4333 50.0604 92.7715 49.9643 93.1032 49.8875C93.4358 49.8041 93.7717 49.7274 94.0657 49.6696C94.3602 49.6115 94.7003 49.5548 95.0395 49.5058C95.3756 49.451 95.7263 49.4111 95.9691 49.2612C96.2042 49.1196 96.2568 48.8366 95.8957 48.5725C95.5544 48.3133 94.754 48.1161 93.7791 48.3062C92.8061 48.5001 92.1487 48.9847 91.9389 49.3525C91.7136 49.7323 91.8757 49.973 92.1492 50.0143ZM100.667 50.0968C100.786 50.2114 100.974 50.242 101.152 50.2843C101.334 50.3222 101.514 50.3658 101.67 50.4104C101.825 50.455 102.002 50.5138 102.176 50.5777C102.35 50.6366 102.526 50.7102 102.686 50.6755C102.84 50.6444 102.952 50.4612 102.865 50.1714C102.786 49.8908 102.473 49.5207 101.958 49.3715C101.443 49.2256 100.986 49.3749 100.774 49.5719C100.551 49.773 100.552 49.9886 100.667 50.0968Z" fill="#292B35"/>
<path d="M101.64 54.3119C101.309 55.56 100.909 56.7879 100.44 57.9894C100.388 57.3832 100.45 56.7726 100.622 56.1896C100.839 55.4304 101.204 54.7821 101.64 54.3119Z" fill="#86DBFC"/>
<path d="M103.224 54.2612C103.601 52.7244 103.108 51.2767 102.123 51.0276C101.137 50.7785 100.033 51.8223 99.6557 53.3591C99.2784 54.8959 99.7715 56.3437 100.757 56.5928C101.742 56.8419 102.847 55.798 103.224 54.2612Z" stroke="#1F317F" stroke-width="2.3566" stroke-miterlimit="10"/>
<path d="M98.9766 55.0083L99.4192 56.3559C99.4192 56.3559 99.9466 55.8584 99.6282 55.3452C99.4192 55.0083 98.9766 55.0083 98.9766 55.0083Z" fill="#C9C9C9"/>
<path d="M99.0703 56.804C99.058 56.8044 99.0454 56.8043 99.0328 56.8038L98.5407 56.7833C98.5128 56.7789 98.4876 56.7638 98.4703 56.7411C98.453 56.7184 98.445 56.6898 98.4478 56.6613C98.4489 56.5961 98.4946 56.5405 98.5444 56.547L99.0364 56.5675C99.1806 56.5742 99.316 56.4917 99.4218 56.3379C99.539 56.1544 99.6006 55.9401 99.5991 55.7214L99.6003 55.6516C99.6031 55.4669 99.5155 55.3126 99.4049 55.3079C99.2403 55.301 99.0884 55.198 98.9771 55.0182C98.8655 54.8272 98.8101 54.6078 98.8174 54.3859L98.8378 53.3894C98.8366 53.3614 98.846 53.334 98.864 53.3129C98.8821 53.2917 98.9075 53.2784 98.935 53.2758C98.9629 53.2804 98.988 53.2957 99.0051 53.3185C99.0223 53.3413 99.0302 53.3699 99.0273 53.3984L99.0068 54.3943C99.0008 54.5629 99.0423 54.7297 99.1266 54.8751C99.2021 54.9975 99.3023 55.0672 99.4087 55.0716C99.6239 55.0808 99.7947 55.3445 99.7897 55.6593L99.7885 55.7291C99.7897 56.0003 99.7125 56.2659 99.5664 56.493C99.4321 56.6887 99.2573 56.7979 99.0703 56.804Z" fill="#6DD6FF"/>
<path d="M91.45 58.3845C93.087 58.0465 94.1176 56.2944 93.7521 54.4711C93.3866 52.6477 91.7632 51.4436 90.1263 51.7816C88.4894 52.1196 87.4587 53.8717 87.8242 55.695C88.1897 57.5184 89.8131 58.7225 91.45 58.3845Z" fill="#86DBFC"/>
<path d="M97.5971 53.6014C97.9077 51.8378 96.8744 50.175 95.2891 49.8874C93.7038 49.5999 92.1669 50.7965 91.8563 52.5601C91.5457 54.3237 92.5791 55.9865 94.1644 56.2741C95.7497 56.5616 97.2866 55.365 97.5971 53.6014Z" stroke="#1F317F" stroke-width="2.3566" stroke-miterlimit="10"/>
<path d="M97.6484 53.5109C97.6484 53.5109 99.2764 52.9122 99.569 53.8105" stroke="#1F317F" stroke-width="2.3566" stroke-miterlimit="10"/>
<path d="M97.2551 59.5503C97.2551 59.5503 94.9928 59.201 94.1075 58.4523C94.1075 58.4523 93.5173 61.2973 94.6977 61.2973C95.878 61.2973 97.2551 59.5503 97.2551 59.5503Z" fill="#6DD6FF"/>
<path d="M91.8944 52.1631L85.9927 51.7139" stroke="#1F317F" stroke-width="2.3566" stroke-miterlimit="10"/>
<path d="M95.781 53.2232C95.7261 53.6584 95.4061 53.9755 95.0662 53.9314C94.7263 53.8873 94.4952 53.4986 94.55 53.0634C94.6049 52.6281 94.9249 52.311 95.2648 52.3552C95.6047 52.3993 95.8358 52.7878 95.781 53.2232Z" fill="#292B35"/>
<path d="M94.8455 52.7621C94.6582 52.6589 94.5045 52.5029 94.4028 52.3129C94.4028 52.3129 94.4801 52.7097 94.589 52.8856C94.6979 53.0616 94.8455 52.7621 94.8455 52.7621ZM100.301 53.6697C100.217 54.0756 100.373 54.4677 100.649 54.5454C100.924 54.6231 101.216 54.3569 101.3 53.9509C101.384 53.5449 101.229 53.1527 100.953 53.0751C100.677 52.9974 100.385 53.2635 100.301 53.6697Z" fill="#292B35"/>
<path d="M101.159 53.5814C101.339 53.5524 101.505 53.4657 101.632 53.3341C101.632 53.3341 101.457 53.6605 101.322 53.7795C101.186 53.8986 101.159 53.5814 101.159 53.5814Z" fill="#292B35"/>
<path d="M86.4997 49.7949C86.4997 49.7949 83.6553 44.3968 85.884 40.2747C85.884 40.2747 84.2966 45.2081 86.4997 49.7949ZM90.3175 48.2042C90.3175 48.2042 86.06 43.8679 87.0226 39.2687C87.0226 39.2687 86.9046 44.457 90.3175 48.2042Z" fill="#363944"/>
<mask id="mask2_330_3604" style="mask-type:luminance" maskUnits="userSpaceOnUse" x="84" y="42" width="15" height="11">
<path style="mix-blend-mode:multiply" d="M98.5826 44.9338C98.2645 44.8758 97.952 44.7896 97.6487 44.6763C97.6487 44.6763 95.8781 43.3287 95.1404 44.3768C94.4027 45.425 92.3371 51.8637 85.255 51.8637L85.2034 52.0044C84.6781 51.7783 84.836 51.6061 86.2878 51.5642C91.4518 51.4145 93.3699 44.5266 95.1404 42.8795C96.911 41.2323 98.3436 43.3601 98.3436 43.3601L98.5826 44.9338Z" fill="url(#paint4_linear_330_3604)"/>
</mask>
<g mask="url(#mask2_330_3604)">
<path style="mix-blend-mode:multiply" opacity="0.6" d="M98.5826 44.9338C98.2645 44.8758 97.952 44.7896 97.6487 44.6763C97.6487 44.6763 95.8781 43.3287 95.1404 44.3768C94.4027 45.425 92.3371 51.8637 85.255 51.8637L85.2034 52.0044C84.6781 51.7783 84.836 51.6061 86.2878 51.5642C91.4518 51.4145 93.3699 44.5266 95.1404 42.8795C96.911 41.2323 98.3436 43.3601 98.3436 43.3601L98.5826 44.9338Z" fill="url(#paint5_linear_330_3604)"/>
</g>
<mask id="mask3_330_3604" style="mask-type:luminance" maskUnits="userSpaceOnUse" x="96" y="38" width="5" height="12">
<path style="mix-blend-mode:multiply" d="M98.9764 49.3181C98.8982 49.4783 98.8171 49.6295 98.7344 49.7718C98.4246 49.7359 98.1428 49.6969 97.8934 49.658C97.2782 49.5622 96.8946 49.056 97.0702 48.5664C97.2013 48.182 97.3058 47.7887 97.3829 47.3895C97.7318 45.6186 97.7127 43.7933 97.3269 42.0304L96.6157 38.6867C96.7913 38.4876 97.0392 38.7361 97.1911 38.6164C97.532 38.3483 97.8034 38.2929 97.9731 38.537C97.9731 38.537 97.9761 38.5415 97.982 38.549C98.193 38.811 101.843 43.4993 98.9764 49.3181Z" fill="url(#paint6_linear_330_3604)"/>
</mask>
<g mask="url(#mask3_330_3604)">
<path style="mix-blend-mode:multiply" opacity="0.6" d="M98.9764 49.3181C98.8982 49.4783 98.8171 49.6295 98.7344 49.7718C98.4246 49.7359 98.1428 49.6969 97.8934 49.658C97.2782 49.5622 96.8946 49.056 97.0702 48.5664C97.2013 48.182 97.3058 47.7887 97.3829 47.3895C97.7318 45.6186 97.7127 43.7933 97.3269 42.0304L96.6157 38.6867C96.7913 38.4876 97.0392 38.7361 97.1911 38.6164C97.532 38.3483 97.8034 38.2929 97.9731 38.537C97.9731 38.537 97.9761 38.5415 97.982 38.549C98.193 38.811 101.843 43.4993 98.9764 49.3181Z" fill="url(#paint7_linear_330_3604)"/>
</g>
<path d="M86.1934 51.5207C86.1934 51.5207 85.2664 49.1294 83.1094 50.0254C80.9524 50.9214 81.2009 54.642 82.964 56.3171C84.7271 57.9923 86.4018 56.022 86.4018 56.022L86.1934 51.5207Z" fill="#E3EBED"/>
<path d="M84.0578 54.9785C84.1294 54.9755 84.197 54.9441 84.246 54.8909L85.3821 53.685L83.7335 51.8088C83.7087 51.7792 83.678 51.7553 83.6435 51.7386C83.609 51.7219 83.5713 51.7128 83.5331 51.7119C83.4948 51.711 83.4568 51.7183 83.4215 51.7333C83.3863 51.7483 83.3545 51.7708 83.3284 51.7991C83.2735 51.8592 83.2425 51.9378 83.2412 52.0198C83.24 52.1017 83.2688 52.1812 83.3218 52.243L84.5729 53.6668L83.8462 54.4388C83.7914 54.499 83.7605 54.5776 83.7595 54.6596C83.7585 54.7416 83.7875 54.821 83.8409 54.8825C83.8677 54.9139 83.9011 54.9387 83.9387 54.9553C83.9762 54.9719 84.0168 54.9798 84.0578 54.9785Z" fill="#6DD6FF"/>
<path d="M79.5929 78.6975L78.6716 73.6139L81.1486 78.6975H79.5929Z" fill="#3759EF"/>
<path d="M79.3219 66.1588C79.3219 66.1588 80.785 69.4585 78.6716 73.5831L79.4845 76.1557C79.4845 76.1557 80.4599 76.3878 81.1101 73.5831L79.8909 74.188C79.8909 74.188 81.2727 70.7784 79.3219 66.1588ZM96.2288 71.7683C96.2288 71.7683 97.3668 77.2127 96.7165 78.6976H98.5047C98.5047 78.6976 97.5293 73.9131 96.2288 71.7683Z" fill="#3759EF"/>
<path fill-rule="evenodd" clip-rule="evenodd" d="M135.326 73.5828V83.2343L129.392 89.2562H106.633V80.8305C106.633 79.9004 106.813 78.9794 107.164 78.12C107.515 77.2607 108.029 76.4799 108.677 75.8222C109.325 75.1645 110.094 74.6428 110.941 74.2869C111.788 73.9309 112.695 73.7477 113.612 73.7478H126.466L135.326 73.5828Z" fill="#1E328C"/>
<path fill-rule="evenodd" clip-rule="evenodd" d="M135.326 73.8088V83.2344L129.392 89.2563H109.884V80.9955C109.884 80.0654 110.065 79.1444 110.415 78.2851C110.766 77.4257 111.28 76.6449 111.928 75.9872C112.576 75.3295 113.346 74.8078 114.193 74.4519C115.039 74.096 115.947 73.9128 116.863 73.9128H129.717L135.326 73.8088Z" fill="#2B41A3"/>
<path d="M154.01 97.234V116.251C151.03 115.375 148.383 113.738 146.558 112.396C145.725 111.789 144.926 111.135 144.164 110.438C144.057 110.339 143.995 110.278 143.98 110.264L143.977 110.261C143.977 110.261 143.828 110.688 143.593 111.407C143.253 112.446 142.729 114.094 142.206 115.951C141.476 118.546 141.911 120.892 141.911 120.892H111.075C99.1238 116.7 100.009 101.726 106.353 92.2927C112.792 82.7185 123.764 80.6132 123.764 80.6132L125.829 81.0624L140.583 82.5597C140.583 82.5597 145.01 85.4048 146.928 87.3513C148.846 89.2979 154.01 97.234 154.01 97.234Z" fill="#44C7FA"/>
<path d="M129.223 74.6239L128.633 80.7631C128.633 80.7631 129.371 86.3034 133.059 86.4531C136.748 86.6029 138.076 85.405 138.666 84.6563L139.256 77.4689L129.223 74.6239Z" fill="#C6E9F2"/>
<path d="M141.027 58.7517L143.071 64.8909L139.204 61.6512L141.027 58.7517Z" fill="#03135A"/>
<path d="M124.052 63.9644C124.052 63.9644 120.518 63.6926 120.813 67.1366C121.108 70.5806 126.567 73.2758 126.567 73.2758L127.452 72.0779L124.052 63.9644Z" fill="#03135A"/>
<path d="M138.961 80.1638C138.961 80.1638 139.108 83.7575 136.812 85.9772C136.812 85.9772 138.574 87.8966 139.695 89.4276C139.769 89.5297 139.868 89.6113 139.981 89.6652C140.095 89.7191 140.219 89.7436 140.344 89.7364C140.469 89.7292 140.591 89.6906 140.697 89.624C140.804 89.5574 140.892 89.465 140.955 89.355C141.59 88.2236 141.94 85.1426 141.469 82.5596L138.961 80.1638Z" fill="#4968F2"/>
<path d="M145.895 75.9714C144.842 81.3161 135.42 84.8059 129.223 74.6238C123.795 65.7051 126.272 58.9014 131.583 58.3024C136.895 57.7035 140.436 59.5003 140.436 59.5003C140.436 59.5003 141.826 61.9904 143.133 65.0361C143.804 66.6023 144.455 68.3153 144.883 69.9115C145.386 71.7818 146.338 73.7254 145.895 75.9714Z" fill="#E3EBED"/>
<path d="M128.749 71.4713C128.749 71.4713 127.052 69.8044 125.524 71.4713C123.996 73.1382 125.693 76.2868 127.9 77.0276C130.107 77.7684 130.786 75.3607 130.786 75.3607L128.749 71.4713Z" fill="#E3EBED"/>
<path d="M127.452 72.078C127.452 72.078 125.682 66.6875 126.42 66.6875C127.157 66.6875 141.026 63.3933 139.846 58.9012C138.666 54.409 134.092 56.2059 134.092 56.2059C134.092 56.2059 117.124 60.0991 127.452 72.078Z" fill="#03135A"/>
<path d="M123.026 64.8908C123.026 64.8908 120.37 59.9495 125.387 57.5537C130.403 55.1579 129.371 55.7568 131.141 52.7621C132.912 49.7673 137.78 50.0668 138.961 52.7621C140.141 55.4573 138.518 58.1526 138.518 58.1526L123.026 64.8908Z" fill="#03135A"/>
<path d="M137.042 55.851C137.042 55.851 141.069 52.78 142.059 55.9065C143.387 60.0991 137.042 62.9224 137.042 62.9224V55.851Z" fill="#03135A"/>
<path d="M141.502 72.0946C141.482 72.1045 141.46 72.114 141.439 72.1228L140.595 72.4662C140.573 72.4749 140.55 72.4792 140.527 72.479C140.505 72.4787 140.482 72.4739 140.461 72.4647C140.44 72.4556 140.42 72.4423 140.404 72.4256C140.388 72.4089 140.376 72.3892 140.367 72.3676C140.358 72.3459 140.354 72.3228 140.354 72.2995C140.355 72.2761 140.359 72.2531 140.368 72.2316C140.377 72.2102 140.39 72.1907 140.407 72.1744C140.423 72.1581 140.443 72.1452 140.464 72.1365L141.308 71.7931C141.556 71.6934 141.737 71.477 141.827 71.1842C141.92 70.8584 141.9 70.5101 141.77 70.1974L141.732 70.1C141.63 69.8422 141.392 69.695 141.202 69.7721C141.058 69.8283 140.902 69.8505 140.748 69.8371C140.594 69.8236 140.444 69.7749 140.311 69.6945C140.021 69.5244 139.796 69.2582 139.675 68.9404L139.133 67.5463C139.118 67.5023 139.12 67.4541 139.138 67.4114C139.156 67.3686 139.19 67.3344 139.232 67.3157C139.275 67.2985 139.323 67.2993 139.366 67.318C139.409 67.3368 139.442 67.3719 139.459 67.4157L140.001 68.8089C140.091 69.0506 140.261 69.2535 140.481 69.3837C140.569 69.4381 140.668 69.4716 140.77 69.4818C140.873 69.4919 140.976 69.4784 141.072 69.4423C141.441 69.2924 141.883 69.5281 142.057 69.9675L142.095 70.0649C142.254 70.4535 142.278 70.8857 142.161 71.2896C142.113 71.4633 142.03 71.6247 141.916 71.7634C141.803 71.9021 141.662 72.015 141.502 72.0946Z" fill="#6DD6FF"/>
<path d="M131.83 67.3325C132.104 67.2674 132.371 67.0503 132.641 66.8535C132.908 66.6502 133.181 66.4519 133.423 66.287C133.666 66.1216 133.95 65.9402 134.237 65.7663C134.519 65.5881 134.819 65.4183 134.98 65.1876C135.136 64.9675 135.073 64.6857 134.645 64.5782C134.236 64.4678 133.438 64.5889 132.633 65.1343C131.832 65.6826 131.428 66.3801 131.382 66.7999C131.327 67.2367 131.567 67.3979 131.83 67.3325ZM139.055 65.133C139.281 65.1787 139.558 65.1187 139.828 65.0731C140.099 65.0225 140.373 64.9771 140.612 64.9445C140.852 64.9116 141.128 64.8816 141.403 64.8573C141.675 64.8285 141.959 64.8115 142.162 64.7072C142.358 64.6088 142.414 64.3963 142.137 64.1824C141.876 63.973 141.243 63.7932 140.451 63.9003C139.659 64.0104 139.107 64.3527 138.92 64.6234C138.72 64.9028 138.838 65.0913 139.055 65.133ZM136.069 68.9607C136.242 69.4177 136.096 69.9001 135.742 70.0383C135.387 70.1764 134.96 69.9177 134.787 69.4607C134.614 69.0036 134.761 68.5211 135.115 68.3831C135.469 68.245 135.896 68.5035 136.069 68.9607ZM141.776 66.8644C141.915 67.333 141.734 67.8033 141.371 67.9146C141.007 68.0259 140.6 67.7361 140.46 67.2674C140.321 66.7987 140.502 66.3284 140.865 66.2172C141.229 66.1058 141.636 66.3955 141.776 66.8644Z" fill="#273470"/>
<path d="M132.395 75.5221C134.066 75.5221 135.42 74.1478 135.42 72.4525C135.42 70.7571 134.066 69.3828 132.395 69.3828C130.725 69.3828 129.371 70.7571 129.371 72.4525C129.371 74.1478 130.725 75.5221 132.395 75.5221Z" fill="#86DBFC"/>
<path d="M144.883 69.9116C144.384 69.8015 143.921 69.5652 143.536 69.2245C143.152 68.8838 142.859 68.4499 142.684 67.9632C142.509 67.4765 142.459 66.9529 142.537 66.4411C142.616 65.9293 142.821 65.4459 143.133 65.0361C143.804 66.6024 144.455 68.3154 144.883 69.9116Z" fill="#86DBFC"/>
<path d="M127.452 65.9389C127.452 65.9389 126.151 69.2588 128.425 73.738L125.392 68.8066L125.624 64.1827L127.452 65.9389Z" fill="#03135A"/>
<path d="M133.944 84.057L133.059 86.4528L134.656 92.7328C134.823 93.3915 135.762 93.3397 135.858 92.6664L137.043 84.3565L133.944 84.057Z" fill="#C6E9F2"/>
<path d="M129.283 80.8548C129.89 82.5451 131.085 85.1171 133.059 86.4528C133.059 86.4528 132.055 88.4912 129.632 89.2886C128.63 89.6187 127.53 89.1995 126.958 88.3008C126.046 86.8676 124.706 84.2683 124.059 80.6131C124.059 80.6131 124.944 78.6665 128.91 77.8807C128.813 78.8879 128.941 79.9042 129.283 80.8548Z" fill="#4968F2"/>
<mask id="mask4_330_3604" style="mask-type:luminance" maskUnits="userSpaceOnUse" x="144" y="99" width="11" height="18">
<path style="mix-blend-mode:multiply" d="M154.305 110.462V116.251C148.786 114.629 144.411 110.396 144.275 110.264L144.272 110.261L147.371 99.9294C149.65 104.748 151.731 107.511 154.305 110.462Z" fill="url(#paint8_linear_330_3604)"/>
</mask>
<g mask="url(#mask4_330_3604)">
<path opacity="0.6" d="M154.305 110.462V116.251C148.786 114.629 144.411 110.396 144.275 110.264L144.272 110.261L147.371 99.9294C149.65 104.748 151.731 107.511 154.305 110.462Z" fill="url(#paint9_linear_330_3604)"/>
</g>
<path d="M127.889 75.6422C127.937 75.6174 127.973 75.5746 127.99 75.5231L128.387 74.3456L126.692 73.5988C126.666 73.5866 126.638 73.5802 126.61 73.5798C126.581 73.5795 126.553 73.5853 126.526 73.5968C126.5 73.6084 126.477 73.6254 126.458 73.6468C126.438 73.6682 126.424 73.6935 126.415 73.721C126.396 73.7791 126.399 73.8422 126.424 73.898C126.448 73.9539 126.492 73.9986 126.547 74.0236L127.834 74.5903L127.58 75.3439C127.561 75.4021 127.564 75.4651 127.589 75.521C127.614 75.5768 127.658 75.6214 127.713 75.6461C127.741 75.6587 127.771 75.665 127.802 75.6643C127.832 75.6636 127.862 75.6561 127.889 75.6422Z" fill="#6DD6FF"/>
<path d="M108.419 111.01C108.419 111.01 111.37 108.165 116.991 109.513C123.965 111.185 128.338 116.101 128.338 117.149C128.338 117.149 129.286 116.201 127.453 113.855C124.059 109.513 111.37 105.32 108.419 111.01ZM120.666 89.298C120.666 89.298 121.403 92.7419 120.666 96.4854C119.837 100.69 116.387 106.218 116.387 106.218L115.797 103.748C115.797 103.748 120.223 98.1325 120.666 89.298Z" fill="#4968F2"/>
<mask id="mask5_330_3604" style="mask-type:luminance" maskUnits="userSpaceOnUse" x="125" y="111" width="19" height="10">
<path style="mix-blend-mode:multiply" d="M143.594 111.407C143.253 112.446 142.729 114.095 142.207 115.951C141.476 118.546 141.912 120.893 141.912 120.893H125.871C136.802 119.331 141.603 114.479 143.594 111.407Z" fill="url(#paint10_linear_330_3604)"/>
</mask>
<g mask="url(#mask5_330_3604)">
<path opacity="0.6" d="M143.594 111.407C143.253 112.446 142.729 114.095 142.207 115.951C141.476 118.546 141.912 120.893 141.912 120.893H125.871C136.802 119.331 141.603 114.479 143.594 111.407Z" fill="url(#paint11_linear_330_3604)"/>
</g>
<mask id="mask6_330_3604" style="mask-type:luminance" maskUnits="userSpaceOnUse" x="144" y="108" width="3" height="5">
<path style="mix-blend-mode:multiply" d="M146.558 112.396C145.725 111.789 144.926 111.135 144.165 110.438C144.709 109.421 144.883 108.764 144.883 108.764L146.558 112.396Z" fill="url(#paint12_linear_330_3604)"/>
</mask>
<g mask="url(#mask6_330_3604)">
<path d="M146.558 112.396C145.725 111.789 144.926 111.135 144.165 110.438C144.709 109.421 144.883 108.764 144.883 108.764L146.558 112.396Z" fill="url(#paint13_linear_330_3604)"/>
</g>
<path d="M142.56 74.5729C142.56 74.5729 140.447 75.7278 138.496 75.0678C138.723 75.4262 139.036 75.7201 139.406 75.9221C139.776 76.1241 140.19 76.2276 140.609 76.2227C142.398 76.2227 142.56 74.5729 142.56 74.5729Z" fill="#6DD6FF"/>
<path d="M151.355 120.893H147.325C147.254 120.893 147.183 120.878 147.117 120.851C147.051 120.823 146.991 120.782 146.94 120.731C146.89 120.68 146.849 120.619 146.822 120.552C146.795 120.484 146.781 120.413 146.781 120.34V119.275C146.781 119.229 146.787 119.184 146.798 119.139C146.825 119.033 146.882 118.937 146.962 118.864C147.042 118.791 147.142 118.744 147.248 118.729L151.269 118.151L151.281 118.534L151.355 120.893Z" fill="#223899"/>
<path d="M151.281 118.534L151.207 118.647L146.798 119.139C146.825 119.033 146.881 118.937 146.962 118.864C147.042 118.791 147.142 118.744 147.248 118.729L151.269 118.151L151.281 118.534Z" fill="#2E45AA"/>
<path d="M153.624 93.5438L151.207 118.646H186.47L189.568 92.5919H154.658C154.4 92.5919 154.151 92.6894 153.96 92.8654C153.768 93.0413 153.649 93.2832 153.624 93.5438Z" fill="#435FDD"/>
<path d="M190.931 93.5308L187.945 118.646H152.682L155.19 92.5919H190.112C190.229 92.592 190.345 92.6172 190.451 92.6659C190.557 92.7146 190.653 92.7857 190.73 92.8744C190.807 92.9631 190.865 93.0675 190.9 93.1807C190.935 93.2938 190.945 93.4131 190.931 93.5308Z" fill="#4C6AED"/>
<path opacity="0.6" d="M190.931 93.5308L187.945 118.646H155.993C177.766 112.508 184.301 96.5495 185.61 92.5919H190.113C190.229 92.592 190.345 92.6172 190.451 92.6659C190.558 92.7146 190.653 92.7857 190.73 92.8744C190.807 92.9631 190.865 93.0675 190.9 93.1807C190.935 93.2938 190.946 93.4131 190.931 93.5308Z" fill="url(#paint14_linear_330_3604)"/>
<path opacity="0.7" d="M176.056 105.735C176.253 103.897 175.281 102.282 173.886 102.128C172.491 101.974 171.2 103.339 171.003 105.177C170.806 107.015 171.777 108.63 173.173 108.784C174.568 108.938 175.859 107.573 176.056 105.735Z" fill="#FDFDFD"/>
<path d="M188.535 119.32V119.769C188.535 120.067 188.419 120.353 188.211 120.563C188.004 120.774 187.722 120.892 187.429 120.892H151.871C151.616 120.892 151.369 120.803 151.171 120.639C150.973 120.475 150.838 120.248 150.786 119.994C150.771 119.92 150.764 119.845 150.764 119.769V119.32C150.764 119.022 150.881 118.737 151.088 118.526C151.296 118.316 151.577 118.197 151.871 118.197H187.429C187.722 118.197 188.004 118.316 188.211 118.526C188.419 118.737 188.535 119.022 188.535 119.32Z" fill="#2B41A5"/>
<path d="M186.175 118.422V118.871C186.174 119.169 186.058 119.454 185.85 119.665C185.643 119.876 185.361 119.994 185.068 119.994H150.786C150.771 119.92 150.764 119.845 150.764 119.769V119.32C150.764 119.022 150.881 118.737 151.088 118.526C151.296 118.316 151.577 118.197 151.871 118.197H186.152C186.167 118.271 186.175 118.346 186.175 118.422Z" fill="#3048B5"/>
<path d="M116.991 78.6664H76.684C75.5508 78.6664 74.6321 79.5987 74.6321 80.7488V107.43C74.6321 108.58 75.5508 109.512 76.684 109.512H116.991C118.124 109.512 119.043 108.58 119.043 107.43V80.7488C119.043 79.5987 118.124 78.6664 116.991 78.6664Z" fill="#3E5AD6"/>
<path d="M117.42 80.1802V107.998C117.419 108.4 117.262 108.785 116.982 109.069C116.703 109.353 116.323 109.512 115.928 109.512H74.5007C74.1051 109.512 73.7258 109.353 73.4461 109.069C73.1664 108.785 73.0092 108.4 73.009 107.998V80.1802C73.0088 79.9814 73.0473 79.7844 73.1222 79.6007C73.1971 79.4169 73.3069 79.2499 73.4455 79.1093C73.584 78.9687 73.7486 78.8572 73.9296 78.7812C74.1107 78.7052 74.3048 78.6662 74.5007 78.6664H115.928C116.124 78.6663 116.318 78.7055 116.499 78.7815C116.68 78.8576 116.844 78.9691 116.983 79.1097C117.121 79.2503 117.231 79.4172 117.306 79.6009C117.381 79.7845 117.42 79.9814 117.42 80.1802Z" fill="#4C6AED"/>
<path opacity="0.6" d="M85.8452 100.678L83.1895 109.512H84.96L85.8452 100.678Z" fill="url(#paint15_linear_330_3604)"/>
<path opacity="0.6" d="M102.813 100.678H107.682L115.207 109.512H98.6816L102.813 100.678Z" fill="url(#paint16_linear_330_3604)"/>
<path d="M87.0253 100.678L83.9824 118.049C83.9214 118.397 83.9363 118.755 84.0262 119.096C84.116 119.438 84.2785 119.756 84.5023 120.027C84.7261 120.298 85.0058 120.516 85.3216 120.665C85.6373 120.815 85.9816 120.893 86.33 120.893H99.5665L102.812 100.678H87.0253Z" fill="#4059C6"/>
<path d="M85.8451 100.678L82.8022 118.049C82.7412 118.397 82.7561 118.755 82.846 119.096C82.9358 119.438 83.0984 119.756 83.3222 120.027C83.546 120.298 83.8256 120.516 84.1414 120.665C84.4572 120.815 84.8014 120.893 85.1499 120.893H98.3863L101.632 100.678H85.8451Z" fill="#3048B5"/>
<path d="M98.0913 118.497H110.033C110.527 118.497 110.928 119.033 110.928 119.695C110.928 120.356 110.527 120.893 110.033 120.893H98.0913V118.497Z" fill="#3048B5"/>
<path opacity="0.55" d="M116.559 78.8086L110.337 85.2548H77.4351C77.4351 85.2548 74.8472 80.6085 73.7598 78.8655C73.9852 78.7343 74.2406 78.6656 74.5004 78.6664H115.928C116.146 78.666 116.362 78.7146 116.559 78.8086Z" fill="url(#paint17_linear_330_3604)"/>
<path d="M103.55 89.4478H84.6649C84.5084 89.4478 84.3582 89.3847 84.2476 89.2723C84.1369 89.16 84.0747 89.0077 84.0747 88.8488C84.0747 88.69 84.1369 88.5376 84.2476 88.4253C84.3582 88.313 84.5084 88.2499 84.6649 88.2499H103.55C103.707 88.2499 103.857 88.313 103.968 88.4253C104.078 88.5376 104.141 88.69 104.141 88.8488C104.141 89.0077 104.078 89.16 103.968 89.2723C103.857 89.3847 103.707 89.4478 103.55 89.4478ZM103.55 91.9933H84.6649C84.5084 91.9933 84.3582 91.9302 84.2476 91.8179C84.1369 91.7056 84.0747 91.5532 84.0747 91.3944C84.0747 91.2355 84.1369 91.0832 84.2476 90.9708C84.3582 90.8585 84.5084 90.7954 84.6649 90.7954H103.55C103.707 90.7954 103.857 90.8585 103.968 90.9708C104.078 91.0832 104.141 91.2355 104.141 91.3944C104.141 91.5532 104.078 91.7056 103.968 91.8179C103.857 91.9302 103.707 91.9933 103.55 91.9933ZM103.55 94.5388H84.6649C84.5084 94.5388 84.3582 94.4757 84.2476 94.3634C84.1369 94.2511 84.0747 94.0987 84.0747 93.9399C84.0747 93.781 84.1369 93.6287 84.2476 93.5164C84.3582 93.4041 84.5084 93.3409 84.6649 93.3409H103.55C103.707 93.3409 103.857 93.4041 103.968 93.5164C104.078 93.6287 104.141 93.781 104.141 93.9399C104.141 94.0987 104.078 94.2511 103.968 94.3634C103.857 94.4757 103.707 94.5388 103.55 94.5388ZM103.55 96.9346H84.6649C84.5084 96.9346 84.3582 96.8715 84.2476 96.7592C84.1369 96.6469 84.0747 96.4945 84.0747 96.3357C84.0747 96.1768 84.1369 96.0245 84.2476 95.9122C84.3582 95.7999 84.5084 95.7367 84.6649 95.7367H103.55C103.707 95.7367 103.857 95.7999 103.968 95.9122C104.078 96.0245 104.141 96.1768 104.141 96.3357C104.141 96.4945 104.078 96.6469 103.968 96.7592C103.857 96.8715 103.707 96.9346 103.55 96.9346Z" fill="#627DF4"/>
<path d="M84.3698 124.786H71.386V141.556H84.3698V124.786Z" fill="#274CF2"/>
<path d="M187.798 124.786H84.3696V141.556H187.798V124.786Z" fill="#38D2FC"/>
<path d="M191.697 124.786H84.2603V141.556H191.697V124.786Z" fill="#38D2FC"/>
<path d="M198.947 123.588C198.946 123.944 198.874 124.297 198.735 124.625C198.597 124.952 198.394 125.248 198.139 125.494C197.614 126.003 196.915 126.286 196.188 126.283H68.9807C67.4572 126.283 66.2219 125.076 66.2219 123.588C66.2229 123.231 66.295 122.879 66.4338 122.551C66.5726 122.223 66.7753 121.928 67.0296 121.682C67.5551 121.173 68.2543 120.89 68.9807 120.893H196.188C197.712 120.893 198.947 122.099 198.947 123.588Z" fill="#55D5F9"/>
<path d="M192.663 120.893C192.662 121.249 192.59 121.602 192.452 121.929C192.313 122.257 192.11 122.553 191.856 122.799C191.33 123.308 190.631 123.591 189.905 123.588H66.2219C66.2229 123.231 66.295 122.879 66.4338 122.551C66.5726 122.223 66.7753 121.928 67.0296 121.682C67.5551 121.173 68.2543 120.89 68.9807 120.893H192.663Z" fill="#70E0FF"/>
<path opacity="0.6" d="M82.7469 120.893V126.283H68.6403C67.3048 126.283 66.222 125.076 66.222 123.588C66.2168 122.885 66.4692 122.206 66.93 121.682C67.1448 121.436 67.408 121.239 67.7026 121.103C67.9972 120.967 68.3167 120.895 68.6403 120.893H82.7469Z" fill="#38D2FC"/>
<path d="M123.052 120.933C123.052 120.933 125.103 114.501 132.186 114.501C139.27 114.501 138.524 117.717 137.965 118.285C137.406 118.852 123.052 120.933 123.052 120.933Z" fill="#C9C9C9"/>
<path d="M140.934 119.448V120.933H127.397V120.577C127.558 120.224 127.856 119.839 128.262 119.448C129.786 117.988 132.848 116.479 136.057 116.479C137.79 116.479 138.933 117.02 139.673 117.64C140.668 118.472 140.934 119.448 140.934 119.448Z" fill="#2E45AA"/>
<path d="M139.796 117.964C139.796 118.159 139.758 118.352 139.685 118.532C139.611 118.712 139.504 118.876 139.368 119.014C139.232 119.151 139.071 119.261 138.893 119.335C138.716 119.41 138.525 119.448 138.333 119.448H128.262C129.785 117.988 132.848 116.479 136.057 116.479C137.79 116.479 138.933 117.02 139.673 117.64C139.721 117.745 139.763 117.853 139.796 117.964Z" fill="#223899"/>
<g style="mix-blend-mode:multiply" opacity="0.47">
<path d="M188.262 120.248C189.279 119.509 190.389 120.561 190.436 121.662C190.485 122.816 189.79 123.919 189.003 124.671C187.273 126.326 184.581 126.434 182.359 126.616C177.427 127.018 172.474 126.033 167.558 126.643C165.493 126.9 163.46 127.442 161.623 128.473C159.802 129.496 158.212 130.971 156.276 131.772C154.659 132.441 152.669 132.551 150.949 132.341C149.037 132.106 147.215 131.387 145.649 130.25C143.736 128.843 142.56 126.873 141.548 124.73C140.617 122.76 139.35 120.637 137.069 120.267C136.455 120.168 136.191 121.139 136.81 121.24C139.449 121.668 140.323 124.616 141.42 126.724C142.391 128.589 143.808 130.227 145.529 131.382C148.711 133.518 153.351 134.182 156.882 132.596C158.969 131.658 160.676 130.035 162.724 129.023C165.112 127.844 167.809 127.502 170.428 127.466C175.858 127.391 181.441 128.42 186.793 126.977C188.965 126.391 191.122 124.621 191.385 122.173C191.496 121.144 191.182 120.102 190.347 119.485C189.581 118.918 188.559 118.803 187.77 119.377C187.26 119.748 187.747 120.623 188.262 120.248Z" fill="#A0A0A0"/>
</g>
<path d="M188.587 119.895C189.604 119.17 190.714 120.202 190.761 121.283C190.811 122.415 190.115 123.497 189.328 124.236C187.598 125.859 184.906 125.966 182.684 126.144C177.752 126.539 172.799 125.572 167.884 126.171C165.818 126.423 163.785 126.955 161.948 127.967C160.128 128.971 158.537 130.419 156.601 131.205C154.984 131.861 152.994 131.969 151.274 131.763C149.393 131.538 147.517 130.825 145.974 129.711C144.061 128.33 142.885 126.397 141.873 124.294C140.942 122.36 139.675 120.276 137.395 119.913C136.781 119.816 136.516 120.769 137.135 120.868C139.774 121.288 140.648 124.182 141.745 126.25C142.716 128.081 144.133 129.688 145.854 130.822C149.036 132.918 153.676 133.57 157.207 132.013C159.294 131.093 161.001 129.5 163.049 128.507C165.437 127.35 168.134 127.014 170.753 126.979C176.184 126.905 181.766 127.915 187.118 126.499C189.29 125.924 191.447 124.186 191.711 121.784C191.821 120.774 191.507 119.752 190.672 119.146C189.906 118.59 188.885 118.477 188.095 119.04C187.585 119.404 188.072 120.263 188.587 119.895Z" fill="#223899"/>
<path d="M137.643 116.479C137.643 116.479 138.008 117.545 136.627 118.497C135.245 119.448 127.442 120.933 127.442 120.933H123.052C123.052 120.933 131.912 114.829 137.643 116.479Z" fill="#C9C9C9"/>
<defs>
<linearGradient id="paint0_linear_330_3604" x1="118.495" y1="5.94193" x2="126.197" y2="134.616" gradientUnits="userSpaceOnUse">
<stop stop-color="white"/>
<stop offset="1" stop-color="#87DDF5"/>
</linearGradient>
<linearGradient id="paint1_linear_330_3604" x1="168.591" y1="129.383" x2="218.757" y2="110.648" gradientUnits="userSpaceOnUse">
<stop stop-color="#008DB4"/>
<stop offset="0.92" stop-color="#0023C0"/>
</linearGradient>
<linearGradient id="paint2_linear_330_3604" x1="30.4054" y1="162.911" x2="94.2986" y2="139.05" gradientUnits="userSpaceOnUse">
<stop stop-color="#008DB4"/>
<stop offset="0.92" stop-color="#0023C0"/>
</linearGradient>
<linearGradient id="paint3_linear_330_3604" x1="64.4692" y1="98.7795" x2="60.9116" y2="89.9062" gradientUnits="userSpaceOnUse">
<stop stop-color="#5B77F4"/>
<stop offset="1" stop-color="#385AF4"/>
</linearGradient>
<linearGradient id="paint4_linear_330_3604" x1="92.7828" y1="42.2575" x2="90.8423" y2="53.4568" gradientUnits="userSpaceOnUse">
<stop stop-color="#808080"/>
<stop offset="1" stop-color="white"/>
</linearGradient>
<linearGradient id="paint5_linear_330_3604" x1="92.7828" y1="42.2575" x2="90.8423" y2="53.4568" gradientUnits="userSpaceOnUse">
<stop stop-color="white"/>
<stop offset="1"/>
</linearGradient>
<linearGradient id="paint6_linear_330_3604" x1="98.8337" y1="39.2199" x2="96.9738" y2="49.9544" gradientUnits="userSpaceOnUse">
<stop stop-color="#808080"/>
<stop offset="1" stop-color="white"/>
</linearGradient>
<linearGradient id="paint7_linear_330_3604" x1="98.8337" y1="39.2199" x2="96.9738" y2="49.9544" gradientUnits="userSpaceOnUse">
<stop stop-color="white"/>
<stop offset="1"/>
</linearGradient>
<linearGradient id="paint8_linear_330_3604" x1="141.074" y1="102.066" x2="157.65" y2="113.02" gradientUnits="userSpaceOnUse">
<stop stop-color="white"/>
<stop offset="0.996" stop-color="#999999"/>
</linearGradient>
<linearGradient id="paint9_linear_330_3604" x1="141.074" y1="102.066" x2="157.65" y2="113.02" gradientUnits="userSpaceOnUse">
<stop stop-color="#5270F8"/>
<stop offset="0.996" stop-color="#65CEF7"/>
</linearGradient>
<linearGradient id="paint10_linear_330_3604" x1="127.732" y1="111.385" x2="142.737" y2="121.301" gradientUnits="userSpaceOnUse">
<stop stop-color="white"/>
<stop offset="0.996" stop-color="#999999"/>
</linearGradient>
<linearGradient id="paint11_linear_330_3604" x1="127.732" y1="111.385" x2="142.737" y2="121.301" gradientUnits="userSpaceOnUse">
<stop stop-color="#5270F8"/>
<stop offset="0.996" stop-color="#65CEF7"/>
</linearGradient>
<linearGradient id="paint12_linear_330_3604" x1="143.54" y1="109.096" x2="147.352" y2="111.615" gradientUnits="userSpaceOnUse">
<stop stop-color="white"/>
<stop offset="0.996" stop-color="#999999"/>
</linearGradient>
<linearGradient id="paint13_linear_330_3604" x1="143.54" y1="109.096" x2="147.352" y2="111.615" gradientUnits="userSpaceOnUse">
<stop stop-color="#5270F8"/>
<stop offset="0.996" stop-color="#65CEF7"/>
</linearGradient>
<linearGradient id="paint14_linear_330_3604" x1="155.993" y1="105.619" x2="190.938" y2="105.619" gradientUnits="userSpaceOnUse">
<stop stop-color="#4B5EB2"/>
<stop offset="0.996" stop-color="#0C2FCD"/>
</linearGradient>
<linearGradient id="paint15_linear_330_3604" x1="85.8941" y1="106.393" x2="82.5622" y2="103.343" gradientUnits="userSpaceOnUse">
<stop stop-color="#6371B2"/>
<stop offset="0.996" stop-color="#2B49CD"/>
</linearGradient>
<linearGradient id="paint16_linear_330_3604" x1="108.873" y1="110.462" x2="99.3993" y2="101.788" gradientUnits="userSpaceOnUse">
<stop stop-color="#6371B2"/>
<stop offset="0.996" stop-color="#2B49CD"/>
</linearGradient>
<linearGradient id="paint17_linear_330_3604" x1="95.1096" y1="73.4025" x2="95.2521" y2="88.4959" gradientUnits="userSpaceOnUse">
<stop stop-color="#6371B2"/>
<stop offset="0.996" stop-color="#2B49CD"/>
</linearGradient>
</defs>
</svg>
