<svg xmlns="http://www.w3.org/2000/svg" width="41" height="40" fill="none"><path fill="#fff" d="M38.312 5.4v31.694H2.088V5.4a2.495 2.495 0 0 1 2.494-2.494h31.236A2.495 2.495 0 0 1 38.312 5.4"/><path fill="#EFEFEF" d="M20.5 33.354c7.009 0 13.344-1.944 17.81-5.063v8.803H2.093v-9.242C6.59 31.228 13.17 33.354 20.5 33.354"/><path fill="#928F9F" d="M38.312 5.4v4.383H2.088V5.4a2.495 2.495 0 0 1 2.494-2.494h31.236A2.495 2.495 0 0 1 38.312 5.4"/><path fill="#605E67" d="M38.314 6.277v3.502H2.088V5.99c4.656 1.075 11.351 1.75 18.8 1.75 6.74 0 12.881-.553 17.426-1.462"/><path fill="#4B4952" d="M38.312 37.471H2.088a.377.377 0 0 1-.378-.377V5.4A2.874 2.874 0 0 1 4.582 2.53h31.236A2.874 2.874 0 0 1 38.69 5.4v31.694a.377.377 0 0 1-.378.377m-35.847-.755h35.47V5.4a2.12 2.12 0 0 0-2.117-2.116H4.582A2.12 2.12 0 0 0 2.465 5.4z"/><path fill="#4B4952" d="M38.312 10.16H2.088a.377.377 0 0 1-.378-.377V5.4A2.874 2.874 0 0 1 4.582 2.53h31.236A2.874 2.874 0 0 1 38.69 5.4v4.384a.377.377 0 0 1-.378.377M2.465 9.407h35.47V5.4a2.12 2.12 0 0 0-2.117-2.116H4.582A2.12 2.12 0 0 0 2.465 5.4z"/><path fill="#fff" d="M6.569 7.39a.83.83 0 1 0 0-1.662.83.83 0 0 0 0 1.661M9.859 7.39a.83.83 0 1 0 0-1.662.83.83 0 0 0 0 1.661M13.149 7.39a.83.83 0 1 0 0-1.662.83.83 0 0 0 0 1.661"/><path fill="#4B4952" d="M8.43 32.088a.377.377 0 0 1-.376-.377V14.919a.377.377 0 1 1 .754 0v16.792a.377.377 0 0 1-.377.377"/><path fill="#E3EBED" d="M10.272 17.98v1.86c0 .419-.35.77-.77.77H7.364a.77.77 0 0 1-.77-.77v-1.86c0-.43.34-.77.77-.77h2.14c.418 0 .77.34.77.77"/><path fill="#4B4952" d="M9.503 20.988h-2.14a1.15 1.15 0 0 1-1.147-1.148v-1.86c0-.644.504-1.148 1.147-1.148h2.14c.632 0 1.147.515 1.147 1.147v1.861c0 .633-.515 1.148-1.147 1.148m-2.14-3.4a.39.39 0 0 0-.392.391v1.861c0 .217.176.393.392.393h2.14a.403.403 0 0 0 .392-.393v-1.86a.393.393 0 0 0-.392-.393zM16.544 32.088a.377.377 0 0 1-.378-.377V14.919a.377.377 0 1 1 .755 0v16.792a.377.377 0 0 1-.377.377"/><path fill="#E3EBED" d="M18.383 24.085v1.86c0 .42-.35.77-.77.77h-2.14a.77.77 0 0 1-.769-.77v-1.86c0-.43.34-.77.77-.77h2.14c.418 0 .77.34.77.77"/><path fill="#4B4952" d="M17.613 27.093h-2.139a1.15 1.15 0 0 1-1.147-1.148v-1.86c0-.644.504-1.147 1.147-1.147h2.14c.632 0 1.146.514 1.146 1.147v1.86c0 .633-.514 1.148-1.147 1.148m-2.139-3.4a.39.39 0 0 0-.393.392v1.86c0 .217.177.393.393.393h2.14a.403.403 0 0 0 .392-.393v-1.86a.393.393 0 0 0-.393-.393zM24.656 32.088a.377.377 0 0 1-.377-.377V14.919a.377.377 0 1 1 .755 0v16.792a.377.377 0 0 1-.378.377"/><path fill="#E3EBED" d="M26.496 19.604v1.86c0 .42-.351.77-.77.77h-2.14a.77.77 0 0 1-.77-.77v-1.86c0-.43.34-.77.77-.77h2.14c.419 0 .77.34.77.77"/><path fill="#4B4952" d="M25.726 22.612h-2.14a1.15 1.15 0 0 1-1.146-1.147v-1.861c0-.643.503-1.147 1.146-1.147h2.14c.633 0 1.147.514 1.147 1.147v1.86c0 .633-.514 1.148-1.147 1.148m-2.14-3.4a.384.384 0 0 0-.392.392v1.86c0 .217.176.393.392.393h2.14a.403.403 0 0 0 .393-.392v-1.861a.393.393 0 0 0-.393-.392zM31.967 32.088a.377.377 0 0 1-.377-.377V14.919a.377.377 0 1 1 .755 0v16.792a.377.377 0 0 1-.378.377"/><path fill="#E3EBED" d="M33.807 27.602v1.86c0 .42-.351.77-.77.77h-2.14a.77.77 0 0 1-.77-.77v-1.86c0-.43.34-.77.77-.77h2.14c.419 0 .77.34.77.77"/><path fill="#4B4952" d="M33.037 30.61h-2.14a1.15 1.15 0 0 1-1.147-1.148v-1.86c0-.644.504-1.148 1.147-1.148h2.14c.633 0 1.147.515 1.147 1.148v1.86c0 .633-.514 1.147-1.147 1.147m-2.14-3.4a.39.39 0 0 0-.392.392v1.86c0 .216.176.393.392.393h2.14a.403.403 0 0 0 .392-.393v-1.86a.393.393 0 0 0-.392-.393z"/></svg>