<svg xmlns="http://www.w3.org/2000/svg" width="206" height="324" fill="none"><path stroke="url(#a)" stroke-opacity=".26" stroke-width="3.67" d="m-295.485 17.806-.053-1.426h-.024l-.054.003-.193.01c-.159.009-.38.024-.628.046-.444.04-1.15.12-1.707.29a3 3 0 0 0-.542.218 2.2 2.2 0 0 0-.777.663 1.97 1.97 0 0 0-.264 1.795c.186.537.55.855.738 1 .387.297.877.492 1.297.635q.186.063.4.128l.986 219.034v81.633H4.776l.117-.015-.234-1.82c.234 1.82.235 1.82.237 1.819l.01-.001.036-.005.144-.018.562-.073c.496-.066 1.23-.163 2.182-.292a978 978 0 0 0 8.194-1.149 1346 1346 0 0 0 28.607-4.445c23.308-3.877 53.554-9.532 81.232-16.64 13.839-3.553 27.064-7.477 38.472-11.732 11.382-4.245 21.068-8.862 27.756-13.839 6.605-4.916 10.811-10.597 9.928-16.986-.866-6.263-6.526-12.224-16.926-18.038-20.603-11.518-35.66-21.454-46.295-30.145-10.657-8.708-16.751-16.067-19.603-22.395-2.806-6.227-2.496-11.494-.201-16.291 2.35-4.911 6.847-9.466 12.696-13.988l.545-.415c5.715-4.282 13.862-8.364 22.743-12.446 9.08-4.174 18.931-8.349 27.264-12.627 8.27-4.245 15.488-8.8 19.093-13.925 1.849-2.629 2.833-5.529 2.397-8.654-.404-2.897-1.992-5.723-4.709-8.507l-.557-.556C185.967 86.54 168.19 81.057 149.11 78.79c-19.096-2.27-39.786-1.347-58.315-.418-18.673.936-34.943 1.858-45.629-.254-5.346-1.056-8.86-2.798-10.68-5.27-1.743-2.365-2.258-5.873-.442-11.345l.352-1.087c3.476-11.108 2.367-18.235-2.733-22.497-2.506-2.095-5.785-3.305-9.377-4.059-3.602-.755-7.684-1.084-11.916-1.3-8.576-.44-17.763-.435-25.954-2.303-7.854-1.791-14.447-5.236-18.4-12.21l-.374-.687c-4.507-8.584-11.107-12.995-18.86-14.539-7.639-1.52-16.274-.238-24.965 2.223-8.71 2.467-17.684 6.18-26.034 9.69-7.885 3.316-15.162 6.425-21.312 8.264l-1.215.35c-26.729 7.42-67.568 6.286-122.83.516l-5.394-.572c-22.636-2.443-33.647-4.024-38.667-5.028v-.059l-.009-1.894-1.893.069z"/><defs><linearGradient id="a" x1="-48" x2="-48" y1="320" y2="4" gradientUnits="userSpaceOnUse"><stop stop-color="#AEAEA8"/><stop offset="1" stop-color="#5F88D2"/></linearGradient></defs></svg>