<svg width="300" height="574" viewBox="0 0 300 574" fill="none" xmlns="http://www.w3.org/2000/svg">
<g filter="url(#filter0_d_409_7412)">
<rect x="34" y="15" width="232" height="506" rx="26" fill="url(#paint0_linear_409_7412)"/>
</g>
<mask id="mask0_409_7412" style="mask-type:luminance" maskUnits="userSpaceOnUse" x="34" y="15" width="232" height="506">
<rect x="34" y="15" width="232" height="506" rx="26" fill="white"/>
</mask>
<g mask="url(#mask0_409_7412)">
<g opacity="0.1">
<path fill-rule="evenodd" clip-rule="evenodd" d="M388.89 182.218L311.188 172.06L273.314 274.933L327.612 348.669L399.044 291.369L388.89 182.218ZM269.052 276.274L309.345 166.828L392.014 177.635L402.819 293.761L326.82 354.733L269.052 276.274Z" fill="white"/>
<path fill-rule="evenodd" clip-rule="evenodd" d="M393.035 176.587L308.628 165.553L267.491 277.233L326.485 357.297L404.082 295.089L393.035 176.587ZM263.406 278.524L306.856 160.543L396.024 172.199L407.689 297.385L325.722 363.104L263.406 278.524Z" fill="white"/>
<path fill-rule="evenodd" clip-rule="evenodd" d="M397.293 170.111L306.177 158.2L261.779 278.71L325.466 365.093L409.222 297.985L397.293 170.111ZM257.877 279.941L304.488 153.421L400.151 165.927L412.673 300.176L324.741 370.639L257.877 279.941Z" fill="white"/>
<path fill-rule="evenodd" clip-rule="evenodd" d="M401.55 163.648L303.724 150.86L256.064 280.179L324.449 372.888L414.366 300.873L401.55 163.648ZM252.344 281.351L302.113 146.298L404.274 159.653L417.655 302.961L323.755 378.173L252.344 281.351Z" fill="white"/>
<path fill-rule="evenodd" clip-rule="evenodd" d="M405.809 157.178L301.271 143.512L250.35 281.644L323.431 380.685L419.515 303.758L405.809 157.178ZM246.816 282.761L299.744 139.178L408.398 153.382L422.642 305.746L322.774 385.709L246.816 282.761Z" fill="white"/>
<path fill-rule="evenodd" clip-rule="evenodd" d="M410.072 150.696L298.824 136.154L244.639 283.112L322.409 388.484L424.66 306.645L410.072 150.696ZM241.283 284.175L297.372 132.057L412.524 147.11L427.623 308.534L321.787 393.244L241.283 284.175Z" fill="white"/>
<path fill-rule="evenodd" clip-rule="evenodd" d="M414.324 144.234L296.369 128.815L238.925 284.583L321.389 396.279L429.797 309.534L414.324 144.234ZM235.75 285.58L294.993 124.933L416.648 140.836L432.605 311.314L320.799 400.777L235.75 285.58Z" fill="white"/>
<path fill-rule="evenodd" clip-rule="evenodd" d="M418.587 137.763L293.918 121.466L233.208 286.058L320.373 404.079L434.947 312.43L418.587 137.763ZM230.826 287.816L230.218 286.991L292.621 117.811L420.777 134.564L437.587 314.099L319.817 408.311L230.826 287.816Z" fill="white"/>
<path fill-rule="evenodd" clip-rule="evenodd" d="M422.838 131.298L291.463 114.124L227.492 287.52L319.35 411.871L440.088 315.311L422.838 131.298ZM224.688 288.408L290.246 110.69L424.894 128.292L442.572 316.891L318.831 415.847L224.688 288.408Z" fill="white"/>
<path fill-rule="evenodd" clip-rule="evenodd" d="M426.994 125.66L288.903 107.608L221.67 289.833L318.226 420.503L445.127 319.044L426.994 125.66ZM219.046 290.651L287.762 104.404L428.913 122.856L447.444 320.508L317.736 424.218L219.046 290.651Z" fill="white"/>
<path fill-rule="evenodd" clip-rule="evenodd" d="M431.364 119.202L286.92 100.32L216.536 291.376L317.495 428.334L450.271 321.931L431.364 119.202ZM214.1 292.141L285.869 97.3444L433.145 116.597L452.429 323.296L317.043 431.79L214.1 292.141Z" fill="white"/>
<path fill-rule="evenodd" clip-rule="evenodd" d="M435.622 112.742L284.464 92.9823L210.817 292.841L316.477 436.131L455.422 324.817L435.622 112.742ZM209.023 294.174L208.567 293.551L283.495 90.2224L437.27 110.324L457.41 326.081L316.057 439.324L209.023 294.174Z" fill="white"/>
<path fill-rule="evenodd" clip-rule="evenodd" d="M439.879 106.265L282.017 85.6285L205.111 294.31L315.459 443.924L460.562 327.704L439.879 106.265ZM203.038 294.961L281.123 83.101L441.397 104.053L462.395 328.866L315.076 446.86L203.038 294.961Z" fill="white"/>
<path fill-rule="evenodd" clip-rule="evenodd" d="M465.708 330.597L444.14 99.7996L279.564 78.2857L199.39 295.783L314.439 451.724L465.708 330.597ZM197.889 296.901L197.505 296.38L278.478 76.7035L278.747 75.979L445.52 97.7802L467.377 331.659L314.595 453.995L314.091 454.395L197.889 296.901Z" fill="white"/>
<path fill-rule="evenodd" clip-rule="evenodd" d="M448.4 93.3293L277.109 70.9376L193.678 297.246L313.424 459.515L470.854 333.48L448.4 93.3293ZM191.972 297.788L276.372 68.8563L449.642 91.5068L472.359 334.441L313.106 461.929L191.972 297.788Z" fill="white"/>
<path fill-rule="evenodd" clip-rule="evenodd" d="M452.654 86.859L274.655 63.5902L187.955 298.724L312.401 467.315L475.998 336.378L452.654 86.859ZM186.749 299.619L186.44 299.207L273.78 62.3185L273.997 61.7342L453.77 85.2349L477.282 336.614L477.341 337.234L312.119 469.463L186.749 299.619Z" fill="white"/>
<path fill-rule="evenodd" clip-rule="evenodd" d="M456.806 81.2247L272.092 57.0781L182.132 301.023L311.27 475.941L481.036 340.097L456.806 81.2247ZM181.072 301.812L180.801 301.444L271.325 55.9646L271.519 55.4509L457.782 79.7999L482.169 340.3L482.217 340.846L311.024 477.835L181.072 301.812Z" fill="white"/>
<path fill-rule="evenodd" clip-rule="evenodd" d="M486.175 342.988L461.063 74.7685L269.644 49.7455L176.427 302.496L310.255 483.736L486.175 342.988ZM175.509 303.176L175.27 302.855L268.983 48.7774L269.148 48.3285L461.907 73.5267L487.155 343.161L487.2 343.632L310.352 485.116L310.041 485.37L175.509 303.176Z" fill="white"/>
<path fill-rule="evenodd" clip-rule="evenodd" d="M465.323 68.2929L267.189 42.392L170.706 303.965L309.233 491.535L491.322 345.877L465.323 68.2929ZM169.933 304.54L169.739 304.27L266.634 41.5847L266.77 41.2055L466.032 67.2539L492.149 346.029L492.184 346.421L309.056 492.904L169.933 304.54Z" fill="white"/>
<path fill-rule="evenodd" clip-rule="evenodd" d="M496.471 348.767L469.585 61.8228L264.741 35.0449L164.994 305.435L308.22 499.321L496.471 348.767ZM164.369 305.898L164.207 305.676L264.287 34.3838L264.398 34.0847L470.158 60.9824L497.135 348.884L497.166 349.202L308.285 500.266L308.071 500.439L164.369 305.898Z" fill="white"/>
<path fill-rule="evenodd" clip-rule="evenodd" d="M501.544 352.167L473.84 55.3483L262.287 27.6932L159.212 307.416L307.087 507.951L501.544 352.167ZM158.734 307.771L158.608 307.607L262.026 26.9615L474.28 54.7082L502.082 352.507L307.136 508.678L306.975 508.809L158.734 307.771Z" fill="white"/>
<path fill-rule="evenodd" clip-rule="evenodd" d="M259.652 19.839L259.592 20.0031L153.078 309.014L153.165 309.134L305.994 516.344L306.105 516.25L507.066 355.289L507.054 355.12L478.411 48.4361L259.652 19.839ZM153.492 308.883L259.834 20.3498L478.095 48.8817L506.692 355.054L306.069 515.741L153.492 308.883Z" fill="white"/>
</g>
</g>
<defs>
<filter id="filter0_d_409_7412" x="0" y="0" width="300" height="574" filterUnits="userSpaceOnUse" color-interpolation-filters="sRGB">
<feFlood flood-opacity="0" result="BackgroundImageFix"/>
<feColorMatrix in="SourceAlpha" type="matrix" values="0 0 0 0 0 0 0 0 0 0 0 0 0 0 0 0 0 0 127 0" result="hardAlpha"/>
<feOffset dy="19"/>
<feGaussianBlur stdDeviation="17"/>
<feColorMatrix type="matrix" values="0 0 0 0 0.588235 0 0 0 0 0.866667 0 0 0 0 0.988235 0 0 0 0.37 0"/>
<feBlend mode="normal" in2="BackgroundImageFix" result="effect1_dropShadow_409_7412"/>
<feBlend mode="normal" in="SourceGraphic" in2="effect1_dropShadow_409_7412" result="shape"/>
</filter>
<linearGradient id="paint0_linear_409_7412" x1="150" y1="-193.825" x2="479.908" y2="600.3" gradientUnits="userSpaceOnUse">
<stop offset="0.43" stop-color="#90A6E2"/>
<stop offset="1" stop-color="#0096C0"/>
</linearGradient>
</defs>
</svg>
