<svg width="38" height="32" viewBox="0 0 38 32" fill="none" xmlns="http://www.w3.org/2000/svg">
<path d="M37.1131 9.65469V24.7651C37.1131 26.3869 35.7964 27.6956 34.1826 27.6956H3.81724C2.19543 27.6956 0.886719 26.3789 0.886719 24.7571V9.66273C0.886719 8.04087 2.20342 6.72412 3.81724 6.72412H34.1826C35.7964 6.72412 37.1131 8.03284 37.1131 9.65469Z" fill="white"/>
<path d="M37.1131 14.9136V24.7651C37.1131 26.3869 35.7964 27.6956 34.1826 27.6956H3.81724C2.19543 27.6956 0.886719 26.3789 0.886719 24.7571V19.3295C5.00555 21.3287 10.2484 22.5331 15.973 22.5331C25.15 22.5331 33.1227 19.4419 37.1131 14.9136Z" fill="#BBD6EA"/>
<path d="M37.1131 9.65469V24.7651C37.1131 26.3869 35.7964 27.6956 34.1826 27.6956H32.8979V6.72412H34.1826C35.7964 6.72412 37.1131 8.03284 37.1131 9.65469Z" fill="#C6DDEA"/>
<path d="M3.43187 13.902V20.2528L4.39535 20.7426L4.6362 20.863V27.6956H3.81724C2.19543 27.6956 0.886719 26.3789 0.886719 24.7571V9.66273C0.886719 8.04087 2.20342 6.72412 3.81724 6.72412H4.6362V13.2918L3.43187 13.902Z" fill="#C6DDEA"/>
<path d="M34.1824 28.0732H3.81718C1.99341 28.0732 0.509399 26.5859 0.509399 24.7573V9.663C0.509399 7.83443 1.99341 6.34711 3.81718 6.34711H34.1824C36.0065 6.34711 37.4905 7.83074 37.4905 9.65489V24.7654C37.4905 26.5896 36.0065 28.0732 34.1824 28.0732ZM3.81718 7.10182C2.40946 7.10182 1.26412 8.25085 1.26412 9.663V24.7573C1.26412 26.1695 2.40946 27.3185 3.81718 27.3185H34.1824C35.5905 27.3185 36.7358 26.1732 36.7358 24.7654V9.65489C36.7358 8.24717 35.5905 7.10182 34.1824 7.10182H3.81718Z" fill="#C6DDEA"/>
<path d="M37.1131 14.9136V24.7651C37.1131 26.3869 35.7964 27.6956 34.1826 27.6956H32.8979V18.334C34.5679 17.3303 35.9971 16.1822 37.1131 14.9136Z" fill="#70889F"/>
<path d="M34.1824 28.0732H32.9007C32.6921 28.0732 32.5233 27.9044 32.5233 27.6959V6.72447C32.5233 6.51589 32.6921 6.34711 32.9007 6.34711H34.1824C36.0065 6.34711 37.4905 7.83074 37.4905 9.65489V24.7654C37.4905 26.5896 36.0065 28.0732 34.1824 28.0732ZM33.278 27.3185H34.1824C35.5905 27.3185 36.7358 26.1732 36.7358 24.7654V9.65489C36.7358 8.24717 35.5905 7.10182 34.1824 7.10182H33.278V27.3185Z" fill="#C6DDEA"/>
<path d="M4.6362 20.863V27.6956H3.81724C2.19543 27.6956 0.886719 26.3789 0.886719 24.7571V19.3295C1.97864 19.8594 3.15088 20.3331 4.39535 20.7426L4.6362 20.863Z" fill="#70889F"/>
<path d="M4.63602 28.0732H3.81718C1.99341 28.0732 0.509399 26.5859 0.509399 24.7573V9.663C0.509399 7.83443 1.99341 6.34711 3.81718 6.34711H4.63602C4.8446 6.34711 5.01338 6.51589 5.01338 6.72447V13.2914C5.01338 13.4336 4.93341 13.5641 4.80664 13.6282L3.80907 14.1338V20.0205L4.80664 20.5261C4.93341 20.5909 5.01338 20.7206 5.01338 20.8629V27.6959C5.01338 27.9044 4.8446 28.0732 4.63602 28.0732ZM3.81718 7.10182C2.40946 7.10182 1.26412 8.25085 1.26412 9.663V24.7573C1.26412 26.1695 2.40946 27.3185 3.81718 27.3185H4.25866V21.095L3.26109 20.5894C3.13433 20.5253 3.05436 20.3949 3.05436 20.2526V13.9016C3.05436 13.7594 3.13433 13.6289 3.26109 13.5648L4.25866 13.0592V7.10182H3.81718Z" fill="#C6DDEA"/>
<path d="M19 15.7057C23.1015 15.7057 26.4264 12.3808 26.4264 8.27926C26.4264 4.17776 23.1015 0.852844 19 0.852844C14.8985 0.852844 11.5736 4.17776 11.5736 8.27926C11.5736 12.3808 14.8985 15.7057 19 15.7057Z" fill="#C6DDEA"/>
<path d="M26.4266 8.28173C26.4266 12.3845 23.1026 15.7085 18.9998 15.7085C15.9248 15.7085 13.2913 13.8458 12.1672 11.1802C13.3394 11.6137 14.6321 11.8466 15.989 11.8466C20.983 11.8466 25.0857 8.68317 25.4792 4.65265C26.0813 5.72051 26.4266 6.95694 26.4266 8.28173Z" fill="#70889F"/>
<path d="M18.9999 16.0833C14.6968 16.0833 11.1959 12.5824 11.1959 8.27888C11.1959 3.9761 14.6968 0.47522 18.9999 0.47522C23.3031 0.47522 26.804 3.9761 26.804 8.27888C26.804 12.5824 23.3031 16.0833 18.9999 16.0833ZM18.9999 1.22994C15.1129 1.22994 11.9506 4.39179 11.9506 8.27888C11.9506 12.166 15.1129 15.3286 18.9999 15.3286C22.887 15.3286 26.0493 12.166 26.0493 8.27888C26.0493 4.39179 22.887 1.22994 18.9999 1.22994Z" fill="#C6DDEA"/>
<path d="M23.6335 14.0664C22.3669 15.0949 20.7537 15.7012 18.9999 15.7012C17.2461 15.7012 15.633 15.0949 14.3663 14.0664C14.4313 12.2044 15.5789 10.6346 17.2028 9.95251C16.6939 9.48699 16.38 8.81578 16.38 8.06877C16.38 6.61803 17.5601 5.44885 18.9999 5.44885C20.4398 5.44885 21.6199 6.61803 21.6199 8.06877C21.6199 8.81578 21.3059 9.48699 20.7971 9.95251C22.421 10.6346 23.5686 12.2044 23.6335 14.0664Z" fill="#E3EBED"/>
<path d="M19 16.0789C17.2241 16.0789 15.4939 15.4686 14.1286 14.3601C14.0364 14.2849 13.9849 14.1722 13.9893 14.0535C14.0508 12.2802 15.0535 10.6742 16.5866 9.83182C16.211 9.32916 16.0025 8.71006 16.0025 8.06884C16.0025 6.41569 17.3472 5.07135 19 5.07135C20.6527 5.07135 21.9971 6.41569 21.9971 8.06884C21.9971 8.71006 21.7885 9.32916 21.413 9.83182C22.946 10.6742 23.9487 12.2802 24.0107 14.0535C24.0151 14.1722 23.9635 14.2849 23.8714 14.3601C22.5053 15.4686 20.7755 16.0789 19 16.0789ZM14.7539 13.8921C15.9612 14.8171 17.461 15.3242 19 15.3242C20.5614 15.3242 22.0251 14.8296 23.2456 13.8921C23.1203 12.3127 22.118 10.9167 20.6513 10.3006C20.5326 10.2512 20.4475 10.1443 20.4254 10.0175C20.4033 9.89078 20.4475 9.76106 20.5422 9.67409C20.9936 9.26062 21.2424 8.6909 21.2424 8.06884C21.2424 6.83211 20.2363 5.82607 19 5.82607C17.7632 5.82607 16.7572 6.83211 16.7572 8.06884C16.7572 8.6909 17.0059 9.26062 17.4574 9.67409C17.5524 9.76106 17.5967 9.89078 17.5746 10.0175C17.5524 10.1443 17.4673 10.2512 17.3487 10.3006C15.8816 10.9167 14.8796 12.3127 14.7539 13.8921Z" fill="#C6DDEA"/>
<path d="M35.0396 21.0663C34.831 21.0663 34.6622 20.8976 34.6622 20.689V13.7307C34.6622 13.5221 34.831 13.3533 35.0396 13.3533C35.2482 13.3533 35.4169 13.5221 35.4169 13.7307V20.689C35.4169 20.8976 35.2482 21.0663 35.0396 21.0663Z" fill="#C6DDEA"/>
<path d="M17.0934 18.7936V22.3665C17.0934 22.8723 16.6919 23.2737 16.1861 23.2737H12.6132C12.1154 23.2737 11.714 22.8723 11.714 22.3665V18.7936C11.714 18.2958 12.1154 17.8943 12.6132 17.8943H16.1861C16.6919 17.8943 17.0934 18.2958 17.0934 18.7936Z" fill="#E3EBED"/>
<path d="M26.2765 18.7936V22.3665C26.2765 22.8723 25.875 23.2737 25.3692 23.2737H21.7963C21.2985 23.2737 20.8971 22.8723 20.8971 22.3665V18.7936C20.8971 18.2958 21.2985 17.8943 21.7963 17.8943H25.3692C25.875 17.8943 26.2765 18.2958 26.2765 18.7936Z" fill="#C6DDEA"/>
<path d="M17.098 26.6671V30.2399C17.098 30.7458 16.6966 31.1472 16.1907 31.1472H12.6179C12.1201 31.1472 11.7186 30.7458 11.7186 30.2399V26.6671C11.7186 26.1693 12.1201 25.7678 12.6179 25.7678H16.1907C16.6966 25.7678 17.098 26.1693 17.098 26.6671Z" fill="#C6DDEA"/>
<path d="M26.2811 26.6671V30.2399C26.2811 30.7458 25.8797 31.1472 25.3738 31.1472H21.801C21.3032 31.1472 20.9017 30.7458 20.9017 30.2399V26.6671C20.9017 26.1693 21.3032 25.7678 21.801 25.7678H25.3738C25.8797 25.7678 26.2811 26.1693 26.2811 26.6671Z" fill="#E3EBED"/>
<path d="M16.1859 23.6511H12.6132C11.9093 23.6511 11.3367 23.0747 11.3367 22.3664V18.7933C11.3367 18.0895 11.9093 17.5168 12.6132 17.5168H16.1859C16.8942 17.5168 17.4706 18.0895 17.4706 18.7933V22.3664C17.4706 23.0747 16.8942 23.6511 16.1859 23.6511ZM12.6132 18.2715C12.3254 18.2715 12.0914 18.5059 12.0914 18.7933V22.3664C12.0914 22.6635 12.3206 22.8964 12.6132 22.8964H16.1859C16.483 22.8964 16.7159 22.6635 16.7159 22.3664V18.7933C16.7159 18.5007 16.483 18.2715 16.1859 18.2715H12.6132Z" fill="#C6DDEA"/>
<path d="M25.3693 23.6511H21.7962C21.0923 23.6511 20.5197 23.0747 20.5197 22.3664V18.7933C20.5197 18.0895 21.0923 17.5168 21.7962 17.5168H25.3693C26.0776 17.5168 26.6536 18.0895 26.6536 18.7933V22.3664C26.6536 23.0747 26.0776 23.6511 25.3693 23.6511ZM21.7962 18.2715C21.5084 18.2715 21.2744 18.5059 21.2744 18.7933V22.3664C21.2744 22.6635 21.5036 22.8964 21.7962 22.8964H25.3693C25.6663 22.8964 25.8989 22.6635 25.8989 22.3664V18.7933C25.8989 18.5007 25.6663 18.2715 25.3693 18.2715H21.7962Z" fill="#C6DDEA"/>
<path d="M16.1908 31.5247H12.6181C11.9142 31.5247 11.3416 30.9484 11.3416 30.2401V26.667C11.3416 25.9631 11.9142 25.3904 12.6181 25.3904H16.1908C16.8991 25.3904 17.4755 25.9631 17.4755 26.667V30.2401C17.4755 30.9484 16.8991 31.5247 16.1908 31.5247ZM12.6181 26.1452C12.3303 26.1452 12.0963 26.3795 12.0963 26.667V30.2401C12.0963 30.5371 12.3255 30.77 12.6181 30.77H16.1908C16.4879 30.77 16.7208 30.5371 16.7208 30.2401V26.667C16.7208 26.3744 16.4879 26.1452 16.1908 26.1452H12.6181Z" fill="#C6DDEA"/>
<path d="M25.3738 31.5247H21.8011C21.0972 31.5247 20.5245 30.9484 20.5245 30.2401V26.667C20.5245 25.9631 21.0972 25.3904 21.8011 25.3904H25.3738C26.0821 25.3904 26.6585 25.9631 26.6585 26.667V30.2401C26.6585 30.9484 26.0821 31.5247 25.3738 31.5247ZM21.8011 26.1452C21.5133 26.1452 21.2793 26.3795 21.2793 26.667V30.2401C21.2793 30.5371 21.5085 30.77 21.8011 30.77H25.3738C25.6708 30.77 25.9037 30.5371 25.9037 30.2401V26.667C25.9037 26.3744 25.6708 26.1452 25.3738 26.1452H21.8011Z" fill="#C6DDEA"/>
</svg>
