<svg width="40" height="40" viewBox="0 0 40 40" fill="none" xmlns="http://www.w3.org/2000/svg">
<path d="M38.1131 13.6547V28.7651C38.1131 30.3869 36.7964 31.6956 35.1826 31.6956H4.81724C3.19543 31.6956 1.88672 30.3789 1.88672 28.7571V13.6627C1.88672 12.0409 3.20342 10.7241 4.81724 10.7241H35.1826C36.7964 10.7241 38.1131 12.0328 38.1131 13.6547Z" fill="white"/>
<path d="M38.1131 18.9136V28.7651C38.1131 30.3869 36.7964 31.6956 35.1826 31.6956H4.81724C3.19543 31.6956 1.88672 30.3789 1.88672 28.7571V23.3295C6.00555 25.3287 11.2484 26.5331 16.973 26.5331C26.15 26.5331 34.1227 23.4419 38.1131 18.9136Z" fill="#EFEFEF"/>
<path d="M38.1131 13.6547V28.7651C38.1131 30.3869 36.7964 31.6956 35.1826 31.6956H33.8979V10.7241H35.1826C36.7964 10.7241 38.1131 12.0328 38.1131 13.6547Z" fill="#605E67"/>
<path d="M4.43187 17.902V24.2528L5.39535 24.7426L5.6362 24.863V31.6956H4.81724C3.19543 31.6956 1.88672 30.3789 1.88672 28.7571V13.6627C1.88672 12.0409 3.20342 10.7241 4.81724 10.7241H5.6362V17.2918L4.43187 17.902Z" fill="#605E67"/>
<path d="M35.1824 32.0732H4.81718C2.99341 32.0732 1.5094 30.5859 1.5094 28.7573V13.663C1.5094 11.8344 2.99341 10.3471 4.81718 10.3471H35.1824C37.0065 10.3471 38.4905 11.8307 38.4905 13.6549V28.7654C38.4905 30.5896 37.0065 32.0732 35.1824 32.0732ZM4.81718 11.1018C3.40946 11.1018 2.26412 12.2509 2.26412 13.663V28.7573C2.26412 30.1695 3.40946 31.3185 4.81718 31.3185H35.1824C36.5905 31.3185 37.7358 30.1732 37.7358 28.7654V13.6549C37.7358 12.2472 36.5905 11.1018 35.1824 11.1018H4.81718Z" fill="#4B4952"/>
<path d="M38.1131 18.9136V28.7651C38.1131 30.3869 36.7964 31.6956 35.1826 31.6956H33.8979V22.334C35.5679 21.3303 36.9971 20.1822 38.1131 18.9136Z" fill="#928F9F"/>
<path d="M35.1824 32.0732H33.9007C33.6921 32.0732 33.5233 31.9044 33.5233 31.6959V10.7245C33.5233 10.5159 33.6921 10.3471 33.9007 10.3471H35.1824C37.0065 10.3471 38.4905 11.8307 38.4905 13.6549V28.7654C38.4905 30.5896 37.0065 32.0732 35.1824 32.0732ZM34.278 31.3185H35.1824C36.5905 31.3185 37.7358 30.1732 37.7358 28.7654V13.6549C37.7358 12.2472 36.5905 11.1018 35.1824 11.1018H34.278V31.3185Z" fill="#4B4952"/>
<path d="M5.6362 24.863V31.6956H4.81724C3.19543 31.6956 1.88672 30.3789 1.88672 28.7571V23.3295C2.97864 23.8594 4.15088 24.3331 5.39535 24.7426L5.6362 24.863Z" fill="#928F9F"/>
<path d="M5.63602 32.0732H4.81718C2.99341 32.0732 1.5094 30.5859 1.5094 28.7573V13.663C1.5094 11.8344 2.99341 10.3471 4.81718 10.3471H5.63602C5.8446 10.3471 6.01338 10.5159 6.01338 10.7245V17.2914C6.01338 17.4336 5.93341 17.5641 5.80664 17.6282L4.80907 18.1338V24.0205L5.80664 24.5261C5.93341 24.5909 6.01338 24.7206 6.01338 24.8629V31.6959C6.01338 31.9044 5.8446 32.0732 5.63602 32.0732ZM4.81718 11.1018C3.40946 11.1018 2.26412 12.2509 2.26412 13.663V28.7573C2.26412 30.1695 3.40946 31.3185 4.81718 31.3185H5.25866V25.095L4.26109 24.5894C4.13433 24.5253 4.05436 24.3949 4.05436 24.2526V17.9016C4.05436 17.7594 4.13433 17.6289 4.26109 17.5648L5.25866 17.0592V11.1018H4.81718Z" fill="#4B4952"/>
<path d="M20 19.7057C24.1015 19.7057 27.4264 16.3808 27.4264 12.2793C27.4264 8.17776 24.1015 4.85284 20 4.85284C15.8985 4.85284 12.5736 8.17776 12.5736 12.2793C12.5736 16.3808 15.8985 19.7057 20 19.7057Z" fill="#605E67"/>
<path d="M27.4266 12.2817C27.4266 16.3845 24.1026 19.7085 19.9998 19.7085C16.9248 19.7085 14.2913 17.8458 13.1672 15.1802C14.3394 15.6137 15.6321 15.8466 16.989 15.8466C21.983 15.8466 26.0857 12.6832 26.4792 8.65265C27.0813 9.72051 27.4266 10.9569 27.4266 12.2817Z" fill="#928F9F"/>
<path d="M19.9999 20.0833C15.6968 20.0833 12.1959 16.5824 12.1959 12.2789C12.1959 7.9761 15.6968 4.47522 19.9999 4.47522C24.3031 4.47522 27.804 7.9761 27.804 12.2789C27.804 16.5824 24.3031 20.0833 19.9999 20.0833ZM19.9999 5.22994C16.1129 5.22994 12.9506 8.39179 12.9506 12.2789C12.9506 16.166 16.1129 19.3286 19.9999 19.3286C23.887 19.3286 27.0493 16.166 27.0493 12.2789C27.0493 8.39179 23.887 5.22994 19.9999 5.22994Z" fill="#4B4952"/>
<path d="M24.6335 18.0664C23.3669 19.0949 21.7537 19.7012 19.9999 19.7012C18.2461 19.7012 16.633 19.0949 15.3663 18.0664C15.4313 16.2044 16.5789 14.6346 18.2028 13.9525C17.6939 13.487 17.38 12.8158 17.38 12.0688C17.38 10.618 18.5601 9.44885 19.9999 9.44885C21.4398 9.44885 22.6199 10.618 22.6199 12.0688C22.6199 12.8158 22.3059 13.487 21.7971 13.9525C23.421 14.6346 24.5686 16.2044 24.6335 18.0664Z" fill="#E3EBED"/>
<path d="M20 20.0789C18.2241 20.0789 16.4939 19.4686 15.1286 18.3601C15.0364 18.2849 14.9849 18.1722 14.9893 18.0535C15.0508 16.2802 16.0535 14.6742 17.5866 13.8318C17.211 13.3292 17.0025 12.7101 17.0025 12.0688C17.0025 10.4157 18.3472 9.07135 20 9.07135C21.6527 9.07135 22.9971 10.4157 22.9971 12.0688C22.9971 12.7101 22.7885 13.3292 22.413 13.8318C23.946 14.6742 24.9487 16.2802 25.0107 18.0535C25.0151 18.1722 24.9635 18.2849 24.8714 18.3601C23.5053 19.4686 21.7755 20.0789 20 20.0789ZM15.7539 17.8921C16.9612 18.8171 18.461 19.3242 20 19.3242C21.5614 19.3242 23.0251 18.8296 24.2456 17.8921C24.1203 16.3127 23.118 14.9167 21.6513 14.3006C21.5326 14.2512 21.4475 14.1443 21.4254 14.0175C21.4033 13.8908 21.4475 13.7611 21.5422 13.6741C21.9936 13.2606 22.2424 12.6909 22.2424 12.0688C22.2424 10.8321 21.2363 9.82607 20 9.82607C18.7632 9.82607 17.7572 10.8321 17.7572 12.0688C17.7572 12.6909 18.0059 13.2606 18.4574 13.6741C18.5524 13.7611 18.5967 13.8908 18.5746 14.0175C18.5524 14.1443 18.4673 14.2512 18.3487 14.3006C16.8816 14.9167 15.8796 16.3127 15.7539 17.8921Z" fill="#4B4952"/>
<path d="M36.0396 25.0663C35.831 25.0663 35.6622 24.8976 35.6622 24.689V17.7307C35.6622 17.5221 35.831 17.3533 36.0396 17.3533C36.2482 17.3533 36.4169 17.5221 36.4169 17.7307V24.689C36.4169 24.8976 36.2482 25.0663 36.0396 25.0663Z" fill="#4B4952"/>
<path d="M18.0934 22.7936V26.3665C18.0934 26.8723 17.6919 27.2737 17.1861 27.2737H13.6132C13.1154 27.2737 12.714 26.8723 12.714 26.3665V22.7936C12.714 22.2958 13.1154 21.8943 13.6132 21.8943H17.1861C17.6919 21.8943 18.0934 22.2958 18.0934 22.7936Z" fill="#E3EBED"/>
<path d="M27.2765 22.7936V26.3665C27.2765 26.8723 26.875 27.2737 26.3692 27.2737H22.7963C22.2985 27.2737 21.8971 26.8723 21.8971 26.3665V22.7936C21.8971 22.2958 22.2985 21.8943 22.7963 21.8943H26.3692C26.875 21.8943 27.2765 22.2958 27.2765 22.7936Z" fill="#605E67"/>
<path d="M18.098 30.6671V34.2399C18.098 34.7458 17.6966 35.1472 17.1907 35.1472H13.6179C13.1201 35.1472 12.7186 34.7458 12.7186 34.2399V30.6671C12.7186 30.1693 13.1201 29.7678 13.6179 29.7678H17.1907C17.6966 29.7678 18.098 30.1693 18.098 30.6671Z" fill="#605E67"/>
<path d="M27.2811 30.6671V34.2399C27.2811 34.7458 26.8797 35.1472 26.3738 35.1472H22.801C22.3032 35.1472 21.9017 34.7458 21.9017 34.2399V30.6671C21.9017 30.1693 22.3032 29.7678 22.801 29.7678H26.3738C26.8797 29.7678 27.2811 30.1693 27.2811 30.6671Z" fill="#E3EBED"/>
<path d="M17.1859 27.6511H13.6132C12.9093 27.6511 12.3367 27.0747 12.3367 26.3664V22.7933C12.3367 22.0895 12.9093 21.5168 13.6132 21.5168H17.1859C17.8942 21.5168 18.4706 22.0895 18.4706 22.7933V26.3664C18.4706 27.0747 17.8942 27.6511 17.1859 27.6511ZM13.6132 22.2715C13.3254 22.2715 13.0914 22.5059 13.0914 22.7933V26.3664C13.0914 26.6635 13.3206 26.8964 13.6132 26.8964H17.1859C17.483 26.8964 17.7159 26.6635 17.7159 26.3664V22.7933C17.7159 22.5007 17.483 22.2715 17.1859 22.2715H13.6132Z" fill="#4B4952"/>
<path d="M26.3693 27.6511H22.7962C22.0923 27.6511 21.5197 27.0747 21.5197 26.3664V22.7933C21.5197 22.0895 22.0923 21.5168 22.7962 21.5168H26.3693C27.0776 21.5168 27.6536 22.0895 27.6536 22.7933V26.3664C27.6536 27.0747 27.0776 27.6511 26.3693 27.6511ZM22.7962 22.2715C22.5084 22.2715 22.2744 22.5059 22.2744 22.7933V26.3664C22.2744 26.6635 22.5036 26.8964 22.7962 26.8964H26.3693C26.6663 26.8964 26.8989 26.6635 26.8989 26.3664V22.7933C26.8989 22.5007 26.6663 22.2715 26.3693 22.2715H22.7962Z" fill="#4B4952"/>
<path d="M17.1908 35.5247H13.6181C12.9142 35.5247 12.3416 34.9484 12.3416 34.2401V30.667C12.3416 29.9631 12.9142 29.3904 13.6181 29.3904H17.1908C17.8991 29.3904 18.4755 29.9631 18.4755 30.667V34.2401C18.4755 34.9484 17.8991 35.5247 17.1908 35.5247ZM13.6181 30.1452C13.3303 30.1452 13.0963 30.3795 13.0963 30.667V34.2401C13.0963 34.5371 13.3255 34.77 13.6181 34.77H17.1908C17.4879 34.77 17.7208 34.5371 17.7208 34.2401V30.667C17.7208 30.3744 17.4879 30.1452 17.1908 30.1452H13.6181Z" fill="#4B4952"/>
<path d="M26.3738 35.5247H22.8011C22.0972 35.5247 21.5245 34.9484 21.5245 34.2401V30.667C21.5245 29.9631 22.0972 29.3904 22.8011 29.3904H26.3738C27.0821 29.3904 27.6585 29.9631 27.6585 30.667V34.2401C27.6585 34.9484 27.0821 35.5247 26.3738 35.5247ZM22.8011 30.1452C22.5133 30.1452 22.2793 30.3795 22.2793 30.667V34.2401C22.2793 34.5371 22.5085 34.77 22.8011 34.77H26.3738C26.6708 34.77 26.9037 34.5371 26.9037 34.2401V30.667C26.9037 30.3744 26.6708 30.1452 26.3738 30.1452H22.8011Z" fill="#4B4952"/>
</svg>
