<svg xmlns="http://www.w3.org/2000/svg" width="300" height="600" fill="none"><g filter="url(#a)"><rect width="232" height="532" x="34" y="15" fill="url(#b)" rx="26"/></g><mask id="c" width="232" height="532" x="34" y="15" maskUnits="userSpaceOnUse" style="mask-type:luminance"><rect width="232" height="532" x="34" y="15" fill="#fff" rx="26"/></mask><g fill="#fff" fill-rule="evenodd" clip-rule="evenodd" mask="url(#c)" opacity=".1"><path d="M350.224 139.104h-64.865L265.31 262.432l52.48 76.212 52.483-76.212zm-87.533 125.027 21.049-129.477h68.101l21.048 129.477-55.099 80.02z"/><path d="M352.611 132.251h-69.64l-21.527 132.345 56.347 81.789 56.347-81.789zm-93.663 133.963 22.478-138.212h72.727l22.478 138.212-58.842 85.419z"/><path d="M355 125.39h-74.419l-23.002 141.365 60.213 87.372 60.213-87.372zm-99.792 142.907 23.908-146.943h77.349l23.911 146.943-62.584 90.82z"/><path d="M357.391 118.518h-79.196l-24.479 150.4 64.075 92.954 64.08-92.954zM251.464 270.384l25.34-155.681h81.975l25.338 155.681-66.326 96.215z"/><path d="M359.776 111.666h-83.971l-25.954 159.417 67.939 98.53 67.94-98.53zM247.72 272.462l26.767-164.41h86.605l26.767 164.41-70.071 101.618z"/><path d="M362.168 104.804h-88.751l-27.432 168.449 71.808 104.106L389.6 273.253zm-117.69 170.469-.501-.727L272.175 101.4h91.233l28.193 173.146-73.811 107.016z"/><path d="M364.552 97.948h-93.525l-28.91 177.461 75.672 109.687 75.673-109.687zM240.236 276.634 269.861 94.75h95.854l29.63 181.884-77.555 112.411z"/><path d="M366.945 91.913H268.64L238.254 278.41l79.538 115.256 79.538-115.256zM236.492 279.545l31.055-190.614h100.484l31.055 190.614-81.297 117.813z"/><path d="M369.413 85.05H266.585l-31.783 195.523 83.196 120.834 83.197-120.834zM233.167 281.63l32.41-199.35h104.844l32.409 199.35-84.833 123.209z"/><path d="M371.802 78.2H264.194l-33.26 204.533 87.064 126.416 87.067-126.416zM229.8 284.264l-.376-.551 33.84-208.085h109.471l33.837 208.085-88.575 128.608z"/><path d="M374.189 71.332h-112.38l-34.735 213.564 90.925 131.992 90.928-131.992zM225.683 285.796l35.269-216.817h114.097l35.267 216.817-92.317 134.008z"/><path d="M412.793 287.064 376.58 64.476H259.42l-36.216 222.588 94.795 137.57zm-190.537 1.283-.317-.459L258.515 63.07l.122-.742h118.724l36.697 225.56-95.743 138.944-.316.454z"/><path d="M378.969 57.615h-121.94L219.34 289.222l98.661 143.148 98.657-143.148zM218.196 289.968l38.127-234.291h123.349L417.8 289.968l-99.801 144.8z"/><path d="M381.355 50.754H254.639L215.47 291.395l102.528 148.721 102.526-148.721zM214.707 292.423l-.254-.364L253.91 49.625l.098-.599h127.979l39.457 242.435.098.598L317.998 442.25z"/><path d="M383.746 44.723H252.25l-40.646 249.66 106.392 154.299 106.395-154.299zM210.934 295.288l-.223-.325 40.9-251.23.088-.525h132.599l40.904 251.229.084.526-107.289 155.601z"/><path d="M428.252 296.549 386.135 37.876H249.866l-42.12 258.673 110.253 159.874zm-221.087.781-.196-.282 42.345-260.032.074-.46h137.223l42.343 260.037.074.455-110.835 160.711-.195.287z"/><path d="M388.523 31.01H247.474l-43.598 267.703 114.121 165.455 114.122-165.455zM203.388 299.374l-.161-.239 43.785-268.842.06-.388h141.853l43.787 268.852.06.378-114.774 166.392z"/><path d="M435.987 300.878 390.914 24.149H245.088l-45.075 276.729L318 471.899zm-236.369.532-.135-.196L244.71 23.562l.051-.307h146.477l45.225 277.652.05.307-118.38 171.6-.135.196z"/><path d="M439.849 303.551 393.3 17.285H242.698l-46.551 286.266 121.85 176.919zm-244.004.407-.103-.144 46.707-287.21H393.55l46.707 287.21-122.159 177.36-.101.149z"/><path d="m240.135 9.953-.026.167L192 305.893l.072.106L318 488.804l.07-.105L444 305.893l-.024-.162L395.867 9.953zm-47.857 295.759L240.31 10.428h155.377l48.03 295.284-125.72 182.494z"/></g><defs><linearGradient id="b" x1="150" x2="509.111" y1="-204.556" y2="617.619" gradientUnits="userSpaceOnUse"><stop offset=".334" stop-color="#002145"/><stop offset=".73" stop-color="#79DD1A"/></linearGradient><filter id="a" width="300" height="600" x="0" y="0" color-interpolation-filters="sRGB" filterUnits="userSpaceOnUse"><feFlood flood-opacity="0" result="BackgroundImageFix"/><feColorMatrix in="SourceAlpha" result="hardAlpha" values="0 0 0 0 0 0 0 0 0 0 0 0 0 0 0 0 0 0 127 0"/><feOffset dy="19"/><feGaussianBlur stdDeviation="17"/><feColorMatrix values="0 0 0 0 0.588235 0 0 0 0 0.866667 0 0 0 0 0.988235 0 0 0 0.37 0"/><feBlend in2="BackgroundImageFix" result="effect1_dropShadow_2846_6748"/><feBlend in="SourceGraphic" in2="effect1_dropShadow_2846_6748" result="shape"/></filter></defs></svg>