<svg xmlns="http://www.w3.org/2000/svg" width="176" height="174" fill="none"><path stroke="url(#a)" stroke-opacity=".26" stroke-width="5.015" d="m83.112-25.507-.24.047.485 2.46a325 325 0 0 0-.488-2.459l-.004.001-.015.003-.06.012q-.077.014-.226.045l-.866.178c-.754.158-1.853.392-3.237.7a361 361 0 0 0-11.277 2.703c-9.176 2.353-21.123 5.795-32.082 10.134C24.264-7.392 13.938-2.055 8.424 4.273 5.615 7.497 3.837 11.23 4.208 15.37c.357 3.987 2.66 7.79 6.733 11.412l.4.35c16.13 13.904 23.216 23.71 25.368 31.074 1.05 3.596.927 6.618.084 9.334-.858 2.764-2.504 5.353-4.713 7.985-2.095 2.497-5.214 4.93-8.797 7.47-3.475 2.463-7.45 5.066-10.765 7.69-3.305 2.616-6.39 5.573-7.95 8.995-.803 1.76-1.216 3.669-1.032 5.705.172 1.903.854 3.782 2.026 5.634l.24.37c5.213 7.788 12.686 11.328 20.563 12.771 7.785 1.427 16.154.839 23.384.28 3.67-.283 7.02-.559 9.994-.608 2.997-.049 5.378.141 7.145.68 1.7.518 2.61 1.282 3.094 2.298.535 1.119.785 3.02.088 6.256l-.137.656c-1.366 6.712-1.052 11.407 1.32 14.464 2.462 3.172 6.492 3.691 9.705 3.945 3.598.284 6.778.268 9.663 1.283 2.509.882 4.742 2.558 6.16 6.423l.135.381c1.815 5.329 4.661 8.615 8.534 9.804 3.703 1.137 7.654.122 11.189-1.421 3.584-1.565 7.231-3.898 10.483-6.006 3.157-2.047 5.866-3.825 8.1-4.856l.44-.196c5.028-2.152 11.584-3.088 19.839-2.977 7.722.105 16.772 1.122 27.193 2.8l2.103.345c7.361 1.225 11.486 2.075 13.707 2.644l.005 1.708 2.64-.15-.141-2.503.142 2.503h.009l.014-.001.148-.012c.088-.007.209-.019.348-.039.187-.026.733-.104 1.248-.347a2.78 2.78 0 0 0 1.345-1.328c.571-1.227.044-2.315-.396-2.837a3 3 0 0 0-.358-.356v-.277l-.001-.001-.383-131.482v-50.739z"/><defs><linearGradient id="a" x1="109.054" x2="-20.682" y1="92.735" y2="21.767" gradientUnits="userSpaceOnUse"><stop stop-color="#AEAEA8"/><stop offset="1" stop-color="#5F88D2"/></linearGradient></defs></svg>