<svg width="15" height="15" viewBox="0 0 15 15" fill="none" xmlns="http://www.w3.org/2000/svg">
<path d="M7.5 0C3.35786 0 0 3.35786 0 7.5C0 11.6421 3.35786 15 7.5 15C11.6421 15 15 11.6421 15 7.5C14.9952 3.35986 11.6401 0.00482173 7.5 0Z" fill="#5243C2" fill-opacity="0.15"/>
<path d="M11.8296 5.12472L7.55149 10.9303C7.44947 11.0657 7.29733 11.1544 7.12926 11.1765C6.96119 11.1986 6.7913 11.1522 6.65775 11.0478L3.60275 8.60535C3.33316 8.38961 3.28951 7.99618 3.50525 7.7266C3.72098 7.45702 4.11441 7.41336 4.384 7.6291L6.9315 9.66722L10.8234 4.38535C10.951 4.19384 11.1735 4.08796 11.4026 4.10975C11.6317 4.13153 11.8303 4.27746 11.9196 4.48958C12.0088 4.70171 11.9742 4.94572 11.8296 5.12472Z" fill="#5243C2"/>
</svg>
