<svg width="41" height="40" viewBox="0 0 41 40" fill="none" xmlns="http://www.w3.org/2000/svg">
<path d="M38.3122 5.40036V37.0936H2.08789V5.40036C2.08789 4.01756 3.21138 2.90643 4.58181 2.90643H35.8182C37.1887 2.90643 38.3122 4.01756 38.3122 5.40036Z" fill="white"/>
<path d="M20.5002 33.3544C27.5086 33.3544 33.8439 31.41 38.3096 28.2905V37.0937H2.09253V27.8524C6.59031 31.2284 13.1713 33.3544 20.5002 33.3544Z" fill="#EFEFEF"/>
<path d="M38.3122 5.40036V9.78339H2.08789V5.40036C2.08789 4.01756 3.21138 2.90643 4.58181 2.90643H35.8182C37.1887 2.90643 38.3122 4.01756 38.3122 5.40036Z" fill="#928F9F"/>
<path d="M38.3143 6.27657V9.77946H2.08789V5.98834C6.74369 7.06357 13.4391 7.73982 20.8883 7.73982C27.6282 7.73982 33.7694 7.18556 38.3143 6.27657Z" fill="#605E67"/>
<path d="M38.3123 37.4711H2.08769C1.87911 37.4711 1.71033 37.3023 1.71033 37.0937V5.40039C1.71033 3.81689 2.99828 2.52893 4.58179 2.52893H35.8182C37.4017 2.52893 38.6896 3.81689 38.6896 5.40039V37.0937C38.6896 37.3023 38.5208 37.4711 38.3123 37.4711ZM2.46504 36.7164H37.9349V5.40039C37.9349 4.23331 36.9852 3.28365 35.8182 3.28365H4.58179C3.41471 3.28365 2.46504 4.23331 2.46504 5.40039V36.7164Z" fill="#4B4952"/>
<path d="M38.3123 10.1609H2.08769C1.87911 10.1609 1.71033 9.99208 1.71033 9.7835V5.40039C1.71033 3.81689 2.99828 2.52893 4.58179 2.52893H35.8182C37.4017 2.52893 38.6896 3.81689 38.6896 5.40039V9.7835C38.6896 9.99208 38.5208 10.1609 38.3123 10.1609ZM2.46504 9.40614H37.9349V5.40039C37.9349 4.23331 36.9852 3.28365 35.8182 3.28365H4.58179C3.41471 3.28365 2.46504 4.23331 2.46504 5.40039V9.40614Z" fill="#4B4952"/>
<path d="M6.56898 7.38943C7.0279 7.38943 7.39992 7.0174 7.39992 6.55848C7.39992 6.09956 7.0279 5.72754 6.56898 5.72754C6.11006 5.72754 5.73804 6.09956 5.73804 6.55848C5.73804 7.0174 6.11006 7.38943 6.56898 7.38943Z" fill="white"/>
<path d="M9.8589 7.38943C10.3178 7.38943 10.6898 7.0174 10.6898 6.55848C10.6898 6.09956 10.3178 5.72754 9.8589 5.72754C9.39998 5.72754 9.02795 6.09956 9.02795 6.55848C9.02795 7.0174 9.39998 7.38943 9.8589 7.38943Z" fill="white"/>
<path d="M13.1487 7.38943C13.6076 7.38943 13.9796 7.0174 13.9796 6.55848C13.9796 6.09956 13.6076 5.72754 13.1487 5.72754C12.6898 5.72754 12.3177 6.09956 12.3177 6.55848C12.3177 7.0174 12.6898 7.38943 13.1487 7.38943Z" fill="white"/>
<path d="M8.43095 32.0882C8.22238 32.0882 8.05359 31.9194 8.05359 31.7108V14.9191C8.05359 14.7105 8.22238 14.5417 8.43095 14.5417C8.63954 14.5417 8.80831 14.7105 8.80831 14.9191V31.7108C8.80831 31.9194 8.63954 32.0882 8.43095 32.0882Z" fill="#4B4952"/>
<path d="M10.2723 17.9794V19.8402C10.2723 20.259 9.92137 20.6099 9.50254 20.6099H7.36302C6.93285 20.6099 6.59326 20.259 6.59326 19.8402V17.9794C6.59326 17.5492 6.93285 17.2097 7.36302 17.2097H9.50254C9.92137 17.2097 10.2723 17.5492 10.2723 17.9794Z" fill="#E3EBED"/>
<path d="M9.5026 20.9875H7.363C6.73027 20.9875 6.21582 20.473 6.21582 19.8403V17.9793C6.21582 17.3362 6.71958 16.8325 7.363 16.8325H9.5026C10.1353 16.8325 10.6498 17.3469 10.6498 17.9793V19.8403C10.6498 20.473 10.1353 20.9875 9.5026 20.9875ZM7.363 17.5872C7.143 17.5872 6.97054 17.7593 6.97054 17.9793V19.8403C6.97054 20.0566 7.14669 20.2327 7.363 20.2327H9.5026C9.71155 20.2327 9.89507 20.0492 9.89507 19.8403V17.9793C9.89507 17.763 9.71892 17.5872 9.5026 17.5872H7.363Z" fill="#4B4952"/>
<path d="M16.5437 32.0882C16.3352 32.0882 16.1664 31.9194 16.1664 31.7108V14.9191C16.1664 14.7105 16.3352 14.5417 16.5437 14.5417C16.7523 14.5417 16.9211 14.7105 16.9211 14.9191V31.7108C16.9211 31.9194 16.7523 32.0882 16.5437 32.0882Z" fill="#4B4952"/>
<path d="M18.3831 24.0848V25.9455C18.3831 26.3644 18.0322 26.7153 17.6134 26.7153H15.4739C15.0437 26.7153 14.7041 26.3644 14.7041 25.9455V24.0848C14.7041 23.6546 15.0437 23.315 15.4739 23.315H17.6134C18.0322 23.315 18.3831 23.6546 18.3831 24.0848Z" fill="#E3EBED"/>
<path d="M17.6132 27.0926H15.474C14.8412 27.0926 14.3268 26.5782 14.3268 25.9454V24.0848C14.3268 23.4414 14.8305 22.9376 15.474 22.9376H17.6132C18.2459 22.9376 18.7604 23.4521 18.7604 24.0848V25.9454C18.7604 26.5782 18.2459 27.0926 17.6132 27.0926ZM15.474 23.6923C15.254 23.6923 15.0815 23.8648 15.0815 24.0848V25.9454C15.0815 26.1618 15.2576 26.3379 15.474 26.3379H17.6132C17.8221 26.3379 18.0057 26.1544 18.0057 25.9454V24.0848C18.0057 23.8685 17.8295 23.6923 17.6132 23.6923H15.474Z" fill="#4B4952"/>
<path d="M24.6562 32.0882C24.4476 32.0882 24.2788 31.9194 24.2788 31.7108V14.9191C24.2788 14.7105 24.4476 14.5417 24.6562 14.5417C24.8647 14.5417 25.0335 14.7105 25.0335 14.9191V31.7108C25.0335 31.9194 24.8647 32.0882 24.6562 32.0882Z" fill="#4B4952"/>
<path d="M26.4958 19.6039V21.4646C26.4958 21.8835 26.1449 22.2344 25.726 22.2344H23.5865C23.1564 22.2344 22.8168 21.8835 22.8168 21.4646V19.6039C22.8168 19.1737 23.1564 18.8341 23.5865 18.8341H25.726C26.1449 18.8341 26.4958 19.1737 26.4958 19.6039Z" fill="#E3EBED"/>
<path d="M25.726 22.6118H23.5864C22.954 22.6118 22.4396 22.0974 22.4396 21.4647V19.604C22.4396 18.9606 22.9433 18.4568 23.5864 18.4568H25.726C26.3587 18.4568 26.8732 18.9713 26.8732 19.604V21.4647C26.8732 22.0974 26.3587 22.6118 25.726 22.6118ZM23.5864 19.2116C23.3627 19.2116 23.1943 19.3803 23.1943 19.604V21.4647C23.1943 21.681 23.3701 21.8571 23.5864 21.8571H25.726C25.9349 21.8571 26.1185 21.6736 26.1185 21.4647V19.604C26.1185 19.3877 25.9423 19.2116 25.726 19.2116H23.5864Z" fill="#4B4952"/>
<path d="M31.9672 32.0882C31.7586 32.0882 31.5898 31.9194 31.5898 31.7108V14.9191C31.5898 14.7105 31.7586 14.5417 31.9672 14.5417C32.1758 14.5417 32.3446 14.7105 32.3446 14.9191V31.7108C32.3446 31.9194 32.1758 32.0882 31.9672 32.0882Z" fill="#4B4952"/>
<path d="M33.8068 27.6015V29.4623C33.8068 29.8811 33.4559 30.232 33.0371 30.232H30.8976C30.4674 30.232 30.1278 29.8811 30.1278 29.4623V27.6015C30.1278 27.1713 30.4674 26.8317 30.8976 26.8317H33.0371C33.4559 26.8317 33.8068 27.1713 33.8068 27.6015Z" fill="#E3EBED"/>
<path d="M33.037 30.6093H30.8974C30.2647 30.6093 29.7502 30.0949 29.7502 29.4622V27.6015C29.7502 26.9581 30.254 26.4543 30.8974 26.4543H33.037C33.6698 26.4543 34.1842 26.9688 34.1842 27.6015V29.4622C34.1842 30.0949 33.6698 30.6093 33.037 30.6093ZM30.8974 27.2091C30.6774 27.2091 30.505 27.3815 30.505 27.6015V29.4622C30.505 29.6785 30.6811 29.8546 30.8974 29.8546H33.037C33.246 29.8546 33.4295 29.6711 33.4295 29.4622V27.6015C33.4295 27.3852 33.2533 27.2091 33.037 27.2091H30.8974Z" fill="#4B4952"/>
</svg>
