<svg width="38" height="36" viewBox="0 0 38 36" fill="none" xmlns="http://www.w3.org/2000/svg">
<path d="M37.3122 3.40036V35.0936H1.08789V3.40036C1.08789 2.01756 2.21138 0.906433 3.58181 0.906433H34.8182C36.1887 0.906433 37.3122 2.01756 37.3122 3.40036Z" fill="white"/>
<path d="M19.5002 31.3544C26.5086 31.3544 32.8439 29.41 37.3096 26.2905V35.0937H1.09253V25.8524C5.59031 29.2284 12.1713 31.3544 19.5002 31.3544Z" fill="#BBD6EA"/>
<path d="M37.3122 3.40036V7.78339H1.08789V3.40036C1.08789 2.01756 2.21138 0.906433 3.58181 0.906433H34.8182C36.1887 0.906433 37.3122 2.01756 37.3122 3.40036Z" fill="#70889F"/>
<path d="M37.3143 4.27657V7.77946H1.08789V3.98834C5.74369 5.06357 12.4391 5.73982 19.8883 5.73982C26.6282 5.73982 32.7694 5.18556 37.3143 4.27657Z" fill="#C6DDEA"/>
<path d="M37.3123 35.4711H1.08769C0.879107 35.4711 0.710327 35.3023 0.710327 35.0937V3.40039C0.710327 1.81689 1.99828 0.528931 3.58179 0.528931H34.8182C36.4017 0.528931 37.6896 1.81689 37.6896 3.40039V35.0937C37.6896 35.3023 37.5208 35.4711 37.3123 35.4711ZM1.46504 34.7164H36.9349V3.40039C36.9349 2.23331 35.9852 1.28365 34.8182 1.28365H3.58179C2.41471 1.28365 1.46504 2.23331 1.46504 3.40039V34.7164Z" fill="#C6DDEA"/>
<path d="M37.3123 8.16086H1.08769C0.879107 8.16086 0.710327 7.99208 0.710327 7.7835V3.40039C0.710327 1.81689 1.99828 0.528931 3.58179 0.528931H34.8182C36.4017 0.528931 37.6896 1.81689 37.6896 3.40039V7.7835C37.6896 7.99208 37.5208 8.16086 37.3123 8.16086ZM1.46504 7.40614H36.9349V3.40039C36.9349 2.23331 35.9852 1.28365 34.8182 1.28365H3.58179C2.41471 1.28365 1.46504 2.23331 1.46504 3.40039V7.40614Z" fill="#C6DDEA"/>
<path d="M5.56898 5.38943C6.0279 5.38943 6.39992 5.0174 6.39992 4.55848C6.39992 4.09956 6.0279 3.72754 5.56898 3.72754C5.11006 3.72754 4.73804 4.09956 4.73804 4.55848C4.73804 5.0174 5.11006 5.38943 5.56898 5.38943Z" fill="white"/>
<path d="M8.8589 5.38943C9.31782 5.38943 9.68984 5.0174 9.68984 4.55848C9.68984 4.09956 9.31782 3.72754 8.8589 3.72754C8.39998 3.72754 8.02795 4.09956 8.02795 4.55848C8.02795 5.0174 8.39998 5.38943 8.8589 5.38943Z" fill="white"/>
<path d="M12.1487 5.38943C12.6076 5.38943 12.9796 5.0174 12.9796 4.55848C12.9796 4.09956 12.6076 3.72754 12.1487 3.72754C11.6898 3.72754 11.3177 4.09956 11.3177 4.55848C11.3177 5.0174 11.6898 5.38943 12.1487 5.38943Z" fill="white"/>
<path d="M7.43095 30.0882C7.22238 30.0882 7.05359 29.9194 7.05359 29.7108V12.9191C7.05359 12.7105 7.22238 12.5417 7.43095 12.5417C7.63954 12.5417 7.80831 12.7105 7.80831 12.9191V29.7108C7.80831 29.9194 7.63954 30.0882 7.43095 30.0882Z" fill="#C6DDEA"/>
<path d="M9.27229 15.9794V17.8402C9.27229 18.259 8.92137 18.6099 8.50254 18.6099H6.36302C5.93285 18.6099 5.59326 18.259 5.59326 17.8402V15.9794C5.59326 15.5492 5.93285 15.2097 6.36302 15.2097H8.50254C8.92137 15.2097 9.27229 15.5492 9.27229 15.9794Z" fill="#E3EBED"/>
<path d="M8.5026 18.9875H6.363C5.73027 18.9875 5.21582 18.473 5.21582 17.8403V15.9793C5.21582 15.3362 5.71958 14.8325 6.363 14.8325H8.5026C9.13534 14.8325 9.64978 15.3469 9.64978 15.9793V17.8403C9.64978 18.473 9.13534 18.9875 8.5026 18.9875ZM6.363 15.5872C6.143 15.5872 5.97054 15.7593 5.97054 15.9793V17.8403C5.97054 18.0566 6.14669 18.2327 6.363 18.2327H8.5026C8.71155 18.2327 8.89507 18.0492 8.89507 17.8403V15.9793C8.89507 15.763 8.71892 15.5872 8.5026 15.5872H6.363Z" fill="#C6DDEA"/>
<path d="M15.5437 30.0882C15.3352 30.0882 15.1664 29.9194 15.1664 29.7108V12.9191C15.1664 12.7105 15.3352 12.5417 15.5437 12.5417C15.7523 12.5417 15.9211 12.7105 15.9211 12.9191V29.7108C15.9211 29.9194 15.7523 30.0882 15.5437 30.0882Z" fill="#C6DDEA"/>
<path d="M17.3831 22.0848V23.9455C17.3831 24.3644 17.0322 24.7153 16.6134 24.7153H14.4739C14.0437 24.7153 13.7041 24.3644 13.7041 23.9455V22.0848C13.7041 21.6546 14.0437 21.315 14.4739 21.315H16.6134C17.0322 21.315 17.3831 21.6546 17.3831 22.0848Z" fill="#E3EBED"/>
<path d="M16.6132 25.0926H14.474C13.8412 25.0926 13.3268 24.5782 13.3268 23.9454V22.0848C13.3268 21.4414 13.8305 20.9376 14.474 20.9376H16.6132C17.2459 20.9376 17.7604 21.4521 17.7604 22.0848V23.9454C17.7604 24.5782 17.2459 25.0926 16.6132 25.0926ZM14.474 21.6923C14.254 21.6923 14.0815 21.8648 14.0815 22.0848V23.9454C14.0815 24.1618 14.2576 24.3379 14.474 24.3379H16.6132C16.8221 24.3379 17.0057 24.1544 17.0057 23.9454V22.0848C17.0057 21.8685 16.8295 21.6923 16.6132 21.6923H14.474Z" fill="#C6DDEA"/>
<path d="M23.6562 30.0882C23.4476 30.0882 23.2788 29.9194 23.2788 29.7108V12.9191C23.2788 12.7105 23.4476 12.5417 23.6562 12.5417C23.8647 12.5417 24.0335 12.7105 24.0335 12.9191V29.7108C24.0335 29.9194 23.8647 30.0882 23.6562 30.0882Z" fill="#C6DDEA"/>
<path d="M25.4958 17.6039V19.4646C25.4958 19.8835 25.1449 20.2344 24.726 20.2344H22.5865C22.1564 20.2344 21.8168 19.8835 21.8168 19.4646V17.6039C21.8168 17.1737 22.1564 16.8341 22.5865 16.8341H24.726C25.1449 16.8341 25.4958 17.1737 25.4958 17.6039Z" fill="#E3EBED"/>
<path d="M24.726 20.6118H22.5864C21.954 20.6118 21.4396 20.0974 21.4396 19.4647V17.604C21.4396 16.9606 21.9433 16.4568 22.5864 16.4568H24.726C25.3587 16.4568 25.8732 16.9713 25.8732 17.604V19.4647C25.8732 20.0974 25.3587 20.6118 24.726 20.6118ZM22.5864 17.2116C22.3627 17.2116 22.1943 17.3803 22.1943 17.604V19.4647C22.1943 19.681 22.3701 19.8571 22.5864 19.8571H24.726C24.9349 19.8571 25.1185 19.6736 25.1185 19.4647V17.604C25.1185 17.3877 24.9423 17.2116 24.726 17.2116H22.5864Z" fill="#C6DDEA"/>
<path d="M30.9672 30.0882C30.7586 30.0882 30.5898 29.9194 30.5898 29.7108V12.9191C30.5898 12.7105 30.7586 12.5417 30.9672 12.5417C31.1758 12.5417 31.3446 12.7105 31.3446 12.9191V29.7108C31.3446 29.9194 31.1758 30.0882 30.9672 30.0882Z" fill="#C6DDEA"/>
<path d="M32.8068 25.6015V27.4623C32.8068 27.8811 32.4559 28.232 32.0371 28.232H29.8976C29.4674 28.232 29.1278 27.8811 29.1278 27.4623V25.6015C29.1278 25.1713 29.4674 24.8317 29.8976 24.8317H32.0371C32.4559 24.8317 32.8068 25.1713 32.8068 25.6015Z" fill="#E3EBED"/>
<path d="M32.037 28.6093H29.8974C29.2647 28.6093 28.7502 28.0949 28.7502 27.4622V25.6015C28.7502 24.9581 29.254 24.4543 29.8974 24.4543H32.037C32.6698 24.4543 33.1842 24.9688 33.1842 25.6015V27.4622C33.1842 28.0949 32.6698 28.6093 32.037 28.6093ZM29.8974 25.2091C29.6774 25.2091 29.505 25.3815 29.505 25.6015V27.4622C29.505 27.6785 29.6811 27.8546 29.8974 27.8546H32.037C32.246 27.8546 32.4295 27.6711 32.4295 27.4622V25.6015C32.4295 25.3852 32.2533 25.2091 32.037 25.2091H29.8974Z" fill="#C6DDEA"/>
</svg>
