<svg width="38" height="38" viewBox="0 0 38 38" fill="none" xmlns="http://www.w3.org/2000/svg">
<path d="M36.6857 15.3839L18.7297 34.675C16.2914 37.2946 12.1969 37.4414 9.57729 35.0031C8.26379 33.7805 7.57415 32.1526 7.51478 30.4949C7.45532 28.8373 8.03347 27.1568 9.24923 25.8507L27.2053 6.55954C28.0863 5.61298 29.574 5.55961 30.5206 6.44071L36.5669 12.0686C37.5135 12.9497 37.5668 14.4373 36.6857 15.3839Z" fill="#70889F"/>
<path d="M36.6858 15.3839L18.7297 34.675C16.2914 37.2946 12.1969 37.4414 9.57733 35.0031C9.18105 34.6343 8.83999 34.2209 8.56189 33.784C13.0212 31.7446 19.5727 26.5304 26.0202 19.6035C29.162 16.2281 31.8998 12.8601 34.0721 9.7464L36.567 12.0686C37.5135 12.9497 37.5668 14.4373 36.6858 15.3839Z" fill="#787582"/>
<path d="M13.9874 37.1127C12.3147 37.1127 10.6383 36.5061 9.32015 35.2793C7.97839 34.03 7.20304 32.336 7.13781 30.5085C7.07221 28.681 7.72412 26.9354 8.97301 25.5933L26.9289 6.30229C27.9522 5.20301 29.6791 5.14184 30.778 6.16446L36.8246 11.792C37.9235 12.815 37.9847 14.5419 36.9624 15.6408L19.0062 34.9322C17.6582 36.38 15.8248 37.1127 13.9874 37.1127ZM28.9229 6.19026C28.3952 6.19026 27.8686 6.40068 27.4816 6.81673L9.52578 26.1077C8.41397 27.3021 7.83356 28.8554 7.89179 30.4812C7.95002 32.1075 8.63987 33.6151 9.8346 34.7265C12.2959 37.0187 16.1627 36.8786 18.4534 34.4177L36.4096 15.1267C37.1489 14.3322 37.1046 13.0841 36.3101 12.3444L30.2635 6.71724C29.8847 6.36457 29.4034 6.19026 28.9229 6.19026Z" fill="#C6DDEA"/>
<path d="M32.3405 20.2705C32.2432 20.2705 32.1466 20.2332 32.0729 20.1592L22.9445 10.9695C22.7978 10.8214 22.7985 10.5826 22.9463 10.4356C23.0937 10.2885 23.3321 10.2896 23.4803 10.4374L32.608 19.627C32.7554 19.7752 32.7539 20.014 32.6065 20.161C32.5328 20.234 32.4363 20.2705 32.3405 20.2705Z" fill="#C6DDEA"/>
<path d="M25.8995 26.5223C25.8026 26.5223 25.7057 26.4851 25.6316 26.411L16.5035 17.2214C16.3569 17.0732 16.3576 16.8344 16.5054 16.6874C16.6532 16.5404 16.8916 16.5415 17.0394 16.6892L26.1675 25.8789C26.3141 26.027 26.3134 26.2658 26.1656 26.4129C26.0919 26.4858 25.9957 26.5223 25.8995 26.5223Z" fill="#C6DDEA"/>
<path d="M21.0928 32.1361L18.7297 34.675C16.2914 37.2946 12.1969 37.4414 9.57729 35.0031C9.43787 34.8733 9.31263 34.743 9.18735 34.6127C9.13547 34.5508 9.09094 34.4956 9.04641 34.4405C8.86144 34.2272 8.70483 34.0129 8.56186 33.784C7.90186 32.7863 7.55642 31.6567 7.51478 30.4949C7.45532 28.8372 8.03347 27.1568 9.24923 25.8506L11.6124 23.3118L21.0928 32.1361Z" fill="#00CF7D"/>
<path d="M21.0929 32.1361L18.7297 34.675C16.2914 37.2946 12.1969 37.4414 9.57733 35.0031C9.43791 34.8733 9.31267 34.743 9.18738 34.6127C9.13551 34.5508 9.09097 34.4956 9.04644 34.4405C8.86147 34.2272 8.70487 34.0129 8.56189 33.784C10.8787 32.7221 13.7606 30.803 16.903 28.2362L21.0929 32.1361Z" fill="#D0DBFB"/>
<path d="M13.9874 37.1126C12.3147 37.1126 10.6383 36.5061 9.32015 35.2793C7.97839 34.03 7.20304 32.336 7.13781 30.5085C7.07221 28.681 7.72412 26.9354 8.97301 25.5933L11.3359 23.0546C11.4041 22.9816 11.4988 22.9381 11.5987 22.9348C11.7063 22.9289 11.7962 22.9676 11.8695 23.0354L21.3503 31.8598C21.4233 31.928 21.4667 32.0227 21.4701 32.1226C21.4737 32.2228 21.4376 32.3201 21.3695 32.3934L19.0062 34.9321C17.6582 36.38 15.8248 37.1126 13.9874 37.1126ZM11.6315 23.845L9.52578 26.1077C8.41397 27.3021 7.83356 28.8553 7.89179 30.4812C7.95002 32.1071 8.63987 33.6151 9.8346 34.7265C12.2959 37.0187 16.1627 36.8786 18.4534 34.4177L20.5598 32.1554L11.6315 23.845Z" fill="#C6DDEA"/>
<path d="M13.1087 32.88C14.0315 32.88 14.7796 32.1319 14.7796 31.2091C14.7796 30.2863 14.0315 29.5381 13.1087 29.5381C12.1859 29.5381 11.4377 30.2863 11.4377 31.2091C11.4377 32.1319 12.1859 32.88 13.1087 32.88Z" fill="#C6DDEA"/>
<path d="M28.4871 7.4036L19.9238 32.3282C18.761 35.7128 15.0798 37.5114 11.6952 36.3486C9.99811 35.7656 8.70624 34.5586 7.97813 33.0682C7.24994 31.5779 7.09503 29.8075 7.67483 28.1199L16.2381 3.19527C16.6583 1.97229 17.9957 1.31877 19.2188 1.73897L27.0308 4.42292C28.2538 4.8431 28.9073 6.18062 28.4871 7.4036Z" fill="#E3EBED"/>
<path d="M28.4871 7.40358L19.9238 32.3282C18.761 35.7128 15.0798 37.5114 11.6952 36.3486C11.1832 36.1727 10.7035 35.9337 10.2719 35.6476C13.517 31.9715 17.3831 24.5443 20.4579 15.5946C21.9562 11.2334 23.0884 7.04332 23.8074 3.31543L27.0308 4.4229C28.2538 4.84307 28.9072 6.18059 28.4871 7.40358Z" fill="#889CA9"/>
<path d="M13.7931 37.078C13.0561 37.078 12.3077 36.9583 11.5725 36.7055C9.83825 36.1096 8.44159 34.8765 7.63933 33.2337C6.83634 31.5909 6.72247 29.731 7.31799 27.9971L15.8815 3.07266C16.1174 2.38575 16.6075 1.83151 17.2616 1.512C17.9161 1.1925 18.6542 1.14607 19.3415 1.38229L27.1536 4.06617C27.8402 4.30202 28.3944 4.79215 28.7143 5.44663C29.0342 6.10074 29.0799 6.83924 28.844 7.52615L20.2805 32.451C19.3054 35.2896 16.6396 37.078 13.7931 37.078ZM18.4585 1.98886C17.6408 1.98886 16.875 2.50257 16.595 3.31809L8.03143 28.2425C7.50151 29.7855 7.60322 31.4405 8.3174 32.9024C9.03121 34.3643 10.2742 35.4614 11.8179 35.992C14.9971 37.0832 18.474 35.3858 19.567 32.2055L28.1306 7.28072C28.3008 6.7847 28.2676 6.2511 28.0362 5.77792C27.8048 5.30475 27.4042 4.95024 26.9082 4.77962L19.0961 2.09573C18.8853 2.0235 18.6701 1.98886 18.4585 1.98886Z" fill="#C6DDEA"/>
<path d="M21.0508 29.0479L19.9238 32.3282C18.761 35.7128 15.0798 37.5114 11.6952 36.3486C11.515 36.2867 11.3477 36.2186 11.1802 36.1504C11.1077 36.115 11.0445 36.0827 10.9814 36.0504C10.7257 35.9307 10.4956 35.7986 10.2719 35.6476C9.26326 35.0043 8.48846 34.1127 7.97813 33.0682C7.24994 31.5778 7.09503 29.8075 7.67483 28.1199L8.80182 24.8396L21.0508 29.0479Z" fill="#00CF7D"/>
<path d="M21.0508 29.048L19.9238 32.3282C18.761 35.7129 15.0798 37.5115 11.6952 36.3486C11.515 36.2867 11.3477 36.2186 11.1802 36.1505C11.1076 36.115 11.0445 36.0827 10.9814 36.0504C10.7257 35.9307 10.4956 35.7987 10.2719 35.6476C11.9569 33.7356 13.8098 30.8107 15.6374 27.1881L21.0508 29.048Z" fill="#D0DBFB"/>
<path d="M13.7931 37.078C13.0561 37.078 12.3077 36.9583 11.5725 36.7055C9.83825 36.1096 8.44159 34.8765 7.63933 33.2337C6.83634 31.5909 6.72247 29.731 7.31799 27.9971L8.44527 24.717C8.51271 24.5202 8.72608 24.4148 8.92471 24.483L21.1737 28.6914C21.2685 28.7238 21.3462 28.7927 21.3901 28.8827C21.4339 28.9726 21.4406 29.0761 21.4078 29.1708L20.2805 32.451C19.3054 35.2896 16.6396 37.078 13.7931 37.078ZM9.03637 25.3191L8.03143 28.2426C7.50151 29.7855 7.60322 31.4405 8.3174 32.9024C9.03121 34.3643 10.2742 35.4614 11.8179 35.992C14.9971 37.0832 18.474 35.3858 19.567 32.2056L20.5716 29.2825L9.03637 25.3191Z" fill="#C6DDEA"/>
<path d="M13.3788 33.1178C14.3017 33.1178 15.0498 32.3697 15.0498 31.4468C15.0498 30.524 14.3017 29.7759 13.3788 29.7759C12.456 29.7759 11.7079 30.524 11.7079 31.4468C11.7079 32.3697 12.456 33.1178 13.3788 33.1178Z" fill="#C6DDEA"/>
<path d="M26.6761 13.0822C26.6333 13.0822 26.5898 13.0749 26.5471 13.0594L14.3736 8.63612C14.1779 8.565 14.0766 8.34868 14.148 8.15263C14.2192 7.95695 14.4348 7.85561 14.6315 7.9271L26.805 12.3504C27.0007 12.4215 27.1021 12.6378 27.0306 12.8339C26.9749 12.9872 26.8301 13.0822 26.6761 13.0822Z" fill="#C6DDEA"/>
<path d="M23.5135 21.4829C23.4707 21.4829 23.4272 21.4755 23.3845 21.46L11.2106 17.0364C11.0149 16.9652 10.9136 16.7489 10.9851 16.5529C11.0562 16.3572 11.2725 16.2562 11.4686 16.3273L23.6424 20.751C23.8381 20.8221 23.9395 21.0384 23.868 21.2345C23.8123 21.3878 23.6675 21.4829 23.5135 21.4829Z" fill="#C6DDEA"/>
<path d="M13.7239 3.04395L20.0978 28.6162C20.9634 32.0888 18.853 35.6005 15.3804 36.4661C13.6393 36.9001 11.8987 36.5901 10.477 35.7356C9.05521 34.8813 7.96213 33.48 7.53057 31.7486L1.15666 6.17635C0.843913 4.92159 1.61066 3.64565 2.86548 3.33288L10.8805 1.33513C12.1353 1.02238 13.4112 1.78919 13.7239 3.04395Z" fill="#70889F"/>
<path d="M13.724 3.04395L20.0979 28.6162C20.9634 32.0887 18.853 35.6005 15.3805 36.4661C14.8552 36.597 14.3227 36.6574 13.8049 36.6521C14.528 31.8022 13.7315 23.4671 11.4428 14.2848C10.3275 9.81033 8.9981 5.67857 7.57336 2.15945L10.8806 1.33513C12.1353 1.02238 13.4112 1.78919 13.724 3.04395Z" fill="#787582"/>
<path d="M13.7968 37.039C12.5685 37.039 11.3606 36.7069 10.2823 36.0591C8.71499 35.1172 7.6076 33.6188 7.16428 31.84L0.790462 6.26766C0.427476 4.81056 1.31707 3.32987 2.77417 2.96651L10.789 0.968796C11.4943 0.793752 12.2258 0.902832 12.8497 1.27835C13.474 1.6535 13.9144 2.24791 14.0901 2.95288L20.4643 28.5248C21.3779 32.1919 19.138 35.9183 15.4717 36.8322C14.916 36.9704 14.3544 37.039 13.7968 37.039ZM11.4494 1.64244C11.2902 1.64244 11.1299 1.6616 10.9718 1.7014L2.95696 3.69912C2.44767 3.82589 2.01798 4.14428 1.74676 4.59571C1.47553 5.04714 1.39593 5.57596 1.52307 6.08488L7.89689 31.6572C8.2912 33.2407 9.2766 34.5743 10.6711 35.412C12.0666 36.2503 13.7069 36.4947 15.2889 36.0996C16.8706 35.7057 18.2035 34.7199 19.0422 33.3243C19.881 31.9288 20.126 30.2893 19.7317 28.7076L13.3575 3.13529C13.2308 2.62637 12.9124 2.19632 12.4609 1.92509C12.1499 1.73825 11.802 1.64244 11.4494 1.64244Z" fill="#C6DDEA"/>
<path d="M19.259 25.2507L20.0979 28.6162C20.9634 32.0888 18.853 35.6006 15.3805 36.4661C15.1957 36.5122 15.0182 36.5461 14.8406 36.58C14.7604 36.5897 14.6899 36.5969 14.6194 36.6042C14.3397 36.6428 14.0747 36.6572 13.8049 36.6522C12.6086 36.6611 11.4735 36.3345 10.477 35.7357C9.05527 34.8813 7.96219 33.4801 7.53063 31.7486L6.69177 28.3831L19.259 25.2507Z" fill="#F8FAFB"/>
<path d="M19.259 25.2507L20.0979 28.6162C20.9634 32.0888 18.853 35.6006 15.3805 36.4661C15.1957 36.5122 15.0182 36.5461 14.8406 36.58C14.7604 36.5897 14.6899 36.5969 14.6194 36.6042C14.3397 36.6428 14.0747 36.6572 13.8049 36.6522C14.1786 34.1312 14.1421 30.669 13.705 26.6351L19.259 25.2507Z" fill="#BBD6EA"/>
<path d="M13.7968 37.039C12.5685 37.039 11.3605 36.7069 10.2822 36.0591C8.71496 35.1171 7.60757 33.6188 7.16425 31.84L6.32551 28.4747C6.27539 28.2724 6.39848 28.0675 6.60042 28.017L19.1675 24.8842C19.3687 24.8341 19.5743 24.9568 19.6252 25.1592L20.4643 28.5248C20.9069 30.3021 20.632 32.1447 19.6893 33.7131C18.7466 35.2815 17.2486 36.3893 15.4717 36.8322C14.9159 36.9704 14.3543 37.039 13.7968 37.039ZM7.14914 28.6582L7.89686 31.6572C8.29117 33.2407 9.27657 34.5743 10.671 35.412C12.0666 36.2503 13.7069 36.4947 15.2889 36.0996C16.8705 35.7057 18.2035 34.7199 19.0422 33.3243C19.8809 31.9288 20.126 30.2892 19.7317 28.7076L18.984 25.7079L7.14914 28.6582Z" fill="#C6DDEA"/>
<path d="M14.1268 33.1079C15.0496 33.1079 15.7977 32.3598 15.7977 31.437C15.7977 30.5142 15.0496 29.7661 14.1268 29.7661C13.2039 29.7661 12.4558 30.5142 12.4558 31.437C12.4558 32.3598 13.2039 33.1079 14.1268 33.1079Z" fill="#C6DDEA"/>
<path d="M2.69014 12.7074C2.52246 12.7074 2.36916 12.5947 2.32531 12.4248C2.27298 12.2232 2.39385 12.0172 2.5958 11.9649L15.133 8.71202C15.3346 8.65711 15.541 8.78093 15.5929 8.98251C15.6452 9.18408 15.5244 9.39008 15.3224 9.44241L2.78521 12.6953C2.75352 12.7038 2.72146 12.7074 2.69014 12.7074Z" fill="#C6DDEA"/>
<path d="M4.8437 21.4214C4.67603 21.4214 4.52272 21.3086 4.47887 21.1387C4.42654 20.9371 4.54741 20.7311 4.74936 20.6788L17.2866 17.4259C17.4885 17.3732 17.6945 17.4948 17.7465 17.6964C17.7988 17.898 17.6779 18.104 17.476 18.1563L4.93878 21.4092C4.90708 21.4177 4.87502 21.4214 4.8437 21.4214Z" fill="#C6DDEA"/>
</svg>
