<svg width="41" height="40" viewBox="0 0 41 40" fill="none" xmlns="http://www.w3.org/2000/svg">
<path d="M37.6857 16.3839L19.7297 35.675C17.2914 38.2946 13.1969 38.4414 10.5773 36.0031C9.26379 34.7805 8.57415 33.1526 8.51478 31.4949C8.45532 29.8373 9.03347 28.1568 10.2492 26.8507L28.2053 7.55954C29.0863 6.61298 30.574 6.55961 31.5206 7.44071L37.5669 13.0686C38.5135 13.9497 38.5668 15.4373 37.6857 16.3839Z" fill="#928F9F"/>
<path d="M37.6858 16.3839L19.7297 35.675C17.2914 38.2946 13.1969 38.4414 10.5773 36.0031C10.1811 35.6343 9.83999 35.2209 9.56189 34.784C14.0212 32.7446 20.5727 27.5304 27.0202 20.6035C30.162 17.2281 32.8998 13.8601 35.0721 10.7464L37.567 13.0686C38.5135 13.9497 38.5668 15.4373 37.6858 16.3839Z" fill="#787582"/>
<path d="M14.9874 38.1127C13.3147 38.1127 11.6383 37.5061 10.3202 36.2793C8.97839 35.03 8.20304 33.336 8.13781 31.5085C8.07221 29.681 8.72412 27.9354 9.97301 26.5933L27.9289 7.30229C28.9522 6.20301 30.6791 6.14184 31.778 7.16446L37.8246 12.792C38.9235 13.815 38.9847 15.5419 37.9624 16.6408L20.0062 35.9322C18.6582 37.38 16.8248 38.1127 14.9874 38.1127ZM29.9229 7.19026C29.3952 7.19026 28.8686 7.40068 28.4816 7.81673L10.5258 27.1077C9.41397 28.3021 8.83356 29.8554 8.89179 31.4812C8.95002 33.1075 9.63987 34.6151 10.8346 35.7265C13.2959 38.0187 17.1627 37.8786 19.4534 35.4177L37.4096 16.1267C38.1489 15.3322 38.1046 14.0841 37.3101 13.3444L31.2635 7.71724C30.8847 7.36457 30.4034 7.19026 29.9229 7.19026Z" fill="#4B4952"/>
<path d="M33.3405 21.2705C33.2432 21.2705 33.1466 21.2332 33.0729 21.1592L23.9445 11.9695C23.7978 11.8214 23.7985 11.5826 23.9463 11.4356C24.0937 11.2885 24.3321 11.2896 24.4803 11.4374L33.608 20.627C33.7554 20.7752 33.7539 21.014 33.6065 21.161C33.5328 21.234 33.4363 21.2705 33.3405 21.2705Z" fill="#4B4952"/>
<path d="M26.8995 27.5223C26.8026 27.5223 26.7057 27.4851 26.6316 27.411L17.5035 18.2214C17.3569 18.0732 17.3576 17.8344 17.5054 17.6874C17.6532 17.5404 17.8916 17.5415 18.0394 17.6892L27.1675 26.8789C27.3141 27.027 27.3134 27.2658 27.1656 27.4129C27.0919 27.4858 26.9957 27.5223 26.8995 27.5223Z" fill="#4B4952"/>
<path d="M22.0928 33.1361L19.7297 35.675C17.2914 38.2946 13.1969 38.4414 10.5773 36.0031C10.4379 35.8733 10.3126 35.743 10.1873 35.6127C10.1355 35.5508 10.0909 35.4956 10.0464 35.4405C9.86144 35.2272 9.70483 35.0129 9.56186 34.784C8.90186 33.7863 8.55642 32.6567 8.51478 31.4949C8.45532 29.8372 9.03347 28.1568 10.2492 26.8506L12.6124 24.3118L22.0928 33.1361Z" fill="#00CF7D"/>
<path d="M22.0929 33.1361L19.7297 35.675C17.2914 38.2946 13.1969 38.4414 10.5773 36.0031C10.4379 35.8733 10.3127 35.743 10.1874 35.6127C10.1355 35.5508 10.091 35.4956 10.0464 35.4405C9.86147 35.2272 9.70487 35.0129 9.56189 34.784C11.8787 33.7221 14.7606 31.803 17.903 29.2362L22.0929 33.1361Z" fill="#D0DBFB"/>
<path d="M14.9874 38.1126C13.3147 38.1126 11.6383 37.5061 10.3202 36.2793C8.97839 35.03 8.20304 33.336 8.13781 31.5085C8.07221 29.681 8.72412 27.9354 9.97301 26.5933L12.3359 24.0546C12.4041 23.9816 12.4988 23.9381 12.5987 23.9348C12.7063 23.9289 12.7962 23.9676 12.8695 24.0354L22.3503 32.8598C22.4233 32.928 22.4667 33.0227 22.4701 33.1226C22.4737 33.2228 22.4376 33.3201 22.3695 33.3934L20.0062 35.9321C18.6582 37.38 16.8248 38.1126 14.9874 38.1126ZM12.6315 24.845L10.5258 27.1077C9.41397 28.3021 8.83356 29.8553 8.89179 31.4812C8.95002 33.1071 9.63987 34.6151 10.8346 35.7265C13.2959 38.0187 17.1627 37.8786 19.4534 35.4177L21.5598 33.1554L12.6315 24.845Z" fill="#4B4952"/>
<path d="M14.1087 33.88C15.0315 33.88 15.7796 33.1319 15.7796 32.2091C15.7796 31.2863 15.0315 30.5381 14.1087 30.5381C13.1859 30.5381 12.4377 31.2863 12.4377 32.2091C12.4377 33.1319 13.1859 33.88 14.1087 33.88Z" fill="#4B4952"/>
<path d="M29.4871 8.4036L20.9238 33.3282C19.761 36.7128 16.0798 38.5114 12.6952 37.3486C10.9981 36.7656 9.70624 35.5586 8.97813 34.0682C8.24994 32.5779 8.09503 30.8075 8.67483 29.1199L17.2381 4.19527C17.6583 2.97229 18.9957 2.31877 20.2188 2.73897L28.0308 5.42292C29.2538 5.8431 29.9073 7.18062 29.4871 8.4036Z" fill="#E3EBED"/>
<path d="M29.4871 8.40358L20.9238 33.3282C19.761 36.7128 16.0798 38.5114 12.6952 37.3486C12.1832 37.1727 11.7035 36.9337 11.2719 36.6476C14.517 32.9715 18.3831 25.5443 21.4579 16.5946C22.9562 12.2334 24.0884 8.04332 24.8074 4.31543L28.0308 5.4229C29.2538 5.84307 29.9072 7.18059 29.4871 8.40358Z" fill="#A4A1AE"/>
<path d="M14.7931 38.078C14.0561 38.078 13.3077 37.9583 12.5725 37.7055C10.8383 37.1096 9.44159 35.8765 8.63933 34.2337C7.83634 32.5909 7.72247 30.731 8.31799 28.9971L16.8815 4.07266C17.1174 3.38575 17.6075 2.83151 18.2616 2.512C18.9161 2.1925 19.6542 2.14607 20.3415 2.38229L28.1536 5.06617C28.8402 5.30202 29.3944 5.79215 29.7143 6.44663C30.0342 7.10074 30.0799 7.83924 29.844 8.52615L21.2805 33.451C20.3054 36.2896 17.6396 38.078 14.7931 38.078ZM19.4585 2.98886C18.6408 2.98886 17.875 3.50257 17.595 4.31809L9.03143 29.2425C8.50151 30.7855 8.60322 32.4405 9.3174 33.9024C10.0312 35.3643 11.2742 36.4614 12.8179 36.992C15.9971 38.0832 19.474 36.3858 20.567 33.2055L29.1306 8.28072C29.3008 7.7847 29.2676 7.2511 29.0362 6.77792C28.8048 6.30475 28.4042 5.95024 27.9082 5.77962L20.0961 3.09573C19.8853 3.0235 19.6701 2.98886 19.4585 2.98886Z" fill="#4B4952"/>
<path d="M22.0508 30.0479L20.9238 33.3282C19.761 36.7128 16.0798 38.5114 12.6952 37.3486C12.515 37.2867 12.3477 37.2186 12.1802 37.1504C12.1077 37.115 12.0445 37.0827 11.9814 37.0504C11.7257 36.9307 11.4956 36.7986 11.2719 36.6476C10.2633 36.0043 9.48846 35.1127 8.97813 34.0682C8.24994 32.5778 8.09503 30.8075 8.67483 29.1199L9.80182 25.8396L22.0508 30.0479Z" fill="#00CF7D"/>
<path d="M22.0508 30.048L20.9238 33.3282C19.761 36.7129 16.0798 38.5115 12.6952 37.3486C12.515 37.2867 12.3477 37.2186 12.1802 37.1505C12.1076 37.115 12.0445 37.0827 11.9814 37.0504C11.7257 36.9307 11.4956 36.7987 11.2719 36.6476C12.9569 34.7356 14.8098 31.8107 16.6374 28.1881L22.0508 30.048Z" fill="#D0DBFB"/>
<path d="M14.7931 38.078C14.0561 38.078 13.3077 37.9583 12.5725 37.7055C10.8383 37.1096 9.44159 35.8765 8.63933 34.2337C7.83634 32.5909 7.72247 30.731 8.31799 28.9971L9.44527 25.717C9.51271 25.5202 9.72608 25.4148 9.92471 25.483L22.1737 29.6914C22.2685 29.7238 22.3462 29.7927 22.3901 29.8827C22.4339 29.9726 22.4406 30.0761 22.4078 30.1708L21.2805 33.451C20.3054 36.2896 17.6396 38.078 14.7931 38.078ZM10.0364 26.3191L9.03143 29.2426C8.50151 30.7855 8.60322 32.4405 9.3174 33.9024C10.0312 35.3643 11.2742 36.4614 12.8179 36.992C15.9971 38.0832 19.474 36.3858 20.567 33.2056L21.5716 30.2825L10.0364 26.3191Z" fill="#4B4952"/>
<path d="M14.3788 34.1178C15.3017 34.1178 16.0498 33.3697 16.0498 32.4468C16.0498 31.524 15.3017 30.7759 14.3788 30.7759C13.456 30.7759 12.7079 31.524 12.7079 32.4468C12.7079 33.3697 13.456 34.1178 14.3788 34.1178Z" fill="#4B4952"/>
<path d="M27.6761 14.0822C27.6333 14.0822 27.5898 14.0749 27.5471 14.0594L15.3736 9.63612C15.1779 9.565 15.0766 9.34868 15.148 9.15263C15.2192 8.95695 15.4348 8.85561 15.6315 8.9271L27.805 13.3504C28.0007 13.4215 28.1021 13.6378 28.0306 13.8339C27.9749 13.9872 27.8301 14.0822 27.6761 14.0822Z" fill="#4B4952"/>
<path d="M24.5135 22.4829C24.4707 22.4829 24.4272 22.4755 24.3845 22.46L12.2106 18.0364C12.0149 17.9652 11.9136 17.7489 11.9851 17.5529C12.0562 17.3572 12.2725 17.2562 12.4686 17.3273L24.6424 21.751C24.8381 21.8221 24.9395 22.0384 24.868 22.2345C24.8123 22.3878 24.6675 22.4829 24.5135 22.4829Z" fill="#4B4952"/>
<path d="M14.7239 4.04395L21.0978 29.6162C21.9634 33.0888 19.853 36.6005 16.3804 37.4661C14.6393 37.9001 12.8987 37.5901 11.477 36.7356C10.0552 35.8813 8.96213 34.48 8.53057 32.7486L2.15666 7.17635C1.84391 5.92159 2.61066 4.64565 3.86548 4.33288L11.8805 2.33513C13.1353 2.02238 14.4112 2.78919 14.7239 4.04395Z" fill="#928F9F"/>
<path d="M14.724 4.04395L21.0979 29.6162C21.9634 33.0887 19.853 36.6005 16.3805 37.4661C15.8552 37.597 15.3227 37.6574 14.8049 37.6521C15.528 32.8022 14.7315 24.4671 12.4428 15.2848C11.3275 10.8103 9.9981 6.67857 8.57336 3.15945L11.8806 2.33513C13.1353 2.02238 14.4112 2.78919 14.724 4.04395Z" fill="#787582"/>
<path d="M14.7968 38.039C13.5685 38.039 12.3606 37.7069 11.2823 37.0591C9.71499 36.1172 8.6076 34.6188 8.16428 32.84L1.79046 7.26766C1.42748 5.81056 2.31707 4.32987 3.77417 3.96651L11.789 1.9688C12.4943 1.79375 13.2258 1.90283 13.8497 2.27835C14.474 2.6535 14.9144 3.24791 15.0901 3.95288L21.4643 29.5248C22.3779 33.1919 20.138 36.9183 16.4717 37.8322C15.916 37.9704 15.3544 38.039 14.7968 38.039ZM12.4494 2.64244C12.2902 2.64244 12.1299 2.6616 11.9718 2.7014L3.95696 4.69912C3.44767 4.82589 3.01798 5.14428 2.74676 5.59571C2.47553 6.04714 2.39593 6.57596 2.52307 7.08488L8.89689 32.6572C9.2912 34.2407 10.2766 35.5743 11.6711 36.412C13.0666 37.2503 14.7069 37.4947 16.2889 37.0996C17.8706 36.7057 19.2035 35.7199 20.0422 34.3243C20.881 32.9288 21.126 31.2893 20.7317 29.7076L14.3575 4.13529C14.2308 3.62637 13.9124 3.19632 13.4609 2.92509C13.1499 2.73825 12.802 2.64244 12.4494 2.64244Z" fill="#4B4952"/>
<path d="M20.259 26.2507L21.0979 29.6162C21.9634 33.0888 19.853 36.6006 16.3805 37.4661C16.1957 37.5122 16.0182 37.5461 15.8406 37.58C15.7604 37.5897 15.6899 37.5969 15.6194 37.6042C15.3397 37.6428 15.0747 37.6572 14.8049 37.6522C13.6086 37.6611 12.4735 37.3345 11.477 36.7357C10.0553 35.8813 8.96219 34.4801 8.53063 32.7486L7.69177 29.3831L20.259 26.2507Z" fill="#F8FAFB"/>
<path d="M20.259 26.2507L21.0979 29.6162C21.9634 33.0888 19.853 36.6006 16.3805 37.4661C16.1957 37.5122 16.0182 37.5461 15.8406 37.58C15.7604 37.5897 15.6899 37.5969 15.6194 37.6042C15.3397 37.6428 15.0747 37.6572 14.8049 37.6522C15.1786 35.1312 15.1421 31.669 14.705 27.6351L20.259 26.2507Z" fill="#EFEFEF"/>
<path d="M14.7968 38.039C13.5685 38.039 12.3605 37.7069 11.2822 37.0591C9.71496 36.1171 8.60757 34.6188 8.16425 32.84L7.32551 29.4747C7.27539 29.2724 7.39848 29.0675 7.60042 29.017L20.1675 25.8842C20.3687 25.8341 20.5743 25.9568 20.6252 26.1592L21.4643 29.5248C21.9069 31.3021 21.632 33.1447 20.6893 34.7131C19.7466 36.2815 18.2486 37.3893 16.4717 37.8322C15.9159 37.9704 15.3543 38.039 14.7968 38.039ZM8.14914 29.6582L8.89686 32.6572C9.29117 34.2407 10.2766 35.5743 11.671 36.412C13.0666 37.2503 14.7069 37.4947 16.2889 37.0996C17.8705 36.7057 19.2035 35.7199 20.0422 34.3243C20.8809 32.9288 21.126 31.2892 20.7317 29.7076L19.984 26.7079L8.14914 29.6582Z" fill="#4B4952"/>
<path d="M15.1268 34.1079C16.0496 34.1079 16.7977 33.3598 16.7977 32.437C16.7977 31.5142 16.0496 30.7661 15.1268 30.7661C14.2039 30.7661 13.4558 31.5142 13.4558 32.437C13.4558 33.3598 14.2039 34.1079 15.1268 34.1079Z" fill="#4B4952"/>
<path d="M3.69014 13.7074C3.52246 13.7074 3.36916 13.5947 3.32531 13.4248C3.27298 13.2232 3.39385 13.0172 3.5958 12.9649L16.133 9.71202C16.3346 9.65711 16.541 9.78093 16.5929 9.98251C16.6452 10.1841 16.5244 10.3901 16.3224 10.4424L3.78521 13.6953C3.75352 13.7038 3.72146 13.7074 3.69014 13.7074Z" fill="#4B4952"/>
<path d="M5.8437 22.4214C5.67603 22.4214 5.52272 22.3086 5.47887 22.1387C5.42654 21.9371 5.54741 21.7311 5.74936 21.6788L18.2866 18.4259C18.4885 18.3732 18.6945 18.4948 18.7465 18.6964C18.7988 18.898 18.6779 19.104 18.476 19.1563L5.93878 22.4092C5.90708 22.4177 5.87502 22.4214 5.8437 22.4214Z" fill="#4B4952"/>
</svg>
