<svg xmlns="http://www.w3.org/2000/svg" width="70" height="70" fill="none"><rect width="70" height="70" fill="#292732" rx="15.217"/><path fill="#46C1E3" fill-rule="evenodd" d="M46.44 50.41c-.334-.472-.787-.925-1.121-1.338-.729-.926-1.476-1.85-2.264-2.717q-.811-.9-1.712-1.713a10.5 10.5 0 0 0-1.495-1.26 3.37 3.37 0 0 0-1.614-.59 2.46 2.46 0 0 0-1.318.354c-.925.532-2.184 1.791-3.345 2.579a4 4 0 0 1-.748.413c-.138 0-.295.138-.394 0l-6.316-7.343c-.846-.925-1.968-1.968-3.03-3.228a7.1 7.1 0 0 1-1.378-2.303c-.099-.315.157-.65.452-1.024.807-1.024 2.224-2.087 3.03-3.13.476-.462.81-1.049.965-1.693a1.52 1.52 0 0 0-.197-.984c-.236-.394-.65-.768-.846-1.044l-3.444-4.488a.609.609 0 1 0-.944.748l3.384 4.528.788 1.043a3.8 3.8 0 0 1-1.3 1.614 25 25 0 0 0-2.833 2.737 2.48 2.48 0 0 0-.55 2.146 8.7 8.7 0 0 0 1.593 2.854c.964 1.26 2.165 2.421 3.01 3.386l6.081 7.48a2.165 2.165 0 0 0 2.46.67 12.5 12.5 0 0 0 3.385-2.205c.374-.295.748-.59 1.062-.787s.335 0 .335-.138c.259.061.496.19.689.374.374.276.708.63 1.023.905.315.276 1.043 1.044 1.535 1.595s1.456 1.732 2.145 2.618c.275.335.63.69.925 1.083q.177.224.275.492c.276.847-.472 1.516-1.24 2.107-.952.7-2.017 1.232-3.148 1.574a16.82 16.82 0 0 1-11.807-.984 29.5 29.5 0 0 1-9.701-7.736 21.5 21.5 0 0 1-5.727-13.485c-.216-6.201 2.637-11.28 5.746-12.796a.69.69 0 0 0 .315-.906.67.67 0 0 0-.905-.334c-3.483 1.634-6.848 7.165-6.848 14.075a23.4 23.4 0 0 0 5.904 14.725 31.2 31.2 0 0 0 10.232 8.386 18.73 18.73 0 0 0 13.381 1.201 11.8 11.8 0 0 0 4.664-2.579 3.82 3.82 0 0 0 1.299-3.937 3.8 3.8 0 0 0-.453-.945M39.77 35.291a.69.69 0 0 0 .826-.511 6.7 6.7 0 0 0 0-4.607 5.7 5.7 0 0 0-1.063-1.791 5.2 5.2 0 0 0-1.692-1.24 6.47 6.47 0 0 0-4.585-.493.595.595 0 0 0 .137 1.181c1.2.027 2.36.442 3.306 1.182q.58.417 1.063.945a5.5 5.5 0 0 1 1.515 4.586.67.67 0 0 0 .492.748" clip-rule="evenodd"/><path fill="#46C1E3" fill-rule="evenodd" d="M46.834 24.78a13.3 13.3 0 0 0-4.841-4.253 11.7 11.7 0 0 0-5.904-1.122 12.3 12.3 0 0 0-5.53 1.693.599.599 0 0 0 .552 1.063 10.8 10.8 0 0 1 5.018-1.063 9.84 9.84 0 0 1 4.782 1.378 11.8 11.8 0 0 1 3.935 3.622 14.2 14.2 0 0 1 1.988 3.209 9.57 9.57 0 0 1-.473 8.8.67.67 0 0 0 .177.944.69.69 0 0 0 .945-.157 11.15 11.15 0 0 0 1.318-10.276 14.5 14.5 0 0 0-1.967-3.839" clip-rule="evenodd"/><path fill="#46C1E3" fill-rule="evenodd" d="M58.385 26.079a14.3 14.3 0 0 0-.906-3.19 18.3 18.3 0 0 0-1.515-2.893 18.9 18.9 0 0 0-5.49-5.552 19 19 0 0 0-7.261-2.776 24.7 24.7 0 0 0-14.838 2.48.61.61 0 0 0 .037 1.12.6.6 0 0 0 .455-.017 23.37 23.37 0 0 1 14.03-1.634c2.281.487 4.446 1.41 6.377 2.717a17.5 17.5 0 0 1 4.781 4.902c.536.788.998 1.625 1.378 2.5.383.86.673 1.756.866 2.677.38 2.058.453 4.161.216 6.24a20.1 20.1 0 0 1-1.594 6.064l-2.46 4.173a.69.69 0 0 0 .276.925.69.69 0 0 0 .925-.275l2.656-4.154a21.4 21.4 0 0 0 1.968-6.496c.365-2.254.398-4.548.099-6.812" clip-rule="evenodd"/></svg>