<svg width="63" height="62" fill="none" xmlns="http://www.w3.org/2000/svg"><path fill-rule="evenodd" clip-rule="evenodd" d="M46.278 51.253c-.44-.62-1.035-1.216-1.474-1.759-.957-1.216-1.94-2.432-2.975-3.57a30.787 30.787 0 0 0-2.25-2.251 13.837 13.837 0 0 0-1.965-1.656 4.422 4.422 0 0 0-2.121-.776c-.61-.012-1.21.15-1.733.465-1.215.699-2.87 2.355-4.396 3.39a5.377 5.377 0 0 1-.983.543c-.181 0-.388.181-.518 0l-8.301-9.65c-1.113-1.217-2.587-2.588-3.983-4.244a9.315 9.315 0 0 1-1.81-3.027c-.13-.414.206-.854.594-1.345 1.06-1.346 2.923-2.743 3.983-4.114a4.605 4.605 0 0 0 1.267-2.225 1.993 1.993 0 0 0-.258-1.294c-.31-.517-.854-1.009-1.112-1.37l-4.526-5.9a.801.801 0 1 0-1.242.983l4.449 5.951 1.034 1.371a4.993 4.993 0 0 1-1.707 2.122 33.2 33.2 0 0 0-3.724 3.596 3.26 3.26 0 0 0-.724 2.82 11.384 11.384 0 0 0 2.095 3.752c1.267 1.656 2.845 3.182 3.957 4.45l7.991 9.832a2.844 2.844 0 0 0 3.233.88 16.448 16.448 0 0 0 4.448-2.898c.492-.389.983-.777 1.397-1.035.414-.26.44 0 .44-.181.34.08.652.25.905.491.491.362.93.828 1.345 1.19.414.363 1.37 1.372 2.017 2.096.647.724 1.914 2.277 2.82 3.441.361.44.827.906 1.215 1.423.154.195.277.413.362.647.362 1.112-.621 1.992-1.63 2.768a13.655 13.655 0 0 1-4.138 2.07 22.105 22.105 0 0 1-15.517-1.294 38.796 38.796 0 0 1-12.75-10.168 28.259 28.259 0 0 1-7.527-17.723c-.284-8.15 3.466-14.825 7.552-16.817a.906.906 0 0 0 .414-1.19.881.881 0 0 0-1.19-.44c-4.577 2.148-9 9.418-9 18.5a30.744 30.744 0 0 0 7.759 19.352A40.971 40.971 0 0 0 21.45 59.481a24.612 24.612 0 0 0 17.586 1.578 15.515 15.515 0 0 0 6.13-3.39 5.02 5.02 0 0 0 1.707-5.174c-.14-.44-.34-.857-.595-1.242zM37.51 31.383a.905.905 0 0 0 1.086-.673 8.826 8.826 0 0 0 0-6.054 7.477 7.477 0 0 0-1.396-2.354 6.88 6.88 0 0 0-2.224-1.63 8.506 8.506 0 0 0-6.026-.647.78.78 0 0 0-.592 1.157.78.78 0 0 0 .773.395 7.317 7.317 0 0 1 4.345 1.553c.507.364.975.78 1.396 1.242a7.22 7.22 0 0 1 1.992 6.028.88.88 0 0 0 .646.983z" fill="#79DD1A"/><path fill-rule="evenodd" clip-rule="evenodd" d="M46.795 17.567a17.488 17.488 0 0 0-6.362-5.589 15.356 15.356 0 0 0-7.76-1.474 16.186 16.186 0 0 0-7.267 2.225.787.787 0 0 0 .725 1.397 14.168 14.168 0 0 1 6.595-1.397c2.215.055 4.38.678 6.284 1.81a15.52 15.52 0 0 1 5.173 4.761 18.631 18.631 0 0 1 2.612 4.218 12.579 12.579 0 0 1-.62 11.565.88.88 0 0 0 .232 1.242.905.905 0 0 0 1.241-.207 14.648 14.648 0 0 0 1.733-13.506 19.1 19.1 0 0 0-2.586-5.045z" fill="#79DD1A"/><path fill-rule="evenodd" clip-rule="evenodd" d="M61.976 19.275a18.82 18.82 0 0 0-1.19-4.192 24.115 24.115 0 0 0-1.99-3.803 24.884 24.884 0 0 0-7.216-7.296A24.977 24.977 0 0 0 42.036.336a32.446 32.446 0 0 0-19.5 3.26.802.802 0 0 0 .048 1.47.775.775 0 0 0 .598-.021 30.714 30.714 0 0 1 18.44-2.148 23.814 23.814 0 0 1 8.38 3.57 22.998 22.998 0 0 1 6.285 6.443 20.136 20.136 0 0 1 1.81 3.286c.503 1.129.884 2.308 1.138 3.518.5 2.705.596 5.47.284 8.202a26.397 26.397 0 0 1-2.094 7.969l-3.233 5.485a.905.905 0 0 0 .362 1.216.904.904 0 0 0 1.215-.362l3.492-5.46a28.157 28.157 0 0 0 2.586-8.537c.48-2.962.523-5.978.13-8.952z" fill="#79DD1A"/></svg>