<svg xmlns="http://www.w3.org/2000/svg" width="20" height="20" fill="none"><path stroke="#fff" stroke-linecap="round" stroke-linejoin="round" d="M12.542 4.167a4.17 4.17 0 0 1 3.291 3.292zm0-3.334a7.5 7.5 0 0 1 6.625 6.617zM18.333 14.1v2.5a1.667 1.667 0 0 1-1.816 1.667 16.5 16.5 0 0 1-7.192-2.558 16.25 16.25 0 0 1-5-5 16.5 16.5 0 0 1-2.558-7.225 1.667 1.667 0 0 1 1.658-1.817h2.5A1.67 1.67 0 0 1 7.592 3.1c.105.8.301 1.586.583 2.342A1.67 1.67 0 0 1 7.8 7.2L6.742 8.258a13.33 13.33 0 0 0 5 5L12.8 12.2a1.67 1.67 0 0 1 1.758-.375c.757.282 1.542.478 2.342.584a1.667 1.667 0 0 1 1.433 1.691"/></svg>