<svg width="300" height="574" viewBox="0 0 300 574" fill="none" xmlns="http://www.w3.org/2000/svg">
<g filter="url(#filter0_d_329_782)">
<rect x="34" y="15" width="232" height="506" rx="26" fill="url(#paint0_linear_329_782)"/>
</g>
<mask id="mask0_329_782" style="mask-type:luminance" maskUnits="userSpaceOnUse" x="34" y="15" width="232" height="506">
<rect x="34" y="15" width="232" height="506" rx="26" fill="white"/>
</mask>
<g mask="url(#mask0_329_782)">
<g opacity="0.1">
<path fill-rule="evenodd" clip-rule="evenodd" d="M350.224 133.039H285.359L265.31 250.34L317.79 322.827L370.273 250.34L350.224 133.039ZM262.691 251.956L283.74 128.806H351.841L372.889 251.956L317.79 328.065L262.691 251.956Z" fill="white"/>
<path fill-rule="evenodd" clip-rule="evenodd" d="M352.611 126.521H282.971L261.444 252.398L317.791 330.189L374.138 252.398L352.611 126.521ZM258.948 253.937L281.426 122.48H354.153L376.631 253.937L317.789 335.181L258.948 253.937Z" fill="white"/>
<path fill-rule="evenodd" clip-rule="evenodd" d="M355 119.995H280.581L257.579 254.451L317.792 337.553L378.005 254.451L355 119.995ZM255.208 255.918L279.116 116.156H356.465L380.376 255.918L317.792 342.299L255.208 255.918Z" fill="white"/>
<path fill-rule="evenodd" clip-rule="evenodd" d="M357.391 113.459H278.195L253.716 256.508L317.791 344.919L381.871 256.508L357.391 113.459ZM251.464 257.903L276.804 109.83H358.779L384.117 257.903L317.791 349.415L251.464 257.903Z" fill="white"/>
<path fill-rule="evenodd" clip-rule="evenodd" d="M359.776 106.942H275.805L249.851 258.568L317.79 352.283L385.73 258.568L359.776 106.942ZM247.72 259.879L274.487 103.504H361.092L387.859 259.879L317.788 356.531L247.72 259.879Z" fill="white"/>
<path fill-rule="evenodd" clip-rule="evenodd" d="M362.168 100.415H273.417L245.985 260.632L317.793 359.649L389.6 260.632L362.168 100.415ZM244.478 262.553L243.977 261.861L272.175 97.1779H363.408L391.601 261.861L317.79 363.647L244.478 262.553Z" fill="white"/>
<path fill-rule="evenodd" clip-rule="evenodd" d="M364.552 93.8947H271.027L242.117 262.683L317.789 367.009L393.462 262.683L364.552 93.8947ZM240.236 263.848L269.861 90.8533H365.715L395.345 263.848L317.79 370.765L240.236 263.848Z" fill="white"/>
<path fill-rule="evenodd" clip-rule="evenodd" d="M366.945 88.1536H268.64L238.254 265.537L317.792 375.161L397.33 265.537L366.945 88.1536ZM236.492 266.616L267.547 85.3174H368.031L399.086 266.616L317.789 378.671L236.492 266.616Z" fill="white"/>
<path fill-rule="evenodd" clip-rule="evenodd" d="M369.413 81.6271H266.585L234.802 267.594L317.998 382.523L401.195 267.594L369.413 81.6271ZM233.167 268.6L265.577 78.9913H370.421L402.83 268.6L317.997 385.787L233.167 268.6Z" fill="white"/>
<path fill-rule="evenodd" clip-rule="evenodd" d="M371.802 75.1112H264.194L230.934 269.649L317.998 389.887L405.065 269.649L371.802 75.1112ZM229.8 271.104L229.424 270.581L263.264 72.6658H372.735L406.572 270.581L317.997 392.903L229.8 271.104Z" fill="white"/>
<path fill-rule="evenodd" clip-rule="evenodd" d="M374.189 68.5796H261.809L227.074 271.706L317.999 397.248L408.927 271.706L374.189 68.5796ZM225.683 272.562L260.952 66.3406H375.049L410.316 272.562L317.999 400.02L225.683 272.562Z" fill="white"/>
<path fill-rule="evenodd" clip-rule="evenodd" d="M412.793 273.768L376.58 62.0582H259.42L223.204 273.768L317.999 404.615L412.793 273.768ZM222.256 274.988L221.939 274.551L258.515 60.7205L258.637 60.015H377.361L414.058 274.551L318.315 406.704L317.999 407.137L222.256 274.988Z" fill="white"/>
<path fill-rule="evenodd" clip-rule="evenodd" d="M378.969 55.5322H257.029L219.34 275.82L318.001 411.973L416.658 275.82L378.969 55.5322ZM218.196 276.53L256.323 53.689H379.672L417.8 276.53L317.999 414.253L218.196 276.53Z" fill="white"/>
<path fill-rule="evenodd" clip-rule="evenodd" d="M381.355 49.0066H254.639L215.47 277.887L317.998 419.34L420.524 277.887L381.355 49.0066ZM214.707 278.865L214.453 278.519L253.91 47.9322L254.008 47.3633H381.987L421.444 277.95L421.542 278.519L317.998 421.369L214.707 278.865Z" fill="white"/>
<path fill-rule="evenodd" clip-rule="evenodd" d="M383.746 43.2702H252.25L211.604 280.729L317.996 427.487L424.391 280.729L383.746 43.2702ZM210.934 281.59L210.711 281.281L251.611 42.3296L251.699 41.829H384.298L425.202 280.78L425.286 281.281L317.997 429.277L210.934 281.59Z" fill="white"/>
<path fill-rule="evenodd" clip-rule="evenodd" d="M428.252 282.79L386.135 36.7584H249.866L207.746 282.79L317.999 434.85L428.252 282.79ZM207.165 283.532L206.969 283.263L249.314 35.9398L249.388 35.5029H386.611L428.954 282.831L429.028 283.263L318.193 436.12L317.998 436.393L207.165 283.532Z" fill="white"/>
<path fill-rule="evenodd" clip-rule="evenodd" d="M388.523 30.2277H247.474L203.876 284.847L317.997 442.216L432.119 284.847L388.523 30.2277ZM203.388 285.476L203.227 285.248L247.012 29.5454L247.072 29.1768H388.925L432.712 284.889L432.772 285.248L317.998 443.509L203.388 285.476Z" fill="white"/>
<path fill-rule="evenodd" clip-rule="evenodd" d="M435.987 286.907L390.914 23.7023H245.088L200.013 286.907L318 449.57L435.987 286.907ZM199.618 287.413L199.483 287.226L244.71 23.1434L244.761 22.8522H391.238L436.463 286.935L436.513 287.226L318.133 450.44L317.998 450.626L199.618 287.413Z" fill="white"/>
<path fill-rule="evenodd" clip-rule="evenodd" d="M439.849 289.449L393.3 17.1738H242.698L196.147 289.449L317.997 457.722L439.849 289.449ZM195.845 289.836L195.742 289.699L242.449 16.5256H393.55L440.257 289.699L318.098 458.391L317.997 458.533L195.845 289.836Z" fill="white"/>
<path fill-rule="evenodd" clip-rule="evenodd" d="M240.135 10.1993L240.109 10.3589L192 291.677L192.072 291.777L318 465.648L318.07 465.548L444 291.677L443.976 291.522L395.867 10.1993H240.135ZM192.278 291.505L240.31 10.6516H395.687L443.717 291.505L317.997 465.08L192.278 291.505Z" fill="white"/>
</g>
</g>
<defs>
<filter id="filter0_d_329_782" x="0" y="0" width="300" height="574" filterUnits="userSpaceOnUse" color-interpolation-filters="sRGB">
<feFlood flood-opacity="0" result="BackgroundImageFix"/>
<feColorMatrix in="SourceAlpha" type="matrix" values="0 0 0 0 0 0 0 0 0 0 0 0 0 0 0 0 0 0 127 0" result="hardAlpha"/>
<feOffset dy="19"/>
<feGaussianBlur stdDeviation="17"/>
<feColorMatrix type="matrix" values="0 0 0 0 0.588235 0 0 0 0 0.866667 0 0 0 0 0.988235 0 0 0 0.37 0"/>
<feBlend mode="normal" in2="BackgroundImageFix" result="effect1_dropShadow_329_782"/>
<feBlend mode="normal" in="SourceGraphic" in2="effect1_dropShadow_329_782" result="shape"/>
</filter>
<linearGradient id="paint0_linear_329_782" x1="150" y1="-193.825" x2="479.908" y2="600.3" gradientUnits="userSpaceOnUse">
<stop offset="0.43" stop-color="#90A6E2"/>
<stop offset="1" stop-color="#0096C0"/>
</linearGradient>
</defs>
</svg>
