<svg width="81" height="62" fill="none" xmlns="http://www.w3.org/2000/svg"><path fill-rule="evenodd" clip-rule="evenodd" d="M35.664 29.414a8.079 8.079 0 0 0-1.101-3.606 8.717 8.717 0 0 0-1.736-2.07 2.236 2.236 0 0 0-1.837-.467 3.34 3.34 0 0 0-1.97 1.703c-.868 1.502-1.736 4.24-2.136 4.84a15.591 15.591 0 0 1-3.873 4.24l-.3.201c.266-.434.534-.801.767-1.235a10.015 10.015 0 0 0 .635-7.746c-.92-2.36-2.6-4.345-4.775-5.642a12.454 12.454 0 0 0-7.145-1.904A11.72 11.72 0 0 0 2.077 24.24a10.016 10.016 0 0 0 2.437 11.552c.407.402.854.76 1.336 1.068a7.65 7.65 0 0 0-1.035.535 11.452 11.452 0 0 0-1.77 1.602 10.851 10.851 0 0 0-2.17 4.34 10.45 10.45 0 0 0 0 4.875 7.713 7.713 0 0 0 5.643 5.91v.434c.233 2.17.667 4.273.934 6.343A1.102 1.102 0 0 0 8.554 62a1.102 1.102 0 0 0 1.002-1.035c.2-2.337.4-4.741.434-7.178v-4.174a48.377 48.377 0 0 1-.167-6.21.935.935 0 0 0-.735-1.135.969.969 0 0 0-1.135.735 25.542 25.542 0 0 0-1.569 7.278v1.068a5.375 5.375 0 0 1-1.77-2.403 8.948 8.948 0 0 1 0-4.875 10.016 10.016 0 0 1 1.035-3.339 6.944 6.944 0 0 1 1.303-1.77c.4-.367.834-.667 1.235-1l.5.233c2.114.55 4.296.786 6.478.701a.968.968 0 1 0 0-1.936 18.733 18.733 0 0 1-5.743-1.035 6.344 6.344 0 0 1-2.804-2.004 7.178 7.178 0 0 1-1.269-8.18 8.347 8.347 0 0 1 7.145-4.34 9.549 9.549 0 0 1 5.175 1.202 8.513 8.513 0 0 1 3.706 3.806 7.345 7.345 0 0 1-.2 5.51 6.677 6.677 0 0 1-3.94 4.006 1.067 1.067 0 0 0-.735 1.335 1 1 0 0 0 .802.701.868.868 0 0 0 .968.501 16.96 16.96 0 0 0 6.177-2.437 19.431 19.431 0 0 0 4.907-4.574c.334-.468 1.069-3.339 1.87-4.641 0 .3.267.668.3.768a4.84 4.84 0 0 1 .535 2.604 11.082 11.082 0 0 1-.701 3.072 16.696 16.696 0 0 1-2.338 4.34 22.402 22.402 0 0 1-3.338 3.806c-.768.735-2.47 1.67-3.339 2.604-.42.351-.782.769-1.068 1.236a3.071 3.071 0 0 0-.234 1.636c0 1.001.6 2.57.668 3.105.2 1.602.4 3.338.467 4.874.1 1.612.1 3.23 0 4.841a1.102 1.102 0 1 0 2.17.234c.2-1.707.3-3.423.3-5.142v-5.074c0-.535.301-2.705-.233-3.34l3.773-2.57a24.075 24.075 0 0 0 3.973-4.24 20.034 20.034 0 0 0 2.804-5.242c.538-1.578.776-3.243.701-4.908zM60.638 7.245a71.96 71.96 0 0 1-4.975 3.339 47.052 47.052 0 0 1-5.008 2.971c-1.168.668-2.37 1.236-3.572 1.803-1.202.568-2.47 1.202-3.74 1.736-1.268.534-3.338 1.402-5.208 2.07a.972.972 0 1 0 .534 1.87 80.145 80.145 0 0 0 8.614-1.77 31.238 31.238 0 0 0 5.409-2.37 39.855 39.855 0 0 0 4.106-2.938c1.904-1.57 3.673-3.339 5.476-5.008a1.18 1.18 0 1 0-1.636-1.703zM44.746 21.635a.968.968 0 0 0-1.169.701 21.77 21.77 0 0 0-1.469 4.14c-.14.615-.23 1.24-.267 1.87a16.991 16.991 0 0 0 0 1.836c0 1.47.4 2.838.635 4.24a1.102 1.102 0 0 0 2.203 0c0-1.335.434-2.67.634-4.073.1-.563.167-1.132.2-1.703V26.91c0-1.402-.2-2.704 0-4.04a1.003 1.003 0 0 0-.767-1.235zM54.428 17.996a.968.968 0 0 0-1.068.834 38.167 38.167 0 0 0-1.369 5.41 19.548 19.548 0 0 0-.234 2.403v2.37c0 1.87.434 3.706.702 5.543a1.135 1.135 0 0 0 1.135 1.068 1.103 1.103 0 0 0 1.068-1.135c0-1.836.4-3.606.568-5.409 0-.768 0-1.535.167-2.303.166-.768 0-1.536 0-2.304 0-1.803-.234-3.573-.234-5.409a.968.968 0 0 0-.735-1.068zM60.638 20.5c0 .968-.2 1.97-.267 2.971-.05.99-.05 1.982 0 2.972.137 2.359.461 4.703.968 7.01a1.036 1.036 0 0 0 1.202.936 1.102 1.102 0 0 0 .968-1.202c0-2.304.2-4.574.334-6.878 0-1.536.267-3.072.267-4.607 0-2.638-.166-5.242-.3-7.846a.967.967 0 0 0-1.272-.987.934.934 0 0 0-.631.853c-.534 2.237-1.068 4.474-1.269 6.778z" fill="#79DD1A"/><path fill-rule="evenodd" clip-rule="evenodd" d="M79.702 1.102A140.49 140.49 0 0 0 65.646 0H55.163c-3.506 0-6.978 0-10.45.2h-7.179c-3.628 0-7.267.134-10.917.401-4.04.234-8.08.6-12.12 1.202a.975.975 0 1 0 .234 1.936c1.903-.133 3.84-.167 5.842-.2a.602.602 0 0 0 0 .334 46.749 46.749 0 0 0-.8 4.808c-.05.678-.05 1.358 0 2.036v2.07c0 1.603.467 3.172.7 4.775a1.135 1.135 0 0 0 1.136 1.068 1.068 1.068 0 0 0 .901-1.068c.2-1.603.434-3.34.568-4.808V8.68c0-1.636-.535-3.139-.802-4.741v-.434h1.603c4.207 0 8.413.2 12.62.3h8.48c2.805 0 6.511 0 9.783-.334 4.841-.2 9.716-.534 14.557-.567 2.037 0 4.04 0 6.043.233-.267 4.508-.534 9.015-.668 13.556v15.525c0 2.604-.267 5.141-.567 7.712a1.135 1.135 0 0 0 .934 1.269 1.102 1.102 0 0 0 1.236-.935 103.509 103.509 0 0 0 2.07-15.692c0-3.138.167-6.31 0-9.449 0-4.006-.501-7.98-.768-11.919h2.137a1.102 1.102 0 0 0 .233-2.17l-.267.067z" fill="#79DD1A"/><path fill-rule="evenodd" clip-rule="evenodd" d="M72.39 39.73c-3.657.56-7.35.85-11.05.869H35.23a1.001 1.001 0 0 0-1.035.901.969.969 0 0 0 .902 1.035c3.338.434 6.677.902 9.816 1.303a4.775 4.775 0 0 0-.267.734 3.542 3.542 0 0 0 0 .835c-.03.277-.03.557 0 .834.014.167.014.334 0 .501a4.908 4.908 0 0 0-3.105 3.773c0 .167-.935 6.01 6.443 5.409 2.738 0 3.907-2.37 3.806-4.741a5.343 5.343 0 0 0-3.906-4.841.47.47 0 0 0 0-.2 3.574 3.574 0 0 0 0-.836 2.437 2.437 0 0 0 0-.834v-.267c1.903.167 3.773.267 5.676.267s3.84 0 5.742-.167a72.857 72.857 0 0 0 13.355-2.17 1.11 1.11 0 0 0-.467-2.17l.2-.234zM49.02 51.317c.2.935 0 2.003-.969 2.17 0 0-3.339 1.67-3.339-1.903.063-.499.3-.96.668-1.302a2.104 2.104 0 0 1 2.003-.634 1.903 1.903 0 0 1 1.603 1.67h.033z" fill="#79DD1A"/></svg>