<svg xmlns="http://www.w3.org/2000/svg" width="84" height="71" fill="none"><rect width="83.861" height="70" x=".07" y=".635" fill="#292732" rx="15.217"/><path fill="#46C1E3" fill-rule="evenodd" d="M38.172 34.428a6.15 6.15 0 0 0-.838-2.743 6.6 6.6 0 0 0-1.321-1.575 1.7 1.7 0 0 0-1.397-.356 2.54 2.54 0 0 0-1.5 1.296c-.66 1.143-1.32 3.226-1.625 3.683a11.9 11.9 0 0 1-2.947 3.226l-.228.153c.203-.33.406-.61.584-.94a7.62 7.62 0 0 0 .483-5.894 8.66 8.66 0 0 0-3.633-4.293 9.48 9.48 0 0 0-5.436-1.448 8.92 8.92 0 0 0-7.697 4.954 7.62 7.62 0 0 0 1.854 8.79q.466.46 1.016.812a6 6 0 0 0-.787.407c-.49.358-.942.767-1.347 1.219a8.26 8.26 0 0 0-1.651 3.302 7.95 7.95 0 0 0 0 3.71 5.87 5.87 0 0 0 4.293 4.496v.33c.178 1.651.508 3.252.711 4.826a.84.84 0 0 0 .839.839.84.84 0 0 0 .762-.788c.152-1.778.305-3.607.33-5.461v-3.176a37 37 0 0 1-.127-4.725.713.713 0 0 0-.559-.864.737.737 0 0 0-.864.56 19.4 19.4 0 0 0-1.194 5.537v.813a4.1 4.1 0 0 1-1.346-1.829 6.8 6.8 0 0 1 0-3.709 7.6 7.6 0 0 1 .788-2.54c.256-.499.59-.953.99-1.346.305-.28.635-.509.94-.763l.381.178c1.608.418 3.268.598 4.929.534a.737.737 0 0 0 0-1.474 14.3 14.3 0 0 1-4.37-.787 4.83 4.83 0 0 1-2.134-1.524 5.46 5.46 0 0 1-.965-6.224 6.35 6.35 0 0 1 5.436-3.303 7.27 7.27 0 0 1 3.938.915 6.48 6.48 0 0 1 2.82 2.896 5.6 5.6 0 0 1-.153 4.191 5.08 5.08 0 0 1-2.997 3.049.81.81 0 0 0-.56 1.016.76.76 0 0 0 .61.533.66.66 0 0 0 .737.382 12.9 12.9 0 0 0 4.7-1.855 14.8 14.8 0 0 0 3.734-3.48c.254-.356.813-2.54 1.422-3.531 0 .228.204.508.23.584.317.61.458 1.296.406 1.982a8.4 8.4 0 0 1-.534 2.337 12.7 12.7 0 0 1-1.778 3.302 17 17 0 0 1-2.54 2.896c-.585.559-1.88 1.27-2.54 1.981-.321.267-.596.585-.814.94-.171.391-.233.822-.177 1.245 0 .762.457 1.956.508 2.363.152 1.219.304 2.54.355 3.709a30 30 0 0 1 0 3.683.84.84 0 1 0 1.652.178 34 34 0 0 0 .228-3.912v-3.862c0-.406.229-2.057-.178-2.54l2.87-1.956a18.3 18.3 0 0 0 3.024-3.226 15.2 15.2 0 0 0 2.134-3.989c.409-1.2.59-2.467.533-3.734M57.174 17.56a55 55 0 0 1-3.785 2.54 36 36 0 0 1-3.81 2.262c-.89.508-1.804.94-2.719 1.371s-1.88.915-2.845 1.321c-.965.407-2.54 1.067-3.963 1.575a.74.74 0 0 0 .406 1.423 61 61 0 0 0 6.554-1.346 23.8 23.8 0 0 0 4.116-1.804 30 30 0 0 0 3.124-2.236c1.448-1.193 2.795-2.54 4.166-3.81a.898.898 0 1 0-1.244-1.296M45.082 28.51a.737.737 0 0 0-.89.533 16.6 16.6 0 0 0-1.117 3.15 9 9 0 0 0-.203 1.422 13 13 0 0 0 0 1.398c0 1.117.305 2.159.483 3.226a.838.838 0 1 0 1.676 0c0-1.016.33-2.032.483-3.1q.114-.642.152-1.295v-1.321c0-1.067-.152-2.058 0-3.074a.765.765 0 0 0-.584-.94M52.449 25.74a.736.736 0 0 0-.813.635 29 29 0 0 0-1.042 4.116 15 15 0 0 0-.178 1.829v1.803c0 1.423.33 2.82.534 4.217a.863.863 0 0 0 .864.813.84.84 0 0 0 .813-.864c0-1.397.304-2.743.431-4.115 0-.584 0-1.168.127-1.753.127-.584 0-1.168 0-1.752 0-1.372-.177-2.719-.177-4.116a.736.736 0 0 0-.56-.813M57.174 27.646c0 .736-.152 1.498-.203 2.26a22 22 0 0 0 0 2.261 34 34 0 0 0 .736 5.335.786.786 0 0 0 .915.711.84.84 0 0 0 .737-.914c0-1.753.152-3.48.254-5.233 0-1.169.203-2.337.203-3.506 0-2.007-.127-3.988-.229-5.97a.734.734 0 0 0-.686-.787.71.71 0 0 0-.762.686c-.406 1.702-.813 3.404-.965 5.157" clip-rule="evenodd"/><path fill="#46C1E3" fill-rule="evenodd" d="M71.68 12.886a107 107 0 0 0-10.696-.838h-7.976c-2.668 0-5.31 0-7.952.152h-5.461q-4.14 0-8.307.305c-3.074.178-6.148.457-9.221.915a.742.742 0 0 0 .177 1.473c1.448-.102 2.922-.127 4.446-.152a.46.46 0 0 0 0 .254 36 36 0 0 0-.61 3.658 10.6 10.6 0 0 0 0 1.55v1.574c0 1.22.356 2.414.534 3.633a.863.863 0 0 0 .863.813.81.81 0 0 0 .686-.813c.153-1.22.33-2.54.432-3.658v-3.1c0-1.244-.406-2.387-.61-3.607v-.33h1.22c3.2 0 6.401.153 9.602.229h6.453c2.134 0 4.953 0 7.443-.254 3.683-.153 7.392-.407 11.076-.432 1.55 0 3.074 0 4.598.178-.204 3.43-.407 6.859-.508 10.314v11.813c0 1.98-.204 3.911-.432 5.867a.864.864 0 0 0 .711.966.84.84 0 0 0 .94-.712 79 79 0 0 0 1.575-11.94c0-2.387.127-4.8 0-7.188 0-3.049-.381-6.072-.584-9.07h1.626a.838.838 0 0 0 .177-1.65z" clip-rule="evenodd"/><path fill="#46C1E3" fill-rule="evenodd" d="M66.116 42.278a57.5 57.5 0 0 1-8.409.66H37.842a.76.76 0 0 0-.788.686.736.736 0 0 0 .686.788c2.54.33 5.08.686 7.469.99q-.125.271-.203.56a2.7 2.7 0 0 0 0 .634 3 3 0 0 0 0 .636q.015.19 0 .38a3.74 3.74 0 0 0-2.363 2.871c0 .127-.711 4.573 4.903 4.115 2.083 0 2.972-1.803 2.896-3.607a4.06 4.06 0 0 0-2.972-3.683.4.4 0 0 0 0-.153 2.7 2.7 0 0 0 0-.635c.036-.21.036-.425 0-.635v-.203c1.448.127 2.87.203 4.318.203s2.922 0 4.37-.127a55.4 55.4 0 0 0 10.16-1.651.845.845 0 0 0-.355-1.651zm-17.783 8.815c.153.711 0 1.524-.736 1.651 0 0-2.54 1.27-2.54-1.448.047-.38.227-.73.508-.99a1.6 1.6 0 0 1 1.524-.483 1.45 1.45 0 0 1 1.219 1.27z" clip-rule="evenodd"/></svg>