<svg xmlns="http://www.w3.org/2000/svg" width="72" height="71" fill="none"><rect width="70.844" height="70" x=".578" y=".635" fill="#292732" rx="15.217"/><path fill="#46C1E3" d="M40.565 50.902a7.3 7.3 0 0 1-4.769 1.002 10 10 0 0 1-2.004-.42 8 8 0 0 1-1.843-.842 5.7 5.7 0 0 1-2.866-3.707c0-.581-.16-1.123-.16-1.724.097-1.519.03-3.044-.2-4.548a4.3 4.3 0 0 0-1.203-2.225 1.64 1.64 0 0 0-1.022-.4q-.616.034-1.222.16h-5.53a13 13 0 0 1-.902-1.743 7 7 0 0 1-.441-1.804c-.06-.472-.06-.95 0-1.423.068-.468.196-.926.38-1.362a5.8 5.8 0 0 1 2.525-3.186 6.47 6.47 0 0 1 5.852 0c1.022.46 6.913 3.587 2.985 9.137a.68.68 0 0 0 .2.942 11 11 0 0 1 1.784 2.004c.503.73.92 1.518 1.243 2.344.317.828.571 1.68.761 2.545.204.73.552 1.41 1.022 2.004a3.53 3.53 0 0 0 3.747 1.082q.46-.113.902-.28l.801-.381a.772.772 0 0 0-.64-1.403l-1.303.26a1.62 1.62 0 0 1-1.623-.68 5.3 5.3 0 0 1-.562-1.704 10.7 10.7 0 0 0-.821-2.324 12.4 12.4 0 0 0-2.004-2.525 10.8 10.8 0 0 0-1.843-1.343s.16 0 .22-.14c3.246-4.609.42-9.498-3.767-11.602a8.84 8.84 0 0 0-6.913-.621 7.5 7.5 0 0 0-4.57 5.13 8.2 8.2 0 0 0-.28 1.843 6.6 6.6 0 0 0 .14 1.884c.167.751.43 1.479.782 2.164q.336.613.742 1.182-1.007.025-2.004.16c-.575.066-1.14.201-1.684.401a2.24 2.24 0 0 0-.981.721 5.4 5.4 0 0 0-.822 1.704 19.7 19.7 0 0 0-.501 3.486 30.9 30.9 0 0 0 .3 8.757c.347 1.98 1.12 3.86 2.265 5.51a.7.7 0 0 0 .962.161.68.68 0 0 0 .16-.942 11.9 11.9 0 0 1-1.683-5.01 28.2 28.2 0 0 1 .26-8.155c.12-.741.26-1.763.501-2.685.096-.417.259-.817.481-1.182-.18-.321.802-.16 1.102-.2q.927-.13 1.864-.141h3.026c5.45-.2 4.95-.621 5.21.882q.225 1.746.24 3.506c.079 1.996.368 3.977.862 5.912a37 37 0 0 0 1.843 5.61.77.77 0 1 0 1.443-.54 38 38 0 0 1-1.182-4.289q.36.411.781.762a7.9 7.9 0 0 0 2.485 1.262c.873.284 1.787.42 2.705.4a8.74 8.74 0 0 0 5.811-2.243.76.76 0 0 0 .14-1.083.78.78 0 0 0-1.182-.06M40.325 20.163a.78.78 0 0 0 .18-1.082.82.82 0 0 0-1.102-.18l-5.11 2.445q-1.055.535-2.003 1.242a1.5 1.5 0 0 0-.501 1.022 1.4 1.4 0 0 0 .36 1.142c.26.3 1.062.962 1.123 1.022l4.488 3.687a.681.681 0 0 0 .962-.962l-3.667-4.588-.2-.12.741-.321zM46.216 28.279a.76.76 0 0 0-.18 1.062.8.8 0 0 0 1.082.18l5.11-2.444c.706-.342 1.377-.75 2.004-1.223.277-.25.455-.59.5-.962a1.36 1.36 0 0 0-.36-1.122 13 13 0 0 0-1.122-1.022l-4.489-3.707a.682.682 0 1 0-.962.962l3.667 4.509.2.14a5.4 5.4 0 0 0-.74.32zM46.537 16.316a.66.66 0 0 0-.882.38c-.761 1.303-1.523 2.566-2.164 4.008-.28.582-.501 1.183-.722 1.784s-.4 1.202-.56 1.823c-.381 1.463-.642 2.906-.922 4.389a.76.76 0 0 0 .52.962.78.78 0 0 0 .962-.521c.562-1.363 1.183-2.685 1.744-4.008.24-.581.48-1.162.701-1.743q.336-.878.581-1.784c.421-1.423.722-2.845 1.122-4.268a.702.702 0 0 0-.38-1.022"/><path fill="#46C1E3" d="M59.782 21.606c-1.182-10.78 1.623-7.314-8.336-8.737a81 81 0 0 0-9.498-.821c-1.603 0-3.186 0-4.77.14-1.582.14-3.245.34-4.788.581s-2.926.34-4.469.581c-3.867.662-4.008-.64-4.148 4.249q-.045.65 0 1.302.03.596.14 1.182c.2 1.002.562 2.004.762 2.906a.68.68 0 0 0 .781.621.66.66 0 0 0 .642-.701c.212-1.151.333-2.317.36-3.487a11.4 11.4 0 0 0-.22-2.004c-.1-.721-.32-1.422-.32-2.144q1.152-.225 2.324-.3c1.483-.1 2.965-.1 4.408-.16s3.106-.101 4.67-.121c1.562-.02 3.105 0 4.648 0 3.106 0 6.192 0 9.318.24 1.703.12 3.507 0 5.25 0h.28c.12.942.261 1.884.321 2.846s0 2.004.12 3.126.1 2.004.16 3.126c.221 3.206.462 6.392.542 9.498.015.134.071.26.16.36-2.913.42-5.862.52-8.797.301l-3.647-.12h-2.464c-2.242.046-4.478.24-6.693.581a.681.681 0 1 0 .1 1.343c1.503 0 2.986 0 4.448.24q-.22.771-.34 1.563-.045.552 0 1.102v1.102c0 .882.22 1.704.3 2.565a.78.78 0 0 0 1 .814.74.74 0 0 0 .523-.673c.24-.882.461-1.724.621-2.626a7 7 0 0 0 0-1.122q.06-.561 0-1.122-.104-.731-.3-1.443l1.543.14c1.759.15 3.525.211 5.29.181a31.9 31.9 0 0 0 8.917-1.363.763.763 0 0 0 .581-.921c0-.12-.12-.18-.18-.26a.7.7 0 0 0 .46-.642c.221-2.345.481-4.77.522-7.214a36 36 0 0 0-.22-4.709M57.077 47.356a2.8 2.8 0 0 0-1.102-1.704 3.05 3.05 0 0 0-1.523-.46q-1.22.017-2.425.2l-7.154 1.002a.66.66 0 0 0-.58.761.663.663 0 0 0 .76.581l7.255-.08h1.483c1.743 0 .741-.24.941 2.585.18 2.004 1.764 2.004-1.883 2.124l-7.695.581a.78.78 0 0 0-.674 1.096.76.76 0 0 0 .734.447l7.595.12c.899.101 1.806.101 2.705 0a3.1 3.1 0 0 0 1.583-.781c.307-.41.47-.91.46-1.423a21 21 0 0 0-.24-2.344 15.6 15.6 0 0 0-.24-2.706"/></svg>