<svg width="240" height="264" viewBox="0 0 240 264" fill="none" xmlns="http://www.w3.org/2000/svg">
<g clip-path="url(#clip0_548_10)">
<path d="M46.5214 87.673C41.2837 88.7866 36.5317 90.0593 32.5482 91.491C29.0858 92.7283 25.4556 94.0806 22.8058 95.2207L18.1157 91.6324C18.9371 87.8232 18.4513 84.235 15.7044 83.0419C14.3088 82.4409 12.2685 83.0596 11.3676 85.1365C10.2812 87.6377 10.2458 89.909 12.9486 91.3054C19.1668 94.549 28.547 98.9326 36.2491 101.177L34.1911 111.536C25.4379 107.514 19.8116 104.801 14.512 102.229C9.9897 100.037 6.10334 98.1725 0 94.655C2.01384 88.8573 3.32107 84.9421 4.51347 81.9371C7.4989 73.9034 12.4717 71.3492 17.7712 73.6471C23.0266 75.9273 24.3339 80.6998 24.8815 83.2628C24.9963 83.7666 25.1023 84.4118 25.3231 84.5532C25.6764 84.7565 26.3565 84.456 26.6745 84.3676C31.7709 82.4144 35.2775 80.8324 39.7291 78.4638L46.5214 87.673Z" fill="#FAFCFA"/>
<path d="M48.3586 80.0104C41.2837 74.5662 36.3286 70.7747 32.2037 67.7433C30.2782 66.3381 25.3055 62.8382 17.5504 57.6238L23.5478 49.4398C27.3723 52.4535 32.7425 56.5455 36.7702 59.4444C41.7165 63.068 44.9845 65.3128 52.7131 70.4566L48.3586 80.0016V80.0104Z" fill="#FAFCFA"/>
<path d="M65.2024 36.8633C67.0131 42.8555 68.285 46.4702 70.7935 54.3095C68.4881 56.8549 66.9601 58.2955 64.8138 60.0542C57.7565 56.0595 54.7004 54.4333 49.6128 51.6581C44.3662 48.7504 39.8881 46.0548 33.2195 42.4666C34.0144 39.3291 35.4895 35.1753 36.9557 32.2676C42.2376 35.679 45.4173 37.8532 50.4784 41.1939C53.1459 42.935 55.4689 44.4463 57.9773 45.9311C59.2316 46.6735 59.5849 46.7088 59.7792 46.5498C60.0088 46.3642 59.9117 45.9134 59.4965 44.8175C58.5779 42.228 57.0764 38.4718 55.8663 35.5376C53.7642 30.3762 52.7396 27.9988 50.028 21.768L59.7968 19.0813C61.9167 26.7173 63.5772 31.5252 65.1936 36.881L65.2024 36.8633Z" fill="#FAFCFA"/>
<path d="M106.044 37.6853C101.937 38.8872 98.5809 39.9566 95.4189 41.0702C91.9123 42.3517 89.925 43.1471 82.5497 46.2404C80.4034 37.5527 78.9637 32.6388 77.2325 27.062C75.5543 21.7945 74.0527 17.2164 71.2793 9.89857C76.8527 8.0691 79.6526 7.17647 82.6116 6.12474C85.0759 5.28513 87.178 4.45436 91.4 2.79282L95.8428 10.8C92.5041 11.4894 90.0575 12.1081 87.5225 12.9742C85.8001 13.5222 84.2368 14.132 83.0709 14.6092L84.7314 19.8325C85.385 19.6734 87.4695 18.9045 88.2114 18.6128C90.137 17.8881 93.6347 16.2973 95.516 15.166L100.763 21.9624C94.9772 23.9687 91.9918 25.0823 89.3332 26.134C87.3812 26.9117 87.072 27.8662 87.4253 28.9798C87.761 30.0404 88.3704 31.8168 88.7591 32.7625C89.2537 34.044 90.2783 34.3533 92.9016 33.4695C96.0636 32.3559 99.6055 30.4823 105.117 26.6466L106.036 37.6941L106.044 37.6853Z" fill="#FAFCFA"/>
<path d="M136.579 42.4489C133.982 37.7648 131.368 33.5932 128.833 30.1995C126.633 27.2476 124.275 24.1808 122.411 21.9801L124.46 16.4387C128.338 16.1028 131.624 14.5827 131.959 11.6131C132.127 10.1018 130.935 8.33424 128.682 8.07794C125.971 7.77744 123.798 8.3961 123.25 11.401C121.978 18.3035 120.539 28.5556 120.654 36.5893L110.16 37.6587C111.432 28.1049 112.377 21.9271 113.278 16.1028C114.047 11.1359 114.692 6.86713 116.255 0C122.385 0.229788 126.51 0.327006 129.725 0.583308C138.275 1.07824 142.17 5.09069 141.534 10.8354C140.898 16.5359 136.72 19.1785 134.432 20.46C133.982 20.7163 133.399 21.0079 133.328 21.2554C133.24 21.6531 133.726 22.2187 133.902 22.4927C137.259 26.7968 139.812 29.6869 143.371 33.2486L136.57 42.4401L136.579 42.4489Z" fill="#FAFCFA"/>
<path d="M166.998 56.687C154.88 48.0345 151.594 37.482 158.784 27.1592C164.384 19.0636 176.228 16.1205 189.106 24.2338L185.414 33.2397C180.954 30.5618 178.375 29.8194 176.326 29.4217C172.404 28.5733 168.73 29.7752 166.636 32.462C164.022 35.7762 164.887 39.5324 166.839 42.7317C167.961 44.517 170.602 47.7429 175.027 50.7036L166.998 56.687Z" fill="#FAFCFA"/>
<path d="M171.786 60.5845C178.525 54.7249 183.215 50.6152 187.004 47.1684C188.762 45.5599 193.178 41.3707 199.82 34.8041L206.648 42.3075C202.938 45.4627 197.868 49.917 194.22 53.2932C189.689 57.4294 186.845 60.1868 180.274 66.7446L171.786 60.5845Z" fill="#FAFCFA"/>
<path d="M220.586 78.3577C218.872 75.1849 217.76 73.3554 216.717 71.6409C214.218 72.9842 210.861 74.8756 207.92 76.4752C202.938 79.3034 199.246 81.5306 192.595 85.9407L185.98 77.8009C194.689 73.1168 198.027 71.2873 203.336 68.415C206.692 66.6209 208.494 65.5868 210.428 64.4732C211.488 63.8634 211.55 62.7587 211.197 62.14C210.252 60.505 208.865 58.596 207.62 57.0405L214.43 50.8804C217.963 58.0392 219.261 60.2929 221.187 63.6336C223.156 67.0451 224.428 69.2634 229.233 76.1748L220.595 78.3489L220.586 78.3577Z" fill="#FAFCFA"/>
<path d="M224.879 110.661C222.043 109.768 219.296 109.194 217.468 108.884C216.284 109.176 213.599 109.936 211.532 110.616C209.704 111.226 206.162 112.667 203.892 113.789L199.061 103.829C202.064 103.281 205.385 102.512 208.035 101.84C210.349 101.266 212.928 100.497 214.465 99.9667C215.966 98.5791 217.936 96.405 220.003 94.0364C223.465 90.0858 225.02 87.7702 228.226 83.4573L235.902 90.8282C233.526 93.4177 232.059 94.929 228.668 98.2079C227.837 99.0122 226.08 100.603 224.834 101.778C224.375 102.212 224.216 102.388 224.296 102.671C224.366 102.91 224.64 102.963 225.258 103.095C227.096 103.449 229.648 103.9 230.717 104.121C233.526 104.722 237.686 105.632 240 106.365L238.03 115.778C232.324 113.126 230.152 112.349 224.879 110.661Z" fill="#FAFCFA"/>
<path d="M83.1631 144.873C83.3349 141.273 83.5157 137.538 85.4141 134.145C89.0752 127.582 97.2744 124.574 99.4891 123.757C101.65 122.967 110.473 119.851 119.503 123.039C129.022 126.405 131.698 134.279 132.385 136.299C135.838 146.489 129.972 155.845 128.833 157.586C128.344 151.149 125.949 145.035 121.926 139.962C119.323 136.676 115.896 133.75 111.431 132.511C106.965 131.272 101.315 132.026 97.5817 135.15C90.3137 141.246 93.4957 152.469 85.9926 158.341C82.8558 160.792 71.1853 164.769 71.1853 164.769C71.1853 164.769 74.3221 161.905 77.9742 158.736C82.684 154.66 82.91 150.323 83.1722 144.864L83.1631 144.873Z" fill="url(#paint0_linear_548_10)"/>
<path d="M68.2475 136.721C68.2113 137.125 68.2113 137.52 68.2113 137.529C68.2113 137.844 68.2294 138.095 68.2385 138.283C68.2475 138.31 68.2294 138.337 68.2294 138.337C68.2294 139.163 68.2294 139.998 68.1661 140.824C68.1661 140.824 68.0757 142.009 67.7503 143.159C67.0904 145.466 61.9196 147.306 62.0009 147.504C62.1004 147.737 69.7571 146.355 72.0262 141.929C72.5505 140.896 72.4058 140.447 72.7945 139.011C73.3731 136.865 74.711 134.18 77.7845 131.182C78.5077 130.095 79.5744 128.623 81.0389 127.007C81.0389 127.007 86.5261 121.09 93.9749 117.391C105.926 111.448 121.574 111.529 130.089 119.223C137.131 125.526 138.388 135.33 139.328 144.505C143.107 136.129 146.017 126.962 143.495 118.882C141.335 112.058 135.323 106.717 127.811 104.158C117.225 100.558 107.309 102.982 103.078 104.113C89.4369 107.74 81.4909 116.009 77.5495 120.103C77.5495 120.103 68.8712 129.126 68.2385 136.73L68.2475 136.721Z" fill="url(#paint1_linear_548_10)"/>
<path d="M73.789 93.815C73.328 94.0484 74.0512 98.8517 78.1282 102.263C82.0334 105.531 88.3432 107.076 94.2372 105.72C100.375 104.31 104.787 99.2108 110.391 96.3199C118.039 92.3785 127.567 93.0249 134.266 96.7688C140.964 100.513 145.095 106.905 147.22 113.746C149.344 120.579 149.633 127.914 149.914 135.177C153.756 133.004 156.35 129.386 157.76 125.696C159.171 121.997 159.523 118.182 159.867 114.411C160.12 111.672 159.867 110.191 159.812 109.805C159.378 106.25 158.14 103.781 157.308 102.156C156.856 101.285 154.877 97.5229 151.053 93.9137C148.015 91.0497 140.214 85.0973 127.341 83.3196C118.211 82.0627 107.444 84.4867 100.827 91.0587C98.0249 93.8419 97.6814 96.7688 93.3965 99.3634C92.0948 100.154 87.4663 102.721 82.9103 101.895C76.4648 100.728 74.3676 93.5277 73.78 93.824L73.789 93.815Z" fill="url(#paint2_linear_548_10)"/>
<path d="M166.954 148.276C167.659 145.295 167.876 142.126 166.393 139.594C165.589 138.283 164.585 137.188 162.832 136.802C161.72 136.56 160.31 136.111 159.116 136.147C156.468 136.219 153.918 136.883 151.46 138.023C150.302 138.562 149.326 139.334 148.296 140.016C147.862 140.304 147.437 140.609 147.021 140.923C143.532 143.59 141.01 147.019 138.56 150.368C135.522 154.516 132.358 158.825 127.667 161.573C122.984 164.32 116.367 161.303 113.013 158.044C114.062 163.7 118.121 170.174 123.481 170.676C130.776 171.359 137.15 166.313 138.614 164.814C143.179 160.154 145.159 154.983 145.159 154.983C146.018 152.738 147.084 149.371 150.474 146.57C150.845 146.265 151.252 146.005 151.704 145.744C151.731 145.735 151.776 145.69 151.803 145.681C152.029 145.511 152.264 145.367 152.517 145.268C152.761 145.152 153.014 145.053 153.277 144.972C153.313 144.981 153.34 144.972 153.358 144.936C155.166 144.263 157.155 143.76 158.791 144.227C161.991 145.134 165.083 145.888 166.936 148.258L166.954 148.276Z" fill="url(#paint3_linear_548_10)"/>
<path d="M167.704 159.651C165.417 156.105 162.597 152.19 156.784 153.061C154.624 153.385 152.608 154.381 150.944 155.8C146.497 159.597 145.303 164.616 144.074 169.419C143.098 173.226 141.959 177.176 139.12 180.382C135.215 184.79 128.489 187.025 122.595 186.46C116.701 185.894 111.693 182.815 108.538 178.694C105.383 174.573 103.937 169.5 103.53 164.329C103.241 160.666 103.503 156.751 105.655 153.322C107.815 149.892 112.317 147.154 116.448 147.728C113.655 145.403 108.891 145.25 105.013 146.893C101.135 148.536 98.1515 151.715 96.452 155.135C94.7525 158.556 94.2463 162.237 94.2192 165.801C94.1559 172.75 95.9187 179.583 99.9052 185.194C103.892 190.796 110.193 195.106 117.759 196.659C125.325 198.212 134.139 196.856 141.064 192.574C147.988 188.282 152.698 181.01 152.463 174.097C152.391 171.951 151.875 169.841 152.318 167.669C153.005 164.329 156.178 161.222 159.957 160.181C163.736 159.139 167.876 160.235 169.946 162.812" fill="url(#paint4_linear_548_10)"/>
<path d="M20.4034 206.624C20.7302 207.136 20.8539 207.781 20.3592 208.082C17.0823 210.097 13.0547 209.337 10.5727 204.9C8.31154 200.835 8.868 196.84 14.7417 194.1C21.0658 191.157 25.6941 192.713 27.9376 196.76C29.6512 199.836 28.9975 202.214 26.7629 203.601C25.5263 204.361 24.4487 204.335 23.698 203.106C23.3358 202.523 23.2475 201.78 23.6803 201.524C24.0689 201.294 24.5106 201.206 24.8109 201.038C26.5156 200.048 26.9042 198.979 26.1534 197.618C24.961 195.47 22.0109 195.205 17.0028 197.75C11.7739 200.402 11.5266 202.894 12.5159 204.644C13.3815 206.208 15.6073 207.578 18.9813 205.917C19.4583 205.705 20.0236 206.023 20.4034 206.624Z" fill="#FAFCFA"/>
<path d="M39.1816 214.065C39.6939 213.659 40.5241 213.544 41.7695 214.834C42.114 215.188 42.4585 215.541 42.8118 215.886C47.025 220.066 49.0741 223.425 46.7423 225.855C44.4105 228.321 38.6516 226.474 36.8674 225.431C36.8409 225.457 36.8144 225.475 36.7879 225.502C41.4516 230.831 36.0637 233.102 38.0775 234.817C38.5986 235.232 39.5172 235.1 40.1002 234.667C40.48 234.41 40.8509 234.295 41.4516 234.764C42.1493 235.294 41.9727 235.745 41.7165 236.01C40.6301 237.186 38.3601 237.442 35.8429 235.383C33.2549 233.244 33.511 231.724 34.0057 230.539C34.9066 228.542 36.6025 226.854 33.6965 223.884C32.2215 225.139 30.7199 226.385 29.2184 227.632C28.6178 228.118 27.5843 227.623 26.7364 226.739C25.8355 225.829 25.5175 224.883 26.1093 224.432C30.5433 220.985 34.9066 217.539 39.1816 214.074V214.065ZM35.0038 222.771C37.6889 224.476 41.4162 224.803 43.2887 223.009C45.1789 221.198 43.1916 218.679 41.6371 217.097C39.4466 218.988 37.2384 220.888 35.0038 222.771Z" fill="#FAFCFA"/>
<path d="M63.1622 252.59C60.3446 251.317 57.5711 249.956 54.8772 248.489C53.6406 247.826 52.8898 246.978 53.4375 246.236C56.5995 241.852 59.7528 237.468 62.8265 233.076C63.3477 232.325 64.3722 232.493 65.4057 233.049C67.6933 234.278 69.9986 235.409 72.3834 236.47C73.5052 236.973 73.7525 237.557 73.5317 237.963C73.3285 238.343 72.6661 238.529 71.5178 238.016C69.6807 237.194 67.87 236.328 66.1034 235.418C64.7432 237.521 63.3742 239.634 61.9874 241.737C63.5155 242.524 65.0612 243.275 66.6334 244.008C67.7551 244.521 68.0466 245.087 67.8523 245.449C67.6491 245.82 66.9249 245.979 65.7766 245.449C64.1956 244.715 62.6145 243.947 61.06 243.142C59.9913 244.769 58.9137 246.404 57.8361 248.03C59.8853 249.09 61.9609 250.098 64.0719 251.043C65.388 251.636 65.7148 252.237 65.5028 252.617C65.282 253.014 64.5224 253.191 63.171 252.59H63.1622Z" fill="#FAFCFA"/>
<path d="M80.2091 258.299C84.1042 253.774 87.708 249.126 90.9937 244.353C91.5855 243.469 92.6101 243.204 94.0498 243.522C95.5602 243.849 96.2491 244.539 96.2756 245.484C96.4699 250.84 96.8939 256.231 97.574 261.623C97.7595 263.187 92.8485 262.763 92.6807 260.977C92.6277 260.058 92.5747 259.148 92.5394 258.229C90.4196 257.805 88.3174 257.336 86.2329 256.815C85.5528 257.76 84.8815 258.715 84.1837 259.652C83.2652 260.907 79.1668 259.493 80.2002 258.317L80.2091 258.299ZM87.2575 255.33C89.0064 255.754 90.7552 256.161 92.5217 256.514C92.4511 253.598 92.4334 250.69 92.4952 247.782C92.3804 247.756 92.2921 247.738 92.1861 247.712C90.6227 250.275 88.9622 252.82 87.2575 255.33Z" fill="#FAFCFA"/>
<path d="M125.679 246.563C126.925 246.483 127.428 246.89 127.472 247.332C127.517 247.747 127.084 248.215 125.821 248.295C124.549 248.374 123.259 248.436 121.979 248.472C122.146 253.271 122.323 258.079 122.5 262.878C122.526 263.62 121.281 263.982 120.08 264C118.834 264.018 117.624 263.655 117.633 262.939C117.677 258.132 117.73 253.333 117.774 248.525C116.494 248.516 115.213 248.489 113.932 248.436C112.651 248.383 112.227 247.941 112.254 247.517C112.289 247.075 112.766 246.651 114.02 246.704C117.907 246.854 121.793 246.81 125.679 246.571V246.563Z" fill="#FAFCFA"/>
<path d="M146.242 261.075C144.961 261.34 144.334 261.048 144.237 260.659C144.14 260.27 144.572 259.811 145.835 259.554C146.887 259.342 147.938 259.104 148.989 258.865C147.584 254.163 146.18 249.461 144.811 244.751C143.954 244.945 143.097 245.14 142.241 245.316C141.092 245.555 140.598 245.228 140.509 244.848C140.412 244.486 140.713 244.026 141.843 243.796C144.873 243.178 147.858 242.426 150.826 241.56C151.877 241.251 152.442 241.49 152.584 241.843C152.734 242.214 152.451 242.727 151.374 243.045C150.517 243.293 149.651 243.54 148.794 243.77C150.375 248.419 151.983 253.067 153.599 257.716C154.748 257.407 155.896 257.08 157.035 256.735C158.263 256.364 158.908 256.55 159.058 256.93C159.208 257.301 158.855 257.84 157.601 258.22C153.882 259.342 150.075 260.297 146.251 261.092L146.242 261.075Z" fill="#FAFCFA"/>
<path d="M176.087 232.66C175.575 231.361 178.684 229.717 179.152 231.034C180.919 235.895 182.517 240.844 183.895 245.891C184.151 246.925 183.489 247.888 181.934 248.728C180.389 249.559 179.179 249.541 178.419 248.869C173.844 245.078 169.489 241.145 165.4 237.071C164.269 235.939 167.634 233.924 168.942 235.17C172.537 238.608 176.282 241.949 180.212 245.193C180.318 245.131 180.406 245.087 180.512 245.034C179.143 240.853 177.668 236.726 176.087 232.669V232.66Z" fill="#FAFCFA"/>
<path d="M211.303 225.104C209.307 227.216 207.222 229.267 205.058 231.246C204.06 232.157 202.974 232.607 202.294 231.953C198.337 228.233 194.415 224.521 190.573 220.791C189.91 220.137 190.343 219.28 191.182 218.511C193.011 216.84 194.777 215.099 196.446 213.305C197.259 212.43 197.904 212.413 198.266 212.695C198.61 212.961 198.672 213.57 197.851 214.463C196.561 215.842 195.236 217.185 193.858 218.493C195.961 220.402 198.098 222.293 200.244 224.194C201.428 223.08 202.567 221.94 203.689 220.773C204.511 219.916 205.182 219.845 205.509 220.11C205.862 220.384 205.897 221.021 205.058 221.896C203.936 223.071 202.771 224.229 201.569 225.36C202.779 226.43 203.998 227.508 205.226 228.577C206.807 227.075 208.362 225.528 209.837 223.946C210.773 222.947 211.497 222.815 211.851 223.089C212.23 223.381 212.248 224.088 211.294 225.095L211.303 225.104Z" fill="#FAFCFA"/>
<path d="M215.225 196.389C215.013 196.274 214.633 195.912 214.306 195.735C213.008 195.046 211.877 195.673 211.206 196.92C210.579 198.086 210.526 199.491 211.665 200.163C214.712 202.028 221.752 195.947 226.195 198.015C228.862 199.297 228.703 202.744 226.857 205.979C224.596 209.911 221.787 210.398 219.87 209.222C219.058 208.727 217.751 207.463 218.643 206.014C219.102 205.271 219.641 204.998 220.109 205.254C220.436 205.448 220.745 205.979 221.407 206.35C222.361 206.898 223.845 207.119 224.976 205.139C225.885 203.522 225.453 202.302 224.375 201.736C221.01 200.066 213.855 205.943 209.969 203.433C207.77 202.046 207.92 198.952 209.483 196.045C210.499 194.206 212.451 191.564 215.498 193.004C216.32 193.429 217.177 194.348 216.611 195.532C216.249 196.274 215.754 196.672 215.233 196.389H215.225Z" fill="#FAFCFA"/>
<path d="M10.5992 142.46C9.92791 143.679 10.3695 141.656 9.97207 142.99C-3.07371 142.964 -2.41127 163.229 10.3254 163.326C14.83 163.3 21.1895 159.676 19.688 153.843C18.4779 147.577 6.88948 146.136 5.4321 152.685C4.53117 156.892 9.1948 160.33 12.401 157.82C13.7613 156.901 14.1411 154.798 12.666 153.772C11.5531 152.747 9.50394 152.65 10.5197 154.815C9.24779 156.441 6.91598 153.711 8.53235 152.394C11.5089 150.175 19.0608 152.067 16.8174 157.113C11.6149 164.405 -0.167781 158.916 3.68324 149.504C4.90214 146.614 8.13488 146.189 10.7228 146.136" fill="#FAFCFA"/>
<path d="M228.217 142.46C227.546 143.679 227.988 141.656 227.59 142.99C214.544 142.964 215.207 163.229 227.944 163.326C232.448 163.3 238.808 159.676 237.306 153.843C236.096 147.577 224.508 146.136 223.05 152.685C222.149 156.892 226.813 160.33 230.019 157.82C231.379 156.901 231.759 154.798 230.284 153.772C229.171 152.747 227.122 152.65 228.138 154.815C226.866 156.441 224.534 153.711 226.151 152.394C229.127 150.175 236.679 152.067 234.436 157.113C229.233 164.405 217.45 158.916 221.301 149.504C222.52 146.614 225.753 146.189 228.341 146.136" fill="#FAFCFA"/>
</g>
<defs>
<linearGradient id="paint0_linear_548_10" x1="71.1853" y1="143.203" x2="133.461" y2="143.203" gradientUnits="userSpaceOnUse">
<stop stop-color="#47B978"/>
<stop offset="1" stop-color="#0096C1"/>
</linearGradient>
<linearGradient id="paint1_linear_548_10" x1="62.01" y1="124.879" x2="144.454" y2="124.879" gradientUnits="userSpaceOnUse">
<stop stop-color="#47B978"/>
<stop offset="1" stop-color="#0096C1"/>
</linearGradient>
<linearGradient id="paint2_linear_548_10" x1="73.6715" y1="109.078" x2="159.984" y2="109.078" gradientUnits="userSpaceOnUse">
<stop stop-color="#47B978"/>
<stop offset="1" stop-color="#0096C1"/>
</linearGradient>
<linearGradient id="paint3_linear_548_10" x1="113.031" y1="153.447" x2="167.505" y2="153.447" gradientUnits="userSpaceOnUse">
<stop stop-color="#47B978"/>
<stop offset="1" stop-color="#0096C1"/>
</linearGradient>
<linearGradient id="paint4_linear_548_10" x1="94.2192" y1="171.547" x2="169.955" y2="171.547" gradientUnits="userSpaceOnUse">
<stop stop-color="#47B978"/>
<stop offset="1" stop-color="#0096C1"/>
</linearGradient>
<clipPath id="clip0_548_10">
<rect width="240" height="264" fill="white"/>
</clipPath>
</defs>
</svg>
