<svg width="316" height="97" viewBox="0 0 316 97" fill="none" xmlns="http://www.w3.org/2000/svg">
<path d="M17.8411 51.9951C17.9894 48.9738 18.1378 45.8317 19.7351 42.983C22.8161 37.4756 29.7374 34.9463 31.6052 34.2644C33.4294 33.5997 40.8745 30.9841 48.4853 33.6601C56.5152 36.4829 58.767 43.1039 59.3431 44.7958C62.2582 53.3504 57.3007 61.2145 56.3406 62.6733C55.9304 57.2695 53.9055 52.1333 50.519 47.8775C48.3195 45.1152 45.4392 42.655 41.6687 41.6191C37.8982 40.5832 33.1326 41.2134 29.9905 43.8376C23.8634 48.9566 26.543 58.3831 20.2151 63.3121C17.5705 65.3666 7.72522 68.7073 7.72522 68.7073C7.72522 68.7073 10.3698 66.2989 13.4508 63.6401C17.4221 60.2131 17.6141 56.5703 17.8323 51.9865L17.8411 51.9951Z" fill="url(#paint0_linear_547_2)"/>
<path d="M5.26386 45.1497C5.23767 45.4864 5.23767 45.823 5.23767 45.823C5.23767 46.082 5.2464 46.2978 5.26386 46.4532C5.26386 46.4705 5.26386 46.505 5.26386 46.505C5.26386 47.2042 5.26386 47.8948 5.21149 48.594C5.21149 48.594 5.13294 49.5867 4.86237 50.5536C4.29504 52.4872 -0.0689958 54.0324 0.000828763 54.1964C0.0881095 54.3949 6.54689 53.2382 8.44961 49.5177C8.89474 48.6458 8.77255 48.2746 9.09548 47.0661C9.58426 45.2706 10.7189 43.0089 13.3024 40.4883C13.9134 39.5733 14.8124 38.3388 16.043 36.9749C16.043 36.9749 20.6689 32.0113 26.9531 28.8951C37.0341 23.9056 50.2222 23.9747 57.4141 30.4316C63.3492 35.7232 64.414 43.9585 65.2083 51.6671C68.394 44.6318 70.8466 36.9318 68.717 30.1468C66.8928 24.4149 61.8218 19.9347 55.4852 17.7853C46.5564 14.7553 38.1949 16.8012 34.6251 17.7421C23.1215 20.7893 16.4183 27.7297 13.0929 31.174C13.0929 31.174 5.77882 38.7532 5.23767 45.1411L5.26386 45.1497Z" fill="url(#paint1_linear_547_2)"/>
<path d="M9.94205 9.10979C9.54929 9.30834 10.1603 13.3396 13.6078 16.2056C16.8983 18.9506 22.2225 20.2455 27.1975 19.1146C32.3732 17.932 36.1001 13.6418 40.822 11.2161C47.272 7.90127 55.3019 8.4451 60.9577 11.5873C66.6047 14.7294 70.0959 20.0987 71.8765 25.8392C73.6657 31.5797 73.9101 37.7346 74.1545 43.8376C77.3926 42.0162 79.5834 38.9776 80.7704 35.87C81.9574 32.7623 82.2542 29.5598 82.5509 26.3917C82.7604 24.0869 82.5509 22.8438 82.5073 22.5244C82.1407 19.5376 81.1021 17.4659 80.3951 16.0933C80.0198 15.3596 78.344 12.2002 75.1146 9.17022C72.5485 6.7618 65.9676 1.76369 55.1186 0.270299C47.4204 -0.791476 38.3432 1.25438 32.7572 6.77043C30.3919 9.10979 30.1039 11.57 26.4905 13.7453C25.3907 14.41 21.4893 16.5595 17.6489 15.8689C12.2113 14.8934 10.4396 8.84219 9.95078 9.0839L9.94205 9.10979Z" fill="url(#paint2_linear_547_2)"/>
<path d="M88.5123 54.8524C89.1058 52.3491 89.2891 49.6903 88.041 47.5581C87.3602 46.4532 86.5136 45.5382 85.0385 45.2188C84.0959 45.0116 82.9089 44.6404 81.9051 44.6663C79.6707 44.7267 77.5236 45.2878 75.4464 46.2374C74.4688 46.6863 73.6484 47.3337 72.7756 47.9121C72.409 48.1538 72.0511 48.4127 71.702 48.6717C68.7606 50.9161 66.631 53.7907 64.5624 56.6048C62.0051 60.0923 59.3343 63.7092 55.3805 66.014C51.4267 68.3275 45.8494 65.7896 43.0303 63.0531C43.9118 67.8095 47.3419 73.2393 51.8544 73.6623C58.0077 74.232 63.3842 69.9935 64.6235 68.7418C68.4726 64.8314 70.1397 60.4807 70.1397 60.4807C70.8641 58.5902 71.7631 55.7675 74.6259 53.4195C74.9314 53.1691 75.2805 52.9447 75.6646 52.7289C75.6907 52.7203 75.7257 52.6857 75.7518 52.6771C75.9439 52.539 76.1359 52.4181 76.3541 52.3318C76.5635 52.2282 76.773 52.1505 76.9912 52.0815C77.0261 52.0901 77.0436 52.0815 77.061 52.0556C78.5885 51.4858 80.2555 51.0715 81.6433 51.4599C84.3403 52.2196 86.95 52.8497 88.5123 54.8438V54.8524Z" fill="url(#paint3_linear_547_2)"/>
<path d="M89.1407 64.4084C87.2118 61.4303 84.8291 58.15 79.9326 58.8751C78.1084 59.1427 76.4065 59.9887 75.01 61.1799C71.2569 64.3739 70.2532 68.5865 69.2145 72.6177C68.3941 75.8117 67.4253 79.1351 65.0338 81.8284C61.7433 85.5317 56.07 87.4049 51.095 86.9301C46.12 86.4554 41.9044 83.8657 39.2423 80.4127C36.5802 76.9512 35.367 72.6868 35.0179 68.3534C34.7735 65.2803 34.9917 61.9914 36.8159 59.1082C38.6401 56.225 42.4368 53.9288 45.9193 54.4122C43.5627 52.4613 39.5478 52.3318 36.2748 53.7043C33.0017 55.0855 30.4881 57.7529 29.0566 60.6275C27.634 63.5107 27.1976 66.5924 27.1714 69.5878C27.119 75.4232 28.6028 81.1637 31.9631 85.8684C35.3234 90.573 40.6388 94.1899 47.0278 95.502C53.408 96.8055 60.8443 95.6747 66.6834 92.0664C72.5225 88.4667 76.5025 82.355 76.3017 76.5455C76.2406 74.7413 75.8042 72.9717 76.1795 71.1503C76.7643 68.3448 79.4351 65.7378 82.6209 64.8659C85.8066 63.9941 89.3066 64.9091 91.0434 67.0758" fill="url(#paint4_linear_547_2)"/>
<path d="M127.457 46.8417C124.812 43.7945 122.194 41.1098 119.724 38.9517C117.577 37.0785 115.29 35.1276 113.501 33.7464L114.714 29.7497C117.97 29.2145 120.614 27.911 120.614 25.822C120.614 24.7602 119.436 23.6294 117.498 23.6294C115.168 23.6294 113.387 24.2336 113.204 26.3572C112.776 31.2431 112.523 38.4597 113.387 44.0189L104.581 45.5727C104.764 38.8481 104.973 34.4975 105.192 30.3885C105.375 26.8838 105.515 23.8797 106.195 18.9938C111.424 18.6744 114.923 18.4241 117.682 18.355C124.978 18.0356 128.67 20.5131 128.67 24.553C128.67 28.5929 125.38 30.7079 123.556 31.7696C123.198 31.9854 122.735 32.2272 122.7 32.4084C122.665 32.6933 123.128 33.0472 123.311 33.2199C126.567 35.9477 129.002 37.7518 132.362 39.9444L127.457 46.8503V46.8417ZM133.645 45.1066C133.828 38.8827 133.933 34.5234 133.933 30.9496C133.933 29.2835 133.828 25.0364 133.506 18.5277H142.164C142.024 21.9288 141.911 26.6334 141.946 30.1036C141.946 34.3852 142.05 37.1476 142.408 43.6218L133.645 45.1066ZM168.252 32.7192C166.21 36.7505 165.101 39.2625 162.526 44.6145C159.629 44.9685 157.839 45.072 155.474 45.072C152.969 39.7977 151.826 37.5706 149.967 33.8155C148.073 29.9223 146.563 26.4867 144.101 21.6008C146.318 20.2541 149.539 18.6658 152.079 17.7421C153.729 21.9202 154.654 24.5012 156.19 28.5412C157.01 30.6647 157.726 32.5034 158.59 34.4198C159.018 35.3779 159.236 35.5506 159.445 35.5506C159.698 35.5506 159.873 35.2657 160.196 34.4888C160.982 32.6847 162.02 29.9914 162.806 27.8678C164.202 24.1559 164.813 22.4208 166.384 17.8543L174.292 20.7203C171.569 25.7788 170.067 29.1109 168.243 32.7192H168.252ZM196.479 44.5368C192.83 44.4678 189.819 44.4678 186.956 44.5368C183.771 44.6404 181.946 44.7526 175.147 45.2447C175.645 39.0208 175.758 35.4384 175.793 31.3726C175.793 27.5139 175.758 24.1559 175.4 18.7003C180.41 18.6658 182.915 18.6658 185.603 18.5967C187.82 18.5622 189.758 18.4586 193.616 18.2428L195.152 24.5099C192.254 24.2595 190.107 24.1559 187.82 24.1905C186.284 24.1905 184.853 24.2595 183.779 24.3286V28.1527C184.355 28.1872 186.249 28.1182 186.93 28.0836C188.684 28.0146 191.94 27.6952 193.764 27.3413L196.269 32.9695C191.041 33.0731 188.327 33.1853 185.891 33.3235C184.102 33.427 183.605 33.9968 183.605 34.8082C183.605 35.6197 183.64 36.8972 183.709 37.6051C183.779 38.5633 184.53 38.9863 186.895 38.9517C189.758 38.8827 193.118 38.382 198.6 37.0008L196.487 44.5368H196.479ZM223.571 46.8417C220.926 43.7945 218.308 41.1098 215.837 38.9517C213.69 37.0785 211.404 35.1276 209.614 33.7464L210.828 29.7497C214.083 29.2145 216.728 27.911 216.728 25.822C216.728 24.7602 215.549 23.6294 213.612 23.6294C211.281 23.6294 209.501 24.2336 209.318 26.3572C208.89 31.2431 208.637 38.4597 209.501 44.0189L200.694 45.5727C200.878 38.8481 201.087 34.4975 201.305 30.3885C201.489 26.8838 201.628 23.8797 202.309 18.9938C207.537 18.6744 211.037 18.4241 213.795 18.355C221.092 18.0356 224.784 20.5131 224.784 24.553C224.784 28.5929 221.493 30.7079 219.669 31.7696C219.311 31.9854 218.849 32.2272 218.814 32.4084C218.779 32.6933 219.241 33.0472 219.425 33.2199C222.68 35.9477 225.115 37.7518 228.476 39.9444L223.571 46.8503V46.8417ZM247.974 45.426C235.275 45.1066 227.935 40.2552 228.153 31.4848C228.292 24.6221 235.31 18.3205 248.297 18.0356L249.947 24.6911C245.513 24.8724 243.331 25.4335 241.681 26.0033C238.496 27.0305 236.453 29.154 236.244 31.5279C235.956 34.4629 238.356 36.3102 241.254 37.4065C242.903 38.0108 246.298 38.8568 250.846 38.8568L247.983 45.4346L247.974 45.426ZM252.914 45.1066C253.098 38.8827 253.202 34.5234 253.202 30.9496C253.202 29.2835 253.098 25.0364 252.775 18.5277H261.433C261.293 21.9288 261.18 26.6334 261.215 30.1036C261.215 34.3852 261.319 37.1476 261.677 43.6218L252.914 45.1066ZM286.622 24.5099C283.541 24.4408 281.717 24.4753 280.006 24.5099C279.936 26.4867 279.902 29.1799 279.823 31.5193C279.788 35.5161 279.858 38.5287 280.286 44.0793L271.444 45.2447C271.697 38.3475 271.767 35.6887 271.907 31.4761C272.011 28.826 272.011 27.3672 272.011 25.8133C272.011 24.9674 271.226 24.5444 270.615 24.5444C269.009 24.5444 267.001 24.7257 265.317 24.9328L263.667 18.6658C270.467 19.0197 272.683 19.0197 275.974 19.0197C279.264 19.0197 281.516 19.0197 288.673 18.5277L286.596 24.5099H286.622ZM308.739 29.1109C307.343 30.846 306.234 32.5811 305.553 33.7464C305.518 34.5924 305.518 36.5433 305.588 38.0626C305.658 39.4092 306.016 42.0594 306.409 43.7945L297.105 45.1411C297.358 43.0176 297.497 40.6437 297.567 38.7359C297.637 37.0699 297.602 35.1967 297.532 34.0658C296.747 32.7883 295.42 31.0532 293.954 29.2145C291.519 26.1327 289.983 24.648 287.19 21.6785L295.027 17.9234C296.598 20.0124 297.497 21.2814 299.391 24.1905C299.854 24.8983 300.753 26.3831 301.434 27.4449C301.687 27.8333 301.792 27.9801 302.045 27.9801C302.263 27.9801 302.368 27.7988 302.621 27.4103C303.336 26.245 304.305 24.6135 304.733 23.9401C305.876 22.1705 307.596 19.5549 308.739 18.1392L316.001 21.2555C312.492 24.5876 311.349 25.891 308.739 29.1109ZM114.443 70.8481C114.923 70.8481 115.404 71.1589 115.404 71.9272C115.404 76.9598 113.396 80.6286 109.582 80.6286C106.091 80.6286 103.481 78.0475 103.481 69.6914C103.481 60.7138 106.536 55.7157 110.551 55.7157C113.606 55.7157 115.011 58.2363 115.011 61.6893C115.011 63.6143 114.531 64.7624 113.361 64.7624C112.803 64.7624 112.235 64.3739 112.235 63.7179C112.235 63.1222 112.357 62.5611 112.357 62.1122C112.357 59.5312 111.755 58.3399 110.429 58.3399C108.342 58.3399 106.937 61.7669 106.937 69.0354C106.937 76.3038 108.587 78.2978 110.106 78.2978C111.467 78.2978 113.195 76.7958 113.396 71.9358C113.44 71.2711 113.876 70.8568 114.443 70.8568V70.8481ZM130.224 57.1487C130.224 56.2768 130.582 55.3272 132.109 55.3272H133.357C138.376 55.3272 141.544 57.3213 141.544 61.8274C141.544 66.3334 137.451 69.4497 135.967 70.1144V70.2525C141.387 71.4092 139.737 78.5654 141.666 78.5654C142.146 78.5654 142.548 77.659 142.626 76.7095C142.705 76.1139 142.827 75.6995 143.386 75.6995C144.032 75.6995 144.145 76.3297 144.145 76.8131C144.145 78.9798 143.098 81.0429 140.811 81.0429C138.524 81.0429 137.756 79.3682 137.355 77.7195C136.709 74.9571 136.63 71.6768 133.462 71.5301V79.256C133.462 80.266 132.703 80.758 131.812 80.758C130.922 80.758 130.206 80.2315 130.206 79.256V57.14L130.224 57.1487ZM133.471 69.2771C135.801 68.3707 137.966 65.4012 137.966 61.9051C137.966 58.409 135.312 57.6062 133.471 57.6062V69.2771ZM165.476 81.4745H159.131C158.171 81.4745 157.403 80.9825 157.403 79.7222V57.6752C157.403 56.4149 158.171 55.9315 159.131 55.9315H165.476C166.48 55.9315 166.882 56.5617 166.882 57.1918C166.882 57.7875 166.48 58.3831 165.476 58.3831H160.659V68.7246H164.516C165.442 68.7246 165.843 69.2857 165.843 69.8382C165.843 70.4338 165.442 71.0294 164.516 71.0294H160.659V79.0316H165.476C166.48 79.0316 166.882 79.6272 166.882 80.2228C166.882 80.853 166.48 81.4832 165.476 81.4832V81.4745ZM179.808 80.7063L183.945 57.9946C184.189 56.5962 184.905 55.897 186.11 55.897C187.314 55.897 188.039 56.6653 188.239 57.9601L191.774 79.938C192.097 82.0356 188.842 82.5967 188.44 80.2142L187.881 76.4764H183.387L182.662 81.017C182.339 83.0111 179.45 82.6572 179.808 80.7063ZM183.744 74.1371H187.559L185.83 62.1899H185.586L183.736 74.1371H183.744ZM213.813 56.8034C214.816 56.8034 215.174 57.4335 215.174 58.0637C215.174 58.6593 214.816 59.2549 213.813 59.2549H210.801V79.5236C210.801 80.5681 209.955 81.0256 209.152 81.0256C208.349 81.0256 207.502 80.5336 207.502 79.5236V59.2549H204.491C203.487 59.2549 203.129 58.6593 203.129 58.0637C203.129 57.4335 203.487 56.8034 204.491 56.8034H213.804H213.813ZM228.991 80.8789C228.109 80.8789 227.743 80.3178 227.743 79.7653C227.743 79.2129 228.1 78.6863 228.991 78.6863H231.199V58.1414H229.113C228.188 58.1414 227.865 57.5803 227.865 57.0278C227.865 56.5012 228.188 55.9488 229.113 55.9488H236.584C237.466 55.9488 237.832 56.5099 237.832 57.0278C237.832 57.5889 237.474 58.1414 236.584 58.1414H234.454V78.6863H236.907C237.789 78.6863 238.155 79.2129 238.155 79.7653C238.155 80.3178 237.797 80.8789 236.907 80.8789H228.999H228.991ZM260.141 58.478C260.42 56.553 263.275 56.8724 262.908 58.7543L259.05 79.5064C258.771 80.9048 258.003 81.604 256.798 81.604C255.594 81.604 254.913 80.8357 254.712 79.5409L250.942 57.1055C250.584 55.0078 253.831 54.4467 254.197 56.8293L257.209 76.2261H257.453L260.141 58.478ZM285.636 80.2487H279.334C278.374 80.2487 277.606 79.7567 277.606 78.505V56.8379C277.606 55.5776 278.374 55.0855 279.334 55.0855H285.557C286.561 55.0855 286.919 55.7157 286.919 56.3459C286.919 56.9415 286.561 57.5371 285.557 57.5371H280.862V69.0008H284.597C285.522 69.0008 285.88 69.5965 285.88 70.1576C285.88 70.7532 285.522 71.3488 284.597 71.3488H280.862V77.8144H285.636C286.64 77.8144 287.041 78.4101 287.041 79.0057C287.041 79.6358 286.64 80.266 285.636 80.266V80.2487ZM308.207 62.6388C308.207 62.328 308.329 61.6634 308.329 61.1713C308.329 59.2463 307.404 58.2709 306.199 58.2709C305.073 58.2709 304.035 59.1427 304.035 60.8951C304.035 65.4357 311.061 69.9072 311.061 76.3038C311.061 80.0761 308.652 81.7249 305.885 81.7249C302.507 81.7249 301.146 79.1352 301.146 76.2002C301.146 74.9744 301.469 72.635 302.795 72.635C303.476 72.635 303.878 73.058 303.878 73.7486C303.878 74.2407 303.633 74.9399 303.633 75.9153C303.633 77.3483 304.035 79.092 305.763 79.092C307.168 79.092 307.849 77.9008 307.849 76.3297C307.849 71.3661 300.98 67.1708 300.98 61.2317C300.98 57.8047 303.267 55.7071 306.121 55.7071C307.927 55.7071 310.738 56.5789 310.816 61.0159C310.816 62.2417 310.459 63.7437 309.368 63.7437C308.687 63.7437 308.207 63.3985 308.207 62.6302V62.6388Z" fill="white"/>
<defs>
<linearGradient id="paint0_linear_547_2" x1="7.73395" y1="50.5967" x2="60.2595" y2="50.5967" gradientUnits="userSpaceOnUse">
<stop stop-color="#47B978"/>
<stop offset="1" stop-color="#0096C1"/>
</linearGradient>
<linearGradient id="paint1_linear_547_2" x1="0.000828763" y1="35.2053" x2="69.5287" y2="35.2053" gradientUnits="userSpaceOnUse">
<stop stop-color="#47B978"/>
<stop offset="1" stop-color="#0096C1"/>
</linearGradient>
<linearGradient id="paint2_linear_547_2" x1="9.83731" y1="21.9288" x2="82.6295" y2="21.9288" gradientUnits="userSpaceOnUse">
<stop stop-color="#47B978"/>
<stop offset="1" stop-color="#0096C1"/>
</linearGradient>
<linearGradient id="paint3_linear_547_2" x1="43.0303" y1="59.1945" x2="88.9749" y2="59.1945" gradientUnits="userSpaceOnUse">
<stop stop-color="#47B978"/>
<stop offset="1" stop-color="#0096C1"/>
</linearGradient>
<linearGradient id="paint4_linear_547_2" x1="27.1714" y1="74.4046" x2="91.0347" y2="74.4046" gradientUnits="userSpaceOnUse">
<stop stop-color="#47B978"/>
<stop offset="1" stop-color="#0096C1"/>
</linearGradient>
</defs>
</svg>
