<svg width="110" height="117" viewBox="0 0 110 117" fill="none" xmlns="http://www.w3.org/2000/svg">
<g clip-path="url(#clip0_543_1508)">
<path d="M21.5652 63.3428C21.7402 59.6579 21.9245 55.8351 23.859 52.3614C27.5898 45.644 35.9451 42.5655 38.202 41.7293C40.4037 40.9206 49.3945 37.7319 58.5973 40.9941C68.2975 44.4401 71.0242 52.4993 71.7243 54.5669C75.2433 64.9969 69.2647 74.5723 68.104 76.3551C67.6066 69.7663 65.1654 63.5082 61.0661 58.3162C58.4131 54.9529 54.9217 51.9571 50.371 50.689C45.8203 49.4208 40.0628 50.1927 36.2583 53.3907C28.8519 59.6303 32.0945 71.1171 24.4486 77.127C21.252 79.6357 9.35938 83.7066 9.35938 83.7066C9.35938 83.7066 12.5559 80.7752 16.2776 77.5313C21.077 73.3593 21.3073 68.9208 21.5744 63.3336L21.5652 63.3428Z" fill="url(#paint0_linear_543_1508)"/>
<path d="M6.35624 54.9988C6.31939 55.4123 6.31939 55.8167 6.31939 55.8259C6.31939 56.1475 6.33782 56.4048 6.34703 56.5978C6.35624 56.6254 6.33782 56.6529 6.33782 56.6529C6.33782 57.4984 6.33782 58.353 6.27333 59.1984C6.27333 59.1984 6.18121 60.4114 5.84958 61.5877C5.18632 63.9401 -0.0829163 65.824 -8.6723e-06 66.0262C0.101323 66.2651 7.90385 64.8499 10.2161 60.3195C10.7503 59.2627 10.603 58.8032 10.9991 57.3329C11.5886 55.1367 12.952 52.389 16.0841 49.3197C16.821 48.2078 17.908 46.7008 19.4004 45.0467C19.4004 45.0467 24.992 38.9908 32.5827 35.2048C44.7609 29.1213 60.7068 29.204 69.3845 37.0794C76.5606 43.5304 77.841 53.5653 78.7991 62.9569C82.6497 54.3831 85.6159 45.0007 83.0458 36.7302C80.8441 29.7462 74.7182 24.2785 67.063 21.6595C56.2758 17.9745 46.1703 20.4557 41.8591 21.6136C27.9583 25.3261 19.861 33.7896 15.8446 37.98C15.8446 37.98 7.00108 47.2154 6.35624 54.9988Z" fill="url(#paint1_linear_543_1508)"/>
<path d="M12.0124 11.0825C11.5426 11.3214 12.2796 16.2377 16.4342 19.7297C20.4137 23.0747 26.8437 24.6553 32.8499 23.2677C39.1048 21.8249 43.6002 16.6053 49.3116 13.6463C57.105 9.61215 66.8144 10.2738 73.6404 14.1058C80.4665 17.9378 84.6764 24.4807 86.8412 31.483C89.006 38.4762 89.3008 45.984 89.5863 53.4182C93.5014 51.1944 96.1452 47.491 97.5823 43.7142C99.0194 39.9281 99.3786 36.0226 99.7287 32.1631C99.9866 29.3603 99.7287 27.844 99.6734 27.4489C99.2313 23.8098 97.9692 21.2827 97.1217 19.6195C96.6611 18.7281 94.6437 14.8777 90.747 11.1835C87.6518 8.25212 79.7019 2.15952 66.5841 0.340006C57.28 -0.946517 46.3086 1.53463 39.5654 8.26131C36.7097 11.11 36.3596 14.1058 31.9932 16.7615C30.6666 17.5702 25.9501 20.1984 21.3073 19.353C14.7392 18.1583 12.602 10.7884 12.0032 11.0917L12.0124 11.0825Z" fill="url(#paint2_linear_543_1508)"/>
<path d="M106.951 66.8256C107.669 63.7747 107.89 60.5309 106.38 57.9394C105.56 56.5978 104.537 55.4767 102.75 55.0815C101.617 54.8334 100.18 54.3739 98.964 54.4107C96.2649 54.4842 93.6671 55.1642 91.1615 56.3313C89.9824 56.8827 88.9875 57.6729 87.9373 58.3713C87.4951 58.6654 87.0622 58.9778 86.6384 59.2995C83.0826 62.0287 80.5125 65.5391 78.016 68.9668C74.9208 73.2123 71.6966 77.6232 66.9156 80.4352C62.1438 83.2472 55.4007 80.1595 51.983 76.8237C53.0516 82.6131 57.1878 89.2387 62.6505 89.7533C70.0845 90.4517 76.579 85.2872 78.0713 83.7526C82.7233 78.9833 84.7408 73.6901 84.7408 73.6901C85.6159 71.3928 86.7029 67.9467 90.1574 65.0796C90.5351 64.7672 90.9496 64.5007 91.4102 64.2342C91.4379 64.225 91.4839 64.1791 91.5115 64.1699C91.7418 63.9953 91.9814 63.8483 92.2393 63.7472C92.488 63.6277 92.7459 63.5266 93.0131 63.4439C93.0499 63.4531 93.0776 63.4439 93.096 63.4072C94.9384 62.7179 96.965 62.2033 98.6324 62.6812C101.893 63.6093 105.044 64.3812 106.932 66.8072L106.951 66.8256Z" fill="url(#paint3_linear_543_1508)"/>
<path d="M107.706 78.4778C105.376 74.848 102.501 70.8414 96.5782 71.7328C94.3765 72.0636 92.3223 73.0836 90.6273 74.5356C86.095 78.4227 84.879 83.5596 83.6262 88.476C82.6313 92.3723 81.4706 96.4156 78.578 99.6963C74.5985 104.208 67.7448 106.496 61.7386 105.918C55.7324 105.339 50.6289 102.187 47.414 97.9687C44.199 93.7507 42.7251 88.5587 42.3105 83.2656C42.0158 79.5163 42.2829 75.5097 44.4754 71.9993C46.677 68.4889 51.2646 65.6861 55.4744 66.2743C52.6279 63.8942 47.7732 63.738 43.8213 65.4197C39.8694 67.1013 36.8294 70.3544 35.0976 73.8556C33.3657 77.3567 32.8499 81.1244 32.8222 84.7726C32.7577 91.8852 34.5541 98.8784 38.6166 104.622C42.679 110.356 49.0998 114.767 56.8102 116.357C64.5206 117.947 73.5022 116.559 80.5586 112.176C87.615 107.783 92.4144 100.34 92.1749 93.2637C92.1012 91.0674 91.5761 88.9079 92.0275 86.684C92.7276 83.2656 95.961 80.086 99.8116 79.02C103.662 77.9541 107.881 79.0752 109.991 81.7125" fill="url(#paint4_linear_543_1508)"/>
</g>
<defs>
<linearGradient id="paint0_linear_543_1508" x1="9.35016" y1="61.6428" x2="72.8113" y2="61.6428" gradientUnits="userSpaceOnUse">
<stop stop-color="#47B978"/>
<stop offset="1" stop-color="#0096C1"/>
</linearGradient>
<linearGradient id="paint1_linear_543_1508" x1="-8.67241e-06" y1="42.8871" x2="84.013" y2="42.8871" gradientUnits="userSpaceOnUse">
<stop stop-color="#47B978"/>
<stop offset="1" stop-color="#0096C1"/>
</linearGradient>
<linearGradient id="paint2_linear_543_1508" x1="11.8835" y1="26.7045" x2="99.8392" y2="26.7045" gradientUnits="userSpaceOnUse">
<stop stop-color="#47B978"/>
<stop offset="1" stop-color="#0096C1"/>
</linearGradient>
<linearGradient id="paint3_linear_543_1508" x1="51.9922" y1="72.1187" x2="107.504" y2="72.1187" gradientUnits="userSpaceOnUse">
<stop stop-color="#47B978"/>
<stop offset="1" stop-color="#0096C1"/>
</linearGradient>
<linearGradient id="paint4_linear_543_1508" x1="32.8314" y1="90.6539" x2="110" y2="90.6539" gradientUnits="userSpaceOnUse">
<stop stop-color="#47B978"/>
<stop offset="1" stop-color="#0096C1"/>
</linearGradient>
<clipPath id="clip0_543_1508">
<rect width="110" height="117" fill="white"/>
</clipPath>
</defs>
</svg>
