<svg width="48" height="52" viewBox="0 0 48 52" fill="none" xmlns="http://www.w3.org/2000/svg">
<path d="M7.87793 1.125H40.123C41.6841 1.12511 43.1859 1.7102 44.3389 2.76074L44.5654 2.97754C45.7443 4.16413 46.4071 5.77435 46.4072 7.4541V16.7275C46.397 18.2887 45.8139 19.7901 44.7715 20.9443L44.3936 21.3633L44.7715 21.7822C45.7497 22.8654 46.3231 24.2548 46.3984 25.7119L46.4072 26.0039V35.2725C46.4072 36.8474 45.8246 38.3616 44.7803 39.5225L44.5654 39.75C43.3866 40.9365 41.7884 41.6024 40.123 41.6025H25.6787V47.4883H44.7295C45.1177 47.4884 45.4924 47.6248 45.791 47.8711L45.9141 47.9834C46.2292 48.3006 46.4072 48.7313 46.4072 49.1816C46.4072 49.5757 46.2716 49.9556 46.0264 50.2568L45.9141 50.3809C45.5991 50.6977 45.173 50.8749 44.7295 50.875H3.27148C2.88327 50.875 2.50769 50.7394 2.20898 50.4932L2.08594 50.3809C1.77076 50.0636 1.59277 49.632 1.59277 49.1816C1.59281 48.7878 1.72866 48.4085 1.97363 48.1074L2.08594 47.9834C2.40098 47.6663 2.8277 47.4883 3.27148 47.4883H22.3223V41.6025H7.87793C6.31653 41.6025 4.81421 41.0167 3.66113 39.9658L3.43457 39.75C2.25557 38.5633 1.59277 36.9524 1.59277 35.2725V26.0039C1.60203 24.4413 2.18521 22.9375 3.22852 21.7822L3.60645 21.3633L3.22852 20.9443C2.2504 19.8613 1.677 18.4726 1.60156 17.0156L1.59277 16.7236V7.4541L1.60059 7.14062C1.67257 5.6795 2.24508 4.28859 3.21973 3.20508L3.43457 2.97754C4.53989 1.86504 6.01406 1.21023 7.56641 1.13281L7.87793 1.125ZM7.87793 23.0566C7.10014 23.0566 6.35447 23.3677 5.80566 23.9199C5.25697 24.4722 4.94922 25.2207 4.94922 26V35.2725C4.94922 36.0517 5.25697 36.8003 5.80566 37.3525C6.35448 37.9048 7.10008 38.2158 7.87793 38.2158H40.123C40.9007 38.2157 41.6456 37.9047 42.1943 37.3525C42.743 36.8003 43.0508 36.0517 43.0508 35.2725V26C43.0508 25.2207 42.743 24.4722 42.1943 23.9199C41.6456 23.3678 40.9007 23.0568 40.123 23.0566H7.87793ZM12.4844 28.9434C12.8725 28.9435 13.2473 29.079 13.5459 29.3252L13.6689 29.4375C13.9841 29.7547 14.1621 30.1864 14.1621 30.6367C14.162 30.9304 14.0861 31.2178 13.9434 31.4717L13.8779 31.5781C13.7161 31.8219 13.4953 32.0187 13.2373 32.1494L13.125 32.2012C12.8188 32.3288 12.482 32.3619 12.1572 32.2969C11.873 32.24 11.6087 32.11 11.3896 31.9199L11.2988 31.835C11.0933 31.6281 10.9447 31.3713 10.8672 31.0898L10.8379 30.9678C10.7809 30.6796 10.7996 30.382 10.8906 30.1045L10.9336 29.9873C11.0451 29.7163 11.2244 29.4799 11.4521 29.3008L11.5527 29.2275C11.8286 29.042 12.1534 28.9434 12.4844 28.9434ZM21.6973 28.9434C22.1408 28.9435 22.5669 29.1206 22.8818 29.4375C23.197 29.7547 23.375 30.1864 23.375 30.6367C23.3749 30.9304 23.299 31.2178 23.1562 31.4717L23.0908 31.5781C22.929 31.8219 22.7082 32.0187 22.4502 32.1494L22.3379 32.2012C22.0699 32.3129 21.7784 32.3528 21.4922 32.3174L21.3701 32.2969C21.0859 32.24 20.8216 32.11 20.6025 31.9199L20.5117 31.835C20.3062 31.6281 20.1576 31.3713 20.0801 31.0898L20.0508 30.9678C19.9938 30.6796 20.0125 30.382 20.1035 30.1045L20.1465 29.9873C20.258 29.7163 20.4373 29.4799 20.665 29.3008L20.7656 29.2275C21.0415 29.042 21.3662 28.9434 21.6973 28.9434ZM7.87793 4.51172C7.10002 4.51172 6.35449 4.82262 5.80566 5.375C5.25707 5.92716 4.94934 6.67498 4.94922 7.4541V16.7275C4.94929 17.5067 5.25707 18.2545 5.80566 18.8066C6.3545 19.359 7.10001 19.6709 7.87793 19.6709H40.123C40.9008 19.6708 41.6456 19.3589 42.1943 18.8066C42.743 18.2544 43.0507 17.5067 43.0508 16.7275V7.4541C43.0507 6.67498 42.7429 5.92716 42.1943 5.375C41.6456 4.82274 40.9008 4.51183 40.123 4.51172H7.87793ZM12.4844 10.3975C12.8726 10.3976 13.2473 10.5339 13.5459 10.7803L13.6689 10.8926C13.9841 11.2098 14.1621 11.6405 14.1621 12.0908C14.1621 12.3847 14.0863 12.6727 13.9434 12.9268L13.8779 13.0332C13.7161 13.2768 13.4951 13.4728 13.2373 13.6035L13.125 13.6553C12.8188 13.7829 12.482 13.817 12.1572 13.752C11.8326 13.687 11.5338 13.5264 11.2988 13.29C11.0932 13.0831 10.9447 12.8255 10.8672 12.5439L10.8379 12.4219C10.7729 12.0927 10.8061 11.7512 10.9336 11.4414C11.0452 11.1703 11.2243 10.934 11.4521 10.7549L11.5527 10.6816C11.8286 10.4961 12.1534 10.3975 12.4844 10.3975ZM21.6973 10.3975C22.0855 10.3976 22.4601 10.5339 22.7588 10.7803L22.8818 10.8926C23.197 11.2098 23.375 11.6405 23.375 12.0908C23.375 12.3847 23.2992 12.6727 23.1562 12.9268L23.0908 13.0332C22.929 13.2768 22.708 13.4728 22.4502 13.6035L22.3379 13.6553C22.0699 13.767 21.7784 13.807 21.4922 13.7715L21.3701 13.752C21.086 13.6951 20.8216 13.565 20.6025 13.375L20.5117 13.29C20.2767 13.0535 20.1158 12.7511 20.0508 12.4219C19.9858 12.0927 20.019 11.7513 20.1465 11.4414C20.2581 11.1703 20.4372 10.934 20.665 10.7549L20.7656 10.6816C21.0415 10.4961 21.3662 10.3975 21.6973 10.3975Z" fill="#0C2244" stroke="#E3EFF6" stroke-width="1.25"/>
</svg>
