<svg xmlns="http://www.w3.org/2000/svg" width="48" height="52" fill="none"><path fill="#292732" stroke="#80D8FE" d="m3.135 21.699.303-.335-.303-.335a6.48 6.48 0 0 1-1.667-4.303V7.455c0-1.713.676-3.355 1.878-4.566A6.39 6.39 0 0 1 7.877 1h32.246c1.699 0 3.329.68 4.53 1.89a6.48 6.48 0 0 1 1.88 4.565v9.27a6.48 6.48 0 0 1-1.668 4.304l-.303.335.303.335a6.48 6.48 0 0 1 1.667 4.303v9.27a6.48 6.48 0 0 1-1.878 4.566 6.39 6.39 0 0 1-4.531 1.89h-14.32v5.636H44.73c.477 0 .936.19 1.274.531a1.826 1.826 0 0 1 0 2.574c-.338.34-.797.531-1.274.531H3.271c-.477 0-.936-.19-1.274-.531a1.826 1.826 0 0 1 0-2.574l-.354-.351.354.351c.338-.34.797-.531 1.274-.531h18.926v-5.637H7.877a6.39 6.39 0 0 1-4.53-1.89 6.48 6.48 0 0 1-1.88-4.564V26A6.48 6.48 0 0 1 3.136 21.7Zm17.561 7.425a1.79 1.79 0 0 1 2.275.226 1.825 1.825 0 0 1-.585 2.967 1.79 1.79 0 0 1-1.963-.394 1.82 1.82 0 0 1-.392-1.983c.137-.333.369-.617.665-.816Zm-9.213 0a1.79 1.79 0 0 1 2.275.226 1.825 1.825 0 0 1-.585 2.967 1.79 1.79 0 0 1-1.963-.394 1.82 1.82 0 0 1-.392-1.983c.137-.333.369-.617.665-.816Zm30.623 8.14c.525-.528.82-1.245.82-1.991V26c0-.746-.295-1.463-.82-1.992a2.8 2.8 0 0 0-1.983-.826H7.877c-.744 0-1.457.298-1.983.826A2.83 2.83 0 0 0 5.074 26v9.273c0 .746.295 1.463.82 1.991a2.8 2.8 0 0 0 1.983.827h32.246c.744 0 1.458-.298 1.983-.827Zm0-18.545c.525-.529.82-1.245.82-1.992V7.455c0-.747-.295-1.463-.82-1.992a2.8 2.8 0 0 0-1.983-.827H7.877c-.744 0-1.457.298-1.983.827a2.83 2.83 0 0 0-.82 1.992v9.272c0 .747.295 1.463.82 1.992a2.8 2.8 0 0 0 1.983.826h32.246c.744 0 1.458-.297 1.983-.826Zm-21.41-8.14a1.79 1.79 0 0 1 2.275.225 1.826 1.826 0 0 1-.585 2.967 1.79 1.79 0 0 1-1.963-.393 1.82 1.82 0 0 1-.392-1.984c.137-.332.369-.616.665-.816Zm-9.213 0a1.79 1.79 0 0 1 2.275.225 1.826 1.826 0 0 1-.585 2.967 1.79 1.79 0 0 1-1.963-.393 1.82 1.82 0 0 1-.392-1.984c.137-.332.369-.616.665-.816Z"/></svg>