<svg width="47" height="51" viewBox="0 0 47 51" fill="none" xmlns="http://www.w3.org/2000/svg">
<path d="M21.8344 8.60625C15.4594 9.32344 10.1203 14.4234 9.24375 20.7984C8.44688 26.3766 10.8375 31.7156 15.4594 34.8234C16.7344 35.7 17.6109 38.0906 17.6109 39.9234C17.6109 40.0828 17.6109 45.1828 17.6109 45.1031C17.6109 45.5812 17.9297 45.9 18.4078 45.9H19.0453V47.2547C19.0453 49.3266 20.7188 51 22.7906 51H24.1453C26.2172 51 27.8906 49.3266 27.8906 47.2547V45.9H28.5281C29.0063 45.9 29.325 45.5812 29.325 45.1031C29.325 44.7844 29.325 39.8437 29.325 39.9234C29.325 38.1703 30.2016 35.7 31.4766 34.8234C35.4609 32.1141 37.8516 27.6516 37.8516 22.8703C37.7719 14.5828 30.6 7.57031 21.8344 8.60625ZM27.6516 40.8V44.2266H19.2047V40.8H27.6516ZM26.2969 47.2547C26.2969 48.45 25.3406 49.4062 24.1453 49.4062H22.7906C21.5953 49.4062 20.6391 48.45 20.6391 47.2547V45.9H26.2969V47.2547ZM30.5203 33.4688C28.9266 34.5047 27.8906 37.0547 27.7313 39.2063H24.3047V29.325L26.6953 26.9344C26.8547 27.0141 27.0938 27.0141 27.2531 27.0938C27.3328 27.0938 27.4125 27.0938 27.4125 27.0938C28.6078 27.0938 29.7234 26.1375 29.8031 24.8625C29.8828 24.225 29.6438 23.5875 29.2453 23.1094C28.8469 22.6312 28.2891 22.3125 27.6516 22.3125C27.0141 22.2328 26.3766 22.4719 25.8984 22.8703C25.4203 23.2688 25.1016 23.8266 25.1016 24.4641C25.0219 24.9422 25.1813 25.5 25.4203 25.8984L23.4281 27.8906L21.5156 25.9781C21.7547 25.6594 21.9141 25.2609 21.9141 24.8625C21.9938 23.5078 21.0375 22.3922 19.6828 22.3125C18.3281 22.2328 17.2125 23.1891 17.1328 24.5437C17.0531 25.8187 18.0094 27.0141 19.3641 27.0938C19.4438 27.0938 19.5234 27.0938 19.5234 27.0938C19.7625 27.0938 20.0016 27.0141 20.2406 27.0141L22.6313 29.4047V39.2859H19.125C18.9656 37.1344 17.9297 34.5844 16.3359 33.5484C12.1922 30.7594 10.1203 25.9781 10.7578 21.0375C11.5547 15.3797 16.2563 10.8375 21.9938 10.2C29.8031 9.32344 36.1781 15.4594 36.1781 22.8703C36.1781 27.1734 34.1063 31.1578 30.5203 33.4688ZM26.6953 24.6234C26.6953 24.3844 26.775 24.225 26.9344 24.0656C27.0938 23.9063 27.2531 23.9062 27.4125 23.9062H27.4922C27.7313 23.9062 27.8906 23.9859 28.05 24.1453C28.2094 24.3047 28.2891 24.5437 28.2094 24.7031C28.2094 25.1813 27.8109 25.5 27.3328 25.4203C27.0938 25.4203 26.9344 25.3406 26.775 25.1812C26.6953 25.0219 26.6156 24.7828 26.6953 24.6234ZM20.0813 25.2609C19.9219 25.4203 19.6828 25.5 19.5234 25.4203C19.0453 25.4203 18.7266 25.0219 18.8063 24.5437C18.8063 24.3047 18.8859 24.1453 19.0453 23.9859C19.2047 23.8266 19.3641 23.8266 19.5234 23.8266H19.6031C20.0016 23.8266 20.4 24.225 20.3203 24.7031C20.3203 24.9422 20.2406 25.1016 20.0813 25.2609ZM23.4281 5.57812C23.9063 5.57812 24.225 5.25938 24.225 4.78125V0.796875C24.225 0.31875 23.9063 0 23.4281 0C22.95 0 22.6313 0.31875 22.6313 0.796875V4.78125C22.6313 5.17969 22.95 5.57812 23.4281 5.57812ZM38.8875 6.85313L36.0984 9.64219C35.7797 9.96094 35.7797 10.4391 36.0984 10.7578C36.4172 11.0766 36.8953 11.0766 37.2141 10.7578L40.0031 7.96875C40.3219 7.65 40.3219 7.17188 40.0031 6.85313C39.6844 6.53438 39.2063 6.53438 38.8875 6.85313ZM9.64219 36.0984L6.85313 38.8875C6.53438 39.2062 6.53438 39.6844 6.85313 40.0031C7.17188 40.3219 7.65 40.3219 7.96875 40.0031L10.7578 37.2141C11.0766 36.8953 11.0766 36.4172 10.7578 36.0984C10.4391 35.7797 9.96094 35.7797 9.64219 36.0984ZM46.0594 22.6312H42.075C41.5969 22.6312 41.2781 22.95 41.2781 23.4281C41.2781 23.9062 41.5969 24.225 42.075 24.225H46.0594C46.5375 24.225 46.8563 23.9062 46.8563 23.4281C46.8563 22.95 46.5375 22.6312 46.0594 22.6312ZM4.78125 22.6312H0.796875C0.31875 22.6312 0 22.95 0 23.4281C0 23.9062 0.31875 24.225 0.796875 24.225H4.78125C5.25938 24.225 5.57813 23.9062 5.57813 23.4281C5.57813 22.95 5.17969 22.6312 4.78125 22.6312ZM37.2141 36.0984C36.8953 35.7797 36.4172 35.7797 36.0984 36.0984C35.7797 36.4172 35.7797 36.8953 36.0984 37.2141L38.8875 40.0031C39.2063 40.3219 39.6844 40.3219 40.0031 40.0031C40.3219 39.6844 40.3219 39.2062 40.0031 38.8875L37.2141 36.0984ZM9.64219 10.8375C9.96094 11.1563 10.4391 11.1563 10.7578 10.8375C11.0766 10.5188 11.0766 10.0406 10.7578 9.72187L7.96875 6.93281C7.65 6.61406 7.17188 6.61406 6.85313 6.93281C6.53438 7.25156 6.53438 7.72969 6.85313 8.04844L9.64219 10.8375Z" fill="#292732"/>
</svg>
