<svg width="48" height="52" viewBox="0 0 48 52" fill="none" xmlns="http://www.w3.org/2000/svg">
<path d="M3.13536 21.6988L3.43801 21.3636L3.13536 21.0285C2.07173 19.8508 1.47756 18.3184 1.46777 16.7258V7.45455C1.46777 5.74165 2.14386 4.09956 3.34627 2.88935C4.54857 1.67924 6.17855 1 7.87745 1H40.1226C41.8215 1 43.4515 1.67924 44.6538 2.88935C45.8562 4.09956 46.5323 5.74165 46.5323 7.45455V16.7256C46.5225 18.3183 45.9284 19.8507 44.8647 21.0285L44.562 21.3636L44.8647 21.6988C45.9284 22.8765 46.5225 24.409 46.5323 26.0017V35.2727C46.5323 36.9856 45.8562 38.6277 44.6538 39.8379C43.4515 41.048 41.8215 41.7273 40.1226 41.7273H26.3033H25.8033V42.2273V46.8636V47.3636H26.3033H44.7291C45.2063 47.3636 45.6646 47.5544 46.003 47.895C46.3415 48.2357 46.5323 48.6986 46.5323 49.1818C46.5323 49.6651 46.3415 50.1279 46.003 50.4686C45.6646 50.8092 45.2063 51 44.7291 51H3.271C2.7938 51 2.33549 50.8092 1.99707 50.4686C1.65854 50.1279 1.46777 49.6651 1.46777 49.1818C1.46777 48.6986 1.65854 48.2357 1.99707 47.895L1.64335 47.5436L1.99707 47.895C2.33549 47.5544 2.7938 47.3636 3.271 47.3636H21.6968H22.1968V46.8636V42.2273V41.7273H21.6968H7.87745C6.17855 41.7273 4.54857 41.048 3.34627 39.8379C2.14386 38.6277 1.46777 36.9856 1.46777 35.2727V26.0015C1.47756 24.4088 2.07173 22.8765 3.13536 21.6988ZM20.6962 29.1238C20.9927 28.9244 21.3409 28.8182 21.6968 28.8182C22.174 28.8182 22.6323 29.0089 22.9707 29.3496C23.3093 29.6903 23.5 30.1531 23.5 30.6364C23.5 30.9967 23.3939 31.3486 23.1953 31.6477C22.9968 31.9468 22.7149 32.1794 22.3858 32.3166C22.0567 32.4538 21.6948 32.4896 21.3456 32.4197C20.9965 32.3498 20.6753 32.1772 20.4229 31.9232C20.1704 31.6691 19.9982 31.345 19.9283 30.9917C19.8585 30.6384 19.8944 30.2721 20.0313 29.9395C20.1682 29.6069 20.3997 29.3232 20.6962 29.1238ZM11.4833 29.1238C11.7798 28.9244 12.128 28.8182 12.4839 28.8182C12.9611 28.8182 13.4194 29.0089 13.7578 29.3496C14.0964 29.6903 14.2871 30.1531 14.2871 30.6364C14.2871 30.9967 14.181 31.3486 13.9824 31.6477C13.7839 31.9468 13.502 32.1794 13.1729 32.3166C12.8438 32.4538 12.4819 32.4896 12.1327 32.4197C11.7836 32.3498 11.4624 32.1772 11.21 31.9232C10.9575 31.6691 10.7853 31.345 10.7154 30.9917C10.6456 30.6384 10.6815 30.2721 10.8184 29.9395C10.9553 29.6069 11.1868 29.3232 11.4833 29.1238ZM42.1059 37.2643C42.6313 36.7356 42.9258 36.0191 42.9258 35.2727V26C42.9258 25.2536 42.6313 24.5371 42.1059 24.0084C41.5805 23.4795 40.8671 23.1818 40.1226 23.1818H7.87745C7.13294 23.1818 6.41958 23.4795 5.89413 24.0084C5.36878 24.5371 5.07423 25.2536 5.07423 26V35.2727C5.07423 36.0191 5.36878 36.7356 5.89413 37.2643C6.41958 37.7932 7.13294 38.0909 7.87745 38.0909H40.1226C40.8671 38.0909 41.5805 37.7932 42.1059 37.2643ZM42.1059 18.7189C42.6313 18.1901 42.9258 17.4737 42.9258 16.7273V7.45455C42.9258 6.70816 42.6313 5.99169 42.1059 5.46294C41.5805 4.93407 40.8671 4.63636 40.1226 4.63636H7.87745C7.13294 4.63636 6.41958 4.93407 5.89413 5.46294C5.36878 5.99169 5.07423 6.70816 5.07423 7.45455V16.7273C5.07423 17.4737 5.36878 18.1901 5.89413 18.7189C6.41958 19.2477 7.13294 19.5455 7.87745 19.5455H40.1226C40.8671 19.5455 41.5805 19.2477 42.1059 18.7189ZM20.6962 10.5783C20.9927 10.3789 21.3409 10.2727 21.6968 10.2727C22.174 10.2727 22.6323 10.4635 22.9707 10.8041C23.3093 11.1448 23.5 11.6077 23.5 12.0909C23.5 12.4512 23.3939 12.8032 23.1953 13.1023C22.9968 13.4013 22.7149 13.6339 22.3858 13.7711C22.0567 13.9083 21.6948 13.9442 21.3456 13.8743C20.9965 13.8044 20.6753 13.6317 20.4229 13.3777C20.1704 13.1236 19.9982 12.7995 19.9283 12.4462C19.8585 12.0929 19.8944 11.7267 20.0313 11.3941C20.1682 11.0615 20.3997 10.7777 20.6962 10.5783ZM11.4833 10.5783C11.7798 10.3789 12.128 10.2727 12.4839 10.2727C12.9611 10.2727 13.4194 10.4635 13.7578 10.8041C14.0964 11.1448 14.2871 11.6077 14.2871 12.0909C14.2871 12.4512 14.181 12.8032 13.9824 13.1023C13.7839 13.4013 13.502 13.6339 13.1729 13.7711C12.8438 13.9083 12.4819 13.9442 12.1327 13.8743C11.7835 13.8044 11.4624 13.6317 11.21 13.3777C10.9575 13.1236 10.7853 12.7995 10.7154 12.4462C10.6456 12.0929 10.6815 11.7267 10.8184 11.3941C10.9553 11.0615 11.1868 10.7777 11.4833 10.5783Z" fill="#292732" stroke="#80D8FE"/>
</svg>
