<svg width="47" height="51" viewBox="0 0 47 51" fill="none" xmlns="http://www.w3.org/2000/svg">
<path d="M20.729 27.8182C20.2735 27.8182 19.8282 27.9541 19.4494 28.2089C19.0707 28.4636 18.7755 28.8256 18.6011 29.2492C18.4268 29.6728 18.3812 30.1389 18.4701 30.5886C18.5589 31.0383 18.7783 31.4514 19.1004 31.7756C19.4225 32.0998 19.8329 32.3206 20.2797 32.41C20.7265 32.4995 21.1896 32.4535 21.6104 32.2781C22.0313 32.1026 22.391 31.8055 22.6441 31.4243C22.8972 31.0431 23.0323 30.5949 23.0323 30.1364C23.0323 29.5215 22.7896 28.9319 22.3577 28.4972C21.9257 28.0624 21.3399 27.8182 20.729 27.8182ZM11.5161 27.8182C11.0606 27.8182 10.6153 27.9541 10.2365 28.2089C9.85776 28.4636 9.56255 28.8256 9.38823 29.2492C9.2139 29.6728 9.16829 30.1389 9.25716 30.5886C9.34603 31.0383 9.56539 31.4514 9.8875 31.7756C10.2096 32.0998 10.62 32.3206 11.0668 32.41C11.5136 32.4995 11.9767 32.4535 12.3975 32.2781C12.8184 32.1026 13.1781 31.8055 13.4312 31.4243C13.6843 31.0431 13.8194 30.5949 13.8194 30.1364C13.8194 29.5215 13.5767 28.9319 13.1448 28.4972C12.7128 28.0624 12.127 27.8182 11.5161 27.8182ZM46.0645 6.95455C46.0645 5.11009 45.3365 3.34117 44.0407 2.03694C42.7449 0.732709 40.9874 0 39.1548 0H6.90968C5.07712 0 3.31961 0.732709 2.0238 2.03694C0.727982 3.34117 0 5.11009 0 6.95455V16.2273C0.0101586 17.9429 0.649995 19.5941 1.79652 20.8636C0.649995 22.1332 0.0101586 23.7844 0 25.5V34.7727C0 36.6172 0.727982 38.3861 2.0238 39.6903C3.31961 40.9946 5.07712 41.7273 6.90968 41.7273H20.729V46.3636H2.30323C1.69237 46.3636 1.10654 46.6079 0.674599 47.0426C0.242661 47.4774 0 48.067 0 48.6818C0 49.2966 0.242661 49.8863 0.674599 50.321C1.10654 50.7558 1.69237 51 2.30323 51H43.7613C44.3721 51 44.958 50.7558 45.3899 50.321C45.8219 49.8863 46.0645 49.2966 46.0645 48.6818C46.0645 48.067 45.8219 47.4774 45.3899 47.0426C44.958 46.6079 44.3721 46.3636 43.7613 46.3636H25.3355V41.7273H39.1548C40.9874 41.7273 42.7449 40.9946 44.0407 39.6903C45.3365 38.3861 46.0645 36.6172 46.0645 34.7727V25.5C46.0544 23.7844 45.4145 22.1332 44.268 20.8636C45.4145 19.5941 46.0544 17.9429 46.0645 16.2273V6.95455ZM41.4581 34.7727C41.4581 35.3875 41.2154 35.9772 40.7835 36.4119C40.3515 36.8467 39.7657 37.0909 39.1548 37.0909H6.90968C6.29882 37.0909 5.71299 36.8467 5.28105 36.4119C4.84911 35.9772 4.60645 35.3875 4.60645 34.7727V25.5C4.60645 24.8852 4.84911 24.2955 5.28105 23.8608C5.71299 23.4261 6.29882 23.1818 6.90968 23.1818H39.1548C39.7657 23.1818 40.3515 23.4261 40.7835 23.8608C41.2154 24.2955 41.4581 24.8852 41.4581 25.5V34.7727ZM41.4581 16.2273C41.4581 16.8421 41.2154 17.4317 40.7835 17.8665C40.3515 18.3012 39.7657 18.5455 39.1548 18.5455H6.90968C6.29882 18.5455 5.71299 18.3012 5.28105 17.8665C4.84911 17.4317 4.60645 16.8421 4.60645 16.2273V6.95455C4.60645 6.33973 4.84911 5.75009 5.28105 5.31534C5.71299 4.8806 6.29882 4.63636 6.90968 4.63636H39.1548C39.7657 4.63636 40.3515 4.8806 40.7835 5.31534C41.2154 5.75009 41.4581 6.33973 41.4581 6.95455V16.2273ZM20.729 9.27273C20.2735 9.27273 19.8282 9.40869 19.4494 9.66341C19.0707 9.91814 18.7755 10.2802 18.6011 10.7038C18.4268 11.1274 18.3812 11.5935 18.4701 12.0432C18.5589 12.4928 18.7783 12.9059 19.1004 13.2301C19.4225 13.5543 19.8329 13.7751 20.2797 13.8645C20.7265 13.954 21.1896 13.9081 21.6104 13.7326C22.0313 13.5572 22.391 13.26 22.6441 12.8788C22.8972 12.4976 23.0323 12.0494 23.0323 11.5909C23.0323 10.9761 22.7896 10.3865 22.3577 9.95171C21.9257 9.51696 21.3399 9.27273 20.729 9.27273ZM11.5161 9.27273C11.0606 9.27273 10.6153 9.40869 10.2365 9.66341C9.85776 9.91814 9.56255 10.2802 9.38823 10.7038C9.2139 11.1274 9.16829 11.5935 9.25716 12.0432C9.34603 12.4928 9.56539 12.9059 9.8875 13.2301C10.2096 13.5543 10.62 13.7751 11.0668 13.8645C11.5136 13.954 11.9767 13.9081 12.3975 13.7326C12.8184 13.5572 13.1781 13.26 13.4312 12.8788C13.6843 12.4976 13.8194 12.0494 13.8194 11.5909C13.8194 10.9761 13.5767 10.3865 13.1448 9.95171C12.7128 9.51696 12.127 9.27273 11.5161 9.27273Z" fill="#0C2244"/>
<path d="M6.91016 0.625H39.1553C40.8206 0.625115 42.4188 1.29106 43.5977 2.47754C44.7765 3.66413 45.4393 5.27435 45.4395 6.9541V16.2275C45.4292 17.7887 44.8461 19.2901 43.8037 20.4443L43.4258 20.8633L43.8037 21.2822C44.7819 22.3654 45.3553 23.7548 45.4307 25.2119L45.4395 25.5039V34.7725C45.4395 36.4524 44.7767 38.0633 43.5977 39.25C42.4188 40.4365 40.8206 41.1024 39.1553 41.1025H24.7109V46.9883H43.7617C44.2053 46.9884 44.6313 47.1664 44.9463 47.4834C45.2614 47.8006 45.4394 48.2313 45.4395 48.6816C45.4395 49.132 45.2615 49.5636 44.9463 49.8809C44.6314 50.1977 44.2052 50.3749 43.7617 50.375H2.30371C1.86005 50.375 1.43318 50.1978 1.11816 49.8809C0.802984 49.5636 0.625 49.132 0.625 48.6816C0.625046 48.2314 0.803051 47.8006 1.11816 47.4834C1.43321 47.1663 1.85993 46.9883 2.30371 46.9883H21.3545V41.1025H6.91016L6.59863 41.0947C5.04629 41.0173 3.57212 40.3625 2.4668 39.25C1.2878 38.0633 0.625 36.4524 0.625 34.7725V25.5039C0.634253 23.9413 1.21743 22.4375 2.26074 21.2822L2.63867 20.8633L2.26074 20.4443C1.28262 19.3613 0.709231 17.9726 0.633789 16.5156L0.625 16.2236V6.9541L0.632812 6.64062C0.709937 5.07512 1.36153 3.5901 2.4668 2.47754C3.57212 1.36504 5.04629 0.710231 6.59863 0.632812L6.91016 0.625ZM6.91016 22.5566C6.13237 22.5566 5.3867 22.8677 4.83789 23.4199C4.28919 23.9722 3.98145 24.7207 3.98145 25.5V34.7725C3.98145 35.5517 4.28919 36.3003 4.83789 36.8525C5.38671 37.4048 6.13231 37.7158 6.91016 37.7158H39.1553C39.933 37.7157 40.6778 37.4047 41.2266 36.8525C41.7753 36.3003 42.083 35.5517 42.083 34.7725V25.5C42.083 24.7207 41.7753 23.9722 41.2266 23.4199C40.6779 22.8678 39.9329 22.5568 39.1553 22.5566H6.91016ZM11.5166 28.4434C11.9601 28.4435 12.3863 28.6206 12.7012 28.9375C13.0164 29.2547 13.1943 29.6864 13.1943 30.1367C13.1943 30.4723 13.0949 30.7997 12.9102 31.0781C12.7253 31.3566 12.4633 31.5735 12.1572 31.7012C11.8511 31.8288 11.5142 31.8619 11.1895 31.7969C10.9053 31.74 10.6409 31.61 10.4219 31.4199L10.3311 31.335C10.0961 31.0985 9.93522 30.7969 9.87012 30.4678C9.80507 30.1386 9.8384 29.7971 9.96582 29.4873C10.0933 29.1776 10.3092 28.9131 10.585 28.7275C10.8608 28.542 11.1856 28.4434 11.5166 28.4434ZM20.7295 28.4434C21.173 28.4435 21.5991 28.6206 21.9141 28.9375C22.2292 29.2547 22.4072 29.6864 22.4072 30.1367C22.4072 30.4723 22.3078 30.7997 22.123 31.0781C21.9382 31.3566 21.6762 31.5735 21.3701 31.7012C21.064 31.8288 20.7271 31.8619 20.4023 31.7969C20.1182 31.74 19.8538 31.61 19.6348 31.4199L19.5439 31.335C19.309 31.0985 19.1481 30.7969 19.083 30.4678C19.018 30.1386 19.0513 29.7971 19.1787 29.4873C19.3062 29.1776 19.5221 28.9131 19.7979 28.7275C20.0737 28.542 20.3985 28.4434 20.7295 28.4434ZM6.62012 4.02539C5.9487 4.09242 5.3182 4.39158 4.83789 4.875C4.2893 5.42716 3.98156 6.17498 3.98145 6.9541V16.2275C3.98152 17.0067 4.2893 17.7545 4.83789 18.3066C5.38672 18.859 6.13223 19.1709 6.91016 19.1709H39.1553C39.933 19.1708 40.6778 18.8589 41.2266 18.3066C41.7752 17.7544 42.0829 17.0067 42.083 16.2275V6.9541C42.0829 6.17498 41.7752 5.42716 41.2266 4.875C40.6778 4.32274 39.933 4.01183 39.1553 4.01172H6.91016L6.62012 4.02539ZM11.5166 9.89746C11.9602 9.89759 12.3862 10.0756 12.7012 10.3926C13.0163 10.7098 13.1943 11.1405 13.1943 11.5908C13.1943 11.9266 13.0951 12.2547 12.9102 12.5332C12.7253 12.8115 12.4632 13.0276 12.1572 13.1553C11.8511 13.2829 11.5142 13.317 11.1895 13.252C10.8648 13.187 10.566 13.0264 10.3311 12.79C10.096 12.5535 9.93518 12.2511 9.87012 11.9219C9.80509 11.5927 9.83831 11.2512 9.96582 10.9414C10.0933 10.6316 10.3091 10.3672 10.585 10.1816C10.8608 9.99611 11.1856 9.89746 11.5166 9.89746ZM20.7295 9.89746C21.1731 9.89758 21.5991 10.0756 21.9141 10.3926C22.2292 10.7098 22.4072 11.1405 22.4072 11.5908C22.4072 11.9266 22.308 12.2547 22.123 12.5332C21.9382 12.8115 21.6761 13.0276 21.3701 13.1553C21.064 13.2829 20.7271 13.317 20.4023 13.252C20.0777 13.187 19.7789 13.0264 19.5439 12.79C19.3089 12.5535 19.1481 12.2511 19.083 11.9219C19.018 11.5927 19.0512 11.2512 19.1787 10.9414C19.3062 10.6316 19.522 10.3672 19.7979 10.1816C20.0737 9.99611 20.3985 9.89746 20.7295 9.89746Z" stroke="url(#paint0_radial_161_10423)" stroke-opacity="0.8" stroke-width="1.25"/>
<defs>
<radialGradient id="paint0_radial_161_10423" cx="0" cy="0" r="1" gradientUnits="userSpaceOnUse" gradientTransform="translate(23.0323 25.5) rotate(90) scale(25.5 23.0323)">
<stop stop-color="#E9F2F8"/>
<stop offset="1" stop-color="#C6DDEA"/>
</radialGradient>
</defs>
</svg>
