<svg width="71" height="70" viewBox="0 0 71 70" fill="none" xmlns="http://www.w3.org/2000/svg">
<rect width="70.8443" height="70" rx="15.2174" fill="#292732"/>
<path d="M39.9875 50.2674C38.559 51.1367 36.8758 51.4903 35.2183 51.2693C34.5376 51.1993 33.866 51.0582 33.2145 50.8485C32.5672 50.6461 31.9479 50.3634 31.371 50.0069C30.6576 49.6278 30.0331 49.1011 29.539 48.4619C29.045 47.8228 28.6926 47.0857 28.5055 46.2998C28.5055 45.7187 28.3452 45.1777 28.3452 44.5765C28.4423 43.0575 28.3752 41.5324 28.1448 40.0278C27.9767 39.1824 27.5577 38.4073 26.9425 37.8035C26.6579 37.5568 26.2971 37.4153 25.9206 37.4028C25.5097 37.4258 25.1011 37.4794 24.6982 37.5631H20.8108H19.1676C18.8236 37.0055 18.5221 36.4228 18.2659 35.8198C18.0395 35.2409 17.8912 34.6344 17.8251 34.0163C17.7651 33.544 17.7651 33.0659 17.8251 32.5936C17.8931 32.125 18.0211 31.667 18.2058 31.231C18.6364 29.8996 19.5329 28.7683 20.7306 28.0449C21.6374 27.5854 22.6397 27.3459 23.6562 27.3459C24.6728 27.3459 25.675 27.5854 26.5818 28.0449C27.6038 28.5058 33.495 31.6317 29.5675 37.1824C29.4693 37.3339 29.4353 37.5181 29.4728 37.6947C29.5104 37.8713 29.6165 38.0258 29.7679 38.1242C30.4415 38.7173 31.0403 39.3902 31.5513 40.128C32.0544 40.859 32.4712 41.6458 32.7937 42.4725C33.1108 43.3005 33.3653 44.1512 33.5552 45.0174C33.7596 45.7464 34.107 46.4276 34.5771 47.0212C35.026 47.5501 35.621 47.9349 36.2875 48.1274C36.954 48.3198 37.6625 48.3114 38.3243 48.1033C38.6303 48.0281 38.9314 47.9344 39.226 47.8227L40.0275 47.442C40.1196 47.3999 40.2025 47.3401 40.2715 47.2659C40.3405 47.1918 40.3942 47.1048 40.4296 47.0099C40.4649 46.915 40.4812 46.814 40.4776 46.7128C40.4739 46.6116 40.4504 46.5121 40.4083 46.42C40.3662 46.3279 40.3063 46.245 40.2322 46.176C40.158 46.1071 40.071 46.0534 39.9761 46.018C39.8812 45.9827 39.7803 45.9663 39.6791 45.97C39.5779 45.9737 39.4784 45.9972 39.3863 46.0393L38.0838 46.2998C37.7764 46.3544 37.4598 46.3191 37.1719 46.1983C36.884 46.0775 36.6371 45.8761 36.4607 45.6185C36.1788 45.0865 35.9891 44.5106 35.8996 43.9152C35.7163 43.1114 35.4406 42.3314 35.0781 41.5908C34.5224 40.6659 33.8488 39.8171 33.0742 39.066C32.5087 38.5548 31.8908 38.1047 31.2307 37.7234C31.2307 37.7234 31.391 37.7234 31.4511 37.5831C34.6973 32.9743 31.8719 28.085 27.6839 25.9809C26.6332 25.4161 25.479 25.0699 24.2909 24.9632C23.1027 24.8564 21.9053 24.9913 20.7707 25.3597C19.6554 25.7886 18.6587 26.478 17.864 27.3704C17.0692 28.2627 16.4994 29.3322 16.202 30.4896C16.0388 31.0914 15.9447 31.7099 15.9214 32.3331C15.8775 32.9644 15.9248 33.5988 16.0617 34.2167C16.2285 34.9685 16.4911 35.6959 16.8432 36.3808C17.0667 36.7892 17.3143 37.184 17.5846 37.5631C16.9143 37.5804 16.2453 37.6339 15.5808 37.7234C15.0058 37.7895 14.4407 37.9241 13.8976 38.1242C13.51 38.2695 13.1702 38.5191 12.9157 38.8455C12.5436 39.3604 12.2654 39.9371 12.0941 40.5488C11.8235 41.6938 11.6559 42.8606 11.5931 44.0355C11.2766 46.9538 11.3778 49.9024 11.8937 52.7922C12.2403 54.7714 13.0129 56.6517 14.158 58.3028C14.2663 58.449 14.4271 58.5475 14.6066 58.5774C14.786 58.6073 14.9701 58.5663 15.1199 58.4631C15.2648 58.3585 15.3628 58.2011 15.3928 58.025C15.4228 57.8488 15.3823 57.6679 15.2802 57.5213C14.3502 55.9989 13.7749 54.2867 13.597 52.5117C13.2876 49.7949 13.3753 47.0476 13.8575 44.3561C13.9777 43.6147 14.118 42.5927 14.3584 41.6709C14.4546 41.2537 14.6169 40.8546 14.8394 40.4887C14.659 40.1681 15.6409 40.3284 15.9415 40.2883C16.559 40.2018 17.1815 40.1549 17.805 40.148H20.8308C26.2812 39.9477 25.7803 39.5268 26.0408 41.0297C26.1913 42.1927 26.2716 43.3638 26.2812 44.5364C26.36 46.5317 26.6488 48.5131 27.1429 50.4477C27.6058 52.3644 28.2223 54.2407 28.9864 56.0585C29.0582 56.2498 29.203 56.4048 29.389 56.4893C29.575 56.5739 29.787 56.5811 29.9783 56.5093C30.1696 56.4376 30.3246 56.2928 30.4092 56.1068C30.4937 55.9207 30.5009 55.7088 30.4292 55.5174C29.9519 54.1123 29.5571 52.6805 29.2469 51.2292C29.4872 51.503 29.7485 51.7576 30.0284 51.9907C30.775 52.5559 31.6164 52.9834 32.5132 53.2531C33.3861 53.5373 34.3005 53.6727 35.2183 53.6539C37.3653 53.6452 39.434 52.8463 41.0295 51.4096C41.1108 51.3486 41.1792 51.2719 41.2304 51.1841C41.2817 51.0962 41.3149 50.999 41.3279 50.8981C41.341 50.7973 41.3337 50.6948 41.3066 50.5968C41.2794 50.4988 41.2329 50.4072 41.1697 50.3275C41.1008 50.2388 41.0135 50.166 40.9139 50.1141C40.8142 50.0621 40.7046 50.0323 40.5924 50.0266C40.4802 50.0209 40.368 50.0394 40.2636 50.081C40.1593 50.1226 40.0651 50.1861 39.9875 50.2674Z" fill="#46C1E3"/>
<path d="M39.7469 19.5286C39.913 19.408 40.0251 19.227 40.0588 19.0245C40.0926 18.822 40.0453 18.6144 39.9272 18.4465C39.8001 18.2831 39.6159 18.1737 39.4115 18.1403C39.2072 18.1068 38.9978 18.1518 38.8251 18.2661L33.7154 20.7108C33.0133 21.0671 32.3429 21.4828 31.7115 21.9532C31.417 22.215 31.2371 22.582 31.2106 22.9752C31.1826 23.1804 31.2005 23.3892 31.2629 23.5867C31.3252 23.7842 31.4305 23.9654 31.5713 24.1173C31.8318 24.4179 32.6333 25.0792 32.6934 25.1393L37.182 28.8264C37.3097 28.9536 37.4826 29.0251 37.6629 29.0251C37.8432 29.0251 38.0161 28.9536 38.1438 28.8264C38.2711 28.6986 38.3425 28.5257 38.3425 28.3454C38.3425 28.1651 38.2711 27.9922 38.1438 27.8645L34.4768 23.2757L34.2764 23.1555L35.0178 22.8349L39.7469 19.5286Z" fill="#46C1E3"/>
<path d="M45.6384 27.6441C45.5568 27.7019 45.4874 27.7753 45.4341 27.86C45.3809 27.9447 45.3449 28.0391 45.3281 28.1377C45.3114 28.2363 45.3142 28.3373 45.3365 28.4348C45.3588 28.5324 45.4001 28.6245 45.458 28.7061C45.5817 28.8681 45.7624 28.9769 45.9634 29.0104C46.1644 29.0439 46.3706 28.9996 46.5401 28.8864L51.6499 26.4418C52.3561 26.1007 53.0272 25.6913 53.6537 25.2194C53.9316 24.97 54.1096 24.6283 54.1547 24.2576C54.1824 24.0555 54.1644 23.8497 54.1019 23.6555C54.0395 23.4613 53.9343 23.2836 53.794 23.1354C53.4402 22.7732 53.0655 22.432 52.6718 22.1135L48.1832 18.4064C48.1216 18.337 48.0463 18.2809 47.9622 18.2417C47.8781 18.2024 47.7868 18.1807 47.694 18.178C47.6012 18.1752 47.5088 18.1915 47.4225 18.2258C47.3362 18.26 47.2579 18.3116 47.1922 18.3772C47.1266 18.4429 47.075 18.5213 47.0408 18.6075C47.0065 18.6938 46.9902 18.7862 46.993 18.879C46.9957 18.9718 47.0174 19.0631 47.0566 19.1472C47.0959 19.2313 47.152 19.3066 47.2214 19.3682L50.8884 23.8769L51.0888 24.0171C50.8339 24.1052 50.5861 24.2123 50.3474 24.3377L45.6384 27.6441Z" fill="#46C1E3"/>
<path d="M45.959 15.6812C45.8764 15.6458 45.7874 15.6275 45.6975 15.6277C45.6077 15.6278 45.5187 15.6462 45.4362 15.6818C45.3537 15.7175 45.2793 15.7695 45.2176 15.8349C45.1559 15.9002 45.1082 15.9775 45.0773 16.0619C44.3159 17.3644 43.5544 18.6268 42.9132 20.0696C42.6326 20.6507 42.4122 21.2518 42.1918 21.853C41.9714 22.4541 41.791 23.0553 41.6307 23.6765C41.25 25.1393 40.9895 26.582 40.7089 28.0649C40.6783 28.1622 40.6676 28.2647 40.6773 28.3663C40.6871 28.4678 40.7171 28.5664 40.7657 28.6561C40.8143 28.7458 40.8805 28.8249 40.9602 28.8885C41.04 28.9522 41.1317 28.9992 41.2299 29.0267C41.4266 29.083 41.6374 29.06 41.8172 28.9625C41.997 28.8651 42.1315 28.7011 42.1918 28.5057C42.7529 27.1431 43.374 25.8206 43.9351 24.498C44.1756 23.9169 44.416 23.3358 44.6365 22.7547C44.8602 22.1704 45.0541 21.5752 45.2176 20.9713C45.6384 19.5486 45.939 18.1259 46.3397 16.7031C46.3929 16.6131 46.4254 16.5124 46.4346 16.4083C46.4439 16.3041 46.4297 16.1993 46.3933 16.1013C46.3568 16.0033 46.2988 15.9148 46.2237 15.8421C46.1485 15.7694 46.0581 15.7144 45.959 15.6812Z" fill="#46C1E3"/>
<path d="M59.2043 20.9713C58.022 10.1907 60.8274 13.6573 50.8683 12.2346C47.7213 11.7733 44.5497 11.499 41.3702 11.413C39.7671 11.413 38.1841 11.413 36.601 11.5533C35.018 11.6936 33.3548 11.8939 31.8119 12.1344C30.2689 12.3749 28.8863 12.4751 27.3433 12.7155C23.4759 13.3768 23.3357 12.0743 23.1954 16.9636C23.1653 17.3973 23.1653 17.8325 23.1954 18.2661C23.2151 18.663 23.262 19.058 23.3357 19.4484C23.536 20.4503 23.8967 21.4522 24.0971 22.354C24.1043 22.4474 24.1307 22.5383 24.1747 22.621C24.2186 22.7038 24.2791 22.7766 24.3525 22.8349C24.4258 22.8932 24.5104 22.9357 24.6009 22.9599C24.6915 22.984 24.786 22.9892 24.8786 22.9751C24.9672 22.9726 25.0544 22.9523 25.135 22.9154C25.2157 22.8785 25.288 22.8258 25.3478 22.7603C25.4077 22.6949 25.4537 22.6181 25.4833 22.5345C25.5128 22.451 25.5253 22.3623 25.5198 22.2738C25.7324 21.123 25.8531 19.9571 25.8805 18.7871C25.8666 18.114 25.7928 17.4434 25.6601 16.7833C25.5599 16.0619 25.3395 15.3606 25.3395 14.6392C26.107 14.4887 26.8834 14.3883 27.6639 14.3386C29.1468 14.2384 30.6296 14.2384 32.0724 14.1783C33.5151 14.1182 35.1783 14.0781 36.7413 14.0581C38.3043 14.038 39.8473 14.0581 41.3902 14.0581C44.4961 14.0581 47.5821 14.0581 50.708 14.2985C52.4113 14.4188 54.2147 14.2985 55.9581 14.2985H56.2386C56.3588 15.2403 56.4991 16.1821 56.5592 17.144C56.6193 18.1058 56.5592 19.1478 56.6795 20.27C56.7997 21.3921 56.7796 22.2738 56.8398 23.396C57.0602 26.6021 57.3006 29.7882 57.3808 32.8941C57.3963 33.0279 57.4522 33.1537 57.5411 33.2548C54.6284 33.6732 51.6788 33.774 48.7443 33.5554L45.0973 33.4352H42.6326C40.3913 33.4812 38.1555 33.6753 35.9398 34.0163C35.8417 34.0084 35.7432 34.0218 35.6508 34.0556C35.5584 34.0894 35.4745 34.1429 35.4047 34.2122C35.335 34.2816 35.2811 34.3652 35.2467 34.4573C35.2124 34.5495 35.1983 34.648 35.2057 34.7461C35.213 34.8442 35.2415 34.9395 35.2891 35.0255C35.3368 35.1116 35.4025 35.1863 35.4818 35.2445C35.5611 35.3027 35.652 35.3431 35.7483 35.3628C35.8447 35.3826 35.9442 35.3812 36.04 35.3588C37.5428 35.3588 39.0257 35.3588 40.4885 35.5993C40.3422 36.1126 40.2284 36.6346 40.1478 37.1623C40.118 37.5291 40.118 37.8976 40.1478 38.2644V39.3665C40.1478 40.2482 40.3683 41.0698 40.4484 41.9314C40.4316 42.1356 40.4957 42.3383 40.6269 42.4957C40.7581 42.6531 40.9459 42.7527 41.1497 42.773C41.2503 42.7841 41.3521 42.7744 41.4488 42.7447C41.5456 42.7149 41.6352 42.6656 41.7121 42.5999C41.7891 42.5342 41.8518 42.4535 41.8964 42.3626C41.9409 42.2718 41.9665 42.1728 41.9713 42.0717C42.2118 41.19 42.4322 40.3484 42.5925 39.4467C42.6231 39.0732 42.6231 38.6979 42.5925 38.3245C42.6324 37.9515 42.6324 37.5754 42.5925 37.2024C42.5232 36.7155 42.4228 36.2336 42.2919 35.7596L43.8349 35.8999C45.594 36.05 47.3597 36.1102 49.125 36.0802C52.1469 36.0509 55.1493 35.5922 58.0421 34.7176C58.1413 34.6964 58.2354 34.6555 58.3186 34.5973C58.4018 34.5392 58.4726 34.465 58.5268 34.3791C58.5809 34.2932 58.6173 34.1974 58.6339 34.0972C58.6504 33.9971 58.6468 33.8946 58.6232 33.7958C58.6232 33.6756 58.5029 33.6155 58.4428 33.5354C58.5752 33.4871 58.6899 33.4001 58.7721 33.2858C58.8543 33.1714 58.9002 33.0349 58.9037 32.8941C59.1241 30.5496 59.3846 28.125 59.4247 25.6803C59.4552 24.1075 59.3815 22.5344 59.2043 20.9713Z" fill="#46C1E3"/>
<path d="M56.4992 46.7206C56.3572 46.0352 55.9641 45.4277 55.3971 45.0173C54.9393 44.7315 54.4137 44.5724 53.8742 44.5565C53.0624 44.5686 52.2524 44.6355 51.4496 44.7568L44.2959 45.7588C44.2069 45.7685 44.1207 45.7962 44.0427 45.8403C43.9647 45.8843 43.8965 45.9437 43.8421 46.0149C43.7878 46.0861 43.7485 46.1676 43.7266 46.2545C43.7047 46.3414 43.7007 46.4318 43.7148 46.5202C43.7245 46.6093 43.7523 46.6954 43.7963 46.7734C43.8403 46.8514 43.8998 46.9196 43.971 46.974C44.0422 47.0283 44.1237 47.0676 44.2105 47.0895C44.2974 47.1114 44.3878 47.1154 44.4762 47.1013L51.7301 47.0212H53.213C54.9563 47.0212 53.9544 46.7807 54.1548 49.6061C54.3351 51.61 55.9181 51.61 52.2712 51.7302L44.5764 52.3113C44.3727 52.3217 44.1811 52.4113 44.0425 52.5611C43.904 52.7109 43.8295 52.9089 43.835 53.1128C43.8376 53.2146 43.8605 53.3148 43.9024 53.4076C43.9443 53.5003 44.0045 53.5837 44.0792 53.6528C44.1539 53.722 44.2417 53.7754 44.3375 53.81C44.4332 53.8446 44.5349 53.8596 44.6366 53.8542L52.2311 53.9745C53.13 54.0752 54.0373 54.0752 54.9363 53.9745C55.5284 53.8726 56.0783 53.6011 56.5193 53.193C56.8268 52.7832 56.989 52.2825 56.9802 51.7703C56.9431 50.9849 56.8628 50.2023 56.7397 49.4258C56.7384 48.5188 56.6579 47.6136 56.4992 46.7206Z" fill="#46C1E3"/>
</svg>
