<svg width="50" height="54" viewBox="0 0 50 54" fill="none" xmlns="http://www.w3.org/2000/svg">
<mask id="path-1-outside-1_443_432" maskUnits="userSpaceOnUse" x="0.571777" y="0.5" width="49" height="53" fill="black">
<rect fill="white" x="0.571777" y="0.5" width="49" height="53"/>
<path d="M23.4062 10.1062C17.0312 10.8234 11.6921 15.9234 10.8155 22.2984C10.0187 27.8766 12.4093 33.2156 17.0312 36.3234C18.3062 37.2 19.1827 39.5906 19.1827 41.4234C19.1827 41.5828 19.1827 46.6828 19.1827 46.6031C19.1827 47.0812 19.5015 47.4 19.9796 47.4H20.6171V48.7547C20.6171 50.8266 22.2905 52.5 24.3624 52.5H25.7171C27.789 52.5 29.4624 50.8266 29.4624 48.7547V47.4H30.0999C30.578 47.4 30.8968 47.0812 30.8968 46.6031C30.8968 46.2844 30.8968 41.3438 30.8968 41.4234C30.8968 39.6703 31.7733 37.2 33.0483 36.3234C37.0327 33.6141 39.4233 29.1516 39.4233 24.3703C39.3437 16.0828 32.1718 9.07031 23.4062 10.1062ZM29.2233 42.3V45.7266H20.7765V42.3H29.2233ZM27.8687 48.7547C27.8687 49.95 26.9124 50.9062 25.7171 50.9062H24.3624C23.1671 50.9062 22.2108 49.95 22.2108 48.7547V47.4H27.8687V48.7547ZM32.0921 34.9688C30.4983 36.0047 29.4624 38.5547 29.303 40.7062H25.8765V30.825L28.2671 28.4344C28.4265 28.5141 28.6655 28.5141 28.8249 28.5938C28.9046 28.5938 28.9843 28.5938 28.9843 28.5938C30.1796 28.5938 31.2952 27.6375 31.3749 26.3625C31.4546 25.725 31.2155 25.0875 30.8171 24.6094C30.4187 24.1313 29.8608 23.8125 29.2233 23.8125C28.5858 23.7328 27.9483 23.9719 27.4702 24.3703C26.9921 24.7688 26.6733 25.3266 26.6733 25.9641C26.5937 26.4422 26.753 27 26.9921 27.3984L24.9999 29.3906L23.0874 27.4781C23.3265 27.1594 23.4858 26.7609 23.4858 26.3625C23.5655 25.0078 22.6093 23.8922 21.2546 23.8125C19.8999 23.7328 18.7843 24.6891 18.7046 26.0437C18.6249 27.3187 19.5812 28.5141 20.9358 28.5938C21.0155 28.5938 21.0952 28.5938 21.0952 28.5938C21.3343 28.5938 21.5733 28.5141 21.8124 28.5141L24.203 30.9047V40.7859H20.6968C20.5374 38.6344 19.5015 36.0844 17.9077 35.0484C13.764 32.2594 11.6921 27.4781 12.3296 22.5375C13.1265 16.8797 17.828 12.3375 23.5655 11.7C31.3749 10.8234 37.7499 16.9594 37.7499 24.3703C37.7499 28.6734 35.678 32.6578 32.0921 34.9688ZM28.2671 26.1234C28.2671 25.8844 28.3468 25.725 28.5062 25.5656C28.6655 25.4062 28.8249 25.4062 28.9843 25.4062H29.064C29.303 25.4062 29.4624 25.4859 29.6218 25.6453C29.7812 25.8047 29.8608 26.0438 29.7812 26.2031C29.7812 26.6812 29.3827 27 28.9046 26.9203C28.6655 26.9203 28.5062 26.8406 28.3468 26.6812C28.2671 26.5219 28.1874 26.2828 28.2671 26.1234ZM21.653 26.7609C21.4937 26.9203 21.2546 27 21.0952 26.9203C20.6171 26.9203 20.2983 26.5219 20.378 26.0437C20.378 25.8047 20.4577 25.6453 20.6171 25.4859C20.7765 25.3266 20.9358 25.3266 21.0952 25.3266H21.1749C21.5733 25.3266 21.9718 25.725 21.8921 26.2031C21.8921 26.4422 21.8124 26.6016 21.653 26.7609ZM24.9999 7.07812C25.478 7.07812 25.7968 6.75938 25.7968 6.28125V2.29688C25.7968 1.81875 25.478 1.5 24.9999 1.5C24.5218 1.5 24.203 1.81875 24.203 2.29688V6.28125C24.203 6.67969 24.5218 7.07812 24.9999 7.07812ZM40.4593 8.35313L37.6702 11.1422C37.3515 11.4609 37.3515 11.9391 37.6702 12.2578C37.989 12.5766 38.4671 12.5766 38.7858 12.2578L41.5749 9.46875C41.8937 9.15 41.8937 8.67188 41.5749 8.35313C41.2562 8.03438 40.778 8.03438 40.4593 8.35313ZM11.214 37.5984L8.4249 40.3875C8.10615 40.7062 8.10615 41.1844 8.4249 41.5031C8.74365 41.8219 9.22178 41.8219 9.54053 41.5031L12.3296 38.7141C12.6483 38.3953 12.6483 37.9172 12.3296 37.5984C12.0108 37.2797 11.5327 37.2797 11.214 37.5984ZM47.6312 24.1313H43.6468C43.1687 24.1313 42.8499 24.45 42.8499 24.9281C42.8499 25.4062 43.1687 25.725 43.6468 25.725H47.6312C48.1093 25.725 48.428 25.4062 48.428 24.9281C48.428 24.45 48.1093 24.1313 47.6312 24.1313ZM6.35303 24.1313H2.36865C1.89053 24.1313 1.57178 24.45 1.57178 24.9281C1.57178 25.4062 1.89053 25.725 2.36865 25.725H6.35303C6.83115 25.725 7.1499 25.4062 7.1499 24.9281C7.1499 24.45 6.75147 24.1313 6.35303 24.1313ZM38.7858 37.5984C38.4671 37.2797 37.989 37.2797 37.6702 37.5984C37.3515 37.9172 37.3515 38.3953 37.6702 38.7141L40.4593 41.5031C40.778 41.8219 41.2562 41.8219 41.5749 41.5031C41.8937 41.1844 41.8937 40.7062 41.5749 40.3875L38.7858 37.5984ZM11.214 12.3375C11.5327 12.6562 12.0108 12.6562 12.3296 12.3375C12.6483 12.0188 12.6483 11.5406 12.3296 11.2219L9.54053 8.43281C9.22178 8.11406 8.74365 8.11406 8.4249 8.43281C8.10615 8.75156 8.10615 9.22969 8.4249 9.54844L11.214 12.3375Z"/>
</mask>
<path d="M23.4062 10.1062C17.0312 10.8234 11.6921 15.9234 10.8155 22.2984C10.0187 27.8766 12.4093 33.2156 17.0312 36.3234C18.3062 37.2 19.1827 39.5906 19.1827 41.4234C19.1827 41.5828 19.1827 46.6828 19.1827 46.6031C19.1827 47.0812 19.5015 47.4 19.9796 47.4H20.6171V48.7547C20.6171 50.8266 22.2905 52.5 24.3624 52.5H25.7171C27.789 52.5 29.4624 50.8266 29.4624 48.7547V47.4H30.0999C30.578 47.4 30.8968 47.0812 30.8968 46.6031C30.8968 46.2844 30.8968 41.3438 30.8968 41.4234C30.8968 39.6703 31.7733 37.2 33.0483 36.3234C37.0327 33.6141 39.4233 29.1516 39.4233 24.3703C39.3437 16.0828 32.1718 9.07031 23.4062 10.1062ZM29.2233 42.3V45.7266H20.7765V42.3H29.2233ZM27.8687 48.7547C27.8687 49.95 26.9124 50.9062 25.7171 50.9062H24.3624C23.1671 50.9062 22.2108 49.95 22.2108 48.7547V47.4H27.8687V48.7547ZM32.0921 34.9688C30.4983 36.0047 29.4624 38.5547 29.303 40.7062H25.8765V30.825L28.2671 28.4344C28.4265 28.5141 28.6655 28.5141 28.8249 28.5938C28.9046 28.5938 28.9843 28.5938 28.9843 28.5938C30.1796 28.5938 31.2952 27.6375 31.3749 26.3625C31.4546 25.725 31.2155 25.0875 30.8171 24.6094C30.4187 24.1313 29.8608 23.8125 29.2233 23.8125C28.5858 23.7328 27.9483 23.9719 27.4702 24.3703C26.9921 24.7688 26.6733 25.3266 26.6733 25.9641C26.5937 26.4422 26.753 27 26.9921 27.3984L24.9999 29.3906L23.0874 27.4781C23.3265 27.1594 23.4858 26.7609 23.4858 26.3625C23.5655 25.0078 22.6093 23.8922 21.2546 23.8125C19.8999 23.7328 18.7843 24.6891 18.7046 26.0437C18.6249 27.3187 19.5812 28.5141 20.9358 28.5938C21.0155 28.5938 21.0952 28.5938 21.0952 28.5938C21.3343 28.5938 21.5733 28.5141 21.8124 28.5141L24.203 30.9047V40.7859H20.6968C20.5374 38.6344 19.5015 36.0844 17.9077 35.0484C13.764 32.2594 11.6921 27.4781 12.3296 22.5375C13.1265 16.8797 17.828 12.3375 23.5655 11.7C31.3749 10.8234 37.7499 16.9594 37.7499 24.3703C37.7499 28.6734 35.678 32.6578 32.0921 34.9688ZM28.2671 26.1234C28.2671 25.8844 28.3468 25.725 28.5062 25.5656C28.6655 25.4062 28.8249 25.4062 28.9843 25.4062H29.064C29.303 25.4062 29.4624 25.4859 29.6218 25.6453C29.7812 25.8047 29.8608 26.0438 29.7812 26.2031C29.7812 26.6812 29.3827 27 28.9046 26.9203C28.6655 26.9203 28.5062 26.8406 28.3468 26.6812C28.2671 26.5219 28.1874 26.2828 28.2671 26.1234ZM21.653 26.7609C21.4937 26.9203 21.2546 27 21.0952 26.9203C20.6171 26.9203 20.2983 26.5219 20.378 26.0437C20.378 25.8047 20.4577 25.6453 20.6171 25.4859C20.7765 25.3266 20.9358 25.3266 21.0952 25.3266H21.1749C21.5733 25.3266 21.9718 25.725 21.8921 26.2031C21.8921 26.4422 21.8124 26.6016 21.653 26.7609ZM24.9999 7.07812C25.478 7.07812 25.7968 6.75938 25.7968 6.28125V2.29688C25.7968 1.81875 25.478 1.5 24.9999 1.5C24.5218 1.5 24.203 1.81875 24.203 2.29688V6.28125C24.203 6.67969 24.5218 7.07812 24.9999 7.07812ZM40.4593 8.35313L37.6702 11.1422C37.3515 11.4609 37.3515 11.9391 37.6702 12.2578C37.989 12.5766 38.4671 12.5766 38.7858 12.2578L41.5749 9.46875C41.8937 9.15 41.8937 8.67188 41.5749 8.35313C41.2562 8.03438 40.778 8.03438 40.4593 8.35313ZM11.214 37.5984L8.4249 40.3875C8.10615 40.7062 8.10615 41.1844 8.4249 41.5031C8.74365 41.8219 9.22178 41.8219 9.54053 41.5031L12.3296 38.7141C12.6483 38.3953 12.6483 37.9172 12.3296 37.5984C12.0108 37.2797 11.5327 37.2797 11.214 37.5984ZM47.6312 24.1313H43.6468C43.1687 24.1313 42.8499 24.45 42.8499 24.9281C42.8499 25.4062 43.1687 25.725 43.6468 25.725H47.6312C48.1093 25.725 48.428 25.4062 48.428 24.9281C48.428 24.45 48.1093 24.1313 47.6312 24.1313ZM6.35303 24.1313H2.36865C1.89053 24.1313 1.57178 24.45 1.57178 24.9281C1.57178 25.4062 1.89053 25.725 2.36865 25.725H6.35303C6.83115 25.725 7.1499 25.4062 7.1499 24.9281C7.1499 24.45 6.75147 24.1313 6.35303 24.1313ZM38.7858 37.5984C38.4671 37.2797 37.989 37.2797 37.6702 37.5984C37.3515 37.9172 37.3515 38.3953 37.6702 38.7141L40.4593 41.5031C40.778 41.8219 41.2562 41.8219 41.5749 41.5031C41.8937 41.1844 41.8937 40.7062 41.5749 40.3875L38.7858 37.5984ZM11.214 12.3375C11.5327 12.6562 12.0108 12.6562 12.3296 12.3375C12.6483 12.0188 12.6483 11.5406 12.3296 11.2219L9.54053 8.43281C9.22178 8.11406 8.74365 8.11406 8.4249 8.43281C8.10615 8.75156 8.10615 9.22969 8.4249 9.54844L11.214 12.3375Z" fill="#292732"/>
<path d="M23.4062 10.1062C17.0312 10.8234 11.6921 15.9234 10.8155 22.2984C10.0187 27.8766 12.4093 33.2156 17.0312 36.3234C18.3062 37.2 19.1827 39.5906 19.1827 41.4234C19.1827 41.5828 19.1827 46.6828 19.1827 46.6031C19.1827 47.0812 19.5015 47.4 19.9796 47.4H20.6171V48.7547C20.6171 50.8266 22.2905 52.5 24.3624 52.5H25.7171C27.789 52.5 29.4624 50.8266 29.4624 48.7547V47.4H30.0999C30.578 47.4 30.8968 47.0812 30.8968 46.6031C30.8968 46.2844 30.8968 41.3438 30.8968 41.4234C30.8968 39.6703 31.7733 37.2 33.0483 36.3234C37.0327 33.6141 39.4233 29.1516 39.4233 24.3703C39.3437 16.0828 32.1718 9.07031 23.4062 10.1062ZM29.2233 42.3V45.7266H20.7765V42.3H29.2233ZM27.8687 48.7547C27.8687 49.95 26.9124 50.9062 25.7171 50.9062H24.3624C23.1671 50.9062 22.2108 49.95 22.2108 48.7547V47.4H27.8687V48.7547ZM32.0921 34.9688C30.4983 36.0047 29.4624 38.5547 29.303 40.7062H25.8765V30.825L28.2671 28.4344C28.4265 28.5141 28.6655 28.5141 28.8249 28.5938C28.9046 28.5938 28.9843 28.5938 28.9843 28.5938C30.1796 28.5938 31.2952 27.6375 31.3749 26.3625C31.4546 25.725 31.2155 25.0875 30.8171 24.6094C30.4187 24.1313 29.8608 23.8125 29.2233 23.8125C28.5858 23.7328 27.9483 23.9719 27.4702 24.3703C26.9921 24.7688 26.6733 25.3266 26.6733 25.9641C26.5937 26.4422 26.753 27 26.9921 27.3984L24.9999 29.3906L23.0874 27.4781C23.3265 27.1594 23.4858 26.7609 23.4858 26.3625C23.5655 25.0078 22.6093 23.8922 21.2546 23.8125C19.8999 23.7328 18.7843 24.6891 18.7046 26.0437C18.6249 27.3187 19.5812 28.5141 20.9358 28.5938C21.0155 28.5938 21.0952 28.5938 21.0952 28.5938C21.3343 28.5938 21.5733 28.5141 21.8124 28.5141L24.203 30.9047V40.7859H20.6968C20.5374 38.6344 19.5015 36.0844 17.9077 35.0484C13.764 32.2594 11.6921 27.4781 12.3296 22.5375C13.1265 16.8797 17.828 12.3375 23.5655 11.7C31.3749 10.8234 37.7499 16.9594 37.7499 24.3703C37.7499 28.6734 35.678 32.6578 32.0921 34.9688ZM28.2671 26.1234C28.2671 25.8844 28.3468 25.725 28.5062 25.5656C28.6655 25.4062 28.8249 25.4062 28.9843 25.4062H29.064C29.303 25.4062 29.4624 25.4859 29.6218 25.6453C29.7812 25.8047 29.8608 26.0438 29.7812 26.2031C29.7812 26.6812 29.3827 27 28.9046 26.9203C28.6655 26.9203 28.5062 26.8406 28.3468 26.6812C28.2671 26.5219 28.1874 26.2828 28.2671 26.1234ZM21.653 26.7609C21.4937 26.9203 21.2546 27 21.0952 26.9203C20.6171 26.9203 20.2983 26.5219 20.378 26.0437C20.378 25.8047 20.4577 25.6453 20.6171 25.4859C20.7765 25.3266 20.9358 25.3266 21.0952 25.3266H21.1749C21.5733 25.3266 21.9718 25.725 21.8921 26.2031C21.8921 26.4422 21.8124 26.6016 21.653 26.7609ZM24.9999 7.07812C25.478 7.07812 25.7968 6.75938 25.7968 6.28125V2.29688C25.7968 1.81875 25.478 1.5 24.9999 1.5C24.5218 1.5 24.203 1.81875 24.203 2.29688V6.28125C24.203 6.67969 24.5218 7.07812 24.9999 7.07812ZM40.4593 8.35313L37.6702 11.1422C37.3515 11.4609 37.3515 11.9391 37.6702 12.2578C37.989 12.5766 38.4671 12.5766 38.7858 12.2578L41.5749 9.46875C41.8937 9.15 41.8937 8.67188 41.5749 8.35313C41.2562 8.03438 40.778 8.03438 40.4593 8.35313ZM11.214 37.5984L8.4249 40.3875C8.10615 40.7062 8.10615 41.1844 8.4249 41.5031C8.74365 41.8219 9.22178 41.8219 9.54053 41.5031L12.3296 38.7141C12.6483 38.3953 12.6483 37.9172 12.3296 37.5984C12.0108 37.2797 11.5327 37.2797 11.214 37.5984ZM47.6312 24.1313H43.6468C43.1687 24.1313 42.8499 24.45 42.8499 24.9281C42.8499 25.4062 43.1687 25.725 43.6468 25.725H47.6312C48.1093 25.725 48.428 25.4062 48.428 24.9281C48.428 24.45 48.1093 24.1313 47.6312 24.1313ZM6.35303 24.1313H2.36865C1.89053 24.1313 1.57178 24.45 1.57178 24.9281C1.57178 25.4062 1.89053 25.725 2.36865 25.725H6.35303C6.83115 25.725 7.1499 25.4062 7.1499 24.9281C7.1499 24.45 6.75147 24.1313 6.35303 24.1313ZM38.7858 37.5984C38.4671 37.2797 37.989 37.2797 37.6702 37.5984C37.3515 37.9172 37.3515 38.3953 37.6702 38.7141L40.4593 41.5031C40.778 41.8219 41.2562 41.8219 41.5749 41.5031C41.8937 41.1844 41.8937 40.7062 41.5749 40.3875L38.7858 37.5984ZM11.214 12.3375C11.5327 12.6562 12.0108 12.6562 12.3296 12.3375C12.6483 12.0188 12.6483 11.5406 12.3296 11.2219L9.54053 8.43281C9.22178 8.11406 8.74365 8.11406 8.4249 8.43281C8.10615 8.75156 8.10615 9.22969 8.4249 9.54844L11.214 12.3375Z" stroke="#40BCF2" stroke-width="2" mask="url(#path-1-outside-1_443_432)"/>
</svg>
