<svg width="379" height="787" viewBox="0 0 379 787" fill="none" xmlns="http://www.w3.org/2000/svg">
<g filter="url(#filter0_d_437_3450)">
<path d="M62 381.5C61.1949 373.449 64.3013 365 65 361C65.4986 358.145 65.5 356.5 64.4804 351C63.6667 346.611 63 345.5 60.5 342C55.6773 335.248 48.8267 335.52 43.6949 329C39.1365 323.209 37.2805 323.064 35.5 312C33.7194 300.936 36.3053 292.924 43.6949 284.5C48.7978 278.682 54.2755 278.598 60.5 274C66.7351 269.394 71.3625 267.555 75.5 261C80.2069 253.543 80.975 247.81 80.5919 239C80.1376 228.553 76.7962 222.704 71 214C63.3412 202.5 53.3648 199.014 43.6949 191.5C34.1541 184.086 29.7608 178.514 23 168.5C16.3058 158.584 12.956 152.454 9.49997 141C6.19743 130.055 5.28815 123.43 5.49997 112C5.68673 101.921 6.50059 96.1235 9.49997 86.4999C12.9559 75.4116 16.2016 69.4167 23 59.9999C29.7396 50.6644 35.139 46.705 43.6949 38.9999C139.837 -47.5826 375 38.9999 375 38.9999L375.897 321.693V730.049V772.1C375.897 775.031 348.836 780.893 343.899 761.352C338.037 738.148 320.939 746.453 315.566 726.912C310.192 707.372 292.963 696.823 280.881 692.228C271.981 688.843 250.838 688.32 232.763 702.975C219.186 713.984 202.622 713.135 193.927 711.524C185.231 709.914 177.073 703.22 164.372 688.32C147.503 668.532 122.293 668.535 116.834 668.535H116.742C81.8132 668.535 65.6923 663.895 50.5485 645.82C35.4046 627.745 44.9307 607.227 50.5485 599.655C56.1664 592.083 65.6763 580.859 77.1574 575.718C107.704 562.04 91.0949 558.132 91.0949 558.132C91.0949 558.132 80.5919 542.744 80.5919 537.37C80.5919 508.497 99.2168 514.421 104.285 485.1C107.704 465.315 115.032 467.513 111.612 450.171C108.494 434.355 91.1859 420.605 82 412.5C78.7086 409.596 72.9285 406.524 69 401C64.3105 394.407 62.8051 389.551 62 381.5Z" fill="url(#paint0_radial_437_3450)"/>
</g>
<circle cx="342.678" cy="647.53" r="36.1498" fill="url(#paint1_linear_437_3450)"/>
<g filter="url(#filter1_f_437_3450)">
<path fill-rule="evenodd" clip-rule="evenodd" d="M75.3152 360.522C80.0857 364.324 86.854 365.137 92.5575 362.051C100.174 357.93 103.008 348.415 98.8865 340.798C96.1805 335.797 91.1488 332.858 85.8561 332.596C87.4562 333.871 88.8316 335.483 89.8667 337.396C93.9878 345.012 91.1541 354.528 83.5376 358.649C80.9222 360.064 78.083 360.659 75.3152 360.522Z" fill="url(#paint2_linear_437_3450)" fill-opacity="0.2"/>
</g>
<g filter="url(#filter2_d_437_3450)">
<path fill-rule="evenodd" clip-rule="evenodd" d="M79.8268 360.087C78.445 360.428 77.9117 362.272 79.2321 362.804C83.4129 364.486 88.284 364.364 92.5574 362.051C100.174 357.93 103.008 348.415 98.8864 340.798C96.9578 337.234 93.8476 334.717 90.3036 333.47C88.9609 332.998 88.1405 334.737 88.9515 335.907C89.28 336.38 89.5858 336.877 89.8666 337.396C93.9877 345.012 91.154 354.528 83.5375 358.649C82.3382 359.298 81.0918 359.774 79.8268 360.087Z" fill="url(#paint3_linear_437_3450)" shape-rendering="crispEdges"/>
</g>
<g filter="url(#filter3_bf_437_3450)">
<ellipse cx="84.2543" cy="362.521" rx="12.859" ry="7.56466" transform="rotate(-1.7472 84.2543 362.521)" fill="#1D1A25" fill-opacity="0.25"/>
</g>
<mask id="mask0_437_3450" style="mask-type:alpha" maskUnits="userSpaceOnUse" x="34" y="321" width="342" height="455">
<path d="M43.6012 376.922C36.1929 368.45 26.6702 345.544 47.8465 321.693H211.636H375.803V730.049V772.1C375.803 775.031 348.742 780.893 343.806 761.353C337.944 738.148 320.846 746.453 315.472 726.913C310.098 707.372 292.869 696.823 280.788 692.228C271.887 688.843 250.744 688.32 232.669 702.975C219.092 713.984 202.529 713.135 193.833 711.524C185.137 709.914 176.979 703.22 164.278 688.32C147.409 668.532 122.2 668.535 116.74 668.535H116.648C81.7195 668.535 65.5987 663.895 50.4548 645.82C35.311 627.745 44.837 607.227 50.4549 599.655C56.0727 592.083 65.5826 580.859 77.0638 575.718C107.611 562.04 91.0013 558.132 91.0013 558.132C91.0013 558.132 80.4983 542.744 80.4983 537.37C80.4983 508.497 99.1232 514.421 104.191 485.1C107.611 465.315 114.938 467.513 111.519 450.171C108.4 434.355 85.3834 420.316 77.0638 411.324C70.372 404.091 65.9548 398.113 58.2966 391.552L43.6012 376.922Z" fill="url(#paint4_radial_437_3450)"/>
</mask>
<g mask="url(#mask0_437_3450)">
<path d="M269.357 681.408H272.446V690.499H269.357H266.165V690.332H257.205V669.15H259.706L261.61 672.582H266.165V675.145L269.357 678.745V681.408H269.357ZM225.859 674.792L225.042 673.022L224.467 671.778V668.527H223.982V671.778L223.407 673.022L222.59 674.792V676.71H221.873V682.539H217.318L215.414 679.107H212.913V669.149H210.412L208.508 672.582H203.953V684.307H203.933V682.388L203.116 680.618L202.541 679.374V676.123H202.055V679.374L201.481 680.618L201.216 681.192V676.514H192.292V679.456H186.147V674.236H180.002V669.867H171.078V673.988H169.828V669.457H167.013V665.726H165.313V669.457H162.499V673.989H161.248V681.917H155.021V679.527L147.202 676.803V672.642H145.324V670.306L143.184 668.15L141.679 666.634V662.674H140.408V666.634L138.903 668.15L136.763 670.306V672.642H134.885V674.018H131.5V669.649H122.623V678.74L113.99 678.755L109.999 676.547L104.773 676.556L104.85 690.227C104.926 690.143 188.606 690.232 199.946 690.216V698.551H204.649V690.332H212.913V700.289H221.872V690.954H226.576V676.71H225.859V674.792H225.859ZM248.522 669.15H246.02V679.421H245.633V676.124H242.516V676.711H241.798V674.792L240.981 673.022L240.406 671.778V668.527H239.921V671.778L239.346 673.022L238.529 674.792V676.711H237.812V690.954H242.516V691.478H244.867H245.633H247.779V690.332H254.98V672.582H250.425L248.522 669.15ZM367.118 676.514V679.456H360.973V674.236H354.828V669.867H345.904V673.988H344.655V669.457H341.84V665.727H340.139V669.457H337.326V673.988H336.075V681.917H329.848V679.527L322.029 676.802V672.642H320.152V670.306L318.01 668.15L316.506 666.635V662.673H315.235V666.635L313.731 668.15L311.589 670.306V672.642H309.712V674.017H306.327V669.648H297.45V678.74L288.816 678.756L284.827 676.548L279.6 676.556L279.612 678.673V678.673H278.207V676.243H277.699V672.261H276.556V668.982H275.865V672.261H274.722V676.243H274.214V690.499H278.207V694.028H280.559H281.324H283.471V690.203C300.859 690.162 372.249 690.237 375.897 690.213V676.514H367.118V676.514Z" fill="#9E533A"/>
<path d="M375.897 688.076V770.146H104.833V743.088C104.815 743.082 104.797 743.076 104.779 743.07V738.682H104.773V736.417H104.779C104.797 736.415 104.815 736.415 104.833 736.413V715.261C104.815 715.261 104.797 715.259 104.779 715.259V711.386H104.833V708.519H104.779V705.065H104.833V701.954H104.779V700.803C104.797 700.803 104.815 700.802 104.833 700.802V695.651H104.779V694.504C104.797 694.504 104.815 694.504 104.833 694.502V689.822C104.815 689.822 104.797 689.82 104.779 689.82V689.598C104.797 689.598 104.815 689.598 104.833 689.6V688.076H375.897Z" fill="url(#paint5_radial_437_3450)"/>
<path d="M375.897 729.946V732.168C336.607 730.507 287.13 731.367 240.704 732.396C182.415 733.684 128.929 735.238 106.429 732.394C105.878 732.326 105.346 732.252 104.833 732.178C104.815 732.176 104.797 732.172 104.779 732.17H104.773V729.948H104.779C104.797 729.946 104.815 729.946 104.833 729.944C171.344 725.922 267.328 719.388 375.897 729.946Z" fill="#333333"/>
<path d="M375.897 729.115V738.715C286.058 730.255 142.977 751.164 104.827 738.733C104.809 738.727 104.791 738.721 104.773 738.715V734.063C104.791 734.069 104.809 734.075 104.827 734.081C105.34 734.247 105.873 734.408 106.423 734.562C128.92 740.897 182.407 737.438 240.694 734.564C287.121 732.276 336.594 730.358 375.883 734.057V729.111C375.887 729.113 375.893 729.113 375.897 729.115Z" fill="#333333"/>
<path d="M316.786 712.276C317.035 712.692 268.196 713.996 208.901 714.53C200.911 715.873 165.4 715.271 157.53 718.417C148.648 721.968 195.442 719.581 195.39 722.925C195.364 724.585 110.812 725.326 111.491 720.954C112.108 716.975 142.182 716.973 130.264 715.091C127.749 714.695 125.834 714.35 124.468 714.053C118.272 713.889 111.694 713.686 104.827 713.435C104.809 713.435 104.791 713.433 104.773 713.433V709.57H104.827C129.684 709.77 161.49 709.996 199.08 710.012C231.278 710.026 261.274 709.883 261.505 710.369C261.791 710.977 215.402 711.894 215.666 712.395C216.057 713.13 316.432 711.678 316.786 712.276Z" fill="#333333"/>
<path d="M290.407 693.012C290.528 693.49 154.742 694.192 104.827 693.846H104.773V692.753C104.791 692.753 104.809 692.753 104.827 692.751C124.385 692.263 152.786 691.64 152.922 690.678C153.069 689.636 119.916 688.744 104.827 688.29C104.809 688.29 104.791 688.288 104.773 688.288V688.076C104.791 688.076 104.809 688.076 104.827 688.078C114.109 688.258 131.036 688.64 148.554 688.852C206.1 689.557 250.661 688.201 251.551 688.493C252.751 688.885 169.31 690.428 170.624 691.532C172.172 692.831 290.294 692.569 290.407 693.012Z" fill="#333333"/>
<path d="M225.924 690.716C225.937 690.961 257.922 691.304 287.016 691.283C317.228 691.263 331.253 690.86 332.032 691.359C333.89 692.55 256.749 696.513 257.389 696.845C258.166 697.248 374.37 692.585 372.454 690.602C370.345 688.421 225.895 690.195 225.924 690.716Z" fill="#333333"/>
<path d="M258.162 701.717C257.659 702.066 209.295 699.862 152.745 699.936C133.744 699.96 116.441 700.24 104.827 700.389H104.773V699.197C104.791 699.197 104.809 699.195 104.827 699.195C106.862 699.085 108.917 698.985 110.855 698.888C164.501 696.23 240.738 693.712 244.813 695.536C246.868 696.454 228.581 697.591 230.771 699.203C233.216 701 258.52 701.467 258.162 701.717Z" fill="#333333"/>
<path d="M375.897 698.936V700.976C362.418 702.512 349.067 702.881 347.532 702.919C322.068 703.573 250.453 704.17 250.35 703.192C250.229 702.033 350.79 701.515 350.749 700.034C350.717 698.894 285.835 698.551 285.96 698.006C286.036 697.676 352.841 697.797 375.897 698.936Z" fill="#333333"/>
<path d="M294.312 706.447C293.943 706.912 260.876 705.483 204.879 705.812C183.082 705.941 144.08 706.416 104.827 706.639H104.773V703.197H104.827C127.228 702.817 152.356 702.619 177.981 702.797C240.649 703.237 294.785 705.851 294.312 706.447Z" fill="#333333"/>
<path d="M375.897 706.368V726.668C354.062 726.084 292.579 724.329 292.996 723.112C293.503 721.634 349.569 722.886 349.414 721.634C349.259 720.383 262.473 719.587 262.94 717.681C263.407 715.778 313.488 718.45 343.504 716.174C357.403 715.122 359.43 713.451 357.6 711.96C290.31 707.487 220.374 707.968 221.044 707.234C221.924 706.269 339.541 709.128 341.3 707.394C341.988 706.717 324.515 705.795 325.205 705.352C325.918 704.893 345.38 705.351 375.897 706.368Z" fill="#333333"/>
<path d="M363.125 719.994V717.875L360.798 715.433L358.663 717.776V719.994H335.927V717.875L333.601 715.433L331.466 717.776V719.994H308.73V717.875L306.404 715.433L304.269 717.776V719.994H281.533V717.875L279.207 715.433L277.072 717.776V719.994H254.336V717.875L252.009 715.433L249.875 717.776V719.994H227.139V717.875L224.812 715.433L222.677 717.776V719.994H199.942V717.875L197.615 715.433L195.48 717.776V719.994H172.744V717.875L170.418 715.433L168.283 717.776V719.994H145.547V717.875L143.221 715.433L141.086 717.776V719.994H118.35V717.875L116.024 715.433L113.889 717.776V719.994H104.785V720.119V720.902V723.755H113.889V735.43H104.785V735.555V736.338V739.191H113.889V741.552H104.773V744.797V746.42V749.192V756.369V775.031H116.291H118.041H134.432H136.184H152.252H154.003H170.395H172.146H188.216H189.967H206.359H208.108H224.18H225.929H242.321H244.072H260.142H261.891H278.283H280.034H296.106H297.855H314.247H315.998H332.068H333.817H350.211H351.96H368.03H369.781H375.885V750.005V746.42V744.797V741.552H363.125V739.191H375.897V736.338V735.555V735.43H363.125V723.755H375.897V720.902V720.119V719.994H363.125ZM308.73 735.43V723.755H331.466V735.43H308.73ZM304.269 735.43H281.533V723.755H304.269V735.43ZM277.072 735.43H254.336V723.755H277.072V735.43ZM249.875 735.43H227.139V723.755H249.875V735.43ZM222.678 735.43H199.942V723.755H222.678V735.43ZM195.48 735.43H172.744V723.755H195.48V735.43ZM168.283 735.43H145.547V723.755H168.283V735.43ZM145.547 739.191H168.283V741.552H145.547V739.191ZM172.744 739.191H195.48V741.552H172.744V739.191ZM199.942 739.191H222.678V741.552H199.942V739.191ZM227.139 739.191H249.875V741.552H227.139V739.191ZM254.336 739.191H277.072V741.552H254.336V739.191ZM281.533 739.191H304.269V741.552H281.533V739.191ZM308.73 739.191H331.466V741.552H308.73V739.191ZM141.086 723.755V735.43H118.35V723.755H141.086ZM141.086 739.191V741.552H118.35V739.191H141.086ZM335.928 741.552V739.191H358.663V741.552H335.928ZM335.928 735.43V723.755H358.663V735.43H335.928Z" fill="#3A201F"/>
<path d="M237.648 637.378C236.799 637.106 235.785 637.379 235.236 637.872C234.417 637.608 233.332 637.687 232.763 638.197C233.541 638.026 234.327 638.084 235.009 638.341L234.747 638.736L236.254 638.484L235.782 638.213C236.213 637.779 236.855 637.47 237.648 637.378Z" fill="#3D3459"/>
<path d="M293.827 614.382C292.978 614.201 291.963 614.383 291.415 614.712C290.596 614.535 289.51 614.588 288.942 614.928C289.72 614.814 290.505 614.853 291.188 615.024L290.925 615.288L292.433 615.119L291.961 614.939C292.391 614.65 293.034 614.444 293.827 614.382Z" fill="#3D3459"/>
<path d="M296.269 642.325C295.599 641.68 294.54 641.441 293.819 641.618C293.173 640.994 292.131 640.549 291.384 640.732C292.18 640.95 292.883 641.374 293.406 641.927L292.992 642.153L294.5 642.644L294.179 642.18C294.765 641.999 295.493 642.03 296.269 642.325Z" fill="#3D3459"/>
<path d="M198.567 656.43C197.718 656.158 196.704 656.431 196.155 656.924C195.336 656.659 194.251 656.738 193.682 657.249C194.46 657.078 195.246 657.136 195.928 657.393L195.665 657.788L197.173 657.535L196.701 657.265C197.132 656.831 197.774 656.522 198.567 656.43Z" fill="#3D3459"/>
<path d="M167.303 614.907C166.453 614.635 165.439 614.908 164.891 615.401C164.071 615.136 162.986 615.215 162.417 615.726C163.195 615.555 163.981 615.613 164.663 615.87L164.401 616.265L165.908 616.012L165.436 615.741C165.867 615.308 166.509 614.999 167.303 614.907Z" fill="#3D3459"/>
<path d="M258.654 660.374C257.211 660.012 255.486 660.375 254.554 661.033C253.161 660.68 251.316 660.785 250.35 661.466C251.672 661.238 253.007 661.316 254.168 661.658L253.722 662.185L256.285 661.848L255.482 661.487C256.214 660.909 257.305 660.497 258.654 660.374Z" fill="#3D3459"/>
<path d="M201.499 625.403C200.464 624.541 198.638 624.486 197.31 625.023C196.314 624.186 194.57 623.781 193.194 624.336C194.556 624.439 195.704 624.921 196.497 625.678L195.704 626.194L198.267 626.523L197.81 625.849C198.9 625.351 200.19 625.162 201.499 625.403Z" fill="#3D3459"/>
<path d="M251.327 610.648C249.943 610.106 248.204 610.516 247.213 611.35C245.879 610.822 244.049 610.884 243.022 611.748C244.35 611.501 245.658 611.66 246.764 612.164L246.267 612.845L248.83 612.506L248.078 611.993C248.863 611.256 249.984 610.754 251.327 610.648Z" fill="#3D3459"/>
<path d="M246.412 702.157H237.991V704.634H243.663V704.755H243.542H238.024C238.134 704.782 238.247 704.807 238.364 704.832C238.443 704.849 238.524 704.865 238.606 704.88C238.671 704.893 238.737 704.905 238.804 704.916C238.888 704.931 238.974 704.945 239.061 704.958C239.061 704.958 239.366 705.003 239.669 705.033C240.282 705.093 241.704 705.034 243.542 704.755C243.028 705.753 242.47 706.551 242.01 707.138C242.01 707.138 240.117 709.408 238.001 710.751C237.998 710.755 237.995 710.759 237.992 710.762V710.769C238.048 710.794 238.086 710.839 238.086 710.892C238.086 710.972 238.001 711.036 237.895 711.036C237.79 711.036 237.705 710.972 237.705 710.892C237.705 710.84 237.743 710.794 237.799 710.769V710.733C235.928 709.724 234.632 708.71 233.793 707.965C232.69 706.985 231.956 706.097 230.969 704.904C230.147 703.957 229.458 703.032 228.88 702.157C228.923 702.168 228.967 702.178 229.011 702.188C229.521 702.306 230.194 702.436 230.995 702.52C231.49 702.571 231.955 702.597 232.384 702.604C232.748 702.609 233.28 702.604 234.031 702.573C234.969 702.534 236.256 702.453 237.799 702.27C237.673 706.729 237.627 709.992 237.694 710.217C237.71 710.27 237.727 710.319 237.742 710.365C237.762 710.422 237.781 710.473 237.799 710.519V702.157L228.88 702.157L227.39 702.157C227.39 702.067 227.753 701.327 228.117 701.29C228.117 701.29 228.118 701.29 228.118 701.29C228.264 701.071 228.425 700.858 228.596 700.653C228.633 700.61 228.669 700.567 228.706 700.525C228.881 700.324 229.065 700.132 229.255 699.949C229.3 699.905 229.345 699.863 229.39 699.821C229.611 699.615 229.837 699.423 230.064 699.245C230.118 699.201 230.174 699.158 230.23 699.116C230.519 698.898 230.804 698.705 231.074 698.541C231.148 698.496 231.221 698.453 231.292 698.412C231.691 698.185 232.045 698.03 232.306 697.962C233.348 697.69 243.643 697.982 244.753 697.984C245.001 697.985 245.205 698.15 245.373 698.412C245.399 698.452 245.425 698.496 245.449 698.541C245.54 698.708 245.619 698.904 245.688 699.116C245.702 699.158 245.715 699.201 245.728 699.245C245.784 699.43 245.832 699.624 245.873 699.821C245.883 699.863 245.891 699.906 245.9 699.949C245.939 700.144 245.972 700.338 245.999 700.525C246.006 700.568 246.012 700.611 246.017 700.653C246.05 700.885 246.074 701.102 246.093 701.289C246.128 701.289 246.149 701.289 246.154 701.29C246.57 701.306 246.412 702.157 246.412 702.157ZM237.992 704.765V710.715C238.007 710.665 238.023 710.614 238.039 710.563C238.067 710.47 238.094 710.376 238.12 710.28C238.134 710.226 238.148 710.173 238.161 710.119C238.186 710.021 238.209 709.921 238.232 709.819C238.258 709.698 238.282 709.576 238.305 709.451C238.429 708.752 238.468 708.086 238.449 707.463C238.416 706.434 238.224 705.521 237.992 704.765Z" fill="#DBB691"/>
<path d="M246.412 693.234H237.991V690.024H243.663V689.866H243.542H238.024C238.134 689.832 238.247 689.799 238.364 689.766C238.443 689.745 238.524 689.724 238.606 689.704C238.671 689.688 238.737 689.672 238.804 689.657C238.888 689.639 238.974 689.621 239.061 689.603C239.061 689.603 239.366 689.544 239.669 689.506C240.282 689.428 241.704 689.504 243.542 689.866C243.029 688.574 242.47 687.538 242.01 686.777C242.01 686.777 240.117 683.835 238.001 682.094C237.998 682.089 237.995 682.084 237.992 682.079V682.071C238.048 682.038 238.086 681.979 238.086 681.911C238.086 681.808 238.001 681.725 237.895 681.725C237.79 681.725 237.705 681.808 237.705 681.911C237.705 681.98 237.743 682.039 237.799 682.071V682.117C235.928 683.426 234.633 684.74 233.794 685.706C232.691 686.975 231.956 688.127 230.969 689.673C230.147 690.901 229.458 692.099 228.88 693.234C228.923 693.22 228.967 693.207 229.011 693.194C229.522 693.041 230.194 692.873 230.995 692.763C231.49 692.697 231.955 692.664 232.384 692.654C232.749 692.648 233.281 692.654 234.031 692.695C234.97 692.745 236.256 692.85 237.799 693.087C237.673 687.307 237.627 683.077 237.694 682.786C237.71 682.717 237.727 682.653 237.742 682.595C237.762 682.52 237.781 682.454 237.799 682.395V693.234H228.88H227.39C227.39 693.351 227.753 694.31 228.117 694.359C228.117 694.359 228.118 694.359 228.118 694.359C228.264 694.643 228.425 694.918 228.596 695.184C228.633 695.24 228.669 695.295 228.706 695.35C228.881 695.61 229.065 695.859 229.255 696.097C229.3 696.153 229.345 696.208 229.39 696.263C229.611 696.529 229.837 696.779 230.064 697.01C230.118 697.066 230.174 697.122 230.23 697.176C230.519 697.459 230.804 697.709 231.074 697.922C231.148 697.981 231.22 698.036 231.292 698.089C231.691 698.383 232.045 698.584 232.306 698.673C233.348 699.025 243.643 698.647 244.753 698.644C245 698.643 245.205 698.429 245.373 698.089C245.399 698.037 245.424 697.981 245.449 697.922C245.539 697.706 245.619 697.451 245.688 697.176C245.702 697.122 245.715 697.066 245.728 697.01C245.784 696.77 245.832 696.518 245.873 696.263C245.882 696.208 245.891 696.152 245.9 696.097C245.939 695.845 245.972 695.593 245.999 695.35C246.005 695.294 246.012 695.239 246.017 695.184C246.05 694.883 246.074 694.602 246.092 694.36C246.128 694.36 246.149 694.359 246.154 694.359C246.57 694.338 246.412 693.234 246.412 693.234ZM237.992 689.853V682.141C238.008 682.206 238.023 682.271 238.039 682.338C238.067 682.459 238.094 682.581 238.12 682.705C238.134 682.774 238.148 682.843 238.162 682.913C238.186 683.041 238.21 683.171 238.232 683.302C238.258 683.459 238.282 683.618 238.305 683.779C238.429 684.686 238.468 685.549 238.449 686.356C238.416 687.691 238.224 688.874 237.992 689.853Z" fill="#3A201F"/>
</g>
<defs>
<filter id="filter0_d_437_3450" x="0.830094" y="0.518799" width="377.754" height="785.73" filterUnits="userSpaceOnUse" color-interpolation-filters="sRGB">
<feFlood flood-opacity="0" result="BackgroundImageFix"/>
<feColorMatrix in="SourceAlpha" type="matrix" values="0 0 0 0 0 0 0 0 0 0 0 0 0 0 0 0 0 0 127 0" result="hardAlpha"/>
<feOffset dx="-0.977022" dy="7.32766"/>
<feGaussianBlur stdDeviation="1.83192"/>
<feComposite in2="hardAlpha" operator="out"/>
<feColorMatrix type="matrix" values="0 0 0 0 0 0 0 0 0 0 0 0 0 0 0 0 0 0 0.25 0"/>
<feBlend mode="normal" in2="BackgroundImageFix" result="effect1_dropShadow_437_3450"/>
<feBlend mode="normal" in="SourceGraphic" in2="effect1_dropShadow_437_3450" result="shape"/>
</filter>
<filter id="filter1_f_437_3450" x="24.0215" y="281.303" width="128.051" height="133.935" filterUnits="userSpaceOnUse" color-interpolation-filters="sRGB">
<feFlood flood-opacity="0" result="BackgroundImageFix"/>
<feBlend mode="normal" in="SourceGraphic" in2="BackgroundImageFix" result="shape"/>
<feGaussianBlur stdDeviation="25.6468" result="effect1_foregroundBlur_437_3450"/>
</filter>
<filter id="filter2_d_437_3450" x="41.8348" y="298.706" width="95.5823" height="103.83" filterUnits="userSpaceOnUse" color-interpolation-filters="sRGB">
<feFlood flood-opacity="0" result="BackgroundImageFix"/>
<feColorMatrix in="SourceAlpha" type="matrix" values="0 0 0 0 0 0 0 0 0 0 0 0 0 0 0 0 0 0 127 0" result="hardAlpha"/>
<feOffset dy="1.95404"/>
<feGaussianBlur stdDeviation="18.3192"/>
<feComposite in2="hardAlpha" operator="out"/>
<feColorMatrix type="matrix" values="0 0 0 0 0.262745 0 0 0 0 0.478431 0 0 0 0 0.85098 0 0 0 0.3 0"/>
<feBlend mode="normal" in2="BackgroundImageFix" result="effect1_dropShadow_437_3450"/>
<feBlend mode="normal" in="SourceGraphic" in2="effect1_dropShadow_437_3450" result="shape"/>
</filter>
<filter id="filter3_bf_437_3450" x="31.3413" y="314.891" width="105.826" height="95.2588" filterUnits="userSpaceOnUse" color-interpolation-filters="sRGB">
<feFlood flood-opacity="0" result="BackgroundImageFix"/>
<feGaussianBlur in="BackgroundImageFix" stdDeviation="6.83915"/>
<feComposite in2="SourceAlpha" operator="in" result="effect1_backgroundBlur_437_3450"/>
<feBlend mode="normal" in="SourceGraphic" in2="effect1_backgroundBlur_437_3450" result="shape"/>
<feGaussianBlur stdDeviation="20.0289" result="effect2_foregroundBlur_437_3450"/>
</filter>
<radialGradient id="paint0_radial_437_3450" cx="0" cy="0" r="1" gradientUnits="userSpaceOnUse" gradientTransform="translate(337.06 645.818) rotate(-128.776) scale(415.757 517.551)">
<stop stop-color="#D0A414"/>
<stop offset="0.148959" stop-color="#B17411"/>
<stop offset="0.266994" stop-color="#99380F"/>
<stop offset="0.400746" stop-color="#92350D"/>
<stop offset="0.609249" stop-color="#15085F"/>
<stop offset="1"/>
</radialGradient>
<linearGradient id="paint1_linear_437_3450" x1="342.678" y1="611.38" x2="342.678" y2="683.679" gradientUnits="userSpaceOnUse">
<stop stop-color="#FF9385"/>
<stop offset="1" stop-color="#FFBF85" stop-opacity="0.43"/>
</linearGradient>
<linearGradient id="paint2_linear_437_3450" x1="78.5239" y1="334.808" x2="81.6094" y2="364.435" gradientUnits="userSpaceOnUse">
<stop offset="0.00563166" stop-color="#7920B8"/>
<stop offset="0.5" stop-color="#E13745"/>
<stop offset="1" stop-color="#799BB8"/>
</linearGradient>
<linearGradient id="paint3_linear_437_3450" x1="100.014" y1="342.882" x2="75.34" y2="356.233" gradientUnits="userSpaceOnUse">
<stop stop-color="#42B0FF"/>
<stop offset="0.419792" stop-color="#595FFF" stop-opacity="0.580208"/>
<stop offset="1" stop-color="#404642" stop-opacity="0"/>
</linearGradient>
<radialGradient id="paint4_radial_437_3450" cx="0" cy="0" r="1" gradientUnits="userSpaceOnUse" gradientTransform="translate(336.967 645.82) rotate(-128.775) scale(415.757 517.552)">
<stop stop-color="#D0A414"/>
<stop offset="0.148959" stop-color="#B17411"/>
<stop offset="0.266994" stop-color="#99380F"/>
<stop offset="0.400746" stop-color="#92350D"/>
<stop offset="0.609249" stop-color="#15085F"/>
<stop offset="1"/>
</radialGradient>
<radialGradient id="paint5_radial_437_3450" cx="0" cy="0" r="1" gradientUnits="userSpaceOnUse" gradientTransform="translate(233.854 693.314) scale(71.832 71.8037)">
<stop stop-color="#FFE278"/>
<stop offset="1" stop-color="#FF9F21"/>
</radialGradient>
</defs>
</svg>
