<svg width="84" height="70" viewBox="0 0 84 70" fill="none" xmlns="http://www.w3.org/2000/svg">
<rect width="83.8608" height="70" rx="15.2174" fill="#292732"/>
<path fill-rule="evenodd" clip-rule="evenodd" d="M38.1026 33.7933C38.0434 32.8255 37.7562 31.8854 37.2643 31.0498C36.9085 30.4593 36.4628 29.9279 35.9433 29.4748C35.7506 29.3168 35.5257 29.2031 35.2842 29.1417C35.0428 29.0802 34.7908 29.0725 34.5461 29.1191C34.2223 29.2237 33.9227 29.3922 33.6652 29.6148C33.4078 29.8373 33.1976 30.1093 33.0473 30.4147C32.3868 31.5578 31.7264 33.6409 31.4215 34.0982C30.6475 35.3467 29.6483 36.4407 28.4747 37.3244L28.2461 37.4768C28.4493 37.1466 28.6526 36.8671 28.8304 36.5369C29.2994 35.6362 29.5837 34.6509 29.6666 33.6388C29.7495 32.6267 29.6293 31.6083 29.3131 30.6433C28.6133 28.8481 27.335 27.3374 25.6804 26.3502C24.0567 25.3283 22.161 24.8233 20.2441 24.9022C18.6332 24.9551 17.0667 25.4436 15.7113 26.3159C14.356 27.1882 13.2624 28.4115 12.5469 29.8558C11.8851 31.3284 11.7081 32.9732 12.0414 34.5529C12.3747 36.1325 13.2011 37.5656 14.4013 38.6454C14.7106 38.9512 15.0512 39.2237 15.4175 39.4583C15.145 39.5735 14.8817 39.7094 14.6299 39.8647C14.1399 40.2231 13.6887 40.6318 13.2836 41.0841C12.4909 42.0461 11.9264 43.1751 11.6324 44.3865C11.34 45.6055 11.34 46.8764 11.6324 48.0954C11.8551 49.1717 12.3756 50.1638 13.1346 50.9588C13.8936 51.7537 14.8606 52.3196 15.9255 52.5918V52.922C16.1033 54.5732 16.4336 56.1736 16.6368 57.7486C16.6368 57.971 16.7251 58.1842 16.8823 58.3414C17.0396 58.4986 17.2528 58.5869 17.4751 58.5869C17.6755 58.569 17.8627 58.4795 18.0027 58.335C18.1426 58.1904 18.2258 58.0003 18.2372 57.7994C18.3896 56.0212 18.5421 54.1922 18.5675 52.3377V49.1623C18.4239 47.5917 18.3815 46.0134 18.4404 44.4373C18.4627 44.3438 18.4658 44.2467 18.4496 44.1519C18.4333 44.0571 18.398 43.9667 18.3457 43.8859C18.2935 43.8052 18.2254 43.7359 18.1456 43.6822C18.0659 43.6285 17.976 43.5916 17.8816 43.5736C17.6932 43.5357 17.4974 43.5729 17.336 43.6773C17.1746 43.7817 17.0605 43.945 17.0179 44.1325C16.3515 45.9102 15.9492 47.776 15.8239 49.6704V50.4833C15.2114 50.0129 14.7446 49.3788 14.4775 48.6542C14.1343 47.4418 14.1343 46.1578 14.4775 44.9454C14.5891 44.059 14.8557 43.1991 15.265 42.405C15.5217 41.9065 15.8562 41.452 16.2558 41.0587C16.5606 40.7792 16.8908 40.5506 17.1957 40.2966L17.5767 40.4744C19.1845 40.8925 20.845 41.0722 22.505 41.0079C22.7004 41.0079 22.8877 40.9302 23.0259 40.7921C23.164 40.6539 23.2417 40.4665 23.2417 40.2712C23.2417 40.0758 23.164 39.8884 23.0259 39.7502C22.8877 39.6121 22.7004 39.5345 22.505 39.5345C21.0163 39.5018 19.542 39.2361 18.1356 38.747C17.2973 38.4456 16.5587 37.918 16.0017 37.2228C15.218 36.4119 14.7044 35.3784 14.5316 34.264C14.3588 33.1497 14.5351 32.0091 15.0364 30.999C15.5722 30.0191 16.3569 29.1979 17.3113 28.6181C18.2658 28.0383 19.3562 27.7204 20.4727 27.6965C21.8453 27.6228 23.2107 27.9399 24.4102 28.611C25.635 29.2509 26.623 30.2657 27.23 31.507C27.7253 32.871 27.6706 34.3742 27.0776 35.6986C26.8294 36.394 26.4327 37.027 25.915 37.5534C25.3973 38.0799 24.7711 38.4872 24.08 38.747C23.976 38.7761 23.879 38.8257 23.7944 38.8929C23.7098 38.96 23.6395 39.0432 23.5875 39.1378C23.5354 39.2324 23.5028 39.3364 23.4914 39.4438C23.48 39.5511 23.4901 39.6597 23.5211 39.7631C23.5623 39.9003 23.6413 40.0232 23.7492 40.1175C23.857 40.2119 23.9893 40.274 24.1308 40.2966C24.1916 40.4347 24.2978 40.5478 24.4319 40.6171C24.5659 40.6865 24.7196 40.7078 24.8675 40.6776C26.5409 40.3751 28.138 39.7449 29.5671 38.8232C31.0042 37.8884 32.2678 36.7107 33.3014 35.3429C33.5554 34.9873 34.1143 32.8026 34.7239 31.8119C34.7239 32.0405 34.9272 32.3199 34.9526 32.3961C35.2703 33.0058 35.4111 33.6921 35.359 34.3776C35.2934 35.1781 35.1138 35.965 34.8256 36.7147C34.3995 37.8974 33.8002 39.0104 33.0473 40.0171C32.3127 41.0753 31.4605 42.0469 30.507 42.9131C29.9227 43.472 28.6272 44.1833 27.9667 44.8946C27.6464 45.1616 27.3719 45.4791 27.1538 45.8345C26.9819 46.2254 26.9204 46.6559 26.9759 47.0792C26.9759 47.8413 27.4332 49.0353 27.484 49.4417C27.6364 50.6611 27.7889 51.9821 27.8397 53.1506C27.9159 54.3773 27.9159 55.6075 27.8397 56.8341C27.8106 56.9503 27.8068 57.0714 27.8285 57.1893C27.8502 57.3071 27.8969 57.4189 27.9655 57.5171C28.0341 57.6154 28.1229 57.6978 28.226 57.7588C28.3291 57.8198 28.4441 57.858 28.5632 57.8709C28.6823 57.8837 28.8028 57.8708 28.9165 57.8332C29.0302 57.7955 29.1346 57.7339 29.2225 57.6525C29.3104 57.5711 29.3798 57.4718 29.4261 57.3613C29.4724 57.2508 29.4945 57.1317 29.4909 57.0119C29.643 55.7134 29.7193 54.4072 29.7195 53.0998V49.2385C29.7195 48.8321 29.9481 47.1809 29.5417 46.6982L32.4122 44.7421C33.5465 43.7927 34.5615 42.7094 35.4352 41.5159C36.3409 40.3 37.0601 38.9558 37.5691 37.5276C37.9785 36.3271 38.1594 35.0605 38.1026 33.7933Z" fill="#46C1E3"/>
<path fill-rule="evenodd" clip-rule="evenodd" d="M57.1041 16.9256C55.8594 17.8401 54.5638 18.7038 53.3191 19.4659C52.0968 20.2975 50.8242 21.0526 49.5086 21.7268C48.6194 22.2348 47.7049 22.6667 46.7904 23.0986C45.8759 23.5304 44.9106 24.0131 43.9452 24.4195C42.9799 24.826 41.4049 25.4865 39.9823 25.9945C39.8889 26.0212 39.8017 26.066 39.7256 26.1264C39.6495 26.1868 39.5861 26.2616 39.5389 26.3466C39.4917 26.4315 39.4617 26.5249 39.4506 26.6214C39.4395 26.7179 39.4476 26.8156 39.4743 26.909C39.501 27.0025 39.5458 27.0897 39.6062 27.1658C39.6666 27.2419 39.7414 27.3053 39.8263 27.3525C39.9112 27.3997 40.0046 27.4297 40.1011 27.4407C40.1976 27.4518 40.2954 27.4438 40.3888 27.4171C42.5965 27.0886 44.7844 26.6392 46.9428 26.0707C48.3685 25.6008 49.7464 24.9969 51.0582 24.2671C52.1459 23.5887 53.1895 22.8421 54.1828 22.0316C55.6308 20.8377 56.9771 19.4913 58.3489 18.2211C58.5207 18.0561 58.6199 17.8295 58.6247 17.5913C58.6294 17.3531 58.5394 17.1228 58.3743 16.951C58.2092 16.7792 57.9827 16.68 57.7445 16.6752C57.5063 16.6704 57.2759 16.7605 57.1041 16.9256Z" fill="#46C1E3"/>
<path fill-rule="evenodd" clip-rule="evenodd" d="M45.0122 27.8744C44.8236 27.8282 44.6244 27.8583 44.4579 27.9582C44.2914 28.0581 44.171 28.2197 44.1231 28.4078C43.6452 29.4175 43.2707 30.4728 43.0053 31.5578C42.8985 32.0256 42.8305 32.5014 42.8021 32.9804C42.7769 33.4458 42.7769 33.9122 42.8021 34.3776C42.8021 35.4954 43.1069 36.5369 43.2848 37.6038C43.2848 37.8262 43.3731 38.0394 43.5303 38.1966C43.6875 38.3538 43.9007 38.4421 44.1231 38.4421C44.3454 38.4421 44.5586 38.3538 44.7158 38.1966C44.873 38.0394 44.9614 37.8262 44.9614 37.6038C44.9614 36.5877 45.2916 35.5716 45.444 34.5046C45.5198 34.0761 45.5707 33.6435 45.5965 33.2091V31.8881C45.5965 30.8211 45.444 29.8304 45.5965 28.8143C45.6227 28.7141 45.6283 28.6096 45.6128 28.5072C45.5974 28.4048 45.5612 28.3066 45.5065 28.2186C45.4518 28.1307 45.3798 28.0548 45.2948 27.9956C45.2098 27.9364 45.1136 27.8951 45.0122 27.8744Z" fill="#46C1E3"/>
<path fill-rule="evenodd" clip-rule="evenodd" d="M52.3794 25.1054C52.1878 25.0838 51.9953 25.1382 51.8433 25.2569C51.6913 25.3756 51.5919 25.5493 51.5665 25.7405C51.1194 27.085 50.7713 28.4605 50.525 29.8558C50.428 30.4612 50.3687 31.0721 50.3472 31.6848V33.4885C50.3472 34.9111 50.6774 36.3082 50.8806 37.7054C50.8936 37.9256 50.9903 38.1324 51.1509 38.2836C51.3115 38.4347 51.5238 38.5187 51.7443 38.5183C51.8545 38.515 51.9628 38.4901 52.0633 38.4449C52.1637 38.3997 52.2543 38.3352 52.3298 38.2549C52.4053 38.1747 52.4642 38.0804 52.5033 37.9774C52.5423 37.8744 52.5606 37.7647 52.5573 37.6546C52.5573 36.2574 52.8621 34.9111 52.9891 33.5393C52.9891 32.955 52.9891 32.3707 53.1161 31.7865C53.2431 31.2022 53.1161 30.6179 53.1161 30.0336C53.1161 28.6618 52.9383 27.3155 52.9383 25.9183C52.9622 25.7377 52.9182 25.5546 52.815 25.4045C52.7118 25.2544 52.5566 25.1478 52.3794 25.1054Z" fill="#46C1E3"/>
<path fill-rule="evenodd" clip-rule="evenodd" d="M57.1044 27.0107C57.1044 27.7474 56.9519 28.5095 56.9011 29.2716C56.863 30.0247 56.863 30.7793 56.9011 31.5325C57.0057 33.3273 57.2521 35.1111 57.6378 36.8672C57.6469 36.9757 57.6783 37.0811 57.7302 37.1768C57.782 37.2726 57.8532 37.3565 57.9391 37.4233C58.0251 37.4902 58.1239 37.5385 58.2295 37.5652C58.335 37.5919 58.445 37.5964 58.5523 37.5785C58.7704 37.5529 58.9698 37.4428 59.1076 37.2717C59.2453 37.1007 59.3105 36.8825 59.289 36.6639C59.289 34.9111 59.4415 33.1837 59.5431 31.4309C59.5431 30.2623 59.7463 29.0937 59.7463 27.9252C59.7463 25.9183 59.6193 23.9369 59.5177 21.9554C59.5246 21.8586 59.5123 21.7614 59.4815 21.6694C59.4507 21.5774 59.4021 21.4923 59.3384 21.4191C59.2746 21.346 59.1971 21.2861 59.1101 21.243C59.0232 21.1999 58.9286 21.1744 58.8318 21.1679C58.7363 21.161 58.6404 21.1735 58.5498 21.2045C58.4593 21.2356 58.3759 21.2846 58.3047 21.3487C58.2336 21.4127 58.1761 21.4905 58.1357 21.5773C58.0953 21.6641 58.0728 21.7581 58.0697 21.8538C57.6632 23.5558 57.2568 25.2579 57.1044 27.0107Z" fill="#46C1E3"/>
<path fill-rule="evenodd" clip-rule="evenodd" d="M71.6095 12.2513C68.0609 11.7931 64.4914 11.5133 60.9147 11.413H52.9381C50.2707 11.413 47.6288 11.413 44.9869 11.5654H39.5252C36.7647 11.5654 33.9957 11.6671 31.2183 11.8703C28.1445 12.0481 25.0707 12.3275 21.9969 12.7848C21.8015 12.8084 21.6235 12.9086 21.502 13.0634C21.3805 13.2183 21.3255 13.415 21.3491 13.6104C21.3727 13.8058 21.4729 13.9838 21.6277 14.1053C21.7826 14.2268 21.9793 14.2818 22.1747 14.2582C23.6227 14.1566 25.0961 14.1312 26.6203 14.1058C26.5963 14.1888 26.5963 14.2768 26.6203 14.3598C26.3536 15.5677 26.1501 16.7887 26.0106 18.0179C25.9726 18.5337 25.9726 19.0516 26.0106 19.5675V21.1425C26.0106 22.3618 26.3662 23.5558 26.5441 24.7752C26.557 24.9953 26.6537 25.2022 26.8143 25.3533C26.9749 25.5045 27.1872 25.5884 27.4078 25.5881C27.6007 25.5576 27.7762 25.4586 27.9021 25.3094C28.0281 25.1601 28.0961 24.9705 28.0937 24.7752C28.2461 23.5558 28.4239 22.2348 28.5255 21.1171V19.5675V18.0179C28.5255 16.7731 28.1191 15.63 27.9159 14.4106V14.0804H29.1352C32.336 14.0804 35.5368 14.2328 38.7377 14.309H45.1901C47.324 14.309 50.1437 14.309 52.6333 14.055C56.3167 13.9025 60.0256 13.6485 63.7091 13.6231C65.2587 13.6231 66.7829 13.6231 68.3071 13.8009C68.1039 17.2304 67.9006 20.6598 67.799 24.1147V30.0082V35.9272C67.799 37.9087 67.5958 39.8393 67.3672 41.7954C67.3377 42.017 67.3953 42.2415 67.528 42.4216C67.6607 42.6016 67.858 42.7232 68.0785 42.7607C68.2972 42.7897 68.5186 42.7313 68.6945 42.5981C68.8705 42.465 68.9869 42.2678 69.0184 42.0494C69.8474 38.1156 70.3739 34.1241 70.5934 30.1098C70.5934 27.7219 70.7204 25.3086 70.5934 22.9207C70.5934 19.8723 70.2123 16.8493 70.0091 13.8517H71.6349C71.8372 13.8456 72.0305 13.7665 72.179 13.6289C72.3275 13.4914 72.4213 13.3048 72.443 13.1036C72.4646 12.9023 72.4128 12.7 72.2969 12.5341C72.1811 12.3681 72.0091 12.2496 71.8127 12.2005L71.6095 12.2513Z" fill="#46C1E3"/>
<path fill-rule="evenodd" clip-rule="evenodd" d="M66.0461 41.643C63.2633 42.0688 60.4529 42.2896 57.6377 42.3035H49.7626H37.7723C37.5784 42.296 37.3889 42.3629 37.2426 42.4903C37.0962 42.6178 37.004 42.7962 36.9848 42.9893C36.9779 43.0861 36.9902 43.1833 37.0209 43.2754C37.0517 43.3674 37.1003 43.4525 37.1641 43.5256C37.2278 43.5988 37.3054 43.6587 37.3923 43.7018C37.4792 43.7449 37.5738 43.7704 37.6707 43.7768C40.211 44.1071 42.7513 44.4627 45.1392 44.7676C45.0563 44.948 44.9884 45.1349 44.936 45.3265C44.911 45.5374 44.911 45.7506 44.936 45.9615C44.9135 46.1726 44.9135 46.3855 44.936 46.5966C44.9469 46.7234 44.9469 46.8509 44.936 46.9777C44.3258 47.2081 43.7866 47.5944 43.3721 48.0981C42.9576 48.6017 42.6823 49.2051 42.5735 49.8482C42.5735 49.9753 41.8622 54.4208 47.4763 53.9636C49.5594 53.9636 50.4485 52.1599 50.3723 50.3563C50.3236 49.5089 50.0107 48.6979 49.4777 48.0373C48.9446 47.3767 48.2181 46.8996 47.4001 46.6728C47.4111 46.6226 47.4111 46.5706 47.4001 46.5204C47.4249 46.3094 47.4249 46.0963 47.4001 45.8853C47.4366 45.6752 47.4366 45.4604 47.4001 45.2502V45.047C48.8481 45.174 50.2707 45.2502 51.7187 45.2502C53.1667 45.2502 54.6401 45.2502 56.0881 45.1232C59.519 44.8892 62.9208 44.3364 66.2494 43.472C66.4683 43.4248 66.6596 43.2926 66.7811 43.1045C66.9026 42.9163 66.9443 42.6875 66.8972 42.4686C66.85 42.2496 66.7178 42.0584 66.5296 41.9369C66.3414 41.8154 66.1127 41.7736 65.8937 41.8208L66.0461 41.643ZM48.2638 50.4579C48.4163 51.1692 48.2638 51.9821 47.5271 52.1091C47.5271 52.1091 44.9868 53.3793 44.9868 50.6611C45.0343 50.2814 45.2142 49.9306 45.4949 49.6704C45.6843 49.4634 45.9249 49.3098 46.1924 49.2251C46.4599 49.1404 46.745 49.1275 47.0191 49.1878C47.3337 49.236 47.6236 49.3866 47.844 49.6162C48.0644 49.8458 48.203 50.1416 48.2384 50.4579H48.2638Z" fill="#46C1E3"/>
</svg>
