<svg width="644" height="917" viewBox="0 0 644 917" fill="none" xmlns="http://www.w3.org/2000/svg">
<g filter="url(#filter0_d_510_6092)">
<path d="M102.057 445.529C100.675 436.115 106.008 426.234 107.208 421.556C108.064 418.218 108.066 416.294 106.316 409.862C104.919 404.729 103.774 403.43 99.4817 399.337C91.2014 391.441 79.4393 391.759 70.6283 384.135C62.8019 377.362 59.6153 377.193 56.5581 364.254C53.501 351.316 57.9409 341.947 70.6283 332.095C79.3897 325.292 88.7946 325.193 99.4817 319.816C110.187 314.43 118.132 312.279 125.236 304.614C133.317 295.893 134.636 289.189 133.978 278.886C133.198 266.669 127.461 259.829 117.51 249.651C104.36 236.202 87.231 232.126 70.6283 223.338C54.2473 214.668 46.7043 208.152 35.0963 196.442C23.6028 184.846 17.8514 177.676 11.9176 164.282C6.24733 151.483 4.68615 143.736 5.04983 130.369C5.37048 118.583 6.76784 111.803 11.9176 100.549C17.8512 87.5816 23.424 80.5711 35.0963 69.5588C46.6678 58.6416 55.9383 54.0114 70.6283 45.0008C235.699 -56.251 639.46 45.0008 639.46 45.0008L641 375.589V853.132V902.307C641 905.735 594.538 912.59 586.062 889.739C575.997 862.603 546.641 872.315 537.415 849.464C528.189 826.613 498.607 814.277 477.864 808.903C462.582 804.944 426.281 804.333 395.248 821.471C371.937 834.345 343.497 833.352 328.567 831.469C313.637 829.586 299.631 821.757 277.823 804.333C248.86 781.192 205.577 781.195 196.204 781.196H196.045C136.075 781.196 108.397 775.769 82.3955 754.632C56.3944 733.495 72.7501 709.501 82.3956 700.646C92.0412 691.791 108.369 678.666 128.082 672.654C180.529 656.658 152.011 652.088 152.011 652.088C152.011 652.088 133.978 634.092 133.978 627.808C133.978 594.044 165.956 600.971 174.658 566.682C180.529 543.545 193.11 546.116 187.239 525.835C181.884 507.339 152.168 491.26 136.396 481.782C130.745 478.386 120.821 474.793 114.076 468.333C106.024 460.623 103.439 454.944 102.057 445.529Z" fill="url(#paint0_radial_510_6092)"/>
</g>
<g clip-path="url(#clip0_510_6092)">
<mask id="mask0_510_6092" style="mask-type:alpha" maskUnits="userSpaceOnUse" x="5" y="0" width="636" height="906">
<path d="M102.057 445.529C100.675 436.115 106.008 426.234 107.208 421.556C108.064 418.218 108.066 416.294 106.316 409.862C104.919 404.729 103.774 403.43 99.4817 399.337C91.2014 391.441 79.4393 391.759 70.6283 384.135C62.8019 377.362 59.6153 377.193 56.5581 364.254C53.501 351.316 57.9409 341.947 70.6283 332.095C79.3897 325.292 88.7946 325.193 99.4817 319.816C110.187 314.43 118.132 312.279 125.236 304.614C133.317 295.893 134.636 289.189 133.978 278.886C133.198 266.669 127.461 259.829 117.51 249.651C104.36 236.202 87.231 232.126 70.6283 223.338C54.2473 214.668 46.7043 208.152 35.0963 196.442C23.6028 184.846 17.8514 177.676 11.9176 164.282C6.24733 151.483 4.68615 143.736 5.04983 130.369C5.37048 118.583 6.76784 111.803 11.9176 100.549C17.8512 87.5816 23.424 80.5711 35.0963 69.5588C46.6678 58.6416 55.9383 54.0114 70.6283 45.0008C235.699 -56.251 639.46 45.0008 639.46 45.0008L641 375.589V853.132V902.307C641 905.735 594.538 912.59 586.062 889.739C575.997 862.603 546.641 872.315 537.415 849.464C528.189 826.613 498.607 814.277 477.864 808.903C462.582 804.944 426.281 804.333 395.248 821.471C371.937 834.345 343.497 833.352 328.567 831.469C313.637 829.586 299.631 821.757 277.823 804.333C248.86 781.192 205.577 781.195 196.204 781.196H196.045C136.075 781.196 108.397 775.769 82.3955 754.632C56.3944 733.495 72.7501 709.501 82.3956 700.646C92.0412 691.791 108.369 678.666 128.082 672.654C180.529 656.658 152.011 652.088 152.011 652.088C152.011 652.088 133.978 634.092 133.978 627.808C133.978 594.044 165.956 600.971 174.658 566.682C180.529 543.545 193.11 546.116 187.239 525.835C181.884 507.339 152.168 491.26 136.396 481.782C130.745 478.386 120.821 474.793 114.076 468.333C106.024 460.623 103.439 454.944 102.057 445.529Z" fill="url(#paint1_radial_510_6092)"/>
</mask>
<g mask="url(#mask0_510_6092)">
<circle cx="559.15" cy="655.15" r="36.1498" fill="url(#paint2_linear_510_6092)"/>
<path d="M409.974 702.743H416.677V722.514H409.974H403.048V722.15H383.606V676.083H389.033L393.164 683.548H403.047V689.121L409.974 696.952V702.743H409.974ZM315.588 688.355L313.815 684.506L312.567 681.799V674.73H311.514V681.799L310.267 684.506L308.494 688.355V692.527H306.937V705.203H297.054L292.923 697.738H287.495V676.083H282.068L277.937 683.547H268.054V709.047H268.009V704.875L266.236 701.026L264.989 698.32V691.25H263.935V698.32L262.688 701.026L262.113 702.274V692.1H242.749V698.497H229.415V687.145H216.081V677.643H196.717V686.607H194.003V676.752H187.896V668.637H184.208V676.753H178.1V686.607H175.387V703.85H161.875V698.653L144.909 692.728V683.68H140.833V678.598L136.189 673.909L132.924 670.613V662.001H130.166V670.613L126.901 673.909L122.257 678.598V683.68H118.181V686.672H110.837V677.169H91.5734V696.941L72.8406 696.974L64.1814 692.171L52.8408 692.191L53.0085 721.923C53.1715 721.74 234.75 721.933 259.357 721.899V740.025H269.564V722.15H287.495V743.805H306.937V723.504H317.144V692.527H315.587V688.355H315.588ZM364.764 676.083H359.336V698.422H358.495V691.25H351.731V692.527H350.174V688.355L348.401 684.506L347.154 681.8V674.73H346.101V681.8L344.854 684.506L343.08 688.355V692.527H341.523V723.504H351.731V724.643H356.834H358.495H363.153V722.15H378.777V683.548H368.894L364.764 676.083ZM622.107 692.099V698.497H608.774V687.145H595.44V677.644H576.076V686.605H573.364V676.753H567.256V668.639H563.566V676.753H557.462V686.605H554.746V703.849H541.236V698.653L524.268 692.726V683.678H520.194V678.599L515.547 673.909L512.284 670.615V661.999H509.525V670.615L506.262 673.909L501.615 678.599V683.678H497.541V686.67H490.195V677.168H470.934V696.941L452.199 696.976L443.543 692.173L432.201 692.19L432.227 696.794V696.796H429.178V691.511H428.075V682.851H425.595V675.719H424.097V682.851H421.616V691.511H420.515V722.513H429.178V730.188H434.281H435.942H440.6V721.871C478.33 721.78 633.242 721.944 641.157 721.893V692.099H622.107V692.099Z" fill="#9E533A"/>
<path d="M641.158 716.57V895.167H53.1584V836.284C53.1196 836.271 53.0808 836.258 53.042 836.245V826.696H53.0291V821.768H53.042C53.0808 821.764 53.1196 821.764 53.1584 821.759V775.729C53.1196 775.729 53.0808 775.725 53.042 775.725V767.295H53.1584V761.057H53.042V753.539H53.1584V746.77H53.042V744.267C53.0808 744.267 53.1196 744.262 53.1584 744.262V733.053H53.042V730.559C53.0808 730.559 53.1196 730.559 53.1584 730.554V720.37C53.1196 720.37 53.0808 720.365 53.042 720.365V719.881C53.0808 719.881 53.1196 719.881 53.1584 719.885V716.57H641.158Z" fill="url(#paint3_radial_510_6092)"/>
<path d="M640.956 807.719V812.647C555.756 808.964 448.468 810.871 347.792 813.153C221.394 816.011 105.41 819.456 56.62 813.149C55.4259 812.998 54.2706 812.833 53.1584 812.669C53.1196 812.665 53.0808 812.656 53.042 812.652H53.0291V807.724H53.042C53.0808 807.719 53.1196 807.719 53.1584 807.715C197.387 798.797 405.527 784.306 640.956 807.719Z" fill="#333333"/>
<path d="M640.986 805.876V826.804C446.166 808.362 135.889 853.939 53.1586 826.843C53.1198 826.83 53.081 826.817 53.0422 826.804V816.662C53.081 816.675 53.1198 816.688 53.1586 816.701C54.2708 817.064 55.4261 817.414 56.6202 817.752C105.406 831.559 221.394 824.02 347.792 817.756C448.472 812.767 555.756 808.587 640.956 816.649V805.868C640.965 805.873 640.978 805.873 640.986 805.876Z" fill="#333333"/>
<path d="M512.092 769.889C512.631 770.796 406.885 773.641 278.5 774.808C261.2 777.739 184.312 776.425 167.271 783.29C148.04 791.041 249.358 785.832 249.246 793.129C249.19 796.751 66.117 798.368 67.587 788.827C68.9234 780.143 134.039 780.138 108.234 776.031C102.789 775.167 98.6424 774.415 95.6852 773.766C82.2698 773.407 68.0268 772.967 53.1586 772.418C53.1198 772.418 53.081 772.413 53.0422 772.413V763.984H53.1586C106.98 764.42 175.845 764.913 257.234 764.948C326.949 764.978 391.897 764.667 392.397 765.726C393.017 767.053 292.575 769.054 293.148 770.148C293.993 771.752 511.324 768.583 512.092 769.889Z" fill="#333333"/>
<path d="M455.736 727.84C455.999 728.929 161.439 730.533 53.1586 729.742H53.0422V727.247C53.081 727.247 53.1198 727.247 53.1586 727.243C95.586 726.128 157.197 724.706 157.49 722.509C157.809 720.132 85.8909 718.096 53.1586 717.058C53.1198 717.058 53.081 717.054 53.0422 717.054V716.57C53.081 716.57 53.1198 716.57 53.1586 716.574C73.2946 716.985 110.014 717.858 148.015 718.342C272.848 719.95 369.515 716.855 371.446 717.521C374.05 718.416 193.041 721.939 195.891 724.459C199.249 727.425 455.49 726.828 455.736 727.84Z" fill="#333333"/>
<path d="M315.591 722.417C315.62 722.977 385.077 723.762 448.256 723.716C513.862 723.668 544.317 722.746 546.009 723.889C550.043 726.617 382.529 735.69 383.918 736.45C385.606 737.373 637.948 726.696 633.787 722.157C629.209 717.162 315.529 721.225 315.591 722.417Z" fill="#333333"/>
<path d="M385.413 746.247C384.322 746.982 279.526 742.352 156.99 742.507C115.817 742.559 78.3254 743.147 53.1586 743.458H53.0422V740.955C53.081 740.955 53.1198 740.951 53.1586 740.951C57.5686 740.722 62.0217 740.51 66.2205 740.307C182.463 734.726 347.659 729.439 356.487 733.269C360.94 735.197 321.315 737.583 326.061 740.968C331.359 744.742 386.189 745.724 385.413 746.247Z" fill="#333333"/>
<path d="M640.999 740.074V744.607C611.739 748.018 582.755 748.838 579.423 748.923C524.144 750.375 368.68 751.702 368.456 749.529C368.193 746.955 586.497 745.804 586.406 742.513C586.337 739.983 445.49 739.219 445.761 738.009C445.926 737.277 590.949 737.544 640.999 740.074Z" fill="#333333"/>
<path d="M464.215 757.326C463.414 758.342 391.681 755.221 270.206 755.939C222.92 756.22 138.311 757.257 53.1586 757.746H53.0422V750.228H53.1586C101.755 749.398 156.266 748.966 211.854 749.355C347.801 750.314 465.241 756.025 464.215 757.326Z" fill="#333333"/>
<path d="M640.999 756.665V800.575C593.639 799.312 460.279 795.514 461.185 792.883C462.284 789.686 583.893 792.393 583.557 789.686C583.221 786.98 394.979 785.257 395.992 781.136C397.005 777.018 505.631 782.799 570.737 777.876C600.885 775.6 605.282 771.985 601.312 768.76C455.357 759.085 303.665 760.125 305.117 758.538C307.027 756.451 562.142 762.634 565.957 758.884C567.448 757.419 529.55 755.426 531.046 754.467C532.593 753.475 574.806 754.465 640.999 756.665Z" fill="#333333"/>
<path d="M613.456 786.36V781.753L608.41 776.445L603.78 781.54V786.36H554.47V781.753L549.424 776.445L544.794 781.54V786.36H495.483V781.753L490.437 776.445L485.807 781.54V786.36H436.497V781.753L431.451 776.445L426.821 781.54V786.36H377.51V781.753L372.464 776.445L367.834 781.54V786.36H318.524V781.753L313.478 776.445L308.847 781.54V786.36H259.537V781.753L254.491 776.445L249.861 781.54V786.36H200.551V781.753L195.505 776.445L190.874 781.54V786.36H141.564V781.753L136.518 776.445L131.888 781.54V786.36H82.5772V781.753L77.5314 776.445L72.9011 781.54V786.36H53.157V786.632V788.335V794.537H72.9011V819.915H53.157V820.187V821.889V828.091H72.9011V833.222H53.1311V840.277V843.804V849.831V865.432V905.998H78.1125H81.906H117.458H121.255H156.104H159.902H195.454H199.252H234.105H237.903H273.454H277.248H312.105H315.899H351.451H355.248H390.102H393.895H429.447H433.245H468.102H471.896H507.447H511.245H546.098H549.892H585.448H589.241H624.095H627.893H641.131V851.599V843.804V840.277V833.222H613.456V828.091H641.157V821.889V820.187V819.915H613.456V794.537H641.157V788.335V786.632V786.36H613.456ZM495.483 819.915V794.537H544.794V819.915H495.483ZM485.807 819.915H436.497V794.537H485.807V819.915ZM426.821 819.915H377.51V794.537H426.821V819.915ZM367.834 819.915H318.524V794.537H367.834V819.915ZM308.848 819.915H259.537V794.537H308.848V819.915ZM249.861 819.915H200.551V794.537H249.861V819.915ZM190.874 819.915H141.564V794.537H190.874V819.915ZM141.564 828.091H190.874V833.222H141.564V828.091ZM200.551 828.091H249.861V833.222H200.551V828.091ZM259.537 828.091H308.848V833.222H259.537V828.091ZM318.524 828.091H367.834V833.222H318.524V828.091ZM377.51 828.091H426.821V833.222H377.51V828.091ZM436.497 828.091H485.807V833.222H436.497V828.091ZM495.483 828.091H544.794V833.222H495.483V828.091ZM131.888 794.537V819.915H82.5772V794.537H131.888ZM131.888 828.091V833.222H82.5772V828.091H131.888ZM554.47 833.222V828.091H603.781V833.222H554.47ZM554.47 819.915V794.537H603.781V819.915H554.47Z" fill="#3A201F"/>
<path d="M341.25 606.41C339.351 605.843 337.083 606.412 335.858 607.442C334.026 606.889 331.599 607.054 330.328 608.121C332.067 607.763 333.823 607.885 335.349 608.422L334.762 609.247L338.133 608.719L337.077 608.154C338.04 607.248 339.476 606.602 341.25 606.41Z" fill="#3D3459"/>
<path d="M462.642 556.291C460.744 555.724 458.475 556.293 457.25 557.323C455.418 556.77 452.991 556.935 451.72 558.002C453.459 557.644 455.215 557.766 456.741 558.303L456.154 559.128L459.525 558.6L458.469 558.035C459.432 557.129 460.868 556.484 462.642 556.291Z" fill="#3D3459"/>
<path d="M467.612 617.428C466.165 616.071 463.882 615.566 462.327 615.94C460.933 614.625 458.688 613.688 457.076 614.074C458.791 614.532 460.309 615.426 461.437 616.589L460.544 617.065L463.796 618.1L463.103 617.122C464.367 616.742 465.938 616.806 467.612 617.428Z" fill="#3D3459"/>
<path d="M256.753 648.178C254.855 647.61 252.587 648.18 251.361 649.21C249.529 648.657 247.102 648.822 245.832 649.888C247.571 649.531 249.327 649.653 250.853 650.189L250.266 651.014L253.636 650.487L252.581 649.921C253.544 649.015 254.979 648.37 256.753 648.178Z" fill="#3D3459"/>
<path d="M188.946 557.907C187.048 557.339 184.78 557.909 183.554 558.939C181.722 558.386 179.296 558.551 178.025 559.618C179.764 559.26 181.52 559.382 183.046 559.919L182.459 560.744L185.83 560.216L184.774 559.651C185.737 558.745 187.173 558.099 188.946 557.907Z" fill="#3D3459"/>
<path d="M386.647 656.218C383.538 655.289 379.823 656.221 377.816 657.908C374.815 657.003 370.842 657.273 368.76 659.02C371.608 658.434 374.484 658.634 376.984 659.512L376.023 660.864L381.543 659.999L379.814 659.073C381.391 657.59 383.742 656.533 386.647 656.218Z" fill="#3D3459"/>
<path d="M262.232 580.715C259.973 579.064 255.986 578.96 253.084 579.987C250.91 578.385 247.102 577.61 244.096 578.671C247.072 578.87 249.578 579.793 251.311 581.241L249.578 582.23L255.176 582.861L254.178 581.568C256.557 580.616 259.375 580.254 262.232 580.715Z" fill="#3D3459"/>
<path d="M370.823 548.767C367.805 547.722 364.011 548.512 361.851 550.12C358.939 549.103 354.947 549.222 352.708 550.887C355.605 550.411 358.458 550.719 360.871 551.69L359.786 553.003L365.377 552.349L363.737 551.36C365.449 549.938 367.893 548.971 370.823 548.767Z" fill="#3D3459"/>
<path d="M359.703 747.346H341.474V752.651H353.751V752.911H353.489H341.545C341.782 752.968 342.027 753.023 342.281 753.076C342.451 753.112 342.626 753.146 342.804 753.18C342.945 753.206 343.088 753.232 343.233 753.256C343.415 753.287 343.6 753.317 343.79 753.345C343.79 753.345 344.449 753.443 345.106 753.507C346.432 753.636 349.51 753.509 353.489 752.911C352.378 755.048 351.17 756.758 350.173 758.016C350.173 758.016 346.075 762.877 341.496 765.755C341.489 765.763 341.481 765.771 341.475 765.778V765.793C341.596 765.846 341.678 765.944 341.678 766.057C341.678 766.227 341.494 766.364 341.266 766.364C341.039 766.364 340.854 766.227 340.854 766.057C340.854 765.944 340.937 765.846 341.058 765.793V765.716C337.008 763.553 334.203 761.382 332.387 759.786C329.999 757.688 328.408 755.785 326.273 753.23C324.492 751.201 323.002 749.221 321.75 747.346C321.843 747.369 321.938 747.39 322.033 747.412C323.139 747.666 324.595 747.943 326.329 748.124C327.4 748.233 328.407 748.287 329.336 748.304C330.124 748.313 331.276 748.303 332.901 748.237C334.932 748.153 337.718 747.98 341.058 747.588C340.784 757.139 340.685 764.129 340.831 764.611C340.865 764.724 340.901 764.83 340.935 764.927C340.978 765.05 341.019 765.159 341.059 765.257V747.347L321.75 747.346L318.524 747.347C318.524 747.153 319.312 745.569 320.1 745.488C320.1 745.488 320.1 745.488 320.1 745.488C320.417 745.019 320.765 744.563 321.136 744.124C321.216 744.032 321.294 743.94 321.374 743.85C321.753 743.421 322.151 743.008 322.562 742.616C322.659 742.523 322.756 742.432 322.855 742.341C323.332 741.902 323.822 741.489 324.313 741.108C324.431 741.015 324.552 740.923 324.672 740.833C325.298 740.366 325.916 739.952 326.5 739.6C326.66 739.503 326.817 739.412 326.972 739.325C327.836 738.839 328.601 738.506 329.168 738.36C331.422 737.777 353.708 738.403 356.112 738.407C356.647 738.409 357.09 738.763 357.453 739.325C357.51 739.411 357.565 739.503 357.618 739.6C357.814 739.958 357.986 740.379 358.136 740.833C358.165 740.923 358.195 741.015 358.221 741.108C358.342 741.504 358.446 741.921 358.536 742.341C358.556 742.433 358.575 742.525 358.594 742.616C358.678 743.033 358.749 743.449 358.809 743.85C358.823 743.942 358.836 744.034 358.848 744.124C358.918 744.622 358.971 745.086 359.011 745.487C359.088 745.487 359.134 745.488 359.144 745.488C360.045 745.523 359.703 747.346 359.703 747.346ZM341.475 752.933V765.678C341.509 765.57 341.543 765.462 341.577 765.352C341.637 765.152 341.696 764.95 341.752 764.744C341.783 764.631 341.813 764.517 341.842 764.401C341.896 764.19 341.946 763.976 341.994 763.758C342.051 763.5 342.104 763.237 342.152 762.97C342.422 761.472 342.507 760.046 342.464 758.712C342.394 756.507 341.977 754.552 341.475 752.933Z" fill="#DBB691"/>
<path d="M360.112 727.926H341.884V720.946H354.161V720.604H353.899H341.955C342.192 720.53 342.436 720.457 342.691 720.386C342.861 720.339 343.036 720.294 343.214 720.25C343.355 720.216 343.497 720.182 343.643 720.15C343.825 720.109 344.01 720.07 344.199 720.032C344.199 720.032 344.859 719.904 345.515 719.82C346.842 719.65 349.92 719.817 353.899 720.604C352.788 717.793 351.579 715.543 350.583 713.887C350.583 713.887 346.484 707.491 341.905 703.704C341.898 703.694 341.891 703.684 341.884 703.673V703.655C342.006 703.584 342.088 703.456 342.088 703.308C342.088 703.084 341.904 702.903 341.676 702.903C341.448 702.903 341.264 703.084 341.264 703.308C341.264 703.456 341.346 703.585 341.468 703.655V703.755C337.418 706.601 334.613 709.458 332.796 711.558C330.409 714.318 328.818 716.822 326.682 720.185C324.902 722.854 323.411 725.459 322.159 727.926C322.253 727.897 322.348 727.868 322.443 727.839C323.549 727.505 325.005 727.141 326.738 726.903C327.81 726.758 328.817 726.687 329.746 726.665C330.534 726.653 331.686 726.666 333.31 726.754C335.342 726.864 338.127 727.092 341.468 727.607C341.194 715.04 341.095 705.843 341.241 705.209C341.275 705.06 341.31 704.921 341.344 704.794C341.388 704.632 341.429 704.488 341.468 704.359V727.926H322.159H318.934C318.934 728.181 319.721 730.266 320.509 730.372C320.509 730.372 320.509 730.372 320.51 730.372C320.826 730.989 321.174 731.588 321.545 732.166C321.625 732.287 321.703 732.408 321.783 732.528C322.162 733.092 322.56 733.634 322.971 734.151C323.068 734.273 323.166 734.393 323.264 734.512C323.741 735.091 324.231 735.634 324.722 736.135C324.84 736.258 324.961 736.379 325.081 736.497C325.707 737.112 326.325 737.657 326.91 738.12C327.069 738.247 327.226 738.367 327.381 738.482C328.245 739.121 329.011 739.559 329.577 739.751C331.831 740.518 354.117 739.695 356.521 739.689C357.056 739.687 357.499 739.221 357.862 738.482C357.92 738.369 357.974 738.247 358.027 738.12C358.223 737.648 358.395 737.095 358.545 736.497C358.574 736.379 358.604 736.259 358.63 736.135C358.752 735.614 358.856 735.066 358.946 734.512C358.965 734.392 358.984 734.271 359.003 734.151C359.087 733.602 359.159 733.054 359.219 732.528C359.232 732.406 359.245 732.285 359.257 732.166C359.328 731.512 359.381 730.9 359.42 730.374C359.497 730.373 359.543 730.372 359.553 730.372C360.454 730.326 360.112 727.926 360.112 727.926ZM341.884 720.575V703.806C341.919 703.948 341.953 704.091 341.986 704.235C342.047 704.498 342.106 704.763 342.162 705.035C342.193 705.184 342.223 705.335 342.252 705.486C342.305 705.764 342.356 706.046 342.404 706.332C342.46 706.672 342.514 707.018 342.562 707.369C342.831 709.341 342.916 711.217 342.874 712.972C342.804 715.873 342.387 718.445 341.884 720.575Z" fill="#3A201F"/>
</g>
</g>
<g filter="url(#filter1_f_510_6092)">
<path fill-rule="evenodd" clip-rule="evenodd" d="M114.128 433.615C121.182 439.238 131.191 440.441 139.626 435.877C150.89 429.783 155.08 415.712 148.986 404.448C144.984 397.052 137.543 392.706 129.716 392.318C132.082 394.204 134.116 396.587 135.647 399.416C141.741 410.68 137.55 424.751 126.287 430.845C122.419 432.938 118.221 433.818 114.128 433.615Z" fill="url(#paint4_linear_510_6092)" fill-opacity="0.2"/>
</g>
<g filter="url(#filter2_d_510_6092)">
<path fill-rule="evenodd" clip-rule="evenodd" d="M118.664 433.394C117.256 433.603 116.676 435.431 117.941 436.083C124.525 439.48 132.619 439.669 139.626 435.877C150.89 429.783 155.08 415.712 148.986 404.448C145.761 398.488 140.302 394.508 134.208 392.985C132.827 392.64 132.053 394.396 132.97 395.485C133.976 396.678 134.875 397.99 135.647 399.416C141.741 410.68 137.551 424.751 126.287 430.846C123.842 432.169 121.264 433.007 118.664 433.394Z" fill="url(#paint5_linear_510_6092)" shape-rendering="crispEdges"/>
</g>
<g filter="url(#filter3_bf_510_6092)">
<ellipse cx="127.347" cy="436.571" rx="19.0162" ry="11.1868" transform="rotate(-1.7472 127.347 436.571)" fill="#1D1A25" fill-opacity="0.25"/>
</g>
<defs>
<filter id="filter0_d_510_6092" x="0.359147" y="0" width="643.328" height="916.991" filterUnits="userSpaceOnUse" color-interpolation-filters="sRGB">
<feFlood flood-opacity="0" result="BackgroundImageFix"/>
<feColorMatrix in="SourceAlpha" type="matrix" values="0 0 0 0 0 0 0 0 0 0 0 0 0 0 0 0 0 0 127 0" result="hardAlpha"/>
<feOffset dx="-0.977022" dy="7.32766"/>
<feGaussianBlur stdDeviation="1.83192"/>
<feComposite in2="hardAlpha" operator="out"/>
<feColorMatrix type="matrix" values="0 0 0 0 0 0 0 0 0 0 0 0 0 0 0 0 0 0 0.25 0"/>
<feBlend mode="normal" in2="BackgroundImageFix" result="effect1_dropShadow_510_6092"/>
<feBlend mode="normal" in="SourceGraphic" in2="effect1_dropShadow_510_6092" result="shape"/>
</filter>
<filter id="filter1_f_510_6092" x="62.8338" y="341.025" width="140.244" height="148.945" filterUnits="userSpaceOnUse" color-interpolation-filters="sRGB">
<feFlood flood-opacity="0" result="BackgroundImageFix"/>
<feBlend mode="normal" in="SourceGraphic" in2="BackgroundImageFix" result="shape"/>
<feGaussianBlur stdDeviation="25.6468" result="effect1_foregroundBlur_510_6092"/>
</filter>
<filter id="filter2_d_510_6092" x="80.6039" y="358.256" width="107.819" height="119.012" filterUnits="userSpaceOnUse" color-interpolation-filters="sRGB">
<feFlood flood-opacity="0" result="BackgroundImageFix"/>
<feColorMatrix in="SourceAlpha" type="matrix" values="0 0 0 0 0 0 0 0 0 0 0 0 0 0 0 0 0 0 127 0" result="hardAlpha"/>
<feOffset dy="1.95404"/>
<feGaussianBlur stdDeviation="18.3192"/>
<feComposite in2="hardAlpha" operator="out"/>
<feColorMatrix type="matrix" values="0 0 0 0 0.262745 0 0 0 0 0.478431 0 0 0 0 0.85098 0 0 0 0.3 0"/>
<feBlend mode="normal" in2="BackgroundImageFix" result="effect1_dropShadow_510_6092"/>
<feBlend mode="normal" in="SourceGraphic" in2="effect1_dropShadow_510_6092" result="shape"/>
</filter>
<filter id="filter3_bf_510_6092" x="68.2785" y="385.316" width="118.137" height="102.51" filterUnits="userSpaceOnUse" color-interpolation-filters="sRGB">
<feFlood flood-opacity="0" result="BackgroundImageFix"/>
<feGaussianBlur in="BackgroundImageFix" stdDeviation="6.83915"/>
<feComposite in2="SourceAlpha" operator="in" result="effect1_backgroundBlur_510_6092"/>
<feBlend mode="normal" in="SourceGraphic" in2="effect1_backgroundBlur_510_6092" result="shape"/>
<feGaussianBlur stdDeviation="20.0289" result="effect2_foregroundBlur_510_6092"/>
</filter>
<radialGradient id="paint0_radial_510_6092" cx="0" cy="0" r="1" gradientUnits="userSpaceOnUse" gradientTransform="translate(574.319 754.63) rotate(-139.706) scale(586.113 737.124)">
<stop stop-color="#D0A414"/>
<stop offset="0.148959" stop-color="#B17411"/>
<stop offset="0.266994" stop-color="#99380F"/>
<stop offset="0.400746" stop-color="#92350D"/>
<stop offset="0.609249" stop-color="#15085F"/>
<stop offset="1"/>
</radialGradient>
<radialGradient id="paint1_radial_510_6092" cx="0" cy="0" r="1" gradientUnits="userSpaceOnUse" gradientTransform="translate(574.319 754.63) rotate(-139.706) scale(586.113 737.124)">
<stop stop-color="#D0A414"/>
<stop offset="0.148959" stop-color="#B17411"/>
<stop offset="0.266994" stop-color="#99380F"/>
<stop offset="0.400746" stop-color="#92350D"/>
<stop offset="0.609249" stop-color="#15085F"/>
<stop offset="1"/>
</radialGradient>
<linearGradient id="paint2_linear_510_6092" x1="559.15" y1="619" x2="559.15" y2="691.3" gradientUnits="userSpaceOnUse">
<stop stop-color="#FF9385"/>
<stop offset="1" stop-color="#FFBF85" stop-opacity="0.43"/>
</linearGradient>
<radialGradient id="paint3_radial_510_6092" cx="0" cy="0" r="1" gradientUnits="userSpaceOnUse" gradientTransform="translate(333.036 727.968) scale(155.82 156.256)">
<stop stop-color="#FFE278"/>
<stop offset="1" stop-color="#FF9F21"/>
</radialGradient>
<linearGradient id="paint4_linear_510_6092" x1="118.873" y1="395.59" x2="123.436" y2="439.402" gradientUnits="userSpaceOnUse">
<stop offset="0.00563166" stop-color="#7920B8"/>
<stop offset="0.5" stop-color="#E13745"/>
<stop offset="1" stop-color="#799BB8"/>
</linearGradient>
<linearGradient id="paint5_linear_510_6092" x1="150.348" y1="406.965" x2="112.884" y2="427.236" gradientUnits="userSpaceOnUse">
<stop stop-color="#42B0FF"/>
<stop offset="0.419792" stop-color="#595FFF" stop-opacity="0.580208"/>
<stop offset="1" stop-color="#404642" stop-opacity="0"/>
</linearGradient>
<clipPath id="clip0_510_6092">
<rect width="588" height="415" fill="white" transform="translate(53 491)"/>
</clipPath>
</defs>
</svg>
