<svg xmlns="http://www.w3.org/2000/svg" width="47" height="51" fill="none"><path fill="#292732" d="M21.834 8.606c-6.375.717-11.714 5.817-12.59 12.192-.797 5.579 1.594 10.918 6.215 14.025 1.275.877 2.152 3.268 2.152 5.1v5.18c0 .478.319.797.797.797h.637v1.355A3.74 3.74 0 0 0 22.791 51h1.354a3.74 3.74 0 0 0 3.746-3.745V45.9h.637c.478 0 .797-.319.797-.797v-5.18c0-1.753.877-4.223 2.152-5.1 3.984-2.709 6.375-7.171 6.375-11.953-.08-8.287-7.252-15.3-16.018-14.264M27.652 40.8v3.427h-8.447V40.8zm-1.355 6.455a2.143 2.143 0 0 1-2.152 2.151h-1.354a2.143 2.143 0 0 1-2.152-2.151V45.9h5.658zm4.223-13.786c-1.593 1.036-2.63 3.586-2.789 5.737h-3.426v-9.881l2.39-2.39c.16.08.399.08.558.159h.16c1.195 0 2.31-.957 2.39-2.232.08-.637-.16-1.274-.558-1.753s-.956-.797-1.593-.797c-.638-.08-1.275.16-1.754.558-.478.399-.796.957-.796 1.594-.08.478.08 1.036.318 1.434l-1.992 1.993-1.912-1.913c.239-.319.398-.717.398-1.116.08-1.354-.876-2.47-2.231-2.55s-2.47.877-2.55 2.232c-.08 1.275.876 2.47 2.231 2.55h.16c.238 0 .478-.08.717-.08l2.39 2.39v9.882h-3.506c-.16-2.152-1.195-4.702-2.79-5.738-4.143-2.789-6.215-7.57-5.577-12.51.797-5.658 5.498-10.2 11.236-10.838 7.81-.877 14.184 5.26 14.184 12.67 0 4.303-2.072 8.288-5.658 10.599m-3.825-8.846c0-.239.08-.398.24-.557s.318-.16.478-.16h.08c.238 0 .398.08.557.24s.24.398.16.557c0 .478-.4.797-.877.717a.72.72 0 0 1-.558-.239c-.08-.16-.16-.398-.08-.558m-6.614.638c-.16.16-.398.239-.558.16-.478 0-.796-.4-.717-.877 0-.24.08-.399.24-.558s.318-.16.477-.16h.08c.399 0 .797.399.717.877 0 .24-.08.399-.239.558m3.347-19.683c.478 0 .797-.319.797-.797V.797c0-.478-.319-.797-.797-.797s-.797.319-.797.797V4.78c0 .399.319.797.797.797m15.46 1.275-2.79 2.79a.77.77 0 0 0 0 1.115.77.77 0 0 0 1.116 0l2.79-2.79a.77.77 0 0 0 0-1.115.77.77 0 0 0-1.116 0M9.642 36.098l-2.789 2.79a.77.77 0 0 0 0 1.115.77.77 0 0 0 1.116 0l2.789-2.789a.77.77 0 0 0 0-1.116.77.77 0 0 0-1.116 0M46.06 22.631h-3.984c-.478 0-.797.319-.797.797s.319.797.797.797h3.984c.479 0 .797-.319.797-.797s-.319-.797-.797-.797m-41.278 0H.797c-.478 0-.797.319-.797.797s.319.797.797.797H4.78c.478 0 .797-.319.797-.797a.8.8 0 0 0-.797-.797m32.433 13.467a.77.77 0 0 0-1.116 0 .77.77 0 0 0 0 1.116l2.79 2.79a.77.77 0 0 0 1.115 0 .77.77 0 0 0 0-1.116zM9.642 10.838a.77.77 0 0 0 1.116 0 .77.77 0 0 0 0-1.116l-2.79-2.79a.77.77 0 0 0-1.115 0 .77.77 0 0 0 0 1.116z"/></svg>