<svg xmlns="http://www.w3.org/2000/svg" width="70" height="52" fill="none"><path fill="#292732" d="M62.527 45.323a1.02 1.02 0 0 0-.947.635 1.033 1.033 0 0 0 .747 1.404 1.02 1.02 0 0 0 1.052-.438 1.032 1.032 0 0 0-.46-1.523 1 1 0 0 0-.392-.078m4.397-18.404h-.89V19.09c-.001-1-.397-1.96-1.102-2.668a3.76 3.76 0 0 0-2.658-1.106h-8.078V4.275c0-1-.397-1.96-1.102-2.668A3.76 3.76 0 0 0 50.437.5H3.76c-.997.001-1.953.4-2.658 1.107A3.79 3.79 0 0 0 0 4.275v33.377c.001 1.001.398 1.96 1.102 2.668a3.76 3.76 0 0 0 2.658 1.107h13.284a5.77 5.77 0 0 1-.65 3.7l-1.79 3.21a2.13 2.13 0 0 0 .794 2.882c.32.184.683.281 1.052.281h8.992q.07 0 .137-.01.13.01.262.01h41.083c.815 0 1.597-.327 2.174-.906A3.1 3.1 0 0 0 70 48.411V30.007c0-.819-.325-1.604-.902-2.183a3.07 3.07 0 0 0-2.174-.905m-4.65-9.544c.453 0 .888.181 1.208.503s.5.758.501 1.212v7.829h-2.366V20.78a1.03 1.03 0 0 0-.633-.951 1 1 0 0 0-.392-.078h-30.67a1.02 1.02 0 0 0-.948.635 1 1 0 0 0-.078.394V40.9a1.03 1.03 0 0 0 .633.952c.124.051.258.078.392.078h25.133v2.376H26.529V19.091c.001-.455.181-.892.502-1.213.32-.322.754-.503 1.207-.503zM2.051 4.275c0-.455.18-.891.5-1.213.321-.321.756-.502 1.209-.503h46.677c.453 0 .887.182 1.208.503.32.322.5.758.5 1.213v11.04H28.239c-.996.002-1.952.4-2.657 1.108a3.79 3.79 0 0 0-1.102 2.668v12.613H2.05zM3.76 39.368c-.453 0-.888-.181-1.208-.503s-.5-.758-.501-1.213v-3.889h22.428v5.605H3.76m18.321 6.369v1.988c0 .597.141 1.185.413 1.716H16.45a.065.065 0 0 1-.066-.065q0-.017.009-.032l1.79-3.211a7.85 7.85 0 0 0 .93-4.706h5.366v2.879h-.973c-.377 0-.74.151-1.007.42a1.44 1.44 0 0 0-.418 1.01m3.76 3.704c-.453 0-.887-.181-1.208-.503s-.5-.758-.5-1.213v-1.36h30.92v2.046c0 .351.06.7.177 1.03zm29.213-19.434v9.864H30.947V21.81h28.62v5.109H58.13c-.816 0-1.598.326-2.174.905a3.1 3.1 0 0 0-.902 2.183m12.895 18.404a1.025 1.025 0 0 1-1.025 1.03H58.13a1.024 1.024 0 0 1-1.026-1.03V30.007c0-.273.109-.534.301-.728.192-.192.453-.301.725-.301h2.355q.107.01.213 0h4.205q.105.01.212 0h1.809a1.025 1.025 0 0 1 1.025 1.03z"/></svg>