<svg width="379" height="787" viewBox="0 0 379 787" fill="none" xmlns="http://www.w3.org/2000/svg">
<g filter="url(#filter0_d_330_3590)">
<path d="M62 381.5C61.1949 373.449 64.3013 365 65 361C65.4986 358.145 65.5 356.5 64.4804 351C63.6667 346.611 63 345.5 60.5 342C55.6773 335.248 48.8267 335.52 43.6949 329C39.1365 323.209 37.2805 323.064 35.5 312C33.7194 300.936 36.3053 292.924 43.6949 284.5C48.7978 278.682 54.2755 278.598 60.5 274C66.7351 269.394 71.3625 267.555 75.5 261C80.2069 253.543 80.975 247.81 80.5919 239C80.1376 228.553 76.7962 222.704 71 214C63.3412 202.5 53.3648 199.014 43.6949 191.5C34.1541 184.086 29.7608 178.514 23 168.5C16.3058 158.584 12.956 152.454 9.49997 141C6.19743 130.055 5.28815 123.43 5.49997 112C5.68673 101.921 6.50059 96.1235 9.49997 86.4999C12.9559 75.4116 16.2016 69.4167 23 59.9999C29.7396 50.6644 35.139 46.705 43.6949 38.9999C139.837 -47.5826 375 38.9999 375 38.9999L375.897 321.693V730.049V772.1C375.897 775.031 348.836 780.893 343.899 761.352C338.037 738.148 320.939 746.453 315.566 726.912C310.192 707.372 292.963 696.823 280.881 692.228C271.981 688.843 250.838 688.32 232.763 702.975C219.186 713.984 202.622 713.135 193.927 711.524C185.231 709.914 177.073 703.22 164.372 688.32C147.503 668.532 122.293 668.535 116.834 668.535H116.742C81.8132 668.535 65.6923 663.895 50.5485 645.82C35.4046 627.745 44.9307 607.227 50.5485 599.655C56.1664 592.083 65.6763 580.859 77.1574 575.718C107.704 562.04 91.0949 558.132 91.0949 558.132C91.0949 558.132 80.5919 542.744 80.5919 537.37C80.5919 508.497 99.2168 514.421 104.285 485.1C107.704 465.315 115.032 467.513 111.612 450.171C108.494 434.355 91.1859 420.605 82 412.5C78.7086 409.596 72.9285 406.524 69 401C64.3105 394.407 62.8051 389.551 62 381.5Z" fill="url(#paint0_radial_330_3590)"/>
</g>
<defs>
<filter id="filter0_d_330_3590" x="0.830094" y="0.518799" width="377.754" height="785.73" filterUnits="userSpaceOnUse" color-interpolation-filters="sRGB">
<feFlood flood-opacity="0" result="BackgroundImageFix"/>
<feColorMatrix in="SourceAlpha" type="matrix" values="0 0 0 0 0 0 0 0 0 0 0 0 0 0 0 0 0 0 127 0" result="hardAlpha"/>
<feOffset dx="-0.977022" dy="7.32766"/>
<feGaussianBlur stdDeviation="1.83192"/>
<feComposite in2="hardAlpha" operator="out"/>
<feColorMatrix type="matrix" values="0 0 0 0 0 0 0 0 0 0 0 0 0 0 0 0 0 0 0.25 0"/>
<feBlend mode="normal" in2="BackgroundImageFix" result="effect1_dropShadow_330_3590"/>
<feBlend mode="normal" in="SourceGraphic" in2="effect1_dropShadow_330_3590" result="shape"/>
</filter>
<radialGradient id="paint0_radial_330_3590" cx="0" cy="0" r="1" gradientUnits="userSpaceOnUse" gradientTransform="translate(337.06 645.818) rotate(-128.776) scale(415.757 517.551)">
<stop stop-color="#D0A414"/>
<stop offset="0.148959" stop-color="#B17411"/>
<stop offset="0.266994" stop-color="#99380F"/>
<stop offset="0.400746" stop-color="#92350D"/>
<stop offset="0.609249" stop-color="#15085F"/>
<stop offset="1"/>
</radialGradient>
</defs>
</svg>
