<svg width="85" height="19" viewBox="0 0 85 19" fill="none" xmlns="http://www.w3.org/2000/svg">
<line x1="1.46154" y1="3.6538" x2="1.46154" y2="15.3461" stroke="url(#paint0_linear_329_1158)" stroke-width="2.92308" stroke-linecap="round"/>
<line x1="8.76928" y1="5.11535" x2="8.76928" y2="13.8846" stroke="url(#paint1_linear_329_1158)" stroke-width="2.92308" stroke-linecap="round"/>
<line x1="16.0769" y1="6.57689" x2="16.0769" y2="12.423" stroke="url(#paint2_linear_329_1158)" stroke-width="2.92308" stroke-linecap="round"/>
<path d="M29.8438 12.1897C29.8438 11.8757 29.7915 11.5957 29.6868 11.3497C29.5821 11.1038 29.4094 10.884 29.1687 10.6903C28.9332 10.4914 28.614 10.3083 28.211 10.1408C27.8133 9.96811 27.3161 9.79803 26.7195 9.63056C26.149 9.46832 25.6336 9.29039 25.173 9.09675C24.7125 8.90312 24.3174 8.6807 23.9877 8.4295C23.6632 8.1783 23.4146 7.88523 23.2419 7.55029C23.0692 7.21012 22.9829 6.815 22.9829 6.36493C22.9829 5.92533 23.0771 5.52498 23.2655 5.16387C23.4539 4.80277 23.7181 4.49139 24.0583 4.22972C24.4037 3.96805 24.8093 3.76656 25.2751 3.62526C25.7461 3.48396 26.2616 3.41331 26.8215 3.41331C27.6222 3.41331 28.313 3.56508 28.8939 3.86861C29.4801 4.17215 29.9328 4.58297 30.252 5.10107C30.5765 5.61394 30.7387 6.18962 30.7387 6.82809H29.7732C29.7732 6.33092 29.6554 5.8887 29.4199 5.50143C29.1896 5.10892 28.8547 4.80277 28.4151 4.58297C27.9807 4.35794 27.4495 4.24542 26.8215 4.24542C26.1935 4.24542 25.665 4.34223 25.2358 4.53587C24.8119 4.72427 24.4901 4.97809 24.2703 5.29733C24.0557 5.61133 23.9484 5.96196 23.9484 6.34923C23.9484 6.62137 24.0007 6.87257 24.1054 7.10284C24.2101 7.32787 24.3802 7.53983 24.6157 7.73869C24.8564 7.93233 25.173 8.1155 25.5655 8.2882C25.958 8.45567 26.4421 8.61528 27.0178 8.76705C27.6249 8.93452 28.1639 9.1203 28.6349 9.32441C29.1059 9.52851 29.5036 9.76401 29.8281 10.0309C30.1526 10.2926 30.3985 10.5987 30.566 10.9494C30.7335 11.3 30.8172 11.7082 30.8172 12.174C30.8172 12.6397 30.7178 13.0584 30.5189 13.43C30.3253 13.7963 30.0505 14.1077 29.6947 14.3641C29.344 14.6206 28.928 14.8168 28.4465 14.9529C27.9703 15.089 27.4495 15.157 26.8843 15.157C26.3767 15.157 25.8717 15.0916 25.3693 14.9607C24.8669 14.8299 24.4063 14.6284 23.9877 14.3563C23.5742 14.0789 23.2419 13.7231 22.9907 13.2887C22.7447 12.8543 22.6218 12.3362 22.6218 11.7344H23.5795C23.5795 12.2158 23.6763 12.6214 23.8699 12.9511C24.0635 13.2808 24.32 13.5477 24.6392 13.7518C24.9637 13.9559 25.3196 14.1051 25.7068 14.1993C26.0993 14.2883 26.4918 14.3327 26.8843 14.3327C27.4862 14.3327 28.0069 14.2438 28.4465 14.0658C28.8913 13.8879 29.2341 13.6393 29.4749 13.3201C29.7208 12.9956 29.8438 12.6188 29.8438 12.1897ZM33.7296 6.50623V15H32.7954V6.50623H33.7296ZM32.6306 4.04917C32.6306 3.87123 32.6855 3.72208 32.7954 3.60171C32.9106 3.47611 33.0676 3.41331 33.2664 3.41331C33.4653 3.41331 33.6223 3.47611 33.7374 3.60171C33.8578 3.72208 33.918 3.87123 33.918 4.04917C33.918 4.22187 33.8578 4.37102 33.7374 4.49662C33.6223 4.61699 33.4653 4.67717 33.2664 4.67717C33.0676 4.67717 32.9106 4.61699 32.7954 4.49662C32.6855 4.37102 32.6306 4.22187 32.6306 4.04917ZM39.5072 6.50623V7.27554H35.2525V6.50623H39.5072ZM36.8147 4.32392H37.7488V12.9354C37.7488 13.3279 37.8012 13.6236 37.9058 13.8225C38.0105 14.0214 38.1466 14.1548 38.314 14.2228C38.4815 14.2909 38.662 14.3249 38.8557 14.3249C38.997 14.3249 39.133 14.317 39.2639 14.3013C39.3947 14.2804 39.5125 14.2595 39.6171 14.2385L39.6564 15.0314C39.5412 15.068 39.3921 15.0968 39.2089 15.1178C39.0258 15.1439 38.8426 15.157 38.6594 15.157C38.2983 15.157 37.9791 15.0916 37.7017 14.9607C37.4243 14.8247 37.2072 14.5944 37.0502 14.2699C36.8932 13.9402 36.8147 13.4928 36.8147 12.9276V4.32392ZM44.7589 15.157C44.2042 15.157 43.6939 15.055 43.2282 14.8508C42.7676 14.6467 42.3647 14.3589 42.0192 13.9873C41.6791 13.6158 41.4148 13.1762 41.2264 12.6685C41.0432 12.1557 40.9516 11.5957 40.9516 10.9886V10.6511C40.9516 9.99689 41.0485 9.40552 41.2421 8.87695C41.4357 8.34838 41.7026 7.8957 42.0428 7.51889C42.383 7.14209 42.7702 6.85425 43.2046 6.65539C43.6442 6.45128 44.1047 6.34923 44.5862 6.34923C45.1253 6.34923 45.6041 6.44605 46.0228 6.63969C46.4415 6.82809 46.7921 7.09761 47.0747 7.44824C47.3625 7.79364 47.5797 8.20446 47.7262 8.6807C47.8728 9.15171 47.946 9.67243 47.946 10.2429V10.8159H41.5168V10.0152H47.0119V9.90531C47.0014 9.42907 46.9046 8.98424 46.7214 8.5708C46.5435 8.15213 46.2766 7.81196 45.9207 7.55029C45.5649 7.28862 45.12 7.15779 44.5862 7.15779C44.1885 7.15779 43.8221 7.24152 43.4872 7.40899C43.1575 7.57646 42.8723 7.81719 42.6316 8.1312C42.3961 8.43997 42.2129 8.80892 42.0821 9.23806C41.9564 9.66196 41.8936 10.133 41.8936 10.6511V10.9886C41.8936 11.4596 41.9617 11.8992 42.0978 12.3074C42.2391 12.7104 42.4379 13.0663 42.6944 13.375C42.956 13.6838 43.2648 13.9245 43.6207 14.0972C43.9765 14.2699 44.369 14.3563 44.7982 14.3563C45.3006 14.3563 45.7454 14.2647 46.1327 14.0815C46.52 13.8931 46.868 13.5975 47.1767 13.1945L47.7655 13.6498C47.5823 13.9219 47.3521 14.1731 47.0747 14.4034C46.8026 14.6337 46.4755 14.8168 46.0934 14.9529C45.7114 15.089 45.2666 15.157 44.7589 15.157ZM56.8873 13.4378V15H51.1489V13.4378H56.8873ZM51.6984 3.57031V15H49.728V3.57031H51.6984ZM57.8607 10.8473V10.6668C57.8607 10.0545 57.9496 9.48664 58.1276 8.9633C58.3055 8.43473 58.5619 7.97681 58.8969 7.58954C59.237 7.19704 59.6505 6.8935 60.1372 6.67894C60.6291 6.45913 61.1839 6.34923 61.8014 6.34923C62.4242 6.34923 62.9789 6.45913 63.4656 6.67894C63.9576 6.8935 64.3736 7.19704 64.7138 7.58954C65.0539 7.97681 65.313 8.43473 65.4909 8.9633C65.6689 9.48664 65.7578 10.0545 65.7578 10.6668V10.8473C65.7578 11.4596 65.6689 12.0274 65.4909 12.5508C65.313 13.0741 65.0539 13.532 64.7138 13.9245C64.3736 14.3118 63.9602 14.6153 63.4735 14.8351C62.9868 15.0497 62.4346 15.157 61.8171 15.157C61.1943 15.157 60.637 15.0497 60.145 14.8351C59.6583 14.6153 59.2449 14.3118 58.9047 13.9245C58.5646 13.532 58.3055 13.0741 58.1276 12.5508C57.9496 12.0274 57.8607 11.4596 57.8607 10.8473ZM59.7525 10.6668V10.8473C59.7525 11.2294 59.7918 11.5905 59.8703 11.9306C59.9488 12.2708 60.0718 12.5691 60.2392 12.8255C60.4067 13.082 60.6213 13.2835 60.8829 13.43C61.1446 13.5765 61.456 13.6498 61.8171 13.6498C62.1677 13.6498 62.4713 13.5765 62.7277 13.43C62.9894 13.2835 63.2039 13.082 63.3714 12.8255C63.5389 12.5691 63.6619 12.2708 63.7404 11.9306C63.8241 11.5905 63.866 11.2294 63.866 10.8473V10.6668C63.866 10.29 63.8241 9.93409 63.7404 9.59916C63.6619 9.25899 63.5363 8.95807 63.3636 8.6964C63.1961 8.43473 62.9815 8.23063 62.7199 8.0841C62.4634 7.93233 62.1573 7.85645 61.8014 7.85645C61.4455 7.85645 61.1368 7.93233 60.8751 8.0841C60.6187 8.23063 60.4067 8.43473 60.2392 8.6964C60.0718 8.95807 59.9488 9.25899 59.8703 9.59916C59.7918 9.93409 59.7525 10.29 59.7525 10.6668ZM72.7836 6.50623H74.5028V14.7645C74.5028 15.5286 74.3406 16.1775 74.0161 16.7113C73.6916 17.2451 73.2389 17.6507 72.658 17.9281C72.0771 18.2107 71.4046 18.352 70.6406 18.352C70.3161 18.352 69.955 18.3049 69.5573 18.2107C69.1648 18.1165 68.7827 17.9647 68.4112 17.7554C68.0448 17.5513 67.7387 17.2818 67.4927 16.9468L68.3798 15.8321C68.6833 16.1932 69.0182 16.4575 69.3846 16.625C69.7509 16.7924 70.1355 16.8762 70.5385 16.8762C70.9729 16.8762 71.3418 16.795 71.6454 16.6328C71.9541 16.4758 72.1923 16.2429 72.3597 15.9342C72.5272 15.6254 72.6109 15.2486 72.6109 14.8037V8.4295L72.7836 6.50623ZM67.0138 10.8473V10.6825C67.0138 10.0388 67.0923 9.45262 67.2493 8.92405C67.4063 8.39025 67.6314 7.93233 67.9244 7.55029C68.2175 7.16302 68.5734 6.86734 68.9921 6.66324C69.4107 6.4539 69.8843 6.34923 70.4129 6.34923C70.9624 6.34923 71.4308 6.44867 71.8181 6.64754C72.2106 6.8464 72.5377 7.13162 72.7993 7.50319C73.061 7.86953 73.2651 8.30913 73.4116 8.822C73.5634 9.32964 73.6759 9.89484 73.7492 10.5176V11.0436C73.6812 11.6506 73.566 12.2054 73.4038 12.7078C73.2416 13.2102 73.027 13.6446 72.7601 14.0109C72.4932 14.3772 72.1635 14.6598 71.771 14.8587C71.3837 15.0576 70.9258 15.157 70.3972 15.157C69.8791 15.157 69.4107 15.0497 68.9921 14.8351C68.5786 14.6206 68.2228 14.3197 67.9244 13.9324C67.6314 13.5451 67.4063 13.0898 67.2493 12.5665C67.0923 12.0379 67.0138 11.4649 67.0138 10.8473ZM68.9057 10.6825V10.8473C68.9057 11.2346 68.9423 11.5957 69.0156 11.9306C69.0941 12.2656 69.2119 12.5612 69.3689 12.8177C69.5311 13.0689 69.7352 13.2678 69.9812 13.4143C70.2324 13.5556 70.5281 13.6262 70.8682 13.6262C71.3131 13.6262 71.6768 13.532 71.9594 13.3436C72.2472 13.1552 72.467 12.9014 72.6188 12.5822C72.7758 12.2577 72.8857 11.8966 72.9485 11.4989V10.078C72.9171 9.76924 72.8517 9.48141 72.7522 9.21451C72.658 8.9476 72.5298 8.71472 72.3676 8.51585C72.2053 8.31175 72.0012 8.15475 71.7553 8.04485C71.5093 7.92971 71.2189 7.87215 70.8839 7.87215C70.5438 7.87215 70.2481 7.94541 69.9969 8.09195C69.7457 8.23848 69.5389 8.43997 69.3767 8.6964C69.2197 8.95284 69.102 9.25114 69.0235 9.59131C68.945 9.93148 68.9057 10.2952 68.9057 10.6825ZM76.1042 10.8473V10.6668C76.1042 10.0545 76.1932 9.48664 76.3711 8.9633C76.549 8.43473 76.8055 7.97681 77.1404 7.58954C77.4806 7.19704 77.894 6.8935 78.3807 6.67894C78.8727 6.45913 79.4274 6.34923 80.0449 6.34923C80.6677 6.34923 81.2224 6.45913 81.7092 6.67894C82.2011 6.8935 82.6171 7.19704 82.9573 7.58954C83.2975 7.97681 83.5565 8.43473 83.7345 8.9633C83.9124 9.48664 84.0014 10.0545 84.0014 10.6668V10.8473C84.0014 11.4596 83.9124 12.0274 83.7345 12.5508C83.5565 13.0741 83.2975 13.532 82.9573 13.9245C82.6171 14.3118 82.2037 14.6153 81.717 14.8351C81.2303 15.0497 80.6782 15.157 80.0606 15.157C79.4379 15.157 78.8805 15.0497 78.3886 14.8351C77.9019 14.6153 77.4884 14.3118 77.1483 13.9245C76.8081 13.532 76.549 13.0741 76.3711 12.5508C76.1932 12.0274 76.1042 11.4596 76.1042 10.8473ZM77.9961 10.6668V10.8473C77.9961 11.2294 78.0353 11.5905 78.1138 11.9306C78.1923 12.2708 78.3153 12.5691 78.4828 12.8255C78.6502 13.082 78.8648 13.2835 79.1265 13.43C79.3882 13.5765 79.6995 13.6498 80.0606 13.6498C80.4113 13.6498 80.7148 13.5765 80.9712 13.43C81.2329 13.2835 81.4475 13.082 81.615 12.8255C81.7824 12.5691 81.9054 12.2708 81.9839 11.9306C82.0676 11.5905 82.1095 11.2294 82.1095 10.8473V10.6668C82.1095 10.29 82.0676 9.93409 81.9839 9.59916C81.9054 9.25899 81.7798 8.95807 81.6071 8.6964C81.4396 8.43473 81.2251 8.23063 80.9634 8.0841C80.707 7.93233 80.4008 7.85645 80.0449 7.85645C79.6891 7.85645 79.3803 7.93233 79.1186 8.0841C78.8622 8.23063 78.6502 8.43473 78.4828 8.6964C78.3153 8.95807 78.1923 9.25899 78.1138 9.59916C78.0353 9.93409 77.9961 10.29 77.9961 10.6668Z" fill="white"/>
<defs>
<linearGradient id="paint0_linear_329_1158" x1="-0.5" y1="2.19226" x2="-0.5" y2="16.8076" gradientUnits="userSpaceOnUse">
<stop stop-color="#EC008C"/>
<stop offset="1" stop-color="#FC6767"/>
</linearGradient>
<linearGradient id="paint1_linear_329_1158" x1="6.80774" y1="3.65381" x2="6.80774" y2="15.3461" gradientUnits="userSpaceOnUse">
<stop stop-color="#E65C00"/>
<stop offset="1" stop-color="#F9D423"/>
</linearGradient>
<linearGradient id="paint2_linear_329_1158" x1="14.1154" y1="5.11536" x2="14.1154" y2="13.8846" gradientUnits="userSpaceOnUse">
<stop stop-color="#00D2FF"/>
<stop offset="1" stop-color="#3A7BD5"/>
</linearGradient>
</defs>
</svg>
