<svg xmlns="http://www.w3.org/2000/svg" width="40" height="40" fill="none"><path fill="#fff" d="M38.113 13.655v15.11a2.93 2.93 0 0 1-2.93 2.93H4.817a2.933 2.933 0 0 1-2.93-2.938V13.663a2.94 2.94 0 0 1 2.93-2.939h30.366a2.93 2.93 0 0 1 2.93 2.93"/><path fill="#EFEFEF" d="M38.113 18.914v9.851a2.93 2.93 0 0 1-2.93 2.93H4.817a2.933 2.933 0 0 1-2.93-2.938V23.33c4.119 2 9.361 3.204 15.086 3.204 9.177 0 17.15-3.091 21.14-7.62"/><path fill="#605E67" d="M38.113 13.655v15.11a2.93 2.93 0 0 1-2.93 2.93h-1.285v-20.97h1.285a2.93 2.93 0 0 1 2.93 2.93M4.432 17.902v6.35l.963.49.241.121v6.833h-.819a2.933 2.933 0 0 1-2.93-2.939V13.663a2.94 2.94 0 0 1 2.93-2.939h.82v6.568z"/><path fill="#4B4952" d="M35.182 32.073H4.817a3.316 3.316 0 0 1-3.308-3.316V13.663a3.316 3.316 0 0 1 3.308-3.316h30.365a3.31 3.31 0 0 1 3.308 3.308v15.11a3.31 3.31 0 0 1-3.308 3.308M4.817 11.102a2.56 2.56 0 0 0-2.553 2.561v15.094a2.56 2.56 0 0 0 2.553 2.561h30.365a2.556 2.556 0 0 0 2.554-2.553v-15.11a2.556 2.556 0 0 0-2.554-2.553z"/><path fill="#928F9F" d="M38.113 18.914v9.851a2.93 2.93 0 0 1-2.93 2.93h-1.285v-9.361c1.67-1.004 3.1-2.152 4.215-3.42"/><path fill="#4B4952" d="M35.182 32.073h-1.281a.377.377 0 0 1-.378-.377V10.724c0-.208.17-.377.378-.377h1.281a3.31 3.31 0 0 1 3.308 3.308v15.11a3.31 3.31 0 0 1-3.308 3.308m-.904-.755h.904a2.556 2.556 0 0 0 2.554-2.553v-15.11a2.556 2.556 0 0 0-2.554-2.553h-.904z"/><path fill="#928F9F" d="M5.636 24.863v6.833h-.819a2.933 2.933 0 0 1-2.93-2.939V23.33a28 28 0 0 0 3.508 1.414z"/><path fill="#4B4952" d="M5.636 32.073h-.819a3.316 3.316 0 0 1-3.308-3.316V13.663a3.316 3.316 0 0 1 3.308-3.316h.819c.209 0 .377.169.377.378v6.566c0 .143-.08.273-.206.337l-.998.506v5.886l.998.506a.38.38 0 0 1 .206.337v6.833a.377.377 0 0 1-.377.377m-.819-20.971a2.56 2.56 0 0 0-2.553 2.561v15.094a2.56 2.56 0 0 0 2.553 2.561h.442v-6.223l-.998-.506a.38.38 0 0 1-.207-.336v-6.351c0-.143.08-.273.207-.337l.998-.506v-5.957z"/><path fill="#605E67" d="M20 19.706a7.426 7.426 0 1 0 0-14.853 7.426 7.426 0 0 0 0 14.853"/><path fill="#928F9F" d="M27.427 12.282A7.425 7.425 0 0 1 20 19.709a7.405 7.405 0 0 1-6.833-4.529c1.172.434 2.465.667 3.822.667 4.994 0 9.097-3.164 9.49-7.194a7.36 7.36 0 0 1 .948 3.629"/><path fill="#4B4952" d="M20 20.083c-4.303 0-7.804-3.5-7.804-7.804 0-4.303 3.5-7.804 7.804-7.804 4.303 0 7.804 3.501 7.804 7.804s-3.5 7.804-7.804 7.804M20 5.23a7.057 7.057 0 0 0-7.05 7.049c0 3.887 3.163 7.05 7.05 7.05a7.06 7.06 0 0 0 7.05-7.05A7.057 7.057 0 0 0 20 5.229"/><path fill="#E3EBED" d="M24.634 18.066A7.32 7.32 0 0 1 20 19.701a7.32 7.32 0 0 1-4.634-1.635 4.63 4.63 0 0 1 2.837-4.113 2.54 2.54 0 0 1-.823-1.884c0-1.451 1.18-2.62 2.62-2.62s2.62 1.169 2.62 2.62a2.54 2.54 0 0 1-.823 1.883 4.63 4.63 0 0 1 2.837 4.114"/><path fill="#4B4952" d="M20 20.079a7.75 7.75 0 0 1-4.871-1.719.38.38 0 0 1-.14-.306 5.03 5.03 0 0 1 2.598-4.222 2.95 2.95 0 0 1-.584-1.763A3 3 0 0 1 20 9.07a3 3 0 0 1 2.997 2.998c0 .641-.209 1.26-.584 1.763a5.03 5.03 0 0 1 2.598 4.221.38.38 0 0 1-.14.307A7.75 7.75 0 0 1 20 20.08m-4.246-2.187A7 7 0 0 0 20 19.324a6.9 6.9 0 0 0 4.246-1.432 4.27 4.27 0 0 0-2.595-3.591.376.376 0 0 1-.109-.627c.452-.413.7-.983.7-1.605A2.245 2.245 0 0 0 20 9.826a2.245 2.245 0 0 0-2.243 2.243c0 .622.249 1.192.7 1.605a.378.378 0 0 1-.108.627 4.27 4.27 0 0 0-2.595 3.591M36.04 25.066a.377.377 0 0 1-.378-.377v-6.958a.377.377 0 1 1 .755 0v6.958a.377.377 0 0 1-.377.377"/><path fill="#E3EBED" d="M18.093 22.794v3.572a.9.9 0 0 1-.907.908h-3.573a.9.9 0 0 1-.899-.908v-3.572c0-.498.401-.9.9-.9h3.572a.9.9 0 0 1 .907.9"/><path fill="#605E67" d="M27.277 22.794v3.572a.9.9 0 0 1-.908.908h-3.573a.9.9 0 0 1-.899-.908v-3.572c0-.498.402-.9.9-.9h3.572a.9.9 0 0 1 .907.9M18.098 30.667v3.573a.9.9 0 0 1-.907.907h-3.573a.9.9 0 0 1-.9-.907v-3.573c0-.498.402-.9.9-.9h3.573a.9.9 0 0 1 .907.9"/><path fill="#E3EBED" d="M27.281 30.667v3.573a.9.9 0 0 1-.907.907H22.8a.9.9 0 0 1-.9-.907v-3.573c0-.498.402-.9.9-.9h3.573a.9.9 0 0 1 .907.9"/><path fill="#4B4952" d="M17.186 27.651h-3.573a1.28 1.28 0 0 1-1.276-1.285v-3.573c0-.703.572-1.276 1.276-1.276h3.573c.708 0 1.285.573 1.285 1.276v3.573c0 .709-.577 1.285-1.285 1.285m-3.573-5.38a.523.523 0 0 0-.522.522v3.573c0 .297.23.53.522.53h3.573c.297 0 .53-.233.53-.53v-3.573a.52.52 0 0 0-.53-.521zM26.37 27.651h-3.574a1.28 1.28 0 0 1-1.276-1.285v-3.573c0-.703.572-1.276 1.276-1.276h3.573c.709 0 1.285.573 1.285 1.276v3.573c0 .709-.576 1.285-1.285 1.285m-3.574-5.38a.523.523 0 0 0-.522.522v3.573c0 .297.23.53.522.53h3.573c.297 0 .53-.233.53-.53v-3.573a.52.52 0 0 0-.53-.521zM17.19 35.525h-3.572a1.28 1.28 0 0 1-1.276-1.285v-3.573c0-.704.572-1.277 1.276-1.277h3.573c.708 0 1.285.573 1.285 1.277v3.573c0 .708-.577 1.285-1.285 1.285m-3.572-5.38a.52.52 0 0 0-.522.522v3.573c0 .297.23.53.522.53h3.573c.297 0 .53-.233.53-.53v-3.573a.52.52 0 0 0-.53-.522zM26.374 35.525H22.8a1.28 1.28 0 0 1-1.276-1.285v-3.573c0-.704.572-1.277 1.276-1.277h3.573c.708 0 1.285.573 1.285 1.277v3.573c0 .708-.577 1.285-1.285 1.285m-3.573-5.38a.52.52 0 0 0-.522.522v3.573c0 .297.23.53.522.53h3.573c.297 0 .53-.233.53-.53v-3.573a.52.52 0 0 0-.53-.522z"/></svg>