<svg width="38" height="38" viewBox="0 0 38 38" fill="none" xmlns="http://www.w3.org/2000/svg">
<path d="M21.8612 25.5623L23.1713 34.0566H14.8008L16.111 25.5623H21.8612Z" fill="white"/>
<path d="M23.1714 34.4341H14.8006C14.6904 34.4341 14.5858 34.3858 14.5143 34.3025C14.4424 34.2189 14.4107 34.108 14.4277 33.9992L15.7378 25.5046C15.7661 25.3207 15.9246 25.1848 16.1107 25.1848H21.8614C22.0475 25.1848 22.2059 25.3207 22.2343 25.5046L23.5444 33.9992C23.5613 34.108 23.5296 34.2189 23.4578 34.3025C23.3863 34.3858 23.2816 34.4341 23.1714 34.4341ZM15.2406 33.6794H22.7314L21.5378 25.9395H16.4343L15.2406 33.6794Z" fill="#C6DDEA"/>
<path d="M37.1111 3.54372V25.3076C37.1111 26.6362 36.0303 27.7169 34.7018 27.7169H3.29799C1.96943 27.7169 0.888672 26.6362 0.888672 25.3076V3.54372C0.888672 2.21516 1.96943 1.1344 3.29799 1.1344H34.7018C36.0303 1.1344 37.1111 2.21516 37.1111 3.54372Z" fill="white"/>
<path d="M37.1073 3.54284V25.3036C37.1073 26.6339 36.0339 27.7166 34.7035 27.7166H3.29766C1.96728 27.7166 0.884644 26.6339 0.884644 25.3036V14.6056C4.25184 19.2389 9.53662 22.2208 15.482 22.2208C25.6478 22.2208 33.8961 12.6169 33.8961 1.84544C33.8961 1.60694 33.8961 1.36838 33.8777 1.12982H34.7035C36.0339 1.12982 37.1073 2.21246 37.1073 3.54284Z" fill="#BBD6EA"/>
<path d="M0.888672 24.3026V25.3076C0.888672 26.6362 1.96943 27.7169 3.29799 27.7169H34.7018C36.0303 27.7169 37.1111 26.6362 37.1111 25.3076V24.3026H0.888672Z" fill="#F4F8F9"/>
<path d="M37.1111 4.54873V3.54372C37.1111 2.21512 36.0303 1.1344 34.7018 1.1344H3.29799C1.96943 1.1344 0.888672 2.21512 0.888672 3.54372V4.54873H37.1111Z" fill="#889CA9"/>
<path d="M34.7018 28.0942H3.29818C1.76147 28.0942 0.511475 26.8442 0.511475 25.3075V3.54378C0.511475 2.00708 1.76147 0.75708 3.29818 0.75708H34.7018C36.2386 0.75708 37.4886 2.00708 37.4886 3.54378V25.3075C37.4886 26.8442 36.2386 28.0942 34.7018 28.0942ZM3.29818 1.5118C2.1779 1.5118 1.26619 2.4235 1.26619 3.54378V25.3075C1.26619 26.4278 2.1779 27.3395 3.29818 27.3395H34.7018C35.8221 27.3395 36.7338 26.4278 36.7338 25.3075V3.54378C36.7338 2.4235 35.8221 1.5118 34.7018 1.5118H3.29818Z" fill="#C6DDEA"/>
<path d="M34.7018 28.0942H3.29818C1.76147 28.0942 0.511475 26.8442 0.511475 25.3075V24.3025C0.511475 24.094 0.680254 23.9252 0.888833 23.9252H37.1112C37.3198 23.9252 37.4886 24.094 37.4886 24.3025V25.3075C37.4886 26.8442 36.2386 28.0942 34.7018 28.0942ZM1.26619 24.6799V25.3075C1.26619 26.4278 2.1779 27.3395 3.29818 27.3395H34.7018C35.8221 27.3395 36.7338 26.4278 36.7338 25.3075V24.6799H1.26619Z" fill="#C6DDEA"/>
<path d="M37.1112 4.92608H0.888833C0.680254 4.92608 0.511475 4.7573 0.511475 4.54872V3.54378C0.511475 2.00708 1.76147 0.75708 3.29818 0.75708H34.7018C36.2386 0.75708 37.4886 2.00708 37.4886 3.54378V4.54872C37.4886 4.7573 37.3198 4.92608 37.1112 4.92608ZM1.26619 4.17136H36.7338V3.54378C36.7338 2.4235 35.8221 1.5118 34.7018 1.5118H3.29818C2.1779 1.5118 1.26619 2.4235 1.26619 3.54378V4.17136Z" fill="#C6DDEA"/>
<path d="M29.483 34.4876V35.5703C29.483 36.2859 28.905 36.864 28.1894 36.864H9.77524C9.06875 36.864 8.49072 36.2859 8.49072 35.5703V34.4876C8.49072 33.772 9.06875 33.194 9.77524 33.194H28.1894C28.905 33.194 29.483 33.772 29.483 34.4876Z" fill="#889CA9"/>
<path d="M29.483 34.4877V35.5704C29.483 36.286 28.905 36.864 28.1894 36.864H9.77524C9.06875 36.864 8.49072 36.286 8.49072 35.5704V34.4877C8.49072 34.451 8.49072 34.4143 8.49991 34.3868C11.1056 34.9464 14.4269 35.2768 18.051 35.2768C22.5559 35.2768 26.5929 34.763 29.3637 33.9372C29.4371 34.1023 29.483 34.2858 29.483 34.4877Z" fill="#F4F8F9"/>
<path d="M28.1898 37.2429H9.77554C8.85757 37.2429 8.11096 36.493 8.11096 35.5713V34.4839C8.11096 33.5659 8.85757 32.8189 9.77554 32.8189H28.1898C29.1115 32.8189 29.861 33.5659 29.861 34.4839V35.5713C29.861 36.493 29.1115 37.2429 28.1898 37.2429ZM9.77554 33.5736C9.27399 33.5736 8.86568 33.9819 8.86568 34.4839V35.5713C8.86568 36.0769 9.27399 36.4882 9.77554 36.4882H28.1898C28.6951 36.4882 29.1063 36.0769 29.1063 35.5713V34.4839C29.1063 33.9819 28.6951 33.5736 28.1898 33.5736H9.77554Z" fill="#C6DDEA"/>
<path d="M13.0458 7.74855H4.00578C3.7972 7.74855 3.62842 7.57977 3.62842 7.37119C3.62842 7.16261 3.7972 6.99384 4.00578 6.99384H13.0458C13.2544 6.99384 13.4232 7.16261 13.4232 7.37119C13.4232 7.57977 13.2544 7.74855 13.0458 7.74855Z" fill="#C6DDEA"/>
<path d="M33.994 14.7396H32.6028C32.3942 14.7396 32.2255 14.5709 32.2255 14.3623C32.2255 14.1537 32.3942 13.9849 32.6028 13.9849H33.994C34.2025 13.9849 34.3713 14.1537 34.3713 14.3623C34.3713 14.5709 34.2025 14.7396 33.994 14.7396Z" fill="#C6DDEA"/>
<path d="M30.5163 14.7396H17.7041C17.4956 14.7396 17.3268 14.5709 17.3268 14.3623C17.3268 14.1537 17.4956 13.9849 17.7041 13.9849H30.5163C30.7248 13.9849 30.8936 14.1537 30.8936 14.3623C30.8936 14.5709 30.7248 14.7396 30.5163 14.7396Z" fill="#C6DDEA"/>
<path d="M15.2882 14.7396H5.5745C5.36592 14.7396 5.19714 14.5709 5.19714 14.3623C5.19714 14.1537 5.36592 13.9849 5.5745 13.9849H15.2882C15.4967 13.9849 15.6655 14.1537 15.6655 14.3623C15.6655 14.5709 15.4967 14.7396 15.2882 14.7396Z" fill="#C6DDEA"/>
<path d="M23.592 18.235H14.9588C14.7502 18.235 14.5814 18.0662 14.5814 17.8576C14.5814 17.6491 14.7502 17.4803 14.9588 17.4803H23.592C23.8005 17.4803 23.9693 17.6491 23.9693 17.8576C23.9693 18.0662 23.8005 18.235 23.592 18.235Z" fill="#C6DDEA"/>
<path d="M12.4695 18.235H5.38883C5.18025 18.235 5.01147 18.0662 5.01147 17.8576C5.01147 17.6491 5.18025 17.4803 5.38883 17.4803H12.4695C12.678 17.4803 12.8468 17.6491 12.8468 17.8576C12.8468 18.0662 12.678 18.235 12.4695 18.235Z" fill="#C6DDEA"/>
<path d="M25.9448 11.2439H21.914C21.7054 11.2439 21.5366 11.0751 21.5366 10.8666C21.5366 10.658 21.7054 10.4892 21.914 10.4892H25.9448C26.1534 10.4892 26.3221 10.658 26.3221 10.8666C26.3221 11.0751 26.1534 11.2439 25.9448 11.2439Z" fill="#C6DDEA"/>
<path d="M19.7907 11.2439H11.6642C11.4556 11.2439 11.2869 11.0751 11.2869 10.8666C11.2869 10.658 11.4556 10.4892 11.6642 10.4892H19.7907C19.9993 10.4892 20.1681 10.658 20.1681 10.8666C20.1681 11.0751 19.9993 11.2439 19.7907 11.2439Z" fill="#C6DDEA"/>
<path d="M9.17482 11.2439H5.76017C5.55159 11.2439 5.38281 11.0751 5.38281 10.8666C5.38281 10.658 5.55159 10.4892 5.76017 10.4892H9.17482C9.3834 10.4892 9.55218 10.658 9.55218 10.8666C9.55218 11.0751 9.3834 11.2439 9.17482 11.2439Z" fill="#C6DDEA"/>
<path d="M25.9448 21.7281H21.914C21.7054 21.7281 21.5366 21.5593 21.5366 21.3507C21.5366 21.1422 21.7054 20.9734 21.914 20.9734H25.9448C26.1534 20.9734 26.3221 21.1422 26.3221 21.3507C26.3221 21.5593 26.1534 21.7281 25.9448 21.7281Z" fill="#C6DDEA"/>
<path d="M19.7907 21.7281H11.6642C11.4556 21.7281 11.2869 21.5593 11.2869 21.3507C11.2869 21.1422 11.4556 20.9734 11.6642 20.9734H19.7907C19.9993 20.9734 20.1681 21.1422 20.1681 21.3507C20.1681 21.5593 19.9993 21.7281 19.7907 21.7281Z" fill="#C6DDEA"/>
<path d="M9.17482 21.7281H5.76017C5.55159 21.7281 5.38281 21.5593 5.38281 21.3507C5.38281 21.1422 5.55159 20.9734 5.76017 20.9734H9.17482C9.3834 20.9734 9.55218 21.1422 9.55218 21.3507C9.55218 21.5593 9.3834 21.7281 9.17482 21.7281Z" fill="#C6DDEA"/>
</svg>
