<svg width="40" height="40" viewBox="0 0 40 40" fill="none" xmlns="http://www.w3.org/2000/svg">
<path d="M22.8612 26.5623L24.1713 35.0566H15.8008L17.111 26.5623H22.8612Z" fill="white"/>
<path d="M24.1714 35.4341H15.8006C15.6904 35.4341 15.5858 35.3858 15.5143 35.3025C15.4424 35.2189 15.4107 35.108 15.4277 34.9992L16.7378 26.5046C16.7661 26.3207 16.9246 26.1848 17.1107 26.1848H22.8614C23.0475 26.1848 23.2059 26.3207 23.2343 26.5046L24.5444 34.9992C24.5613 35.108 24.5296 35.2189 24.4578 35.3025C24.3863 35.3858 24.2816 35.4341 24.1714 35.4341ZM16.2406 34.6794H23.7314L22.5378 26.9395H17.4343L16.2406 34.6794Z" fill="#4B4952"/>
<path d="M38.1111 4.54372V26.3076C38.1111 27.6362 37.0303 28.7169 35.7018 28.7169H4.29799C2.96943 28.7169 1.88867 27.6362 1.88867 26.3076V4.54372C1.88867 3.21516 2.96943 2.1344 4.29799 2.1344H35.7018C37.0303 2.1344 38.1111 3.21516 38.1111 4.54372Z" fill="white"/>
<path d="M38.1073 4.54284V26.3036C38.1073 27.6339 37.0339 28.7166 35.7035 28.7166H4.29766C2.96728 28.7166 1.88464 27.6339 1.88464 26.3036V15.6056C5.25184 20.2389 10.5366 23.2208 16.482 23.2208C26.6478 23.2208 34.8961 13.6169 34.8961 2.84544C34.8961 2.60694 34.8961 2.36838 34.8777 2.12982H35.7035C37.0339 2.12982 38.1073 3.21246 38.1073 4.54284Z" fill="#EFEFEF"/>
<path d="M1.88867 25.3026V26.3076C1.88867 27.6362 2.96943 28.7169 4.29799 28.7169H35.7018C37.0303 28.7169 38.1111 27.6362 38.1111 26.3076V25.3026H1.88867Z" fill="#E3EBED"/>
<path d="M38.1111 5.54873V4.54372C38.1111 3.21512 37.0303 2.1344 35.7018 2.1344H4.29799C2.96943 2.1344 1.88867 3.21512 1.88867 4.54372V5.54873H38.1111Z" fill="#A4A1AE"/>
<path d="M35.7018 29.0942H4.29818C2.76147 29.0942 1.51147 27.8442 1.51147 26.3075V4.54378C1.51147 3.00708 2.76147 1.75708 4.29818 1.75708H35.7018C37.2386 1.75708 38.4886 3.00708 38.4886 4.54378V26.3075C38.4886 27.8442 37.2386 29.0942 35.7018 29.0942ZM4.29818 2.5118C3.1779 2.5118 2.26619 3.4235 2.26619 4.54378V26.3075C2.26619 27.4278 3.1779 28.3395 4.29818 28.3395H35.7018C36.8221 28.3395 37.7338 27.4278 37.7338 26.3075V4.54378C37.7338 3.4235 36.8221 2.5118 35.7018 2.5118H4.29818Z" fill="#4B4952"/>
<path d="M35.7018 29.0942H4.29818C2.76147 29.0942 1.51147 27.8442 1.51147 26.3075V25.3025C1.51147 25.094 1.68025 24.9252 1.88883 24.9252H38.1112C38.3198 24.9252 38.4886 25.094 38.4886 25.3025V26.3075C38.4886 27.8442 37.2386 29.0942 35.7018 29.0942ZM2.26619 25.6799V26.3075C2.26619 27.4278 3.1779 28.3395 4.29818 28.3395H35.7018C36.8221 28.3395 37.7338 27.4278 37.7338 26.3075V25.6799H2.26619Z" fill="#4B4952"/>
<path d="M38.1112 5.92608H1.88883C1.68025 5.92608 1.51147 5.7573 1.51147 5.54872V4.54378C1.51147 3.00708 2.76147 1.75708 4.29818 1.75708H35.7018C37.2386 1.75708 38.4886 3.00708 38.4886 4.54378V5.54872C38.4886 5.7573 38.3198 5.92608 38.1112 5.92608ZM2.26619 5.17136H37.7338V4.54378C37.7338 3.4235 36.8221 2.5118 35.7018 2.5118H4.29818C3.1779 2.5118 2.26619 3.4235 2.26619 4.54378V5.17136Z" fill="#4B4952"/>
<path d="M30.483 35.4876V36.5703C30.483 37.2859 29.905 37.864 29.1894 37.864H10.7752C10.0687 37.864 9.49072 37.2859 9.49072 36.5703V35.4876C9.49072 34.772 10.0687 34.194 10.7752 34.194H29.1894C29.905 34.194 30.483 34.772 30.483 35.4876Z" fill="#A4A1AE"/>
<path d="M30.483 35.4877V36.5704C30.483 37.286 29.905 37.864 29.1894 37.864H10.7752C10.0687 37.864 9.49072 37.286 9.49072 36.5704V35.4877C9.49072 35.451 9.49072 35.4143 9.49991 35.3868C12.1056 35.9464 15.4269 36.2768 19.051 36.2768C23.5559 36.2768 27.5929 35.763 30.3637 34.9372C30.4371 35.1023 30.483 35.2858 30.483 35.4877Z" fill="#E3EBED"/>
<path d="M29.1898 38.2429H10.7755C9.85757 38.2429 9.11096 37.493 9.11096 36.5713V35.4839C9.11096 34.5659 9.85757 33.8189 10.7755 33.8189H29.1898C30.1115 33.8189 30.861 34.5659 30.861 35.4839V36.5713C30.861 37.493 30.1115 38.2429 29.1898 38.2429ZM10.7755 34.5736C10.274 34.5736 9.86568 34.9819 9.86568 35.4839V36.5713C9.86568 37.0769 10.274 37.4882 10.7755 37.4882H29.1898C29.6951 37.4882 30.1063 37.0769 30.1063 36.5713V35.4839C30.1063 34.9819 29.6951 34.5736 29.1898 34.5736H10.7755Z" fill="#4B4952"/>
<path d="M14.0458 8.74855H5.00578C4.7972 8.74855 4.62842 8.57977 4.62842 8.37119C4.62842 8.16261 4.7972 7.99384 5.00578 7.99384H14.0458C14.2544 7.99384 14.4232 8.16261 14.4232 8.37119C14.4232 8.57977 14.2544 8.74855 14.0458 8.74855Z" fill="#4B4952"/>
<path d="M34.994 15.7396H33.6028C33.3942 15.7396 33.2255 15.5709 33.2255 15.3623C33.2255 15.1537 33.3942 14.9849 33.6028 14.9849H34.994C35.2025 14.9849 35.3713 15.1537 35.3713 15.3623C35.3713 15.5709 35.2025 15.7396 34.994 15.7396Z" fill="#4B4952"/>
<path d="M31.5163 15.7396H18.7041C18.4956 15.7396 18.3268 15.5709 18.3268 15.3623C18.3268 15.1537 18.4956 14.9849 18.7041 14.9849H31.5163C31.7248 14.9849 31.8936 15.1537 31.8936 15.3623C31.8936 15.5709 31.7248 15.7396 31.5163 15.7396Z" fill="#4B4952"/>
<path d="M16.2882 15.7396H6.5745C6.36592 15.7396 6.19714 15.5709 6.19714 15.3623C6.19714 15.1537 6.36592 14.9849 6.5745 14.9849H16.2882C16.4967 14.9849 16.6655 15.1537 16.6655 15.3623C16.6655 15.5709 16.4967 15.7396 16.2882 15.7396Z" fill="#4B4952"/>
<path d="M24.592 19.235H15.9588C15.7502 19.235 15.5814 19.0662 15.5814 18.8576C15.5814 18.6491 15.7502 18.4803 15.9588 18.4803H24.592C24.8005 18.4803 24.9693 18.6491 24.9693 18.8576C24.9693 19.0662 24.8005 19.235 24.592 19.235Z" fill="#4B4952"/>
<path d="M13.4695 19.235H6.38883C6.18025 19.235 6.01147 19.0662 6.01147 18.8576C6.01147 18.6491 6.18025 18.4803 6.38883 18.4803H13.4695C13.678 18.4803 13.8468 18.6491 13.8468 18.8576C13.8468 19.0662 13.678 19.235 13.4695 19.235Z" fill="#4B4952"/>
<path d="M26.9448 12.2439H22.914C22.7054 12.2439 22.5366 12.0751 22.5366 11.8666C22.5366 11.658 22.7054 11.4892 22.914 11.4892H26.9448C27.1534 11.4892 27.3221 11.658 27.3221 11.8666C27.3221 12.0751 27.1534 12.2439 26.9448 12.2439Z" fill="#4B4952"/>
<path d="M20.7907 12.2439H12.6642C12.4556 12.2439 12.2869 12.0751 12.2869 11.8666C12.2869 11.658 12.4556 11.4892 12.6642 11.4892H20.7907C20.9993 11.4892 21.1681 11.658 21.1681 11.8666C21.1681 12.0751 20.9993 12.2439 20.7907 12.2439Z" fill="#4B4952"/>
<path d="M10.1748 12.2439H6.76017C6.55159 12.2439 6.38281 12.0751 6.38281 11.8666C6.38281 11.658 6.55159 11.4892 6.76017 11.4892H10.1748C10.3834 11.4892 10.5522 11.658 10.5522 11.8666C10.5522 12.0751 10.3834 12.2439 10.1748 12.2439Z" fill="#4B4952"/>
<path d="M26.9448 22.7281H22.914C22.7054 22.7281 22.5366 22.5593 22.5366 22.3507C22.5366 22.1422 22.7054 21.9734 22.914 21.9734H26.9448C27.1534 21.9734 27.3221 22.1422 27.3221 22.3507C27.3221 22.5593 27.1534 22.7281 26.9448 22.7281Z" fill="#4B4952"/>
<path d="M20.7907 22.7281H12.6642C12.4556 22.7281 12.2869 22.5593 12.2869 22.3507C12.2869 22.1422 12.4556 21.9734 12.6642 21.9734H20.7907C20.9993 21.9734 21.1681 22.1422 21.1681 22.3507C21.1681 22.5593 20.9993 22.7281 20.7907 22.7281Z" fill="#4B4952"/>
<path d="M10.1748 22.7281H6.76017C6.55159 22.7281 6.38281 22.5593 6.38281 22.3507C6.38281 22.1422 6.55159 21.9734 6.76017 21.9734H10.1748C10.3834 21.9734 10.5522 22.1422 10.5522 22.3507C10.5522 22.5593 10.3834 22.7281 10.1748 22.7281Z" fill="#4B4952"/>
</svg>
