<svg width="390" height="697" viewBox="0 0 390 697" fill="none" xmlns="http://www.w3.org/2000/svg">
<g clip-path="url(#clip0_478_3176)">
<rect width="390" height="697" fill="#292732"/>
<line y1="453.621" x2="858.659" y2="453.621" stroke="#4B4952" stroke-width="0.716146"/>
<line y1="636.955" x2="858.659" y2="636.955" stroke="#4B4952" stroke-width="0.716146"/>
<line y1="270.288" x2="858.659" y2="270.288" stroke="#4B4952" stroke-width="0.716146"/>
<line y1="86.9537" x2="858.659" y2="86.9537" stroke="#4B4952" stroke-width="0.716146"/>
<line y1="361.954" x2="858.659" y2="361.954" stroke="#4B4952" stroke-width="0.716146"/>
<line y1="545.287" x2="858.659" y2="545.287" stroke="#4B4952" stroke-width="0.716146"/>
<line y1="178.621" x2="858.659" y2="178.621" stroke="#4B4952" stroke-width="0.716146"/>
<line y1="407.788" x2="858.659" y2="407.788" stroke="#4B4952" stroke-width="0.716146"/>
<line y1="591.121" x2="858.659" y2="591.121" stroke="#4B4952" stroke-width="0.716146"/>
<line y1="224.455" x2="858.659" y2="224.455" stroke="#4B4952" stroke-width="0.716146"/>
<line y1="41.1214" x2="858.659" y2="41.1214" stroke="#4B4952" stroke-width="0.716146"/>
<line y1="682.788" x2="858.659" y2="682.788" stroke="#4B4952" stroke-width="0.716146"/>
<line y1="316.121" x2="858.659" y2="316.121" stroke="#4B4952" stroke-width="0.716146"/>
<line y1="499.455" x2="858.659" y2="499.455" stroke="#4B4952" stroke-width="0.716146"/>
<line y1="132.787" x2="858.659" y2="132.787" stroke="#4B4952" stroke-width="0.716146"/>
<line x1="20.3581" y1="-4" x2="20.358" y2="659.151" stroke="#4B4952" stroke-width="0.716146"/>
<line x1="387.027" y1="-4" x2="387.027" y2="659.151" stroke="#4B4952" stroke-width="0.716146"/>
<line x1="203.693" y1="-4.00012" x2="203.693" y2="659.151" stroke="#4B4952" stroke-width="0.716146"/>
<line x1="112.026" y1="-4" x2="112.026" y2="659.151" stroke="#4B4952" stroke-width="0.716146"/>
<line x1="295.36" y1="-4" x2="295.359" y2="659.151" stroke="#4B4952" stroke-width="0.716146"/>
<line x1="66.193" y1="-4" x2="66.193" y2="659.151" stroke="#4B4952" stroke-width="0.716146"/>
<line x1="249.525" y1="-4" x2="249.525" y2="659.151" stroke="#4B4952" stroke-width="0.716146"/>
<line x1="157.86" y1="-4" x2="157.86" y2="659.151" stroke="#4B4952" stroke-width="0.716146"/>
<line x1="341.192" y1="-4" x2="341.192" y2="659.151" stroke="#4B4952" stroke-width="0.716146"/>
<rect width="989.969" height="754" transform="translate(-87.7656 -3.84131)" fill="url(#paint0_linear_478_3176)"/>
</g>
<defs>
<linearGradient id="paint0_linear_478_3176" x1="495.33" y1="-427.736" x2="494.934" y2="754" gradientUnits="userSpaceOnUse">
<stop stop-color="#292828" stop-opacity="0"/>
<stop offset="0.67" stop-color="#292830"/>
</linearGradient>
<clipPath id="clip0_478_3176">
<rect width="390" height="697" fill="white"/>
</clipPath>
</defs>
</svg>
