<svg width="1091" height="924" viewBox="0 0 1091 924" fill="none" xmlns="http://www.w3.org/2000/svg">
<line x1="82" y1="871.288" x2="940.659" y2="871.288" stroke="#4B4952" stroke-width="0.716146"/>
<line x1="82" y1="504.621" x2="940.659" y2="504.621" stroke="#4B4952" stroke-width="0.716146"/>
<line x1="82" y1="687.955" x2="940.659" y2="687.955" stroke="#4B4952" stroke-width="0.716146"/>
<line x1="82" y1="321.288" x2="940.659" y2="321.288" stroke="#4B4952" stroke-width="0.716146"/>
<line x1="82" y1="137.954" x2="940.659" y2="137.954" stroke="#4B4952" stroke-width="0.716146"/>
<line x1="82" y1="779.622" x2="940.659" y2="779.622" stroke="#4B4952" stroke-width="0.716146"/>
<line x1="82" y1="412.954" x2="940.659" y2="412.954" stroke="#4B4952" stroke-width="0.716146"/>
<line x1="82" y1="596.287" x2="940.659" y2="596.287" stroke="#4B4952" stroke-width="0.716146"/>
<line x1="82" y1="229.621" x2="940.659" y2="229.621" stroke="#4B4952" stroke-width="0.716146"/>
<line x1="82" y1="46.2878" x2="940.659" y2="46.2878" stroke="#4B4952" stroke-width="0.716146"/>
<line x1="82" y1="825.454" x2="940.659" y2="825.454" stroke="#4B4952" stroke-width="0.716146"/>
<line x1="82" y1="458.788" x2="940.659" y2="458.788" stroke="#4B4952" stroke-width="0.716146"/>
<line x1="82" y1="642.121" x2="940.659" y2="642.121" stroke="#4B4952" stroke-width="0.716146"/>
<line x1="82" y1="275.455" x2="940.659" y2="275.455" stroke="#4B4952" stroke-width="0.716146"/>
<line x1="82" y1="92.1214" x2="940.659" y2="92.1214" stroke="#4B4952" stroke-width="0.716146"/>
<line x1="82" y1="733.788" x2="940.659" y2="733.788" stroke="#4B4952" stroke-width="0.716146"/>
<line x1="82" y1="367.121" x2="940.659" y2="367.121" stroke="#4B4952" stroke-width="0.716146"/>
<line x1="82" y1="550.455" x2="940.659" y2="550.455" stroke="#4B4952" stroke-width="0.716146"/>
<line x1="82" y1="183.787" x2="940.659" y2="183.787" stroke="#4B4952" stroke-width="0.716146"/>
<line x1="82" y1="0.454183" x2="940.659" y2="0.454183" stroke="#4B4952" stroke-width="0.716146"/>
<line x1="108.855" y1="121.841" x2="108.855" y2="784.993" stroke="#4B4952" stroke-width="0.716146"/>
<line x1="475.524" y1="121.841" x2="475.524" y2="784.993" stroke="#4B4952" stroke-width="0.716146"/>
<line x1="292.19" y1="121.841" x2="292.19" y2="784.993" stroke="#4B4952" stroke-width="0.716146"/>
<line x1="658.856" y1="121.841" x2="658.856" y2="784.993" stroke="#4B4952" stroke-width="0.716146"/>
<line x1="842.191" y1="121.841" x2="842.191" y2="784.993" stroke="#4B4952" stroke-width="0.716146"/>
<line x1="200.523" y1="121.841" x2="200.523" y2="784.993" stroke="#4B4952" stroke-width="0.716146"/>
<line x1="567.189" y1="121.841" x2="567.189" y2="784.993" stroke="#4B4952" stroke-width="0.716146"/>
<line x1="383.857" y1="121.841" x2="383.857" y2="784.993" stroke="#4B4952" stroke-width="0.716146"/>
<line x1="750.523" y1="121.841" x2="750.523" y2="784.993" stroke="#4B4952" stroke-width="0.716146"/>
<line x1="933.858" y1="121.841" x2="933.858" y2="784.993" stroke="#4B4952" stroke-width="0.716146"/>
<line x1="154.69" y1="121.841" x2="154.69" y2="784.993" stroke="#4B4952" stroke-width="0.716146"/>
<line x1="521.357" y1="121.841" x2="521.357" y2="784.993" stroke="#4B4952" stroke-width="0.716146"/>
<line x1="338.022" y1="121.841" x2="338.022" y2="784.993" stroke="#4B4952" stroke-width="0.716146"/>
<line x1="704.691" y1="121.841" x2="704.691" y2="784.993" stroke="#4B4952" stroke-width="0.716146"/>
<line x1="888.023" y1="121.841" x2="888.023" y2="784.993" stroke="#4B4952" stroke-width="0.716146"/>
<line x1="246.357" y1="121.841" x2="246.357" y2="784.993" stroke="#4B4952" stroke-width="0.716146"/>
<line x1="613.024" y1="121.841" x2="613.024" y2="784.993" stroke="#4B4952" stroke-width="0.716146"/>
<line x1="429.689" y1="121.841" x2="429.689" y2="784.993" stroke="#4B4952" stroke-width="0.716146"/>
<line x1="796.356" y1="121.841" x2="796.356" y2="784.993" stroke="#4B4952" stroke-width="0.716146"/>
<line x1="979.69" y1="121.841" x2="979.69" y2="784.993" stroke="#4B4952" stroke-width="0.716146"/>
<rect width="989.969" height="754" transform="translate(0.731445 122)" fill="url(#paint0_linear_460_3178)"/>
<defs>
<linearGradient id="paint0_linear_460_3178" x1="495.33" y1="-427.736" x2="494.934" y2="754" gradientUnits="userSpaceOnUse">
<stop stop-color="#292828" stop-opacity="0"/>
<stop offset="0.614688" stop-color="#292830"/>
</linearGradient>
</defs>
</svg>
