<svg width="40" height="40" viewBox="0 0 40 40" fill="none" xmlns="http://www.w3.org/2000/svg">
<path d="M36.1369 36.5142H3.8632C3.65462 36.5142 3.48584 36.3454 3.48584 36.1369V3.86314C3.48584 3.65456 3.65462 3.48578 3.8632 3.48578H36.1369C36.3455 3.48578 36.5143 3.65456 36.5143 3.86314V36.1369C36.5143 36.3454 36.3455 36.5142 36.1369 36.5142ZM4.24056 35.7595H35.7596V4.2405H4.24056V35.7595Z" fill="#E3EBED"/>
<path d="M5.83399 1.88684H1.89587V5.83552H5.83399V1.88684Z" fill="#4B4952"/>
<path d="M5.83398 6.21318H1.8953C1.68672 6.21318 1.51794 6.0444 1.51794 5.83582V1.88682C1.51794 1.67824 1.68672 1.50946 1.8953 1.50946H5.83398C6.04256 1.50946 6.21134 1.67824 6.21134 1.88682V5.83582C6.21134 6.0444 6.04256 6.21318 5.83398 6.21318ZM2.27266 5.45846H5.45662V2.26418H2.27266V5.45846Z" fill="#E3EBED"/>
<path d="M21.9691 1.88684H18.031V5.83552H21.9691V1.88684Z" fill="#4B4952"/>
<path d="M21.969 6.21318H18.031C17.8225 6.21318 17.6537 6.0444 17.6537 5.83582V1.88682C17.6537 1.67824 17.8225 1.50946 18.031 1.50946H21.969C22.1776 1.50946 22.3463 1.67824 22.3463 1.88682V5.83582C22.3463 6.0444 22.1776 6.21318 21.969 6.21318ZM18.4084 5.45846H21.5916V2.26418H18.4084V5.45846Z" fill="#E3EBED"/>
<path d="M38.1049 1.88684H34.1667V5.83552H38.1049V1.88684Z" fill="#4B4952"/>
<path d="M38.1047 6.21318H34.1668C33.9582 6.21318 33.7894 6.0444 33.7894 5.83582V1.88682C33.7894 1.67824 33.9582 1.50946 34.1668 1.50946H38.1047C38.3133 1.50946 38.4821 1.67824 38.4821 1.88682V5.83582C38.4821 6.0444 38.3133 6.21318 38.1047 6.21318ZM34.5441 5.45846H37.7274V2.26418H34.5441V5.45846Z" fill="#E3EBED"/>
<path d="M5.83399 18.0257H1.89587V21.9744H5.83399V18.0257Z" fill="#4B4952"/>
<path d="M5.83398 22.3519H1.8953C1.68672 22.3519 1.51794 22.1831 1.51794 21.9745V18.0256C1.51794 17.817 1.68672 17.6482 1.8953 17.6482H5.83398C6.04256 17.6482 6.21134 17.817 6.21134 18.0256V21.9745C6.21134 22.1831 6.04256 22.3519 5.83398 22.3519ZM2.27266 21.5972H5.45662V18.4029H2.27266V21.5972Z" fill="#E3EBED"/>
<path d="M38.1049 18.0257H34.1667V21.9744H38.1049V18.0257Z" fill="#4B4952"/>
<path d="M38.1047 22.3519H34.1668C33.9582 22.3519 33.7894 22.1831 33.7894 21.9745V18.0256C33.7894 17.817 33.9582 17.6482 34.1668 17.6482H38.1047C38.3133 17.6482 38.4821 17.817 38.4821 18.0256V21.9745C38.4821 22.1831 38.3133 22.3519 38.1047 22.3519ZM34.5441 21.5972H37.7274V18.4029H34.5441V21.5972Z" fill="#E3EBED"/>
<path d="M5.83399 34.1638H1.89587V38.1124H5.83399V34.1638Z" fill="#4B4952"/>
<path d="M5.83398 38.4906H1.8953C1.68672 38.4906 1.51794 38.3218 1.51794 38.1132V34.1642C1.51794 33.9556 1.68672 33.7869 1.8953 33.7869H5.83398C6.04256 33.7869 6.21134 33.9556 6.21134 34.1642V38.1132C6.21134 38.3218 6.04256 38.4906 5.83398 38.4906ZM2.27266 37.7359H5.45662V34.5416H2.27266V37.7359Z" fill="#E3EBED"/>
<path d="M21.9691 34.1638H18.031V38.1124H21.9691V34.1638Z" fill="#4B4952"/>
<path d="M21.969 38.4906H18.031C17.8225 38.4906 17.6537 38.3218 17.6537 38.1132V34.1642C17.6537 33.9556 17.8225 33.7869 18.031 33.7869H21.969C22.1776 33.7869 22.3463 33.9556 22.3463 34.1642V38.1132C22.3463 38.3218 22.1776 38.4906 21.969 38.4906ZM18.4084 37.7359H21.5916V34.5416H18.4084V37.7359Z" fill="#E3EBED"/>
<path d="M38.1049 34.1638H34.1667V38.1124H38.1049V34.1638Z" fill="#4B4952"/>
<path d="M38.1047 38.4906H34.1668C33.9582 38.4906 33.7894 38.3218 33.7894 38.1132V34.1642C33.7894 33.9556 33.9582 33.7869 34.1668 33.7869H38.1047C38.3133 33.7869 38.4821 33.9556 38.4821 34.1642V38.1132C38.4821 38.3218 38.3133 38.4906 38.1047 38.4906ZM34.5441 37.7359H37.7274V34.5416H34.5441V37.7359Z" fill="#E3EBED"/>
<path d="M30.144 10.1472V15.5443C30.144 16.1666 29.3928 16.467 28.9636 16.0378L27.0537 14.128C26.9251 13.9992 26.7425 13.9241 26.5602 13.9241H23.0408C22.6546 13.9241 22.3435 14.2352 22.3435 14.6215V29.8576C22.3435 30.2439 22.0323 30.5551 21.6459 30.5551H18.3521C17.9657 30.5551 17.6545 30.2439 17.6545 29.8576V14.6215C17.6545 14.2352 17.3434 13.9241 16.9572 13.9241H13.4378C13.2555 13.9241 13.0729 13.9992 12.9443 14.128L11.0344 16.0378C10.6052 16.467 9.854 16.1666 9.854 15.5443V10.1472C9.854 9.76097 10.1652 9.44977 10.5516 9.44977H29.4464C29.8328 9.44977 30.144 9.76097 30.144 10.1472Z" fill="#A4A1AE"/>
<path d="M30.1461 10.1521V15.545C30.1461 16.1704 29.3977 16.4678 28.967 16.0372L27.0498 14.1302C26.9268 13.9969 26.7422 13.9251 26.5577 13.9251H23.0409C22.6513 13.9251 22.3437 14.2327 22.3437 14.6223V29.8579C22.3437 30.2475 22.0362 30.5551 21.6466 30.5551H18.3555C18.1914 30.5551 18.0376 30.5038 17.9248 30.4013C19.8215 27.4178 21.0518 22.681 21.0518 17.3495C21.0518 14.4788 20.6931 11.7823 20.0676 9.44464H29.4489C29.8282 9.44464 30.1461 9.76247 30.1461 10.1521Z" fill="#928F9F"/>
<path d="M21.6461 30.9323H18.3523C17.7598 30.9323 17.277 30.4503 17.277 29.8578V14.6215C17.277 14.445 17.1333 14.3013 16.9572 14.3013H13.4378C13.3553 14.3013 13.2683 14.337 13.2108 14.3949L11.3012 16.3045C10.9953 16.6097 10.5384 16.7003 10.1367 16.5334C9.72912 16.3646 9.47632 15.9858 9.47632 15.5443V10.1474C9.47632 9.55483 9.95907 9.07245 10.5516 9.07245H29.4461C30.0387 9.07245 30.5214 9.55483 30.5214 10.1474V15.5443C30.5214 15.9854 30.2686 16.3646 29.861 16.533C29.4579 16.6992 29.0009 16.6097 28.6965 16.3045L26.7869 14.3949C26.7294 14.337 26.6424 14.3013 26.5599 14.3013H23.0406C22.8644 14.3013 22.7207 14.445 22.7207 14.6215V29.8578C22.7207 30.4503 22.2387 30.9323 21.6461 30.9323ZM13.4378 13.5466H16.9572C17.5497 13.5466 18.0317 14.029 18.0317 14.6215V29.8578C18.0317 30.0372 18.1725 30.1776 18.3523 30.1776H21.6461C21.8223 30.1776 21.966 30.0343 21.966 29.8578V14.6215C21.966 14.029 22.448 13.5466 23.0406 13.5466H26.5599C26.8444 13.5466 27.1222 13.6616 27.3212 13.862L29.2302 15.7709C29.3665 15.9076 29.5279 15.855 29.5721 15.8362C29.6311 15.8118 29.7667 15.7348 29.7667 15.5443V10.1474C29.7667 9.96794 29.6259 9.82717 29.4461 9.82717H10.5516C10.3748 9.82717 10.231 9.97089 10.231 10.1474V15.5443C10.231 15.7348 10.3674 15.8118 10.4256 15.8362C10.4713 15.8538 10.632 15.9054 10.7676 15.7709L12.6772 13.8613C12.877 13.6612 13.1541 13.5466 13.4378 13.5466Z" fill="#E3EBED"/>
</svg>
