<svg width="38" height="38" viewBox="0 0 38 38" fill="none" xmlns="http://www.w3.org/2000/svg">
<path d="M35.1369 35.5142H2.8632C2.65462 35.5142 2.48584 35.3454 2.48584 35.1369V2.86314C2.48584 2.65456 2.65462 2.48578 2.8632 2.48578H35.1369C35.3455 2.48578 35.5143 2.65456 35.5143 2.86314V35.1369C35.5143 35.3454 35.3455 35.5142 35.1369 35.5142ZM3.24056 34.7595H34.7596V3.2405H3.24056V34.7595Z" fill="#E3EBED"/>
<path d="M4.83399 0.886841H0.895874V4.83552H4.83399V0.886841Z" fill="#C6DDEA"/>
<path d="M4.83398 5.21318H0.895303C0.686724 5.21318 0.517944 5.0444 0.517944 4.83582V0.886819C0.517944 0.67824 0.686724 0.50946 0.895303 0.50946H4.83398C5.04256 0.50946 5.21134 0.67824 5.21134 0.886819V4.83582C5.21134 5.0444 5.04256 5.21318 4.83398 5.21318ZM1.27266 4.45846H4.45662V1.26418H1.27266V4.45846Z" fill="#E3EBED"/>
<path d="M20.9691 0.886841H17.031V4.83552H20.9691V0.886841Z" fill="#C6DDEA"/>
<path d="M20.969 5.21318H17.031C16.8225 5.21318 16.6537 5.0444 16.6537 4.83582V0.886819C16.6537 0.67824 16.8225 0.50946 17.031 0.50946H20.969C21.1776 0.50946 21.3463 0.67824 21.3463 0.886819V4.83582C21.3463 5.0444 21.1776 5.21318 20.969 5.21318ZM17.4084 4.45846H20.5916V1.26418H17.4084V4.45846Z" fill="#E3EBED"/>
<path d="M37.1049 0.886841H33.1667V4.83552H37.1049V0.886841Z" fill="#C6DDEA"/>
<path d="M37.1047 5.21318H33.1668C32.9582 5.21318 32.7894 5.0444 32.7894 4.83582V0.886819C32.7894 0.67824 32.9582 0.50946 33.1668 0.50946H37.1047C37.3133 0.50946 37.4821 0.67824 37.4821 0.886819V4.83582C37.4821 5.0444 37.3133 5.21318 37.1047 5.21318ZM33.5441 4.45846H36.7274V1.26418H33.5441V4.45846Z" fill="#E3EBED"/>
<path d="M4.83399 17.0257H0.895874V20.9744H4.83399V17.0257Z" fill="#C6DDEA"/>
<path d="M4.83398 21.3519H0.895303C0.686724 21.3519 0.517944 21.1831 0.517944 20.9745V17.0256C0.517944 16.817 0.686724 16.6482 0.895303 16.6482H4.83398C5.04256 16.6482 5.21134 16.817 5.21134 17.0256V20.9745C5.21134 21.1831 5.04256 21.3519 4.83398 21.3519ZM1.27266 20.5972H4.45662V17.4029H1.27266V20.5972Z" fill="#E3EBED"/>
<path d="M37.1049 17.0257H33.1667V20.9744H37.1049V17.0257Z" fill="#C6DDEA"/>
<path d="M37.1047 21.3519H33.1668C32.9582 21.3519 32.7894 21.1831 32.7894 20.9745V17.0256C32.7894 16.817 32.9582 16.6482 33.1668 16.6482H37.1047C37.3133 16.6482 37.4821 16.817 37.4821 17.0256V20.9745C37.4821 21.1831 37.3133 21.3519 37.1047 21.3519ZM33.5441 20.5972H36.7274V17.4029H33.5441V20.5972Z" fill="#E3EBED"/>
<path d="M4.83399 33.1638H0.895874V37.1124H4.83399V33.1638Z" fill="#C6DDEA"/>
<path d="M4.83398 37.4906H0.895303C0.686724 37.4906 0.517944 37.3218 0.517944 37.1132V33.1642C0.517944 32.9556 0.686724 32.7869 0.895303 32.7869H4.83398C5.04256 32.7869 5.21134 32.9556 5.21134 33.1642V37.1132C5.21134 37.3218 5.04256 37.4906 4.83398 37.4906ZM1.27266 36.7359H4.45662V33.5416H1.27266V36.7359Z" fill="#E3EBED"/>
<path d="M20.9691 33.1638H17.031V37.1124H20.9691V33.1638Z" fill="#C6DDEA"/>
<path d="M20.969 37.4906H17.031C16.8225 37.4906 16.6537 37.3218 16.6537 37.1132V33.1642C16.6537 32.9556 16.8225 32.7869 17.031 32.7869H20.969C21.1776 32.7869 21.3463 32.9556 21.3463 33.1642V37.1132C21.3463 37.3218 21.1776 37.4906 20.969 37.4906ZM17.4084 36.7359H20.5916V33.5416H17.4084V36.7359Z" fill="#E3EBED"/>
<path d="M37.1049 33.1638H33.1667V37.1124H37.1049V33.1638Z" fill="#C6DDEA"/>
<path d="M37.1047 37.4906H33.1668C32.9582 37.4906 32.7894 37.3218 32.7894 37.1132V33.1642C32.7894 32.9556 32.9582 32.7869 33.1668 32.7869H37.1047C37.3133 32.7869 37.4821 32.9556 37.4821 33.1642V37.1132C37.4821 37.3218 37.3133 37.4906 37.1047 37.4906ZM33.5441 36.7359H36.7274V33.5416H33.5441V36.7359Z" fill="#E3EBED"/>
<path d="M29.144 9.14722V14.5443C29.144 15.1666 28.3928 15.467 27.9636 15.0378L26.0537 13.128C25.9251 12.9992 25.7425 12.9241 25.5602 12.9241H22.0408C21.6546 12.9241 21.3435 13.2352 21.3435 13.6215V28.8576C21.3435 29.2439 21.0323 29.5551 20.6459 29.5551H17.3521C16.9657 29.5551 16.6545 29.2439 16.6545 28.8576V13.6215C16.6545 13.2352 16.3434 12.9241 15.9572 12.9241H12.4378C12.2555 12.9241 12.0729 12.9992 11.9443 13.128L10.0344 15.0378C9.60516 15.467 8.854 15.1666 8.854 14.5443V9.14722C8.854 8.76097 9.16521 8.44977 9.55159 8.44977H28.4464C28.8328 8.44977 29.144 8.76097 29.144 9.14722Z" fill="#889CA9"/>
<path d="M29.1461 9.15208V14.545C29.1461 15.1704 28.3977 15.4678 27.967 15.0372L26.0498 13.1302C25.9268 12.9969 25.7422 12.9251 25.5577 12.9251H22.0409C21.6513 12.9251 21.3437 13.2327 21.3437 13.6223V28.8579C21.3437 29.2475 21.0362 29.5551 20.6466 29.5551H17.3555C17.1914 29.5551 17.0376 29.5038 16.9248 29.4013C18.8215 26.4178 20.0518 21.681 20.0518 16.3495C20.0518 13.4788 19.6931 10.7823 19.0676 8.44464H28.4489C28.8282 8.44464 29.1461 8.76247 29.1461 9.15208Z" fill="#70889F"/>
<path d="M20.6461 29.9323H17.3523C16.7598 29.9323 16.277 29.4503 16.277 28.8578V13.6215C16.277 13.445 16.1333 13.3013 15.9572 13.3013H12.4378C12.3553 13.3013 12.2683 13.337 12.2108 13.3949L10.3012 15.3045C9.99533 15.6097 9.53838 15.7003 9.1367 15.5334C8.72912 15.3646 8.47632 14.9858 8.47632 14.5443V9.1474C8.47632 8.55483 8.95907 8.07245 9.55164 8.07245H28.4461C29.0387 8.07245 29.5214 8.55483 29.5214 9.1474V14.5443C29.5214 14.9854 29.2686 15.3646 28.861 15.533C28.4579 15.6992 28.0009 15.6097 27.6965 15.3045L25.7869 13.3949C25.7294 13.337 25.6424 13.3013 25.5599 13.3013H22.0406C21.8644 13.3013 21.7207 13.445 21.7207 13.6215V28.8578C21.7207 29.4503 21.2387 29.9323 20.6461 29.9323ZM12.4378 12.5466H15.9572C16.5497 12.5466 17.0317 13.029 17.0317 13.6215V28.8578C17.0317 29.0372 17.1725 29.1776 17.3523 29.1776H20.6461C20.8223 29.1776 20.966 29.0343 20.966 28.8578V13.6215C20.966 13.029 21.448 12.5466 22.0406 12.5466H25.5599C25.8444 12.5466 26.1222 12.6616 26.3212 12.862L28.2302 14.7709C28.3665 14.9076 28.5279 14.855 28.5721 14.8362C28.6311 14.8118 28.7667 14.7348 28.7667 14.5443V9.1474C28.7667 8.96794 28.6259 8.82717 28.4461 8.82717H9.55164C9.37476 8.82717 9.23104 8.97089 9.23104 9.1474V14.5443C9.23104 14.7348 9.36739 14.8118 9.42561 14.8362C9.47131 14.8538 9.63198 14.9054 9.76759 14.7709L11.6772 12.8613C11.877 12.6612 12.1541 12.5466 12.4378 12.5466Z" fill="#E3EBED"/>
</svg>
