<svg xmlns="http://www.w3.org/2000/svg" width="30" height="30" fill="none"><g clip-path="url(#a)"><circle cx="15" cy="15" r="15" fill="#fff"/><path stroke="#000" stroke-linecap="round" stroke-linejoin="round" d="M24.861 6.26a9.8 9.8 0 0 1-2.835 1.385 4.04 4.04 0 0 0-4.494-1.128 4.05 4.05 0 0 0-1.904 1.511 4.07 4.07 0 0 0-.697 2.333v.906a9.6 9.6 0 0 1-4.577-1.027 9.63 9.63 0 0 1-3.548-3.075s-3.612 8.15 4.513 11.773A10.5 10.5 0 0 1 5 20.748c8.125 4.529 18.056 0 18.056-10.414q-.002-.38-.073-.751a7 7 0 0 0 1.878-3.324"/></g><defs><clipPath id="a"><path fill="#fff" d="M0 0h30v30H0z"/></clipPath></defs></svg>