<svg xmlns="http://www.w3.org/2000/svg" width="40" height="40" fill="none"><path fill="#E3EBED" d="M36.137 36.514H3.863a.377.377 0 0 1-.377-.377V3.863c0-.208.169-.377.377-.377h32.274c.209 0 .377.169.377.377v32.274a.377.377 0 0 1-.377.377M4.24 35.76H35.76V4.242H4.24z"/><path fill="#4B4952" d="M5.834 1.887H1.896v3.949h3.938z"/><path fill="#E3EBED" d="M5.834 6.213H1.895a.377.377 0 0 1-.377-.377v-3.95c0-.208.169-.377.377-.377h3.939c.209 0 .377.17.377.378v3.949a.377.377 0 0 1-.377.377m-3.561-.755h3.184V2.264H2.273z"/><path fill="#4B4952" d="M21.97 1.887H18.03v3.949h3.938z"/><path fill="#E3EBED" d="M21.969 6.213h-3.938a.377.377 0 0 1-.377-.377v-3.95c0-.208.169-.377.377-.377h3.938c.209 0 .377.17.377.378v3.949a.377.377 0 0 1-.377.377m-3.56-.755h3.183V2.264h-3.184z"/><path fill="#4B4952" d="M38.105 1.887h-3.938v3.949h3.938z"/><path fill="#E3EBED" d="M38.105 6.213h-3.938a.377.377 0 0 1-.378-.377v-3.95c0-.208.17-.377.378-.377h3.938c.208 0 .377.17.377.378v3.949a.377.377 0 0 1-.377.377m-3.56-.755h3.182V2.264h-3.183z"/><path fill="#4B4952" d="M5.834 18.026H1.896v3.948h3.938z"/><path fill="#E3EBED" d="M5.834 22.352H1.895a.377.377 0 0 1-.377-.378v-3.948c0-.209.169-.378.377-.378h3.939c.209 0 .377.169.377.378v3.948a.377.377 0 0 1-.377.378m-3.561-.755h3.184v-3.194H2.273z"/><path fill="#4B4952" d="M38.105 18.026h-3.938v3.948h3.938z"/><path fill="#E3EBED" d="M38.105 22.352h-3.938a.377.377 0 0 1-.378-.378v-3.948c0-.209.17-.378.378-.378h3.938c.208 0 .377.169.377.378v3.948a.377.377 0 0 1-.377.378m-3.56-.755h3.182v-3.194h-3.183z"/><path fill="#4B4952" d="M5.834 34.164H1.896v3.948h3.938z"/><path fill="#E3EBED" d="M5.834 38.49H1.895a.377.377 0 0 1-.377-.377v-3.949c0-.208.169-.377.377-.377h3.939c.209 0 .377.169.377.377v3.95a.377.377 0 0 1-.377.377m-3.561-.754h3.184v-3.194H2.273z"/><path fill="#4B4952" d="M21.97 34.164H18.03v3.948h3.938z"/><path fill="#E3EBED" d="M21.969 38.49h-3.938a.377.377 0 0 1-.377-.377v-3.949c0-.208.169-.377.377-.377h3.938c.209 0 .377.169.377.377v3.95a.377.377 0 0 1-.377.377m-3.56-.754h3.183v-3.194h-3.184z"/><path fill="#4B4952" d="M38.105 34.164h-3.938v3.948h3.938z"/><path fill="#E3EBED" d="M38.105 38.49h-3.938a.377.377 0 0 1-.378-.377v-3.949c0-.208.17-.377.378-.377h3.938c.208 0 .377.169.377.377v3.95a.377.377 0 0 1-.377.377m-3.56-.754h3.182v-3.194h-3.183z"/><path fill="#A4A1AE" d="M30.144 10.147v5.397a.693.693 0 0 1-1.18.494l-1.91-1.91a.7.7 0 0 0-.494-.204h-3.52a.696.696 0 0 0-.697.697v15.237a.696.696 0 0 1-.697.697h-3.294a.696.696 0 0 1-.698-.697V14.62a.696.696 0 0 0-.697-.697h-3.52a.7.7 0 0 0-.493.204l-1.91 1.91a.693.693 0 0 1-1.18-.494v-5.397c0-.386.311-.697.698-.697h18.894c.387 0 .698.311.698.697"/><path fill="#928F9F" d="M30.146 10.152v5.393a.691.691 0 0 1-1.179.492L27.05 14.13a.67.67 0 0 0-.492-.205H23.04a.69.69 0 0 0-.697.697v15.236c0 .39-.308.697-.697.697h-3.291a.63.63 0 0 1-.431-.154c1.896-2.983 3.127-7.72 3.127-13.051 0-2.871-.359-5.568-.984-7.905h9.38c.38 0 .698.317.698.707"/><path fill="#E3EBED" d="M21.646 30.932h-3.294a1.076 1.076 0 0 1-1.075-1.074V14.62a.32.32 0 0 0-.32-.32h-3.52a.33.33 0 0 0-.226.094l-1.91 1.91a1.065 1.065 0 0 1-1.164.228 1.05 1.05 0 0 1-.66-.989v-5.397c0-.592.482-1.075 1.075-1.075h18.894c.593 0 1.075.483 1.075 1.075v5.397c0 .441-.252.82-.66.989-.403.166-.86.077-1.165-.229l-1.91-1.91a.33.33 0 0 0-.226-.093h-3.52a.32.32 0 0 0-.32.32v15.237c0 .592-.481 1.074-1.074 1.074m-8.208-17.385h3.52c.592 0 1.074.482 1.074 1.074v15.237c0 .18.14.32.32.32h3.294a.32.32 0 0 0 .32-.32V14.62c0-.592.482-1.074 1.075-1.074h3.519c.284 0 .562.115.761.315l1.91 1.909a.31.31 0 0 0 .341.065.305.305 0 0 0 .195-.292v-5.397c0-.18-.141-.32-.32-.32H10.551a.32.32 0 0 0-.321.32v5.397c0 .19.136.268.195.292.045.018.206.07.342-.065l1.91-1.91c.199-.2.476-.314.76-.314"/></svg>