<svg width="24" height="24" viewBox="0 0 24 24" fill="none" xmlns="http://www.w3.org/2000/svg">
<path d="M20.4501 6L20.9401 4.94L22.0001 4.45C22.3901 4.27 22.3901 3.72 22.0001 3.54L20.9401 3.05L20.4501 2C20.2701 1.61 19.7201 1.61 19.5401 2L19.0501 3.06L18.0001 3.55C17.6101 3.73 17.6101 4.28 18.0001 4.46L19.0601 4.95L19.5501 6C19.7201 6.39 20.2801 6.39 20.4501 6ZM8.95006 6L9.44006 4.94L10.5001 4.45C10.8901 4.27 10.8901 3.72 10.5001 3.54L9.44006 3.06L8.95006 2C8.78006 1.61 8.22006 1.61 8.05006 2L7.56006 3.06L6.50006 3.55C6.11006 3.73 6.11006 4.28 6.50006 4.46L7.56006 4.95L8.05006 6C8.22006 6.39 8.78006 6.39 8.95006 6ZM19.5501 13.5L19.0601 14.56L18.0001 15.05C17.6101 15.23 17.6101 15.78 18.0001 15.96L19.0601 16.45L19.5501 17.51C19.7301 17.9 20.2801 17.9 20.4601 17.51L20.9501 16.45L22.0001 15.95C22.3901 15.77 22.3901 15.22 22.0001 15.04L20.9401 14.55L20.4501 13.49C20.2801 13.11 19.7201 13.11 19.5501 13.5ZM17.7101 9.12L14.8801 6.29C14.7875 6.1973 14.6777 6.12375 14.5567 6.07357C14.4357 6.02339 14.306 5.99756 14.1751 5.99756C14.0441 5.99756 13.9144 6.02339 13.7934 6.07357C13.6725 6.12375 13.5626 6.1973 13.4701 6.29L2.29006 17.46C1.90006 17.85 1.90006 18.48 2.29006 18.87L5.12006 21.7C5.51006 22.09 6.14006 22.09 6.53006 21.7L17.7001 10.53C18.1001 10.15 18.1001 9.51 17.7101 9.12ZM14.2101 11.21L12.8001 9.8L14.1801 8.42L15.5901 9.83L14.2101 11.21Z" fill="#47536B"/>
</svg>
