<svg xmlns="http://www.w3.org/2000/svg" width="41" height="40" fill="none"><path fill="#4B4952" d="M34.067 9.613a1.334 1.334 0 0 1 1.266 1.325v8.715c.002 4.62-1.35 8.325-4.264 11.91-2.914 3.584-5.946 5.62-10.469 6.562-4.522-.942-7.398-2.978-10.312-6.562-2.915-3.585-4.277-7.29-4.276-11.91v-8.738A1.333 1.333 0 0 1 7.278 9.59c6.916-1.152 10.493-4 12.259-6.4a1.325 1.325 0 0 1 2.127 0c2.374 2.435 5.03 5.404 12.403 6.423"/><path fill="#E3EBED" d="M21.292 36.57c-.452.13-.932.13-1.384 0A17.58 17.58 0 0 1 7.267 19.725V11.32a.667.667 0 0 1 .59-.662 20.12 20.12 0 0 0 12.271-6.029.65.65 0 0 1 .944 0 20.12 20.12 0 0 0 12.271 6.028.67.67 0 0 1 .59.663v8.406a17.58 17.58 0 0 1-12.64 16.843"/><path fill="#605E67" d="M28.6 12.667h-16c-.736 0-1.333.597-1.333 1.333v11.333c0 .737.597 1.334 1.333 1.334h16c.736 0 1.333-.597 1.333-1.334V14c0-.736-.597-1.333-1.333-1.333"/><path fill="#A4A1AE" d="M16.6 15.333h-2a.667.667 0 0 0-.666.667v1.333c0 .369.298.667.666.667h2a.667.667 0 0 0 .667-.667V16a.667.667 0 0 0-.667-.667"/><path fill="#E3EBED" d="M15.267 21.333h-1.334a.667.667 0 1 1 0-1.333h1.334a.666.666 0 1 1 0 1.333M14.6 24h-.667a.666.666 0 1 1 0-1.333h.667a.667.667 0 0 1 0 1.333m3.333 0h-.666a.666.666 0 1 1 0-1.333h.666a.667.667 0 1 1 0 1.333m3.334 0H20.6a.666.666 0 1 1 0-1.333h.667a.667.667 0 1 1 0 1.333m-2-2.667h-1.334a.667.667 0 1 1 0-1.333h1.334a.666.666 0 1 1 0 1.333m4 0h-1.334a.667.667 0 1 1 0-1.333h1.334a.666.666 0 1 1 0 1.333m4 0h-1.334a.667.667 0 1 1 0-1.333h1.334a.666.666 0 1 1 0 1.333"/></svg>