<svg xmlns="http://www.w3.org/2000/svg" width="41" height="40" fill="none"><path fill="#E3EBED" d="M38.912 34.697v.041c0 .848-.687 1.535-1.535 1.535H4.223a1.535 1.535 0 0 1-1.535-1.535c0-.422.166-.826.462-1.126l4.002-4.06h27.673l3.673 4.07c.266.295.414.678.414 1.075"/><path fill="#A4A1AE" d="M38.913 34.7v.042c0 .84-.69 1.53-1.539 1.53H4.224c-.848 0-1.538-.69-1.538-1.53 0-.424.167-.832.466-1.131l1.38-1.397c3.793 1.297 8.783 2.079 14.238 2.079 7.094 0 13.39-1.322 17.298-3.368l2.429 2.694c.266.3.416.682.416 1.081"/><path fill="#4B4952" d="M37.377 36.65H4.223a1.914 1.914 0 0 1-1.912-1.912c0-.524.203-1.018.57-1.391l4.002-4.06a.38.38 0 0 1 .269-.112h27.673c.107 0 .208.045.28.125l3.673 4.07c.33.364.511.836.511 1.327v.04a1.914 1.914 0 0 1-1.912 1.913M7.31 29.93l-3.89 3.947c-.228.23-.353.536-.353.86 0 .639.519 1.158 1.157 1.158h33.154c.639 0 1.157-.519 1.157-1.157v-.041c0-.304-.112-.596-.316-.822l-3.561-3.945z"/><path fill="#fff" d="M34.826 29.553V11.42c0-1.037-.84-1.877-1.877-1.877H9.028c-1.037 0-1.877.84-1.877 1.877v18.134z"/><path fill="#EFEFEF" d="M34.83 19.606v9.946H7.151V21.62c3.127 1.638 7.526 2.66 12.4 2.66 6.645 0 12.416-1.895 15.277-4.673"/><path fill="#4B4952" d="M34.826 29.93H7.151a.377.377 0 0 1-.377-.377V11.42a2.257 2.257 0 0 1 2.253-2.255H32.95a2.257 2.257 0 0 1 2.255 2.255v18.134a.377.377 0 0 1-.378.377m-27.298-.754H34.45V11.419c0-.827-.673-1.5-1.5-1.5H9.027c-.827 0-1.499.673-1.499 1.5z"/><path fill="#fff" d="m23.083 32.437.89.803a.603.603 0 0 1-.405 1.051h-5.536a.603.603 0 0 1-.405-1.05l.89-.804c.111-.1.255-.155.404-.155h3.757c.15 0 .294.055.405.155"/><path fill="#4B4952" d="M23.568 34.669h-5.536a.97.97 0 0 1-.916-.628.975.975 0 0 1 .258-1.08l.89-.804a.98.98 0 0 1 .657-.253h3.758c.243 0 .477.09.656.253l.89.803a.975.975 0 0 1 .259 1.08.97.97 0 0 1-.916.629m-4.647-2.01c-.056 0-.11.02-.152.059l-.89.802a.22.22 0 0 0-.058.25c.016.043.07.144.21.144h5.537c.14 0 .194-.101.211-.145a.22.22 0 0 0-.06-.249l-.89-.803a.22.22 0 0 0-.15-.058z"/><path fill="#E3EBED" d="M26.68 12.932s-3.04 3.278-2.943 6.362h-5.88c.096-3.084-2.939-6.362-2.939-6.362l5.88-9.205z"/><path fill="#A4A1AE" d="M26.68 12.932s-3.038 3.275-2.941 6.365h-5.883c.026-.869-.193-1.747-.527-2.572.237.044.483.061.729.061 3.398 0 6.146-3.433 6.182-7.683z"/><path fill="#4B4952" d="M23.737 19.672h-5.88a.38.38 0 0 1-.378-.39c.09-2.891-2.808-6.062-2.838-6.094a.38.38 0 0 1-.04-.459l5.88-9.205c.138-.217.497-.217.635 0l5.88 9.205a.38.38 0 0 1-.04.46c-.03.031-2.932 3.202-2.842 6.094a.38.38 0 0 1-.377.389m-5.506-.755h5.132c.117-2.643 2.187-5.256 2.845-6.022l-5.41-8.467-5.408 8.468c.656.766 2.724 3.378 2.84 6.021"/><path fill="#4B4952" d="M20.799 11.888a.377.377 0 0 1-.378-.377V3.727a.377.377 0 1 1 .755 0v7.784a.377.377 0 0 1-.377.377"/><path fill="#4B4952" d="M20.793 12.87a1.358 1.358 0 1 0 0-2.718 1.358 1.358 0 0 0 0 2.717"/><path fill="#928F9F" d="M24.354 19.424h-7.1v10.13h7.1z"/><path fill="#605E67" d="M24.351 19.42v10.132h-3.634c.736-1.795 1.209-2.925 1.209-6.183 0-1.41-.088-2.74-.254-3.949z"/><path fill="#4B4952" d="M24.354 29.93h-7.1a.377.377 0 0 1-.378-.377V19.424c0-.208.169-.377.377-.377h7.101c.209 0 .377.169.377.377v10.13a.377.377 0 0 1-.377.377m-6.723-.754h6.346v-9.374H17.63z"/><path fill="#928F9F" d="M26.231 18.564v2.007a.775.775 0 0 1-.773.774H16.14a.775.775 0 0 1-.773-.774v-2.007c0-.426.347-.774.773-.774h9.317c.426 0 .773.348.773.774"/><path fill="#605E67" d="M26.234 19.297v1.27c0 .43-.35.78-.78.78h-9.317a.78.78 0 0 1-.77-.78v-1.19c1.4.28 3.231.446 5.236.446 2.198 0 4.186-.202 5.631-.526"/><path fill="#4B4952" d="M25.458 21.722h-9.317a1.15 1.15 0 0 1-1.151-1.15v-2.008c0-.635.517-1.151 1.151-1.151h9.317c.635 0 1.15.516 1.15 1.15v2.008c0 .635-.515 1.151-1.15 1.151m-9.317-3.554a.397.397 0 0 0-.396.396v2.007c0 .219.177.396.396.396h9.317a.396.396 0 0 0 .396-.396v-2.007a.396.396 0 0 0-.396-.396z"/></svg>