<svg xmlns="http://www.w3.org/2000/svg" width="41" height="40" fill="none"><path fill="#928F9F" d="m22.795 21.137-2.62 7.36h5.42l-6.956 8.31V30.9h-3.433l3.162-9.097z"/><path fill="#4B4952" d="M18.64 37.184a.377.377 0 0 1-.377-.377v-5.53h-3.057a.376.376 0 0 1-.357-.5l3.162-9.098a.38.38 0 0 1 .3-.25l4.427-.666a.378.378 0 0 1 .412.5l-2.44 6.856h4.885a.377.377 0 0 1 .29.62l-6.956 8.31a.38.38 0 0 1-.29.135m-2.903-6.661h2.902c.209 0 .378.169.378.377v4.868l5.77-6.894h-4.613a.378.378 0 0 1-.355-.504l2.409-6.767-3.579.54z"/><path fill="#928F9F" d="m10.707 26.606-1.823 5.12h3.772l-4.84 5.783v-4.11H5.427l2.2-6.793z"/><path fill="#4B4952" d="M7.816 37.887a.377.377 0 0 1-.377-.377v-3.733H5.427a.377.377 0 0 1-.359-.494l2.2-6.793a.38.38 0 0 1 .36-.261h3.08a.378.378 0 0 1 .354.503L9.42 31.35h3.236a.377.377 0 0 1 .29.62l-4.84 5.782a.38.38 0 0 1-.29.136m-1.87-4.865h1.87c.209 0 .377.169.377.378v3.07l3.655-4.366H8.885a.377.377 0 0 1-.356-.504l1.643-4.617h-2.27z"/><path fill="#928F9F" d="m33.426 26.606-1.824 5.12h3.772l-4.84 5.783v-4.11h-2.388l2.2-6.793z"/><path fill="#4B4952" d="M30.534 37.887a.377.377 0 0 1-.377-.377v-3.733h-2.012a.377.377 0 0 1-.359-.494l2.2-6.793a.38.38 0 0 1 .36-.261h3.08a.377.377 0 0 1 .355.503l-1.643 4.617h3.236a.377.377 0 0 1 .29.62l-4.84 5.782a.38.38 0 0 1-.29.136m-1.87-4.865h1.87c.209 0 .377.169.377.378v3.07l3.655-4.366h-2.963a.377.377 0 0 1-.356-.504l1.643-4.617h-2.27z"/><path fill="#fff" d="M38.512 17.47a5.336 5.336 0 0 1-5.331 5.345H7.62A5.336 5.336 0 0 1 6.185 12.34a5.335 5.335 0 0 1 5.318-5.02c.433 0 .866.055 1.272.163a5.34 5.34 0 0 1 4.736-2.869 5.34 5.34 0 0 1 2.463.595 7.42 7.42 0 0 1 5.75-2.72c3.032 0 5.63 1.8 6.793 4.385a5.31 5.31 0 0 1 4.56 5.264c0 .514-.067 1.014-.216 1.475a5.33 5.33 0 0 1 1.65 3.856"/><path fill="#EFEFEF" d="M38.514 17.468c0 2.949-2.384 5.35-5.333 5.35H7.621c-2.95 0-5.334-2.401-5.334-5.35 0-.615.102-1.205.295-1.752 3.901 1.862 9.04 2.99 14.66 2.99 8.677 0 16.2-2.687 19.831-6.613v.042c0 .514-.067 1.02-.21 1.474a5.36 5.36 0 0 1 1.65 3.859"/><path fill="#4B4952" d="M33.18 23.192H7.62c-3.149 0-5.71-2.567-5.71-5.722a5.72 5.72 0 0 1 3.92-5.415 5.71 5.71 0 0 1 5.673-5.111q.556 0 1.08.107a5.71 5.71 0 0 1 4.928-2.813c.818 0 1.63.174 2.365.506a7.79 7.79 0 0 1 5.849-2.63 7.84 7.84 0 0 1 7.05 4.42c2.683.482 4.68 2.856 4.68 5.605q0 .731-.169 1.366a5.67 5.67 0 0 1 1.603 3.965c0 3.155-2.56 5.722-5.708 5.722M11.504 7.699a4.956 4.956 0 0 0-4.941 4.664.38.38 0 0 1-.276.342 4.96 4.96 0 0 0-3.62 4.765c0 2.739 2.222 4.967 4.953 4.967h25.562c2.731 0 4.953-2.228 4.953-4.967a4.93 4.93 0 0 0-1.535-3.584.38.38 0 0 1-.097-.388c.131-.407.198-.865.198-1.36 0-2.444-1.821-4.546-4.236-4.89a.38.38 0 0 1-.29-.218 7.08 7.08 0 0 0-6.449-4.162 7.04 7.04 0 0 0-5.46 2.582.38.38 0 0 1-.465.095 5 5 0 0 0-2.29-.552 4.96 4.96 0 0 0-4.4 2.666.376.376 0 0 1-.433.19 4.6 4.6 0 0 0-1.174-.15"/><path fill="#4B4952" d="M15.452 14.304a.4.4 0 0 1-.146-.03c-4.274-1.8-2.909-6.842-2.895-6.893a.377.377 0 0 1 .727.205c-.05.18-1.196 4.453 2.461 5.993a.378.378 0 0 1-.147.725M22.895 9.018a.377.377 0 0 1-.378-.37c-.036-2.003-2.657-3.076-2.683-3.087a.378.378 0 0 1 .28-.701c.127.05 3.112 1.268 3.158 3.774a.38.38 0 0 1-.37.384zM27.716 7.861a.378.378 0 0 1-.24-.669c2.572-2.113 5.2-.66 5.228-.645a.376.376 0 0 1-.371.657c-.09-.05-2.215-1.205-4.378.571a.37.37 0 0 1-.24.086M35.623 16.714a.377.377 0 0 1-.128-.733c1.322-.474 1.01-2.222.995-2.297a.378.378 0 0 1 .741-.142c.163.847.065 2.595-1.48 3.15a.4.4 0 0 1-.128.022M29.647 23.192a.38.38 0 0 1-.313-.167c-.086-.127-2.08-3.155-1.356-7.095a.378.378 0 0 1 .743.136c-.667 3.63 1.22 6.51 1.239 6.539a.378.378 0 0 1-.313.587M14.345 23.192a.38.38 0 0 1-.313-.167c-.085-.127-2.08-3.155-1.355-7.095a.377.377 0 0 1 .743.136c-.668 3.63 1.22 6.51 1.238 6.539a.378.378 0 0 1-.313.587M21.67 19.082q-.02 0-.04-.002a.38.38 0 0 1-.337-.414c.644-6.196-2.863-8.282-2.9-8.303a.377.377 0 1 1 .377-.654c.162.093 3.968 2.355 3.274 9.035a.377.377 0 0 1-.375.338"/><path fill="#4B4952" d="M21.93 14.337q-.263 0-.545-.036a.378.378 0 0 1 .098-.748c3.48.448 4.223-4.419 4.252-4.627a.385.385 0 0 1 .426-.32c.206.028.35.219.321.425-.267 1.904-1.557 5.306-4.553 5.306M8.264 16.165a.4.4 0 0 1-.104-.015c-2.318-.662-2.352-3.68-2.352-3.807-.001-.21.131-.387.377-.379.208 0 .376.168.377.376 0 .026.035 2.578 1.806 3.084a.377.377 0 0 1-.104.74"/></svg>