<?xml version="1.0" encoding="UTF-8"?>
<svg id="Layer_2" data-name="Layer 2" xmlns="http://www.w3.org/2000/svg" viewBox="0 0 49.67 48.7">
  <defs>
    <style>
      .cls-1 {
        fill: #fdfffe;
        stroke: #fff;
        stroke-width: 1.18px;
      }

      .cls-1, .cls-2 {
        stroke-miterlimit: 10;
      }

      .cls-3 {
        stroke-linecap: round;
        stroke-linejoin: round;
        stroke-width: 1.69px;
      }

      .cls-3, .cls-2 {
        fill: #d9ae75;
        stroke: #d9ae75;
      }

      .cls-2 {
        stroke-width: .57px;
      }
    </style>
  </defs>
  <g id="Layer_1-2" data-name="Layer 1">
    <g>
      <path class="cls-1" d="M22.34,39.78c-6.75.21-11.28-.92-13.46-3.36-1.77-1.98-2.25-5.22-1.43-9.61,1.96-10.47,7.9-14.9,20.49-15.28,6.77-.21,11.31.92,13.48,3.36,1.77,1.98,2.24,5.21,1.4,9.6-1.97,10.48-7.91,14.9-20.49,15.29ZM27.03,12.19c-9.81.3-12.35,7.67-13.4,13.2-.62,3.27-1.14,7.97,1.58,11.02,1.74,1.95,4.37,2.84,8.04,2.73,9.79-.3,12.31-7.68,13.35-13.2.62-3.27,1.14-7.97-1.58-11.02-1.73-1.94-4.34-2.83-7.98-2.72Z"/>
      <path class="cls-2" d="M29.72,27.04l1.35-.58-1.31-.65c-1.95-.98-3.47-3.03-4.11-5.58l-.49-2.41-.47,2.38c-.8,2.51-2.4,4.65-4.41,5.52l-1.35.58,1.31.65c1.95.98,3.45,3.02,4.09,5.57l.43,1.71.53-1.69c.8-2.51,2.42-4.64,4.43-5.5Z"/>
      <line class="cls-3" x1="14.57" y1="25.77" x2=".85" y2="25.61"/>
      <line class="cls-3" x1="25.24" y1=".85" x2="25.23" y2="14.07"/>
      <line class="cls-3" x1="24.39" y1="38.56" x2="24.28" y2="47.86"/>
      <line class="cls-3" x1="48.82" y1="26.81" x2="35.1" y2="26.65"/>
    </g>
  </g>
</svg>