<?xml version="1.0" encoding="UTF-8"?>
<svg id="Layer_2" data-name="Layer 2" xmlns="http://www.w3.org/2000/svg" viewBox="0 0 101.43 87.03">
  <defs>
    <style>
      .cls-1 {
        stroke-width: .77px;
      }

      .cls-1, .cls-2, .cls-3, .cls-4, .cls-5, .cls-6, .cls-7 {
        stroke: #231f20;
      }

      .cls-1, .cls-2, .cls-4, .cls-5, .cls-6, .cls-8 {
        fill: none;
      }

      .cls-1, .cls-2, .cls-9, .cls-10, .cls-11, .cls-12, .cls-13, .cls-8 {
        stroke-linecap: round;
        stroke-linejoin: round;
      }

      .cls-2 {
        stroke-width: .76px;
      }

      .cls-14 {
        fill: #d9ae75;
        stroke-width: .22px;
      }

      .cls-14, .cls-15, .cls-16, .cls-3, .cls-4, .cls-5, .cls-6, .cls-17, .cls-18 {
        stroke-miterlimit: 10;
      }

      .cls-14, .cls-8 {
        stroke: #d9ae75;
      }

      .cls-19 {
        fill: #050505;
      }

      .cls-20, .cls-3, .cls-7 {
        fill: #231f20;
      }

      .cls-15, .cls-16, .cls-17, .cls-18, .cls-9, .cls-10, .cls-11, .cls-12, .cls-13 {
        stroke: #020202;
      }

      .cls-15, .cls-17 {
        stroke-width: .19px;
      }

      .cls-16, .cls-18 {
        stroke-width: .19px;
      }

      .cls-3, .cls-7 {
        stroke-width: .47px;
      }

      .cls-4 {
        stroke-width: .28px;
      }

      .cls-5 {
        stroke-width: .42px;
      }

      .cls-6 {
        stroke-width: 1.39px;
      }

      .cls-17, .cls-18, .cls-21, .cls-9, .cls-10, .cls-11, .cls-12, .cls-13 {
        fill: #020202;
      }

      .cls-22 {
        fill: #221f1f;
      }

      .cls-9 {
        stroke-width: .11px;
      }

      .cls-10 {
        stroke-width: .06px;
      }

      .cls-11 {
        stroke-width: .09px;
      }

      .cls-12 {
        stroke-width: .08px;
      }

      .cls-13 {
        stroke-width: .07px;
      }

      .cls-8 {
        stroke-width: .65px;
      }

      .cls-23 {
        fill: #222;
      }
    </style>
  </defs>
  <g id="Layer_1-2" data-name="Layer 1">
    <g>
      <g>
        <g>
          <path class="cls-7" d="M10.35,52.39c-.45-4.41,1.67-6.86,6.16-8.34,4.49-1.48,7.3-.67,7.74,3.77.45,4.43-1.67,6.86-6.15,8.34s-7.29.66-7.74-3.77ZM20.11,49.18c-.28-2.77-1.3-3.44-3.2-2.82s-2.73,1.92-2.46,4.68c.28,2.77,1.3,3.44,3.22,2.81s2.72-1.91,2.44-4.67Z"/>
          <path class="cls-7" d="M24.52,41.87l4.41-1.45,5.57,6.21-.67-7.82,2.86-.94,1.2,11.88-4.39,1.44-5.74-6.41.81,8.03-2.86.94-1.2-11.88Z"/>
        </g>
        <g>
          <path class="cls-7" d="M86.38,30.38l-3.62,1.19-.23-2.33,11.14-3.66.23,2.33-3.61,1.19.97,9.56-3.91,1.29-.97-9.56Z"/>
          <path class="cls-7" d="M39.24,42.76l5.55-1.82c4.52-1.49,6.24-.75,6.53,2.13.3,2.89-.9,4.69-5.32,6.14l-1.99.66.36,3.49-3.93,1.3-1.2-11.89ZM45.22,47.13c1.37-.45,2.09-1.1,1.93-2.69-.15-1.53-.84-1.65-2.33-1.16l-1.43.47.38,3.85,1.45-.48Z"/>
          <path class="cls-7" d="M65.84,34.58l3.92-1.29,1.2,11.88-3.92,1.29-1.2-11.88Z"/>
          <path class="cls-7" d="M71.02,32.99l4.41-1.45,5.57,6.21-.67-7.82,2.86-.94,1.2,11.88-4.39,1.44-5.74-6.41.81,8.03-2.86.94-1.2-11.88Z"/>
          <path class="cls-3" d="M59.53,48.36c-2.5.88-4.33,1-5.44.34-.9-.53-1.46-1.69-1.68-3.43-.51-4.15,1.19-6.52,5.86-8.16,2.51-.88,4.34-1,5.45-.35.9.53,1.46,1.68,1.67,3.43.51,4.16-1.19,6.52-5.86,8.16ZM58.01,37.47c-3.64,1.28-3.71,4.34-3.45,6.54.16,1.3.52,3.12,1.9,3.94.88.52,1.97.55,3.34.07,3.63-1.28,3.7-4.34,3.43-6.53-.16-1.3-.52-3.12-1.9-3.94-.88-.52-1.96-.54-3.31-.07Z"/>
        </g>
        <g>
          <path class="cls-14" d="M60.74,42.4l.43-.36-.55-.09c-.82-.13-1.68-.6-2.19-1.44l-.34-.56v.66c-.04.98-.32,1.83-.96,2.36l-.43.36.55.09c.82.13,1.59.69,2.1,1.53l.34.56v-.66c.04-.98.4-1.92,1.05-2.45Z"/>
          <line class="cls-8" x1="55.08" y1="43.77" x2="50.04" y2="45.31"/>
          <line class="cls-8" x1="56.35" y1="33.74" x2="57.56" y2="38.67"/>
          <line class="cls-8" x1="60.16" y1="47.3" x2="61.2" y2="50.71"/>
          <line class="cls-8" x1="67.72" y1="40.16" x2="62.69" y2="41.7"/>
        </g>
      </g>
      <g>
        <path d="M101.43,42.87c-.87-.59-1.94-.51-2.93-.47-3.05.24-5.99,1.12-8.93,1.99-7.97,2.41-27.45,8.7-35.66,11.32,0,0-23.85,7.35-23.85,7.35l-11.96,3.6c-4,1.27-8.38,1.86-12.53.97,7.26-.03,17.13-3.84,24.06-5.96,11.83-3.89,35.66-11.51,47.54-15.21,3.98-1.22,7.94-2.48,11.94-3.67,3.2-.91,9.78-2.6,12.33.09h0Z"/>
        <path class="cls-6" d="M94.03,43.12c0,.2,0,.4,0,.59,0,23.54-19.08,42.62-42.62,42.62-15.17,0-28.49-7.92-36.04-19.86"/>
        <path class="cls-5" d="M92.36,43.59v.12c0,10.94-4.26,21.22-12,28.95-7.73,7.73-18.02,11.99-28.95,11.99s-21.22-4.26-28.95-11.99c-2.05-2.05-3.86-4.28-5.41-6.66"/>
        <g>
          <ellipse class="cls-9" cx="62.61" cy="68.03" rx=".77" ry=".83" transform="translate(-26.41 43.04) rotate(-31.7)"/>
          <ellipse class="cls-11" cx="60.01" cy="68.79" rx=".65" ry=".71" transform="translate(-27.19 41.79) rotate(-31.7)"/>
          <ellipse class="cls-12" cx="57.76" cy="69.22" rx=".56" ry=".61" transform="translate(-27.76 40.67) rotate(-31.7)"/>
          <ellipse class="cls-13" cx="55.5" cy="69.42" rx=".48" ry=".52" transform="translate(-28.2 39.52) rotate(-31.7)"/>
          <ellipse class="cls-10" cx="53.35" cy="69.43" rx=".41" ry=".44" transform="translate(-28.52 38.39) rotate(-31.7)"/>
          <g>
            <path d="M45.39,67.77l-.08.18c.17.09,4.24,2.05,13.52-4.43l-.09-.16c-9.19,6.43-13.31,4.44-13.35,4.42Z"/>
            <path class="cls-23" d="M45.39,67.77l-.08.18h0c.06.03.12.05.18.07.89.31,1.86.29,2.78.2.93-.1,1.83-.31,2.69-.6.19-.06.38-.13.58-.19.15-.05.3-.12.45-.18.45-.18.91-.36,1.33-.57l.53-.25c1.27-.63,2.36-1.28,3.53-2.04l.43-.29c.21-.14.52-.35.97-.65l-.03.1s-.05-.09-.09-.16l.12.03c-.78.53-1.88,1.27-2.93,1.88-1.05.61-2.04,1.1-2.51,1.3-.15.07-.31.14-.46.21-.08.03-.82.34-1.57.6-.76.27-1.54.44-1.62.46-.22.06-.46.09-.69.13-.86.15-1.76.19-2.43.1-.68-.08-1.13-.27-1.15-.33-.01,0-.02-.01-.02-.01,0,0,0,0,.02,0,.11.01.55.15,1.21.2.65.05,1.5,0,2.35-.14.23-.05.46-.07.68-.13.08-.02.86-.19,1.6-.46.75-.25,1.48-.57,1.56-.6.15-.07.31-.14.46-.21.46-.2,1.45-.69,2.5-1.29,1.05-.6,2.14-1.33,2.93-1.86.04-.03.09-.02.11.02h0c.04.08.06.12.09.17.02.04,0,.08-.03.1-.45.3-.76.5-.98.64l-.44.29c-1.18.75-2.29,1.38-3.57,2l-.53.24c-.43.21-.89.38-1.34.56-.15.06-.3.12-.45.17-.2.06-.39.13-.59.19-.87.28-1.78.48-2.71.58-.92.08-1.89.09-2.78-.22-.06-.02-.12-.05-.18-.08h0s.08-.18.08-.18Z"/>
          </g>
          <path class="cls-16" d="M72.26,56.03c-.3-.59-.98-.78-1.53-.41s-.75,1.14-.45,1.73.98.78,1.53.42.75-1.14.45-1.74Z"/>
          <path class="cls-18" d="M69.89,53.06c-1.69,1.13-2.36,3.49-1.52,5.37.67,1.51,2.34,2.06,3.73,1.24,1.04-.63,1.45-2.06.91-3.27-.41-.93-1.44-1.27-2.3-.76l.3.68c.51-.3,1.13-.1,1.38.46.37.85.12,1.8-.59,2.23-1.04.62-2.3.21-2.81-.93-.68-1.52-.14-3.43,1.23-4.34l-.33-.66Z"/>
          <g>
            <path class="cls-21" d="M45.57,58.48c-.46.31-.86.71-1.15,1.2-.52.84-.7,1.83-.51,2.8.5,2.55,3.04,3.77,5.19,3.46,4.51-.41,9.31-4.01,13.95-7.5,3.59-2.7,7.31-5.49,10.74-6.64l-.17-.74c-3.54,1.19-7.3,4.01-10.94,6.75-4.56,3.43-9.28,6.97-13.62,7.37-1.88.26-4.06-.75-4.48-2.9-.15-.76,0-1.53.39-2.18.09-.14.7-1.13,1.74-1.34.98-.19,1.95.38,2.38,1.45.15.29.31.57.46.86.04-.35.09-.7.13-1.05-.05-.29-.21-1.01-.81-1.53-.92-.81-2.11-.52-2.31-.47-.49.13-.84.37-1.01.47Z"/>
            <path class="cls-21" d="M45.57,58.48c-3.22,2.2-1.57,6.99,2.11,7.41,3.36.28,6.53-1.49,9.31-3.2,2.82-1.8,5.44-3.9,8.13-5.89,2.57-1.81,5.86-4.34,8.58-4.99,0,0-.17-.74-.17-.74,0,0,.12.07.12.07-3.3,1.15-6.18,3.23-9,5.28-4.4,3-12.89,10.92-18.43,8.2-1.54-.86-2.26-3.05-1.24-4.57.46-.73,1.23-1.36,2.13-1.35,1.44,0,1.82,1.34,2.52,2.3,0,0-.16.03-.16.03.68-2.55-1.77-4.01-3.9-2.56h0ZM45.56,58.47c1.6-1.18,3.81-.44,4.22,1.54-.02.36-.08.71-.14,1.06,0,.05-.05.08-.1.07-.22-.25-.25-.67-.45-.95-.31-.81-1.09-1.48-1.98-1.48-3.04.28-3.4,4.51-.87,5.86,5.51,2.67,13.94-5.26,18.32-8.27,2.77-1.92,5.92-4.51,9.15-5.27,0,0,.17.74.17.74.01.05-.02.09-.06.11-3.15,1.1-5.92,3.08-8.62,5.03-2.7,1.98-5.33,4.06-8.16,5.86-2.81,1.71-5.98,3.46-9.37,3.17-3.71-.44-5.37-5.28-2.11-7.48h0Z"/>
          </g>
          <path class="cls-18" d="M75.78,53.25c.11.25.37.43.66.44.15,0,.3-.03.44-.1.07-.04.14-.08.21-.14l.04-.03.05-.04s.06-.06.08-.09c.21-.24.37-.58.4-.94.04-.36-.07-.75-.28-1.02l.02.03c-.16-.27-.4-.46-.64-.58-.25-.12-.49-.17-.74-.2-.49-.06-.96,0-1.41.1-.91.2-1.76.57-2.58,1.01-1.63.89-3.14,2.03-4.48,3.38-.67.67-1.3,1.4-1.87,2.19-.57.79-1.06,1.64-1.44,2.56-.38.91-.63,1.89-.68,2.88-.05.98.1,1.96.43,2.83-.27-.9-.36-1.87-.25-2.82.11-.95.39-1.88.8-2.73.82-1.71,2.03-3.17,3.37-4.41,1.35-1.23,2.85-2.26,4.42-3.03.79-.38,1.59-.7,2.4-.89.4-.09.8-.15,1.18-.13.37.02.7.14.87.37l.03.04h0c.11.11.18.27.2.46.01.18-.03.4-.13.59l-.04.07-.02.03-.03.04s-.06.08-.1.12c-.07.07-.16.13-.26.16-.2.07-.44.04-.65-.11Z"/>
          <path class="cls-21" d="M60.14,62.58c1.19-1.73,3.12-2.16,3.12-2.16,0,0,0,2.37-1.18,4.1-1.19,1.73-3.12,2.16-3.12,2.16,0,0,0-2.37,1.18-4.1Z"/>
          <path class="cls-21" d="M66.01,62.06c-.54-1.6-.15-3.25-.15-3.25,0,0,1.28.94,1.82,2.54.54,1.6.15,3.25.15,3.25,0,0-1.28-.94-1.82-2.54Z"/>
          <path class="cls-21" d="M54.45,57.45c1.37-.74,2.83-.42,2.83-.42,0,0-.75,1.53-2.12,2.28-1.37.75-2.83.42-2.83.42,0,0,.75-1.53,2.12-2.28Z"/>
          <g>
            <path class="cls-22" d="M49.73,62.25l-.07.18c2.43,1.04,5.92-1.58,9.95-4.61,2.32-1.75,4.72-3.55,7.21-4.9l-.07-.17c-2.5,1.35-4.91,3.16-7.24,4.91-3.99,3-7.44,5.6-9.79,4.59Z"/>
            <path class="cls-23" d="M49.75,62.28c-.02.07-.04.13-.05.16l-.02-.04c.69.28,1.41.25,2.04.12.64-.14,1.2-.39,1.71-.63,1.02-.51,1.85-1.06,2.58-1.56,1.45-1.02,2.5-1.85,3.48-2.6.98-.75,1.87-1.44,2.97-2.23,1.1-.78,2.4-1.7,4.29-2.73l-.08.21s-.04-.1-.07-.17l.24.09s-.05.03-.09.05c-2.06,1.14-3.19,1.9-5.28,3.37-1.13.83-2.44,1.78-4.07,2.96-.88.63-1.89,1.34-3.12,2.03-.62.34-1.29.69-2.05.92-.76.23-1.64.34-2.5,0,1.05.42,2.14.15,3.06-.21.93-.38,1.75-.87,2.52-1.37,1.53-1.01,2.86-2.05,4.11-3.02,2.5-1.94,4.71-3.65,7.19-5.01.02-.01.05-.03.06-.04.08-.05.19-.02.23.07v.02c.04.07.06.13.08.17.03.08,0,.17-.08.21-1.86,1.03-3.15,1.94-4.26,2.71-.95.68-1.89,1.36-3.01,2.16-1,.72-2.07,1.52-3.55,2.5-.74.48-1.59,1.02-2.63,1.51-.53.23-1.09.47-1.74.6-.64.12-1.36.14-2.05-.15l.02.04s.04-.1.06-.16Z"/>
          </g>
          <path d="M36.02,65.84c.44.77,1.09,1.4,1.86,1.77.38.19.79.31,1.21.38.42.06.85.05,1.27-.02.85-.15,1.66-.57,2.33-1.21.68-.66,1.14-1.6,1.28-2.61.14-1-.05-2.06-.53-2.91-.12-.21-.25-.41-.42-.6-.16-.19-.35-.35-.55-.48-.4-.27-.87-.4-1.33-.4-.46,0-.92.14-1.33.37-.2.12-.4.26-.57.42-.06.06-.08.07-.13.13-.05.05-.09.1-.13.15-.08.1-.16.21-.22.32-.27.46-.4,1.01-.38,1.54.02.54.2,1.06.5,1.47l.48-.44c-.2-.31-.31-.69-.32-1.07,0-.38.1-.76.29-1.07.05-.08.1-.15.16-.22.03-.03.06-.07.09-.09.02-.02.08-.08.1-.1.14-.12.3-.23.45-.32.32-.18.67-.27,1.01-.27.34,0,.68.1.97.29.3.19.53.47.72.82.39.68.56,1.53.46,2.35-.1.82-.45,1.61-1,2.16-.56.57-1.26.97-2,1.15-.37.09-.75.13-1.14.11-.38-.02-.76-.09-1.13-.22-.74-.26-1.42-.74-1.98-1.4Z"/>
        </g>
        <g>
          <path class="cls-20" d="M30.83,71.02c.14.1.25.23.31.38.07.15.09.31.09.49,0,.18-.05.37-.13.57-.08.2-.19.4-.34.6-.14.19-.29.35-.45.48-.16.13-.33.23-.49.29-.17.06-.33.08-.49.07-.16-.02-.31-.07-.45-.18-.14-.1-.25-.23-.31-.38-.07-.15-.09-.31-.09-.49,0-.18.05-.37.13-.57.08-.2.19-.4.34-.6.14-.19.29-.35.45-.48.16-.13.33-.23.49-.29s.33-.08.49-.07c.16.02.31.07.45.18ZM29.96,73.1c.12-.16.22-.32.32-.49.09-.17.17-.33.23-.48.06-.16.11-.3.13-.43.03-.13.04-.24.03-.33,0-.09-.04-.16-.09-.2-.06-.05-.14-.06-.22-.04-.09.02-.18.07-.28.16-.1.08-.2.2-.31.35-.12.16-.23.33-.32.49-.09.17-.17.33-.23.48-.06.15-.11.3-.13.43s-.04.24-.03.33c.01.09.04.16.09.2.07.05.14.06.23.04.09-.02.18-.07.28-.16.1-.08.21-.2.31-.35Z"/>
          <path class="cls-20" d="M33.77,75.1l.56-1.09c.03-.07.05-.12.06-.17,0-.05-.01-.08-.04-.12l-.04-.05s-.04-.06-.04-.09c0-.03,0-.06.03-.09.02-.03.04-.06.07-.07.03-.01.06,0,.09,0l.5.28s.05.04.05.07c0,.03,0,.06-.02.1-.02.03-.04.06-.07.07-.03.01-.06.02-.1.01h-.06c-.06-.02-.11,0-.15.02-.04.03-.07.08-.11.14l-.54,1.07c-.03.07-.07.14-.1.21-.03.07-.07.14-.11.21-.09.17-.2.3-.33.4-.13.1-.27.16-.43.17-.16.01-.32-.03-.5-.13-.18-.1-.3-.22-.38-.36-.08-.14-.11-.29-.09-.45.01-.16.07-.33.17-.51.01-.03.03-.06.06-.1.02-.04.05-.09.09-.15.04-.06.08-.13.13-.21l.67-1.07s.03-.07.03-.09c0-.03-.01-.05-.04-.08l-.05-.05c-.05-.05-.05-.11-.01-.18.02-.03.04-.06.07-.07.03-.01.06,0,.09,0l.79.45s.05.04.05.07c0,.03,0,.06-.02.1-.02.03-.04.06-.07.07-.03.01-.06.02-.09,0l-.07-.02s-.05,0-.08.01c-.02.01-.05.04-.07.08l-.67,1.07c-.05.08-.1.16-.14.23-.04.07-.08.13-.11.18-.13.22-.19.41-.18.55.01.14.08.25.2.32.09.05.19.07.28.06.09-.01.18-.05.27-.12.09-.07.17-.17.24-.29.05-.09.09-.17.12-.23.03-.06.06-.12.09-.17Z"/>
          <path class="cls-20" d="M36.96,74.69l.98.42s.08.03.11.02.06,0,.09,0,.05,0,.07.01c.04.02.06.04.07.08,0,.04,0,.09-.01.16l-.2.72c-.01.05-.03.09-.06.11-.02.02-.05.03-.08.03-.03,0-.05-.02-.07-.04-.01-.02-.02-.06-.02-.1.02-.18.03-.33.02-.43,0-.1-.01-.18-.03-.23-.02-.05-.06-.08-.1-.1l-.12-.05-.96,2.23s-.02.06-.02.09c0,.03.01.05.03.07l.06.06s.04.1.01.16c-.03.08-.09.11-.16.07l-.76-.33s-.06-.04-.07-.07c0-.03,0-.06.01-.1.03-.06.07-.1.12-.1h.08s.05,0,.07-.02c.02-.01.04-.04.05-.07l.96-2.23-.12-.05s-.1-.02-.15,0-.11.06-.19.13c-.07.07-.17.18-.3.31-.03.03-.06.05-.09.06-.03,0-.05,0-.07-.02-.02-.02-.04-.05-.04-.08,0-.03.01-.08.04-.12l.39-.64c.04-.06.07-.1.11-.12.03-.02.07-.02.11,0,.02.01.04.03.06.05.02.02.04.04.06.07.02.02.05.04.09.06Z"/>
          <path class="cls-20" d="M41.21,76.26s.08.02.11.01c.03,0,.06,0,.09-.01.03,0,.05,0,.08,0,.04.01.07.04.08.07.01.03.01.09,0,.16l-.07.68s-.02.07-.04.1c-.02.02-.05.03-.08.03-.02,0-.05-.01-.06-.03-.02-.02-.03-.05-.03-.1,0-.17-.02-.3-.04-.39-.02-.09-.05-.16-.1-.2-.04-.04-.09-.08-.16-.09l-.24-.08-.72,2.33s-.01.07,0,.09c0,.03.02.05.04.06l.1.06s.04.04.05.06,0,.06-.01.1c-.01.04-.03.07-.05.08-.02.02-.06.02-.09,0l-.84-.26s-.06-.03-.07-.06c-.01-.03-.01-.06,0-.1.02-.07.06-.1.11-.11h.08s.05-.02.07-.04.03-.04.04-.08l.67-2.17s.01-.06,0-.09c0-.02-.02-.05-.04-.07l-.06-.05s-.05-.09-.03-.16c.01-.04.03-.07.06-.08.02-.02.06-.02.09,0l1.07.33ZM40.16,77.53l.44.14c.06.02.11.01.15-.01.04-.03.08-.09.14-.19.02-.03.04-.06.06-.07.02-.01.04-.01.06,0,.05.01.07.06.06.13l-.09.7s-.02.08-.03.1c-.02.02-.04.04-.06.04-.03,0-.05,0-.07-.02-.02-.02-.03-.05-.04-.09,0-.07-.02-.12-.03-.16-.01-.04-.03-.07-.06-.09-.03-.02-.06-.04-.11-.06l-.48-.15.08-.26Z"/>
          <path class="cls-20" d="M43.62,79.66s0,.07,0,.09c0,.02.02.05.05.06l.07.04s.06.09.04.15c0,.04-.02.07-.05.09-.02.02-.05.02-.09.02l-.81-.17s-.06-.03-.08-.05c-.01-.03-.02-.06,0-.1.01-.07.05-.11.1-.12h.08s.05-.03.07-.05c.02-.02.03-.05.04-.08l.47-2.23s0-.07,0-.09c0-.02-.02-.05-.05-.06l-.07-.04s-.06-.09-.04-.15c0-.04.02-.07.05-.09.02-.02.05-.02.09-.01l.81.17s.06.03.08.05c.01.03.02.06,0,.1-.01.07-.05.11-.1.12h-.08s-.05.03-.07.05c-.02.02-.03.05-.04.08l-.47,2.23Z"/>
          <path class="cls-20" d="M46.61,77.4l1.06.12s.08,0,.11,0c.03,0,.06-.02.08-.03.02,0,.05-.01.07,0,.04,0,.07.02.09.06.02.03.03.08.03.16l.02.75c0,.05,0,.1-.02.13-.02.03-.04.05-.07.05-.03,0-.05,0-.08-.02-.02-.02-.04-.05-.05-.09-.04-.18-.07-.32-.1-.42-.03-.1-.06-.17-.1-.21-.03-.04-.08-.06-.13-.07l-.13-.02-.28,2.41s0,.07.01.09.03.04.05.06l.07.04s.07.08.06.15c0,.09-.05.13-.13.12l-.82-.09s-.07-.02-.08-.04c-.02-.03-.02-.06-.02-.1,0-.07.04-.11.09-.13l.08-.02s.05-.03.06-.05c.02-.02.03-.05.03-.08l.28-2.41-.13-.02c-.05,0-.1,0-.14.04-.04.03-.09.09-.14.18-.05.09-.12.22-.19.39-.02.04-.04.07-.07.08-.02.01-.05.01-.08,0-.03-.01-.05-.03-.06-.07,0-.03,0-.08,0-.13l.19-.72c.02-.07.04-.12.07-.14s.06-.04.1-.03c.03,0,.05.01.07.03.02.01.05.03.07.05.03.02.06.03.11.03Z"/>
          <path class="cls-20" d="M50.34,77.69h1.07s.08,0,.11,0,.06-.03.08-.04c.02-.01.05-.02.07-.02.04,0,.07.02.1.05.02.03.04.08.05.15l.1.74c0,.05,0,.1,0,.13-.01.03-.04.05-.07.06-.03,0-.05,0-.08,0s-.04-.04-.06-.09c-.06-.18-.1-.31-.14-.41-.04-.09-.08-.16-.12-.2-.04-.04-.08-.06-.14-.06h-.13s-.02,2.43-.02,2.43c0,.04,0,.07.02.09.01.02.03.04.06.05l.07.03s.07.07.07.14c0,.09-.04.13-.12.13h-.83s-.07-.02-.09-.04c-.02-.02-.03-.06-.03-.1,0-.07.03-.12.08-.14l.07-.03s.05-.03.06-.05c.01-.02.02-.05.02-.09l.02-2.43h-.13c-.05,0-.1.02-.14.05-.04.04-.08.1-.12.2-.04.09-.09.23-.15.4-.02.04-.03.07-.06.09-.02.01-.05.02-.08,0-.03,0-.05-.03-.06-.06-.01-.03-.02-.07,0-.13l.11-.74c.01-.07.03-.12.05-.15.02-.03.05-.04.1-.04.03,0,.05,0,.07.02.02.01.05.03.08.04.03.01.07.02.11.02Z"/>
          <path class="cls-20" d="M53.65,77.75s0-.08.02-.1c.02-.02.04-.04.08-.04l1.18-.11s.08-.01.1-.03.05-.03.07-.05c.02-.02.05-.03.08-.03.04,0,.07,0,.09.04.02.03.05.08.07.15l.19.62s.02.08,0,.12-.02.06-.05.07c-.03.02-.06.02-.09,0-.03-.01-.05-.04-.07-.09-.05-.11-.1-.2-.14-.28-.04-.07-.09-.12-.13-.16-.04-.04-.08-.06-.13-.07-.04-.01-.09-.01-.14,0l-.31.03.22,2.34c0,.08.03.15.06.18.03.04.08.06.14.05l.17-.02c.07,0,.14-.03.19-.07.05-.04.1-.11.14-.21.04-.1.08-.24.12-.43,0-.04.02-.07.05-.09.02-.02.05-.02.07-.02.03,0,.06.02.07.05.02.03.02.07.02.12l-.07.74c0,.07-.02.13-.04.16s-.05.05-.09.06c-.03,0-.05,0-.08-.01-.02-.01-.05-.02-.08-.03-.03-.01-.07-.01-.11-.01l-1.24.11s-.07,0-.09-.03c-.02-.02-.03-.05-.04-.09,0-.07.01-.12.06-.15l.07-.04s.04-.04.05-.06c.01-.02.01-.05.01-.09l-.21-2.27s-.01-.06-.03-.08c-.01-.02-.04-.04-.06-.05l-.08-.02c-.05-.02-.08-.07-.09-.13ZM54.36,78.99l.45-.04c.06,0,.11-.03.13-.07.02-.04.04-.11.05-.22,0-.04.01-.08.03-.1.01-.02.03-.03.06-.04.05,0,.08.03.1.11l.18.68s.02.08.01.11c0,.03-.02.05-.05.06-.02.01-.05.02-.07,0-.02,0-.04-.03-.06-.06-.04-.07-.07-.12-.1-.15-.03-.03-.06-.06-.09-.07-.03-.01-.07-.01-.12,0l-.49.05-.02-.27Z"/>
          <path class="cls-20" d="M59.48,77.88c.03.14.03.27,0,.39-.02.12-.06.23-.13.32-.07.09-.15.17-.26.22-.05.02-.09.04-.12.07-.04.02-.07.04-.11.06-.04.02-.08.03-.13.04-.06.01-.12.02-.18.02-.06,0-.11-.01-.16-.03-.05-.01-.1-.03-.14-.06l-.04-.24s.07.04.11.05c.04.01.08.02.12.02.04,0,.09,0,.14-.01.13-.03.23-.1.28-.22.05-.12.06-.29.02-.5-.03-.16-.08-.3-.15-.42-.07-.12-.15-.2-.25-.26s-.2-.08-.3-.05l-.1.02.48,2.42s.02.06.03.08c.01.02.03.03.06.04h.08s.06.04.07.06c.01.02.02.04.03.08.02.09-.01.14-.09.15l-.8.16s-.07,0-.09-.02c-.02-.02-.04-.05-.05-.09-.01-.07,0-.12.04-.15l.07-.04s.04-.04.05-.06c0-.02,0-.05,0-.09l-.44-2.23s-.02-.06-.04-.08c-.02-.02-.04-.03-.07-.04h-.08c-.05-.03-.09-.07-.1-.14,0-.04,0-.07,0-.1.01-.03.04-.04.08-.05l.82-.16c.24-.05.45-.04.64.02.18.06.34.16.45.3.12.14.2.32.24.53ZM58.67,78.89l.56-.21.54.8s.05.07.07.09c.02.02.05.03.08.04.03.01.06.03.07.04.02.02.03.05.03.08,0,.04,0,.07,0,.1-.01.03-.04.04-.08.05l-.71.14c-.07.01-.12-.02-.13-.11,0-.02,0-.04,0-.06,0-.02.01-.03.03-.05l.03-.02s.02-.04.02-.06c0-.02-.01-.05-.03-.08l-.47-.76Z"/>
          <path class="cls-20" d="M64.01,75.66c0,.1.03.21.08.34.06.15.13.27.21.37.08.1.17.15.27.16.06,0,.12.02.17.03.05.02.11.04.16.07.06.03.12.08.19.14l.93.76s.07.05.1.05c.03,0,.06,0,.08,0,.03,0,.06,0,.08,0,.02.01.04.04.06.08.02.04.02.08,0,.11-.01.03-.03.05-.07.06l-.47.18s-.08.02-.12.02c-.04,0-.08-.03-.12-.06l-.93-.76c-.11-.09-.19-.14-.24-.18-.06-.03-.1-.05-.13-.05-.14-.02-.26-.08-.36-.18s-.19-.23-.26-.4c-.06-.16-.09-.32-.08-.48s.06-.29.14-.41.21-.21.38-.28c.13-.05.26-.07.39-.05.12.02.23.07.33.15.1.08.17.19.22.32.05.13.07.25.06.36s-.05.23-.13.33c-.08.11-.2.21-.36.31l-.05-.1c.06-.05.09-.15.08-.27s-.05-.27-.11-.43c-.06-.15-.12-.26-.19-.33-.07-.07-.13-.1-.19-.07-.06.03-.1.09-.1.18ZM64.37,77.1c0,.06,0,.14,0,.22.01.08.03.16.06.24.04.12.1.21.16.29s.12.13.19.16c.07.03.13.03.2,0,.07-.03.13-.07.17-.14.04-.07.06-.16.07-.27l.16.09c-.02.19-.06.35-.13.48s-.18.22-.33.28c-.14.05-.27.07-.4.04-.12-.03-.23-.09-.33-.18s-.17-.2-.22-.33c-.05-.14-.08-.28-.07-.42,0-.14.05-.27.13-.39.08-.12.19-.22.34-.29l.05.08s-.06.06-.07.12ZM65.48,77c0-.07,0-.12,0-.17,0-.05-.03-.09-.05-.12-.02-.03-.05-.05-.09-.05h-.07s-.04-.02-.06-.03c-.02-.02-.03-.03-.04-.06-.01-.03-.01-.07,0-.1,0-.03.03-.05.06-.06l.4-.16c.07-.03.12,0,.15.08.01.03.02.06.02.09,0,.03-.01.06-.03.09-.03.04-.05.09-.06.14-.02.06-.03.15-.05.27l-.04.46-.15-.11v-.26Z"/>
          <path class="cls-20" d="M71.74,74.12c.12.19.15.38.11.57-.04.19-.18.36-.42.5l-1,.61s-.06.03-.09.02c-.03-.01-.05-.03-.07-.07-.04-.06-.04-.11-.01-.16l.05-.06s.02-.05.02-.08c0-.03,0-.05-.03-.08l-1.18-1.94s-.04-.05-.06-.06-.05-.02-.08-.02h-.08c-.06.02-.1-.01-.14-.07-.02-.04-.03-.07-.03-.1,0-.03.02-.05.06-.07l.78-.48c.17-.1.33-.16.5-.16.16,0,.31.03.45.11.14.08.25.2.35.36.08.13.12.26.13.39,0,.13-.02.26-.08.38-.07.12-.17.22-.32.31l.02-.11c.14-.09.29-.14.43-.15.14,0,.27.02.39.08s.22.16.3.29ZM70.56,74.15l-.35.21-.11-.19.3-.18c.07-.04.12-.1.15-.17.03-.07.03-.15,0-.25-.02-.09-.07-.2-.14-.32-.08-.13-.16-.22-.25-.3s-.18-.11-.27-.13c-.09-.01-.18,0-.27.06l-.08.05,1.25,2.06c.04.07.09.12.14.13.05.02.1,0,.16-.03l.1-.06c.06-.04.11-.09.13-.15.02-.06.02-.14,0-.22-.02-.08-.06-.17-.11-.27-.09-.15-.19-.24-.31-.29-.12-.05-.23-.04-.35.04Z"/>
          <path class="cls-20" d="M72.69,70.37c.14-.11.29-.17.45-.2.16-.02.33,0,.5.05s.34.15.51.28c.17.13.33.29.48.49.14.18.26.37.34.56.08.19.13.38.14.55.01.18,0,.34-.07.49s-.16.28-.29.39c-.14.11-.29.17-.45.2s-.33,0-.5-.05c-.17-.06-.34-.15-.51-.28-.17-.13-.33-.29-.48-.49-.14-.18-.26-.37-.34-.56s-.13-.37-.14-.55c-.01-.18,0-.34.07-.49.06-.15.16-.28.29-.39ZM74.45,71.78c-.12-.16-.25-.3-.39-.44-.13-.13-.27-.25-.4-.35-.13-.1-.26-.18-.38-.24-.12-.06-.22-.1-.31-.11-.09-.02-.16,0-.22.04-.06.05-.1.12-.1.21,0,.09.02.19.07.31.05.12.14.25.25.4.12.16.25.31.39.44.13.13.27.25.4.35.13.1.26.18.38.24.12.06.22.1.31.12.09.02.16,0,.21-.04.06-.05.1-.12.1-.21,0-.09-.02-.19-.08-.31-.05-.12-.14-.25-.25-.4Z"/>
          <path class="cls-20" d="M77.42,68.65l-.9-.83c-.06-.05-.1-.08-.15-.1-.04-.01-.08-.01-.13,0l-.06.03s-.07.02-.09.02c-.03,0-.05-.02-.08-.05-.03-.03-.04-.06-.05-.09,0-.03,0-.06.03-.08l.41-.4s.05-.04.08-.03c.03,0,.06.02.09.05.03.03.04.06.05.08,0,.03,0,.06-.02.09l-.03.05c-.02.06-.02.11,0,.15.02.04.05.09.11.14l.89.81c.06.05.12.1.17.16.05.05.11.11.17.16.14.13.23.28.29.43.06.15.08.31.04.46-.03.15-.12.3-.26.44-.15.14-.3.23-.45.27-.15.04-.31.03-.46-.03-.15-.06-.3-.16-.44-.31-.02-.02-.05-.05-.08-.08-.03-.03-.07-.08-.12-.13-.05-.05-.1-.11-.17-.19l-.84-.93s-.05-.05-.08-.06-.06,0-.09.02l-.06.03c-.06.03-.12.02-.18-.03-.03-.03-.04-.06-.05-.09s0-.06.03-.08l.65-.64s.05-.04.08-.03c.03,0,.06.02.09.05.03.03.04.06.05.08,0,.03,0,.06-.02.09l-.04.07s-.02.05-.01.08c0,.03.02.05.05.09l.85.94c.07.07.13.14.18.2.06.06.11.11.15.15.18.18.34.29.48.32.14.03.26,0,.36-.11.08-.07.12-.16.14-.25.01-.09,0-.19-.04-.29s-.12-.2-.22-.31c-.07-.07-.14-.13-.19-.18-.05-.05-.1-.09-.14-.13Z"/>
          <path class="cls-20" d="M77.89,65.47l.67-.83s.05-.07.05-.1c0-.03.01-.06.02-.09,0-.03.02-.05.03-.07.03-.03.06-.05.1-.05.04,0,.09.02.15.05l.64.38s.08.06.09.09c.02.03.02.06,0,.09-.01.03-.03.05-.06.05s-.06,0-.1-.01c-.17-.07-.31-.11-.41-.14-.1-.03-.18-.04-.23-.03s-.1.03-.13.07l-.08.1,1.89,1.52s.05.04.08.04c.03,0,.05,0,.08-.01l.07-.04c.05-.02.1-.01.16.03.07.05.08.11.03.17l-.52.64s-.05.05-.08.05-.06-.01-.09-.04c-.05-.04-.08-.09-.06-.15l.02-.08s0-.06,0-.08c0-.02-.03-.05-.06-.07l-1.89-1.52-.08.1s-.05.09-.04.14c0,.05.03.13.08.22.05.09.12.21.22.37.02.04.04.07.03.1s-.02.05-.04.07c-.02.02-.05.02-.09.01-.03-.01-.07-.03-.11-.07l-.51-.54c-.05-.05-.08-.1-.09-.13,0-.04,0-.07.03-.1.02-.02.04-.04.06-.05.02-.01.05-.02.08-.04.03-.01.06-.04.08-.07Z"/>
          <path class="cls-20" d="M82.61,63.62s.06.03.08.03c.03,0,.05,0,.08-.02l.06-.05s.1-.02.16.02c.03.02.06.05.07.08,0,.03,0,.06-.02.09l-.45.69s-.05.05-.08.05c-.03,0-.06,0-.1-.03-.06-.04-.08-.08-.08-.14l.02-.08s0-.06-.01-.08c-.01-.02-.03-.04-.06-.06l-1.91-1.24s-.06-.03-.08-.03c-.03,0-.05,0-.08.02l-.06.05s-.1.02-.16-.02c-.04-.02-.06-.05-.07-.08,0-.03,0-.06.02-.09l.45-.69s.05-.05.08-.05c.03,0,.06,0,.1.03.06.04.08.08.08.14l-.02.08s0,.06.01.08c.01.02.03.04.06.06l1.91,1.24Z"/>
          <path class="cls-20" d="M81.78,59.41c.08-.16.19-.28.32-.37.14-.09.29-.15.47-.17.18-.02.37-.01.58.03.21.05.42.12.65.24.21.1.39.23.55.36.16.14.28.28.37.44.09.16.14.31.15.48.01.16-.02.32-.1.48-.08.16-.19.28-.32.37-.14.09-.29.15-.47.17-.18.02-.37.01-.58-.03-.21-.04-.42-.12-.65-.24-.21-.1-.39-.23-.54-.36-.15-.14-.28-.28-.37-.44-.09-.16-.14-.31-.15-.48s.02-.32.1-.47ZM83.98,59.93c-.18-.09-.36-.17-.54-.23-.18-.06-.35-.11-.51-.15-.16-.04-.31-.05-.44-.06s-.24,0-.33.03c-.09.03-.15.07-.18.13-.04.07-.04.15,0,.23.03.08.1.16.2.25.1.08.23.17.4.25.18.09.36.17.54.23.18.06.35.11.51.15.16.04.31.06.44.06.13,0,.24,0,.33-.03.09-.03.15-.07.18-.12.04-.07.04-.15,0-.23-.03-.08-.1-.16-.2-.25-.1-.09-.23-.17-.4-.25ZM84.01,60.49s-.09-.03-.12-.06c-.03-.02-.04-.05-.04-.09,0-.04.02-.06.05-.06.03,0,.07,0,.12,0,.19.05.35.08.48.09.13.01.24.01.33,0,.09-.02.16-.05.22-.09.06-.04.1-.1.14-.17.02-.05.04-.09.03-.12,0-.03,0-.06-.01-.08,0-.02,0-.05,0-.07,0-.02.02-.03.03-.03.02,0,.04,0,.06.02.02,0,.03.02.05.04.02.02.04.03.06.06l.18.17s.06.08.07.11c0,.04,0,.08-.03.14-.04.08-.1.15-.19.2-.08.05-.19.08-.32.1s-.29.01-.48-.01c-.19-.02-.4-.07-.64-.14Z"/>
          <path class="cls-20" d="M85.29,55.81l-1.18-.35c-.07-.02-.13-.03-.18-.03-.04,0-.08.03-.11.06l-.04.05s-.05.05-.08.06c-.03,0-.06,0-.1-.01-.04-.01-.06-.03-.08-.06-.02-.03-.02-.05,0-.09l.19-.54s.03-.06.06-.07c.03-.01.06,0,.1,0,.04.01.06.03.08.05.02.02.03.05.03.09v.06c0,.06.02.11.06.14.04.03.09.06.16.08l1.15.34c.08.02.15.04.22.07.07.02.15.05.22.07.18.06.33.15.45.26.12.11.2.24.24.39.04.15.03.32-.04.51-.07.19-.16.34-.28.44-.12.1-.27.16-.43.17-.16.01-.34-.01-.53-.08-.03,0-.06-.02-.11-.04-.04-.02-.1-.04-.16-.06-.07-.03-.14-.06-.23-.09l-1.17-.47s-.07-.02-.1-.02c-.03,0-.05.02-.07.05l-.04.06c-.04.06-.1.07-.17.05-.04-.01-.06-.03-.08-.06s-.02-.06,0-.09l.3-.86s.03-.06.06-.06c.03,0,.06,0,.1,0,.04.01.06.03.08.05.02.02.03.05.02.09v.08s0,.05.02.07c.02.02.05.04.09.05l1.18.47c.09.04.17.07.25.1.08.03.14.05.2.07.24.09.43.11.57.07s.23-.12.28-.26c.03-.1.04-.2.01-.29-.03-.09-.08-.17-.17-.25-.08-.07-.19-.13-.33-.18-.1-.03-.18-.06-.25-.08-.06-.02-.13-.04-.18-.06Z"/>
          <path class="cls-20" d="M84.32,53.22s-.07-.02-.09-.05c-.02-.02-.02-.05-.01-.09l.25-1.15s0-.08,0-.11c0-.03-.02-.06-.03-.09,0-.03,0-.06,0-.09,0-.04.03-.06.07-.08.04-.01.09-.02.16-.02h.65s.09.02.11.03c.03.02.05.04.05.07,0,.03,0,.06-.02.08-.02.02-.06.03-.1.04-.12.02-.23.03-.31.05-.08.02-.14.04-.19.07-.05.03-.08.06-.11.1-.02.04-.04.08-.05.13l-.07.3,2.3.5c.08.02.15.02.19,0,.05-.02.08-.06.09-.12l.04-.17c.02-.07.01-.14,0-.2-.02-.06-.07-.13-.16-.2s-.21-.15-.38-.25c-.04-.02-.06-.05-.07-.07,0-.03,0-.05,0-.08.01-.03.04-.05.07-.05.04,0,.08,0,.12.02l.69.29c.07.03.11.06.14.08.03.03.04.06.03.11,0,.03-.02.05-.04.07-.02.02-.04.04-.06.07s-.03.06-.04.1l-.26,1.22s-.03.06-.05.08c-.03.01-.06.02-.1,0-.07-.01-.11-.05-.12-.1v-.08s-.03-.05-.05-.07c-.02-.02-.05-.03-.08-.04l-2.22-.48s-.06,0-.09,0c-.02,0-.05.02-.06.05l-.04.07s-.09.06-.15.04ZM85.72,52.9l.1-.44c.01-.06,0-.11-.02-.14-.03-.03-.09-.07-.19-.11-.04-.02-.07-.04-.09-.06-.02-.02-.02-.04-.02-.06,0-.05.05-.07.13-.07l.7.03s.09,0,.11.02c.03.01.04.04.05.06,0,.03,0,.05-.01.07s-.04.03-.07.04c-.07.02-.13.03-.17.05-.04.02-.07.04-.09.07s-.03.07-.05.12l-.1.48-.26-.06Z"/>
        </g>
        <path class="cls-4" d="M81.62,46.75c-1.53,15.32-14.49,27.32-30.21,27.32-9.49,0-17.98-4.38-23.56-11.23"/>
        <path class="cls-6" d="M79.88,47.27c-1.76,14.15-13.85,25.13-28.47,25.13-8.72,0-16.55-3.91-21.81-10.07"/>
      </g>
      <g>
        <path d="M96.04,20.23c-.86-.59-1.94-.52-2.93-.49-3.06.22-6,1.07-8.95,1.94-7.99,2.33-27.51,8.5-35.74,11.05,0,0-23.9,7.18-23.9,7.18-3.98,1.2-7.99,2.34-11.99,3.51-3.99,1.25-8.4,1.8-12.53.89,8.39-.21,16.16-3.45,24.1-5.79,11.85-3.8,35.74-11.26,47.65-14.87,3.99-1.19,7.94-2.44,11.97-3.58,3.19-.9,9.8-2.53,12.32.17h0Z"/>
        <path class="cls-6" d="M8.53,43.96c0-.21,0-.42,0-.64C8.53,19.78,27.61.7,51.15.7c15.19,0,28.53,7.95,36.08,19.92"/>
        <path class="cls-5" d="M10.2,43.32c0-10.94,4.26-21.22,11.99-28.96,7.73-7.73,18.02-11.99,28.95-11.99s21.22,4.26,28.95,11.99c2.07,2.07,3.9,4.33,5.45,6.73"/>
        <path class="cls-4" d="M20.93,40.39c1.48-15.37,14.47-27.43,30.22-27.43,9.53,0,18.06,4.42,23.62,11.31"/>
        <path class="cls-6" d="M22.67,39.87c1.71-14.2,13.83-25.24,28.48-25.24,8.76,0,16.62,3.95,21.88,10.16"/>
        <g>
          <g>
            <path class="cls-19" d="M32.31,26.37l-.15-.1c.11-.17,2.83-4.11,13.89-3.85v.19c-10.96-.27-13.71,3.72-13.74,3.76Z"/>
            <path class="cls-23" d="M32.31,26.37l-.15-.1h0c.04-.06.08-.12.13-.17.62-.73,1.43-1.25,2.26-1.7.83-.45,1.71-.77,2.59-1.04.2-.06.39-.11.6-.17.16-.05.31-.09.48-.12.48-.1.96-.23,1.44-.29l.58-.09c.71-.12,1.39-.16,2.06-.24.68-.03,1.35-.09,2.06-.1h.53c.26,0,.63,0,1.17,0,.04,0,.08.04.08.08h0c0,.06,0,.11,0,.19,0,.04-.04.08-.08.08-.95,0-2.28,0-3.5.08-1.22.09-2.32.24-2.82.33-.17.03-.34.05-.5.08-.08.03-.87.16-1.64.39-.78.2-1.52.5-1.6.52-.21.09-.42.18-.65.27-.8.35-1.56.8-2.09,1.21-.54.41-.85.76-.91.79-.01.01-.02.01-.01,0,0,0,0,0,0-.02.02-.1.32-.49.85-.91.52-.43,1.28-.87,2.08-1.24.22-.1.44-.19.65-.28.09-.02.84-.33,1.62-.53.78-.23,1.57-.36,1.66-.39.17-.04.34-.06.51-.08.51-.09,1.62-.24,2.84-.33,1.23-.08,2.56-.08,3.52-.06l-.08.08c0-.08,0-.13,0-.19l.08.08c-.54,0-.91,0-1.17,0h-.53c-.7,0-1.38.04-2.05.06-.67.07-1.35.1-2.06.21l-.58.09c-.48.06-.96.18-1.44.27-.16.03-.32.07-.48.11-.2.06-.4.11-.6.16-.88.25-1.77.57-2.6,1.01-.83.44-1.64.96-2.26,1.68-.05.05-.09.11-.13.17h0s.15.1.15.1Z"/>
          </g>
          <path class="cls-21" d="M53.03,19.62c.23,1.65,1.31,2.83,1.31,2.83,0,0,.71-1.51.48-3.17-.23-1.66-1.31-2.83-1.31-2.83,0,0-.71,1.51-.48,3.17Z"/>
          <path d="M26.16,33.65c.04-.76.29-1.53.73-2.17.22-.32.48-.61.77-.85.29-.24.62-.44.97-.6.69-.3,1.47-.39,2.21-.24.76.15,1.47.61,1.95,1.27.48.66.74,1.51.7,2.35-.01.21-.03.42-.09.63-.05.21-.13.42-.23.61-.2.38-.5.71-.85.92-.35.22-.75.34-1.14.37-.2.01-.4,0-.59-.03-.07-.01-.09-.02-.15-.03-.06-.01-.11-.03-.16-.05-.1-.03-.2-.08-.29-.13-.37-.2-.68-.53-.87-.93-.19-.4-.25-.86-.18-1.3l.52.09c-.04.32.03.64.16.92.14.28.36.5.62.64.07.03.13.06.2.08.04.01.07.02.1.03.03,0,.09.02.11.02.15.02.31.03.46.01.31-.02.61-.12.86-.29.26-.17.48-.4.62-.67.15-.28.22-.59.23-.94.04-.68-.16-1.37-.54-1.91-.38-.54-.95-.94-1.57-1.08-.64-.14-1.32-.1-1.94.13-.31.11-.62.27-.9.47-.28.19-.54.43-.77.7-.46.54-.79,1.22-.96,1.96Z"/>
          <path class="cls-17" d="M60.44,25.04c-1.99,0-3.62-1.62-3.72-3.68-.08-1.65,1.15-3.06,2.74-3.14,1.2-.06,2.19.93,2.25,2.25.05,1.02-.71,1.88-1.69,1.93l-.04-.74c.59-.03,1.04-.55,1.01-1.16-.04-.92-.69-1.59-1.5-1.55-1.2.06-2.12,1.12-2.06,2.36.08,1.67,1.4,2.97,3,2.97v.74Z"/>
          <g>
            <path class="cls-21" d="M36.58,34.11c-.54,0-1.07-.12-1.55-.36-.83-.42-1.43-1.16-1.69-2.08-.69-2.44,1.01-4.88,3.05-5.84,4.16-2.19,9.99-1.84,15.63-1.5,4.36.26,8.87.53,12.42-.42l.18.72c-3.65.98-8.22.71-12.64.45-5.54-.33-11.27-.68-15.28,1.43-1.77.83-3.25,2.91-2.67,4.96.2.72.67,1.3,1.31,1.62.14.07,1.12.57,2.13.15.95-.39,1.55-1.42,1.46-2.56,0-.33.02-.65.03-.98.19.27.39.54.58.81.09.27.26.97-.04,1.75-.45,1.2-1.63,1.62-1.83,1.69-.49.17-.91.16-1.1.16Z"/>
            <path class="cls-21" d="M36.58,34.12c-4.15-.13-4.26-5.34-1.48-7.47,5.62-3.91,13.02-2.38,19.43-2.25,3.44.24,6.72.06,10-.51,0,0,.18.72.18.72-3.22,1.14-7.06.76-10.49.67-5.33-.17-20.44-2.36-20.24,5.85.52,3.17,5.19,2.94,4.96-.45.02-.33-.05-.66-.06-.98,0-.05.04-.09.09-.09.28.19.46.57.66.85.52,1.91-1.12,3.76-3.04,3.66h0ZM36.58,34.11c1.85.16,3.7-1.87,2.89-3.54-.21-.26-.4-.54-.58-.81,0,0,.17-.05.17-.05-.03.33-.12.65-.12.98.25,3.41-4.47,3.64-5,.45-.24-8.27,14.92-6.15,20.29-6,3.47.16,7,.28,10.37-.59,0,0-.07.11-.07.11,0,0-.18-.72-.18-.72,0,0,.12.07.11.07-3.26.82-6.63.7-9.94.55-6.4-.16-13.77-1.72-19.39,2.14-2.77,2.1-2.68,7.27,1.44,7.41h0Z"/>
          </g>
          <path class="cls-17" d="M65.55,21.57c0-.27.14-.57.39-.74.12-.09.28-.15.44-.16.08,0,.16,0,.24,0h.05s.06.02.06.02c.04,0,.08.02.11.03.3.08.58.28.77.57.19.29.27.67.2,1.02v-.04c-.01.32-.14.61-.3.85-.16.24-.36.42-.56.58-.41.32-.85.53-1.29.71-.89.34-1.81.51-2.72.6-1.83.17-3.67.04-5.45-.33-.89-.19-1.77-.45-2.62-.8-.85-.35-1.66-.79-2.4-1.35-.73-.56-1.39-1.24-1.87-2.05-.48-.8-.78-1.71-.87-2.63.16.91.51,1.78,1.03,2.52.52.74,1.18,1.36,1.91,1.86,1.48.99,3.2,1.54,4.93,1.83,1.74.28,3.52.31,5.24.08.86-.12,1.72-.3,2.51-.59.4-.14.78-.32,1.1-.55.32-.23.55-.51.6-.8v-.05s0,0,0,0c.05-.16.04-.33-.03-.5-.07-.16-.2-.32-.38-.42l-.07-.04-.03-.02-.04-.02s-.09-.04-.14-.04c-.09-.02-.2-.01-.3.01-.21.05-.41.21-.52.46Z"/>
          <path class="cls-15" d="M61.21,21.2c0,.67-.52,1.21-1.17,1.21s-1.17-.54-1.17-1.21.52-1.21,1.17-1.21,1.17.54,1.17,1.21Z"/>
          <path class="cls-21" d="M47.62,22.47c1.81.79,3.71.07,3.71.07,0,0-1.04-2-2.85-2.8-1.81-.79-3.71-.07-3.71-.07,0,0,1.04,2.01,2.85,2.8Z"/>
          <path class="cls-21" d="M44.87,30c1.53-.14,2.68-1.23,2.68-1.23,0,0-1.34-.87-2.88-.74-1.53.14-2.68,1.23-2.68,1.23,0,0,1.34.87,2.88.73Z"/>
          <g>
            <path class="cls-21" d="M38.59,28.59l-.15-.11c1.69-2.25,5.92-1.99,10.82-1.69,2.82.17,5.74.35,8.53.09l.02.18c-2.8.26-5.73.09-8.56-.09-4.85-.29-9.04-.55-10.67,1.62Z"/>
            <path class="cls-23" d="M38.59,28.62c-.06-.04-.13-.09-.17-.12-.01-.01-.02-.03,0-.04h0c.93-1.22,2.33-1.53,3.42-1.74,1.13-.19,2.12-.21,3-.22,1.76,0,3.09.08,4.3.14,1.31.06,2.43.11,3.66.16,1.33.03,2.89.08,4.98-.1.09,0,.17.06.18.15,0,.05,0,.11.02.18,0,.09-.06.17-.15.18h0s-.06,0-.1,0c-2.35.18-3.7.11-6.23-.04-1.27-.08-2.83-.22-4.97-.33-1.07-.05-2.28-.1-3.67,0-.69.06-1.43.15-2.19.38-.75.23-1.54.64-2.08,1.34.67-.87,1.7-1.28,2.65-1.5.97-.22,1.92-.29,2.82-.31,1.82-.04,3.48.05,5.04.12,3.13.15,5.87.26,8.62,0,.03,0,.05,0,.07,0l-.15.18c0-.08-.01-.14-.02-.18l.18.15c-2.12.19-3.69.14-5.03.09-1.34-.06-2.45-.15-3.66-.24-1.21-.09-2.53-.21-4.28-.25-.88-.01-1.86-.02-2.99.15-1.09.19-2.48.47-3.43,1.67-.01.01,0,.03,0,.04.04.03.1.08.17.12Z"/>
          </g>
          <g>
            <ellipse class="cls-9" cx="46.54" cy="17.46" rx=".77" ry=".83"/>
            <ellipse class="cls-11" cx="43.94" cy="18.17" rx=".65" ry=".71"/>
            <ellipse class="cls-12" cx="41.79" cy="18.99" rx=".56" ry=".61"/>
            <ellipse class="cls-13" cx="39.77" cy="20.01" rx=".48" ry=".52"/>
            <ellipse class="cls-10" cx="37.93" cy="21.13" rx=".41" ry=".44"/>
          </g>
        </g>
        <g>
          <g>
            <path class="cls-20" d="M25.38,15.82s-.06-.09-.06-.13c0-.04.02-.08.06-.11l1.21-1.03s.07-.08.09-.11c.02-.04.03-.08.04-.11.01-.04.04-.07.07-.1.04-.03.09-.04.14-.03.05.02.11.06.19.12l.69.55c.05.04.09.08.1.12.02.04.02.08,0,.12-.02.05-.05.07-.09.07-.04,0-.09,0-.14-.04-.15-.09-.27-.15-.38-.2s-.19-.07-.27-.08c-.07,0-.14,0-.2.02-.06.02-.11.05-.17.1l-.32.27,2.09,2.46c.07.09.15.14.21.16.07.02.13,0,.19-.05l.18-.15c.08-.07.13-.14.16-.22.03-.08.02-.2,0-.34-.03-.14-.1-.34-.21-.58-.02-.06-.03-.1-.02-.14,0-.03.03-.06.07-.08.04-.02.08-.02.12,0,.04.02.08.06.12.12l.51.88c.05.09.08.16.08.21s-.01.1-.06.14c-.03.02-.06.04-.1.05-.04,0-.08.02-.12.03-.04.01-.08.03-.13.07l-1.28,1.09s-.08.05-.12.04c-.04,0-.08-.03-.11-.08-.06-.07-.08-.14-.05-.21l.05-.09s.02-.07.01-.11c0-.03-.03-.07-.06-.11l-2.02-2.38s-.06-.06-.1-.07c-.03-.01-.07-.01-.11,0l-.1.03c-.07.02-.14-.01-.2-.08ZM27.15,16.65l.47-.4c.07-.06.1-.11.09-.18,0-.06-.04-.15-.12-.28-.03-.05-.05-.1-.05-.13,0-.04,0-.06.03-.09.05-.04.11-.03.2.04l.74.62c.05.04.08.08.1.12s.02.07,0,.11c-.02.04-.04.06-.07.07-.03,0-.07,0-.11-.02-.09-.04-.17-.07-.23-.09-.06-.01-.11-.02-.16,0s-.09.04-.14.09l-.5.43-.24-.28Z"/>
            <path class="cls-20" d="M30.96,13.37c-.08.05-.12.11-.12.19s.01.15.06.23c.03.05.06.09.1.12.04.03.09.05.15.05.06,0,.14,0,.24-.04.24-.07.44-.1.6-.09.16.02.3.07.42.16.11.09.22.21.31.35.17.26.24.51.21.74-.03.23-.16.43-.4.58-.08.05-.16.09-.22.1-.06.01-.12.02-.16.02-.05,0-.08,0-.1.03-.03.02-.04.04-.05.07,0,.03,0,.06-.01.09,0,.03-.02.06-.04.07-.03.02-.05.02-.08,0-.03-.01-.06-.04-.11-.09l-.42-.42c-.07-.07-.11-.13-.13-.18-.02-.05-.02-.09,0-.13.02-.04.05-.06.09-.06.04,0,.08.02.13.06.13.09.26.16.36.2.11.04.21.06.3.05.09,0,.17-.03.24-.07.09-.06.14-.13.15-.21.01-.08-.01-.16-.07-.25-.03-.05-.07-.09-.12-.12-.04-.03-.1-.04-.18-.04-.08,0-.18.02-.3.06-.19.06-.36.08-.51.06-.15-.02-.28-.07-.4-.16-.12-.09-.23-.21-.33-.37-.1-.16-.17-.32-.19-.48s0-.31.06-.44c.06-.13.16-.24.29-.33.09-.06.16-.09.23-.1.06-.01.12-.02.17-.02.05,0,.08,0,.12-.03.03-.02.05-.05.05-.08,0-.03.01-.07.01-.1,0-.03.02-.06.05-.07.02-.01.05-.01.08,0,.03.01.07.05.11.1l.37.42c.06.07.1.13.12.17.02.04.02.09,0,.12-.02.04-.05.06-.09.05s-.09-.03-.15-.07c-.19-.13-.36-.2-.49-.21-.14-.01-.25,0-.34.07Z"/>
            <path class="cls-20" d="M34.01,11.71h-.09s-.07,0-.09-.03c-.02-.02-.05-.04-.06-.07-.02-.04-.03-.08-.02-.12s.03-.06.07-.08l.11-.05s.05-.03.06-.06c.01-.03.02-.07.03-.13l.04-.57c0-.07.02-.13.04-.17s.04-.07.07-.08c.03-.02.06-.01.1,0,.03.02.06.06.09.12l1.13,2.3c.06.13.13.22.2.28s.13.06.19.03c.05-.02.08-.06.09-.1.01-.04.01-.09,0-.14s0-.09,0-.13c0-.04.01-.07.04-.08.02-.01.04,0,.07,0s.05.05.08.1c.06.13.1.27.1.4,0,.14-.03.26-.09.37-.06.11-.15.2-.28.26-.18.09-.36.09-.53.01-.17-.08-.32-.26-.45-.52l-.71-1.43c-.03-.05-.05-.09-.08-.1-.03-.02-.06-.03-.1-.03ZM34.53,11.48l-.17-.34.66-.32s.07-.02.1,0c.03.01.06.04.08.08.03.06.03.12.01.18-.02.06-.07.11-.17.16l-.52.25Z"/>
            <path class="cls-20" d="M38.88,12.5c-.08.03-.16.03-.24,0-.08-.03-.16-.09-.23-.17-.07-.08-.13-.18-.17-.29-.04-.11-.06-.22-.06-.33s.02-.2.07-.28.1-.13.18-.16c.08-.03.16-.03.24,0,.08.03.16.09.23.17.07.08.13.17.17.29.04.11.06.22.06.33,0,.11-.02.2-.06.28-.04.08-.1.13-.18.16Z"/>
            <path class="cls-20" d="M44.3,9.95l-.15-.13.38-.49c.14-.17.25-.34.33-.51.08-.17.13-.36.15-.56.02-.2.01-.42-.03-.67-.04-.24-.08-.43-.13-.57s-.1-.24-.16-.3c-.06-.06-.12-.09-.19-.07-.1.02-.16.08-.19.19-.03.11-.03.26,0,.43l.06.38c.03.16.01.3-.04.41-.05.11-.14.17-.25.19-.11.02-.21-.02-.29-.11-.08-.09-.14-.23-.17-.42-.03-.2-.02-.4.03-.59.05-.19.15-.35.3-.49.15-.14.34-.22.59-.26.25-.04.46-.02.63.06.18.08.32.21.43.38.11.17.18.38.22.62.03.21.03.41-.02.6s-.14.39-.27.59c-.13.2-.32.42-.55.65l-.68.7ZM44,10.46c-.04-.22,0-.41.09-.57.1-.16.25-.25.48-.29.1-.02.2-.02.3,0,.1.01.19.03.29.05.1.02.19.03.29.05.1.01.2,0,.3,0,.1-.02.17-.06.21-.12.05-.06.08-.16.11-.29.01-.05.03-.09.05-.11.02-.02.04-.03.07-.03.03,0,.06.02.08.05.02.04.04.1.05.19.03.31.03.57,0,.77-.03.2-.09.35-.17.45-.08.1-.19.16-.33.18-.11.02-.2.01-.29-.02-.09-.03-.17-.09-.25-.18-.08-.09-.16-.21-.23-.37-.05-.1-.09-.16-.13-.19-.03-.03-.06-.04-.1-.03-.04,0-.07.04-.08.09-.02.05-.02.14,0,.26.02.15.01.27,0,.36s-.06.17-.11.21c-.05.05-.12.08-.19.09-.09.02-.18-.02-.26-.12-.08-.09-.13-.23-.16-.41Z"/>
            <path class="cls-20" d="M49.76,5.87c.28,0,.52.07.72.25.2.17.36.43.47.77s.18.75.19,1.24c.01.46-.03.87-.13,1.21-.1.34-.25.61-.45.8-.2.19-.43.29-.71.3-.28,0-.52-.08-.72-.25-.2-.17-.36-.43-.47-.77-.11-.34-.18-.75-.19-1.24-.01-.46.03-.87.13-1.21.1-.34.25-.61.45-.8.2-.19.43-.29.7-.3ZM50.32,8.27c-.01-.5-.04-.91-.09-1.22-.05-.31-.11-.53-.19-.66-.08-.14-.18-.2-.29-.2-.11,0-.19.07-.26.19-.07.13-.12.32-.15.59-.03.27-.04.61-.03,1.04.01.51.04.91.09,1.22.05.31.11.53.19.66.08.14.18.2.29.2.11,0,.2-.07.27-.2.07-.13.12-.33.15-.59.03-.27.04-.61.03-1.04Z"/>
            <path class="cls-20" d="M53.76,6.66s-.03-.09-.03-.15c0-.06.03-.11.06-.14.03-.04.08-.05.13-.05l.23.02c.12.01.22,0,.31-.03.09-.03.18-.09.29-.16.03-.03.07-.05.1-.05.03,0,.06-.01.09,0,.1,0,.14.08.12.23l-.34,3.51c0,.08,0,.13.01.18.02.04.05.07.08.09l.21.09c.07.03.1.1.09.2,0,.06-.02.1-.05.13-.03.03-.06.04-.11.04l-1.45-.14c-.05,0-.09-.03-.12-.06-.02-.03-.03-.08-.03-.14,0-.1.06-.16.14-.18l.25-.04s.08-.03.11-.07c.03-.04.04-.09.05-.17l.27-2.73c0-.1,0-.16-.01-.2-.02-.04-.05-.06-.1-.06l-.18-.02c-.05,0-.09-.03-.12-.07Z"/>
            <path class="cls-20" d="M59.46,6.83c.27.06.49.2.64.42.15.22.24.5.26.86.02.35-.02.77-.13,1.24-.1.45-.25.83-.43,1.14-.18.31-.4.53-.63.66-.24.13-.49.17-.76.11-.27-.06-.48-.2-.64-.42-.15-.22-.24-.5-.27-.86-.02-.35.02-.77.13-1.24.1-.45.25-.83.43-1.14.18-.31.4-.53.63-.66s.49-.17.76-.11ZM59.4,9.3c.11-.49.19-.89.22-1.2.03-.31.02-.54-.02-.69-.04-.15-.12-.24-.23-.27-.1-.02-.21.02-.3.12-.1.11-.2.28-.29.54s-.19.58-.29,1c-.11.49-.19.9-.22,1.2-.03.31-.02.54.02.69.04.15.12.24.23.27.11.02.21-.02.31-.12.1-.11.2-.29.29-.54.1-.25.19-.58.29-1Z"/>
          </g>
          <path class="cls-2" d="M63.8,10.57c1.63.44,4.23,1.3,6.94,3,3.22,2.02,5.04,4.25,5.94,5.53"/>
          <path class="cls-1" d="M23.99,20.17c-1.14,1.18-2.86,3.2-4.18,5.99-1.57,3.32-1.82,6.12-1.83,7.65"/>
        </g>
      </g>
    </g>
  </g>
</svg>