<?xml version="1.0" encoding="UTF-8"?>
<svg id="Layer_2" data-name="Layer 2" xmlns="http://www.w3.org/2000/svg" viewBox="0 0 192.98 51.84">
  <defs>
    <style>
      .cls-1 {
        fill: #070707;
      }

      .cls-1, .cls-2, .cls-3 {
        stroke: #050505;
      }

      .cls-1, .cls-4 {
        stroke-miterlimit: 10;
      }

      .cls-1, .cls-3, .cls-5 {
        stroke-width: .93px;
      }

      .cls-2 {
        fill: #020202;
        font-family: Fraunces-SemiBold, Fraunces;
        font-size: 7.56px;
        font-variation-settings: 'opsz' 9, 'wght' 600, 'SOFT' 0, 'WONK' 1;
        font-weight: 600;
        letter-spacing: .51em;
        stroke-width: .24px;
      }

      .cls-6, .cls-7 {
        stroke-linecap: round;
        stroke-linejoin: round;
        stroke-width: 1.3px;
      }

      .cls-6, .cls-7, .cls-4 {
        stroke: #daaf75;
      }

      .cls-6, .cls-4 {
        fill: #daaf75;
      }

      .cls-7 {
        fill: #fdd600;
      }

      .cls-4 {
        stroke-width: .43px;
      }

      .cls-3, .cls-5 {
        fill: #050505;
      }

      .cls-5 {
        stroke: #020202;
      }
    </style>
  </defs>
  <g id="Layer_1-2" data-name="Layer 1">
    <g>
      <path d="M192.97,50.59c-1.01-8.27-11.76-10.06-18.61-10.38-7.85-.32-15.78-.32-23.67-.39-36.84-.17-81.63.26-118.58-.6-7.95.12-16.28-2.62-21.94-8.25,6.19,4.94,14.12,7.25,21.98,7.17,36.97.57,81.69-.16,118.55.21,8.9.14,17.83,0,26.74.65,6.42.81,15.7,3.75,15.53,11.59h0Z"/>
      <path class="cls-5" d="M.84,12.63C2.65,3.95,8.17.56,17.61.47c9.44-.1,14.3,3.15,12.46,11.86-1.82,8.7-7.33,12.06-16.77,12.16-9.44.1-14.28-3.16-12.46-11.86ZM21.39,12.42c1.15-5.44-.38-7.34-4.38-7.3-4.01.04-6.36,2.01-7.51,7.42-1.15,5.44.39,7.34,4.42,7.3s6.34-1.99,7.48-7.42Z"/>
      <path class="cls-3" d="M34.21,1.18l9.27-.1,6.85,15.2,3.46-15.3,6.01-.06-4.9,23.36-9.22.09-7.06-15.67-3.31,15.78-6.01.06L34.21,1.18Z"/>
      <path class="cls-3" d="M158.33,19.09l-7.61.08.83-4.89,23.43-.24-.83,4.89-7.59.08-3.93,19.07-8.39-.18,4.09-18.81Z"/>
      <path class="cls-5" d="M61.03,13.9l11.67-.12c9.51-.1,12.33,2.35,11.14,8-1.19,5.69-4.54,8.38-13.85,8.48l-4.19.04-1.49,7.69-8.26.1,4.98-24.2ZM69.78,25.83c2.88-.03,4.65-.82,5.29-3.95.64-3.01-.6-3.65-3.73-3.62l-3.01.03-1.6,7.57,3.05-.03Z"/>
      <path class="cls-3" d="M116.63,14.42l8.25-.08-4.82,23.56-8.33-.12,4.9-23.36Z"/>
      <path class="cls-3" d="M127.46,14.53l9.27-.1,6.85,15.2,3.46-15.3,6.01-.06-4.9,23.57-9.22.09-7.06-15.88-3.31,15.78-6.01.06,4.9-23.36Z"/>
      <path class="cls-1" d="M96.29,36.84c-5.3.16-8.86-.73-10.57-2.64-1.39-1.56-1.77-4.09-1.12-7.54,1.54-8.22,6.2-11.7,16.09-12,5.32-.16,8.88.73,10.58,2.64,1.39,1.56,1.76,4.09,1.1,7.54-1.55,8.23-6.21,11.7-16.09,12ZM99.98,15.17c-7.7.23-9.7,6.03-10.53,10.36-.49,2.57-.89,6.26,1.24,8.65,1.37,1.53,3.43,2.23,6.31,2.15,7.69-.23,9.66-6.03,10.48-10.37.49-2.57.89-6.26-1.24-8.65-1.36-1.53-3.41-2.23-6.27-2.14Z"/>
      <g>
        <path class="cls-4" d="M102.19,25.69l1.04-.42-1-.5c-1.49-.75-2.84-2.16-3.3-4.07l-.31-1.28-.43,1.25c-.64,1.86-1.68,3.3-3.23,3.92l-1.04.42,1,.5c1.49.75,2.62,2.28,3.08,4.19l.31,1.28.43-1.25c.64-1.86,1.9-3.42,3.45-4.04Z"/>
        <line class="cls-7" x1="90.58" y1="24.87" x2="80.06" y2="24.76"/>
        <line class="cls-6" x1="99.33" y1="6.54" x2="98.66" y2="16.66"/>
        <line class="cls-6" x1="98.12" y1="34.66" x2="98.04" y2="41.79"/>
        <line class="cls-6" x1="116.84" y1="25.64" x2="106.32" y2="25.53"/>
      </g>
      <text class="cls-2" transform="translate(39.84 48.95) scale(.83 1.2)"><tspan x="0" y="0">Outfitter &amp; Boutique</tspan></text>
    </g>
  </g>
</svg>