<?xml version="1.0" encoding="UTF-8"?>
<svg id="Layer_2" data-name="Layer 2" xmlns="http://www.w3.org/2000/svg" viewBox="0 0 434.77 219.81">
  <defs>
    <style>
      .cls-1 {
        fill: #bd8035;
      }
    </style>
  </defs>
  <g id="Layer_1" data-name="Layer 1">
    <g>
      <g>
        <path class="cls-1" d="M130.21,20.16l-8.19,20.33h6.6c18.81,0,34.05,15.24,34.05,34.05v18.84c0,30.66-13.33,59.75-36.56,79.81l-39.7,34.27-39.7-34.27c-23.23-20.06-36.56-49.15-36.56-79.81v-18.92c0-18.76,15.21-33.97,33.97-33.97h0l-8.15-20.33H0v73.22c0,33.38,14.57,65.04,39.98,86.88l46.02,39.55,46.02-39.55c25.41-21.83,39.98-53.5,39.98-86.88V20.16h-41.79Z"/>
        <g>
          <path class="cls-1" d="M86.16,105.85c-4.32-5.7-6.72-11.59-18.24-15.39-8.04-2.65-18.33.29-23.42,2.82-6.5,3.22-16.32,15.8-16.86,19.39-.33,1.61-.04,3.38.83,4.7,1.19,1.78,3.38,2.59,5.24,1.92,2.05-.73,3.41-2.88,4.72-4.83,4.04-5.99,7.31-9.21,15-12.77,5.76-2.66,15.15-.45,18.66,2.25,1.54,1.19,2.89,3.11,3.63,5.08,1.01,2.66.85,5.48.31,8.3-.53,2.76-1.52,6.82-5.94,7.13-1.34.09-4.44-1.33-5.46-3.07-.75-1.29-1.26-3.78-.55-5.1-3.59-.18-7.2,2.96-8.95,6.57-1.75,3.61-1.58,8.35.44,11.78,1.93,3.28,5.46,5.21,8.89,4.9-1.52,5.95.46,11.97,3.14,17.66,2.58,5.47,5.3,9.04,9.08,13.15,1.69,1.84,5.6,4.86,9.16,8.47,3.56-3.62,8.11-6.63,9.8-8.47,3.77-4.12,6.5-7.68,9.08-13.15,2.69-5.69,4.67-11.71,3.14-17.66,3.43.31,6.96-1.62,8.89-4.9,2.01-3.43,2.19-8.17.43-11.78-1.75-3.61-5.36-6.75-8.95-6.57.71,1.31.17,3.79-.55,5.1-.92,1.68-2.09,3.89-5.46,3.07-4.13-1.01-5.86-3.55-6.47-6.86-.39-2.08-.17-5.9.84-8.57.74-1.97,2.1-3.89,3.64-5.08,3.5-2.7,12.9-4.92,18.66-2.25,7.69,3.56,10.97,6.78,15,12.77,1.31,1.95,2.67,4.1,4.72,4.83,1.87.66,4.06-.14,5.25-1.92.88-1.32,1.16-3.1.83-4.7-.53-3.59-10.36-16.17-16.86-19.39-5.09-2.53-15.38-5.47-23.42-2.82-11.52,3.79-13.92,9.69-18.24,15.39ZM94.05,137.51c.24,1.17.36,2.36.38,3.56,0,.38,0,.75,0,1.13-.08,3.06-.75,6.14-1.76,8.94-1.53,4.25-6.91,13.13-7.05,12.92-.14.22-6-8.66-7.69-12.92-1.68-4.25-2.51-9.1-1.52-13.64,1.18-5.38,9.13-13.51,9.27-13.39.13-.11,7.29,8.02,8.37,13.39Z"/>
          <path class="cls-1" d="M76.67,8.47c-3.77,4.12-6.5,7.68-9.08,13.15-2.69,5.69-4.67,11.71-3.14,17.66-3.43-.31-6.96,1.62-8.89,4.9-2.01,3.43-2.19,8.17-.44,11.78,1.76,3.61,5.36,6.75,8.95,6.57-.71-1.31-.19-3.81.55-5.1,1.02-1.74,4.11-3.16,5.46-3.07,4.41.31,5.4,4.37,5.94,7.13.55,2.82.7,5.63-.31,8.3-.74,1.97-2.1,3.89-3.63,5.08-3.5,2.7-12.9,4.92-18.66,2.25-7.69-3.56-10.97-6.78-15-12.77-1.31-1.95-2.67-4.1-4.72-4.83-1.86-.66-4.06.14-5.24,1.92-.88,1.32-1.16,3.1-.83,4.7.53,3.59,10.36,16.17,16.86,19.39,5.09,2.53,15.38,5.47,23.42,2.82,11.52-3.79,13.92-9.69,18.24-15.39,4.32,5.7,6.72,11.59,18.24,15.39,8.04,2.65,18.33-.29,23.42-2.82,6.5-3.22,16.33-15.8,16.86-19.39.33-1.61.04-3.38-.83-4.7-1.19-1.78-3.38-2.59-5.25-1.92-2.05.73-3.41,2.88-4.72,4.83-4.03,5.99-7.31,9.21-15,12.77-5.76,2.66-15.15.45-18.66-2.25-1.54-1.19-2.89-3.11-3.64-5.08-1.01-2.66-1.23-6.49-.84-8.57.61-3.32,2.34-5.85,6.47-6.86,3.37-.83,4.53,1.39,5.46,3.07.72,1.31,1.26,3.78.55,5.1,3.59.18,7.2-2.96,8.95-6.57,1.76-3.61,1.58-8.35-.43-11.78-1.93-3.28-5.46-5.21-8.89-4.9,1.52-5.95-.46-11.97-3.14-17.66-2.58-5.47-5.31-9.04-9.08-13.15-1.69-1.84-6.24-4.86-9.8-8.47-3.56,3.62-7.47,6.63-9.16,8.47ZM92.67,27.69c1.01,2.81,1.68,5.88,1.76,8.94.01.38.01.75,0,1.13-.03,1.2-.15,2.39-.38,3.56-1.08,5.38-8.24,13.51-8.37,13.39-.14.12-8.09-8.02-9.27-13.39-.99-4.53-.16-9.39,1.52-13.64,1.68-4.25,7.54-13.13,7.69-12.92.13-.22,5.51,8.66,7.05,12.92Z"/>
        </g>
      </g>
      <g>
        <path class="cls-1" d="M236.85,142.01l-7.43-29.99c-.84-3.4-4.28-3.42-5.15-.04l-7.69,30.06c-.39,1.52-1.42,2.53-2.57,2.53h-10.84c-1.17,0-2.21-1.04-2.58-2.58l-14.82-60.69c-.6-2.47.71-5.03,2.58-5.03h9.87c1.23,0,2.31,1.15,2.63,2.81l5.85,30.08c.7,3.62,4.34,3.79,5.22.24l7.5-30.55c.38-1.54,1.42-2.57,2.58-2.57h9.95c1.18,0,2.23,1.06,2.6,2.64l7.09,30.61c.83,3.58,4.48,3.49,5.22-.13l6.19-30.35c.33-1.64,1.41-2.77,2.63-2.77h9.86c1.88,0,3.2,2.59,2.58,5.06l-15.19,60.69c-.38,1.53-1.42,2.55-2.58,2.55h-10.91c-1.16,0-2.2-1.03-2.58-2.56Z"/>
        <path class="cls-1" d="M313.28,142.46l-3.15-9.16c-.45-1.3-1.38-2.12-2.41-2.12h-20.49c-1.03,0-1.97.82-2.41,2.12l-3.15,9.16c-.45,1.3-1.38,2.12-2.41,2.12h-9.77c-2,0-3.3-2.96-2.38-5.44l22.43-60.84c.46-1.24,1.38-2.03,2.38-2.03h11.1c1,0,1.92.78,2.38,2.03l22.37,60.84c.91,2.48-.38,5.44-2.38,5.44h-9.7c-1.03,0-1.97-.82-2.41-2.12ZM295.06,102.88l-2.52,7.36c-.85,2.48.45,5.34,2.41,5.34h5.05c1.97,0,3.26-2.86,2.41-5.34l-2.52-7.36c-.97-2.83-3.86-2.83-4.83,0Z"/>
        <path class="cls-1" d="M333.56,96.01l1.58-4.7c.49-1.45-.27-3.12-1.42-3.12h0c-.87,0-1.57-.98-1.57-2.19v-10.01c0-1.21.7-2.19,1.57-2.19h9.42c.87,0,1.57.98,1.57,2.19v9.45c0,.43-.09.86-.27,1.22l-6.21,12.91c-.45.93-1.32,1.24-2.03.73l-1.95-1.41c-.75-.54-1.06-1.81-.7-2.88Z"/>
        <path class="cls-1" d="M359.92,140.67v-60.49c0-2.16,1.25-3.91,2.8-3.91h8.28c1.55,0,2.8,1.75,2.8,3.91v40.63c0,2.16,1.25,3.91,2.8,3.91h27.67c1.55,0,2.8,1.75,2.8,3.91v12.04c0,2.16-1.25,3.91-2.8,3.91h-41.56c-1.55,0-2.8-1.75-2.8-3.91Z"/>
        <path class="cls-1" d="M420.96,140.79v-60.73c0-2.09,1.22-3.79,2.71-3.79h8.38c1.5,0,2.71,1.7,2.71,3.79v60.73c0,2.09-1.22,3.79-2.71,3.79h-8.38c-1.5,0-2.71-1.7-2.71-3.79Z"/>
      </g>
    </g>
  </g>
</svg>