<?xml version="1.0" encoding="UTF-8"?>
<svg id="Layer_3" data-name="Layer 3" xmlns="http://www.w3.org/2000/svg" viewBox="0 0 166.92 214.47">
  <defs>
    <style>
      .cls-1 {
        fill: #1b1715;
      }
    </style>
  </defs>
  <g id="Layer_1" data-name="Layer 1">
    <g>
      <path class="cls-1" d="M126.37,19.5l-7.95,19.86h6.26c18.29,0,33.11,14.83,33.11,33.11v18.53c0,29.94-12.99,58.35-35.64,77.93l-38.69,33.46-38.69-33.46c-22.65-19.59-35.64-47.99-35.64-77.93v-18.53c0-18.29,14.83-33.11,33.11-33.11h0l-7.95-19.86H0v71.5c0,32.59,14.14,63.52,38.79,84.84l44.66,38.62,44.66-38.62c24.65-21.32,38.79-52.24,38.79-84.84V19.5h-40.55Z"/>
      <g>
        <path class="cls-1" d="M83.46,102.94c-4.21-5.54-6.54-11.27-17.74-14.97-7.82-2.58-17.83.28-22.78,2.74-6.32,3.14-15.88,15.36-16.4,18.86-.32,1.56-.04,3.29.81,4.57,1.15,1.73,3.29,2.52,5.1,1.87,1.99-.71,3.32-2.8,4.59-4.7,3.92-5.83,7.11-8.96,14.59-12.42,5.6-2.59,14.74-.43,18.14,2.19,1.49,1.15,2.81,3.03,3.53,4.94.98,2.59.83,5.33.3,8.07-.52,2.69-1.48,6.63-5.77,6.94-1.31.09-4.32-1.29-5.31-2.98-.73-1.25-1.23-3.68-.54-4.96-3.49-.17-7,2.88-8.71,6.39-1.71,3.51-1.54,8.12.42,11.45,1.88,3.19,5.31,5.07,8.65,4.77-1.48,5.79.44,11.64,3.05,17.18,2.51,5.32,5.16,8.79,8.83,12.79,1.64,1.79,5.45,4.72,8.91,8.24,3.46-3.52,7.89-6.45,9.54-8.24,3.67-4,6.32-7.47,8.83-12.79,2.61-5.54,4.54-11.39,3.05-17.18,3.34.3,6.77-1.58,8.65-4.77,1.96-3.33,2.13-7.94.42-11.45-1.71-3.51-5.21-6.57-8.71-6.39.69,1.28.16,3.68-.54,4.96-.9,1.63-2.03,3.79-5.31,2.98-4.02-.99-5.7-3.45-6.29-6.67-.37-2.02-.16-5.74.82-8.33.72-1.91,2.04-3.79,3.54-4.94,3.41-2.63,12.55-4.78,18.14-2.19,7.48,3.46,10.66,6.59,14.59,12.42,1.28,1.9,2.6,3.99,4.59,4.7,1.82.64,3.95-.14,5.1-1.87.85-1.28,1.13-3.01.81-4.57-.52-3.49-10.07-15.72-16.4-18.86-4.95-2.46-14.95-5.32-22.77-2.74-11.2,3.69-13.54,9.42-17.74,14.97ZM91.14,133.73c.23,1.14.35,2.3.37,3.46,0,.37,0,.73,0,1.1-.08,2.98-.73,5.97-1.71,8.7-1.49,4.14-6.72,12.77-6.85,12.56-.14.21-5.84-8.43-7.48-12.56-1.63-4.13-2.44-8.85-1.48-13.26,1.15-5.23,8.88-13.14,9.01-13.03.13-.11,7.09,7.8,8.14,13.03Z"/>
        <path class="cls-1" d="M74.24,8.24c-3.67,4-6.32,7.47-8.83,12.79-2.61,5.54-4.54,11.39-3.05,17.18-3.34-.3-6.77,1.58-8.65,4.77-1.96,3.33-2.13,7.94-.42,11.45,1.71,3.51,5.21,6.57,8.71,6.39-.69-1.28-.19-3.7.54-4.96.99-1.69,4-3.07,5.31-2.98,4.29.3,5.25,4.25,5.77,6.94.53,2.74.68,5.48-.3,8.07-.72,1.91-2.04,3.79-3.53,4.94-3.41,2.63-12.55,4.78-18.14,2.19-7.48-3.46-10.66-6.59-14.59-12.42-1.27-1.9-2.6-3.99-4.59-4.7-1.81-.64-3.95.14-5.1,1.87-.85,1.28-1.13,3.01-.81,4.57.52,3.49,10.07,15.72,16.4,18.86,4.95,2.46,14.95,5.32,22.78,2.74,11.2-3.69,13.53-9.42,17.74-14.97,4.2,5.54,6.54,11.27,17.74,14.97,7.82,2.58,17.83-.28,22.77-2.74,6.33-3.14,15.88-15.36,16.4-18.86.32-1.56.04-3.29-.81-4.57-1.15-1.73-3.29-2.52-5.1-1.87-1.99.71-3.31,2.8-4.59,4.7-3.92,5.83-7.11,8.96-14.59,12.42-5.6,2.59-14.74.43-18.14-2.19-1.49-1.15-2.81-3.03-3.54-4.94-.98-2.59-1.19-6.31-.82-8.33.59-3.22,2.28-5.69,6.29-6.67,3.28-.8,4.41,1.35,5.31,2.98.7,1.27,1.23,3.68.54,4.96,3.49.17,7-2.88,8.71-6.39,1.71-3.51,1.54-8.12-.42-11.45-1.88-3.19-5.31-5.07-8.65-4.77,1.48-5.79-.44-11.64-3.05-17.18-2.51-5.32-5.16-8.79-8.83-12.79-1.64-1.79-6.07-4.72-9.54-8.24-3.46,3.52-7.27,6.45-8.91,8.24ZM89.79,26.93c.98,2.73,1.64,5.72,1.71,8.7.01.37.01.73,0,1.1-.02,1.16-.14,2.32-.37,3.46-1.05,5.23-8.01,13.14-8.14,13.03-.14.11-7.87-7.8-9.01-13.03-.97-4.41-.15-9.13,1.48-13.26,1.64-4.14,7.34-12.77,7.48-12.56.13-.21,5.36,8.43,6.85,12.56Z"/>
      </g>
    </g>
  </g>
</svg>